<svg width="61" height="58" viewBox="0 0 61 58" fill="none" xmlns="http://www.w3.org/2000/svg">
<g clip-path="url(#clip0_5008_3194)">
<path d="M30.1804 56.3224C28.1082 56.3224 26.4456 54.6478 26.4456 52.6147C26.4456 50.5813 28.1323 48.907 30.1804 48.907C32.2287 48.907 33.9154 50.5813 33.9154 52.6147C33.9154 54.6478 32.2287 56.3224 30.1804 56.3224Z" fill="#FF4B11"/>
<path d="M11.4333 57.3032V57.0161C11.4333 46.7542 19.8431 38.4059 30.1806 38.4059H30.4455V45.8213H30.1806C23.9636 45.8213 18.9274 50.8445 18.9274 56.9921V57.2553H11.4333V57.3032Z" fill="#FF4B11"/>
<path d="M49.7951 42.1613C49.4097 42.1613 49.0241 42.0896 48.6386 41.97C46.6867 41.348 45.6024 39.2432 46.2289 37.2815C46.735 35.7507 48.1566 34.7222 49.7951 34.7222C50.1808 34.7222 50.5662 34.7939 50.9518 34.9135C52.9037 35.5355 53.988 37.6403 53.3616 39.6018C52.8555 41.1328 51.4338 42.1613 49.7951 42.1613Z" fill="#FF4B11"/>
<path d="M48.2531 57.4945C43.5062 55.9635 39.6266 52.6864 37.3616 48.2372C35.0965 43.8119 34.6867 38.7645 36.2291 34.0522L36.3013 33.7891L43.4099 36.0854L43.3374 36.3486C41.4097 42.2092 44.6627 48.5242 50.5665 50.4379L50.8315 50.5096L48.5183 57.5662L48.2531 57.4945Z" fill="#FF4B11"/>
<path d="M42.3015 19.2454C41.5063 19.2454 40.7594 19.0062 40.1088 18.5277C39.2894 17.9536 38.7594 17.0925 38.6147 16.1117C38.4701 15.131 38.687 14.1502 39.2894 13.3369C39.9883 12.3801 41.1209 11.806 42.3256 11.806C43.1208 11.806 43.8678 12.0452 44.5183 12.5236C45.3377 13.0977 45.8678 13.9589 46.0124 14.9396C46.157 15.9204 45.9402 16.9011 45.3377 17.7144C44.6388 18.6713 43.5063 19.2454 42.3015 19.2454Z" fill="#FF4B11"/>
<path d="M44.9031 30.5598C40.9271 30.5598 37.1199 29.34 33.9151 27.0196L33.6982 26.8521L38.0838 20.8481L38.3007 21.0156C40.2285 22.403 42.5175 23.1444 44.9031 23.1444C45.5054 23.1444 46.1079 23.0967 46.6863 23.0009C49.6501 22.5226 52.2767 20.9437 54.0357 18.5278L54.2044 18.3125L60.2527 22.666L60.0839 22.8814C56.5659 27.6894 50.9031 30.5598 44.9031 30.5598Z" fill="#FF4B11"/>
<path d="M18.036 19.2454C16.8312 19.2454 15.6987 18.6713 14.9999 17.7144C14.4216 16.9011 14.1806 15.9204 14.3252 14.9396C14.4698 13.9589 15.024 13.0977 15.8192 12.5236C16.4698 12.0692 17.2168 11.806 18.0119 11.806C19.2168 11.806 20.3494 12.3801 21.0481 13.3369C21.6264 14.1502 21.8674 15.131 21.7228 16.1117C21.5783 17.0925 21.0241 17.9536 20.2289 18.5277C19.5781 19.0062 18.8312 19.2454 18.036 19.2454Z" fill="#FF4B11"/>
<path d="M21.8191 21.159L22.0359 20.9917C24.4698 19.2454 26.0601 16.6381 26.542 13.6958C27.024 10.7536 26.3011 7.78743 24.5421 5.37145L24.3735 5.15616L30.4217 0.802612L30.5903 1.0179C33.5301 5.03657 34.7108 9.96422 33.9397 14.8679C33.1686 19.7716 30.4939 24.0773 26.4457 27.0197L26.2288 27.187L21.8191 21.159Z" fill="#FF4B11"/>
<path d="M10.5417 42.1613C8.92727 42.1613 7.48148 41.1328 6.97547 39.6018C6.34896 37.6643 7.4092 35.5593 9.38511 34.9135C9.77066 34.7939 10.1562 34.7222 10.5417 34.7222C12.1562 34.7222 13.602 35.7507 14.108 37.2815C14.7345 39.2192 13.6743 41.3243 11.6984 41.97C11.3128 42.0896 10.9273 42.1613 10.5417 42.1613Z" fill="#FF4B11"/>
<path d="M16.9998 36.3486C16.06 33.5021 14.0841 31.2058 11.4094 29.8422C9.79494 29.0289 8.08407 28.6223 6.30092 28.6223C5.1202 28.6223 3.93946 28.8136 2.80692 29.1724L2.56596 29.2681L0.252686 22.1876L0.517749 22.1159C2.42137 21.4939 4.37319 21.2069 6.32502 21.2069C9.28891 21.2069 12.1323 21.9006 14.807 23.2401C19.2648 25.4887 22.5661 29.34 24.1324 34.0762L24.2046 34.3394L17.0962 36.6357L16.9998 36.3486Z" fill="#FF4B11"/>
</g>
<defs>
<clipPath id="clip0_5008_3194">
<rect width="60" height="56.7636" fill="white" transform="translate(0.252686 0.802612)"/>
</clipPath>
</defs>
</svg>
