<svg width="49" height="60" viewBox="0 0 49 60" fill="none" xmlns="http://www.w3.org/2000/svg">
<g clip-path="url(#clip0_5625_2439)">
<path fill-rule="evenodd" clip-rule="evenodd" d="M39.7825 28.9043H20.0104V24.7832H45.0232V27.7803L30.0035 60.0002H24.9219L39.7825 28.9043Z" fill="black"/>
<path fill-rule="evenodd" clip-rule="evenodd" d="M33.485 5.1052C33.5133 4.98077 33.5394 4.96653 33.5394 4.82711C33.5394 4.63898 33.5133 4.40812 33.4632 4.40812H36.4519C37.5876 4.40812 38.51 3.24931 38.51 2.14597V1.73297C38.51 0.629628 37.5876 0 36.4519 0H23.5275C22.3902 0 21.4679 0.629628 21.4679 1.73297V2.14597C21.4679 3.24931 22.3902 4.40812 23.5275 4.40812H26.0887C26.0386 4.40812 26.0125 4.63898 26.0125 4.82711C26.0125 4.90733 26.0227 4.96578 26.0358 5.02424C19.9474 5.7813 13.9483 8.62659 9.18952 13.1022C3.26372 18.6758 0 25.9637 0 33.6257C0 45.3382 7.01444 55.4414 17.0727 59.9994L19.0794 55.9982C10.416 52.1943 4.35454 43.6007 4.35454 33.6257C4.35454 19.7094 17.5089 9.31094 29.2711 9.31094C35.7667 9.31094 42.0417 11.7455 46.812 15.5381L48.7752 11.4239C44.4344 8.13939 39.1169 5.87424 33.485 5.1052Z" fill="#FB7448"/>
</g>
<defs>
<clipPath id="clip0_5625_2439">
<rect width="48.7752" height="60" fill="white"/>
</clipPath>
</defs>
</svg>
