<svg width="61" height="51" viewBox="0 0 61 51" fill="none" xmlns="http://www.w3.org/2000/svg">
<g clip-path="url(#clip0_4767_4841)">
<path d="M54.1368 39.2196C54.0512 39.0485 53.7091 38.8774 53.6235 38.8774H45.4118C45.1552 38.8774 44.8986 38.7064 44.8986 38.5353L30.699 15.0121C30.6135 14.841 30.4424 14.841 30.2713 15.0121L16.3285 38.5353C16.2429 38.7064 15.9008 38.8774 15.8152 38.8774H7.60346C7.34684 38.8774 7.09022 39.0485 7.09022 39.2196L5.20836 42.3845C5.12282 42.5556 5.20836 42.7267 5.37944 42.7267H17.9537C18.2103 42.7267 18.4669 42.5556 18.4669 42.3845L30.3569 22.454C30.4424 22.2829 30.6135 22.2829 30.7846 22.454L42.6745 42.3845C42.7601 42.5556 43.0167 42.7267 43.1878 42.7267H55.762C56.0186 42.7267 56.1042 42.5556 55.9331 42.3845L54.1368 39.2196Z" fill="#222222"/>
<path d="M60.4664 49.9119C60.552 50.083 60.4664 50.2541 60.2954 50.2541H38.825C38.5684 50.2541 38.3118 50.083 38.3118 49.9119L30.8699 37.4233C30.7843 37.2522 30.6133 37.2522 30.4422 37.4233L22.9147 49.9119C22.8292 50.083 22.487 50.2541 22.4015 50.2541H0.760083C0.503466 50.2541 0.417927 50.083 0.589005 49.9119L2.47087 46.747C2.55641 46.5759 2.81302 46.4049 2.9841 46.4049H20.0919C20.3486 46.4049 20.6052 46.2338 20.6052 46.0627L30.2711 29.8103C30.3566 29.6392 30.5277 29.6392 30.6988 29.8103L40.3647 46.0627C40.4503 46.2338 40.7924 46.4049 40.878 46.4049H57.9003C58.1569 46.4049 58.4135 46.5759 58.4135 46.747L60.4664 49.9119Z" fill="#222222"/>
<path d="M30.6987 44.8651C30.6131 44.694 30.4421 44.694 30.271 44.8651L27.3627 49.9119C27.2771 50.083 27.3627 50.2541 27.5337 50.2541H33.6926C33.9492 50.2541 34.0347 50.083 33.8636 49.9119L30.6987 44.8651Z" fill="#222222"/>
<path d="M30.3559 0.128308C30.4414 -0.0427694 30.6125 -0.0427694 30.7836 0.128308L51.4841 34.8571C51.5696 35.0282 51.4841 35.1992 51.313 35.1992H47.6348C47.3782 35.1992 47.1216 35.0282 47.1216 34.8571L30.6981 7.48465C30.6125 7.31357 30.4414 7.31357 30.2704 7.48465L14.0179 34.7716C13.9324 34.9426 13.6758 35.1137 13.5047 35.1137H9.82649C9.56987 35.1137 9.48433 34.9426 9.65541 34.7716L30.3559 0.128308Z" fill="#222222"/>
<path d="M54.1368 39.2196C54.0512 39.0485 53.7091 38.8774 53.6235 38.8774H45.4118C45.1552 38.8774 44.8986 38.7064 44.8986 38.5353L30.699 15.0121C30.6135 14.841 30.4424 14.841 30.2713 15.0121L16.3285 38.5353C16.2429 38.7064 15.9008 38.8774 15.8152 38.8774H7.60346C7.34684 38.8774 7.09022 39.0485 7.09022 39.2196L5.20836 42.3845C5.12282 42.5556 5.20836 42.7267 5.37944 42.7267H17.9537C18.2103 42.7267 18.4669 42.5556 18.4669 42.3845L30.3569 22.454C30.4424 22.2829 30.6135 22.2829 30.7846 22.454L42.6745 42.3845C42.7601 42.5556 43.0167 42.7267 43.1878 42.7267H55.762C56.0186 42.7267 56.1042 42.5556 55.9331 42.3845L54.1368 39.2196Z" fill="#238EFE"/>
<path d="M60.4664 49.9119C60.552 50.083 60.4664 50.2541 60.2954 50.2541H38.825C38.5684 50.2541 38.3118 50.083 38.3118 49.9119L30.8699 37.4233C30.7843 37.2522 30.6133 37.2522 30.4422 37.4233L22.9147 49.9119C22.8292 50.083 22.487 50.2541 22.4015 50.2541H0.760083C0.503466 50.2541 0.417927 50.083 0.589005 49.9119L2.47087 46.747C2.55641 46.5759 2.81302 46.4049 2.9841 46.4049H20.0919C20.3486 46.4049 20.6052 46.2338 20.6052 46.0627L30.2711 29.8103C30.3566 29.6392 30.5277 29.6392 30.6988 29.8103L40.3647 46.0627C40.4503 46.2338 40.7924 46.4049 40.878 46.4049H57.9003C58.1569 46.4049 58.4135 46.5759 58.4135 46.747L60.4664 49.9119Z" fill="#2747CE"/>
<path d="M30.6987 44.8651C30.6131 44.694 30.4421 44.694 30.271 44.8651L27.3627 49.9119C27.2771 50.083 27.3627 50.2541 27.5337 50.2541H33.6926C33.9492 50.2541 34.0347 50.083 33.8636 49.9119L30.6987 44.8651Z" fill="#2249C7"/>
<path d="M30.3559 0.128308C30.4414 -0.0427694 30.6125 -0.0427694 30.7836 0.128308L51.4841 34.8571C51.5696 35.0282 51.4841 35.1992 51.313 35.1992H47.6348C47.3782 35.1992 47.1216 35.0282 47.1216 34.8571L30.6981 7.48465C30.6125 7.31357 30.4414 7.31357 30.2704 7.48465L14.0179 34.7716C13.9324 34.9426 13.6758 35.1137 13.5047 35.1137H9.82649C9.56987 35.1137 9.48433 34.9426 9.65541 34.7716L30.3559 0.128308Z" fill="#96CFFE"/>
</g>
<defs>
<clipPath id="clip0_4767_4841">
<rect width="60" height="50.2541" fill="white" transform="translate(0.5)"/>
</clipPath>
</defs>
</svg>
