<svg version="1.1" id="Layer_1" xmlns:x="ns_extend;" xmlns:i="ns_ai;" xmlns:graph="ns_graphs;" xmlns="http://www.w3.org/2000/svg" xmlns:xlink="http://www.w3.org/1999/xlink" x="0px" y="0px" viewBox="0 0 49.5 49.4" style="enable-background:new 0 0 49.5 49.4;" xml:space="preserve">
 <style type="text/css">
  .st0{filter:url(#Adobe_OpacityMaskFilter);}
	.st1{fill-rule:evenodd;clip-rule:evenodd;fill:#FFFFFF;}
	.st2{mask:url(#acumatica-logo-b_1_);fill-rule:evenodd;clip-rule:evenodd;fill:#49C8F5;}
 </style>
 <metadata>
  <sfw xmlns="ns_sfw;">
   <slices>
   </slices>
   <sliceSourceBounds bottomLeftOrigin="true" height="49.4" width="49.5" x="-52.2" y="23.3">
   </sliceSourceBounds>
  </sfw>
 </metadata>
 <g transform="translate(0 .197)">
  <defs>
   <filter id="Adobe_OpacityMaskFilter" filterUnits="userSpaceOnUse" x="0" y="-0.2" width="49.5" height="49.4">
    <feColorMatrix type="matrix" values="1 0 0 0 0  0 1 0 0 0  0 0 1 0 0  0 0 0 1 0">
    </feColorMatrix>
   </filter>
  </defs>
  <mask maskUnits="userSpaceOnUse" x="0" y="-0.2" width="49.5" height="49.4" id="acumatica-logo-b_1_">
   <g class="st0">
    <polygon id="acumatica-logo-a_1_" class="st1" points="0,-0.2 49.5,-0.2 49.5,49.2 0,49.2 			">
    </polygon>
   </g>
  </mask>
  <path class="st2" d="M34.6,34.2h-9.8c-5.4,0-9.8-4.4-9.8-9.8c0-5.4,4.4-9.8,9.8-9.8s9.8,4.4,9.8,9.8V34.2z M24.8-0.2
		C11.1-0.2,0,10.9,0,24.5c0,13.6,11.1,24.7,24.8,24.7h24.8V24.5C49.5,10.9,38.4-0.2,24.8-0.2L24.8-0.2z">
  </path>
 </g>
</svg>