<svg width="40" height="40" viewBox="0 0 40 40" fill="none" xmlns="http://www.w3.org/2000/svg">
<path d="M19.3269 16.0839V20.3503C19.3269 23.0482 17.2565 23.9265 16.3154 24.1775C16.0644 24.2402 15.6879 24.1148 15.5625 23.7383C15.4997 23.4246 15.6879 23.1109 16.0017 22.9854C16.9428 22.7345 18.0721 22.0443 18.0721 20.3503V16.0839C18.0721 15.7702 18.3231 15.4565 18.6995 15.4565C19.0132 15.4565 19.3269 15.7075 19.3269 16.0839ZM8.8492 21.2914C9.10017 21.7934 8.59824 22.4835 7.97083 22.1071C7.97083 22.1071 5.58668 20.5385 3.82994 19.8484L2.76335 21.8561C2.70061 22.0443 2.26142 22.358 1.88498 22.1071C-1.06384 20.4131 -0.499173 17.0878 3.20253 18.2171L4.70831 15.3311C5.02201 14.8291 5.64942 14.9546 5.83765 15.3311L8.8492 21.2914ZM2.63787 19.4092C0.253716 18.7191 1.50853 20.3503 2.01046 20.664L2.63787 19.4092ZM6.71602 19.8484L5.21024 17.0251L4.39461 18.7191C4.95927 18.9073 6.21409 19.5974 6.71602 19.8484ZM16.1271 18.7818C16.1271 20.664 14.6214 22.1698 12.7391 22.1698H10.7314C10.355 22.1698 10.104 21.8561 10.104 21.5424V16.0839C10.104 15.7075 10.4177 15.4565 10.7314 15.4565H12.7391C14.6214 15.4565 16.1271 16.9623 16.1271 18.7818ZM14.8723 18.7818C14.8723 17.6525 13.9312 16.7114 12.8019 16.7114H11.4216V20.915H12.8019C13.9312 20.915 14.8723 19.9739 14.8723 18.7818ZM25.9147 16.0839V19.221C25.9147 20.2248 25.2245 20.915 24.2207 20.915C23.2168 20.915 22.5267 20.2248 22.5267 19.221V16.0839C22.5267 15.2683 21.2719 15.2683 21.2719 16.0839V19.221C21.2719 20.915 22.5267 22.1698 24.2207 22.1698C25.9147 22.1698 27.1695 20.915 27.1695 19.221V16.0839C27.1695 15.2683 25.9147 15.2683 25.9147 16.0839ZM39.3412 15.4565H34.6984C33.8828 15.4565 33.8828 16.7114 34.6984 16.7114H36.3924V21.5424C36.3924 22.358 37.6472 22.358 37.6472 21.5424V16.7114H39.3412C40.2196 16.7114 40.2196 15.4565 39.3412 15.4565ZM29.6791 17.0878C29.7419 16.5231 30.8712 16.2094 31.8123 17.0251C32.4397 17.527 33.2554 16.7741 32.6907 16.0839C31.6241 14.8919 28.4243 14.9546 28.4243 17.2133C28.4243 19.5974 32.126 19.0955 31.7496 20.4758C31.5614 21.1032 30.1183 21.3542 29.4282 20.4131C28.8635 19.5974 27.8597 20.4131 28.3616 21.1032C29.8046 23.1737 33.0671 22.2953 33.0671 20.2876C33.0671 17.9662 29.6164 18.4054 29.6791 17.0878Z" fill="black"/>
</svg>
