<svg width="256" height="256" viewBox="0 0 256 256" fill="none" xmlns="http://www.w3.org/2000/svg">
<path d="M0 48C0 21.4903 21.4903 0 48 0H208C234.51 0 256 21.4903 256 48V208C256 234.51 234.51 256 208 256H48C21.4903 256 0 234.51 0 208V48Z" fill="#FA0F00"/>
<path d="M198.31 194.274H168.146C166.836 194.298 165.548 193.932 164.446 193.222C163.344 192.511 162.479 191.49 161.96 190.286L129.213 113.72C129.128 113.422 128.949 113.159 128.702 112.971C128.456 112.782 128.155 112.679 127.845 112.675C127.535 112.671 127.232 112.767 126.981 112.948C126.729 113.13 126.543 113.388 126.45 113.684L106.043 162.297C105.932 162.56 105.888 162.847 105.915 163.131C105.941 163.415 106.038 163.688 106.196 163.926C106.353 164.163 106.568 164.358 106.819 164.493C107.071 164.628 107.351 164.699 107.637 164.699H130.069C130.748 164.699 131.413 164.899 131.979 165.274C132.546 165.649 132.989 166.183 133.254 166.809L143.075 188.664C143.335 189.278 143.44 189.946 143.379 190.609C143.318 191.273 143.094 191.911 142.726 192.466C142.358 193.022 141.859 193.478 141.272 193.793C140.685 194.109 140.03 194.274 139.363 194.274H57.7006C57.0864 194.271 56.4826 194.115 55.9431 193.821C55.4036 193.528 54.9451 193.105 54.6085 192.592C54.2719 192.078 54.0677 191.489 54.014 190.877C53.9603 190.265 54.0589 189.649 54.3009 189.085L106.245 65.3853C106.776 64.0761 107.689 62.9573 108.865 62.1751C110.042 61.3929 111.427 60.9836 112.839 61.0006H142.799C144.212 60.9819 145.598 61.3905 146.775 62.1729C147.952 62.9554 148.865 64.0751 149.395 65.3853L201.698 189.085C201.94 189.648 202.039 190.263 201.986 190.874C201.933 191.485 201.73 192.074 201.394 192.587C201.059 193.101 200.602 193.524 200.064 193.818C199.526 194.112 198.923 194.269 198.31 194.274Z" fill="white"/>
</svg>
