<svg width="40" height="40" viewBox="0 0 40 40" fill="none" xmlns="http://www.w3.org/2000/svg">
<path d="M34.9535 27.4181V26.9936H35.2652C35.4725 26.9936 35.5287 27.0576 35.5287 27.1817C35.5287 27.3088 35.4726 27.4112 35.2283 27.4181H34.9535V27.4181ZM35.1722 27.6772C35.2617 27.6851 35.3479 27.6772 35.4129 27.7451C35.4873 27.824 35.4873 27.9559 35.506 28.0987C35.5178 28.1963 35.544 28.3016 35.5627 28.3952H35.8936C35.837 28.2455 35.8183 28.0722 35.7956 27.9146C35.769 27.7343 35.7434 27.6329 35.5139 27.5875V27.5796C35.736 27.5344 35.8523 27.3846 35.8523 27.1925C35.8523 26.8173 35.536 26.7345 35.2321 26.7345H34.6943V28.3952H34.9535V27.6772H35.1722V27.6772ZM35.2544 29C36.0369 29 36.6639 28.3696 36.6639 27.5836C36.6639 26.8054 36.0369 26.1741 35.2544 26.1741C34.4688 26.1741 33.8374 26.8054 33.8374 27.5836C33.8374 28.3696 34.4688 29 35.2544 29ZM35.2544 28.7528C34.6082 28.7528 34.0862 28.2298 34.0862 27.5836C34.0862 26.9453 34.6082 26.4223 35.2544 26.4223C35.8976 26.4223 36.4166 26.9453 36.4166 27.5836C36.4166 28.2298 35.8976 28.7528 35.2544 28.7528Z" fill="#EE2722"/>
<path d="M32.8653 14.7362H30.5954V17.0036H32.8653C33.404 17.0036 33.8375 17.4424 33.8375 17.978C33.8375 18.5173 33.404 18.9507 32.8653 18.9507H30.5954V21.2201H32.8653C34.6565 21.2201 36.1074 19.7677 36.1074 17.978C36.1074 16.1878 34.6565 14.7362 32.8653 14.7362ZM19.9295 26.7345C22.6466 26.7345 24.9883 25.1433 26.0822 22.8404H28.9756V26.7345H30.5954V22.8404H32.8653C35.5529 22.8404 37.7301 20.6631 37.7301 17.978C37.7301 15.2922 35.5529 13.1141 32.8653 13.1141H28.9756V18.9507H26.6672C26.1964 15.6522 23.3592 13.1141 19.9295 13.1141H11.9471L4.00693 26.7345H5.90109L8.17049 22.8404H16.3303V26.7345H19.9295ZM40 17.978C40 21.917 36.8052 25.1098 32.8653 25.1098V29H26.7066V25.9652C25.0405 27.8279 22.6239 29 19.9295 29H14.0605V25.1098H9.47339L7.20398 29H0L10.5891 10.8447H19.9295C22.6239 10.8447 25.0405 12.0201 26.7066 13.8829V10.8447H32.8653C36.8052 10.8447 40 14.0401 40 17.978ZM14.0605 14.7362V18.9507H10.4399L9.11753 21.2201H16.3303V14.7362H14.0605V14.7362ZM25.1184 19.9224C25.1184 22.7877 22.7943 25.1098 19.9295 25.1098H17.9511V22.8404H19.9295C21.5424 22.8404 22.8494 21.5358 22.8494 19.9224C22.8494 18.3124 21.5424 17.0036 19.9295 17.0036H17.9511V14.7362H19.9295C22.7943 14.7362 25.1184 17.0583 25.1184 19.9224Z" fill="#EE2722"/>
<path d="M32.8653 14.7362H30.5954V17.0036H32.8653C33.404 17.0036 33.8375 17.4424 33.8375 17.978C33.8375 18.5173 33.404 18.9507 32.8653 18.9507H30.5954V21.2201H32.8653C34.6565 21.2201 36.1074 19.7677 36.1074 17.978C36.1074 16.1878 34.6565 14.7362 32.8653 14.7362ZM19.9295 26.7345C22.6466 26.7345 24.9883 25.1433 26.0822 22.8404H28.9756V26.7345H30.5954V22.8404H32.8653C35.5529 22.8404 37.7301 20.6631 37.7301 17.978C37.7301 15.2922 35.5529 13.1141 32.8653 13.1141H28.9756V18.9507H26.6672C26.1964 15.6522 23.3592 13.1141 19.9295 13.1141H11.9471L4.00693 26.7345H5.90109L8.17049 22.8404H16.3303V26.7345H19.9295ZM40 17.978C40 21.917 36.8052 25.1098 32.8653 25.1098V29H26.7066V25.9652C25.0405 27.8279 22.6239 29 19.9295 29H14.0605V25.1098H9.47339L7.20398 29H0L10.5891 10.8447H19.9295C22.6239 10.8447 25.0405 12.0201 26.7066 13.8829V10.8447H32.8653C36.8052 10.8447 40 14.0401 40 17.978ZM14.0605 14.7362V18.9507H10.4399L9.11753 21.2201H16.3303V14.7362H14.0605V14.7362ZM25.1184 19.9224C25.1184 22.7877 22.7943 25.1098 19.9295 25.1098H17.9511V22.8404H19.9295C21.5424 22.8404 22.8494 21.5358 22.8494 19.9224C22.8494 18.3124 21.5424 17.0036 19.9295 17.0036H17.9511V14.7362H19.9295C22.7943 14.7362 25.1184 17.0583 25.1184 19.9224Z" fill="#EE2722"/>
<path d="M32.8653 14.7362H30.5954V17.0036H32.8653C33.404 17.0036 33.8375 17.4424 33.8375 17.978C33.8375 18.5173 33.404 18.9507 32.8653 18.9507H30.5954V21.2201H32.8653C34.6565 21.2201 36.1074 19.7677 36.1074 17.978C36.1074 16.1878 34.6565 14.7362 32.8653 14.7362ZM19.9295 26.7345C22.6466 26.7345 24.9883 25.1433 26.0822 22.8404H28.9756V26.7345H30.5954V22.8404H32.8653C35.5529 22.8404 37.7301 20.6631 37.7301 17.978C37.7301 15.2922 35.5529 13.1141 32.8653 13.1141H28.9756V18.9507H26.6672C26.1964 15.6522 23.3592 13.1141 19.9295 13.1141H11.9471L4.00693 26.7345H5.90109L8.17049 22.8404H16.3303V26.7345H19.9295ZM40 17.978C40 21.917 36.8052 25.1098 32.8653 25.1098V29H26.7066V25.9652C25.0405 27.8279 22.6239 29 19.9295 29H14.0605V25.1098H9.47339L7.20398 29H0L10.5891 10.8447H19.9295C22.6239 10.8447 25.0405 12.0201 26.7066 13.8829V10.8447H32.8653C36.8052 10.8447 40 14.0401 40 17.978ZM14.0605 14.7362V18.9507H10.4399L9.11753 21.2201H16.3303V14.7362H14.0605V14.7362ZM25.1184 19.9224C25.1184 22.7877 22.7943 25.1098 19.9295 25.1098H17.9511V22.8404H19.9295C21.5424 22.8404 22.8494 21.5358 22.8494 19.9224C22.8494 18.3124 21.5424 17.0036 19.9295 17.0036H17.9511V14.7362H19.9295C22.7943 14.7362 25.1184 17.0583 25.1184 19.9224Z" fill="#EE2722"/>
</svg>
