<svg width="192" height="192" viewBox="0 0 192 192" fill="none" xmlns="http://www.w3.org/2000/svg">
<g clip-path="url(#clip0)">
<path d="M110.4 182.808C129.705 181.716 148.087 174.179 162.602 161.404C177.118 148.629 186.928 131.354 190.464 112.344C190.414 110.347 190.948 108.378 192 106.68V87.048C191.707 86.6642 191.57 86.1843 191.616 85.704C189.936 79.992 189.36 74.04 187.536 68.328C182.298 52.2172 172.413 38.0154 159.123 27.5099C145.833 17.0043 129.732 10.6644 112.848 9.288C112.56 9.288 112.416 9.288 112.368 9H97.6798C97.571 9.14047 97.4193 9.24159 97.2477 9.288C83.696 10.4394 70.6075 14.7739 59.0471 21.9386C47.4867 29.1034 37.781 38.8961 30.7197 50.52C29.6637 52.2 28.8477 53.496 30.7197 55.32C43.8237 68.232 56.7358 81.192 69.7438 94.248L70.7518 94.872C71.5678 91.512 72.0478 88.152 73.1518 85.032C75.6918 77.4029 80.8834 70.9376 87.784 66.8102C94.6847 62.6827 102.837 61.1668 110.76 62.5377C118.683 63.9085 125.852 68.0753 130.964 74.2813C136.077 80.4873 138.795 88.321 138.624 96.36C138.556 104.29 135.686 111.94 130.52 117.958C125.355 123.975 118.228 127.971 110.4 129.24C107.566 129.592 104.708 129.705 101.856 129.576H35.0398C17.0878 129.576 5.85573 138.12 0.719727 155.496C0.719727 155.88 0.239756 156.12 -0.000244141 156.408V182.424C1.41283 182.936 2.9355 183.068 4.41575 182.808H110.016C110.016 182.808 110.112 182.808 110.4 182.808Z" fill="#0DBCFE"/>
</g>
<defs>
<clipPath id="clip0">
<rect width="192" height="192" fill="white"/>
</clipPath>
</defs>
</svg>
