<svg width="61" height="61" viewBox="0 0 61 61" fill="none" xmlns="http://www.w3.org/2000/svg">
<g clip-path="url(#clip0_5008_3195)">
<path fill-rule="evenodd" clip-rule="evenodd" d="M53.1392 30.4386C53.1381 30.9231 53.0771 31.4055 52.9575 31.8749L55.9486 34.8855C61.7186 40.7514 61.6777 50.1679 55.8571 55.9835C50.0364 61.7991 40.6119 61.84 34.7411 56.075L31.7749 53.1114C30.801 53.3696 29.7764 53.3696 28.8025 53.1114L25.8552 56.0594C19.9988 61.9115 10.5032 61.9122 4.64603 56.0608C-1.21115 50.2096 -1.21185 40.722 4.64447 34.8699L7.95825 31.5558C7.81 30.812 7.81 30.0464 7.95825 29.3026L4.64759 25.9916C0.859222 22.2059 -0.620008 16.6884 0.767118 11.5176C2.15425 6.34672 6.19698 2.30803 11.3725 0.922864C16.548 -0.46231 22.0699 1.01647 25.8584 4.80216L28.4548 7.39647C29.6477 7.00768 30.9345 7.01536 32.1226 7.41837L34.7441 4.79903C40.6151 -0.966008 50.0396 -0.925184 55.8602 4.8905C61.681 10.7062 61.7218 20.1226 55.9518 25.9885L52.9512 28.9865C53.0758 29.4605 53.139 29.9484 53.1392 30.4386ZM38.7963 8.87L35.9775 11.6865C36.0722 12.1055 36.1205 12.5337 36.1215 12.9633C36.1219 13.5756 36.0246 14.1841 35.8333 14.7659L45.8498 24.7644C46.3184 24.6434 46.8005 24.5824 47.2844 24.583C47.8615 24.5823 48.4357 24.6666 48.9882 24.8333L51.8792 21.9416C55.3893 18.315 55.341 12.5461 51.7705 8.97864C48.1999 5.41121 42.4261 5.36287 38.7963 8.87ZM35.9341 45.9914L45.8222 36.1086C46.8657 36.3812 47.9648 36.3562 48.9951 36.0367L51.8892 38.9283C55.3992 42.5551 55.3509 48.3238 51.7803 51.8914C48.2098 55.4588 42.4361 55.5071 38.8062 51.9999L35.8872 49.0802C36.0421 48.5473 36.1212 47.9952 36.1219 47.4404C36.1221 46.9513 36.0589 46.4643 35.9341 45.9914ZM31.9586 41.8418L41.6682 32.1405L41.6713 32.1468C41.331 31.0331 41.331 29.8432 41.6713 28.7296L31.6015 18.6683C30.7406 18.8754 29.8433 18.8807 28.9798 18.6839L19.2171 28.4322C19.689 29.7247 19.689 31.1422 19.2171 32.4347L28.6134 41.8231C29.7065 41.504 30.8691 41.5104 31.9586 41.8418ZM24.707 14.8293L24.7024 14.834C24.3526 13.8014 24.3021 12.6911 24.5567 11.631L21.7911 8.86772C18.1612 5.36059 12.3874 5.40893 8.8169 8.97638C5.2464 12.5438 5.19802 18.3127 8.70816 21.9394L11.7181 24.9437C12.7193 24.5742 13.803 24.4876 14.8503 24.6933L24.7024 14.834L24.704 14.8387L24.707 14.8293ZM14.8502 36.1846C13.8035 36.3902 12.7203 36.3057 11.7181 35.9405L8.70816 38.9292C5.19802 42.5559 5.2464 48.3247 8.8169 51.8921C12.3874 55.4596 18.1612 55.5079 21.7911 52.0008L24.6475 49.1436C24.4806 48.5916 24.3961 48.018 24.397 47.4412C24.3965 46.9297 24.4639 46.4204 24.5975 45.9266L14.8502 36.1846Z" fill="#2665F1"/>
</g>
<defs>
<clipPath id="clip0_5008_3195">
<rect width="60" height="60.0367" fill="white" transform="translate(0.252686 0.412231)"/>
</clipPath>
</defs>
</svg>
