<svg width="69" height="60" viewBox="0 0 69 60" fill="none" xmlns="http://www.w3.org/2000/svg">
<g clip-path="url(#clip0_5221_2620)">
<path d="M63.8464 12.5818L43.5965 1.1787C37.6565 -2.16933 30.2255 2.01271 30.2255 8.71478V9.88479C30.2255 10.9408 30.8045 11.9188 31.7405 12.4438L35.5655 14.5978C36.6875 15.2339 38.0855 14.4418 38.0855 13.1788V10.2688C38.0855 8.81378 39.6995 7.90177 40.9895 8.63078L58.5274 18.5129C59.8174 19.2389 59.8174 21.0569 58.5274 21.7829L40.9895 31.662C39.6995 32.388 38.0885 31.482 38.0885 30.024V28.476C38.0885 21.7769 30.6575 17.5859 24.7085 20.9399L4.45862 32.346C3.10855 33.0876 1.98246 34.1783 1.19812 35.504C0.413786 36.8297 0 38.3417 0 39.8821C0 41.4225 0.413786 42.9345 1.19812 44.2602C1.98246 45.5859 3.10855 46.6766 4.45862 47.4182L24.7085 58.8213C30.6515 62.1693 38.0885 57.9873 38.0885 51.2852V50.1152C38.085 49.5924 37.9426 49.0799 37.6759 48.6302C37.4091 48.1805 37.0276 47.8099 36.5705 47.5562L32.7485 45.3962C31.6265 44.7632 30.2255 45.5552 30.2255 46.8182V49.7282C30.2255 51.1832 28.6115 52.0922 27.3245 51.3632L9.78358 41.4841C9.49091 41.3227 9.2469 41.0857 9.07696 40.7978C8.90702 40.51 8.81739 40.1819 8.81739 39.8476C8.81739 39.5133 8.90702 39.1852 9.07696 38.8974C9.2469 38.6095 9.49091 38.3725 9.78358 38.2111L27.3245 28.329C28.6145 27.6 30.2255 28.509 30.2255 29.967V31.515C30.2255 38.2141 37.6535 42.4051 43.5965 39.0511L63.8464 27.645C65.1951 26.9038 66.3201 25.8139 67.1036 24.4893C67.8872 23.1647 68.3005 21.6539 68.3005 20.1149C68.3005 18.5759 67.8872 17.0651 67.1036 15.7405C66.3201 14.4159 65.1951 13.326 63.8464 12.5848V12.5818Z" fill="black"/>
</g>
<defs>
<clipPath id="clip0_5221_2620">
<rect width="68.3005" height="60" fill="white"/>
</clipPath>
</defs>
</svg>
