<svg width="60" height="24" viewBox="0 0 60 24" fill="none" xmlns="http://www.w3.org/2000/svg">
<g clip-path="url(#clip0_5368_2364)">
<path d="M6.62791 17.9302L5.5814 22.6046C5.5814 22.7441 5.44186 22.8139 5.30233 22.8139H0.27907C0.209302 22.8139 0.0697674 22.7441 0.0697674 22.6744C0 22.6046 0 22.5348 0 22.4651L6.62791 2.37204C6.62791 2.37204 6.76744 2.0232 7.18605 1.88367C8.65116 1.6046 10.9535 1.25576 12.5581 0.976693C12.907 0.906926 13.0465 1.25576 13.0465 1.25576L19.5349 22.6046C19.5349 22.6744 19.5349 22.7441 19.4651 22.8139C19.3953 22.8837 19.3256 22.8837 19.2558 22.8837H16.3256C15.5581 22.8837 14.0233 22.9534 13.4651 22.9534C13.3256 22.9534 13.186 22.8837 13.186 22.7441L12.1395 17.9999L6.62791 17.9302ZM11.3023 13.8139C10.8837 12.1395 10.2558 9.13948 9.62791 6.55809C9.2093 8.37204 8.23256 12.0697 7.74419 13.8139H11.3023ZM26.1628 8.86041C29.7209 6.41855 32.7209 6.97669 34.186 8.44181C35.9302 10.2558 34.9535 12.6279 35.5116 22.6046C35.5116 22.6744 35.5116 22.7441 35.4419 22.8139C35.3721 22.8837 35.3023 22.8837 35.2326 22.8837C34.6744 22.8837 33.6279 22.8139 33.1395 22.8139C32.3023 22.8139 30.5581 22.8837 29.8605 22.8837C29.7907 22.8837 29.7209 22.8837 29.6512 22.8139C29.5814 22.7441 29.5814 22.6744 29.5814 22.6046C29.6512 12.8372 29.7209 11.5116 27.9767 11.5116C27.3488 11.5116 26.8605 11.7906 26.3023 11.9999C26.3023 17.0232 26.3721 18.4883 26.5814 22.5348C26.5814 22.6046 26.5814 22.6744 26.5116 22.6744C26.4419 22.7441 26.3721 22.7441 26.3721 22.7441L20.7907 22.8139C20.7209 22.8139 20.6512 22.8139 20.6512 22.7441C20.5814 22.6744 20.5814 22.6046 20.5814 22.6046C20.7209 8.02321 20.5814 5.0232 20.1628 1.95344C19.9535 1.8139 20.2326 1.8139 20.2326 1.8139C22.7442 1.46507 22.9535 1.3953 25.814 0.837158C25.814 0.837158 26.093 0.837158 26.093 1.186C26.1628 3.34879 26.1628 8.86041 26.1628 8.86041ZM45.2791 21.3488C44.2326 22.1162 42.2093 23.1627 40.5349 23.1627C37.9535 23.1627 36.3488 21.279 36.3488 18.4883C36.3488 14.1627 41.4419 12.9069 45.0698 12.4186C45.1395 11.7209 45.1395 10.9534 43.3256 10.9534C41.5116 10.9534 39.9767 11.5116 38.3721 12.1395C38.3023 12.2093 38.1628 12.1395 38.093 12.1395C38.0233 12.0697 37.9535 11.9999 37.9535 11.8604L38.093 8.51158C38.093 8.37204 38.1628 8.30227 38.3023 8.23251C41.5814 7.25576 47.1628 6.48832 49.4651 8.65111C50.9302 9.97669 50.8605 11.6511 50.7907 14.4418C50.7209 18.4883 50.7907 19.6046 51 22.6046C51 22.6744 51 22.7441 50.9302 22.8139C50.8605 22.8837 50.7907 22.8837 50.7209 22.8837L45.5581 22.9534C45.4884 22.9534 45.4186 22.9534 45.3488 22.8837C45.2791 22.8139 45.2791 22.7441 45.2791 22.6744V21.3488ZM45.1395 15.5581C43.814 15.6976 41.7907 15.8372 41.7907 17.5813C41.7907 19.1162 43.4651 19.6046 45.1395 18.5581V15.5581ZM54.4884 15.6279C54.3488 15.6279 54.2093 15.4883 54.2093 15.3488C53.8605 7.74413 53.7907 6.90693 53.3721 2.16274C53.3721 2.0232 53.4419 1.88367 53.6512 1.8139L59.2326 0.906926C59.3023 0.906926 59.4419 0.906926 59.5116 0.976693C59.5814 1.04646 59.5814 1.11623 59.5814 1.25576C59.2326 4.67437 58.8837 11.1627 58.814 15.279C58.814 15.4186 58.6744 15.5581 58.5349 15.5581L54.4884 15.6279ZM53.5144 22.1051C53.5116 22.0813 53.5116 22.0583 53.5116 22.0353C53.5116 21.0886 53.5353 20.1181 53.5416 19.2774C53.5411 18.9676 53.5311 18.6579 53.5116 18.3488C53.5116 18.3006 53.5116 18.2525 53.534 18.2051C53.5299 18.0449 53.5225 17.8849 53.5116 17.7251C53.5116 17.6553 53.5116 17.5841 53.5821 17.5137C53.6533 17.4425 53.7237 17.4425 53.7942 17.4425C55.207 17.5841 57.6802 17.5137 58.8105 17.372C58.8809 17.372 58.9514 17.372 59.0226 17.4425C59.093 17.5137 59.093 17.5841 59.093 17.6546C59.093 17.8416 59.0923 18.0272 59.0902 18.2099C59.0924 18.2329 59.0933 18.256 59.093 18.279V22.6046C59.093 22.6744 59.093 22.7441 59.0233 22.8139C58.9535 22.8837 58.8837 22.8837 58.814 22.8837C56.7907 22.8139 55.5349 22.8139 53.7907 22.9534C53.7209 22.9534 53.6512 22.9534 53.5814 22.8837C53.5116 22.8139 53.5116 22.7441 53.5116 22.6744C53.5116 22.486 53.5123 22.2955 53.5144 22.1051Z" fill="#222222"/>
</g>
<defs>
<clipPath id="clip0_5368_2364">
<rect width="60" height="22.3256" fill="white" transform="translate(0 0.837158)"/>
</clipPath>
</defs>
</svg>
