<svg width="192" height="192" viewBox="0 0 192 192" fill="none" xmlns="http://www.w3.org/2000/svg">
<path d="M85.7353 18.0275L14.1519 47.6473C10.1712 49.2948 10.2124 54.95 14.2181 56.5378L86.1 85.0431C92.4156 87.5479 99.4492 87.5479 105.765 85.0431L177.648 56.5367C181.652 54.95 181.696 49.2959 177.713 47.6484L106.132 18.0264C99.601 15.324 92.2649 15.324 85.7342 18.0264" fill="#FCB400"/>
<path d="M102.31 100.608V171.819C102.31 175.205 105.725 177.525 108.874 176.277L188.972 145.187C189.865 144.833 190.632 144.218 191.172 143.423C191.712 142.628 192 141.69 192 140.729V69.5185C192 66.1314 188.585 63.8122 185.436 65.0602L105.338 96.1506C104.445 96.505 103.679 97.1194 103.139 97.9143C102.599 98.7092 102.31 99.6479 102.31 100.609" fill="#18BFFF"/>
<path d="M83.6059 104.283L59.8345 115.76L57.4209 116.927L7.24082 140.971C4.06103 142.505 0 140.187 0 136.654V69.817C0 68.5386 0.655494 67.4349 1.53455 66.6047C1.89518 66.2456 2.30431 65.9387 2.75004 65.6931C3.94816 64.9735 5.65852 64.7814 7.11276 65.3566L83.2065 95.5072C87.0744 97.0418 87.3783 102.462 83.6059 104.284" fill="#F82B60"/>
<path d="M83.6058 104.283L59.8343 115.76L1.53442 66.6036C1.89512 66.2449 2.30425 65.9384 2.74991 65.6931C3.94803 64.9735 5.65839 64.7814 7.11264 65.3566L83.2064 95.5072C87.0742 97.0417 87.3781 102.462 83.6058 104.284" fill="black" fill-opacity="0.25"/>
</svg>
