<svg width="60" height="26" viewBox="0 0 60 26" fill="none" xmlns="http://www.w3.org/2000/svg">
<g clip-path="url(#clip0_5698_2513)">
<path d="M18.2793 18.5371H15.8226L17.943 14.2525H17.9722L18.2793 18.5371ZM18.3963 20.4674L18.5425 22.1637H21.2333L20.3412 12.2637H16.3344L11.2601 22.1637H14.0093L14.8574 20.4674H18.3963Z" fill="#F38B00"/>
<path d="M25.0061 17.8352H25.4009L27.3312 15.2322H29.8172L27.1557 18.5664L28.7936 22.1637H26.1467L25.0792 19.356H24.6844L24.0848 22.1637H21.8182L23.9093 12.2637H26.1906L25.0061 17.8352Z" fill="#F38B00"/>
<path d="M32.7273 19.2976C33.4731 19.2976 33.9557 19.3561 33.8387 19.9264C33.6778 20.6576 33.3707 20.7746 32.4202 20.7746C32.0693 20.7746 31.4258 20.7746 31.5867 20.0288C31.7183 19.4 32.1716 19.2976 32.7273 19.2976ZM33.3561 22.1638H35.6227L36.544 17.8353C37.0558 15.4517 36.1346 15.1592 33.8094 15.1592C32.1862 15.1592 30.6215 15.1446 30.1536 17.2942H32.4202C32.5518 16.6654 32.932 16.5484 33.5023 16.5484C34.4967 16.5484 34.4529 16.9579 34.3066 17.6013L34.0727 18.6981H33.9703C33.8826 17.9084 32.8882 17.923 32.2447 17.923C30.6069 17.923 29.6271 18.4348 29.2762 20.1019C28.896 21.8713 29.7441 22.2516 31.3235 22.2516C32.1131 22.2516 33.1806 22.0907 33.5462 21.1402H33.6193L33.3561 22.1638Z" fill="#F38B00"/>
<path d="M40.2145 15.2323L40.0098 16.2121H40.0975C40.5509 15.3932 41.4429 15.1592 42.2179 15.1592C43.1977 15.1592 44.1628 15.3347 44.0312 16.5192H44.1336C44.4699 15.5248 45.479 15.1592 46.3564 15.1592C47.9503 15.1592 48.6376 15.8172 48.2867 17.4258L47.2776 22.1638H45.011L45.8592 18.157C45.9762 17.4258 46.0931 16.8994 45.2157 16.8994C44.3383 16.8994 44.0312 17.4843 43.885 18.2301L43.0515 22.1638H40.7848L41.6769 17.9669C41.7792 17.3381 41.8377 16.8994 41.048 16.8994C40.1121 16.8994 39.8343 17.3966 39.6588 18.2301L38.8253 22.1638H36.5587L38.0356 15.2323H40.2145Z" fill="#F38B00"/>
<path d="M51.8547 19.2976C52.5859 19.2976 53.0831 19.3561 52.9661 19.9264C52.8199 20.6576 52.4982 20.7746 51.5476 20.7746C51.2113 20.7746 50.5533 20.7746 50.7141 20.0288C50.8457 19.4 51.299 19.2976 51.8547 19.2976ZM52.4835 22.1638H54.7502L55.6715 17.8353C56.1833 15.4517 55.262 15.1592 52.9369 15.1592C51.3137 15.1592 49.7343 15.1446 49.281 17.2942H51.5476C51.6793 16.6654 52.0595 16.5484 52.6298 16.5484C53.6242 16.5484 53.5803 16.9579 53.4341 17.6013L53.2293 18.6981H53.127C53.0392 17.9084 52.0448 17.923 51.4014 17.923C49.7636 17.923 48.7838 18.4348 48.4328 20.1019C48.0526 21.8713 48.9008 22.2516 50.4801 22.2516C51.2698 22.2516 52.3373 22.0907 52.7175 21.1402H52.7906L52.4835 22.1638Z" fill="#F38B00"/>
<path d="M58.0259 22.1639H55.7592L57.2216 15.2324H59.4882L58.0259 22.1639Z" fill="#F38B00"/>
<path d="M12.4153 24.5617C7.38484 23.0262 3.71436 18.3759 3.71436 12.8775C3.71436 7.30599 7.45796 2.61186 12.5762 1.13489C13.1026 0.988658 12.9564 0.637695 12.3276 0.637695C5.52766 0.637695 0 6.12149 0 12.8775C0 19.6336 5.51304 25.1027 12.3276 25.1027C12.9564 25.1027 12.9856 24.7371 12.4153 24.5617Z" fill="#009BDE"/>
<path d="M6.05411 15.7293C6.02487 15.4076 5.99562 15.0713 5.99562 14.7349C5.99562 9.36814 10.3388 5.02497 15.7056 5.02497C20.7799 5.02497 22.3008 7.29161 22.4909 7.14537C22.6956 6.98452 20.6483 2.49512 14.6966 2.49512C9.32977 2.49512 4.9866 6.83828 4.9866 12.2051C4.9866 13.4481 5.22058 14.6326 5.64466 15.7147C5.82014 16.1827 6.09798 16.1827 6.05411 15.7293Z" fill="#009BDE"/>
<path d="M10.1194 8.73948C12.6347 7.64272 15.8079 7.61347 18.9227 8.69561C21.0139 9.42678 22.2276 10.465 22.33 10.4212C22.4909 10.3481 21.1163 8.15454 18.6156 7.21864C15.5886 6.07801 12.3422 6.67757 9.97319 8.53475C9.70997 8.73948 9.81233 8.87109 10.1194 8.73948Z" fill="#009BDE"/>
<path d="M60 13.3162C60 14.0181 59.4297 14.5884 58.7277 14.5884C58.0258 14.5884 57.4555 14.0181 57.4555 13.3162C57.4555 12.6143 58.0258 12.0439 58.7277 12.0439C59.4297 12.0439 60 12.6143 60 13.3162Z" fill="#F38B00"/>
</g>
<defs>
<clipPath id="clip0_5698_2513">
<rect width="60" height="24.465" fill="white" transform="translate(0 0.637695)"/>
</clipPath>
</defs>
</svg>
