<svg width="156" height="30" viewBox="0 0 156 30" fill="none" xmlns="http://www.w3.org/2000/svg">
<path d="M21.704 10.3854V19.6155L13.7119 24.2315V30.0005L26.703 22.5009V7.5L21.704 10.3854Z" fill="#00AC69"/>
<path d="M13.7118 5.7709L21.7039 10.385L26.703 7.49953L13.7118 0L0.720703 7.49953L5.71787 10.385L13.7118 5.7709Z" fill="#1CE783"/>
<path d="M8.71467 17.8869V27.1169L13.7118 30.0005V15.0014L0.720703 7.5V13.2709L8.71467 17.8869Z" fill="#1D252C"/>
<path d="M44.5346 7.47852C41.7379 7.47852 40.4131 9.24489 40.4131 9.24489H40.2659L39.9734 7.77291H36.5859V22.7871H40.2659V14.1062C40.2659 12.1926 41.5869 10.8678 43.5042 10.8678C45.4216 10.8678 46.7426 12.1888 46.7426 14.1062V22.7871H50.4225V13.808C50.4225 9.98088 47.9202 7.47852 44.5346 7.47852Z" fill="#1D252C"/>
<path d="M84.2213 17.6357H84.0099L81.5075 7.77344H77.7634L75.2611 17.6357H75.0516L72.5474 7.77344H68.7202L72.5474 22.7876H77.0293L79.5298 13.0726H79.7412L82.2435 22.7876H86.7236L90.5508 7.77344H86.7236L84.2213 17.6357Z" fill="#1D252C"/>
<path d="M101.819 9.09828H101.672L101.377 7.77728H98.2861V22.7895H101.966V14.1087C101.966 12.1951 102.849 11.3119 104.763 11.3119H106.65V7.77539H104.461C103.948 7.77649 103.443 7.89653 102.984 8.12608C102.526 8.35563 102.127 8.68843 101.819 9.09828Z" fill="#1D252C"/>
<path d="M114.793 7.47852C110.379 7.47852 107.141 10.7169 107.141 15.28C107.141 19.8431 110.196 23.0815 114.793 23.0815C118.516 23.0815 120.758 20.8905 121.692 19.2789L118.314 18.0749C117.98 18.6863 116.633 19.862 114.793 19.862C112.647 19.862 111.115 18.5183 110.821 16.4651H122.006C122.109 15.9814 122.159 15.4877 122.153 14.9931C122.153 10.7169 118.915 7.47852 114.793 7.47852ZM110.821 13.9552C111.262 12.0416 112.587 10.5697 114.793 10.5697C116.856 10.5697 118.179 12.0416 118.473 13.9552H110.821Z" fill="#1D252C"/>
<path d="M60.4302 7.47852C56.0142 7.47852 52.7759 10.7169 52.7759 15.28C52.7759 19.8431 55.8255 23.0815 60.4302 23.0815C64.1535 23.0815 66.3935 20.8905 67.3277 19.2789L63.9497 18.0749C63.6157 18.6863 62.2701 19.862 60.4302 19.862C58.2845 19.862 56.7502 18.5183 56.4558 16.4651H67.6428C67.7463 15.9814 67.7956 15.4877 67.79 14.9931C67.79 10.7169 64.5517 7.47852 60.4302 7.47852ZM56.4558 13.9552C56.8974 12.0416 58.2222 10.5697 60.4302 10.5697C62.4909 10.5697 63.8157 12.0416 64.1101 13.9552H56.4558Z" fill="#1D252C"/>
<path d="M135.018 1.8457H131.338V5.52564H135.018V1.8457Z" fill="#1D252C"/>
<path d="M145.172 19.6959C142.964 19.6959 141.198 17.9295 141.198 15.28C141.198 12.6304 142.964 10.8641 145.172 10.8641C147.38 10.8641 148.263 12.336 148.558 13.2192L151.891 12.0341C151.083 9.93747 149.101 7.47852 145.172 7.47852C140.756 7.47852 137.518 10.7169 137.518 15.28C137.518 19.8431 140.756 23.0815 145.172 23.0815C149.135 23.0815 151.117 20.5829 151.909 18.3862L148.558 17.1936C148.263 18.2239 147.38 19.6959 145.172 19.6959Z" fill="#1D252C"/>
<path d="M122.561 5.11613H124.65V22.7874H128.33V1.8457H122.561V5.11613Z" fill="#1D252C"/>
<path d="M135.018 7.77344H131.338V22.7876H135.018V7.77344Z" fill="#1D252C"/>
<path d="M153.88 19.9075C153.598 19.9033 153.322 19.9831 153.086 20.1365C152.85 20.2899 152.665 20.5101 152.554 20.769C152.443 21.0279 152.412 21.3139 152.465 21.5905C152.517 21.8671 152.651 22.122 152.848 22.3225C153.046 22.5231 153.299 22.6603 153.574 22.7168C153.85 22.7732 154.137 22.7463 154.397 22.6396C154.658 22.5328 154.881 22.3509 155.038 22.1171C155.194 21.8833 155.278 21.6082 155.278 21.3266C155.284 21.1403 155.253 20.9547 155.185 20.7811C155.117 20.6075 155.015 20.4496 154.884 20.3168C154.753 20.184 154.596 20.0793 154.424 20.0089C154.251 19.9386 154.066 19.904 153.88 19.9075ZM153.88 22.5287C153.641 22.5328 153.407 22.4658 153.206 22.3363C153.006 22.2067 152.849 22.0205 152.755 21.8012C152.66 21.5819 152.634 21.3396 152.678 21.1051C152.722 20.8705 152.834 20.6544 153.002 20.4842C153.169 20.314 153.383 20.1974 153.617 20.1493C153.851 20.1012 154.093 20.1238 154.314 20.2141C154.535 20.3045 154.724 20.4585 154.857 20.6566C154.99 20.8547 155.061 21.088 155.061 21.3266C155.067 21.4838 155.04 21.6405 154.983 21.787C154.925 21.9335 154.839 22.0668 154.728 22.1787C154.618 22.2905 154.485 22.3786 154.339 22.4375C154.193 22.4964 154.037 22.5249 153.88 22.5212V22.5287Z" fill="#1D252C"/>
<path d="M154.49 21.064C154.489 20.9959 154.475 20.9286 154.448 20.8663C154.42 20.804 154.38 20.7479 154.331 20.7016C154.281 20.6552 154.222 20.6196 154.158 20.5969C154.094 20.5742 154.025 20.5649 153.957 20.5695H153.327V22.049H153.544V21.5357H153.742L154.254 22.049H154.524L154.012 21.5357C154.138 21.5357 154.258 21.4862 154.348 21.3979C154.437 21.3096 154.488 21.1896 154.49 21.064ZM153.546 21.3187V20.7865H153.957C153.997 20.7818 154.037 20.7854 154.075 20.7971C154.113 20.8088 154.148 20.8284 154.178 20.8545C154.208 20.8807 154.232 20.9129 154.248 20.949C154.265 20.985 154.274 21.0242 154.275 21.064C154.275 21.2206 154.174 21.3187 153.957 21.3187H153.546Z" fill="#1D252C"/>
</svg>
