<svg width="70" height="21" viewBox="0 0 70 21" fill="none" xmlns="http://www.w3.org/2000/svg">
<path fill-rule="evenodd" clip-rule="evenodd" d="M48.1967 14.672C47.1614 15.7826 45.8319 16.3466 44.2458 16.3466C42.659 16.3466 41.3295 15.7826 40.2948 14.672C39.3066 13.6142 38.7388 11.9226 38.7388 10.0328C38.7388 8.18813 39.3129 6.51979 40.3118 5.45441C41.3571 4.34386 42.6803 3.77729 44.2445 3.77289C45.8112 3.77729 47.1345 4.34386 48.1791 5.45441C49.1793 6.51979 49.7521 8.18813 49.7521 10.0328C49.7521 11.9226 49.1849 13.6142 48.1967 14.672ZM34.3054 10.0328C34.3054 10.1181 34.3091 10.2022 34.3116 10.2863C32.7242 8.84128 30.4291 8.30358 29.0268 8.02311C26.4324 7.47599 24.4503 6.9753 24.4503 5.12815C24.4503 3.82497 25.6173 2.87692 27.8591 3.03943C29.9077 3.18813 30.7704 4.44048 31.007 5.64891C31.0408 5.84718 31.1325 5.99149 31.3583 5.99337L35.0426 6.02474C35.0602 6.02474 35.0752 6.02286 35.0909 6.02161C34.5714 7.23318 34.3054 8.58216 34.3054 10.0328ZM28.0392 16.8103C26.2573 16.8103 24.2941 16.1772 23.8417 13.7277C23.8034 13.4937 23.693 13.3971 23.5136 13.392L19.9516 13.3444V7.04809C20.4197 8.89336 21.9701 10.1708 25.3231 10.9256C27.5674 11.4627 31.4606 11.804 31.4606 14.1079C31.4606 15.7142 30.2779 16.8479 28.0392 16.8103ZM10.298 16.3491C7.42433 16.3491 4.79163 14.0872 4.79163 10.0353C4.79163 6.85609 6.76552 3.7754 10.3168 3.7754C11.8552 3.7754 15.756 4.30245 15.756 10.0353C15.756 15.7832 11.6833 16.3491 10.2973 16.3491H10.298ZM54.0795 8.48867C54.897 9.57914 56.3728 10.3866 58.7702 10.9262C61.0139 11.4633 64.9077 11.8046 64.9077 14.1086C64.9077 15.7148 63.7244 16.8486 61.4863 16.8109C59.705 16.8109 57.7406 16.1778 57.2888 13.7283C57.2512 13.4943 57.1407 13.3977 56.9607 13.3927L53.6604 13.3488C54.0086 12.3216 54.1862 11.2092 54.1862 10.0334C54.186 9.51666 54.1503 9.00053 54.0795 8.48867ZM61.2429 20.0171C65.1951 20.0171 69.8531 18.5458 69.4886 13.7735C69.0858 9.5371 64.6774 8.4642 62.4739 8.02374C59.8788 7.47662 57.8968 6.97593 57.8968 5.12877C57.8968 3.8256 59.0638 2.87755 61.3063 3.04005C63.3548 3.18876 64.2175 4.44111 64.4541 5.64954C64.488 5.84781 64.5802 5.99212 64.8054 5.994L68.4897 6.02537C68.7702 6.02725 68.8574 5.88169 68.8223 5.68217C68.1007 1.26631 64.4114 0.0170898 61.0164 0.0170898C57.6264 0.0170898 53.5418 0.969531 53.2519 5.1865C53.2419 5.34963 53.2381 5.51025 53.2381 5.66774C52.6985 4.54589 51.9205 3.51565 50.9179 2.60336C49.067 0.934395 46.7593 0.0403048 44.2426 0.0183447H44.1592C42.957 0.0183447 41.7806 0.239828 40.6619 0.67903C39.5248 1.1288 38.4785 1.78077 37.5737 2.60336C36.6244 3.46671 35.8746 4.43546 35.3388 5.48766C34.5407 1.2318 30.9128 0.0170898 27.5686 0.0170898C24.4566 0.0170898 20.7585 0.822084 19.9516 4.22088V0.847181C19.9515 0.76076 19.917 0.677934 19.8558 0.616883C19.7947 0.555833 19.7118 0.521545 19.6254 0.521545H16.1557C16.0692 0.521711 15.9864 0.556158 15.9254 0.617327C15.8643 0.678495 15.83 0.761387 15.83 0.847809V1.75758C15.83 1.91068 15.7278 1.96401 15.6029 1.87491C14.3687 0.979569 12.5429 0.0189721 10.3456 0.0189721C9.11086 0.0189721 7.93192 0.236063 6.84082 0.663972C5.74909 1.09313 4.71131 1.74629 3.75887 2.60587C2.67467 3.59219 1.84897 4.71655 1.3075 5.94757C0.766026 7.17859 0.491211 8.55392 0.491211 10.0347C0.491211 11.4169 0.734654 12.7132 1.21401 13.8846C1.69337 15.056 2.42307 16.1396 3.38367 17.1058C4.34364 18.0721 5.4178 18.8061 6.57416 19.2893C7.73051 19.7705 9.00483 20.0146 10.3638 20.0146C12.6991 20.0146 14.4516 19.0201 15.5998 18.116C15.7265 18.0194 15.83 18.0714 15.83 18.2295V19.1851C15.83 19.3646 15.9768 19.5114 16.1563 19.5114H19.626C19.7124 19.511 19.7951 19.4765 19.8561 19.4154C19.9171 19.3543 19.9515 19.2715 19.9516 19.1851V15.9664C21.5873 19.8125 25.7554 20.0165 27.7958 20.0165C31.2065 20.0165 35.1399 18.9185 35.9204 15.5504C36.2956 16.1078 36.7236 16.6279 37.1985 17.1033C39.0582 18.9749 41.4951 19.9813 44.2489 20.0114H44.3618C45.6694 20.0114 46.9312 19.7605 48.112 19.2642C49.3041 18.7601 50.3851 18.0258 51.2931 17.1033C51.9723 16.4262 52.5523 15.6565 53.016 14.8169C54.2527 19.7755 59.0161 20.0165 61.2429 20.0165V20.0171Z" fill="#0B0B0A"/>
</svg>
