<svg width="84" height="40" viewBox="0 0 84 40" fill="none" xmlns="http://www.w3.org/2000/svg">
<path d="M27.5259 39.3818C25.7138 39.3818 24.5532 37.9889 24.5532 35.9141C24.5532 33.8242 25.7138 32.4475 27.5259 32.4475C29.3522 32.4475 30.5128 33.8394 30.5128 35.9141C30.5128 37.9889 29.3522 39.3818 27.5259 39.3818ZM27.5259 31.8273C25.2502 31.8273 23.7795 33.4828 23.7795 35.9141C23.7795 38.3293 25.2502 40 27.5098 40C29.7855 40 31.2724 38.3293 31.2724 35.9141C31.2724 33.4828 29.7855 31.8273 27.5259 31.8273ZM21.5815 29.6606L23.8562 29.4889V29.0091H18.4694V29.4889L20.7603 29.6444V33.8242H14.7239V29.6444L17.0148 29.4889V29.0091H11.627V29.4889L13.8875 29.6606V39.0565L11.627 39.2111V39.6919H17.0148V39.2111L14.7239 39.0565V34.4424H20.7603V39.0565L18.4694 39.2111V39.6919H23.8562V39.2111L21.5815 39.0565V29.6606ZM14.7077 0.695988H18.1451C19.6613 0.695988 20.5906 1.67072 20.5906 3.12728C20.5906 4.59698 19.7855 5.71209 18.2684 5.71209H14.7077V0.695988ZM17.1067 10.2778L14.7077 10.1243V6.33132H18.3775C20.2956 6.33132 21.4108 4.96871 21.4108 3.14245C21.4108 1.34649 20.234 0.0778046 18.2997 0.0778046H11.627V0.556591L13.8714 0.727245V10.1243L11.627 10.2778V10.7586H17.1067V10.2778ZM31.3189 24.7677V25.2172H35.6997V24.7838L33.934 24.6283V19.8919C34.5684 18.8232 35.6835 18.0343 36.9067 18.0343C38.129 18.0343 38.8108 18.8232 38.8108 20.0616V24.6283L37.0148 24.7838V25.2172H41.2411V24.7677L39.5845 24.6131V19.9848C39.5845 18.5758 38.9037 17.3687 37.0613 17.3687C35.7451 17.3687 34.5926 18.1081 33.9189 19.1182V17.4616L33.4855 17.3374C32.8502 18.0343 32.0148 18.3434 31.0088 18.3434V18.6687C31.7512 18.8081 32.5411 18.7929 33.1603 18.4838V24.6131L31.3189 24.7677ZM14.7077 15.1707H18.3148C19.8471 15.1707 20.8229 16.099 20.8229 17.5232C20.8229 18.9475 20.0027 19.9697 18.3461 19.9697H14.7077V15.1707ZM17.1067 24.7374L14.7077 24.5818V20.604H17.8966L20.1572 25.2172H22.9896V24.7374L20.6835 24.5051L18.7633 20.604C20.5744 20.5111 21.6431 19.2101 21.6431 17.5232C21.6431 15.7899 20.436 14.5505 18.5775 14.5505H11.627V15.0313L13.8875 15.202V24.5818L11.627 24.7374V25.2172H17.1067V24.7374ZM70.7148 10.1546V5.52627C70.7148 4.11819 70.034 2.89393 68.1916 2.89393C66.8916 2.89393 65.738 3.63535 65.0653 4.65858V2.98789L64.632 2.86261C63.9966 3.55958 63.1613 3.88484 62.1542 3.86969V4.21007C62.8976 4.34946 63.6875 4.33433 64.3067 4.02524V10.1546L62.4643 10.3091V10.7586H66.8451V10.3252L65.0805 10.1697V5.4333C65.7148 4.36461 66.83 3.55958 68.037 3.55958C69.2603 3.55958 69.9411 4.36462 69.9411 5.60401V10.1697L68.1451 10.3252V10.7586H72.3714V10.3091L70.7148 10.1546ZM45.2653 35.4959C44.2593 35.2485 42.9906 34.9071 42.9906 33.8091C42.9906 33.0808 43.5168 32.4303 44.8481 32.4303C46.0401 32.4303 46.6593 32.9576 47.2168 33.9313L47.7118 34.799L48.0987 34.7212L47.6037 31.796H47.1855L47.1694 33.0808C46.737 32.3848 45.9623 31.8273 44.7391 31.8273C43.1916 31.8273 42.2633 32.6939 42.2633 33.8242C42.2633 35.3879 44.0421 35.8677 45.1108 36.1465C46.5663 36.5172 47.5572 36.8737 47.5572 37.9252C47.5572 38.8555 46.7673 39.4121 45.5754 39.4121C44.337 39.4121 43.5633 38.7939 42.8047 37.5545L42.3239 36.7657L41.9229 36.8424L42.433 39.8606H42.8663L42.8199 38.4061C43.4077 39.3818 44.3057 40 45.6683 40C47.2471 40 48.2845 39.1646 48.2845 37.8646C48.2845 36.3626 46.9683 35.9293 45.2653 35.4959ZM70.6845 19.9232C70.6845 18.5141 70.0966 17.3687 68.4552 17.3687C67.2007 17.3687 66.2178 18.0323 65.5603 19.0566C65.3471 18.1121 64.7249 17.3687 63.4401 17.3687C62.3097 17.3687 61.2481 18.0929 60.6067 19.0717V17.4616L60.1724 17.3374C59.5229 18.0343 58.6876 18.3434 57.6966 18.3434V18.6687C58.4239 18.8081 59.2289 18.7768 59.8481 18.4677V24.6131L58.0057 24.7677V25.2172H62.0461V24.7838L60.6229 24.6283V19.8141C61.2108 18.7929 62.1855 18.0343 63.2532 18.0343C64.4926 18.0343 64.8946 18.8707 64.8946 20.1394V24.6283L63.3774 24.7838V25.2172H67.2007V24.7838L65.6693 24.6283V20.0475C65.6693 19.9535 65.6694 19.8455 65.6532 19.7374C66.3037 18.6374 67.2007 18.0343 68.2542 18.0343C69.5077 18.0343 69.9108 18.8859 69.9108 20.1242V24.6283L68.5017 24.7838V25.2172H72.3714V24.7838L70.6845 24.6131V19.9232ZM57.3562 10.3091V10.7586H61.7673V10.3091L59.9724 10.1546V3.00305L59.539 2.86261C58.8734 3.55958 58.0219 3.88484 57.0461 3.86969V4.21007C57.7734 4.34946 58.5785 4.31818 59.1987 4.00909V10.1546L57.3562 10.3091ZM50.235 35.1707C50.4673 33.5141 51.5199 32.4475 53.037 32.4475C54.2906 32.4475 55.5603 33.2667 55.6067 35.1707H50.235ZM53.0522 31.8273C50.8694 31.8273 49.43 33.499 49.43 35.9141C49.43 38.3293 50.8855 40 53.1926 40C54.8784 40 55.8532 39.2111 56.2411 38.0192L55.7613 37.8485C55.3249 38.8465 54.5461 39.3818 53.2855 39.3818C51.334 39.3818 50.1896 38.0343 50.1896 35.9293V35.7747H56.334C56.3491 35.6656 56.3492 35.4182 56.3492 35.2788C56.3492 33.5757 55.2815 31.8273 53.0522 31.8273ZM53.6098 24.9071C51.7976 24.9071 50.637 23.5141 50.637 21.4394C50.637 19.3495 51.7976 17.9879 53.6098 17.9879C55.437 17.9879 56.5976 19.3657 56.5976 21.4394C56.5976 23.5141 55.437 24.9071 53.6098 24.9071ZM53.6098 17.3687C51.334 17.3687 49.8633 19.0091 49.8633 21.4394C49.8633 23.8545 51.334 25.5263 53.5946 25.5263C55.8704 25.5263 57.3562 23.8545 57.3562 21.4394C57.3562 19.0091 55.8704 17.3687 53.6098 17.3687ZM39.7391 31.9212L39.3057 31.796C38.6411 32.4929 37.7886 32.8172 36.8138 32.803V33.1424C37.5411 33.2818 38.331 33.2667 38.9502 32.9576V37.5545C38.2997 38.5757 37.1855 39.3505 35.9774 39.3505C34.7704 39.3505 34.0896 38.5455 34.0896 37.3222V31.9212L33.6714 31.796C33.0209 32.4929 32.3552 32.8172 31.3956 32.803V33.1424C32.0451 33.2818 32.7583 33.2667 33.3148 33.003V37.3687C33.3148 38.7626 33.9815 40 35.8542 40C37.1694 40 38.3037 39.2677 38.9653 38.2818L38.9805 39.8454L39.0269 39.8757L41.4421 39.6444V39.2262H39.7391V31.9212ZM48.4542 4.07067V8.43635C48.4542 9.82928 49.1209 11.0677 50.9936 11.0677C52.3098 11.0677 53.4441 10.3344 54.1047 9.35052L54.1209 10.9131L54.1673 10.9434L56.5815 10.7131V10.2939H54.8785V2.98789L54.4461 2.86261C53.7805 3.55958 52.9279 3.88484 51.9522 3.86969V4.21007C52.6805 4.34946 53.4704 4.33433 54.0896 4.02524V8.62322C53.4391 9.64342 52.3239 10.4182 51.1168 10.4182C49.9098 10.4182 49.229 9.6131 49.229 8.38987V2.98789L48.8108 2.86261C48.1603 3.55958 47.4956 3.88484 46.535 3.86969V4.21007C47.1855 4.34946 47.8976 4.33431 48.4542 4.07067ZM31.1481 4.02524V10.1546L29.3057 10.3091V10.7586H33.6865V10.3252L31.9219 10.1697V5.4333C32.5562 4.36461 33.6714 3.55958 34.8936 3.55958C36.1168 3.55958 36.7987 4.36462 36.7987 5.60401V10.1697L35.0027 10.3252V10.7586H39.229V10.3091L37.5724 10.1546V5.52627C37.5724 4.11819 36.8916 2.89393 35.0492 2.89393C33.733 2.89393 32.5795 3.63535 31.9067 4.65858V2.98789L31.4734 2.86261C30.8381 3.55958 30.0027 3.88484 28.9966 3.86969V4.21007C29.7391 4.34946 30.529 4.33433 31.1481 4.02524ZM47.433 23.1737C47.0461 24.2727 46.0865 24.9071 44.8936 24.9071C43.1451 24.9071 42.1077 23.5758 42.1077 21.4707C42.1077 19.4121 43.2694 17.9879 45.0492 17.9879C46.0865 17.9879 46.9845 18.5142 47.433 19.3808V23.1737ZM44.9562 17.3687C42.7896 17.3687 41.334 19.0566 41.334 21.502C41.334 23.901 42.6189 25.5263 44.7704 25.5263C45.9471 25.5263 46.9411 24.9778 47.4482 24.0404L47.4643 25.3717L47.5108 25.403L49.9562 25.1707V24.7535H48.2077V13.6061L47.7896 13.4828C47.1138 14.3525 46.2865 14.8141 45.328 14.799V15.1394C46.0663 15.302 46.9229 15.1414 47.433 14.7848V18.5606C46.8754 17.802 46.0087 17.3687 44.9562 17.3687ZM41.8441 10.604L43.3926 10.7434C45.2037 10.906 45.7603 11.4242 45.7603 12.1051C45.7603 13.0495 44.8007 13.7778 42.8663 13.7778C41.132 13.7778 40.1411 13.0808 40.1411 12.1515C40.1411 11.4545 40.73 10.7889 41.8441 10.604ZM40.5754 5.78891C40.5754 4.53537 41.5189 3.49898 42.9279 3.49898C44.2906 3.49898 45.2199 4.53538 45.2199 5.82022C45.2199 7.02831 44.337 8.07982 42.8815 8.07982C41.5663 8.07982 40.5754 7.04244 40.5754 5.78891ZM39.43 12.198C39.43 13.3899 40.5593 14.3808 42.8502 14.3808C45.2502 14.3808 46.5047 13.3748 46.5047 12.0434C46.5047 10.5727 44.7865 10.1828 43.0987 10.0464C41.8441 9.93837 40.6835 9.89193 40.6835 9.27173C40.6835 8.96264 40.9936 8.66866 42.3714 8.66866H42.8815C44.7391 8.66866 45.932 7.39898 45.932 5.75858C45.932 5.01413 45.6532 4.3182 45.1734 3.8081C45.2815 2.39901 46.5199 3.09595 46.5199 2.36767C46.5199 2.05858 46.334 1.90405 46.0249 1.90405C45.3118 1.90405 44.7704 2.61618 44.6774 3.38992C44.2128 3.08083 43.6401 2.89393 42.9754 2.89393C41.0865 2.89393 39.8633 4.16463 39.8633 5.75858C39.8633 6.91918 40.4522 7.80204 41.3027 8.26669C40.4673 8.34345 40.0178 8.77777 40.0178 9.36464C40.0178 9.78282 40.2815 10.1859 40.9785 10.4182C40.0795 10.6505 39.43 11.3778 39.43 12.198ZM28.4239 23.6535C27.8815 24.2576 26.8138 24.9071 25.6684 24.9071C24.7542 24.9071 23.9956 24.4737 23.9956 23.5919C23.9956 22.4909 24.9401 21.4707 28.4239 21.4091V23.6535ZM23.2381 23.5919C23.2381 24.7535 24.135 25.5263 25.5441 25.5263C26.8138 25.5263 27.8431 24.899 28.4704 24.2727C28.6057 24.9495 29.0886 25.2939 29.7542 25.2939C30.4825 25.2939 30.9623 24.9071 31.1168 24.102L30.7613 23.9475C30.637 24.4273 30.4047 24.6909 29.9875 24.6909C29.4451 24.6909 29.1976 24.4121 29.1976 23.4202V20.0616C29.1976 18.5141 28.5623 17.3687 26.5037 17.3687C25.2966 17.3687 24.5997 17.7242 24.1199 18.1576C23.7017 18.5454 23.5774 18.901 23.5774 19.1182C23.5774 19.3808 23.7643 19.5667 24.0431 19.5667C24.4138 19.5667 24.4613 19.2101 24.6775 18.8081C24.9401 18.3434 25.3431 17.9879 26.4421 17.9879C27.6805 17.9879 28.4239 18.6535 28.4239 19.9848V20.8515C25.1108 20.8818 23.2381 21.8262 23.2381 23.5919ZM59.5532 1.33131C59.9259 1.33131 60.235 1.03737 60.235 0.665653C60.235 0.293938 59.9259 0 59.5532 0C59.1825 0 58.8875 0.293938 58.8875 0.665653C58.8875 1.03737 59.1825 1.33131 59.5532 1.33131ZM25.2502 3.51414C26.5037 3.51414 27.7734 4.33437 27.8199 6.23841H22.4482C22.6805 4.58083 23.733 3.51414 25.2502 3.51414ZM25.4047 11.0677C27.0926 11.0677 28.0673 10.2777 28.4542 9.08684L27.9754 8.91619C27.5381 9.91417 26.7583 10.4485 25.4977 10.4485C23.5471 10.4485 22.4017 9.10202 22.4017 6.99697V6.84241H28.5471C28.5623 6.73332 28.5623 6.48588 28.5623 6.34649C28.5623 4.64446 27.4946 2.89393 25.2653 2.89393C23.0825 2.89393 21.6431 4.56668 21.6431 6.98082C21.6431 9.39597 23.0987 11.0677 25.4047 11.0677Z" fill="#110B09"/>
<path d="M0.930176 39.6904H1.75139V19.8581V0.0510674H0.930176V19.8773V39.6904Z" fill="#F25C19"/>
<path d="M82.248 0.0510254V19.8773V39.6914H83.0692V19.8591V0.0510254H82.248Z" fill="#F25C19"/>
</svg>
