<svg width="94" height="38" viewBox="0 0 94 38" fill="none" xmlns="http://www.w3.org/2000/svg">
<path d="M36.0785 19.726V24.4065C36.7428 25.426 37.9013 26.1057 39.3842 26.1057C41.6241 26.1057 43.1842 24.4374 43.1842 22.1049C43.1842 19.8187 41.5468 18.1504 39.3379 18.1504C37.9013 18.135 36.7736 18.7528 36.0785 19.726ZM39.9403 28.5154C38.3956 28.5154 37.0671 28.052 36.0476 27.1252V28.2528H33.159V9.5H36.0785V17.3008C37.1135 16.1886 38.5192 15.6634 40.1566 15.6634C43.4314 15.6634 46.1037 18.2894 46.1037 22.074C46.1192 25.7967 43.3387 28.5154 39.9403 28.5154ZM48.081 9.5H51.0005V28.2528H48.081V9.5ZM55.9436 20.6065H62.0452C61.6899 19.1236 60.6395 18.0423 59.0175 18.0423C57.5346 18.0268 56.3452 18.9537 55.9436 20.6065ZM59.8362 28.5C55.8045 28.5 52.9314 25.9049 52.9314 22.0894C52.9314 18.2894 55.8045 15.6634 59.0175 15.6634C62.7867 15.6634 64.9493 18.3667 64.9493 22.1358V22.7537H55.8509C56.1289 24.7772 57.5655 26.0902 60.0525 26.0902C61.659 26.0902 63.5127 25.4415 64.6094 24.5764V27.0943C63.559 27.8976 61.7362 28.5 59.8362 28.5ZM69.9541 19.6179V28.2528H67.0346V15.926H69.9078V17.2854C70.7728 16.2813 72.1322 15.648 73.785 15.648C76.8127 15.648 78.4964 17.6715 78.4964 20.622V28.2528H75.5769V20.9618C75.5769 19.3707 74.6192 18.2122 72.9818 18.2122C71.607 18.2122 70.6029 18.7837 69.9541 19.6179ZM87.1623 26.0748C88.5988 26.0748 89.7265 25.4569 90.4216 24.4837V19.8032C89.7574 18.7837 88.5988 18.1041 87.1159 18.1041C84.8761 18.1041 83.3159 19.7724 83.3159 22.0894C83.3159 24.4065 84.9533 26.0748 87.1623 26.0748ZM90.468 26.8472C89.4639 27.9439 88.0582 28.5154 86.4362 28.5154C83.0997 28.5154 80.381 25.9203 80.381 22.1512C80.381 18.4285 83.146 15.6789 86.5598 15.6789C88.0736 15.6789 89.4021 16.1114 90.4062 17.0382V9.51545H93.3411V28.2683H90.468V26.8472ZM15.3176 14.8447L16.5997 13.887C19.3184 11.8943 19.2102 9.46911 18.7314 8.03252C18.2062 6.39512 16.6923 4.63415 14.0663 4.63415H0.658203V0H14.0663C18.2834 0 21.8363 2.59512 23.1338 6.59593C24.4314 10.6122 23.072 14.7984 19.6736 17.2699L19.1639 17.6406L15.3176 14.8447ZM17.2948 19L19.6582 20.7301C23.072 23.2016 24.4314 27.3878 23.1338 31.4041C21.8363 35.4203 18.268 38 14.0663 38H0.658203V33.3659H14.0509C16.6769 33.3659 18.1907 31.6049 18.7159 29.9675C19.2566 28.3301 19.0558 26.0285 16.9395 24.4837L13.3558 21.8732L9.41674 19.0154L5.29235 16.0187V22.0122L7.51674 20.3902L11.4558 23.248L4.33463 28.4228C3.6395 28.9325 2.69723 29.0098 1.92487 28.6081C1.15251 28.2065 0.658203 27.4187 0.658203 26.5382V11.4463C0.658203 10.5813 1.15251 9.77805 1.92487 9.39187C2.69723 8.99024 3.62406 9.06748 4.33463 9.57724L13.3558 16.1268L17.2948 19Z" fill="#0F216B"/>
</svg>
