<svg width="194" height="32" viewBox="0 0 194 32" fill="none" xmlns="http://www.w3.org/2000/svg">
<path d="M40.7115 0.237C37.5286 1.24898 34.1173 4.59503 30.5101 10.2425L29.4491 11.8911L28.5514 12.0706C28.0618 12.1849 26.7233 12.3481 25.5808 12.446C23.1977 12.6745 22.7734 12.5766 22.5938 11.7768C22.398 10.9117 21.2554 9.37743 20.3414 8.77351C19.1662 7.99005 18.1052 7.6636 16.4404 7.56567L15.004 7.46774V6.55369C15.004 5.3132 15.5426 4.20329 16.6199 3.24028C19.2151 0.90621 24.4709 0.889889 28.225 3.20764L29.3675 3.90949L29.6124 3.55041C29.8409 3.22396 29.8246 3.175 29.4002 2.83223C28.6167 2.19566 26.3806 1.15104 25.0585 0.8246C23.312 0.3839 20.88 0.3839 19.1825 0.8246C15.9833 1.64071 14.2205 3.50144 14.0573 6.21093L13.992 7.45141L12.5067 7.79418C7.62636 8.96938 3.13776 13.1315 1.40761 18.0935C0.983228 19.3177 0.901617 19.8073 0.836328 21.6354C0.787362 23.2513 0.820006 24.0021 1.03219 24.8182C2.19107 29.4211 5.8146 32 11.1683 32C15.2815 32 18.8071 30.4004 22.4796 26.8585C25.3523 24.1164 27.0335 21.7333 29.6124 16.8204C32.1913 11.9074 32.1097 12.0216 33.4971 11.4993C39.4547 9.24685 44.2534 5.28056 44.6288 2.2936C44.8573 0.498156 42.9802 -0.481178 40.7115 0.237ZM42.9966 1.05311C44.3513 1.62439 43.7147 3.51776 41.4623 5.68861C39.879 7.2229 36.5003 9.2795 33.9214 10.3078L33.089 10.6179L33.4644 10.014C34.4437 8.38178 36.1902 5.93345 37.4144 4.4971C39.2588 2.27728 40.6462 1.2653 42.3926 0.840921C42.409 0.8246 42.6864 0.922533 42.9966 1.05311ZM16.9627 8.51236C18.9703 8.8388 20.4719 9.78549 21.2717 11.2708C21.5166 11.7278 21.6798 12.1522 21.6308 12.2012C21.5166 12.3154 20.325 12.0216 19.1662 11.5809C18.0399 11.1566 16.4567 10.014 15.918 9.19789C15.2488 8.23488 15.2652 8.23488 16.9627 8.51236ZM14.6286 9.09995C15.2488 10.1935 16.6199 11.4177 18.0236 12.1032C19.2478 12.6908 20.9126 13.2295 21.5655 13.2295C21.9736 13.2295 22.0552 13.4417 22.0389 14.7801C22.0389 16.1838 21.5492 17.767 20.6841 19.236C19.5905 21.1131 16.1955 24.1653 14.1552 25.112C13.4697 25.4222 13.4534 25.4548 13.7635 25.8792C13.9757 26.1893 14.0083 26.1893 14.6939 25.8792C16.7341 24.9651 19.6069 22.5658 20.9779 20.6397C22.3653 18.6974 23.0019 16.8693 23.0019 14.7801V13.4743L24.7647 13.458C25.7277 13.4417 26.9845 13.3437 27.5558 13.2295C28.1107 13.1315 28.6167 13.0826 28.6657 13.1152C28.6983 13.1642 28.4208 13.7844 28.0128 14.4863C27.6211 15.1881 26.756 16.7387 26.1194 17.9139C22.3 24.9488 18.3337 29.0294 13.9431 30.482C12.8331 30.8411 12.3435 30.9064 10.7602 30.9064C9.19329 30.9064 8.67098 30.8411 7.62636 30.4984C4.3456 29.4211 2.38694 27.087 1.81566 23.5777C1.58715 22.2067 1.58715 21.8966 1.81566 20.5255C2.55016 16.0369 5.65138 12.0053 10.0747 9.80181C11.2499 9.21421 13.3391 8.52868 14.041 8.51236C14.1716 8.49603 14.449 8.77351 14.6286 9.09995Z" fill="black"/>
<path d="M124.607 0.449192C122.224 0.955181 120.363 2.30992 119.433 4.21962C118.927 5.24792 118.894 5.39482 118.894 7.10865C118.894 8.74087 118.927 8.9857 119.351 9.83446C120.037 11.2382 122.257 13.0663 123.285 13.0663C123.497 13.0663 123.84 12.446 123.677 12.3644C123.66 12.3481 123.285 12.1522 122.861 11.94C121.734 11.3851 120.902 10.6016 120.363 9.62227C119.972 8.88777 119.874 8.49604 119.825 7.33716C119.759 6.06403 119.792 5.81919 120.2 4.92147C121.049 3.06074 122.763 1.86922 125.374 1.34691C127.039 1.02047 128.443 1.20001 130.858 2.03245C131.773 2.35889 133.274 2.8812 134.205 3.20764C135.967 3.82789 138.318 4.39916 139.134 4.41549C139.509 4.43181 139.313 4.54606 138.318 4.92147C132.948 6.91278 128.557 10.3568 124.476 15.7594L123.007 17.7181L121.375 17.7997C119.923 17.865 119.727 17.9139 119.498 18.2404L119.27 18.6158H120.853H122.436L121.653 19.7094C117.131 26.124 113.981 29.1273 110.603 30.2698C107.795 31.2165 105.135 30.7922 102.866 29.0294L101.984 28.3602L101.511 28.8172L101.021 29.2905L101.609 29.8944C102.899 31.2165 105.086 32 107.55 32C112.512 32 116.25 29.1599 122.24 20.8519L123.628 18.9422H127.023H130.434L130.336 19.3829C128.949 25.716 130.075 29.6333 133.796 31.3961C134.857 31.9021 134.939 31.9184 137.094 31.9021C139.526 31.8857 140.505 31.6572 142.007 30.6779C143.133 29.9597 143.263 29.7639 142.872 29.3884C142.561 29.0783 142.545 29.0946 141.615 29.7149C139.46 31.1676 136.979 31.2329 134.939 29.8781C132.654 28.3602 132.115 25.2589 133.193 19.791L133.356 18.9422H135.869H138.367L137.24 21.1457C136.196 23.186 136.114 23.4145 136.114 24.3939C136.114 25.3405 136.163 25.4874 136.604 25.9445C137.191 26.5321 137.877 26.679 139.346 26.581C141.892 26.3852 144.243 24.3939 145.973 20.9335C146.299 20.297 146.609 19.7584 146.658 19.7584C146.724 19.7584 147.034 19.84 147.377 19.9379L147.98 20.1174L147.736 20.803C147.409 21.7497 147.311 23.3003 147.523 24.1327C147.768 24.9978 148.568 25.9281 149.417 26.3036C150.233 26.679 152.355 26.7116 153.514 26.3688C154.264 26.1567 155.211 25.618 156.239 24.8019L156.697 24.4428L156.435 25.0794C155.88 26.3525 155.864 26.3036 157.088 26.2546L158.198 26.2056L160.01 22.6963C162.018 18.828 162.475 18.0935 163.633 16.9346C164.988 15.5472 166.376 15.1228 166.882 15.9063C167.012 16.1185 167.094 16.4286 167.028 16.5918C166.979 16.7551 166.245 18.3383 165.396 20.0848C163.829 23.3492 163.519 24.3286 163.715 25.2916C163.895 26.124 164.352 26.4994 165.38 26.581C166.588 26.679 167.29 26.4178 168.334 25.4548L169.216 24.655L169.314 25.21C169.46 25.9608 170.179 26.5484 171.109 26.679C172.415 26.8748 173.998 26.2546 175.124 25.0794L175.679 24.4918L175.859 25.161C176.087 26.124 176.659 26.4994 177.981 26.581C178.895 26.6463 179.172 26.581 180.054 26.1567C180.625 25.8955 181.327 25.4548 181.637 25.1936L182.192 24.7203L182.943 25.4874C183.857 26.4178 184.656 26.679 186.387 26.581C188.051 26.4831 189.243 25.8955 190.647 24.5081C191.92 23.2187 192.915 21.6028 192.573 21.3742C192.165 21.1131 192.001 21.211 191.381 22.1087C190.565 23.2839 189.014 24.7529 188.149 25.1447C187.284 25.5364 186.06 25.5691 185.309 25.21C184.15 24.655 183.857 23.0228 184.624 21.3579L185.064 20.4112H185.815C188.802 20.4112 192.573 18.3873 193.079 16.5266C193.47 15.0576 192.769 14.372 190.859 14.372C188.215 14.372 185.293 16.1348 183.53 18.7953C182.6 20.1664 182.143 21.4885 182.143 22.7127C182.143 23.6104 182.11 23.6757 181.457 24.2306C179.711 25.7323 178.062 25.8792 178.062 24.5571C178.062 24.1164 178.699 22.729 180.429 19.334L182.796 14.6985H181.425H180.054L178.03 18.6321C175.908 22.778 175.059 24.0348 173.753 24.9325C172.937 25.4874 172.398 25.6017 171.844 25.3079C171.207 24.9651 171.452 24.247 173.9 19.3993L176.283 14.6985H174.928H173.574L171.958 17.8487C169.852 21.9455 169.183 23.0554 168.236 24.0837C167.518 24.8672 166.62 25.4711 166.163 25.4711C166.065 25.4711 165.886 25.2916 165.788 25.0631C165.625 24.704 165.788 24.2959 167.257 21.2763C169.052 17.5712 169.346 16.6735 169.085 15.6778C168.824 14.6985 168.138 14.2904 166.718 14.2904C165.462 14.3067 164.907 14.5189 163.731 15.4656L163.03 16.0369L163.274 15.433C163.421 15.0902 163.536 14.7964 163.536 14.7638C163.536 14.7311 163.046 14.6985 162.442 14.6985H161.332L159.716 17.8487C157.79 21.5538 157.17 22.5331 155.995 23.6104C152.371 26.9075 148.437 25.4222 150.004 21.3253C150.396 20.3296 150.315 20.3623 152.322 20.1664C154.477 19.9542 156.876 18.7464 157.953 17.3263C158.427 16.7061 158.492 16.5102 158.443 15.7757C158.394 15.0412 158.329 14.9107 157.839 14.5842C156.794 13.8824 154.444 14.1925 152.485 15.2861C151.261 15.9716 149.76 17.3263 148.992 18.4199L148.454 19.2197L147.687 18.9096L146.92 18.5832L147.083 17.9956C147.328 17.0815 147.148 15.2371 146.773 14.7311C146.348 14.1598 145.597 14.0619 145.173 14.5352C144.536 15.2371 144.683 17.408 145.434 18.4689C145.728 18.877 145.728 18.9422 145.483 19.5298C145.026 20.6398 143.524 22.7453 142.496 23.7246C140.897 25.2589 139.575 25.6833 138.791 24.8998C138.497 24.606 138.416 24.3939 138.481 24.0511C138.53 23.7899 139.607 21.5538 140.864 19.0565L143.149 14.5189L141.811 14.5679L140.489 14.6169L139.64 16.2001L138.807 17.7997H136.228H133.65L133.747 17.4243C134.025 16.4286 135.902 12.9846 136.832 11.7605C138.873 9.05099 141.892 6.39047 144.716 4.80722C146.022 4.07272 146.25 3.79524 145.94 3.33822C145.859 3.20764 145.271 3.24029 143.818 3.48512C142.007 3.79524 141.615 3.81157 140.064 3.63202C137.926 3.38719 136.816 3.09339 132.98 1.706C128.671 0.155394 127.072 -0.0894394 124.607 0.449192ZM140.831 5.73759C136.326 8.6919 132.703 12.9683 131.136 17.1794L130.842 17.9629H127.659H124.493L124.787 17.5059C126.239 15.2534 129.243 11.9563 131.511 10.1283C133.127 8.82248 135.739 7.23923 137.616 6.42312C139.215 5.72126 141.811 4.75825 142.137 4.74193C142.251 4.74193 141.664 5.19895 140.831 5.73759ZM156.648 15.5472C156.974 15.8737 156.876 16.5102 156.419 17.1794C155.619 18.322 153.677 19.3177 151.832 19.5298L150.918 19.6441L151.229 19.1055C151.767 18.1914 153.595 16.3307 154.46 15.8247C155.342 15.335 156.305 15.2045 156.648 15.5472ZM191.251 15.5472C191.365 15.6615 191.446 15.939 191.446 16.1838C191.446 17.5549 188.917 19.2524 186.436 19.5298L185.522 19.6441L186.06 18.8443C186.909 17.6038 188.182 16.347 189.08 15.8247C189.945 15.335 190.908 15.2045 191.251 15.5472Z" fill="black"/>
<path d="M71.3977 0.57935C67.8394 1.23224 65.1463 3.09297 63.8895 5.75349C62.9265 7.76112 62.8448 10.3563 63.6773 12.0702C65.5217 15.8896 71.7731 16.216 75.0212 12.6741C75.5435 12.1028 76.229 11.1398 76.5392 10.5522C77.0941 9.49127 77.1104 9.45863 76.8003 9.23011C76.6208 9.09954 76.4249 8.98528 76.3433 8.98528C76.278 8.98528 76.0005 9.40966 75.7394 9.94829C74.401 12.5925 71.9037 14.2084 69.1779 14.2084C65.7176 14.2084 63.5793 11.6784 64.1343 8.23446C64.6076 5.29646 66.7948 3.01136 70.2551 1.85248C71.4793 1.44443 71.7404 1.41178 74.4173 1.41178C77.0452 1.41178 77.3879 1.44443 78.7427 1.85248C79.9015 2.19525 85.5164 4.82312 85.5164 5.01899C85.5164 5.03531 85.1736 5.37808 84.7656 5.75349C83.3455 7.05926 80.7993 10.8623 79.3792 13.7677L78.9222 14.6981H77.1104C75.315 14.6981 74.9069 14.8123 74.9069 15.302C74.9069 15.4652 75.3313 15.5142 76.6208 15.5142C77.5675 15.5142 78.3346 15.5468 78.3346 15.5958C78.3346 15.7753 75.2334 21.5697 74.5642 22.6306C72.3117 26.2378 70.2388 28.3761 67.8068 29.6165C66.2562 30.4 64.7382 30.7428 62.7469 30.7264C60.5761 30.7264 58.9112 30.2041 57.0831 28.9637C56.3649 28.474 55.761 28.0823 55.7284 28.1149C55.6141 28.2618 55.3203 28.8984 55.3203 29.0126C55.3203 29.2248 56.773 30.2694 57.7034 30.7428C59.5641 31.6895 60.7393 31.918 63.563 31.918C66.4847 31.918 67.8068 31.6405 69.7328 30.6775C73.6828 28.6699 76.3923 25.3891 80.1301 18.0767L81.3542 15.6774H83.4271H85.5001L83.5251 19.6763C82.0561 22.6306 81.5338 23.8548 81.4848 24.4424C81.3379 25.9767 82.0071 26.6949 83.5414 26.6785C84.5534 26.6622 85.1736 26.4011 86.4631 25.4381L87.3118 24.8015L86.4631 26.2378C84.8961 28.931 83.8678 30.0246 82.3499 30.7101C81.5827 31.0366 80.4075 31.1345 79.5261 30.955C79.1018 30.857 78.9712 30.8897 78.8243 31.1835C78.4978 31.7874 78.8406 31.918 80.7666 31.918C82.4641 31.918 82.5457 31.9016 83.8025 31.2814C85.4837 30.449 87.1976 28.7678 88.7482 26.4011C89.3847 25.4381 90.919 22.6306 92.1595 20.166L94.412 15.6774H96.0932C97.0072 15.6774 97.758 15.71 97.758 15.759C97.758 15.808 96.8929 17.5381 95.8483 19.5947C94.0366 23.1203 93.9223 23.3978 93.8733 24.4587C93.8081 25.4544 93.857 25.6339 94.1998 26.042C94.5262 26.4174 94.7711 26.5153 95.5056 26.5806C96.844 26.6785 97.807 26.3031 99.3739 25.03L99.9289 24.573L99.5698 25.2585C99.3902 25.6339 99.227 25.993 99.227 26.042C99.227 26.0909 99.733 26.1236 100.353 26.1236H101.479L103.471 22.2389C105.968 17.4239 106.425 16.7057 107.764 15.808C108.514 15.2857 109.51 15.1877 109.836 15.6121C110.277 16.1344 110.049 16.8526 108.433 20.117C106.915 23.2182 106.817 23.4304 106.817 24.4261C106.817 25.3891 106.866 25.5033 107.355 25.993C107.861 26.499 107.943 26.5316 109.069 26.5316C110.049 26.5316 110.359 26.4664 110.995 26.0909C111.86 25.585 113.003 24.3771 113.558 23.3815L113.933 22.7122L113.574 22.5327C113.395 22.4184 113.215 22.3695 113.199 22.4021C113.166 22.4348 112.921 22.7939 112.644 23.2019C111.665 24.6546 110.571 25.4054 109.657 25.2748C109.347 25.2422 109.249 25.1116 109.216 24.6383C109.184 24.1812 109.477 23.4304 110.75 20.8842C112.154 18.1257 112.35 17.5871 112.399 16.7383C112.513 15.0082 111.648 14.2084 109.706 14.2084C109.02 14.2084 108.531 14.3226 107.992 14.6001L107.241 14.9755L109.314 10.895C110.457 8.64252 111.42 6.73282 111.436 6.66753C111.469 6.58592 110.897 6.53695 110.163 6.5696L108.808 6.61856L105.038 13.9799C102.965 18.0278 101.055 21.6676 100.794 22.0594C100.092 23.1203 98.5741 24.6383 97.8886 24.9974C96.6971 25.6013 95.9299 25.2585 96.2401 24.2629C96.338 23.9527 97.35 21.9125 98.4762 19.6926L100.549 15.6774H101.512C102.296 15.6774 102.508 15.6121 102.655 15.3673C102.948 14.8123 102.851 14.6981 102.002 14.6981C101.561 14.6981 101.186 14.6654 101.186 14.6164C101.186 14.5675 101.479 13.9472 101.839 13.2291C102.198 12.5109 102.491 11.8906 102.491 11.8417C102.491 11.7927 101.904 11.7601 101.186 11.7601H99.8962L99.1128 13.2291L98.3293 14.6981H96.6481H94.9833L95.6525 13.3433C97.7417 9.16483 99.8473 6.89604 101.267 7.25513C101.675 7.35306 101.692 7.40203 101.594 8.23446C101.463 9.2954 101.708 9.63817 102.671 9.63817C104.434 9.63817 104.597 7.43467 102.883 6.66753C101.708 6.14522 99.8146 6.29212 98.3783 6.99397C96.4849 7.92434 94.8037 9.883 92.9593 13.278L92.1922 14.6981H91.2291C90.4457 14.6981 90.2335 14.7633 90.0866 15.0082C89.7928 15.5631 89.8907 15.6774 90.7395 15.6774C91.1965 15.6774 91.5556 15.71 91.5556 15.759C91.5556 16.0365 89.2542 20.3782 88.5033 21.5534C87.4587 23.1529 85.6633 25.0137 84.9125 25.2748C84.4718 25.4217 84.3249 25.4054 84.0311 25.1606C83.7046 24.8994 83.6883 24.8341 83.8842 24.2302C83.9984 23.8874 85.1083 21.586 86.3651 19.1377L88.6339 14.6981H85.1899H81.746L82.4315 13.4412C83.7373 10.9929 85.5327 8.07124 86.3651 7.05926C87.2792 5.88406 87.0507 5.91671 89.3358 6.60224C90.462 6.92868 91.1312 7.02662 92.3554 7.02662C94.2977 7.02662 95.2607 6.73282 95.9626 5.94935C96.3706 5.47601 96.4523 5.2475 96.4523 4.56197C96.4523 3.84379 96.387 3.66425 95.9136 3.1909C94.6078 1.88513 91.376 2.08099 88.0463 3.66425L86.5773 4.3661L83.9658 3.02768C79.9179 0.95476 77.6817 0.334517 74.3357 0.35084C73.3563 0.367161 72.0342 0.465094 71.3977 0.57935ZM94.9343 3.86011C95.4729 4.26817 95.5872 4.64358 95.3097 5.14956C94.8527 6.01464 93.1388 6.45534 91.2781 6.19419C90.2008 6.04729 88.6502 5.62291 88.4217 5.41072C88.2259 5.23118 89.8907 4.20288 91.0333 3.81115C92.4533 3.32148 94.2324 3.3378 94.9343 3.86011Z" fill="black"/>
<path d="M48.3828 13.7519C46.4079 17.6365 44.4492 21.3254 44.0411 21.9456C42.9965 23.5615 41.9029 24.7367 41.0378 25.1448C40.0585 25.6181 39.6505 25.4875 39.6505 24.6714C39.6505 24.1981 40.2054 22.9413 42.0335 19.3667L44.4002 14.6986H43.0944H41.7723L41.3806 15.4657C41.1521 15.9064 40.9726 16.1186 40.9562 15.9554C40.9562 15.4167 40.4829 14.7475 39.9932 14.5353C39.6831 14.4211 38.9976 14.3558 38.2304 14.3884C36.5819 14.47 35.4393 15.025 33.8887 16.4777C31.7668 18.469 30.5753 20.7867 30.4121 23.1861C30.3305 24.247 30.3795 24.5082 30.7059 25.1448C31.7016 27.0871 34.5906 27.1197 36.5003 25.2101L37.3654 24.345V24.9979C37.3654 26.271 38.6711 26.8749 40.3523 26.3852C41.25 26.1241 41.7397 25.814 42.7354 24.9163L43.274 24.4103L42.8496 25.259L42.4252 26.1241H43.5515H44.694L46.1141 23.3493C47.681 20.2971 47.7789 20.1991 48.644 21.0479C49.1826 21.5865 49.2153 21.9456 48.8725 23.0882C48.2849 25.0305 48.7582 26.3363 50.162 26.5321C51.8105 26.7933 52.6756 26.1567 55.2055 22.7944C56.0216 21.7008 57.3927 19.938 58.2414 18.8607L59.8084 16.9021L59.939 17.8814C60.3144 20.5582 59.4166 24.0838 58.0945 25.2101C57.1805 25.9772 55.9563 25.6181 56.5276 24.7367C57.0499 23.9532 56.7724 23.3493 55.8911 23.3493C55.2382 23.3493 54.8301 23.79 54.7159 24.6061C54.6016 25.4386 55.2055 26.2057 56.1849 26.4669C58.0945 26.9892 60.3633 26.2057 61.2774 24.7367C61.7507 23.9859 61.767 23.8716 61.767 22.1415C61.7507 20.6888 61.6691 20.0359 61.3263 18.8607C60.6571 16.5266 60.6571 16.4614 61.2447 16.0859C61.9956 15.6126 62.2894 15.0087 62.0445 14.47C61.7507 13.8335 60.9999 13.8824 60.2817 14.6006C59.9716 14.9107 59.7268 15.2862 59.7268 15.4331C59.7268 15.58 59.0086 16.5756 58.1109 17.6202C57.2295 18.6812 55.7442 20.5582 54.7975 21.815C52.7735 24.4919 51.9084 25.357 51.2719 25.2753C50.7659 25.2264 50.7332 24.9652 51.0923 23.1698C51.2719 22.1904 51.2719 22.0435 50.9781 21.4559C50.7332 20.9663 50.5047 20.7704 49.9661 20.5745L49.2642 20.3134L50.4558 20.1175C52.5613 19.7584 54.3078 18.7465 54.8464 17.5713C55.4014 16.3471 55.1892 15.2372 54.3078 14.6986C53.2305 14.0457 51.7289 14.3884 50.4394 15.58C49.9661 16.0207 50.2272 15.4167 52.2675 11.3851L54.6506 6.70068H53.3121H51.9737L48.3828 13.7519ZM39.781 15.6779C40.9399 16.7715 39.0955 21.2927 36.386 24.0185C34.9823 25.4386 33.8234 25.8629 33.1379 25.2427C32.4361 24.6061 32.583 23.1535 33.6112 20.9663C35.4557 16.9837 38.4426 14.4374 39.781 15.6779ZM52.8388 16.2002C52.9531 16.3145 53.0347 16.6409 53.0347 16.9347C53.0347 18.0772 51.2882 19.2035 49.0031 19.5462L47.9911 19.7095L48.3339 19.0729C48.8562 18.1425 50.2109 16.6899 50.8965 16.3308C51.5657 15.9717 52.545 15.9064 52.8388 16.2002Z" fill="black"/>
<path d="M88.2909 10.3075C86.8056 10.9114 86.5608 12.8374 87.9318 13.1149C89.1397 13.3597 90.2496 12.5599 90.2496 11.45C90.2496 10.7155 90.119 10.5197 89.5477 10.3075C88.9928 10.0953 88.8296 10.0953 88.2909 10.3075Z" fill="black"/>
</svg>
