<svg width="113" height="34" viewBox="0 0 113 34" fill="none" xmlns="http://www.w3.org/2000/svg">
<path d="M0.998535 24.0498V0.498047H5.13568V24.0498H0.998535Z" fill="black"/>
<path d="M15.726 6.96387C10.4217 6.96387 6.75098 11.0422 6.75098 15.7103C6.75098 20.9202 10.7443 24.5092 15.7672 24.5092C20.5343 24.5092 24.6711 20.9862 24.6711 15.6991C24.6711 11.2531 21.2432 6.96387 15.726 6.96387ZM15.6773 10.9549C18.4532 10.9549 20.4965 13.1157 20.4965 15.7253C20.4965 18.4923 18.2437 20.5107 15.7523 20.5107C12.8083 20.5107 10.9556 18.1774 10.9556 15.7328C10.9556 13.0532 13.0473 10.9549 15.6773 10.9549Z" fill="black"/>
<path d="M35.0654 6.96387C29.761 6.96387 26.0903 11.0422 26.0903 15.7103C26.0903 20.9202 30.0836 24.5092 35.1066 24.5092C39.8737 24.5092 44.0104 20.9862 44.0104 15.6991C44.0104 12.5856 42.6621 11.2041 42.6621 11.2041L43.8088 10.8109V7.45323H37.9329C37.9329 7.45323 36.659 6.96387 35.0654 6.96387ZM35.0167 10.9549C37.7926 10.9549 39.8358 13.1157 39.8358 15.7253C39.8358 18.4923 37.5831 20.5107 35.0916 20.5107C32.1476 20.5107 30.2949 18.1774 30.2949 15.7328C30.2949 13.0532 32.3867 10.9549 35.0167 10.9549Z" fill="black"/>
<path d="M39.8065 25.2012C39.8065 27.9681 37.5538 30.0016 35.0623 30.0016C32.1183 30.0016 30.2581 27.6458 30.2581 25.2012H26.061C26.061 30.411 30.0543 34.0001 35.0773 34.0001C39.8444 34.0001 43.9811 30.4883 43.9811 25.2012H39.8065Z" fill="black"/>
<path d="M45.6675 24.0497V7.45312H49.8046V24.0497H45.6675Z" fill="black"/>
<path d="M53.822 24.0494V11.1704H51.6035V7.45292H53.822V2.35645H57.9591V7.45292H60.2376V11.1704H57.9591V24.0494H53.822Z" fill="black"/>
<path d="M50.467 2.7396C50.467 4.25264 49.2404 5.4792 47.7274 5.4792C46.2144 5.4792 44.9878 4.25264 44.9878 2.7396C44.9878 1.22656 46.2144 0 47.7274 0C49.2404 0 50.467 1.22656 50.467 2.7396Z" fill="black"/>
<path d="M69.5386 6.95312C64.2092 6.95312 60.7734 11.0336 60.7734 15.8607C60.7734 20.849 64.2206 24.521 69.6248 24.521C74.6661 24.521 77.1459 21.3732 77.1459 21.3732L74.3803 18.6038C74.3803 18.6038 72.2921 20.856 69.6773 20.856C67.4975 20.856 65.7547 19.6394 65.1467 17.4084H78.0378V16.2692C78.0378 11.7236 75.4067 6.95312 69.5386 6.95312ZM69.4075 10.5956C71.3133 10.5956 73.2623 11.6152 73.6983 14.0507H65.0342C65.3774 12.3387 66.8751 10.5956 69.4075 10.5956Z" fill="black"/>
<path d="M88.3862 24.5223C83.0416 24.5223 79.3999 20.4518 79.3999 15.6522C79.3999 10.6991 83.5157 6.94922 88.369 6.94922C93.0608 6.94922 95.4623 10.2613 95.4623 10.2613L92.5763 13.1343C92.5763 13.1343 90.9045 10.9743 88.3494 10.9743C85.5174 10.9743 83.581 13.1406 83.581 15.7158C83.581 18.4348 85.6408 20.5209 88.3175 20.5209C90.9138 20.5209 92.5723 18.3644 92.5723 18.3644L95.4872 21.2358C95.4872 21.2358 93.109 24.5223 88.3862 24.5223Z" fill="black"/>
<path d="M96.9922 24.0621V0.438477H101.129V9.11792C101.129 9.11792 102.713 6.94989 106.159 6.94989C110.491 6.94989 113.001 10.1702 113.001 14.2889V24.0621H108.864V14.9142C108.864 12.1472 107.141 10.9992 105.233 10.9992C103.058 10.9992 101.129 12.2366 101.129 15.1283V24.0621H96.9922Z" fill="black"/>
</svg>
