<svg width="196" height="20" viewBox="0 0 196 20" fill="none" xmlns="http://www.w3.org/2000/svg">
<path d="M106.719 0C99.8111 0 96.2329 4.24926 96.2329 9.97161C96.2329 15.7166 99.8111 19.9886 106.719 19.9886C113.65 19.9886 117.228 15.7166 117.228 9.97161C117.238 4.24926 113.65 0 106.719 0ZM166.601 0C160.758 0 157.825 2.32296 157.825 6.43652C157.825 9.77911 159.773 11.3538 163.804 11.784L168.288 12.261C169.998 12.4534 170.78 13.1101 170.78 13.9712C170.78 14.9456 169.637 15.8188 166.885 15.8188C163.703 15.8188 162.422 15.0136 162.207 13.3931H157.554C157.769 17.7672 160.611 20 166.714 20C172.286 20 175.399 17.5517 175.399 13.8689C175.399 10.6624 173.555 8.7363 170.067 8.33977L165.65 7.84124C163.068 7.55809 162.423 6.91178 162.423 6.03906C162.423 5.0646 163.748 4.1926 166.341 4.1926C168.832 4.1926 170.134 5.12234 170.372 6.51601H175.118C174.879 2.49315 171.516 0 166.601 0ZM58.2293 0.453101V12.7595C58.2293 18.2434 63.1208 19.9546 67.2198 19.9546C71.2967 19.9546 76.166 18.2434 76.166 12.7595V0.453101H71.3193V12.2042H71.342C71.342 14.6746 69.8255 15.6711 67.2323 15.6711C64.7183 15.6711 63.0761 14.6293 63.0761 12.2042V0.453101H58.2293ZM17.5639 0.521234L0.611816 11.0584V19.523H0.758322L17.7558 8.94049H26.5771C26.8492 8.94049 27.0983 9.15532 27.0983 9.46173C27.0983 9.71058 26.9851 9.81305 26.8496 9.89212L18.503 14.9001C17.9594 15.2286 17.7672 15.8743 17.7672 16.3616L17.755 19.523H28.366V1.17874C28.366 0.827561 28.0944 0.521233 27.6869 0.521233L17.5639 0.521234ZM44.0742 0.521234L36.7917 19.5242H41.7974L43.0658 15.9652H51.1966L52.4424 19.5242H57.6172L50.245 0.521235L44.0742 0.521234ZM78.386 0.521234V4.63434H84.5125V19.5242H89.3479V4.63434H95.4517V0.521235L78.386 0.521234ZM119.866 0.521234V19.5242H128.745C135.551 19.5242 137.43 16.9852 137.43 9.88076C137.43 3.20662 135.63 0.521234 128.745 0.521234H119.866ZM140.137 0.521234V19.5242H155.424V15.4099H144.984V11.9657H153.386V7.84125H144.984V4.63434H155.424V0.521235L140.137 0.521234ZM177.868 0.521234L177.891 19.5242H182.716V12.3064L189.262 19.5242H195.388L186.554 10.1419L195.388 0.521235H189.624L182.716 8.23757V0.521235L177.868 0.521234ZM106.719 4.27209C110.331 4.27209 112.269 6.48134 112.269 9.97161C112.279 13.541 110.331 15.7166 106.719 15.7166C103.14 15.7166 101.17 13.5293 101.17 9.97161C101.17 6.48134 103.14 4.27209 106.719 4.27209ZM47.1653 4.4765L49.7806 11.9203H44.5035L47.1653 4.4765ZM124.702 4.63434H128.552C131.587 4.63434 132.492 5.46138 132.492 9.88077C132.492 13.9147 131.473 15.4099 128.552 15.4099H124.702V4.63434Z" fill="black"/>
</svg>
