<svg width="1280" height="456" viewBox="0 0 1280 456" fill="none" xmlns="http://www.w3.org/2000/svg">
<rect width="1280" height="456" fill="white"/>
<g filter="url(#filter0_d_4024_133105)">
<path d="M52.1189 326.272L57.7757 320.615C58.4321 319.959 59.3223 319.59 60.2506 319.59H106.594C108.527 319.59 110.094 321.157 110.094 323.09V375.09C110.094 377.023 108.527 378.59 106.594 378.59H54.5937C52.6608 378.59 51.0938 377.023 51.0938 375.09V328.747C51.0938 327.818 51.4625 326.928 52.1189 326.272Z" fill="white" stroke="#C1C1C1"/>
<g clip-path="url(#clip0_4024_133105)">
<path d="M88.5938 333.863V363.863C88.5938 367.219 90.9119 369.09 93.3665 369.09C95.6392 369.09 98.1393 367.499 98.1393 363.863V334.09C98.1393 331.013 95.8665 329.09 93.3665 329.09C90.8665 329.09 88.5938 331.21 88.5938 333.863Z" fill="#F9AB00"/>
<path d="M76.0938 349.09V363.863C76.0938 367.22 78.4119 369.09 80.8665 369.09C83.1392 369.09 85.6393 367.499 85.6393 363.863V349.317C85.6393 346.24 83.3665 344.317 80.8665 344.317C78.3665 344.317 76.0938 346.438 76.0938 349.09Z" fill="#E37400"/>
<path d="M68.3665 369.09C71.0024 369.09 73.1393 366.954 73.1393 364.318C73.1393 361.682 71.0024 359.545 68.3665 359.545C65.7306 359.545 63.5938 361.682 63.5938 364.318C63.5938 366.954 65.7306 369.09 68.3665 369.09Z" fill="#E37400"/>
</g>
</g>
<g filter="url(#filter1_d_4024_133105)">
<path d="M72.1189 42.2328L77.7757 36.5759C78.4321 35.9195 79.3223 35.5508 80.2506 35.5508H126.594C128.527 35.5508 130.094 37.1178 130.094 39.0508V91.0508C130.094 92.9838 128.527 94.5508 126.594 94.5508H74.5937C72.6608 94.5508 71.0938 92.9838 71.0938 91.0508V44.7076C71.0938 43.7794 71.4625 42.8891 72.1189 42.2328Z" fill="white" stroke="#C1C1C1"/>
<g clip-path="url(#clip1_4024_133105)">
<path d="M93.2052 77.2737C86.1988 77.2737 80.5938 71.6687 80.5938 64.6623C80.5938 57.6559 86.1988 52.0508 93.2052 52.0508H107.982C114.989 52.0508 120.594 57.6559 120.594 64.6623C120.594 71.6687 114.989 77.2737 107.982 77.2737H93.2052ZM107.6 72.8151C112.186 72.8151 115.753 69.1209 115.753 64.6623C115.753 60.0763 112.059 56.5094 107.6 56.5094H93.5874C89.0014 56.5094 85.4345 60.2037 85.4345 64.6623C85.4345 69.1209 89.1288 72.8151 93.5874 72.8151H107.6Z" fill="#F80000"/>
</g>
</g>
<g filter="url(#filter2_d_4024_133105)">
<path d="M132.119 169.584L137.776 163.927C138.432 163.271 139.322 162.902 140.251 162.902H186.594C188.527 162.902 190.094 164.469 190.094 166.402V218.402C190.094 220.335 188.527 221.902 186.594 221.902H134.594C132.661 221.902 131.094 220.335 131.094 218.402V172.059C131.094 171.131 131.462 170.241 132.119 169.584Z" fill="white" stroke="#C1C1C1"/>
<g clip-path="url(#clip2_4024_133105)">
<path d="M154.206 179.004C154.593 177.989 155.125 177.055 155.914 176.298C159.071 173.221 164.291 173.994 166.433 177.861C168.044 180.792 169.752 183.66 171.411 186.559C174.182 191.376 176.985 196.193 179.723 201.026C182.027 205.069 179.53 210.176 174.955 210.868C172.152 211.287 169.526 209.998 168.076 207.485C165.644 203.249 163.195 199.012 160.763 194.791C160.715 194.695 160.65 194.614 160.586 194.534C160.328 194.324 160.215 194.018 160.054 193.744C158.975 191.843 157.863 189.959 156.784 188.074C156.091 186.849 155.366 185.641 154.674 184.417C154.045 183.322 153.755 182.129 153.788 180.873C153.836 180.229 153.916 179.584 154.206 179.004Z" fill="#3C8BD9"/>
<path d="M154.204 179.004C154.059 179.584 153.931 180.164 153.898 180.776C153.85 182.129 154.188 183.386 154.865 184.562C156.637 187.606 158.409 190.667 160.165 193.728C160.326 194.002 160.455 194.275 160.616 194.533C159.649 196.209 158.683 197.868 157.7 199.543C156.347 201.879 154.994 204.231 153.625 206.567C153.56 206.567 153.544 206.535 153.528 206.486C153.512 206.357 153.56 206.245 153.592 206.116C154.253 203.699 153.705 201.557 152.046 199.72C151.031 198.609 149.742 197.981 148.26 197.771C146.327 197.497 144.62 197.997 143.089 199.205C142.815 199.414 142.638 199.72 142.316 199.881C142.251 199.881 142.219 199.849 142.203 199.801C142.976 198.464 143.733 197.127 144.507 195.79C147.696 190.248 150.886 184.707 154.092 179.181C154.124 179.117 154.172 179.068 154.204 179.004Z" fill="#FABC04"/>
<path d="M142.269 199.849C142.575 199.575 142.865 199.285 143.187 199.028C147.102 195.935 152.981 198.174 153.835 203.071C154.045 204.247 153.932 205.375 153.577 206.502C153.561 206.599 153.545 206.679 153.513 206.776C153.368 207.034 153.239 207.308 153.078 207.565C151.644 209.934 149.534 211.109 146.763 210.932C143.59 210.707 141.093 208.323 140.658 205.165C140.448 203.635 140.754 202.201 141.544 200.88C141.705 200.59 141.898 200.332 142.075 200.042C142.156 199.978 142.124 199.849 142.269 199.849Z" fill="#34A852"/>
<path d="M142.27 199.85C142.205 199.914 142.205 200.027 142.092 200.043C142.076 199.93 142.141 199.866 142.205 199.785L142.27 199.85Z" fill="#FABC04"/>
<path d="M153.511 206.777C153.447 206.664 153.511 206.583 153.576 206.503C153.592 206.519 153.624 206.551 153.64 206.567L153.511 206.777Z" fill="#E1C025"/>
</g>
</g>
<g filter="url(#filter3_d_4024_133105)">
<path d="M192.119 276.272L197.776 270.615C198.432 269.959 199.322 269.59 200.251 269.59H246.594C248.527 269.59 250.094 271.157 250.094 273.09V325.09C250.094 327.023 248.527 328.59 246.594 328.59H194.594C192.661 328.59 191.094 327.023 191.094 325.09V278.747C191.094 277.818 191.462 276.928 192.119 276.272Z" fill="white" stroke="#C1C1C1"/>
<g clip-path="url(#clip3_4024_133105)">
<g clip-path="url(#clip4_4024_133105)">
<path d="M220.594 319.093C231.639 319.093 240.594 310.138 240.594 299.093C240.594 288.047 231.639 279.093 220.594 279.093C209.548 279.093 200.594 288.047 200.594 299.093C200.594 310.138 209.548 319.093 220.594 319.093Z" fill="#1977F3"/>
<path d="M228.38 304.875L229.266 299.093H223.72V295.341C223.72 293.76 224.493 292.216 226.979 292.216H229.502V287.294C229.502 287.294 227.213 286.903 225.025 286.903C220.457 286.903 217.47 289.671 217.47 294.686V299.093H212.391V304.875H217.47V318.851C218.488 319.011 219.532 319.093 220.595 319.093C221.658 319.093 222.701 319.008 223.72 318.851V304.875H228.38Z" fill="white"/>
</g>
</g>
</g>
<path d="M509.281 219.826L486.632 219.826C484.422 219.826 482.632 218.035 482.632 215.826L482.632 193.133" stroke="#306BEA" stroke-linecap="square"/>
<path d="M482.629 193.434L482.629 94.0009C482.629 91.7918 480.838 90.0009 478.629 90.0009L293.708 90.0009" stroke="#306BEA" stroke-linecap="square"/>
<path d="M935.715 390.688L1188.56 390.687C1190.77 390.687 1192.56 388.896 1192.56 386.687L1192.56 255.853" stroke="#306BEA" stroke-linecap="square" stroke-dasharray="4 4"/>
<path d="M542.398 219.826L519.749 219.826C517.54 219.826 515.749 221.617 515.749 223.826L515.749 246.52" stroke="#306BEA" stroke-linecap="square"/>
<path d="M515.75 246.158L515.75 387.973C515.75 390.182 513.959 391.973 511.75 391.973L324.026 391.973" stroke="#306BEA" stroke-linecap="square"/>
<path d="M653.148 246L653.148 387.814C653.148 390.024 654.939 391.814 657.148 391.814L860.346 391.815" stroke="#306BEA" stroke-linecap="square"/>
<path d="M511.75 327.596H519.75V335.596H511.75V327.596Z" fill="#306BEA"/>
<path d="M452.227 86.043L452.227 94.043L444.227 94.043L444.227 86.043L452.227 86.043Z" fill="#306BEA"/>
<path d="M434.879 387.973H442.879V395.973H434.879V387.973Z" fill="#306BEA"/>
<path d="M538.398 216.027H546.398V224.027H538.398V216.027Z" fill="#306BEA"/>
<path d="M478.629 141.717H486.629V149.717H478.629V141.717Z" fill="#306BEA"/>
<path d="M776.707 215.365H784.707V223.365H776.707V215.365Z" fill="#306BEA"/>
<path d="M1002.7 215.365H1010.7V223.365H1002.7V215.365Z" fill="#306BEA"/>
<path d="M899.715 292.738L899.715 300.738L891.715 300.738L891.715 292.738L899.715 292.738Z" fill="#306BEA"/>
<path d="M1058.17 215.826H1066.17V223.826H1058.17V215.826Z" fill="#306BEA"/>
<g filter="url(#filter4_d_4024_133105)">
<path d="M252.119 67.182L257.776 61.5251C258.432 60.8687 259.322 60.5 260.251 60.5H306.594C308.527 60.5 310.094 62.067 310.094 64V116C310.094 117.933 308.527 119.5 306.594 119.5H254.594C252.661 119.5 251.094 117.933 251.094 116V69.6569C251.094 68.7286 251.462 67.8384 252.119 67.182Z" fill="#C9E4EA" stroke="#C1C1C1"/>
</g>
<rect x="289.633" y="94.043" width="39.2508" height="17.8003" fill="#FB443F"/>
<path d="M297.135 107.051V98.2908H298.575L301.251 105.791C301.235 105.591 301.215 105.347 301.191 105.059C301.175 104.763 301.159 104.455 301.143 104.135C301.135 103.807 301.131 103.499 301.131 103.211V98.2908H302.175V107.051H300.735L298.071 99.5508C298.087 99.7428 298.103 99.9868 298.119 100.283C298.135 100.571 298.147 100.879 298.155 101.207C298.171 101.527 298.179 101.835 298.179 102.131V107.051H297.135ZM304.45 107.051V98.2908H309.49V99.2748H305.518V101.987H309.07V102.959H305.518V106.067H309.49V107.051H304.45ZM311.753 107.051L310.745 98.2908H311.777L312.437 104.771C312.453 104.947 312.469 105.131 312.485 105.323C312.501 105.507 312.513 105.683 312.521 105.851C312.537 106.019 312.545 106.159 312.545 106.271C312.561 106.159 312.573 106.019 312.581 105.851C312.597 105.683 312.613 105.507 312.629 105.323C312.653 105.131 312.677 104.947 312.701 104.771L313.517 98.2908H314.633L315.377 104.771C315.401 104.947 315.421 105.131 315.437 105.323C315.461 105.507 315.481 105.683 315.497 105.851C315.521 106.019 315.537 106.159 315.545 106.271C315.553 106.159 315.561 106.019 315.569 105.851C315.585 105.683 315.601 105.507 315.617 105.323C315.641 105.131 315.661 104.947 315.677 104.771L316.361 98.2908H317.345L316.313 107.051H314.957L314.213 100.451C314.197 100.267 314.177 100.087 314.153 99.9108C314.137 99.7348 314.121 99.5708 314.105 99.4188C314.089 99.2668 314.077 99.1428 314.069 99.0468C314.061 99.1428 314.045 99.2668 314.021 99.4188C314.005 99.5708 313.989 99.7348 313.973 99.9108C313.957 100.087 313.937 100.267 313.913 100.451L313.109 107.051H311.753ZM320.857 104.471L320.605 99.7308V98.2908H321.877V99.7308L321.625 104.471H320.857ZM321.061 107.111C320.853 107.111 320.681 107.043 320.545 106.907C320.409 106.771 320.341 106.599 320.341 106.391C320.341 106.183 320.409 106.011 320.545 105.875C320.681 105.739 320.853 105.671 321.061 105.671H321.421C321.653 105.671 321.829 105.739 321.949 105.875C322.077 106.003 322.141 106.171 322.141 106.379C322.141 106.587 322.073 106.763 321.937 106.907C321.801 107.043 321.629 107.111 321.421 107.111H321.061Z" fill="white"/>
<rect x="511.75" y="363.596" width="36" height="8" rx="2" transform="rotate(-90 511.75 363.596)" fill="url(#paint0_linear_4024_133105)"/>
<rect x="730.668" y="387.814" width="36" height="8" rx="2" fill="url(#paint1_linear_4024_133105)"/>
<rect x="416.227" y="86.043" width="36" height="8" rx="2" fill="url(#paint2_linear_4024_133105)"/>
<rect x="974.703" y="215.365" width="36" height="8" rx="2" fill="url(#paint3_linear_4024_133105)"/>
<rect x="899.715" y="268.4" width="32.3378" height="8" rx="2" transform="rotate(90 899.715 268.4)" fill="url(#paint4_linear_4024_133105)"/>
<path d="M619.437 219.859L397.483 219.859" stroke="#306BEA"/>
<path d="M861.242 219.826L600.095 219.826" stroke="#306BEA"/>
<path d="M1150.78 219.826L929.153 219.826" stroke="#306BEA"/>
<path d="M895.715 344.408L895.715 254.454" stroke="#306BEA"/>
<g filter="url(#filter5_d_4024_133105)">
<path d="M346.408 195.045L352.065 189.388C352.721 188.732 353.611 188.363 354.54 188.363H400.883C402.816 188.363 404.383 189.93 404.383 191.863V243.863C404.383 245.796 402.816 247.363 400.883 247.363H348.883C346.95 247.363 345.383 245.796 345.383 243.863V197.52C345.383 196.592 345.752 195.702 346.408 195.045Z" fill="white" stroke="#C1C1C1"/>
<g clip-path="url(#clip5_4024_133105)">
<g clip-path="url(#clip6_4024_133105)">
<mask id="mask0_4024_133105" style="mask-type:alpha" maskUnits="userSpaceOnUse" x="354" y="203" width="41" height="29">
<path d="M354.891 203.937H394.744V231.775H354.891V203.937Z" fill="white"/>
</mask>
<g mask="url(#mask0_4024_133105)">
<path fill-rule="evenodd" clip-rule="evenodd" d="M371.44 206.984C372.726 205.645 374.517 204.816 376.495 204.816C379.132 204.816 381.418 206.281 382.648 208.464C383.741 207.976 384.924 207.724 386.121 207.724C390.868 207.724 394.722 211.607 394.722 216.398C394.722 221.189 390.868 225.072 386.121 225.072C385.541 225.072 384.975 225.014 384.421 224.904C383.344 226.823 381.286 228.127 378.941 228.127C377.987 228.129 377.045 227.913 376.187 227.494C375.095 230.058 372.553 231.861 369.593 231.861C366.502 231.861 363.879 229.912 362.868 227.172C362.418 227.267 361.96 227.315 361.5 227.314C357.822 227.314 354.848 224.296 354.848 220.589C354.848 218.098 356.187 215.93 358.174 214.758C357.752 213.787 357.535 212.739 357.536 211.681C357.536 207.402 361.009 203.944 365.287 203.944C367.793 203.944 370.034 205.138 371.441 206.992" fill="#00A1E0"/>
<path fill-rule="evenodd" clip-rule="evenodd" d="M360.654 218.413C360.629 218.478 360.663 218.492 360.671 218.504C360.745 218.558 360.822 218.597 360.898 218.641C361.305 218.857 361.689 218.92 362.09 218.92C362.908 218.92 363.416 218.484 363.416 217.784V217.77C363.416 217.123 362.842 216.887 362.306 216.718L362.236 216.695C361.83 216.564 361.48 216.449 361.48 216.183V216.169C361.48 215.94 361.685 215.772 362.001 215.772C362.353 215.772 362.772 215.889 363.04 216.037C363.04 216.037 363.119 216.088 363.148 216.012C363.164 215.97 363.301 215.605 363.315 215.563C363.331 215.521 363.304 215.488 363.276 215.471C362.968 215.284 362.543 215.156 362.103 215.156L362.022 215.157C361.273 215.157 360.75 215.609 360.75 216.257V216.271C360.75 216.954 361.327 217.177 361.866 217.33L361.953 217.357C362.346 217.478 362.686 217.583 362.686 217.858V217.872C362.686 218.126 362.465 218.315 362.11 218.315C361.972 218.315 361.533 218.312 361.057 218.011C360.999 217.978 360.966 217.954 360.922 217.927C360.898 217.912 360.84 217.887 360.814 217.963L360.653 218.412L360.654 218.413ZM372.624 218.412C372.599 218.477 372.633 218.491 372.641 218.502C372.716 218.557 372.792 218.596 372.868 218.64C373.275 218.855 373.659 218.918 374.061 218.918C374.878 218.918 375.387 218.483 375.387 217.783V217.769C375.387 217.121 374.814 216.886 374.276 216.717L374.206 216.694C373.8 216.563 373.45 216.448 373.45 216.182V216.168C373.45 215.939 373.655 215.771 373.972 215.771C374.323 215.771 374.741 215.888 375.01 216.036C375.01 216.036 375.09 216.087 375.119 216.011C375.134 215.969 375.271 215.603 375.284 215.562C375.3 215.519 375.273 215.487 375.245 215.47C374.937 215.283 374.512 215.155 374.073 215.155L373.991 215.156C373.242 215.156 372.719 215.608 372.719 216.256V216.27C372.719 216.953 373.296 217.175 373.836 217.329L373.922 217.356C374.316 217.477 374.655 217.582 374.655 217.857V217.871C374.655 218.125 374.434 218.314 374.079 218.314C373.941 218.314 373.5 218.311 373.025 218.01C372.968 217.977 372.934 217.954 372.891 217.925C372.876 217.916 372.807 217.889 372.783 217.962L372.622 218.411L372.624 218.412ZM380.798 217.039C380.798 217.435 380.724 217.747 380.579 217.968C380.435 218.186 380.218 218.293 379.914 218.293C379.611 218.293 379.394 218.187 379.252 217.97C379.109 217.75 379.037 217.436 379.037 217.041C379.037 216.645 379.109 216.334 379.252 216.116C379.394 215.899 379.609 215.795 379.914 215.795C380.219 215.795 380.436 215.9 380.579 216.116C380.725 216.334 380.798 216.645 380.798 217.041V217.039ZM381.481 216.307C381.413 216.08 381.309 215.88 381.17 215.713C381.031 215.546 380.855 215.411 380.645 215.315C380.437 215.217 380.191 215.168 379.913 215.168C379.634 215.168 379.39 215.218 379.18 215.315C378.972 215.412 378.795 215.546 378.656 215.713C378.517 215.88 378.412 216.08 378.345 216.307C378.278 216.532 378.245 216.778 378.245 217.041C378.245 217.303 378.278 217.549 378.345 217.775C378.412 218.002 378.516 218.201 378.656 218.368C378.795 218.535 378.972 218.669 379.18 218.764C379.39 218.859 379.636 218.907 379.913 218.907C380.19 218.907 380.436 218.859 380.644 218.764C380.852 218.669 381.029 218.535 381.168 218.368C381.308 218.201 381.412 218.002 381.479 217.775C381.546 217.549 381.579 217.303 381.579 217.041C381.579 216.78 381.546 216.532 381.479 216.307H381.481ZM387.091 218.182C387.068 218.116 387.004 218.141 387.004 218.141C386.904 218.179 386.799 218.214 386.686 218.231C386.572 218.249 386.445 218.258 386.312 218.258C385.982 218.258 385.719 218.16 385.531 217.965C385.342 217.77 385.237 217.457 385.238 217.032C385.239 216.645 385.333 216.355 385.5 216.132C385.666 215.912 385.921 215.798 386.258 215.798C386.539 215.798 386.755 215.831 386.98 215.902C386.98 215.902 387.034 215.925 387.059 215.854C387.119 215.689 387.163 215.57 387.228 215.388C387.246 215.336 387.201 215.314 387.185 215.308C387.097 215.274 386.888 215.217 386.729 215.193C386.582 215.17 386.41 215.159 386.217 215.159C385.929 215.159 385.675 215.208 385.456 215.305C385.238 215.402 385.053 215.537 384.907 215.704C384.76 215.871 384.649 216.07 384.574 216.297C384.5 216.523 384.463 216.77 384.463 217.032C384.463 217.598 384.615 218.057 384.917 218.392C385.219 218.729 385.673 218.899 386.265 218.899C386.615 218.899 386.974 218.828 387.232 218.726C387.232 218.726 387.281 218.703 387.26 218.645L387.091 218.182H387.091ZM388.286 216.658C388.318 216.438 388.378 216.255 388.473 216.113C388.615 215.896 388.831 215.778 389.134 215.778C389.437 215.778 389.638 215.897 389.782 216.113C389.877 216.256 389.918 216.446 389.934 216.658L388.278 216.658L388.286 216.658ZM390.586 216.175C390.528 215.956 390.384 215.735 390.29 215.634C390.14 215.474 389.995 215.362 389.85 215.3C389.641 215.211 389.416 215.165 389.188 215.166C388.899 215.166 388.637 215.214 388.425 215.314C388.212 215.414 388.034 215.55 387.893 215.72C387.752 215.889 387.647 216.09 387.579 216.32C387.512 216.547 387.478 216.796 387.478 217.057C387.478 217.324 387.513 217.572 387.583 217.796C387.653 218.021 387.766 218.219 387.918 218.383C388.071 218.549 388.265 218.678 388.5 218.769C388.733 218.859 389.016 218.905 389.339 218.904C390.008 218.902 390.359 218.754 390.503 218.673C390.528 218.659 390.553 218.634 390.522 218.562L390.372 218.139C390.348 218.076 390.285 218.099 390.285 218.099C390.119 218.161 389.885 218.272 389.335 218.27C388.976 218.27 388.711 218.164 388.544 217.998C388.374 217.828 388.289 217.58 388.276 217.228L390.591 217.23C390.591 217.23 390.652 217.23 390.658 217.17C390.66 217.145 390.737 216.695 390.589 216.175L390.586 216.175ZM369.78 216.658C369.813 216.438 369.873 216.255 369.968 216.113C370.109 215.896 370.325 215.778 370.628 215.778C370.932 215.778 371.132 215.897 371.276 216.113C371.371 216.256 371.413 216.446 371.428 216.658L369.773 216.658L369.78 216.658ZM372.08 216.175C372.022 215.956 371.878 215.735 371.784 215.634C371.635 215.474 371.49 215.362 371.345 215.3C371.135 215.211 370.91 215.165 370.683 215.166C370.394 215.166 370.132 215.214 369.919 215.314C369.707 215.414 369.528 215.55 369.387 215.72C369.247 215.889 369.141 216.09 369.074 216.32C369.007 216.547 368.973 216.796 368.973 217.057C368.973 217.324 369.008 217.572 369.078 217.796C369.148 218.021 369.261 218.219 369.412 218.383C369.564 218.549 369.759 218.678 369.993 218.769C370.226 218.859 370.508 218.905 370.833 218.904C371.501 218.902 371.853 218.754 371.996 218.673C372.022 218.659 372.046 218.634 372.016 218.562L371.865 218.139C371.842 218.076 371.778 218.099 371.778 218.099C371.612 218.161 371.378 218.272 370.828 218.27C370.471 218.27 370.204 218.164 370.037 217.998C369.867 217.828 369.782 217.58 369.769 217.228L372.084 217.23C372.084 217.23 372.145 217.23 372.151 217.17C372.154 217.145 372.23 216.695 372.082 216.175L372.08 216.175ZM364.784 218.167C364.693 218.095 364.68 218.077 364.65 218.03C364.605 217.96 364.581 217.859 364.581 217.73C364.581 217.528 364.648 217.381 364.788 217.283C364.786 217.283 364.987 217.11 365.459 217.116C365.669 217.12 365.878 217.138 366.086 217.169V218.22H366.086C366.086 218.22 365.793 218.283 365.462 218.303C364.992 218.331 364.784 218.168 364.785 218.168L364.784 218.167ZM365.704 216.541C365.61 216.534 365.488 216.531 365.343 216.531C365.146 216.531 364.954 216.555 364.775 216.604C364.595 216.652 364.432 216.728 364.293 216.828C364.153 216.928 364.038 217.058 363.957 217.209C363.875 217.361 363.834 217.54 363.834 217.742C363.834 217.947 363.869 218.125 363.94 218.27C364.009 218.414 364.112 218.538 364.241 218.632C364.37 218.725 364.529 218.794 364.712 218.835C364.893 218.877 365.099 218.898 365.324 218.898C365.562 218.898 365.797 218.878 366.026 218.839C366.221 218.806 366.415 218.768 366.608 218.726C366.685 218.708 366.77 218.685 366.77 218.685C366.828 218.671 366.823 218.609 366.823 218.609L366.822 216.5C366.822 216.037 366.698 215.692 366.454 215.48C366.211 215.267 365.855 215.16 365.393 215.16C365.22 215.16 364.94 215.184 364.773 215.217C364.773 215.217 364.269 215.315 364.061 215.478C364.061 215.478 364.016 215.506 364.041 215.57L364.205 216.01C364.225 216.067 364.281 216.047 364.281 216.047C364.281 216.047 364.298 216.04 364.319 216.028C364.762 215.786 365.325 215.794 365.325 215.794C365.574 215.794 365.768 215.844 365.897 215.943C366.023 216.04 366.087 216.186 366.087 216.494V216.592C365.889 216.563 365.706 216.546 365.706 216.546L365.704 216.541ZM384.312 215.35C384.315 215.342 384.317 215.334 384.317 215.325C384.317 215.317 384.315 215.309 384.312 215.301C384.309 215.293 384.304 215.286 384.298 215.28C384.292 215.274 384.285 215.27 384.277 215.267C384.238 215.252 384.041 215.21 383.89 215.201C383.6 215.183 383.439 215.232 383.294 215.297C383.151 215.361 382.992 215.465 382.904 215.585L382.904 215.304C382.904 215.265 382.877 215.234 382.838 215.234H382.246C382.207 215.234 382.179 215.265 382.179 215.304V218.747C382.179 218.766 382.187 218.784 382.2 218.797C382.213 218.81 382.231 218.817 382.25 218.817H382.856C382.875 218.817 382.893 218.81 382.906 218.797C382.919 218.784 382.926 218.766 382.926 218.747V217.018C382.926 216.787 382.952 216.557 383.003 216.412C383.053 216.268 383.121 216.154 383.205 216.072C383.285 215.993 383.383 215.934 383.491 215.9C383.592 215.871 383.696 215.857 383.801 215.857C383.922 215.857 384.055 215.888 384.055 215.888C384.099 215.893 384.124 215.865 384.139 215.825C384.179 215.72 384.291 215.403 384.313 215.34" fill="#FFFFFE"/>
<path fill-rule="evenodd" clip-rule="evenodd" d="M378.649 213.76C378.575 213.738 378.498 213.72 378.421 213.706C378.317 213.689 378.212 213.681 378.107 213.682C377.689 213.682 377.359 213.8 377.128 214.033C376.898 214.265 376.742 214.617 376.664 215.081L376.635 215.238H376.111C376.111 215.238 376.047 215.235 376.033 215.305L375.947 215.786C375.941 215.832 375.961 215.86 376.022 215.86H376.533L376.015 218.753C375.974 218.986 375.928 219.178 375.876 219.323C375.826 219.466 375.776 219.573 375.715 219.651C375.656 219.727 375.6 219.782 375.504 219.815C375.424 219.842 375.332 219.854 375.232 219.854C375.176 219.854 375.101 219.845 375.046 219.834C374.991 219.823 374.963 219.81 374.922 219.793C374.922 219.793 374.862 219.77 374.838 219.83C374.819 219.879 374.683 220.254 374.667 220.3C374.65 220.346 374.673 220.382 374.702 220.392C374.77 220.417 374.821 220.432 374.913 220.454C375.042 220.484 375.15 220.486 375.252 220.486C375.465 220.486 375.659 220.456 375.819 220.398C375.981 220.34 376.122 220.238 376.246 220.1C376.381 219.951 376.466 219.796 376.547 219.583C376.627 219.373 376.695 219.111 376.75 218.807L377.271 215.86H378.032C378.032 215.86 378.096 215.863 378.109 215.793L378.196 215.312C378.202 215.266 378.182 215.238 378.12 215.238H377.381C377.385 215.221 377.418 214.961 377.503 214.717C377.539 214.612 377.608 214.528 377.665 214.47C377.719 214.415 377.786 214.374 377.859 214.35C377.939 214.325 378.023 214.313 378.107 214.314C378.177 214.314 378.245 214.322 378.297 214.333C378.368 214.348 378.396 214.356 378.415 214.362C378.49 214.385 378.5 214.363 378.515 214.326L378.692 213.841C378.71 213.789 378.666 213.767 378.649 213.76ZM368.324 218.759C368.324 218.798 368.296 218.829 368.257 218.829H367.644C367.606 218.829 367.578 218.798 367.578 218.759V213.826C367.578 213.788 367.606 213.756 367.644 213.756H368.257C368.296 213.756 368.324 213.788 368.324 213.826V218.759Z" fill="#FFFFFE"/>
</g>
</g>
</g>
</g>
<g filter="url(#filter6_d_4024_133105)">
<path d="M614.674 189.849L622.997 181.525C623.653 180.869 624.544 180.5 625.472 180.5H689.148C691.081 180.5 692.648 182.067 692.648 184V256C692.648 257.933 691.081 259.5 689.148 259.5H617.148C615.215 259.5 613.648 257.933 613.648 256V192.324C613.648 191.395 614.017 190.505 614.674 189.849Z" fill="#306BEA" stroke="#C1C1C1"/>
</g>
<path d="M660.773 220.027H665.994C666.2 220.027 666.398 219.945 666.544 219.799C666.69 219.653 666.772 219.455 666.772 219.249C666.772 219.142 666.75 219.037 666.71 218.938L657.731 194.498C657.675 194.354 657.578 194.23 657.452 194.141C657.326 194.053 657.177 194.004 657.022 194H651.786C651.58 194 651.382 194.082 651.236 194.228C651.09 194.374 651.008 194.572 651.008 194.778C651.008 194.868 651.024 194.958 651.054 195.043L660.041 219.545C660.101 219.689 660.202 219.813 660.333 219.899C660.463 219.985 660.617 220.03 660.773 220.027Z" fill="white"/>
<path d="M659.848 246H665.069C665.275 246 665.473 245.918 665.619 245.772C665.765 245.626 665.847 245.428 665.847 245.222C665.847 245.132 665.831 245.042 665.8 244.957L647.289 194.514C647.233 194.369 647.135 194.244 647.008 194.155C646.88 194.066 646.729 194.018 646.573 194.016H641.36C641.154 194.016 640.956 194.098 640.81 194.244C640.664 194.389 640.582 194.587 640.582 194.794C640.582 194.884 640.598 194.973 640.629 195.058L659.14 245.51C659.196 245.652 659.294 245.775 659.42 245.862C659.546 245.949 659.694 245.997 659.848 246Z" fill="white"/>
<path d="M649.562 246H654.775C654.971 246.001 655.16 245.927 655.305 245.795C655.449 245.662 655.538 245.48 655.553 245.284C655.553 245.181 655.537 245.079 655.507 244.981L646.496 220.518C646.441 220.374 646.344 220.25 646.218 220.161C646.092 220.072 645.942 220.023 645.788 220.02H640.544C640.346 220.031 640.16 220.119 640.024 220.263C639.888 220.408 639.812 220.599 639.813 220.798C639.812 220.883 639.828 220.967 639.859 221.047L648.831 245.518C648.89 245.662 648.991 245.786 649.122 245.872C649.252 245.958 649.406 246.002 649.562 246Z" fill="white"/>
<path d="M661.406 195.066L665.615 206.512C665.671 206.656 665.768 206.78 665.894 206.868C666.02 206.957 666.169 207.006 666.324 207.01H671.521C671.728 207.01 671.925 206.928 672.071 206.782C672.217 206.636 672.299 206.438 672.299 206.232C672.299 206.141 672.283 206.052 672.253 205.967L668.043 194.514C667.988 194.37 667.891 194.246 667.765 194.157C667.639 194.068 667.489 194.019 667.335 194.016H662.114C661.908 194.016 661.71 194.098 661.564 194.244C661.418 194.389 661.336 194.587 661.336 194.794C661.343 194.888 661.366 194.98 661.406 195.066Z" fill="white"/>
<path d="M639.937 246H645.15C645.356 246 645.554 245.918 645.7 245.772C645.846 245.626 645.928 245.428 645.928 245.222C645.928 245.132 645.912 245.042 645.881 244.957L641.649 233.48C641.593 233.335 641.495 233.21 641.367 233.122C641.239 233.033 641.088 232.984 640.933 232.982H635.727C635.521 232.982 635.323 233.064 635.177 233.21C635.031 233.356 634.949 233.554 634.949 233.761C634.95 233.853 634.965 233.945 634.996 234.033L639.205 245.51C639.264 245.656 639.365 245.781 639.495 245.868C639.626 245.956 639.78 246.002 639.937 246Z" fill="white"/>
<g filter="url(#filter7_d_4024_133105)">
<path d="M857.24 189.849L865.563 181.525C866.22 180.869 867.11 180.5 868.038 180.5H931.715C933.648 180.5 935.215 182.067 935.215 184V256C935.215 257.933 933.648 259.5 931.715 259.5H859.715C857.782 259.5 856.215 257.933 856.215 256V192.324C856.215 191.395 856.584 190.505 857.24 189.849Z" fill="#C9E4EA" stroke="#C1C1C1"/>
</g>
<path d="M910.75 237.299C910.75 240.506 904.307 243.107 896.358 243.107C888.408 243.107 881.965 240.508 881.965 237.299V218.648C881.965 221.855 888.408 224.456 896.358 224.456C904.307 224.456 910.75 221.857 910.75 218.648V237.299Z" fill="white"/>
<path d="M869.961 221.137L896.035 196.891L921.961 220.959" stroke="#222222" stroke-miterlimit="10" stroke-linecap="round" stroke-linejoin="round"/>
<path d="M874.922 216.461V239.712" stroke="#222222" stroke-miterlimit="10" stroke-linecap="round" stroke-linejoin="round"/>
<path d="M917.219 216.496V239.711" stroke="#222222" stroke-miterlimit="10" stroke-linecap="round" stroke-linejoin="round"/>
<path d="M896.361 224.335C904.31 224.335 910.754 221.733 910.754 218.523C910.754 215.313 904.31 212.711 896.361 212.711C888.413 212.711 881.969 215.313 881.969 218.523C881.969 221.733 888.413 224.335 896.361 224.335Z" fill="#306BEA" stroke="#222222" stroke-miterlimit="10" stroke-linejoin="round"/>
<path d="M910.75 224.779C910.75 227.988 904.307 230.591 896.358 230.591C888.408 230.591 881.965 227.988 881.965 224.779" stroke="#222222" stroke-miterlimit="10" stroke-linejoin="round"/>
<path d="M910.75 237.301C910.75 240.507 904.307 243.108 896.358 243.108C888.408 243.108 881.965 240.509 881.965 237.301V230.936C881.965 234.142 888.408 236.743 896.358 236.743C904.307 236.743 910.75 234.145 910.75 230.936V237.301Z" stroke="#222222" stroke-miterlimit="10" stroke-linejoin="round"/>
<path d="M882.016 237.294V218.523" stroke="#222222" stroke-miterlimit="10" stroke-linejoin="round"/>
<path d="M910.707 237.294V218.523" stroke="#222222" stroke-miterlimit="10" stroke-linejoin="round"/>
<path d="M854.662 170.176V162.876H856.552C857.026 162.876 857.432 162.966 857.772 163.146C858.119 163.326 858.386 163.579 858.572 163.906C858.766 164.232 858.862 164.619 858.862 165.066V167.976C858.862 168.422 858.766 168.812 858.572 169.146C858.386 169.472 858.119 169.726 857.772 169.906C857.432 170.086 857.026 170.176 856.552 170.176H854.662ZM855.562 169.376H856.552C856.992 169.376 857.336 169.252 857.582 169.006C857.836 168.759 857.962 168.416 857.962 167.976V165.066C857.962 164.632 857.836 164.292 857.582 164.046C857.336 163.799 856.992 163.676 856.552 163.676H855.562V169.376ZM862.258 170.276C861.678 170.276 861.222 170.129 860.888 169.836C860.555 169.536 860.388 169.132 860.388 168.626C860.388 168.112 860.555 167.709 860.888 167.416C861.222 167.122 861.672 166.976 862.238 166.976H863.938V166.426C863.938 166.086 863.835 165.826 863.628 165.646C863.428 165.459 863.142 165.366 862.768 165.366C862.442 165.366 862.168 165.436 861.948 165.576C861.728 165.709 861.602 165.892 861.568 166.126H860.668C860.728 165.652 860.952 165.276 861.338 164.996C861.725 164.716 862.208 164.576 862.788 164.576C863.422 164.576 863.922 164.739 864.288 165.066C864.655 165.392 864.838 165.836 864.838 166.396V170.176H863.958V169.126H863.808L863.958 168.976C863.958 169.376 863.802 169.692 863.488 169.926C863.182 170.159 862.772 170.276 862.258 170.276ZM862.478 169.566C862.905 169.566 863.255 169.459 863.528 169.246C863.802 169.032 863.938 168.759 863.938 168.426V167.646H862.258C861.958 167.646 861.722 167.729 861.548 167.896C861.375 168.062 861.288 168.289 861.288 168.576C861.288 168.882 861.392 169.126 861.598 169.306C861.812 169.479 862.105 169.566 862.478 169.566ZM869.334 170.176C868.861 170.176 868.491 170.049 868.224 169.796C867.964 169.542 867.834 169.186 867.834 168.726V165.496H866.284V164.676H867.834V163.126H868.734V164.676H870.934V165.496H868.734V168.726C868.734 169.146 868.934 169.356 869.334 169.356H870.834V170.176H869.334ZM874.25 170.276C873.67 170.276 873.214 170.129 872.88 169.836C872.547 169.536 872.38 169.132 872.38 168.626C872.38 168.112 872.547 167.709 872.88 167.416C873.214 167.122 873.664 166.976 874.23 166.976H875.93V166.426C875.93 166.086 875.827 165.826 875.62 165.646C875.42 165.459 875.134 165.366 874.76 165.366C874.434 165.366 874.16 165.436 873.94 165.576C873.72 165.709 873.594 165.892 873.56 166.126H872.66C872.72 165.652 872.944 165.276 873.33 164.996C873.717 164.716 874.2 164.576 874.78 164.576C875.414 164.576 875.914 164.739 876.28 165.066C876.647 165.392 876.83 165.836 876.83 166.396V170.176H875.95V169.126H875.8L875.95 168.976C875.95 169.376 875.794 169.692 875.48 169.926C875.174 170.159 874.764 170.276 874.25 170.276ZM874.47 169.566C874.897 169.566 875.247 169.459 875.52 169.246C875.794 169.032 875.93 168.759 875.93 168.426V167.646H874.25C873.95 167.646 873.714 167.729 873.54 167.896C873.367 168.062 873.28 168.289 873.28 168.576C873.28 168.882 873.384 169.126 873.59 169.306C873.804 169.479 874.097 169.566 874.47 169.566ZM884.953 170.176L884.073 164.676H884.873L885.423 168.576C885.443 168.722 885.463 168.882 885.483 169.056C885.509 169.222 885.529 169.362 885.543 169.476C885.556 169.362 885.576 169.222 885.603 169.056C885.636 168.882 885.663 168.722 885.683 168.576L886.293 164.676H887.153L887.763 168.576C887.783 168.722 887.806 168.882 887.833 169.056C887.866 169.222 887.889 169.362 887.903 169.476C887.916 169.362 887.936 169.222 887.963 169.056C887.996 168.882 888.023 168.722 888.043 168.576L888.613 164.676H889.373L888.453 170.176H887.463L886.873 166.376C886.846 166.189 886.816 166.002 886.783 165.816C886.749 165.629 886.726 165.482 886.713 165.376C886.699 165.482 886.679 165.629 886.653 165.816C886.626 166.002 886.596 166.189 886.563 166.376L885.943 170.176H884.953ZM892.239 170.276C891.659 170.276 891.202 170.129 890.869 169.836C890.535 169.536 890.369 169.132 890.369 168.626C890.369 168.112 890.535 167.709 890.869 167.416C891.202 167.122 891.652 166.976 892.219 166.976H893.919V166.426C893.919 166.086 893.815 165.826 893.609 165.646C893.409 165.459 893.122 165.366 892.749 165.366C892.422 165.366 892.149 165.436 891.929 165.576C891.709 165.709 891.582 165.892 891.549 166.126H890.649C890.709 165.652 890.932 165.276 891.319 164.996C891.705 164.716 892.189 164.576 892.769 164.576C893.402 164.576 893.902 164.739 894.269 165.066C894.635 165.392 894.819 165.836 894.819 166.396V170.176H893.939V169.126H893.789L893.939 168.976C893.939 169.376 893.782 169.692 893.469 169.926C893.162 170.159 892.752 170.276 892.239 170.276ZM892.459 169.566C892.885 169.566 893.235 169.459 893.509 169.246C893.782 169.032 893.919 168.759 893.919 168.426V167.646H892.239C891.939 167.646 891.702 167.729 891.529 167.896C891.355 168.062 891.269 168.289 891.269 168.576C891.269 168.882 891.372 169.126 891.579 169.306C891.792 169.479 892.085 169.566 892.459 169.566ZM896.825 170.176V164.676H897.705V165.726H897.915L897.625 166.376C897.625 165.782 897.752 165.336 898.005 165.036C898.265 164.729 898.648 164.576 899.155 164.576C899.735 164.576 900.195 164.759 900.535 165.126C900.882 165.486 901.055 165.976 901.055 166.596V166.926H900.155V166.676C900.155 166.242 900.048 165.912 899.835 165.686C899.628 165.452 899.332 165.336 898.945 165.336C898.565 165.336 898.265 165.452 898.045 165.686C897.832 165.919 897.725 166.249 897.725 166.676V170.176H896.825ZM904.711 170.276C904.278 170.276 903.898 170.189 903.571 170.016C903.251 169.842 903.001 169.599 902.821 169.286C902.648 168.966 902.561 168.596 902.561 168.176V166.676C902.561 166.249 902.648 165.879 902.821 165.566C903.001 165.252 903.251 165.009 903.571 164.836C903.898 164.662 904.278 164.576 904.711 164.576C905.144 164.576 905.521 164.662 905.841 164.836C906.168 165.009 906.418 165.252 906.591 165.566C906.771 165.879 906.861 166.249 906.861 166.676V167.646H903.441V168.176C903.441 168.609 903.551 168.942 903.771 169.176C903.991 169.402 904.304 169.516 904.711 169.516C905.058 169.516 905.338 169.456 905.551 169.336C905.764 169.209 905.894 169.022 905.941 168.776H906.841C906.781 169.236 906.554 169.602 906.161 169.876C905.774 170.142 905.291 170.276 904.711 170.276ZM905.981 167.046V166.676C905.981 166.242 905.871 165.909 905.651 165.676C905.438 165.442 905.124 165.326 904.711 165.326C904.304 165.326 903.991 165.442 903.771 165.676C903.551 165.909 903.441 166.242 903.441 166.676V166.966H906.051L905.981 167.046ZM908.627 170.176V162.876H909.527V164.676V165.726H909.717L909.527 165.936C909.527 165.502 909.657 165.169 909.917 164.936C910.177 164.696 910.537 164.576 910.997 164.576C911.55 164.576 911.99 164.746 912.317 165.086C912.644 165.426 912.807 165.889 912.807 166.476V170.176H911.907V166.576C911.907 166.182 911.8 165.879 911.587 165.666C911.38 165.446 911.097 165.336 910.737 165.336C910.364 165.336 910.067 165.452 909.847 165.686C909.634 165.919 909.527 166.249 909.527 166.676V170.176H908.627ZM916.703 170.256C916.263 170.256 915.883 170.172 915.563 170.006C915.243 169.839 914.993 169.599 914.813 169.286C914.64 168.966 914.553 168.589 914.553 168.156V166.696C914.553 166.256 914.64 165.879 914.813 165.566C914.993 165.252 915.243 165.012 915.563 164.846C915.883 164.679 916.263 164.596 916.703 164.596C917.143 164.596 917.523 164.679 917.843 164.846C918.163 165.012 918.41 165.252 918.583 165.566C918.763 165.879 918.853 166.252 918.853 166.686V168.156C918.853 168.589 918.763 168.966 918.583 169.286C918.41 169.599 918.163 169.839 917.843 170.006C917.523 170.172 917.143 170.256 916.703 170.256ZM916.703 169.456C917.096 169.456 917.403 169.346 917.623 169.126C917.843 168.906 917.953 168.582 917.953 168.156V166.696C917.953 166.269 917.843 165.946 917.623 165.726C917.403 165.506 917.096 165.396 916.703 165.396C916.316 165.396 916.01 165.506 915.783 165.726C915.563 165.946 915.453 166.269 915.453 166.696V168.156C915.453 168.582 915.563 168.906 915.783 169.126C916.01 169.346 916.316 169.456 916.703 169.456ZM922.689 170.276C922.056 170.276 921.549 170.089 921.169 169.716C920.789 169.336 920.599 168.822 920.599 168.176V164.676H921.499V168.176C921.499 168.589 921.606 168.912 921.819 169.146C922.033 169.372 922.323 169.486 922.689 169.486C923.063 169.486 923.356 169.372 923.569 169.146C923.789 168.912 923.899 168.589 923.899 168.176V164.676H924.799V168.176C924.799 168.822 924.606 169.336 924.219 169.716C923.833 170.089 923.323 170.276 922.689 170.276ZM928.525 170.256C928.152 170.256 927.825 170.199 927.545 170.086C927.272 169.966 927.052 169.799 926.885 169.586C926.725 169.372 926.629 169.119 926.595 168.826H927.495C927.535 169.019 927.642 169.172 927.815 169.286C927.995 169.399 928.232 169.456 928.525 169.456H928.945C929.299 169.456 929.562 169.386 929.735 169.246C929.909 169.099 929.995 168.906 929.995 168.666C929.995 168.432 929.915 168.249 929.755 168.116C929.602 167.976 929.372 167.882 929.065 167.836L928.325 167.716C927.785 167.622 927.382 167.456 927.115 167.216C926.855 166.969 926.725 166.612 926.725 166.146C926.725 165.652 926.882 165.272 927.195 165.006C927.509 164.732 927.979 164.596 928.605 164.596H928.985C929.512 164.596 929.935 164.719 930.255 164.966C930.575 165.212 930.769 165.546 930.835 165.966H929.935C929.895 165.792 929.795 165.656 929.635 165.556C929.475 165.449 929.259 165.396 928.985 165.396H928.605C928.265 165.396 928.015 165.459 927.855 165.586C927.702 165.712 927.625 165.902 927.625 166.156C927.625 166.382 927.692 166.549 927.825 166.656C927.959 166.762 928.169 166.839 928.455 166.886L929.195 167.006C929.789 167.099 930.219 167.272 930.485 167.526C930.759 167.779 930.895 168.146 930.895 168.626C930.895 169.132 930.732 169.532 930.405 169.826C930.085 170.112 929.599 170.256 928.945 170.256H928.525ZM934.691 170.276C934.258 170.276 933.878 170.189 933.551 170.016C933.231 169.842 932.981 169.599 932.801 169.286C932.628 168.966 932.541 168.596 932.541 168.176V166.676C932.541 166.249 932.628 165.879 932.801 165.566C932.981 165.252 933.231 165.009 933.551 164.836C933.878 164.662 934.258 164.576 934.691 164.576C935.125 164.576 935.501 164.662 935.821 164.836C936.148 165.009 936.398 165.252 936.571 165.566C936.751 165.879 936.841 166.249 936.841 166.676V167.646H933.421V168.176C933.421 168.609 933.531 168.942 933.751 169.176C933.971 169.402 934.285 169.516 934.691 169.516C935.038 169.516 935.318 169.456 935.531 169.336C935.745 169.209 935.875 169.022 935.921 168.776H936.821C936.761 169.236 936.535 169.602 936.141 169.876C935.755 170.142 935.271 170.276 934.691 170.276ZM935.961 167.046V166.676C935.961 166.242 935.851 165.909 935.631 165.676C935.418 165.442 935.105 165.326 934.691 165.326C934.285 165.326 933.971 165.442 933.751 165.676C933.531 165.909 933.421 166.242 933.421 166.676V166.966H936.031L935.961 167.046Z" fill="black"/>
<g filter="url(#filter8_d_4024_133105)">
<path d="M857.24 351.821L865.563 343.498C866.22 342.841 867.11 342.473 868.038 342.473H931.715C933.648 342.473 935.215 344.04 935.215 345.973V417.973C935.215 419.906 933.648 421.473 931.715 421.473H859.715C857.782 421.473 856.215 419.906 856.215 417.973V354.296C856.215 353.368 856.584 352.478 857.24 351.821Z" fill="#C9E4EA" stroke="#C1C1C1"/>
</g>
<path d="M873.402 402.635V362.715C873.402 358.756 876.613 355.545 880.573 355.545H883.648V397.338" fill="#306BEA"/>
<path d="M873.402 402.635V362.715C873.402 358.756 876.613 355.545 880.573 355.545H883.648V397.338" stroke="#222222" stroke-linecap="round" stroke-linejoin="round"/>
<path d="M916.888 397.338H878.638C877.194 397.338 875.885 397.912 874.937 398.834C873.989 399.756 873.402 401.036 873.402 402.441C873.402 405.259 875.746 407.545 878.638 407.545H918.023" fill="white"/>
<path d="M916.888 397.338H878.638C877.194 397.338 875.885 397.912 874.937 398.834C873.989 399.756 873.402 401.036 873.402 402.441C873.402 405.259 875.746 407.545 878.638 407.545H918.023" stroke="#222222" stroke-linecap="round" stroke-linejoin="round"/>
<path d="M883.648 355.545H916.643C917.407 355.545 918.026 356.164 918.026 356.928V395.89C918.026 396.69 917.378 397.334 916.582 397.334H883.648V355.545Z" fill="white" stroke="#222222" stroke-linecap="round" stroke-linejoin="round"/>
<path d="M890.859 369.459H910.187" stroke="#222222" stroke-linecap="round" stroke-linejoin="round"/>
<path d="M890.859 376.43H910.187" stroke="#222222" stroke-linecap="round" stroke-linejoin="round"/>
<path d="M890.859 372.945H910.187" stroke="#222222" stroke-linecap="round" stroke-linejoin="round"/>
<path d="M916.924 407.11C915.931 402.725 916.492 399.334 916.876 397.338L916.924 407.11Z" fill="white"/>
<path d="M916.924 407.11C915.931 402.725 916.492 399.334 916.876 397.338" stroke="#222222" stroke-linecap="round" stroke-linejoin="round"/>
<path d="M860.658 439.973V432.673H862.548C863.022 432.673 863.428 432.763 863.768 432.943C864.115 433.123 864.382 433.376 864.568 433.703C864.762 434.029 864.858 434.416 864.858 434.863V437.773C864.858 438.219 864.762 438.609 864.568 438.943C864.382 439.269 864.115 439.523 863.768 439.703C863.428 439.883 863.022 439.973 862.548 439.973H860.658ZM861.558 439.173H862.548C862.988 439.173 863.332 439.049 863.578 438.803C863.832 438.556 863.958 438.213 863.958 437.773V434.863C863.958 434.429 863.832 434.089 863.578 433.843C863.332 433.596 862.988 433.473 862.548 433.473H861.558V439.173ZM868.254 440.073C867.674 440.073 867.218 439.926 866.884 439.633C866.551 439.333 866.384 438.929 866.384 438.423C866.384 437.909 866.551 437.506 866.884 437.213C867.218 436.919 867.668 436.773 868.234 436.773H869.934V436.223C869.934 435.883 869.831 435.623 869.624 435.443C869.424 435.256 869.138 435.163 868.764 435.163C868.438 435.163 868.164 435.233 867.944 435.373C867.724 435.506 867.598 435.689 867.564 435.923H866.664C866.724 435.449 866.948 435.073 867.334 434.793C867.721 434.513 868.204 434.373 868.784 434.373C869.418 434.373 869.918 434.536 870.284 434.863C870.651 435.189 870.834 435.633 870.834 436.193V439.973H869.954V438.923H869.804L869.954 438.773C869.954 439.173 869.798 439.489 869.484 439.723C869.178 439.956 868.768 440.073 868.254 440.073ZM868.474 439.363C868.901 439.363 869.251 439.256 869.524 439.043C869.798 438.829 869.934 438.556 869.934 438.223V437.443H868.254C867.954 437.443 867.718 437.526 867.544 437.693C867.371 437.859 867.284 438.086 867.284 438.373C867.284 438.679 867.388 438.923 867.594 439.103C867.808 439.276 868.101 439.363 868.474 439.363ZM875.33 439.973C874.857 439.973 874.487 439.846 874.22 439.593C873.96 439.339 873.83 438.983 873.83 438.523V435.293H872.28V434.473H873.83V432.923H874.73V434.473H876.93V435.293H874.73V438.523C874.73 438.943 874.93 439.153 875.33 439.153H876.83V439.973H875.33ZM880.247 440.073C879.667 440.073 879.21 439.926 878.877 439.633C878.543 439.333 878.377 438.929 878.377 438.423C878.377 437.909 878.543 437.506 878.877 437.213C879.21 436.919 879.66 436.773 880.227 436.773H881.927V436.223C881.927 435.883 881.823 435.623 881.617 435.443C881.417 435.256 881.13 435.163 880.757 435.163C880.43 435.163 880.157 435.233 879.937 435.373C879.717 435.506 879.59 435.689 879.557 435.923H878.657C878.717 435.449 878.94 435.073 879.327 434.793C879.713 434.513 880.197 434.373 880.777 434.373C881.41 434.373 881.91 434.536 882.277 434.863C882.643 435.189 882.827 435.633 882.827 436.193V439.973H881.947V438.923H881.797L881.947 438.773C881.947 439.173 881.79 439.489 881.477 439.723C881.17 439.956 880.76 440.073 880.247 440.073ZM880.467 439.363C880.893 439.363 881.243 439.256 881.517 439.043C881.79 438.829 881.927 438.556 881.927 438.223V437.443H880.247C879.947 437.443 879.71 437.526 879.537 437.693C879.363 437.859 879.277 438.086 879.277 438.373C879.277 438.679 879.38 438.923 879.587 439.103C879.8 439.276 880.093 439.363 880.467 439.363ZM892.759 440.073C892.319 440.073 891.932 439.989 891.599 439.823C891.272 439.656 891.019 439.416 890.839 439.103C890.659 438.783 890.569 438.406 890.569 437.973V436.473C890.569 436.033 890.659 435.656 890.839 435.343C891.019 435.029 891.272 434.789 891.599 434.623C891.932 434.456 892.319 434.373 892.759 434.373C893.392 434.373 893.902 434.543 894.289 434.883C894.675 435.223 894.879 435.686 894.899 436.273H893.999C893.979 435.919 893.859 435.649 893.639 435.463C893.425 435.269 893.132 435.173 892.759 435.173C892.365 435.173 892.052 435.286 891.819 435.513C891.585 435.733 891.469 436.049 891.469 436.463V437.973C891.469 438.386 891.585 438.706 891.819 438.933C892.052 439.159 892.365 439.273 892.759 439.273C893.132 439.273 893.425 439.176 893.639 438.983C893.859 438.789 893.979 438.519 893.999 438.173H894.899C894.879 438.759 894.675 439.223 894.289 439.563C893.902 439.903 893.392 440.073 892.759 440.073ZM898.235 440.073C897.655 440.073 897.198 439.926 896.865 439.633C896.532 439.333 896.365 438.929 896.365 438.423C896.365 437.909 896.532 437.506 896.865 437.213C897.198 436.919 897.648 436.773 898.215 436.773H899.915V436.223C899.915 435.883 899.812 435.623 899.605 435.443C899.405 435.256 899.118 435.163 898.745 435.163C898.418 435.163 898.145 435.233 897.925 435.373C897.705 435.506 897.578 435.689 897.545 435.923H896.645C896.705 435.449 896.928 435.073 897.315 434.793C897.702 434.513 898.185 434.373 898.765 434.373C899.398 434.373 899.898 434.536 900.265 434.863C900.632 435.189 900.815 435.633 900.815 436.193V439.973H899.935V438.923H899.785L899.935 438.773C899.935 439.173 899.778 439.489 899.465 439.723C899.158 439.956 898.748 440.073 898.235 440.073ZM898.455 439.363C898.882 439.363 899.232 439.256 899.505 439.043C899.778 438.829 899.915 438.556 899.915 438.223V437.443H898.235C897.935 437.443 897.698 437.526 897.525 437.693C897.352 437.859 897.265 438.086 897.265 438.373C897.265 438.679 897.368 438.923 897.575 439.103C897.788 439.276 898.082 439.363 898.455 439.363ZM905.311 439.973C904.838 439.973 904.468 439.846 904.201 439.593C903.941 439.339 903.811 438.983 903.811 438.523V435.293H902.261V434.473H903.811V432.923H904.711V434.473H906.911V435.293H904.711V438.523C904.711 438.943 904.911 439.153 905.311 439.153H906.811V439.973H905.311ZM910.227 440.073C909.647 440.073 909.19 439.926 908.857 439.633C908.524 439.333 908.357 438.929 908.357 438.423C908.357 437.909 908.524 437.506 908.857 437.213C909.19 436.919 909.64 436.773 910.207 436.773H911.907V436.223C911.907 435.883 911.804 435.623 911.597 435.443C911.397 435.256 911.11 435.163 910.737 435.163C910.41 435.163 910.137 435.233 909.917 435.373C909.697 435.506 909.57 435.689 909.537 435.923H908.637C908.697 435.449 908.92 435.073 909.307 434.793C909.694 434.513 910.177 434.373 910.757 434.373C911.39 434.373 911.89 434.536 912.257 434.863C912.624 435.189 912.807 435.633 912.807 436.193V439.973H911.927V438.923H911.777L911.927 438.773C911.927 439.173 911.77 439.489 911.457 439.723C911.15 439.956 910.74 440.073 910.227 440.073ZM910.447 439.363C910.874 439.363 911.224 439.256 911.497 439.043C911.77 438.829 911.907 438.556 911.907 438.223V437.443H910.227C909.927 437.443 909.69 437.526 909.517 437.693C909.344 437.859 909.257 438.086 909.257 438.373C909.257 438.679 909.36 438.923 909.567 439.103C909.78 439.276 910.074 439.363 910.447 439.363ZM917.453 439.973C917.133 439.973 916.853 439.909 916.613 439.783C916.373 439.656 916.186 439.476 916.053 439.243C915.92 439.009 915.853 438.736 915.853 438.423V433.493H914.003V432.673H916.753V438.423C916.753 438.649 916.816 438.829 916.943 438.963C917.07 439.089 917.24 439.153 917.453 439.153H919.203V439.973H917.453ZM922.699 440.053C922.259 440.053 921.879 439.969 921.559 439.803C921.239 439.636 920.989 439.396 920.809 439.083C920.636 438.763 920.549 438.386 920.549 437.953V436.493C920.549 436.053 920.636 435.676 920.809 435.363C920.989 435.049 921.239 434.809 921.559 434.643C921.879 434.476 922.259 434.393 922.699 434.393C923.139 434.393 923.519 434.476 923.839 434.643C924.159 434.809 924.406 435.049 924.579 435.363C924.759 435.676 924.849 436.049 924.849 436.483V437.953C924.849 438.386 924.759 438.763 924.579 439.083C924.406 439.396 924.159 439.636 923.839 439.803C923.519 439.969 923.139 440.053 922.699 440.053ZM922.699 439.253C923.093 439.253 923.399 439.143 923.619 438.923C923.839 438.703 923.949 438.379 923.949 437.953V436.493C923.949 436.066 923.839 435.743 923.619 435.523C923.399 435.303 923.093 435.193 922.699 435.193C922.313 435.193 922.006 435.303 921.779 435.523C921.559 435.743 921.449 436.066 921.449 436.493V437.953C921.449 438.379 921.559 438.703 921.779 438.923C922.006 439.143 922.313 439.253 922.699 439.253ZM927.305 441.773V440.953H929.055C929.335 440.953 929.539 440.889 929.665 440.763C929.799 440.636 929.865 440.439 929.865 440.173V439.473L929.885 438.473H929.705L929.875 438.323C929.875 438.723 929.742 439.039 929.475 439.273C929.209 439.506 928.852 439.623 928.405 439.623C927.839 439.623 927.392 439.439 927.065 439.073C926.739 438.699 926.575 438.199 926.575 437.573V436.413C926.575 435.786 926.739 435.289 927.065 434.923C927.392 434.556 927.839 434.373 928.405 434.373C928.852 434.373 929.209 434.489 929.475 434.723C929.742 434.956 929.875 435.273 929.875 435.673L929.705 435.523H929.875V434.473H930.765V440.173C930.765 440.666 930.612 441.056 930.305 441.343C930.005 441.629 929.585 441.773 929.045 441.773H927.305ZM928.675 438.843C929.049 438.843 929.342 438.726 929.555 438.493C929.769 438.259 929.875 437.936 929.875 437.523V436.473C929.875 436.059 929.769 435.736 929.555 435.503C929.342 435.269 929.049 435.153 928.675 435.153C928.295 435.153 927.999 435.266 927.785 435.493C927.579 435.719 927.475 436.046 927.475 436.473V437.523C927.475 437.949 927.579 438.276 927.785 438.503C927.999 438.729 928.295 438.843 928.675 438.843Z" fill="black"/>
<path d="M1150.93 189.534L1159.25 181.211C1159.91 180.554 1160.8 180.186 1161.73 180.186H1225.41C1227.34 180.186 1228.91 181.753 1228.91 183.686V255.686C1228.91 257.619 1227.34 259.186 1225.41 259.186H1153.41C1151.47 259.186 1149.91 257.619 1149.91 255.686V192.009C1149.91 191.081 1150.27 190.191 1150.93 189.534Z" fill="#C9E4EA" stroke="#C1C1C1"/>
<path d="M1214.17 193.686H1164.64C1163.96 193.686 1163.41 194.239 1163.41 194.922V244.449C1163.41 245.132 1163.96 245.686 1164.64 245.686H1214.17C1214.85 245.686 1215.41 245.132 1215.41 244.449V194.922C1215.41 194.239 1214.85 193.686 1214.17 193.686Z" fill="white" stroke="#222222" stroke-linejoin="round"/>
<path d="M1163.41 194.922C1163.41 194.239 1163.96 193.686 1164.64 193.686H1214.17C1214.85 193.686 1215.4 194.239 1215.4 194.922V198.638H1163.41V194.922Z" fill="white" stroke="#222222" stroke-linejoin="round"/>
<path d="M1192.56 222.402H1186.67V237.133H1192.56V222.402Z" fill="#306BEA" stroke="#222222" stroke-linejoin="round"/>
<path d="M1183.72 231.24H1177.83V237.132H1183.72V231.24Z" fill="#306BEA" stroke="#222222" stroke-linejoin="round"/>
<path d="M1201.4 213.564H1195.51V237.133H1201.4V213.564Z" fill="#306BEA" stroke="#222222" stroke-linejoin="round"/>
<path d="M1187.15 206.326H1192.56V211.665" stroke="#222222" stroke-linecap="round" stroke-linejoin="round"/>
<path d="M1173.37 225.518L1192.56 206.326" stroke="#222222" stroke-linecap="round" stroke-linejoin="round"/>
<path d="M1184.34 170.176V162.876H1186.41C1187.08 162.876 1187.6 163.042 1187.97 163.376C1188.35 163.709 1188.54 164.172 1188.54 164.766C1188.54 165.099 1188.47 165.389 1188.33 165.636C1188.19 165.882 1187.99 166.072 1187.73 166.206C1187.48 166.339 1187.17 166.402 1186.81 166.396V166.246C1187.2 166.239 1187.53 166.312 1187.81 166.466C1188.1 166.619 1188.32 166.839 1188.47 167.126C1188.63 167.412 1188.71 167.752 1188.71 168.146C1188.71 168.559 1188.62 168.919 1188.45 169.226C1188.28 169.532 1188.03 169.769 1187.71 169.936C1187.39 170.096 1187.01 170.176 1186.56 170.176H1184.34ZM1185.22 169.366H1186.46C1186.88 169.366 1187.21 169.256 1187.45 169.036C1187.7 168.809 1187.82 168.502 1187.82 168.116C1187.82 167.716 1187.7 167.392 1187.45 167.146C1187.21 166.892 1186.88 166.766 1186.46 166.766H1185.22V169.366ZM1185.22 165.986H1186.4C1186.79 165.986 1187.09 165.882 1187.31 165.676C1187.54 165.469 1187.65 165.189 1187.65 164.836C1187.65 164.482 1187.54 164.202 1187.32 163.996C1187.1 163.789 1186.8 163.686 1186.41 163.686H1185.22V165.986ZM1190.46 170.176V169.356H1191.95V163.696H1190.46V162.876H1194.36V163.696H1192.87V169.356H1194.36V170.176H1190.46Z" fill="black"/>
<path d="M344.426 30.5664V21.8064H346.694C347.262 21.8064 347.75 21.9144 348.158 22.1304C348.574 22.3464 348.894 22.6504 349.118 23.0424C349.35 23.4344 349.466 23.8984 349.466 24.4344V27.9264C349.466 28.4624 349.35 28.9304 349.118 29.3304C348.894 29.7224 348.574 30.0264 348.158 30.2424C347.75 30.4584 347.262 30.5664 346.694 30.5664H344.426ZM345.506 29.6064H346.694C347.222 29.6064 347.634 29.4584 347.93 29.1624C348.234 28.8664 348.386 28.4544 348.386 27.9264V24.4344C348.386 23.9144 348.234 23.5064 347.93 23.2104C347.634 22.9144 347.222 22.7664 346.694 22.7664H345.506V29.6064ZM353.541 30.6864C352.845 30.6864 352.297 30.5104 351.897 30.1584C351.497 29.7984 351.297 29.3144 351.297 28.7064C351.297 28.0904 351.497 27.6064 351.897 27.2544C352.297 26.9024 352.837 26.7264 353.517 26.7264H355.557V26.0664C355.557 25.6584 355.433 25.3464 355.185 25.1304C354.945 24.9064 354.601 24.7944 354.153 24.7944C353.761 24.7944 353.433 24.8784 353.169 25.0464C352.905 25.2064 352.753 25.4264 352.713 25.7064H351.633C351.705 25.1384 351.973 24.6864 352.437 24.3504C352.901 24.0144 353.481 23.8464 354.177 23.8464C354.937 23.8464 355.537 24.0424 355.977 24.4344C356.417 24.8264 356.637 25.3584 356.637 26.0304V30.5664H355.581V29.3064H355.401L355.581 29.1264C355.581 29.6064 355.393 29.9864 355.017 30.2664C354.649 30.5464 354.157 30.6864 353.541 30.6864ZM353.805 29.8344C354.317 29.8344 354.737 29.7064 355.065 29.4504C355.393 29.1944 355.557 28.8664 355.557 28.4664V27.5304H353.541C353.181 27.5304 352.897 27.6304 352.689 27.8304C352.481 28.0304 352.377 28.3024 352.377 28.6464C352.377 29.0144 352.501 29.3064 352.749 29.5224C353.005 29.7304 353.357 29.8344 353.805 29.8344ZM362.032 30.5664C361.464 30.5664 361.02 30.4144 360.7 30.1104C360.388 29.8064 360.232 29.3784 360.232 28.8264V24.9504H358.372V23.9664H360.232V22.1064H361.312V23.9664H363.952V24.9504H361.312V28.8264C361.312 29.3304 361.552 29.5824 362.032 29.5824H363.832V30.5664H362.032ZM367.932 30.6864C367.236 30.6864 366.688 30.5104 366.288 30.1584C365.888 29.7984 365.688 29.3144 365.688 28.7064C365.688 28.0904 365.888 27.6064 366.288 27.2544C366.688 26.9024 367.228 26.7264 367.908 26.7264H369.948V26.0664C369.948 25.6584 369.824 25.3464 369.576 25.1304C369.336 24.9064 368.992 24.7944 368.544 24.7944C368.152 24.7944 367.824 24.8784 367.56 25.0464C367.296 25.2064 367.144 25.4264 367.104 25.7064H366.024C366.096 25.1384 366.364 24.6864 366.828 24.3504C367.292 24.0144 367.872 23.8464 368.568 23.8464C369.328 23.8464 369.928 24.0424 370.368 24.4344C370.808 24.8264 371.028 25.3584 371.028 26.0304V30.5664H369.972V29.3064H369.792L369.972 29.1264C369.972 29.6064 369.784 29.9864 369.408 30.2664C369.04 30.5464 368.548 30.6864 367.932 30.6864ZM368.196 29.8344C368.708 29.8344 369.128 29.7064 369.456 29.4504C369.784 29.1944 369.948 28.8664 369.948 28.4664V27.5304H367.932C367.572 27.5304 367.288 27.6304 367.08 27.8304C366.872 28.0304 366.768 28.3024 366.768 28.6464C366.768 29.0144 366.892 29.3064 367.14 29.5224C367.396 29.7304 367.748 29.8344 368.196 29.8344ZM382.946 30.6864C382.418 30.6864 381.954 30.5864 381.554 30.3864C381.162 30.1864 380.858 29.8984 380.642 29.5224C380.426 29.1384 380.318 28.6864 380.318 28.1664V26.3664C380.318 25.8384 380.426 25.3864 380.642 25.0104C380.858 24.6344 381.162 24.3464 381.554 24.1464C381.954 23.9464 382.418 23.8464 382.946 23.8464C383.706 23.8464 384.318 24.0504 384.782 24.4584C385.246 24.8664 385.49 25.4224 385.514 26.1264H384.434C384.41 25.7024 384.266 25.3784 384.002 25.1544C383.746 24.9224 383.394 24.8064 382.946 24.8064C382.474 24.8064 382.098 24.9424 381.818 25.2144C381.538 25.4784 381.398 25.8584 381.398 26.3544V28.1664C381.398 28.6624 381.538 29.0464 381.818 29.3184C382.098 29.5904 382.474 29.7264 382.946 29.7264C383.394 29.7264 383.746 29.6104 384.002 29.3784C384.266 29.1464 384.41 28.8224 384.434 28.4064H385.514C385.49 29.1104 385.246 29.6664 384.782 30.0744C384.318 30.4824 383.706 30.6864 382.946 30.6864ZM390.094 30.6624C389.566 30.6624 389.11 30.5624 388.726 30.3624C388.342 30.1624 388.042 29.8744 387.826 29.4984C387.618 29.1144 387.514 28.6624 387.514 28.1424V26.3904C387.514 25.8624 387.618 25.4104 387.826 25.0344C388.042 24.6584 388.342 24.3704 388.726 24.1704C389.11 23.9704 389.566 23.8704 390.094 23.8704C390.622 23.8704 391.078 23.9704 391.462 24.1704C391.846 24.3704 392.142 24.6584 392.35 25.0344C392.566 25.4104 392.674 25.8584 392.674 26.3784V28.1424C392.674 28.6624 392.566 29.1144 392.35 29.4984C392.142 29.8744 391.846 30.1624 391.462 30.3624C391.078 30.5624 390.622 30.6624 390.094 30.6624ZM390.094 29.7024C390.566 29.7024 390.934 29.5704 391.198 29.3064C391.462 29.0424 391.594 28.6544 391.594 28.1424V26.3904C391.594 25.8784 391.462 25.4904 391.198 25.2264C390.934 24.9624 390.566 24.8304 390.094 24.8304C389.63 24.8304 389.262 24.9624 388.99 25.2264C388.726 25.4904 388.594 25.8784 388.594 26.3904V28.1424C388.594 28.6544 388.726 29.0424 388.99 29.3064C389.262 29.5704 389.63 29.7024 390.094 29.7024ZM394.793 30.5664V23.9664H395.873V25.2264H396.101L395.873 25.4784C395.873 24.9584 396.029 24.5584 396.341 24.2784C396.653 23.9904 397.085 23.8464 397.637 23.8464C398.301 23.8464 398.829 24.0504 399.221 24.4584C399.613 24.8664 399.809 25.4224 399.809 26.1264V30.5664H398.729V26.2464C398.729 25.7744 398.601 25.4144 398.345 25.1664C398.097 24.9104 397.757 24.7824 397.325 24.7824C396.877 24.7824 396.521 24.9184 396.257 25.1904C396.001 25.4624 395.873 25.8544 395.873 26.3664V30.5664H394.793ZM405.204 30.5664C404.636 30.5664 404.192 30.4144 403.872 30.1104C403.56 29.8064 403.404 29.3784 403.404 28.8264V24.9504H401.544V23.9664H403.404V22.1064H404.484V23.9664H407.124V24.9504H404.484V28.8264C404.484 29.3304 404.724 29.5824 405.204 29.5824H407.004V30.5664H405.204ZM409.412 30.5664V23.9664H410.468V25.2264H410.72L410.372 26.0064C410.372 25.2944 410.524 24.7584 410.828 24.3984C411.14 24.0304 411.6 23.8464 412.208 23.8464C412.904 23.8464 413.456 24.0664 413.864 24.5064C414.28 24.9384 414.488 25.5264 414.488 26.2704V26.6664H413.408V26.3664C413.408 25.8464 413.28 25.4504 413.024 25.1784C412.776 24.8984 412.42 24.7584 411.956 24.7584C411.5 24.7584 411.14 24.8984 410.876 25.1784C410.62 25.4584 410.492 25.8544 410.492 26.3664V30.5664H409.412ZM418.875 30.6624C418.347 30.6624 417.891 30.5624 417.507 30.3624C417.123 30.1624 416.823 29.8744 416.607 29.4984C416.399 29.1144 416.295 28.6624 416.295 28.1424V26.3904C416.295 25.8624 416.399 25.4104 416.607 25.0344C416.823 24.6584 417.123 24.3704 417.507 24.1704C417.891 23.9704 418.347 23.8704 418.875 23.8704C419.403 23.8704 419.859 23.9704 420.243 24.1704C420.627 24.3704 420.923 24.6584 421.131 25.0344C421.347 25.4104 421.455 25.8584 421.455 26.3784V28.1424C421.455 28.6624 421.347 29.1144 421.131 29.4984C420.923 29.8744 420.627 30.1624 420.243 30.3624C419.859 30.5624 419.403 30.6624 418.875 30.6624ZM418.875 29.7024C419.347 29.7024 419.715 29.5704 419.979 29.3064C420.243 29.0424 420.375 28.6544 420.375 28.1424V26.3904C420.375 25.8784 420.243 25.4904 419.979 25.2264C419.715 24.9624 419.347 24.8304 418.875 24.8304C418.411 24.8304 418.043 24.9624 417.771 25.2264C417.507 25.4904 417.375 25.8784 417.375 26.3904V28.1424C417.375 28.6544 417.507 29.0424 417.771 29.3064C418.043 29.5704 418.411 29.7024 418.875 29.7024ZM426.97 30.5664C426.586 30.5664 426.25 30.4904 425.962 30.3384C425.674 30.1864 425.45 29.9704 425.29 29.6904C425.13 29.4104 425.05 29.0824 425.05 28.7064V22.7904H422.83V21.8064H426.13V28.7064C426.13 28.9784 426.206 29.1944 426.358 29.3544C426.51 29.5064 426.714 29.5824 426.97 29.5824H429.07V30.5664H426.97Z" fill="black"/>
<path d="M979.25 30.5664V21.8064H981.518C982.086 21.8064 982.574 21.9144 982.982 22.1304C983.398 22.3464 983.718 22.6504 983.942 23.0424C984.174 23.4344 984.29 23.8984 984.29 24.4344V27.9264C984.29 28.4624 984.174 28.9304 983.942 29.3304C983.718 29.7224 983.398 30.0264 982.982 30.2424C982.574 30.4584 982.086 30.5664 981.518 30.5664H979.25ZM980.33 29.6064H981.518C982.046 29.6064 982.458 29.4584 982.754 29.1624C983.058 28.8664 983.21 28.4544 983.21 27.9264V24.4344C983.21 23.9144 983.058 23.5064 982.754 23.2104C982.458 22.9144 982.046 22.7664 981.518 22.7664H980.33V29.6064ZM988.365 30.6864C987.669 30.6864 987.121 30.5104 986.721 30.1584C986.321 29.7984 986.121 29.3144 986.121 28.7064C986.121 28.0904 986.321 27.6064 986.721 27.2544C987.121 26.9024 987.661 26.7264 988.341 26.7264H990.381V26.0664C990.381 25.6584 990.257 25.3464 990.009 25.1304C989.769 24.9064 989.425 24.7944 988.977 24.7944C988.585 24.7944 988.257 24.8784 987.993 25.0464C987.729 25.2064 987.577 25.4264 987.537 25.7064H986.457C986.529 25.1384 986.797 24.6864 987.261 24.3504C987.725 24.0144 988.305 23.8464 989.001 23.8464C989.761 23.8464 990.361 24.0424 990.801 24.4344C991.241 24.8264 991.461 25.3584 991.461 26.0304V30.5664H990.405V29.3064H990.225L990.405 29.1264C990.405 29.6064 990.217 29.9864 989.841 30.2664C989.473 30.5464 988.981 30.6864 988.365 30.6864ZM988.629 29.8344C989.141 29.8344 989.561 29.7064 989.889 29.4504C990.217 29.1944 990.381 28.8664 990.381 28.4664V27.5304H988.365C988.005 27.5304 987.721 27.6304 987.513 27.8304C987.305 28.0304 987.201 28.3024 987.201 28.6464C987.201 29.0144 987.325 29.3064 987.573 29.5224C987.829 29.7304 988.181 29.8344 988.629 29.8344ZM996.857 30.5664C996.289 30.5664 995.845 30.4144 995.525 30.1104C995.213 29.8064 995.057 29.3784 995.057 28.8264V24.9504H993.197V23.9664H995.057V22.1064H996.137V23.9664H998.777V24.9504H996.137V28.8264C996.137 29.3304 996.377 29.5824 996.857 29.5824H998.657V30.5664H996.857ZM1002.76 30.6864C1002.06 30.6864 1001.51 30.5104 1001.11 30.1584C1000.71 29.7984 1000.51 29.3144 1000.51 28.7064C1000.51 28.0904 1000.71 27.6064 1001.11 27.2544C1001.51 26.9024 1002.05 26.7264 1002.73 26.7264H1004.77V26.0664C1004.77 25.6584 1004.65 25.3464 1004.4 25.1304C1004.16 24.9064 1003.82 24.7944 1003.37 24.7944C1002.98 24.7944 1002.65 24.8784 1002.38 25.0464C1002.12 25.2064 1001.97 25.4264 1001.93 25.7064H1000.85C1000.92 25.1384 1001.19 24.6864 1001.65 24.3504C1002.12 24.0144 1002.7 23.8464 1003.39 23.8464C1004.15 23.8464 1004.75 24.0424 1005.19 24.4344C1005.63 24.8264 1005.85 25.3584 1005.85 26.0304V30.5664H1004.8V29.3064H1004.62L1004.8 29.1264C1004.8 29.6064 1004.61 29.9864 1004.23 30.2664C1003.86 30.5464 1003.37 30.6864 1002.76 30.6864ZM1003.02 29.8344C1003.53 29.8344 1003.95 29.7064 1004.28 29.4504C1004.61 29.1944 1004.77 28.8664 1004.77 28.4664V27.5304H1002.76C1002.4 27.5304 1002.11 27.6304 1001.9 27.8304C1001.7 28.0304 1001.59 28.3024 1001.59 28.6464C1001.59 29.0144 1001.72 29.3064 1001.96 29.5224C1002.22 29.7304 1002.57 29.8344 1003.02 29.8344ZM1016.99 30.5664L1014.78 23.9664H1015.89L1017.35 28.4064C1017.44 28.6704 1017.52 28.9264 1017.59 29.1744C1017.66 29.4144 1017.71 29.6024 1017.75 29.7384C1017.79 29.6024 1017.84 29.4144 1017.91 29.1744C1017.99 28.9264 1018.06 28.6704 1018.14 28.4064L1019.57 23.9664H1020.66L1018.45 30.5664H1016.99ZM1022.34 30.5664V29.5824H1024.68V24.9504H1022.64V23.9664H1025.76V29.5824H1027.98V30.5664H1022.34ZM1025.1 22.7784C1024.83 22.7784 1024.63 22.7104 1024.47 22.5744C1024.32 22.4384 1024.25 22.2544 1024.25 22.0224C1024.25 21.7824 1024.32 21.5944 1024.47 21.4584C1024.63 21.3144 1024.83 21.2424 1025.1 21.2424C1025.36 21.2424 1025.57 21.3144 1025.72 21.4584C1025.87 21.5944 1025.95 21.7824 1025.95 22.0224C1025.95 22.2544 1025.87 22.4384 1025.72 22.5744C1025.57 22.7104 1025.36 22.7784 1025.1 22.7784ZM1031.91 30.6624C1031.46 30.6624 1031.07 30.5944 1030.73 30.4584C1030.41 30.3144 1030.14 30.1144 1029.94 29.8584C1029.75 29.6024 1029.63 29.2984 1029.59 28.9464H1030.67C1030.72 29.1784 1030.85 29.3624 1031.06 29.4984C1031.27 29.6344 1031.56 29.7024 1031.91 29.7024H1032.41C1032.84 29.7024 1033.15 29.6184 1033.36 29.4504C1033.57 29.2744 1033.67 29.0424 1033.67 28.7544C1033.67 28.4744 1033.58 28.2544 1033.39 28.0944C1033.2 27.9264 1032.93 27.8144 1032.56 27.7584L1031.67 27.6144C1031.02 27.5024 1030.54 27.3024 1030.22 27.0144C1029.91 26.7184 1029.75 26.2904 1029.75 25.7304C1029.75 25.1384 1029.94 24.6824 1030.31 24.3624C1030.69 24.0344 1031.25 23.8704 1032.01 23.8704H1032.46C1033.09 23.8704 1033.6 24.0184 1033.99 24.3144C1034.37 24.6104 1034.6 25.0104 1034.68 25.5144H1033.6C1033.55 25.3064 1033.43 25.1424 1033.24 25.0224C1033.05 24.8944 1032.79 24.8304 1032.46 24.8304H1032.01C1031.6 24.8304 1031.3 24.9064 1031.11 25.0584C1030.92 25.2104 1030.83 25.4384 1030.83 25.7424C1030.83 26.0144 1030.91 26.2144 1031.07 26.3424C1031.23 26.4704 1031.48 26.5624 1031.83 26.6184L1032.71 26.7624C1033.43 26.8744 1033.94 27.0824 1034.26 27.3864C1034.59 27.6904 1034.75 28.1304 1034.75 28.7064C1034.75 29.3144 1034.56 29.7944 1034.17 30.1464C1033.78 30.4904 1033.2 30.6624 1032.41 30.6624H1031.91ZM1036.73 30.5664V29.5824H1039.07V24.9504H1037.03V23.9664H1040.15V29.5824H1042.37V30.5664H1036.73ZM1039.49 22.7784C1039.22 22.7784 1039.02 22.7104 1038.86 22.5744C1038.71 22.4384 1038.64 22.2544 1038.64 22.0224C1038.64 21.7824 1038.71 21.5944 1038.86 21.4584C1039.02 21.3144 1039.22 21.2424 1039.49 21.2424C1039.75 21.2424 1039.96 21.3144 1040.11 21.4584C1040.26 21.5944 1040.34 21.7824 1040.34 22.0224C1040.34 22.2544 1040.26 22.4384 1040.11 22.5744C1039.96 22.7104 1039.75 22.7784 1039.49 22.7784ZM1046.89 30.6864C1046.34 30.6864 1045.91 30.5424 1045.58 30.2544C1045.25 29.9584 1045.09 29.5584 1045.09 29.0544L1045.3 29.3064H1045.09V30.5664H1044.01V21.8064H1045.09V23.7264L1045.06 25.2264H1045.3L1045.09 25.4784C1045.09 24.9824 1045.25 24.5864 1045.58 24.2904C1045.92 23.9944 1046.35 23.8464 1046.89 23.8464C1047.55 23.8464 1048.08 24.0664 1048.48 24.5064C1048.88 24.9464 1049.08 25.5464 1049.08 26.3064V28.2384C1049.08 28.9904 1048.88 29.5864 1048.48 30.0264C1048.08 30.4664 1047.55 30.6864 1046.89 30.6864ZM1046.53 29.7504C1046.98 29.7504 1047.34 29.6144 1047.61 29.3424C1047.87 29.0704 1048 28.6784 1048 28.1664V26.3664C1048 25.8544 1047.87 25.4624 1047.61 25.1904C1047.34 24.9184 1046.98 24.7824 1046.53 24.7824C1046.09 24.7824 1045.74 24.9224 1045.47 25.2024C1045.22 25.4824 1045.09 25.8704 1045.09 26.3664V28.1664C1045.09 28.6624 1045.22 29.0504 1045.47 29.3304C1045.74 29.6104 1046.09 29.7504 1046.53 29.7504ZM1051.12 30.5664V29.5824H1053.46V24.9504H1051.42V23.9664H1054.54V29.5824H1056.76V30.5664H1051.12ZM1053.88 22.7784C1053.62 22.7784 1053.41 22.7104 1053.26 22.5744C1053.1 22.4384 1053.03 22.2544 1053.03 22.0224C1053.03 21.7824 1053.1 21.5944 1053.26 21.4584C1053.41 21.3144 1053.62 21.2424 1053.88 21.2424C1054.14 21.2424 1054.35 21.3144 1054.5 21.4584C1054.66 21.5944 1054.73 21.7824 1054.73 22.0224C1054.73 22.2544 1054.66 22.4384 1054.5 22.5744C1054.35 22.7104 1054.14 22.7784 1053.88 22.7784ZM1061.79 30.5664C1061.41 30.5664 1061.07 30.4904 1060.79 30.3384C1060.5 30.1864 1060.27 29.9704 1060.11 29.6904C1059.95 29.4104 1059.87 29.0824 1059.87 28.7064V22.7904H1057.65V21.8064H1060.95V28.7064C1060.95 28.9784 1061.03 29.1944 1061.18 29.3544C1061.33 29.5064 1061.54 29.5824 1061.79 29.5824H1063.89V30.5664H1061.79ZM1065.51 30.5664V29.5824H1067.85V24.9504H1065.81V23.9664H1068.93V29.5824H1071.15V30.5664H1065.51ZM1068.27 22.7784C1068.01 22.7784 1067.8 22.7104 1067.65 22.5744C1067.49 22.4384 1067.42 22.2544 1067.42 22.0224C1067.42 21.7824 1067.49 21.5944 1067.65 21.4584C1067.8 21.3144 1068.01 21.2424 1068.27 21.2424C1068.53 21.2424 1068.74 21.3144 1068.89 21.4584C1069.05 21.5944 1069.12 21.7824 1069.12 22.0224C1069.12 22.2544 1069.05 22.4384 1068.89 22.5744C1068.74 22.7104 1068.53 22.7784 1068.27 22.7784ZM1076.01 30.5664C1075.44 30.5664 1074.99 30.4144 1074.67 30.1104C1074.36 29.8064 1074.21 29.3784 1074.21 28.8264V24.9504H1072.35V23.9664H1074.21V22.1064H1075.29V23.9664H1077.93V24.9504H1075.29V28.8264C1075.29 29.3304 1075.53 29.5824 1076.01 29.5824H1077.81V30.5664H1076.01ZM1081.02 32.7264L1081.99 30.1584L1079.54 23.9664H1080.74L1082.28 28.0464C1082.33 28.1824 1082.38 28.3464 1082.43 28.5384C1082.48 28.7224 1082.52 28.8784 1082.55 29.0064C1082.58 28.8784 1082.62 28.7224 1082.67 28.5384C1082.72 28.3464 1082.77 28.1824 1082.82 28.0464L1084.26 23.9664H1085.42L1082.17 32.7264H1081.02Z" fill="black"/>
<g filter="url(#filter9_d_4024_133105)">
<path d="M265.552 369.155L271.209 363.498C271.866 362.841 272.756 362.473 273.684 362.473H320.027C321.96 362.473 323.527 364.04 323.527 365.973V417.973C323.527 419.906 321.96 421.473 320.027 421.473H268.027C266.094 421.473 264.527 419.906 264.527 417.973V371.63C264.527 370.701 264.896 369.811 265.552 369.155Z" fill="white" stroke="#C1C1C1"/>
<g clip-path="url(#clip7_4024_133105)">
<path d="M305.327 391.547C300.52 391.547 296.627 395.44 296.627 400.247C296.627 405.054 300.52 408.947 305.327 408.947C310.13 408.947 314.027 405.054 314.027 400.247C314.027 395.44 310.134 391.547 305.327 391.547ZM282.727 391.547C277.921 391.547 274.027 395.44 274.027 400.247C274.027 405.05 277.921 408.947 282.727 408.947C287.53 408.947 291.428 405.054 291.428 400.247C291.428 395.44 287.53 391.547 282.727 391.547ZM302.727 380.673C302.727 385.475 298.834 389.373 294.027 389.373C289.221 389.373 285.327 385.475 285.327 380.673C285.327 375.866 289.225 371.973 294.027 371.973C298.83 371.973 302.727 375.866 302.727 380.673Z" fill="url(#paint5_radial_4024_133105)"/>
</g>
</g>
<path d="M386.492 39.9785L386.492 87.9729" stroke="#C2C7CC" stroke-dasharray="4 4"/>
<path d="M1032.11 39.9785L1032.11 220.008" stroke="#C2C7CC" stroke-dasharray="4 4"/>
<defs>
<filter id="filter0_d_4024_133105" x="48.5938" y="319.09" width="68" height="68" filterUnits="userSpaceOnUse" color-interpolation-filters="sRGB">
<feFlood flood-opacity="0" result="BackgroundImageFix"/>
<feColorMatrix in="SourceAlpha" type="matrix" values="0 0 0 0 0 0 0 0 0 0 0 0 0 0 0 0 0 0 127 0" result="hardAlpha"/>
<feOffset dx="2" dy="4"/>
<feGaussianBlur stdDeviation="2"/>
<feComposite in2="hardAlpha" operator="out"/>
<feColorMatrix type="matrix" values="0 0 0 0 0.756863 0 0 0 0 0.756863 0 0 0 0 0.756863 0 0 0 0.2 0"/>
<feBlend mode="normal" in2="BackgroundImageFix" result="effect1_dropShadow_4024_133105"/>
<feBlend mode="normal" in="SourceGraphic" in2="effect1_dropShadow_4024_133105" result="shape"/>
</filter>
<filter id="filter1_d_4024_133105" x="68.5938" y="35.0508" width="68" height="68" filterUnits="userSpaceOnUse" color-interpolation-filters="sRGB">
<feFlood flood-opacity="0" result="BackgroundImageFix"/>
<feColorMatrix in="SourceAlpha" type="matrix" values="0 0 0 0 0 0 0 0 0 0 0 0 0 0 0 0 0 0 127 0" result="hardAlpha"/>
<feOffset dx="2" dy="4"/>
<feGaussianBlur stdDeviation="2"/>
<feComposite in2="hardAlpha" operator="out"/>
<feColorMatrix type="matrix" values="0 0 0 0 0.756863 0 0 0 0 0.756863 0 0 0 0 0.756863 0 0 0 0.2 0"/>
<feBlend mode="normal" in2="BackgroundImageFix" result="effect1_dropShadow_4024_133105"/>
<feBlend mode="normal" in="SourceGraphic" in2="effect1_dropShadow_4024_133105" result="shape"/>
</filter>
<filter id="filter2_d_4024_133105" x="128.594" y="162.402" width="68" height="68" filterUnits="userSpaceOnUse" color-interpolation-filters="sRGB">
<feFlood flood-opacity="0" result="BackgroundImageFix"/>
<feColorMatrix in="SourceAlpha" type="matrix" values="0 0 0 0 0 0 0 0 0 0 0 0 0 0 0 0 0 0 127 0" result="hardAlpha"/>
<feOffset dx="2" dy="4"/>
<feGaussianBlur stdDeviation="2"/>
<feComposite in2="hardAlpha" operator="out"/>
<feColorMatrix type="matrix" values="0 0 0 0 0.756863 0 0 0 0 0.756863 0 0 0 0 0.756863 0 0 0 0.2 0"/>
<feBlend mode="normal" in2="BackgroundImageFix" result="effect1_dropShadow_4024_133105"/>
<feBlend mode="normal" in="SourceGraphic" in2="effect1_dropShadow_4024_133105" result="shape"/>
</filter>
<filter id="filter3_d_4024_133105" x="188.594" y="269.09" width="68" height="68" filterUnits="userSpaceOnUse" color-interpolation-filters="sRGB">
<feFlood flood-opacity="0" result="BackgroundImageFix"/>
<feColorMatrix in="SourceAlpha" type="matrix" values="0 0 0 0 0 0 0 0 0 0 0 0 0 0 0 0 0 0 127 0" result="hardAlpha"/>
<feOffset dx="2" dy="4"/>
<feGaussianBlur stdDeviation="2"/>
<feComposite in2="hardAlpha" operator="out"/>
<feColorMatrix type="matrix" values="0 0 0 0 0.756863 0 0 0 0 0.756863 0 0 0 0 0.756863 0 0 0 0.2 0"/>
<feBlend mode="normal" in2="BackgroundImageFix" result="effect1_dropShadow_4024_133105"/>
<feBlend mode="normal" in="SourceGraphic" in2="effect1_dropShadow_4024_133105" result="shape"/>
</filter>
<filter id="filter4_d_4024_133105" x="248.594" y="60" width="68" height="68" filterUnits="userSpaceOnUse" color-interpolation-filters="sRGB">
<feFlood flood-opacity="0" result="BackgroundImageFix"/>
<feColorMatrix in="SourceAlpha" type="matrix" values="0 0 0 0 0 0 0 0 0 0 0 0 0 0 0 0 0 0 127 0" result="hardAlpha"/>
<feOffset dx="2" dy="4"/>
<feGaussianBlur stdDeviation="2"/>
<feComposite in2="hardAlpha" operator="out"/>
<feColorMatrix type="matrix" values="0 0 0 0 0.756863 0 0 0 0 0.756863 0 0 0 0 0.756863 0 0 0 0.2 0"/>
<feBlend mode="normal" in2="BackgroundImageFix" result="effect1_dropShadow_4024_133105"/>
<feBlend mode="normal" in="SourceGraphic" in2="effect1_dropShadow_4024_133105" result="shape"/>
</filter>
<filter id="filter5_d_4024_133105" x="342.883" y="187.863" width="68" height="68" filterUnits="userSpaceOnUse" color-interpolation-filters="sRGB">
<feFlood flood-opacity="0" result="BackgroundImageFix"/>
<feColorMatrix in="SourceAlpha" type="matrix" values="0 0 0 0 0 0 0 0 0 0 0 0 0 0 0 0 0 0 127 0" result="hardAlpha"/>
<feOffset dx="2" dy="4"/>
<feGaussianBlur stdDeviation="2"/>
<feComposite in2="hardAlpha" operator="out"/>
<feColorMatrix type="matrix" values="0 0 0 0 0.756863 0 0 0 0 0.756863 0 0 0 0 0.756863 0 0 0 0.2 0"/>
<feBlend mode="normal" in2="BackgroundImageFix" result="effect1_dropShadow_4024_133105"/>
<feBlend mode="normal" in="SourceGraphic" in2="effect1_dropShadow_4024_133105" result="shape"/>
</filter>
<filter id="filter6_d_4024_133105" x="611.148" y="180" width="88" height="88" filterUnits="userSpaceOnUse" color-interpolation-filters="sRGB">
<feFlood flood-opacity="0" result="BackgroundImageFix"/>
<feColorMatrix in="SourceAlpha" type="matrix" values="0 0 0 0 0 0 0 0 0 0 0 0 0 0 0 0 0 0 127 0" result="hardAlpha"/>
<feOffset dx="2" dy="4"/>
<feGaussianBlur stdDeviation="2"/>
<feComposite in2="hardAlpha" operator="out"/>
<feColorMatrix type="matrix" values="0 0 0 0 0.756863 0 0 0 0 0.756863 0 0 0 0 0.756863 0 0 0 0.2 0"/>
<feBlend mode="normal" in2="BackgroundImageFix" result="effect1_dropShadow_4024_133105"/>
<feBlend mode="normal" in="SourceGraphic" in2="effect1_dropShadow_4024_133105" result="shape"/>
</filter>
<filter id="filter7_d_4024_133105" x="853.715" y="180" width="88" height="88" filterUnits="userSpaceOnUse" color-interpolation-filters="sRGB">
<feFlood flood-opacity="0" result="BackgroundImageFix"/>
<feColorMatrix in="SourceAlpha" type="matrix" values="0 0 0 0 0 0 0 0 0 0 0 0 0 0 0 0 0 0 127 0" result="hardAlpha"/>
<feOffset dx="2" dy="4"/>
<feGaussianBlur stdDeviation="2"/>
<feComposite in2="hardAlpha" operator="out"/>
<feColorMatrix type="matrix" values="0 0 0 0 0.756863 0 0 0 0 0.756863 0 0 0 0 0.756863 0 0 0 0.2 0"/>
<feBlend mode="normal" in2="BackgroundImageFix" result="effect1_dropShadow_4024_133105"/>
<feBlend mode="normal" in="SourceGraphic" in2="effect1_dropShadow_4024_133105" result="shape"/>
</filter>
<filter id="filter8_d_4024_133105" x="853.715" y="341.973" width="88" height="88" filterUnits="userSpaceOnUse" color-interpolation-filters="sRGB">
<feFlood flood-opacity="0" result="BackgroundImageFix"/>
<feColorMatrix in="SourceAlpha" type="matrix" values="0 0 0 0 0 0 0 0 0 0 0 0 0 0 0 0 0 0 127 0" result="hardAlpha"/>
<feOffset dx="2" dy="4"/>
<feGaussianBlur stdDeviation="2"/>
<feComposite in2="hardAlpha" operator="out"/>
<feColorMatrix type="matrix" values="0 0 0 0 0.756863 0 0 0 0 0.756863 0 0 0 0 0.756863 0 0 0 0.2 0"/>
<feBlend mode="normal" in2="BackgroundImageFix" result="effect1_dropShadow_4024_133105"/>
<feBlend mode="normal" in="SourceGraphic" in2="effect1_dropShadow_4024_133105" result="shape"/>
</filter>
<filter id="filter9_d_4024_133105" x="262.027" y="361.973" width="68" height="68" filterUnits="userSpaceOnUse" color-interpolation-filters="sRGB">
<feFlood flood-opacity="0" result="BackgroundImageFix"/>
<feColorMatrix in="SourceAlpha" type="matrix" values="0 0 0 0 0 0 0 0 0 0 0 0 0 0 0 0 0 0 127 0" result="hardAlpha"/>
<feOffset dx="2" dy="4"/>
<feGaussianBlur stdDeviation="2"/>
<feComposite in2="hardAlpha" operator="out"/>
<feColorMatrix type="matrix" values="0 0 0 0 0.756863 0 0 0 0 0.756863 0 0 0 0 0.756863 0 0 0 0.2 0"/>
<feBlend mode="normal" in2="BackgroundImageFix" result="effect1_dropShadow_4024_133105"/>
<feBlend mode="normal" in="SourceGraphic" in2="effect1_dropShadow_4024_133105" result="shape"/>
</filter>
<linearGradient id="paint0_linear_4024_133105" x1="547.75" y1="371.596" x2="511.75" y2="371.596" gradientUnits="userSpaceOnUse">
<stop stop-color="#306BEA"/>
<stop offset="1" stop-color="#306BEA" stop-opacity="0"/>
</linearGradient>
<linearGradient id="paint1_linear_4024_133105" x1="766.668" y1="395.814" x2="730.668" y2="395.814" gradientUnits="userSpaceOnUse">
<stop stop-color="#306BEA"/>
<stop offset="1" stop-color="#306BEA" stop-opacity="0"/>
</linearGradient>
<linearGradient id="paint2_linear_4024_133105" x1="452.227" y1="94.043" x2="416.227" y2="94.043" gradientUnits="userSpaceOnUse">
<stop stop-color="#306BEA"/>
<stop offset="1" stop-color="#306BEA" stop-opacity="0"/>
</linearGradient>
<linearGradient id="paint3_linear_4024_133105" x1="1010.7" y1="223.365" x2="974.703" y2="223.365" gradientUnits="userSpaceOnUse">
<stop stop-color="#306BEA"/>
<stop offset="1" stop-color="#306BEA" stop-opacity="0"/>
</linearGradient>
<linearGradient id="paint4_linear_4024_133105" x1="932.053" y1="276.4" x2="899.715" y2="276.4" gradientUnits="userSpaceOnUse">
<stop stop-color="#306BEA"/>
<stop offset="1" stop-color="#306BEA" stop-opacity="0"/>
</linearGradient>
<radialGradient id="paint5_radial_4024_133105" cx="0" cy="0" r="1" gradientUnits="userSpaceOnUse" gradientTransform="translate(294.026 392.179) scale(26.504 24.4978)">
<stop stop-color="#FFB900"/>
<stop offset="0.6" stop-color="#F95D8F"/>
<stop offset="0.9991" stop-color="#F95353"/>
</radialGradient>
<clipPath id="clip0_4024_133105">
<rect width="40" height="40" fill="white" transform="translate(60.5938 329.09)"/>
</clipPath>
<clipPath id="clip1_4024_133105">
<rect width="40" height="40" fill="white" transform="translate(80.5938 45.0508)"/>
</clipPath>
<clipPath id="clip2_4024_133105">
<rect width="40" height="40" fill="white" transform="translate(140.594 172.402)"/>
</clipPath>
<clipPath id="clip3_4024_133105">
<rect width="40" height="40" fill="white" transform="translate(200.594 279.09)"/>
</clipPath>
<clipPath id="clip4_4024_133105">
<rect width="40" height="40" fill="white" transform="translate(200.594 279.09)"/>
</clipPath>
<clipPath id="clip5_4024_133105">
<rect width="40" height="40" fill="white" transform="translate(354.883 197.863)"/>
</clipPath>
<clipPath id="clip6_4024_133105">
<rect width="40" height="27.9853" fill="white" transform="translate(354.883 203.863)"/>
</clipPath>
<clipPath id="clip7_4024_133105">
<rect width="40" height="40" fill="white" transform="translate(274.027 371.973)"/>
</clipPath>
</defs>
</svg>
