<svg width="49" height="48" viewBox="0 0 49 48" fill="none" xmlns="http://www.w3.org/2000/svg">
<path d="M44.9445 24C44.9445 35.2911 35.7913 44.4444 24.5001 44.4444C13.209 44.4444 4.05566 35.2911 4.05566 24C4.05566 12.7088 13.209 3.55554 24.5001 3.55554C35.7913 3.55554 44.9445 12.7088 44.9445 24Z" fill="white"/>
<path d="M36.0554 24C36.0554 30.382 30.8818 35.5556 24.4999 35.5556C18.1179 35.5556 12.9443 30.382 12.9443 24C12.9443 17.6181 18.1179 12.4445 24.4999 12.4445C30.8818 12.4445 36.0554 17.6181 36.0554 24Z" fill="url(#paint0_linear_692_7302)"/>
<path fill-rule="evenodd" clip-rule="evenodd" d="M24.5 12.8C18.3144 12.8 13.3 17.8144 13.3 24C13.3 30.1856 18.3144 35.2 24.5 35.2C30.6856 35.2 35.7 30.1856 35.7 24C35.7 17.8144 30.6856 12.8 24.5 12.8ZM12.5889 24C12.5889 17.4217 17.9217 12.0889 24.5 12.0889C31.0783 12.0889 36.4111 17.4217 36.4111 24C36.4111 30.5783 31.0783 35.9111 24.5 35.9111C17.9217 35.9111 12.5889 30.5783 12.5889 24Z" fill="#222222"/>
<path fill-rule="evenodd" clip-rule="evenodd" d="M31.475 19.3368C31.6136 19.4759 31.6133 19.701 31.4742 19.8397L22.6219 28.6639C22.4832 28.8022 22.2587 28.8022 22.1199 28.6639L17.5257 24.0842C17.3866 23.9456 17.3863 23.7205 17.5249 23.5814C17.6635 23.4423 17.8886 23.442 18.0277 23.5806L22.3709 27.9101L30.9722 19.336C31.1112 19.1974 31.3363 19.1978 31.475 19.3368Z" fill="#222222"/>
<path fill-rule="evenodd" clip-rule="evenodd" d="M22.4887 1.0414L24.7514 3.30414C24.8903 3.44299 24.8903 3.66812 24.7514 3.80697L22.4887 6.06971C22.3498 6.20856 22.1247 6.20856 21.9858 6.06971C21.847 5.93086 21.847 5.70573 21.9858 5.56688L23.6224 3.93027C18.884 4.13732 14.3604 6.01592 10.8636 9.24828C7.15159 12.6797 4.86964 17.3844 4.47303 22.4238C4.07641 27.4633 5.59429 32.4671 8.72385 36.4369C11.8534 40.4067 16.3646 43.0508 21.3574 43.8416L21.2462 44.5439C16.0766 43.7251 11.4057 40.9875 8.1654 36.8772C4.92506 32.7668 3.35345 27.5859 3.76411 22.3681C4.17476 17.1502 6.53749 12.2789 10.3809 8.72609C14.018 5.36404 18.728 3.41648 23.6586 3.21701L21.9858 1.54423C21.847 1.40537 21.847 1.18025 21.9858 1.0414C22.1247 0.902543 22.3498 0.902543 22.4887 1.0414Z" fill="#222222"/>
<path fill-rule="evenodd" clip-rule="evenodd" d="M26.5113 46.7069L24.2486 44.4442C24.1097 44.3053 24.1097 44.0802 24.2486 43.9413L26.5113 41.6786C26.6502 41.5397 26.8753 41.5397 27.0142 41.6786C27.153 41.8174 27.153 42.0426 27.0142 42.1814L25.3776 43.818C30.116 43.611 34.6396 41.7324 38.1364 38.5C41.8484 35.0686 44.1304 30.3639 44.527 25.3245C44.9236 20.285 43.4057 15.2812 40.2762 11.3114C37.1466 7.34157 32.6354 4.69753 27.6426 3.90674L27.7538 3.20439C32.9234 4.02317 37.5943 6.7608 40.8346 10.8711C44.0749 14.9815 45.6465 20.1624 45.2359 25.3802C44.8252 30.5981 42.4625 35.4694 38.6191 39.0222C34.982 42.3843 30.272 44.3318 25.3414 44.5313L27.0142 46.2041C27.153 46.3429 27.153 46.568 27.0142 46.7069C26.8753 46.8457 26.6502 46.8457 26.5113 46.7069Z" fill="#222222"/>
<defs>
<linearGradient id="paint0_linear_692_7302" x1="36.0554" y1="12.4445" x2="12.9443" y2="35.5556" gradientUnits="userSpaceOnUse">
<stop stop-color="#A1FF8B"/>
<stop offset="1" stop-color="#3F93FF"/>
</linearGradient>
</defs>
</svg>
