<svg width="48" height="49" viewBox="0 0 48 49" fill="none" xmlns="http://www.w3.org/2000/svg">
<path d="M44.4444 24.0167C44.4444 35.3079 35.2911 44.4612 24 44.4612C12.7088 44.4612 3.55554 35.3079 3.55554 24.0167C3.55554 12.7256 12.7088 3.57227 24 3.57227C35.2911 3.57227 44.4444 12.7256 44.4444 24.0167Z" fill="white"/>
<path d="M35.5556 24.0165C35.5556 30.3985 30.382 35.572 24 35.572C17.6181 35.572 12.4445 30.3985 12.4445 24.0165C12.4445 17.6345 17.6181 12.4609 24 12.4609C30.382 12.4609 35.5556 17.6345 35.5556 24.0165Z" fill="url(#paint0_linear_3171_65389)"/>
<path fill-rule="evenodd" clip-rule="evenodd" d="M24 12.8166C17.8144 12.8166 12.8 17.831 12.8 24.0166C12.8 30.2022 17.8144 35.2166 24 35.2166C30.1856 35.2166 35.2 30.2022 35.2 24.0166C35.2 17.831 30.1856 12.8166 24 12.8166ZM12.0889 24.0166C12.0889 17.4383 17.4217 12.1055 24 12.1055C30.5783 12.1055 35.9111 17.4383 35.9111 24.0166C35.9111 30.5949 30.5783 35.9277 24 35.9277C17.4217 35.9277 12.0889 30.5949 12.0889 24.0166Z" fill="#222222"/>
<path fill-rule="evenodd" clip-rule="evenodd" d="M30.0378 4.11244C25.4329 2.71554 20.486 2.95857 16.0401 4.80011C11.5942 6.64166 7.92444 9.96778 5.65599 14.2118C3.38755 18.4557 2.66081 23.355 3.59963 28.0747C4.53844 32.7944 7.08471 37.0426 10.8046 40.0954C14.3072 42.97 18.6463 44.6172 23.1586 44.7998L21.4858 46.4726C21.3469 46.6114 21.3469 46.8365 21.4858 46.9754C21.6246 47.1143 21.8498 47.1143 21.9886 46.9754L24.2513 44.7127C24.3902 44.5738 24.3902 44.3487 24.2513 44.2098L21.9886 41.9471C21.8498 41.8082 21.6246 41.8082 21.4858 41.9471C21.3469 42.0859 21.3469 42.3111 21.4858 42.4499L23.1224 44.0865C18.7877 43.8971 14.6218 42.3082 11.2557 39.5457C7.663 36.5973 5.20379 32.4943 4.29707 27.936C3.39036 23.3776 4.09224 18.6458 6.28314 14.547C8.47403 10.4481 12.0184 7.23568 16.3122 5.45709C20.6061 3.67851 25.3839 3.44379 29.8314 4.79293C34.2789 6.14208 38.1211 8.99161 40.7032 12.856C43.2853 16.7204 44.4476 21.3606 43.9921 25.9858C43.5365 30.6111 41.4913 34.9354 38.2049 38.2218L38.7077 38.7246C42.1105 35.3219 44.2281 30.8446 44.6997 26.0555C45.1714 21.2665 43.968 16.4621 41.2945 12.4609C38.621 8.45975 34.6428 5.50935 30.0378 4.11244Z" fill="#222222"/>
<path fill-rule="evenodd" clip-rule="evenodd" d="M24 24.373C23.8036 24.373 23.6444 24.2139 23.6444 24.0175L23.6444 15.8397C23.6444 15.6433 23.8036 15.4842 24 15.4842C24.1963 15.4842 24.3555 15.6433 24.3555 15.8397L24.3555 24.0175C24.3555 24.2139 24.1963 24.373 24 24.373Z" fill="#222222"/>
<path fill-rule="evenodd" clip-rule="evenodd" d="M23.7486 23.7651C23.8874 23.6262 24.1126 23.6262 24.2514 23.7651L30.034 29.5476C30.1728 29.6865 30.1728 29.9116 30.034 30.0505C29.8951 30.1893 29.67 30.1893 29.5311 30.0505L23.7486 24.2679C23.6097 24.1291 23.6097 23.9039 23.7486 23.7651Z" fill="#222222"/>
<defs>
<linearGradient id="paint0_linear_3171_65389" x1="35.5556" y1="12.4609" x2="12.4445" y2="35.572" gradientUnits="userSpaceOnUse">
<stop stop-color="#A1FF8B"/>
<stop offset="1" stop-color="#3F93FF"/>
</linearGradient>
</defs>
</svg>
