<svg width="204" height="24" viewBox="0 0 204 24" fill="none" xmlns="http://www.w3.org/2000/svg">
<path fill-rule="evenodd" clip-rule="evenodd" d="M197.134 4.57006C193.944 4.3985 190.951 5.87896 188.617 8.59481C188.562 8.40716 187.522 4.42071 182.669 5.38037H175.556L172.577 10.6321C172.779 8.45925 171.805 4.57006 166.829 4.57006C165.338 4.57006 164.294 4.77225 162.915 5.36122L165.903 0.0788866H146.505L142.312 7.48733H148.828L139.401 14.4554C139.49 14.2272 139.578 13.9966 139.662 13.7623C141.575 8.44546 139.368 4.64205 134.804 4.51798C132.805 4.46437 131.046 4.95607 129.283 6.01912L129.648 5.37195H126.603L127.931 3.02603H119.105L117.797 5.33748H104.411C104.545 2.10619 101.439 0 96.8317 0C95.136 0 91.423 0.339289 88.8152 3.02296L90.4779 0.0842478H0.612305V23.3772H94.799L96.3232 20.692C96.4794 21.0765 97.711 23.9088 102.967 23.9088C104.694 23.9088 108.866 23.5067 111.149 19.9215C111.322 20.4906 112.382 23.3834 115.47 23.3834H119.782L122.147 19.2054C122.444 22.4551 124.881 23.7449 127.482 23.8896C129.99 24.0298 132.227 23.3014 134.142 21.883L133.286 23.3841H152.719L154.55 20.1567C155.032 21.8171 155.974 23.7043 159.655 23.9762C161.863 24.1385 164.232 23.4607 165.971 22.2744L165.341 23.3841L181.616 23.388L184.473 18.3254C184.173 20.9723 185.728 23.7571 189.648 23.9808C195.223 24.2986 198.79 20.0663 200.344 16.7439C205.253 6.24889 199.567 4.70179 197.134 4.57006Z" fill="white"/>
<mask id="mask0_4686_151609" style="mask-type:alpha" maskUnits="userSpaceOnUse" x="199" y="1" width="5" height="4">
<path d="M199.823 1.36621H203.388V4.89466H199.823V1.36621Z" fill="white"/>
</mask>
<g mask="url(#mask0_4686_151609)">
<path fill-rule="evenodd" clip-rule="evenodd" d="M201.232 3.00445V2.37642H201.654C201.871 2.37642 202.098 2.41854 202.098 2.67358C202.098 2.9853 201.862 3.00445 201.6 3.00445H201.232ZM201.232 3.26025H201.588L202.126 4.14792H202.469L201.89 3.24494C202.188 3.21736 202.418 3.05346 202.418 2.6935C202.418 2.28604 202.183 2.11219 201.702 2.11219H200.935V4.14792H201.233V3.25949L201.232 3.26025ZM200.182 3.12239C200.182 2.28604 200.799 1.65801 201.614 1.65801C202.398 1.65801 203.031 2.28604 203.031 3.12316C203.031 3.9733 202.398 4.5975 201.614 4.5975C200.799 4.5975 200.182 3.9733 200.182 3.12316V3.12239ZM201.614 4.89466C202.568 4.89466 203.389 4.14792 203.389 3.12316C203.389 2.11219 202.568 1.36621 201.614 1.36621C200.639 1.36621 199.823 2.11219 199.823 3.12316C199.823 4.14792 200.639 4.89466 201.614 4.89466Z" fill="#D52B1E"/>
</g>
<path fill-rule="evenodd" clip-rule="evenodd" d="M72.5532 1.29764L60.7355 22.054H64.6936L76.5228 1.29764H72.5532ZM80.9764 1.29764H78.5248L66.7087 22.054H69.1572L73.4156 14.5927L80.9764 1.29688V1.29764ZM87.8258 1.29764L76.0112 22.054H76.7097L88.5197 1.29764H87.8258ZM83.5544 1.29764L71.7444 22.054H73.1866L85.0004 1.29764H83.5544ZM1.90527 1.29764V22.054H31.8454L43.6554 1.29764H1.90527ZM64.8859 1.29764L53.0705 22.054H59.291L71.111 1.29764H64.8859ZM44.4711 1.29764L32.6465 22.054H42.6467L54.4613 1.29764H44.4711ZM55.4486 1.29764L43.634 22.054H51.8658L63.6865 1.29764H55.4486Z" fill="#F37F00"/>
<path fill-rule="evenodd" clip-rule="evenodd" d="M112.009 6.48721L106.271 16.5073C105.802 17.336 105.317 17.5712 104.573 17.4279C103.643 17.2487 104.032 16.5502 104.301 16.0723L109.955 6.48644H104.332C104.332 6.48644 97.9391 17.4126 97.9421 17.418C96.8025 19.4706 98.299 21.5254 102.001 21.9796C104.106 22.2377 108.521 21.9903 110.601 18.4948L110.611 18.4849L117.606 6.48644H112.009V6.48721ZM122.318 11.2074H125.406L127.947 6.83875H124.869L126.21 4.54108H120.143L112.873 17.0021C112.21 18.1961 112.273 19.5326 113.238 20.7396C113.928 21.6158 114.652 22.0539 115.957 22.0539H119.398L121.783 17.9671H119.186C118.986 17.9671 118.76 17.9993 118.676 17.8139C118.632 17.6991 118.607 17.5796 118.659 17.4731L122.318 11.2074ZM95.5212 8.31002L93.1186 12.5699H90.1929L92.826 7.9018C93.1729 7.28297 93.8446 6.73612 94.9 6.83875C95.7831 6.92376 96.0695 7.38406 95.5219 8.31079M97.8678 1.38409C95.4453 1.0762 90.2978 1.38409 88.04 5.74966L78.8232 22.0539H84.8309L87.402 17.5022H90.3231L87.7497 22.0539H93.7114L102.203 7.07771C103.616 4.43769 102.256 1.94166 97.8678 1.38409ZM132.774 13.6559C131.431 16.3266 130.513 17.6569 129.381 17.4287C128.557 17.2625 128.865 16.0578 129.677 14.4448C130.81 12.1931 132.026 10.5525 133.039 10.7341C133.987 10.9026 133.586 12.0437 132.775 13.6559M134.812 5.84999C130.292 5.60107 126.046 9.28883 124.097 14.9694C122.702 19.0363 123.292 22.4529 127.569 22.6888C131.891 22.9263 136.028 20.1491 138.338 13.4131C139.733 9.34627 138.736 6.0652 134.813 5.84999M185.113 6.63885C182.428 5.97636 180.663 7.68736 180.663 7.68736L181.251 6.63579H176.152L167.377 22.0501H172.979L178.253 12.7675C178.621 12.1111 179.125 11.356 179.877 11.5176C180.548 11.6631 180.747 12.285 180.526 12.7032L175.219 22.0547H180.78L187.147 10.816C188.025 9.18467 186.58 7.00188 185.113 6.63962M160.891 7.01873L164.144 1.29754H147.533L144.738 6.21072H152.911L138.866 16.538L135.704 22.0539H152.342L155.125 17.1721H147.314L160.891 7.01873ZM194.669 13.3496H192.055C192.994 11.6861 193.956 10.5832 194.78 10.7333C195.65 10.8926 195.362 11.9005 194.669 13.3503M196.972 5.84999C192.324 5.60107 188.241 9.28883 186.237 14.971C184.802 19.0378 185.126 22.4537 189.524 22.6888C193.226 22.8864 196.512 20.9886 198.974 16.4568H193.302C192.529 17.6462 191.796 18.3792 191.092 18.2405C190.437 18.1119 190.657 16.875 191.176 15.5752H199.423C199.743 14.9043 200.041 14.1859 200.315 13.4124C201.748 9.3455 201.005 6.0652 196.972 5.84999Z" fill="#D52B1E"/>
<path fill-rule="evenodd" clip-rule="evenodd" d="M165.093 13.6557C163.749 16.3264 162.831 17.6567 161.7 17.4285C160.875 17.2623 161.184 16.0575 161.995 14.4446C163.128 12.1928 164.345 10.5523 165.357 10.7331C166.305 10.9031 165.905 12.0427 165.093 13.6549M167.132 5.84976C162.611 5.60084 158.365 9.2886 156.416 14.9707C155.021 19.0368 155.61 22.4535 159.886 22.6886C164.208 22.926 168.345 20.1481 170.656 13.4121C172.052 9.34527 171.055 6.06497 167.132 5.84976Z" fill="#D52B1E"/>
</svg>
