<svg width="121" height="27" viewBox="0 0 121 27" fill="none" xmlns="http://www.w3.org/2000/svg">
<g clip-path="url(#clip0_4959_2356)">
<path fill-rule="evenodd" clip-rule="evenodd" d="M97.8225 8.0966C98.2818 8.88897 98.4321 9.79048 98.4817 10.804L98.5469 12.1548V21.6009L98.6135 22.9531C98.7467 25.1615 100.375 26.7945 102.601 26.9334L103.946 27V12.1548L104.013 10.804C104.068 9.80182 104.217 8.8833 104.683 8.08526C105.158 7.26672 105.84 6.5876 106.661 6.11609C107.482 5.64457 108.412 5.39726 109.359 5.39899C110.305 5.40071 111.234 5.65141 112.053 6.12591C112.872 6.6004 113.552 7.282 114.024 8.10227C114.484 8.89464 114.627 9.81316 114.682 10.804L114.749 12.1506V21.6009L114.815 22.9531C114.954 25.1729 116.57 26.8058 118.803 26.9334L120.148 27V10.804C120.148 7.94007 119.01 5.1934 116.986 3.16792C114.961 1.14244 112.215 0.00396632 109.351 0.00283874C107.818 0.00122221 106.302 0.326738 104.905 0.957639C103.509 1.58854 102.262 2.5103 101.25 3.66133C100.237 2.51075 98.9909 1.58922 97.5941 0.958128C96.1972 0.32704 94.6819 0.000893703 93.1491 0.001421C90.9067 0.001421 88.8259 0.681808 87.1022 1.85689C86.0504 0.683224 83.6974 0.001421 82.3466 0.001421V27L83.6974 26.9334C85.9569 26.7845 87.5898 25.1956 87.6777 22.9531L87.75 21.6009V12.1548L87.8166 10.804C87.8733 9.78481 88.0151 8.88897 88.4757 8.09093C88.9513 7.2729 89.6332 6.59394 90.4533 6.12185C91.2733 5.64976 92.2029 5.40106 93.1491 5.40057C94.0961 5.40077 95.0264 5.64997 95.8466 6.12317C96.6669 6.59637 97.3483 7.27693 97.8225 8.0966ZM5.39915 26.9348L6.75 27H26.9986L26.932 25.6534C26.7491 23.4336 25.1771 21.8121 22.9503 21.6675L21.5994 21.6009H9.4517L25.6477 5.39915L25.5811 4.05397C25.4762 1.81153 23.8376 0.191363 21.5994 0.0680417L20.2486 0.00709077L0 0.001421L0.0666212 1.35227C0.243805 3.55077 1.83846 5.20638 4.04688 5.33395L5.39915 5.40057H17.5469L1.35085 21.6023L1.41747 22.9531C1.55071 25.1785 3.15671 26.7902 5.39915 26.9334V26.9348ZM77.0467 3.95333C78.3004 5.20683 79.295 6.69503 79.9735 8.33294C80.6521 9.97085 81.0013 11.7264 81.0013 13.4993C81.0013 15.2722 80.6521 17.0277 79.9735 18.6656C79.295 20.3036 78.3004 21.7918 77.0467 23.0453C74.5136 25.5762 71.0794 26.9979 67.4986 26.9979C63.9178 26.9979 60.4835 25.5762 57.9505 23.0453C52.6789 17.7737 52.6789 9.22491 57.9505 3.95333C59.2031 2.70025 60.6903 1.70618 62.3271 1.02786C63.9639 0.349547 65.7183 0.000279824 67.4901 3.25423e-06C69.2647 -0.00122885 71.0223 0.347423 72.6621 1.02602C74.3019 1.70461 75.7918 2.69983 77.0467 3.95475V3.95333ZM73.2266 7.77625C74.745 9.29581 75.5979 11.3561 75.5979 13.5043C75.5979 15.6524 74.745 17.7127 73.2266 19.2323C71.707 20.7507 69.6467 21.6036 67.4986 21.6036C65.3504 21.6036 63.2901 20.7507 61.7706 19.2323C60.2522 17.7127 59.3992 15.6524 59.3992 13.5043C59.3992 11.3561 60.2522 9.29581 61.7706 7.77625C63.2901 6.25784 65.3504 5.4049 67.4986 5.4049C69.6467 5.4049 71.707 6.25784 73.2266 7.77625ZM39.1577 3.25423e-06C40.9295 0.00046598 42.684 0.349956 44.3208 1.02852C45.9576 1.70708 47.4447 2.70141 48.6972 3.95475C53.9702 9.22491 53.9702 17.7751 48.6972 23.0453C46.1642 25.5762 42.7299 26.9979 39.1491 26.9979C35.5684 26.9979 32.1341 25.5762 29.6011 23.0453C24.3295 17.7737 24.3295 9.22491 29.6011 3.95333C30.8537 2.70025 32.3408 1.70618 33.9777 1.02786C35.6145 0.349547 37.3688 0.000279824 39.1406 3.25423e-06H39.1577ZM44.8771 7.77342C46.396 9.29303 47.2492 11.3536 47.2492 13.5021C47.2492 15.6506 46.396 17.7112 44.8771 19.2308C43.3576 20.7492 41.2973 21.6022 39.1491 21.6022C37.001 21.6022 34.9407 20.7492 33.4211 19.2308C31.9027 17.7113 31.0498 15.651 31.0498 13.5028C31.0498 11.3547 31.9027 9.29439 33.4211 7.77483C34.9407 6.25642 37.001 5.40349 39.1491 5.40349C41.2973 5.40349 43.3576 6.25642 44.8771 7.77483V7.77342Z" fill="#2D8CFF"/>
</g>
<defs>
<clipPath id="clip0_4959_2356">
<rect width="120.148" height="27" fill="white"/>
</clipPath>
</defs>
</svg>
