<svg width="206" height="30" viewBox="0 0 206 30" fill="none" xmlns="http://www.w3.org/2000/svg">
<path d="M106.818 3.70914L106.382 2.40003L106.818 0.109092L106.6 0L100.6 5.01824V5.12734L106.818 3.70914Z" fill="#222222"/>
<path d="M15.1811 27.4912C14.6418 28.0443 13.9971 28.4838 13.2851 28.7836C12.5731 29.0834 11.8082 29.2374 11.0356 29.2367C6.23558 29.2367 5.03557 24.9821 5.03557 19.9638C5.03557 14.9456 6.12649 10.691 10.9265 10.691C11.6696 10.6729 12.4073 10.8201 13.0865 11.122C13.7657 11.4239 14.3694 11.8728 14.8539 12.4364L17.5812 16.582H17.7994V10.3637H17.5812L15.0721 11.6728C13.9137 10.6906 12.4453 10.1496 10.9265 10.1455C6.23558 10.1455 0.671875 13.7456 0.671875 20.0729C0.671875 26.4003 6.12649 30.0003 11.0356 30.0003C12.6381 29.989 14.1846 29.4091 15.3993 28.3639L17.7994 29.7821H18.0175V23.2366H17.7994L15.1811 27.4912Z" fill="#222222"/>
<path d="M33.0726 10.0361C28.4907 10.0361 23.0361 13.9635 23.0361 19.9635C23.0361 25.9636 28.4907 29.8909 33.0726 29.8909C37.6545 29.8909 43.1091 25.9636 43.1091 19.9635C43.1091 13.9635 37.7636 10.0361 33.0726 10.0361ZM33.0726 29.2364C28.4907 29.2364 27.2907 25.2 27.2907 19.9635C27.2907 14.7271 28.4907 10.6907 33.0726 10.6907C37.6545 10.6907 38.8545 14.7271 38.8545 19.9635C38.8545 25.2 37.7636 29.2364 33.0726 29.2364Z" fill="#222222"/>
<path d="M60.4538 10.9097H62.8539V22.9099H62.7448L54.2356 10.3643H46.5991V10.9097H48.8901V29.019H46.5991V29.5645H52.0537V29.019H49.6537V10.9097L63.3993 29.8918H63.6175V10.9097H65.9085V10.3643H60.4538V10.9097Z" fill="#222222"/>
<path d="M78.6725 10.3643H70.0542V10.9097H72.5633V29.019H70.0542V29.5645H78.6725C82.9271 29.5645 90.0181 27.7099 90.0181 19.8553C90.0181 12.0006 82.9271 10.3643 78.6725 10.3643ZM78.4543 29.019H76.3816V10.9097H78.4543C83.4725 10.9097 85.7635 14.5098 85.7635 19.9644C85.7635 25.419 83.4725 29.019 78.4543 29.019Z" fill="#222222"/>
<path d="M107.146 29.019H99.946V19.528H103.546C104.574 20.6237 105.421 21.8757 106.055 23.2371H106.273V15.2734H106.055C105.421 16.6349 104.574 17.8869 103.546 18.9825H99.946V10.9097H106.382C108.237 12.1097 109.873 15.4916 109.873 15.4916H110.092V10.3643H93.6187V10.9097H96.1278V29.019H93.6187V29.5645H110.637V23.1281H110.419C109.63 25.2451 108.527 27.231 107.146 29.019Z" fill="#222222"/>
<path d="M136.601 10.9097H139.001V22.9099H138.891L130.382 10.3643H122.637V10.9097H125.037V29.019H122.637V29.5645H128.091V29.019H125.8V10.9097L139.546 29.8918H139.655V10.9097H142.055V10.3643H136.601V10.9097Z" fill="#222222"/>
<path d="M154.382 9.70996H154.164L145.982 28.9102H143.691V29.4557H148.818V28.9102H146.636L149.582 22.0374H155.8L158.964 28.9102H156.455V29.4557H165.4V28.9102H163.109L154.382 9.70996ZM149.909 21.601L152.746 14.9464L155.691 21.601H149.909Z" fill="#222222"/>
<path d="M178.929 18.3274L175.111 17.0183C173.256 16.3637 171.729 15.491 171.729 13.6364C171.729 11.7819 173.365 10.5818 175.874 10.5818C176.501 10.5295 177.13 10.6202 177.716 10.847C178.302 11.0738 178.829 11.4308 179.256 11.8909L181.984 16.0365H182.202V9.92729H181.984L179.475 11.2364C178.477 10.3703 177.195 9.90393 175.874 9.92729C175.097 9.8831 174.319 9.99635 173.587 10.2602C172.854 10.5241 172.183 10.9332 171.612 11.4629C171.042 11.9927 170.584 12.6322 170.267 13.3431C169.949 14.054 169.779 14.8217 169.765 15.6001C169.765 18.3274 171.729 19.7456 173.802 20.5092L177.62 21.9274C179.693 22.6911 181.002 23.5638 181.002 25.5275C181.002 27.4911 179.693 29.1275 176.42 29.1275C174.83 29.0501 173.305 28.478 172.056 27.4911L169.22 22.8002H168.893V29.4548H169.22L171.62 28.1457C172.943 29.1494 174.543 29.7208 176.202 29.7821C180.347 29.7821 183.075 26.8366 183.075 23.5638C183.075 20.2911 181.329 19.091 178.929 18.3274Z" fill="#222222"/>
<path d="M187.546 10.3643V16.3643H187.764C188.697 14.4324 189.83 12.6041 191.146 10.9097H194.528V29.019H191.473V29.5645H201.401V29.019H198.346V10.9097H201.728C203.044 12.6041 204.177 14.4324 205.11 16.3643H205.328V10.4734H187.546V10.3643Z" fill="#222222"/>
</svg>
