<svg width="129" height="30" viewBox="0 0 129 30" fill="none" xmlns="http://www.w3.org/2000/svg">
<path d="M9.79611 19.7822C14.0865 19.7822 15.76 17.1623 15.76 12.6798C15.76 8.19834 13.8029 5.07358 9.92183 5.07358H5.5721V19.7822H9.79611ZM0.996094 1.16033H10.4901C16.5163 1.16033 20.3974 6.02096 20.3974 12.6798C20.3974 16.3406 19.1664 19.5609 16.7999 21.5492C15.1274 22.9371 12.95 23.7266 10.1109 23.7266H0.996094V1.16033ZM33.4667 15.6477C33.4667 12.4907 31.9842 10.3445 29.3654 10.3445C26.7143 10.3445 25.262 12.4907 25.262 15.6477C25.262 18.8036 26.7143 20.9176 29.3654 20.9176C31.9842 20.9176 33.4667 18.8036 33.4667 15.6477ZM20.9083 15.6477C20.9083 10.8182 24.3478 7.09406 29.3654 7.09406C34.3819 7.09406 37.8214 10.8182 37.8214 15.6477C37.8214 20.4751 34.3819 24.2003 29.3654 24.2003C24.3468 24.2003 20.9073 20.4761 20.9073 15.6477H20.9083ZM38.5304 15.6477C38.5304 10.8182 41.6864 7.09406 46.6084 7.09406C50.8062 7.09406 53.3929 9.52488 53.9612 13.0278H49.7643C49.4807 11.6077 48.3764 10.5336 46.7984 10.5336C44.2107 10.5336 42.8862 12.5229 42.8862 15.6477C42.8862 18.7091 44.1162 20.7607 46.7351 20.7607C48.471 20.7607 49.702 19.8455 49.9856 18.0151H54.1191C53.8354 21.4547 51.1522 24.2003 46.8296 24.2003C41.7186 24.2003 38.5304 20.4761 38.5304 15.6477ZM65.2926 23.7276V21.8338H65.198C64.0938 23.3173 62.8316 24.1691 60.5597 24.1691C56.9622 24.1691 54.9427 21.866 54.9427 18.3299V7.53557H59.202V17.6038C59.202 19.4976 60.0548 20.5395 61.8842 20.5395C63.9037 20.5395 65.1347 19.0249 65.1347 16.8787V7.53557H69.4261V23.7276H65.2926ZM90.3339 23.7276H94.6243V7.53557H90.3339V23.7276ZM90.3339 5.27271H94.6243V1.2599H90.3339V5.27271ZM107.733 14.9206C107.733 12.5541 106.471 10.5346 103.883 10.5346C101.706 10.5346 100.254 12.2383 100.254 14.9527C100.254 17.6983 101.706 19.3085 103.915 19.3085C106.629 19.3085 107.733 17.3202 107.733 14.9216V14.9206ZM96.4044 24.2003H100.663C101.011 25.21 101.925 25.9995 103.913 25.9995C106.343 25.9995 107.511 24.8319 107.511 22.6223V20.8543H107.416C106.469 21.9274 105.239 22.748 103.187 22.748C99.5905 22.748 96.0564 19.9079 96.0564 15.0161C96.0564 10.1866 98.9589 7.09406 103.061 7.09406C105.081 7.09406 106.563 7.88254 107.542 9.24026H107.605V7.53557H111.739V22.4956C111.739 24.7685 111.012 26.3143 109.814 27.4196C108.456 28.6818 106.374 29.25 103.976 29.25C99.5583 29.25 96.8449 27.3562 96.4034 24.2003H96.4044ZM117.777 9.74513H117.871C118.976 8.00926 120.459 7.09406 122.668 7.09406C126.013 7.09406 128.252 9.61841 128.252 13.1535V23.7266H123.961V13.7851C123.961 12.0492 122.951 10.8182 121.153 10.8182C119.259 10.8182 117.871 12.3328 117.871 14.5424V23.7266H113.58V7.53557H117.777V9.74513ZM80.5543 10.1233C77.2093 9.39916 75.6313 8.86211 75.6313 7.0307C75.6313 5.42155 77.2405 4.37963 79.7025 4.37963C81.9482 4.37963 83.665 5.43362 84.017 7.53557H88.418C87.9705 3.15366 84.719 0.75 79.7337 0.75C74.7171 0.75 71.0875 3.0541 71.0875 7.50439C71.0875 12.2071 74.7795 13.2802 78.8185 14.1954C82.258 14.9849 84.4042 15.4264 84.4042 17.635C84.4042 19.7188 82.3525 20.5395 80.0183 20.5395C76.8 20.5395 75.2532 19.4664 74.9374 16.752H70.4569C70.6148 21.5181 74.0856 24.2315 80.2074 24.2315C85.2872 24.2315 88.9792 21.6759 88.9792 17.0989C88.9792 12.2383 85.1927 11.134 80.5543 10.1233Z" fill="#222222"/>
</svg>
