<svg width="104" height="34" viewBox="0 0 104 34" fill="none" xmlns="http://www.w3.org/2000/svg">
<path d="M23.753 18.1403C24.1039 17.9648 24.49 17.7542 24.8409 17.5788C24.9813 17.5086 25.4726 17.3331 25.5428 17.1927C25.5779 17.1225 25.5428 16.9119 25.5428 16.8067V15.9644V9.96311V4.10223V3.33014C25.5428 3.29504 25.5779 3.04938 25.5428 3.01428C25.5077 2.97919 25.227 3.01428 25.1919 3.01428H24.4198C24.139 3.01428 24.1741 3.04938 23.9986 3.25995C23.3318 4.13732 22.665 5.0147 21.9982 5.92718C21.6824 6.34832 21.3665 6.73436 21.0858 7.1555C20.8752 7.43626 20.8752 7.47136 20.4891 7.47136L20.5944 5.15508C20.6295 4.59356 20.6295 4.03204 20.6646 3.47052C20.6646 3.25995 20.6997 3.04938 20.6997 2.8388C20.6997 2.76861 20.6646 2.55804 20.6997 2.52295C20.7699 2.41766 21.4016 2.48785 21.5771 2.48785H34.7027C34.7728 2.48785 35.0887 2.45276 35.1589 2.48785C35.2291 2.52295 35.194 2.73352 35.194 2.8388C35.2291 3.29504 35.2291 3.78637 35.2642 4.24261C35.2993 5.26037 35.3344 6.24303 35.4046 7.26079V7.47136C35.2291 7.47136 35.0887 7.50646 34.9483 7.40117C34.8079 7.29588 34.7027 7.08531 34.5974 6.94493C34.1762 6.38341 33.7551 5.78679 33.2989 5.22527L32.0354 3.54071C31.9652 3.43542 31.86 3.18976 31.7196 3.11957C31.6143 3.04938 31.4037 3.08447 31.2633 3.08447H30.7018C30.6316 3.08447 30.3509 3.04938 30.2807 3.08447C30.2456 3.11957 30.2807 3.11957 30.2456 3.18976C30.1754 3.47052 30.2456 3.82147 30.2456 4.10223V16.3153C30.2456 16.561 30.1754 16.9119 30.2456 17.1576C30.3158 17.4033 30.8773 17.5788 31.123 17.684C31.3686 17.8244 31.7898 17.9297 32.0003 18.1403C32.0705 18.2105 32.1407 18.5614 32.0705 18.6667C32.0354 18.7018 31.86 18.6667 31.8249 18.6667H24.1039C24.0337 18.6667 23.7881 18.7018 23.753 18.6667C23.7179 18.5263 23.753 18.2456 23.753 18.1403ZM36.7733 17.5086V12.3847V3.99694V2.62823C36.7733 2.41766 36.8435 2.10181 36.7733 1.89124C36.7031 1.64557 36.2819 1.61048 36.0363 1.50519C35.8959 1.4701 35.4397 1.36481 35.3695 1.22443V0.943669H35.4748C35.6151 0.873478 35.8959 0.873478 36.0714 0.838383C36.3872 0.768193 36.7031 0.733098 36.9838 0.662908C37.6857 0.522527 38.4227 0.382147 39.1246 0.276861C39.5458 0.206671 39.9669 0.101386 40.3881 0.0311957C40.4934 0.0311957 40.9145 -0.0389946 40.9496 0.0311957C40.9847 0.0662908 40.9496 0.206671 40.9496 0.241766V7.50645C42.2832 6.17284 44.5995 5.43584 46.4595 5.89208C48.0739 6.27813 48.6003 7.78722 48.6003 9.3314C48.6354 11.2967 48.6003 13.227 48.6003 15.1923V16.7716C48.6003 16.947 48.5301 17.3682 48.6003 17.5437C48.6354 17.6138 48.7758 17.6489 48.846 17.7191C49.0917 17.8595 49.3724 17.9999 49.6181 18.1403C49.6532 18.1754 49.7585 18.2105 49.7585 18.2456C49.7936 18.2807 49.7936 18.5965 49.7585 18.6316C49.7234 18.7018 49.7234 18.6667 49.6181 18.6667C49.232 18.7369 48.8109 18.6667 48.4599 18.6667H43.4062C43.3711 18.6667 43.1957 18.7018 43.1606 18.6667C43.1255 18.6316 43.1255 18.2456 43.1606 18.2105C43.2659 18.0701 43.687 17.9297 43.8274 17.8244C43.9327 17.7542 44.2485 17.6489 44.3187 17.5437C44.3889 17.4384 44.3187 17.0523 44.3187 16.947V15.5081C44.3187 13.4726 44.3538 11.402 44.3187 9.3665C44.3187 8.76988 44.2134 8.06798 43.6168 7.75212C43.301 7.57665 42.8798 7.54155 42.5289 7.54155C42.2481 7.54155 41.9673 7.61174 41.7217 7.68193C41.5111 7.75212 41.1251 7.8925 40.9847 8.06798C40.8794 8.20836 40.9496 8.41893 40.9496 8.5944V16.8769C40.9496 17.0523 40.8794 17.4033 40.9496 17.5437C40.9847 17.6138 41.1251 17.684 41.2303 17.7191C41.476 17.8595 41.7919 17.9999 42.0375 18.1403C42.0726 18.1754 42.1428 18.1754 42.1428 18.2105C42.1779 18.2456 42.1779 18.5614 42.1428 18.5965C42.1077 18.6316 42.0726 18.6316 42.0024 18.6316C41.6164 18.6667 41.1953 18.6316 40.8092 18.6316H35.7555C35.7204 18.6316 35.5449 18.6667 35.5098 18.6316C35.4748 18.5965 35.5098 18.2456 35.5449 18.1754C35.6502 18.035 36.0363 17.8946 36.1767 17.8244C36.4223 17.7191 36.5978 17.6138 36.7733 17.5086ZM53.4434 12.6654C53.5136 14.2096 54.005 15.9293 55.4088 16.7716C56.1458 17.1927 57.0582 17.3331 57.9005 17.2629C58.9183 17.1576 59.7606 16.6663 60.6379 16.21C60.6379 16.3504 60.673 16.5961 60.6379 16.7365C60.5678 16.8769 60.3923 17.0523 60.287 17.1576C60.1466 17.298 59.9711 17.4735 59.7957 17.6138C59.199 18.1052 58.5322 18.4561 57.8303 18.7018C56.4967 19.158 54.9525 19.1229 53.5838 18.772C52.4959 18.4912 51.5132 17.9648 50.7762 17.1225C50.0392 16.2802 49.6181 15.1923 49.4426 14.0692C49.0566 11.6477 49.5128 8.87516 51.5132 7.26079C53.268 5.85699 56.0756 5.57622 58.1462 6.41851C60.673 7.43626 61.0942 10.3141 61.0942 12.7005H54.391C54.0752 12.6654 53.7593 12.6654 53.4434 12.6654ZM53.3733 12.0688C54.0752 12.0337 54.7771 11.9986 55.5141 11.9284C55.9352 11.8933 56.3914 11.8933 56.8126 11.8582C56.8828 11.8582 57.0582 11.8582 57.1284 11.8232C57.2337 11.753 57.1635 11.0511 57.1635 10.9107C57.1284 9.64726 57.0933 8.10307 56.3563 7.01512C55.8299 6.24303 55.0227 6.38341 54.5314 7.08531C53.5136 8.45402 53.3733 10.4895 53.3733 12.0688ZM0.239258 24.8785C0.239258 22.9132 0.625304 20.8777 1.71325 19.2282C2.76611 17.6138 4.45067 16.561 6.27562 16.0346C8.48661 15.4029 10.9433 15.473 13.2244 15.8942C13.7158 15.9995 14.2071 16.1048 14.6633 16.2451C14.7335 16.2802 15.0494 16.3504 15.0845 16.4206V16.5259C15.1898 16.947 15.1196 17.4735 15.1196 17.8946C15.1547 18.9826 15.1547 20.1056 15.1898 21.1936C15.0494 21.1936 14.8037 21.2286 14.6984 21.1936C14.6283 21.1585 14.5581 20.983 14.523 20.9128C14.2422 20.4916 13.9614 20.0705 13.7158 19.6143C13.1192 18.6667 12.4875 17.7191 11.8908 16.7716C11.575 16.2451 10.6976 16.2451 10.1361 16.2451C9.50437 16.2451 8.87265 16.3504 8.34623 16.6663C7.15299 17.4033 6.59147 18.8422 6.27562 20.1407C5.78429 22.2113 5.81938 24.3872 5.92467 26.4929C6.02995 28.1073 6.17033 29.8269 6.80204 31.3009C7.18809 32.2134 7.8549 33.0206 8.87265 33.2312C9.18851 33.3014 9.50437 33.3014 9.85532 33.2663C10.0659 33.2312 10.8029 33.1961 10.9082 32.9855C10.9433 32.9153 10.9082 32.7398 10.9082 32.6697V32.073V28.353V26.9141C10.9082 26.6684 10.9784 26.5631 10.7678 26.4227C10.5221 26.2823 10.2414 26.142 9.9957 25.9665C9.82022 25.8612 9.46927 25.7559 9.36399 25.6155C9.2938 25.5453 9.2587 25.1593 9.32889 25.0891C9.36399 25.0189 9.36399 25.054 9.46927 25.054C9.78513 24.9838 10.2063 25.054 10.5221 25.054H15.9619C16.3128 25.054 16.6989 25.0189 17.0498 25.054H17.1902C17.2253 25.0891 17.2253 25.5804 17.1902 25.6506C17.12 25.7559 16.7691 25.8963 16.6287 25.9665C16.383 26.1069 16.1022 26.2472 15.8566 26.4227C15.5758 26.5631 15.6109 26.5631 15.6109 26.879V32.5995C15.6109 32.6697 15.646 32.8451 15.6109 32.9153C15.5407 33.0908 14.8037 33.1961 14.5932 33.2663C13.9965 33.4417 13.3648 33.5821 12.7331 33.6874C11.5048 33.898 10.2765 33.9682 9.04813 33.9331C7.0828 33.8629 5.01219 33.4417 3.39782 32.2485C1.99401 31.2308 1.08154 29.6866 0.660399 28.002C0.344543 27.0193 0.239258 25.9314 0.239258 24.8785ZM16.4181 21.6849C16.4181 21.6147 16.383 21.3339 16.4181 21.2988C16.4532 21.2637 16.4883 21.2988 16.5234 21.2637C16.734 21.1585 17.0147 21.1585 17.2604 21.1234C18.0676 20.983 18.8748 20.8426 19.717 20.7022C20.3488 20.5969 20.9805 20.4566 21.5771 20.3864C21.7526 20.3513 21.9631 20.3513 22.1386 20.4215C22.3141 20.4566 22.2439 20.4215 22.279 20.5618C22.3492 20.983 22.279 21.4743 22.279 21.8955V29.2303C22.279 30.1077 22.0333 31.7221 22.8756 32.2485C23.2967 32.5293 23.8934 32.5293 24.3847 32.424C24.7707 32.3538 25.5077 32.073 25.6481 31.6519C25.6832 31.5466 25.6481 31.4062 25.6481 31.3009V30.5639V25.6857V23.4396V22.7026C25.6481 22.6324 25.6832 22.4219 25.6481 22.3517C25.5428 22.2464 25.1919 22.1411 25.0866 22.106C24.876 22.0358 24.7006 21.9305 24.49 21.8604C24.4198 21.8253 24.1741 21.7902 24.139 21.72C24.1039 21.6849 24.1039 21.369 24.139 21.3339C24.1741 21.2988 24.1741 21.3339 24.2092 21.2988C24.3847 21.1935 24.7005 21.2286 24.876 21.1936C26.3149 20.9479 27.7889 20.632 29.2629 20.4215C29.4384 20.3864 29.6139 20.3864 29.7893 20.4215C29.9648 20.4566 29.8946 20.3864 29.9297 20.5618C29.9999 20.9128 29.9297 21.4041 29.9297 21.7902V31.8976C29.9297 32.0028 29.8946 32.1783 29.9297 32.3187C29.9648 32.424 29.9297 32.3889 30.1052 32.4591C30.4561 32.5995 30.8422 32.7749 31.1931 32.9153C31.2984 32.9504 31.3335 32.9504 31.3686 33.0206C31.4037 33.0908 31.4037 33.3365 31.3686 33.3365C31.2984 33.4067 30.9475 33.3716 30.8773 33.4066C30.1052 33.5119 29.3331 33.5821 28.5259 33.6874C27.824 33.7576 27.1221 33.8629 26.4553 33.9331C26.3149 33.9682 26.1745 33.9682 26.0342 33.9331C25.964 33.9331 25.7534 33.9331 25.7183 33.898C25.6832 33.8278 25.7183 33.547 25.7183 33.4768V32.8802C25.7183 32.7749 25.7885 32.4942 25.7183 32.3889C25.6481 32.2836 25.5077 32.424 25.4025 32.4942C25.1217 32.7398 24.8058 32.9855 24.49 33.161C23.3318 33.8629 21.8929 34.1787 20.5593 33.898C19.5767 33.6874 18.7344 33.1259 18.3132 32.1783C17.9974 31.5115 17.9272 30.7745 17.9272 30.0726V25.8963V23.5098V22.7026C17.9272 22.6324 17.9623 22.4219 17.9272 22.3517C17.857 22.2464 17.4359 22.1411 17.3306 22.0709C16.9796 21.9305 16.6989 21.8253 16.4181 21.6849ZM49.5128 20.3513C49.583 20.3513 49.8988 20.3513 49.9339 20.4215C49.969 20.4566 49.9339 20.7022 49.9339 20.7373V23.8257C49.9339 23.931 49.8988 24.1064 49.9339 24.2117V24.2819C50.0743 24.4223 50.1094 23.9661 50.1445 23.931C50.4604 22.6324 51.057 21.1234 52.3906 20.5969C52.6363 20.4916 52.8819 20.4566 53.1276 20.4215C53.3382 20.4215 53.9348 20.3513 54.0401 20.5267C54.0752 20.5969 54.0401 20.7724 54.0401 20.8426V24.4223C53.1978 24.2468 52.2502 24.2819 51.443 24.4574C51.057 24.5276 50.706 24.6329 50.3551 24.8083C50.1796 24.8785 50.1445 24.8434 50.1094 24.9838C50.0743 25.1242 50.1094 25.3699 50.1094 25.5102V32.2836C50.1094 32.3538 50.0743 32.4591 50.1094 32.5293C50.1796 32.6346 50.4253 32.7048 50.5306 32.7398C50.706 32.8451 50.9166 32.9504 51.0921 33.0557C51.1623 33.0908 51.2675 33.1259 51.3026 33.1961C51.3377 33.2312 51.3377 33.6523 51.3026 33.6874C51.2675 33.7225 51.057 33.6874 50.9868 33.6874H45.161C44.9855 33.6874 44.6697 33.7576 44.5293 33.6874H44.424C44.3889 33.6523 44.424 33.2663 44.424 33.2312C44.4942 33.0206 44.9504 32.8802 45.161 32.7749C45.3014 32.7047 45.5821 32.5995 45.6523 32.4591C45.6874 32.3889 45.6523 32.1783 45.6523 32.1081V31.3711V22.3517C45.6523 22.3166 45.6874 22.1411 45.6523 22.106C45.6172 22.0709 45.4418 22.0358 45.3716 22.0358C45.161 21.9656 44.9504 21.8955 44.7399 21.8604C44.5293 21.7902 44.0029 21.7551 44.1783 21.4041C44.2134 21.2988 44.3538 21.3339 44.4942 21.2988C46.0384 21.0181 47.5475 20.7373 49.0917 20.4566C49.232 20.3864 49.3724 20.3864 49.5128 20.3513ZM62.7437 20.6671V17.8595V17.0523C62.7437 16.947 62.7787 16.7365 62.7437 16.6312C62.7086 16.561 62.5682 16.5259 62.4629 16.4908C62.1821 16.3855 61.9014 16.2802 61.5855 16.1749C61.3749 16.1048 61.2697 16.1399 61.2697 15.8942C61.2697 15.6836 61.2346 15.7538 61.41 15.7187C61.7961 15.5783 62.2523 15.5783 62.6384 15.5081C63.7965 15.2976 64.9195 15.087 66.0777 14.8764C66.3234 14.8413 66.569 14.7711 66.8147 14.8062C67.0955 14.8413 67.1305 14.7711 67.1305 15.0168C67.1656 15.5783 67.1305 16.1749 67.1305 16.7365V32.1081C67.1305 32.2485 67.0954 32.2485 67.2007 32.3187C67.4113 32.4591 67.7623 32.5293 67.9728 32.5995C68.1132 32.6346 68.4993 32.7047 68.5694 32.81C68.6045 32.8451 68.6045 33.2312 68.5694 33.2663C68.5343 33.3014 68.3238 33.3014 68.2887 33.3014C67.7973 33.3716 67.3411 33.4417 66.8498 33.4768C65.7618 33.6172 64.6739 33.7576 63.5508 33.898C63.3754 33.9331 62.9542 34.0033 62.884 33.8629C62.8138 33.7225 62.884 33.2663 62.884 33.1259C62.884 33.0206 62.9542 32.5644 62.884 32.4942C62.8138 32.424 62.0417 33.1259 61.9365 33.1961C61.5153 33.4768 61.0591 33.6874 60.5678 33.8278C59.7957 34.0384 58.9183 34.0384 58.1462 33.8629C54.7771 33.0908 54.0752 29.09 54.3559 26.1771C54.4963 24.6329 54.9876 23.0887 56.0405 21.9656C57.0231 20.9479 58.3568 20.4215 59.7255 20.3162C60.7783 20.2109 61.7961 20.2811 62.7437 20.6671ZM62.7437 31.8625V23.2291V21.6147C62.7437 21.4041 62.7086 21.369 62.4629 21.2286C61.9716 20.9479 61.3398 20.8426 60.8134 21.0532C60.0062 21.369 59.6202 22.3166 59.4096 23.0887C58.9885 24.4925 58.9534 26.0016 58.9885 27.4756C59.0236 28.739 59.0587 30.2832 59.7606 31.4062C60.3923 32.3889 61.8312 32.6346 62.7437 31.8625ZM74.3601 20.3513C74.5356 20.3864 74.7462 20.3162 74.8164 20.4916C74.8515 20.5969 74.8164 20.8426 74.8164 20.9479V31.9327C74.8164 32.073 74.7813 32.2836 74.8164 32.424C74.8515 32.5644 74.9918 32.5995 75.1322 32.6697C75.3428 32.7749 75.5183 32.8802 75.7288 32.9855C75.799 33.0206 76.0096 33.0908 76.0447 33.1961C76.0447 33.2312 76.0798 33.6523 76.0447 33.6874H75.9394C75.7288 33.7225 75.4481 33.6874 75.2024 33.6874H69.868C69.7276 33.6874 69.3415 33.7576 69.2362 33.6874C69.1661 33.6523 69.131 33.2312 69.2011 33.161C69.2713 33.0557 69.517 32.9855 69.6223 32.9504C69.8329 32.8451 70.0434 32.7047 70.254 32.5995C70.4295 32.4942 70.3944 32.5293 70.3944 32.3889C70.4646 31.8625 70.3944 31.2658 70.3944 30.7394V27.9669V22.9132C70.3944 22.7728 70.4295 22.5272 70.3944 22.3868C70.3593 22.2464 70.1838 22.2464 70.0434 22.1762C69.7978 22.0709 69.5872 22.0007 69.3415 21.8955C69.2713 21.8604 68.9906 21.8253 68.9204 21.72C68.8853 21.6849 68.8853 21.3339 68.9204 21.2988C68.9555 21.2637 69.0257 21.2988 69.0608 21.2637C69.3415 21.1585 69.6574 21.1585 69.9732 21.0883C70.4295 21.0181 70.8506 20.9128 71.3069 20.8426C72.1842 20.7022 73.0265 20.5267 73.9039 20.3864C74.0794 20.4215 74.2198 20.3864 74.3601 20.3513ZM74.8515 17.0874C74.7813 19.1931 71.9386 20.1056 70.6401 18.4561C70.0434 17.684 70.0083 16.6312 70.5348 15.824C71.0612 15.0168 72.0789 14.6659 73.0265 14.8764C74.0794 15.087 74.8515 15.9995 74.8515 17.0874ZM90.2231 32.4942V24.0363V22.4219C90.2231 22.3868 90.2582 22.2113 90.2231 22.1762C90.188 22.106 89.9775 22.0709 89.9073 22.0709L89.2756 21.8604C89.1703 21.8253 88.8895 21.7902 88.8193 21.6849C88.7491 21.6147 88.7842 21.4392 88.7842 21.3339C88.7842 21.1234 88.8544 21.1585 89.065 21.1234L91.3813 20.7022L93.6975 20.2811C93.8379 20.246 93.9432 20.2109 94.0836 20.2109C94.1538 20.2109 94.5047 20.2109 94.5749 20.246C94.61 20.2811 94.5749 20.4916 94.5749 20.5618V21.2286C94.5749 21.3339 94.5047 21.6498 94.5749 21.7551C94.6451 21.8955 94.7855 21.7551 94.8908 21.6498C95.2066 21.4041 95.5225 21.1936 95.8734 21.0181C97.1369 20.3162 98.646 20.0003 100.085 20.2109C101.068 20.3513 101.875 20.8777 102.226 21.8253C102.471 22.4921 102.506 23.194 102.506 23.8959V31.8976C102.506 32.0379 102.471 32.2836 102.506 32.424C102.542 32.5644 102.647 32.5995 102.822 32.6697C102.998 32.7749 103.208 32.8802 103.384 32.9855C103.454 33.0206 103.7 33.0908 103.735 33.1961C103.77 33.2663 103.77 33.6172 103.735 33.6523C103.7 33.7225 103.77 33.6523 103.665 33.6874C103.524 33.7576 103.208 33.6874 103.033 33.6874H98.0142C97.8037 33.6874 96.9965 33.7927 96.8912 33.6523C96.8561 33.6172 96.8561 33.2312 96.8912 33.161C96.9263 33.0908 97.1369 33.0206 97.2071 32.9855C97.4176 32.8802 97.5931 32.7749 97.8037 32.6697C97.8739 32.6346 98.0844 32.5644 98.1195 32.4942C98.1546 32.424 98.1195 32.2836 98.1195 32.2134V31.4413V28.9847V24.2468C98.1195 23.6853 98.1546 23.0536 97.8037 22.5623C97.5229 22.1411 97.0316 22.0358 96.5402 22.0007C96.1542 22.0007 95.8033 22.0358 95.4523 22.1411C95.2768 22.2113 94.7504 22.3517 94.6451 22.5623C94.61 22.6325 94.6451 22.7728 94.6451 22.843V31.9327C94.6451 32.0379 94.61 32.2836 94.6451 32.3889C94.6802 32.5293 94.8908 32.5644 94.9961 32.6346C95.1715 32.7398 95.3821 32.8451 95.5576 32.9504C95.6278 32.9855 95.7682 33.0557 95.8033 33.0908C95.8383 33.1259 95.8383 33.547 95.8033 33.5821C95.8033 33.6172 95.7682 33.5821 95.7331 33.5821C95.5927 33.6523 95.2417 33.5821 95.1013 33.5821H89.2054C89.0299 33.5821 88.9948 33.6172 88.9597 33.5119C88.9246 33.4417 88.9246 33.1259 88.9597 33.0557C88.9948 32.9855 89.2054 32.9153 89.2756 32.8802C89.6265 32.8451 89.9073 32.6697 90.2231 32.4942ZM82.783 26.0367C82.783 25.1242 82.8181 24.1766 82.7479 23.2291C82.6426 22.2113 82.3618 21.0883 81.2037 20.8777C80.8527 20.8075 80.221 20.7022 79.9753 20.983C79.7297 21.2286 79.5542 21.5796 79.3436 21.8604L77.5538 24.2819C77.4485 24.4223 77.3432 24.7031 77.2028 24.7733C77.1677 24.8083 76.8168 24.8083 76.8168 24.7733C76.7817 24.7382 76.8168 24.4925 76.8168 24.4223V21.5796C76.8168 21.4743 76.7817 21.2988 76.8168 21.1936C76.887 21.0181 77.6591 20.9128 77.8345 20.8426C78.8172 20.5969 79.835 20.4215 80.8527 20.3513C82.2916 20.246 83.906 20.2811 85.2396 20.9128C86.2925 21.4041 86.9593 22.2815 87.1348 23.4045C87.24 23.9661 87.2049 24.5978 87.2049 25.1593V32.1783C87.2049 32.2836 87.1348 32.5644 87.2049 32.6346C87.24 32.6697 87.4155 32.7047 87.4506 32.7047C87.7314 32.7749 87.977 32.8451 88.2578 32.9153C88.4333 32.9504 88.4684 32.9504 88.4684 33.1259C88.4684 33.3014 88.5035 33.3014 88.2929 33.3716C88.0472 33.4768 87.8016 33.5821 87.5559 33.6523C86.2574 34.0384 84.2219 34.1436 83.2743 32.9504C83.2041 32.8451 82.9935 32.3889 82.8882 32.3538C82.7479 32.3187 82.3267 32.8802 82.1863 32.9855C81.6248 33.4768 80.8878 33.7576 80.1508 33.8629C78.7821 34.0384 77.3081 33.7576 76.4658 32.5644C75.7639 31.5466 75.6236 29.9673 76.15 28.8443C77.0975 26.7035 79.9052 26.4929 81.9407 26.142C82.1863 26.142 82.4671 26.0718 82.783 26.0367ZM82.783 31.8625V26.6684C81.7301 26.7386 80.6422 26.8088 80.2561 27.9669C79.9753 28.739 79.9753 29.6515 80.0806 30.4587C80.1508 31.0202 80.2912 31.7221 80.8176 32.073C81.3792 32.4591 82.3267 32.3889 82.783 31.8625ZM38.3525 26.0367C38.3525 25.1242 38.3876 24.1766 38.3175 23.2291C38.2122 22.2113 37.9314 21.0883 36.7733 20.8777C36.4223 20.8075 35.7906 20.7022 35.5449 20.983C35.2993 21.2286 35.1238 21.5796 34.9132 21.8604L33.1234 24.2819C33.0181 24.4223 32.9128 24.7031 32.7724 24.7733C32.7373 24.8083 32.3864 24.8083 32.3864 24.7733C32.3513 24.7382 32.3864 24.4925 32.3864 24.4223V21.6147C32.3864 21.5094 32.3513 21.3339 32.3864 21.2286C32.4566 21.0532 33.1936 20.9479 33.4041 20.8777C34.3868 20.632 35.4046 20.4566 36.3872 20.3864C37.8261 20.2811 39.4405 20.3162 40.7741 20.9479C41.827 21.4392 42.4938 22.3166 42.6692 23.4396C42.7745 24.0012 42.7394 24.6329 42.7394 25.1944V32.2134C42.7394 32.3187 42.6692 32.5995 42.7394 32.6697C42.7745 32.7047 42.95 32.7398 42.9851 32.7398C43.2659 32.81 43.5115 32.8802 43.7923 32.9504C43.9678 32.9855 44.0029 32.9855 44.0029 33.161C44.0029 33.3365 44.038 33.3365 43.8274 33.4066C43.5817 33.5119 43.3361 33.6172 43.0904 33.6874C41.7919 34.0735 39.7564 34.1787 38.8088 32.9855C38.7386 32.8802 38.528 32.424 38.4227 32.3889C38.2824 32.3538 37.8612 32.9153 37.7559 33.0206C37.1944 33.5119 36.4574 33.7927 35.7204 33.898C34.3517 34.0735 32.8777 33.7927 32.0354 32.5995C31.3335 31.5817 31.1931 30.0024 31.7196 28.8794C32.6671 26.7386 35.4747 26.528 37.4752 26.1771C37.7559 26.142 38.0367 26.0718 38.3525 26.0367ZM38.3525 31.8625V26.6684C37.2997 26.7386 36.2117 26.8088 35.8257 27.9669C35.5449 28.739 35.5449 29.6515 35.6502 30.4587C35.7204 31.0202 35.8608 31.7221 36.3872 32.073C36.9487 32.4591 37.8963 32.3889 38.3525 31.8625Z" fill="#121212"/>
</svg>
