<svg width="116" height="20" viewBox="0 0 116 20" fill="none" xmlns="http://www.w3.org/2000/svg">
<g clip-path="url(#clip0_5529_197244)">
<path d="M0.125 7.14222C0.125 1.53421 3.31176 0.211342 8.6666 0.211342H17.6102C24.3577 0.211342 25.2945 2.61739 25.2945 6.34806V6.95739H19.4562C19.4562 5.05269 18.3581 4.81489 16.4584 4.81489H10.0055C7.00576 4.81489 6.2299 5.52843 6.2299 8.80911V11.1893C6.2299 14.4718 7.00576 15.1854 10.0055 15.1854H16.351C17.9047 15.1854 19.4562 14.9476 19.4562 13.0959V12.5396H12.0663V8.57131H25.4019V14.022C25.4019 19.5238 22.5097 19.7891 15.816 19.7891H8.66674C3.31176 19.7891 0.125136 18.4663 0.125136 12.8583L0.125 7.14222ZM26.8739 0.422181H48.0791V4.86639H32.8177V7.93677H47.2775V11.9054H32.8177V14.9736H48.4271V19.5773H26.8739V0.422181ZM50.2263 0.421912H56.172V19.577H50.2262L50.2263 0.421912ZM57.9667 7.14222C57.9667 1.53421 61.1534 0.211342 66.5083 0.211342H73.4964C81.9566 0.211342 83.0567 2.00995 83.0009 7.433H77.0571V6.90441C77.0571 5.52843 76.0407 5.13142 74.2723 5.13142H67.7934C64.6604 5.13142 64.0716 6.58788 64.0716 8.96832V11.0322C64.0716 13.8097 64.6604 14.8691 67.4731 14.8691H73.8188C76.4963 14.8691 77.2979 14.6037 77.2979 12.2215H83.2417V14.0219C83.2417 17.2494 82.0641 19.7889 76.0924 19.7889H66.5084C61.1534 19.7889 57.9667 18.4662 57.9667 12.8582V7.14222ZM90.392 11.0318C90.392 13.8093 90.9808 14.8687 93.7936 14.8687H101.396C104.207 14.8687 104.796 13.8091 104.796 11.0318V8.96792C104.796 6.58748 104.207 5.13102 101.076 5.13102H94.1138C90.9808 5.13102 90.3922 6.58748 90.3922 8.96792L90.392 11.0318ZM84.2871 7.14181C84.2871 1.53381 87.474 0.210938 92.8289 0.210938H102.359C107.716 0.210938 110.903 1.53381 110.903 7.14181V12.8578C110.903 18.4658 107.716 19.7887 102.359 19.7887H92.8289C87.4739 19.7887 84.2873 18.4658 84.2873 12.8578L84.2871 7.14181ZM113.162 17.3999C113.462 17.3999 113.93 17.4489 113.93 17.0165C113.93 16.6902 113.637 16.6509 113.372 16.6509H112.76V17.3999H113.162ZM114.166 18.5812H113.856L113.241 17.6042H112.76V18.5812H112.497V16.4603H113.434C113.613 16.4603 113.794 16.4721 113.955 16.5645C114.115 16.6548 114.196 16.8435 114.196 17.0224C114.196 17.4391 113.9 17.5944 113.518 17.6042L114.166 18.5812ZM114.894 17.5178C114.894 16.5998 114.14 15.8569 113.211 15.8569C112.276 15.8569 111.524 16.5998 111.524 17.5177C111.524 18.4475 112.276 19.1905 113.211 19.1905C114.14 19.1905 114.894 18.4475 114.894 17.5178ZM111.288 17.5178C111.288 16.476 112.147 15.6269 113.211 15.6269C114.27 15.6269 115.125 16.476 115.125 17.5178C115.125 18.5693 114.27 19.4205 113.211 19.4205C112.147 19.4205 111.288 18.5693 111.288 17.5178Z" fill="#104293"/>
</g>
<defs>
<clipPath id="clip0_5529_197244">
<rect width="115" height="20" fill="white" transform="translate(0.125)"/>
</clipPath>
</defs>
</svg>
