<svg width="115" height="32" viewBox="0 0 115 32" fill="none" xmlns="http://www.w3.org/2000/svg">
<g clip-path="url(#clip0_6824_221709)">
<path d="M42.0222 7.95996V10.9333H34.0152V14.1686H41.3844V17.1631H34.0152V23.4022H30.1699V7.95996H42.0222Z" fill="#306BEA"/>
<path d="M44.4609 7.93945H47.7836V10.5595H44.4609V7.93945ZM44.4609 11.9648H47.7836V23.4029H44.4609V11.9648Z" fill="#306BEA"/>
<path d="M49.4214 11.9864H52.9664C54.3677 17.0597 54.6085 18.0985 54.979 20.2818C55.4369 17.7451 55.503 17.4619 56.1845 14.7718L56.8832 11.9731H60.3392L56.6423 23.3901H53.1198L49.4214 11.9864Z" fill="#306BEA"/>
<path d="M72.5984 20.4903C72.2109 21.1136 71.7475 21.6879 71.2184 22.1973C70.0395 23.2639 68.4989 23.8434 66.9098 23.8169C63.5172 23.8169 61.1338 21.6336 61.1338 17.91C61.1338 15.155 62.4915 11.6101 66.9972 11.6101C68.5361 11.5624 70.0258 12.1565 71.1098 13.2522C72.5984 14.8507 72.6858 17.0803 72.7292 18.3692H64.5744C64.5532 19.793 65.3601 21.2115 67.1944 21.2115C69.0281 21.2115 69.6646 20.006 70.0801 19.1988L72.5984 20.4903ZM69.2492 16.2692C69.2218 15.6751 68.9989 15.1061 68.6166 14.6496C68.1709 14.2353 67.5835 14.0091 66.9749 14.0171C66.3264 14.0144 65.7081 14.2843 65.2675 14.7594C64.9035 15.1894 64.6698 15.7121 64.5915 16.2705H69.2492V16.2692Z" fill="#306BEA"/>
<path d="M75.4958 8.68066H78.8449V12.2468H81.0535V14.3031H78.8226V19.4413C78.8226 20.1399 78.8226 20.7513 79.6958 20.7513L80.9015 20.7076V23.3276C80.3163 23.4348 79.7238 23.493 79.1295 23.5023C77.9678 23.5023 76.7026 23.4375 75.9815 22.3842C75.5238 21.708 75.5015 20.8955 75.5015 19.8039V14.2806H73.8369V12.2216H75.4998L75.4958 8.68066Z" fill="#306BEA"/>
<path d="M86.6265 13.165C87.3688 12.5325 88.1814 12.0297 89.9265 11.855V14.8416L88.8134 15.0162C87.194 15.2994 86.7134 15.5402 86.7134 16.9852V23.4029H83.3643V11.9648H86.6437L86.6265 13.165Z" fill="#306BEA"/>
<path d="M91.6916 15.2216C91.6773 14.2345 92.123 13.2977 92.8973 12.685C93.9453 11.8553 95.303 11.6807 96.6379 11.6807C98.039 11.6807 101.44 12.0075 101.44 14.9596V21.6089C101.44 22.8356 101.505 23.0103 101.767 23.4033H98.4665V22.3513C97.5933 22.9838 96.651 23.7089 94.9745 23.7089C92.3545 23.7089 91.2339 21.8273 91.2339 20.2169C91.2339 18.3789 92.7013 17.3309 93.6396 16.9379C94.5779 16.5449 96.7213 16.1519 98.1453 15.8899V15.2785C98.1013 14.7545 98.0579 13.8772 96.835 13.8772C95.3465 13.8772 95.1493 14.7943 95.063 15.2137L91.6916 15.2216ZM95.9567 18.6582C95.3887 18.8764 94.5116 19.2033 94.5116 20.0819C94.547 20.7542 95.119 21.2715 95.791 21.2384C96.2053 21.2266 96.6076 21.0982 96.9528 20.8679C98.0659 20.1693 98.1093 19.1212 98.1356 17.9383L95.9567 18.6582Z" fill="#306BEA"/>
<path d="M107.524 13.0128C107.832 12.633 108.221 12.3274 108.664 12.1183C109.321 11.8404 110.028 11.6922 110.741 11.6816C111.446 11.6671 112.145 11.8245 112.774 12.1394C113.98 12.7719 114.286 13.8027 114.286 15.5759V23.4042H110.942V16.9732C110.942 15.9478 110.921 15.5719 110.79 15.2663C110.517 14.6893 109.915 14.3413 109.278 14.3929C107.507 14.3929 107.507 15.8167 107.507 17.2352V23.4042H104.15V12.0084H107.542L107.524 13.0128Z" fill="#306BEA"/>
<path d="M15.7849 15.8802H18.974C19.228 15.8855 19.4397 15.6831 19.445 15.429C19.4464 15.3642 19.4344 15.2993 19.4093 15.2398L13.9218 0.304356C13.8557 0.121749 13.6823 -0.00131267 13.4878 1.05676e-05H10.2869C10.0328 -0.00131267 9.82504 0.20379 9.82373 0.459175C9.82373 0.514751 9.83299 0.569005 9.85287 0.620611L15.339 15.5759C15.4065 15.7625 15.5865 15.8855 15.7849 15.8802Z" fill="#306BEA"/>
<path d="M15.2091 31.7578H18.3981C18.6522 31.7591 18.8599 31.554 18.8613 31.2986C18.8613 31.243 18.852 31.1888 18.8321 31.1372L7.51712 0.304352C7.45095 0.121745 7.27763 6.36688e-06 7.08175 6.36688e-06H3.89673C3.64267 -0.00131687 3.43492 0.203786 3.43359 0.459171C3.43359 0.514747 3.44286 0.569 3.46271 0.620606L14.7751 31.4561C14.8426 31.6374 15.0159 31.7578 15.2091 31.7578Z" fill="#306BEA"/>
<path d="M8.93076 31.7577H12.1198C12.3738 31.7696 12.5895 31.5724 12.6014 31.3183C12.6041 31.2561 12.5948 31.1953 12.5736 31.137L7.06761 16.1818C7.00144 15.9992 6.82813 15.8761 6.63361 15.8775H3.42872C3.17466 15.8841 2.97352 16.0958 2.98014 16.3499C2.98146 16.4015 2.99205 16.4531 3.01057 16.502L8.49676 31.4573C8.56424 31.6372 8.73756 31.7577 8.93076 31.7577Z" fill="#306BEA"/>
<path d="M16.17 0.624583L18.7424 7.62057C18.8086 7.80314 18.9819 7.92623 19.1765 7.92491H22.3655C22.6195 7.92623 22.8273 7.72114 22.8286 7.46571C22.8286 7.41017 22.8194 7.35589 22.7995 7.30429L20.2271 0.304356C20.161 0.121749 19.9876 -0.00131267 19.7931 1.05676e-05H16.6041C16.35 -0.00131267 16.141 0.202466 16.1396 0.457852C16.1396 0.514751 16.1489 0.571651 16.17 0.624583Z" fill="#306BEA"/>
<path d="M3.04742 31.7588H6.23646C6.49051 31.7601 6.69823 31.555 6.6996 31.2996C6.6996 31.244 6.69029 31.1898 6.67046 31.1382L4.08353 24.1237C4.01736 23.9411 3.84402 23.818 3.6495 23.8193H0.464458C0.210395 23.818 0.00132324 24.0218 0 24.2772C0 24.3341 0.00926269 24.391 0.0304346 24.4439L2.60282 31.4584C2.6703 31.6424 2.85026 31.7641 3.04742 31.7588Z" fill="#306BEA"/>
</g>
<defs>
<clipPath id="clip0_6824_221709">
<rect width="114.286" height="32" fill="white"/>
</clipPath>
</defs>
</svg>
