<svg width="192" height="192" viewBox="0 0 192 192" fill="none" xmlns="http://www.w3.org/2000/svg">
<g clip-path="url(#clip0)">
<path d="M160.497 0.00488281H32.4966C24.0097 0.00488281 15.8703 3.37611 9.86914 9.37728C3.86798 15.3784 0.496582 23.518 0.496582 32.0049V160.005C0.496582 168.492 3.86798 176.631 9.86914 182.632C15.8703 188.634 24.0097 192.005 32.4966 192.005H160.497C168.984 192.005 177.123 188.634 183.124 182.632C189.125 176.631 192.497 168.492 192.497 160.005V32.0049C192.497 23.518 189.125 15.3784 183.124 9.37728C177.123 3.37611 168.984 0.00488281 160.497 0.00488281ZM157.563 146.938C157.549 149.622 156.477 152.191 154.58 154.088C152.682 155.986 150.113 157.057 147.43 157.071H45.5633C42.8709 157.071 40.2878 156.005 38.3789 154.106C36.4701 152.208 35.3907 149.631 35.3766 146.938V45.1247C35.3906 42.4273 36.4683 39.8445 38.3757 37.9372C40.283 36.0298 42.866 34.9525 45.5633 34.9385H147.43C150.122 34.9526 152.7 36.0322 154.598 37.9411C156.497 39.8499 157.563 42.4322 157.563 45.1247V146.938ZM122.683 116.379C122.683 117.92 122.071 119.399 120.981 120.489C119.89 121.579 118.412 122.191 116.87 122.191H76.1232C74.5814 122.191 73.1027 121.579 72.0125 120.489C70.9223 119.399 70.3099 117.92 70.3099 116.379V75.6312C70.3099 74.0894 70.9223 72.6107 72.0125 71.5205C73.1027 70.4303 74.5814 69.8187 76.1232 69.8187H116.87C118.412 69.8187 119.89 70.4303 120.981 71.5205C122.071 72.6107 122.683 74.0894 122.683 75.6312V116.379Z" fill="black"/>
</g>
<defs>
<clipPath id="clip0">
<rect width="192" height="192" fill="white"/>
</clipPath>
</defs>
</svg>
