<svg width="40" height="40" viewBox="0 0 40 40" fill="none" xmlns="http://www.w3.org/2000/svg">
<path d="M0.57666 10.5842V29.8018H20.2079L39.4233 10.5863H0.57666V10.5842Z" fill="url(#paint0_linear_1059_17096)"/>
<path d="M25.4425 27.8374V29.2706H25.6588V28.6486H25.9022L26.2943 29.2706H26.5377L26.1185 28.6486C26.328 28.6227 26.4971 28.5009 26.4971 28.243C26.4971 27.9605 26.3242 27.8374 25.9833 27.8374H25.4425ZM25.6588 28.0267H25.9563C26.1026 28.0267 26.2673 28.0504 26.2673 28.2295C26.2673 28.4532 26.1005 28.4729 25.9157 28.4729H25.6588V28.0267ZM25.9293 27.31C25.243 27.31 24.6582 27.8388 24.6582 28.554C24.6582 29.2744 25.243 29.8115 25.9293 29.8115C26.606 29.8115 27.1732 29.2745 27.1732 28.554C27.1732 27.8388 26.606 27.31 25.9293 27.31ZM25.9293 27.5128C26.4891 27.5128 26.9298 27.9651 26.9298 28.554C26.9298 29.1529 26.4891 29.5951 25.9293 29.5951C25.3598 29.5951 24.9016 29.1529 24.9016 28.554C24.9016 27.9651 25.3598 27.5128 25.9293 27.5128Z" fill="#1870C5"/>
<path fill-rule="evenodd" clip-rule="evenodd" d="M23.8537 19.7795H23.0117V16.7001H23.8537C24.9778 16.7001 25.8726 17.0705 25.8726 18.2201C25.8726 19.4074 24.9778 19.7795 23.8537 19.7795ZM14.7912 21.981C14.3455 21.981 13.9276 21.8997 13.5663 21.7638L14.7791 17.9389H14.805L15.9928 21.7742C15.6349 21.9023 15.2278 21.981 14.7925 21.981H14.7912ZM23.6305 14.1984H19.8068V23.2903L16.4665 14.1984H13.1557L10.3017 21.7997C10.0001 19.8838 8.01539 19.2205 6.45513 18.7259C5.42665 18.3949 4.33196 17.9086 4.34191 17.3699C4.35057 16.9294 4.92993 16.521 6.07264 16.582C6.84282 16.6209 7.52213 16.6832 8.8708 17.3353L10.1991 15.0213C8.96859 14.3926 7.26338 13.998 5.86842 13.995H5.85976C4.23244 13.995 2.87642 14.5255 2.03528 15.3939C1.45073 16.0013 1.13444 16.7698 1.12016 17.6252C1.09853 18.7969 1.52991 19.6285 2.43292 20.2935C3.19703 20.8534 4.17187 21.2139 5.03291 21.4839C6.09514 21.8114 6.96224 22.0974 6.95229 22.7071C6.94363 22.929 6.86099 23.1371 6.70046 23.3016C6.4361 23.5763 6.02981 23.678 5.46775 23.6905C4.38432 23.7122 3.58082 23.5434 2.30095 22.7871L1.12016 25.1335C2.39614 25.86 3.90663 26.2849 5.44828 26.2849H5.64775C6.98906 26.2589 8.0725 25.876 8.9383 25.1803L9.07849 25.0578L8.696 26.0859H12.1683L12.7515 24.3123C13.3616 24.5187 14.0565 24.6346 14.7921 24.6346C15.5099 24.6346 16.187 24.5265 16.7863 24.3292L17.347 26.0859H23.0126V22.4124H24.2488C27.2343 22.4124 29.0022 20.8928 29.0022 18.3426C29.0022 15.5042 27.2853 14.2023 23.63 14.2023" fill="white"/>
<defs>
<linearGradient id="paint0_linear_1059_17096" x1="19.9864" y1="10.5946" x2="19.9864" y2="29.8025" gradientUnits="userSpaceOnUse">
<stop stop-color="#00B8F1"/>
<stop offset="0.219864" stop-color="#06A5E5"/>
<stop offset="0.794312" stop-color="#1870C5"/>
<stop offset="1" stop-color="#1D61BC"/>
</linearGradient>
</defs>
</svg>
