<svg width="40" height="40" viewBox="0 0 40 40" fill="none" xmlns="http://www.w3.org/2000/svg">
<path d="M14.8321 10.8016C6.64462 10.8016 0 8.45399 0 5.3985V34.0626C0 37.0222 6.52629 39.4154 14.6227 39.4611H14.8321C23.0195 39.4611 29.6641 37.1135 29.6641 34.0626V5.3985C29.6641 8.38091 23.0195 10.797 14.8321 10.797V10.8016Z" fill="url(#paint0_linear_8_174)"/>
<path d="M29.6641 5.39849C29.6641 8.38091 23.0195 10.797 14.8321 10.797C6.64462 10.797 0 8.38091 0 5.39849C0 2.41608 6.64462 0 14.8321 0C23.0195 0 29.6641 2.34757 29.6641 5.39849Z" fill="#E8E8E8"/>
<path d="M26.2006 4.95558C26.2006 6.85556 21.0988 8.38102 14.8319 8.38102C8.56507 8.38102 3.50879 6.85556 3.50879 4.95558C3.50879 3.0556 8.56052 1.52557 14.8319 1.52557C21.1034 1.52557 26.2006 3.07387 26.2006 4.95101" fill="#50E6FF"/>
<path d="M14.8323 5.75012C11.7876 5.69075 8.75199 6.12463 5.84839 7.04265C8.75199 8.01091 11.7967 8.46307 14.855 8.38086C17.9134 8.46307 20.9581 8.01091 23.8617 7.04265C20.9399 6.12007 17.8906 5.68618 14.8323 5.75012V5.75012Z" fill="#198AB3"/>
<path d="M23.9574 24.9098V16.9764H21.782V26.6956H27.5392V24.9098H23.962H23.9574ZM7.22757 20.9865C6.79521 20.8084 6.39016 20.5617 6.03518 20.2603C5.87589 20.0456 5.81217 19.7762 5.84858 19.5113C5.84858 19.2235 5.98967 18.9495 6.22177 18.7851C6.51304 18.5978 6.85893 18.511 7.20481 18.5247C8.03767 18.4973 8.85686 18.7348 9.54408 19.2053V17.1865C8.79315 16.9125 8.00126 16.7846 7.20481 16.812C6.19902 16.7252 5.19777 17.0221 4.39678 17.6341C3.76873 18.1548 3.41829 18.9312 3.4365 19.7488C3.4365 20.9454 4.18288 21.8862 5.77577 22.5896C6.28549 22.8134 6.76336 23.0966 7.20481 23.4345C7.44147 23.6127 7.578 23.8913 7.578 24.1836C7.578 24.4713 7.43692 24.7453 7.20481 24.9098C6.89079 25.1153 6.52215 25.2112 6.15351 25.1929C5.16592 25.2021 4.21929 24.823 3.50931 24.1379V26.321C4.28755 26.7001 5.14771 26.8874 6.01242 26.86C6.98636 26.9057 7.95575 26.6407 8.77494 26.1109C9.43941 25.5994 9.81715 24.791 9.78074 23.9506C9.80349 23.3478 9.59414 22.7586 9.19365 22.3064C8.63841 21.7355 7.9694 21.2879 7.22757 20.9911V20.9865ZM19.3927 24.6723C19.9206 23.7679 20.1891 22.7358 20.1664 21.6899C20.1846 20.7947 19.9843 19.9086 19.5793 19.1094C19.2152 18.374 18.6463 17.7666 17.9409 17.3464C17.2263 16.9399 16.4208 16.7298 15.6016 16.7344C14.7096 16.7207 13.8312 16.9353 13.053 17.3692C12.3203 17.794 11.7286 18.4197 11.3463 19.1779C10.9231 20.0137 10.7137 20.9408 10.7365 21.8771C10.7228 22.7312 10.914 23.5761 11.2963 24.3434C11.6512 25.0696 12.2019 25.6771 12.8891 26.1064C13.5946 26.5357 14.4047 26.7732 15.2284 26.7869L17.2172 29.1345H20.0025L17.1945 26.5266C18.1184 26.184 18.8966 25.5263 19.3927 24.6723V24.6723ZM17.2172 24.0603C16.3844 25.0513 14.9098 25.1792 13.9222 24.3434C13.8221 24.2566 13.7265 24.1607 13.6401 24.0603C13.1531 23.3797 12.921 22.5485 12.9847 21.7127C12.921 20.8723 13.1622 20.0411 13.6628 19.3651C14.0906 18.7896 14.7733 18.4654 15.4878 18.4973C16.1796 18.4745 16.8395 18.8033 17.2446 19.3651C17.7042 20.0593 17.9272 20.8814 17.8772 21.7127C17.9727 22.5713 17.7361 23.4345 17.2218 24.1288V24.0603H17.2172Z" fill="#F2F2F2"/>
<path d="M33.4783 39.9132L34.038 38.0589L35.1394 37.4241L37.0327 38.269L38.2478 37.0267V36.8851L37.3831 35.2181L37.8974 34.0443L39.7906 33.3638H40V31.6511H39.7679L37.8974 31.0893L37.2875 30.0114L38.1067 28.084L36.8688 26.8874H36.7277L35.0666 27.7324L33.9197 27.029L33.1733 24.9418H31.4439V25.2021L30.8841 27.0564L29.6917 27.5725L27.6574 26.6317L26.465 27.8739L26.5833 28.1069L27.4708 29.8424L27.002 31.0391L24.8038 31.7196V33.4551H25.0633L26.911 34.0169L27.4253 35.2135L26.5151 37.2322L27.753 38.4517L27.9623 38.333L29.6917 37.4423L30.8841 37.9128L31.6806 40H33.3872L33.4828 39.9041L33.4783 39.9132ZM30.6702 34.3731C29.6872 33.4049 29.6735 31.8246 30.6338 30.8381C31.5986 29.8516 33.1733 29.8379 34.1564 30.8016C35.1394 31.7698 35.1531 33.3501 34.1928 34.3366C33.2325 35.3231 31.6533 35.3368 30.6702 34.3731Z" fill="#949494"/>
<defs>
<linearGradient id="paint0_linear_8_174" x1="0" y1="22.4298" x2="29.6641" y2="22.4298" gradientUnits="userSpaceOnUse">
<stop stop-color="#005BA1"/>
<stop offset="0.07" stop-color="#0060A9"/>
<stop offset="0.36" stop-color="#0071C8"/>
<stop offset="0.52" stop-color="#0078D4"/>
<stop offset="0.64" stop-color="#0074CD"/>
<stop offset="0.82" stop-color="#006ABB"/>
<stop offset="1" stop-color="#005BA1"/>
</linearGradient>
</defs>
</svg>
