<svg width="192" height="192" viewBox="0 0 192 192" fill="none" xmlns="http://www.w3.org/2000/svg">
<g clip-path="url(#clip0)">
<path d="M95.8394 192.208C148.859 192.208 191.839 149.227 191.839 96.2075C191.839 43.1882 148.859 0.20752 95.8394 0.20752C42.82 0.20752 -0.160645 43.1882 -0.160645 96.2075C-0.160645 149.227 42.82 192.208 95.8394 192.208Z" fill="#2CA01C"/>
<path d="M26.4788 96.1595C26.4788 106.064 30.4132 115.562 37.4165 122.565C44.4199 129.569 53.9185 133.503 63.8228 133.503H69.1508V119.631H63.8228C57.5976 119.631 51.6274 117.159 47.2256 112.757C42.8237 108.355 40.3508 102.385 40.3508 96.1595C40.3508 89.9344 42.8237 83.9641 47.2256 79.5623C51.6274 75.1604 57.5976 72.6875 63.8228 72.6875H76.6387V145.119C76.6387 146.939 76.9979 148.741 77.6956 150.421C78.3933 152.101 79.4159 153.627 80.7046 154.911C81.9934 156.196 83.5231 157.213 85.2058 157.905C86.8886 158.597 88.6913 158.95 90.5107 158.943V58.7193H63.8228C58.9106 58.7193 54.0467 59.6883 49.5096 61.5711C44.9726 63.4538 40.8515 66.2131 37.3825 69.691C33.9136 73.1689 31.1649 77.2968 29.2938 81.8386C27.4228 86.3805 26.4661 91.2474 26.4788 96.1595ZM127.855 58.8634H122.527V72.7355H127.855C131.023 72.5921 134.188 73.0919 137.158 74.2056C140.127 75.3193 142.841 77.0233 145.134 79.2148C147.426 81.4063 149.251 84.0398 150.498 86.9562C151.745 89.8726 152.388 93.0118 152.388 96.1836C152.388 99.3553 151.745 102.494 150.498 105.41C149.251 108.327 147.426 110.96 145.134 113.152C142.841 115.343 140.127 117.047 137.158 118.161C134.188 119.275 131.023 119.774 127.855 119.631H115.039V47.1031C115.039 43.424 113.577 39.896 110.976 37.2945C108.374 34.693 104.846 33.231 101.167 33.231V133.503H127.855C132.868 133.683 137.867 132.851 142.552 131.056C147.236 129.262 151.512 126.542 155.122 123.059C158.732 119.576 161.604 115.4 163.565 110.783C165.527 106.165 166.537 101.2 166.537 96.1836C166.537 91.1668 165.527 86.2012 163.565 81.5837C161.604 76.9663 158.732 72.791 155.122 69.3078C151.512 65.8245 147.236 63.1048 142.552 61.3103C137.867 59.5158 132.868 58.6836 127.855 58.8634Z" fill="white"/>
</g>
<defs>
<clipPath id="clip0">
<rect width="192" height="192" fill="white"/>
</clipPath>
</defs>
</svg>
