<svg width="154" height="73" viewBox="0 0 154 73" fill="none" xmlns="http://www.w3.org/2000/svg">
<rect width="152.458" height="73" transform="translate(0.713867)" fill="white"/>
<g clip-path="url(#clip0_2397_918)">
<path d="M48.6619 37.1921C48.6619 44.0593 53.072 48.8474 59.1831 48.8474C65.2942 48.8474 69.7043 44.0593 69.7043 37.1921C69.7043 30.325 65.2942 25.5369 59.1831 25.5369C53.072 25.5369 48.6619 30.325 48.6619 37.1921ZM65.6722 37.1921C65.6722 42.1062 62.9947 45.2878 59.1831 45.2878C55.3715 45.2878 52.694 42.1062 52.694 37.1921C52.694 32.278 55.3715 29.0965 59.1831 29.0965C62.9947 29.0965 65.6722 32.278 65.6722 37.1921Z" fill="black"/>
<path d="M81.059 48.8474C85.6896 48.8474 88.3357 44.9413 88.3357 40.2477C88.3357 35.5541 85.6896 31.648 81.059 31.648C78.917 31.648 77.3419 32.4985 76.3024 33.7271V31.963H72.5223V54.171H76.3024V46.7683C77.3419 47.9969 78.917 48.8474 81.059 48.8474ZM76.2079 39.7752C76.2079 36.6566 77.972 34.9556 80.303 34.9556C83.0436 34.9556 84.5241 37.0976 84.5241 40.2477C84.5241 43.3978 83.0436 45.5398 80.303 45.5398C77.972 45.5398 76.2079 43.8073 76.2079 40.7517V39.7752Z" fill="black"/>
<path d="M98.5655 48.8474C101.873 48.8474 104.488 47.1148 105.653 44.2168L102.409 42.9883C101.905 44.6893 100.424 45.6343 98.5655 45.6343C96.14 45.6343 94.4389 43.9018 94.1554 41.0667H105.748V39.8067C105.748 35.2706 103.196 31.648 98.408 31.648C93.6199 31.648 90.5328 35.3966 90.5328 40.2477C90.5328 45.3508 93.8404 48.8474 98.5655 48.8474ZM98.3765 34.8296C100.771 34.8296 101.905 36.4046 101.936 38.2317H94.3444C94.9114 35.9951 96.4235 34.8296 98.3765 34.8296Z" fill="black"/>
<path d="M108.584 48.5009H112.364V38.7987C112.364 36.4361 114.097 35.1761 115.798 35.1761C117.877 35.1761 118.696 36.6566 118.696 38.7042V48.5009H122.476V37.6016C122.476 34.0421 120.397 31.648 116.932 31.648C114.79 31.648 113.309 32.6245 112.364 33.7271V31.963H108.584V48.5009Z" fill="black"/>
<path d="M133.547 25.8834L124.979 48.5009H128.98L130.901 43.3348H140.666L142.619 48.5009H146.683L138.115 25.8834H133.547ZM135.752 30.3565L139.343 39.8067H132.224L135.752 30.3565Z" fill="black"/>
<path d="M153.172 25.949H149.14V48.5665H153.172V25.949Z" fill="black"/>
<path d="M39.4243 34.1904C40.3772 31.3304 40.0491 28.1974 38.5252 25.5959C36.2335 21.6059 31.6266 19.5531 27.1272 20.5191C25.1256 18.2642 22.2499 16.9818 19.235 17.0002C14.6359 16.9897 10.5552 19.9508 9.14033 24.3267C6.18582 24.9318 3.63558 26.7812 2.14324 29.4023C-0.1655 33.3819 0.360824 38.3983 3.44526 41.8109C2.49237 44.6709 2.8205 47.8039 4.34435 50.4053C6.63602 54.3954 11.243 56.4482 15.7423 55.4822C17.7426 57.7371 20.6197 59.0195 23.6346 58.9998C28.2363 59.0116 32.3183 56.0479 33.7332 51.668C36.6877 51.0629 39.2379 49.2136 40.7303 46.5925C43.0364 42.6129 42.5087 37.6003 39.4256 34.1877L39.4243 34.1904ZM23.6372 56.2553C21.7957 56.2579 20.012 55.6135 18.5984 54.4335C18.6627 54.3994 18.7743 54.3377 18.8465 54.2931L27.2099 49.463C27.6378 49.2201 27.9003 48.7647 27.8977 48.2725V36.482L31.4323 38.523C31.4704 38.5414 31.4953 38.5782 31.5006 38.6202V48.3841C31.4953 52.7259 27.979 56.2461 23.6372 56.2553ZM6.72659 49.0324C5.80388 47.439 5.47181 45.5713 5.78813 43.7587C5.84982 43.7955 5.95876 43.8624 6.0362 43.907L14.3996 48.7371C14.8236 48.9852 15.3486 48.9852 15.7738 48.7371L25.984 42.8412V46.9232C25.9866 46.9652 25.9669 47.0059 25.9341 47.0321L17.4801 51.9134C13.7145 54.0817 8.90538 52.7928 6.7279 49.0324H6.72659ZM4.52548 30.7765C5.44425 29.1805 6.89459 27.9598 8.62188 27.3259C8.62188 27.398 8.61794 27.5254 8.61794 27.6146V37.2761C8.61531 37.767 8.87782 38.2225 9.30439 38.4653L19.5145 44.3598L15.9799 46.4008C15.9445 46.4244 15.8998 46.4284 15.8605 46.4113L7.40516 41.5261C3.64739 39.3499 2.35849 34.5421 4.52416 30.7778L4.52548 30.7765ZM33.5665 37.5347L23.3563 31.6388L26.891 29.5992C26.9264 29.5755 26.971 29.5716 27.0104 29.5887L35.4657 34.4699C39.23 36.6448 40.5203 41.4605 38.3454 45.2248C37.4253 46.8182 35.9763 48.0389 34.2503 48.6741V38.7238C34.2542 38.233 33.993 37.7788 33.5678 37.5347H33.5665ZM37.0841 32.24C37.0224 32.2019 36.9134 32.1363 36.836 32.0916L28.4726 27.2615C28.0486 27.0135 27.5236 27.0135 27.0983 27.2615L16.8882 33.1574V29.0755C16.8856 29.0335 16.9052 28.9928 16.9381 28.9665L25.392 24.0892C29.1577 21.9169 33.972 23.2098 36.143 26.9767C37.0604 28.5675 37.3925 30.43 37.0814 32.24H37.0841ZM14.9666 39.5153L11.4307 37.4743C11.3926 37.4559 11.3677 37.4192 11.3624 37.3772V27.6133C11.3651 23.2662 14.8918 19.7434 19.2389 19.746C21.0778 19.746 22.8576 20.3918 24.2712 21.5678C24.2068 21.6019 24.0966 21.6636 24.0231 21.7082L15.6597 26.5383C15.2318 26.7812 14.9693 27.2353 14.9719 27.7275L14.9666 39.5127V39.5153ZM16.8869 35.3756L21.4348 32.7492L25.9827 35.3743V40.6257L21.4348 43.2508L16.8869 40.6257V35.3756Z" fill="black"/>
</g>
<defs>
<clipPath id="clip0_2397_918">
<rect width="152.458" height="42" fill="white" transform="translate(0.713867 17)"/>
</clipPath>
</defs>
</svg>
