<svg width="192" height="192" viewBox="0 0 192 192" fill="none" xmlns="http://www.w3.org/2000/svg">
<path fill-rule="evenodd" clip-rule="evenodd" d="M167.448 105.178L168.415 98.0158C175.982 102.626 178.472 105.391 179.242 106.584C177.967 106.832 174.741 106.954 167.448 105.178ZM150.055 169.082C150.029 169.278 150.016 169.469 150.016 169.665C150.016 170.336 148.361 172.904 141.021 175.808C137.756 177.097 133.885 178.255 129.523 179.265C118.281 181.86 104.493 183.293 90.7004 183.293C53.8024 183.293 31.3981 173.827 31.3981 169.665C31.3981 169.469 31.385 169.278 31.3589 169.082L14.6275 44.8131C15.7072 45.44 16.8697 46.0452 18.0844 46.6329C18.4152 46.7897 18.7722 46.9377 19.1075 47.0901C20.1741 47.582 21.2844 48.061 22.4381 48.5225C22.9127 48.7097 23.3872 48.8925 23.8705 49.0797C25.1069 49.5412 26.3826 49.9897 27.6974 50.4207C28.0414 50.5295 28.3722 50.6558 28.7293 50.7646C30.3924 51.2871 32.1208 51.7834 33.9059 52.2623C34.3673 52.3799 34.8463 52.4931 35.3121 52.615C36.714 52.9676 38.1333 53.3116 39.5875 53.6337C40.1752 53.7644 40.7543 53.895 41.3464 54.0169C42.979 54.3608 44.6378 54.6873 46.3314 54.9965C46.6536 55.0531 46.9714 55.1227 47.298 55.1793C49.3094 55.5363 51.3644 55.8585 53.4411 56.1546C54.0114 56.2416 54.5905 56.3113 55.1652 56.394C56.763 56.6117 58.3695 56.8163 59.9978 57.0079C60.6422 57.0776 61.2735 57.1516 61.9178 57.2212C63.877 57.4302 65.8449 57.6218 67.8346 57.7916C68.0566 57.809 68.2699 57.8307 68.492 57.8525C70.6906 58.031 72.9067 58.1747 75.1314 58.301C75.7497 58.3358 76.3723 58.3619 76.9948 58.3967C78.6754 58.4751 80.3646 58.5448 82.0539 58.6014C82.7069 58.6231 83.3556 58.6449 84.0044 58.658C86.2422 58.7146 88.4713 58.7494 90.7004 58.7494C92.9295 58.7494 95.163 58.7146 97.4008 58.658C98.0495 58.6449 98.6982 58.6231 99.3469 58.6014C101.041 58.5448 102.725 58.4751 104.41 58.3967C105.033 58.3619 105.651 58.3358 106.269 58.301C108.494 58.1747 110.715 58.031 112.918 57.8525C113.127 57.8351 113.336 57.809 113.549 57.7916C115.547 57.6261 117.528 57.4302 119.492 57.2169C120.132 57.1516 120.759 57.0776 121.394 57.0079C123.036 56.8163 124.655 56.6117 126.262 56.3897C126.828 56.3113 127.394 56.2416 127.955 56.1589C130.041 55.8585 132.104 55.532 134.125 55.1793C134.425 55.1227 134.712 55.0618 135.017 55.0095C136.737 54.6961 138.43 54.3608 140.089 54.0125C140.66 53.895 141.226 53.7644 141.787 53.6425C143.276 53.3116 144.73 52.9633 146.154 52.6019C146.594 52.4844 147.042 52.3799 147.478 52.2667C149.28 51.7878 151.03 51.2871 152.711 50.7559C153.029 50.6558 153.325 50.5469 153.634 50.4468C154.996 50.0027 156.311 49.5456 157.578 49.0623C158.04 48.8925 158.488 48.714 158.941 48.5355C160.13 48.061 161.279 47.5733 162.38 47.0596C162.681 46.9203 163.007 46.7853 163.308 46.6416C164.531 46.0539 165.702 45.4444 166.791 44.8131L158.984 102.779C139.084 96.5312 112.543 84.4408 100.496 78.781C100.483 73.9918 96.5867 70.0952 91.7932 70.0952C86.9954 70.0952 83.0857 74.0049 83.0857 78.8027C83.0857 83.6049 86.9954 87.5102 91.7932 87.5102C93.3605 87.5102 94.8147 87.0618 96.0903 86.3303C109.848 92.8218 137.242 105.265 157.805 111.53L150.055 169.082ZM90.7004 8.70748C136.11 8.70748 168.101 22.7744 168.702 30.5894L168.585 31.4993C168.506 31.7605 168.336 32.0305 168.201 32.3048C168.079 32.5312 167.992 32.7619 167.827 32.997C167.631 33.2669 167.357 33.5456 167.104 33.8155C166.882 34.055 166.695 34.2944 166.434 34.5339C166.125 34.8125 165.733 35.0955 165.367 35.3785C165.054 35.618 164.775 35.8574 164.418 36.1056C163.991 36.3886 163.486 36.6759 163.003 36.9633C162.607 37.2027 162.241 37.4378 161.797 37.6773C161.253 37.969 160.626 38.265 160.021 38.5567C159.555 38.7831 159.115 39.0182 158.606 39.2403C157.935 39.5407 157.191 39.8324 156.468 40.1284C155.924 40.3418 155.419 40.5638 154.84 40.7815C154.065 41.0688 153.203 41.3562 152.367 41.6392C151.757 41.8482 151.178 42.0615 150.538 42.2705C149.646 42.5491 148.675 42.8234 147.734 43.0933C147.055 43.2893 146.415 43.4939 145.71 43.6811C144.722 43.951 143.651 44.2035 142.601 44.4604C141.857 44.6433 141.152 44.8348 140.377 45.009C139.266 45.2615 138.082 45.4966 136.915 45.7361C136.132 45.8971 135.383 46.0669 134.569 46.2193C133.332 46.4588 132.013 46.6721 130.716 46.8854C129.906 47.0291 129.131 47.1771 128.299 47.3034C126.967 47.5124 125.561 47.6909 124.176 47.8781C123.301 47.9956 122.47 48.1263 121.577 48.2351C120.127 48.4136 118.604 48.5616 117.102 48.714C116.209 48.8054 115.351 48.9099 114.441 48.997C112.935 49.132 111.355 49.2321 109.8 49.3453C108.821 49.415 107.885 49.5064 106.892 49.5673C105.233 49.6631 103.509 49.7241 101.807 49.7894C100.853 49.8286 99.939 49.8895 98.9725 49.92C96.2732 49.9984 93.5173 50.0419 90.7004 50.0419C87.8879 50.0419 85.1276 49.9984 82.4283 49.92C81.4661 49.8895 80.5562 49.8286 79.6071 49.7937C77.9004 49.7241 76.172 49.6631 74.5132 49.5673C73.5336 49.5064 72.6063 49.415 71.6397 49.3497C70.0724 49.2321 68.4833 49.132 66.9638 48.997C66.0756 48.9143 65.2397 48.8098 64.369 48.7184C62.8452 48.5616 61.2996 48.418 59.828 48.2351C58.966 48.1263 58.1518 48 57.3072 47.8912C55.8966 47.6996 54.4642 47.5167 53.1059 47.3034C52.3091 47.1815 51.5646 47.0378 50.7853 46.9029C49.4487 46.6808 48.1034 46.4631 46.8321 46.2193C46.0659 46.0756 45.3649 45.9146 44.6248 45.7665C43.4144 45.514 42.1823 45.2702 41.0242 45.009C40.3015 44.8435 39.6441 44.665 38.9388 44.4952C37.8416 44.2253 36.7314 43.9597 35.6909 43.6811C35.0291 43.5026 34.4327 43.311 33.8057 43.1282C32.8087 42.8452 31.7986 42.5578 30.8669 42.2661C30.2661 42.0746 29.735 41.8743 29.1603 41.6827C28.2808 41.3823 27.3752 41.0819 26.5611 40.7771C26.0256 40.5769 25.5597 40.3679 25.0547 40.1633C24.2884 39.8585 23.5004 39.5537 22.7995 39.2403C22.3249 39.0269 21.9156 38.8093 21.4759 38.5959C20.8359 38.2912 20.1785 37.982 19.6082 37.6729C19.1946 37.4465 18.855 37.2288 18.4762 37.0024C17.9712 36.6977 17.4356 36.3973 16.9916 36.0969C16.652 35.8661 16.3907 35.6354 16.086 35.409C15.7072 35.1129 15.3023 34.8212 14.9801 34.5295C14.7233 34.2988 14.5448 34.068 14.3314 33.8329C14.0702 33.5543 13.7872 33.2713 13.5913 32.997C13.4259 32.7619 13.3431 32.5355 13.2256 32.3091C13.0819 32.0348 12.9121 31.7649 12.8337 31.4993L12.7162 30.5894C13.3214 22.7744 45.3039 8.70748 90.7004 8.70748ZM188.15 105.696C187.21 100.672 181.432 95.3644 169.673 88.6727L177.153 33.0884V33.0841V33.0797L177.379 31.3861C177.405 31.1946 177.418 31.003 177.418 30.8114C177.418 12.652 131.717 0 90.7004 0C49.6925 0 4 12.652 4 30.8114C4 31.003 4.01306 31.1946 4.03918 31.3861L4.26558 33.0797V33.0841V33.0884L22.695 170.001C23.2653 186.018 64.5867 192 90.7004 192C105.133 192 119.618 190.494 131.482 187.751C136.267 186.645 140.546 185.352 144.217 183.906C153.651 180.175 158.527 175.491 158.719 170.001L166.277 113.855C170.74 114.904 174.405 115.435 177.392 115.435C181.707 115.435 184.611 114.338 186.461 112.131C187.989 110.315 188.586 108.029 188.15 105.696Z" fill="url(#paint0_linear)"/>
<defs>
<linearGradient id="paint0_linear" x1="11.2528" y1="192" x2="188.586" y2="7.24665" gradientUnits="userSpaceOnUse">
<stop stop-color="#C8511B"/>
<stop offset="1" stop-color="#FF9900"/>
</linearGradient>
</defs>
</svg>
