<svg width="63" height="72" viewBox="0 0 63 72" fill="none" xmlns="http://www.w3.org/2000/svg">
<rect width="61.5579" height="72" transform="translate(0.505798)" fill="white"/>
<g clip-path="url(#clip0_2397_1003)">
<mask id="mask0_2397_1003" style="mask-type:alpha" maskUnits="userSpaceOnUse" x="0" y="17" width="63" height="43">
<path d="M0.505798 17H62.0637V60H0.505798V17Z" fill="white"/>
</mask>
<g mask="url(#mask0_2397_1003)">
<path fill-rule="evenodd" clip-rule="evenodd" d="M26.066 21.7074C28.0531 19.6389 30.8187 18.3579 33.8739 18.3579C37.9476 18.3579 41.4781 20.6211 43.3792 23.9932C45.0667 23.2388 46.8945 22.8493 48.7429 22.8503C56.0755 22.8503 62.0276 28.8476 62.0276 36.2482C62.0276 43.6487 56.0755 49.646 48.7429 49.646C47.8467 49.646 46.9731 49.556 46.1176 49.3858C44.4542 52.3505 41.2745 54.3647 37.6534 54.3647C36.1792 54.3676 34.7238 54.0332 33.3987 53.387C31.7126 57.3476 27.786 60.1312 23.2145 60.1312C18.4392 60.1312 14.3881 57.1212 12.8266 52.8891C12.1315 53.0358 11.4231 53.1095 10.7128 53.1091C5.03226 53.1091 0.438049 48.447 0.438049 42.7212C0.438049 38.8739 2.50657 35.5244 5.57542 33.7139C4.92436 32.2141 4.58924 30.5963 4.59094 28.9612C4.59094 22.3528 9.95462 17.0118 16.563 17.0118C20.433 17.0118 23.8957 18.8563 26.0683 21.7191" fill="#00A1E0"/>
<path fill-rule="evenodd" clip-rule="evenodd" d="M9.40896 39.36C9.37026 39.4609 9.42276 39.482 9.43521 39.4999C9.55085 39.5836 9.66831 39.6443 9.786 39.7124C10.4152 40.0451 11.0081 40.1424 11.6282 40.1424C12.891 40.1424 13.6764 39.4702 13.6764 38.3884V38.3672C13.6764 37.3668 12.7892 37.0025 11.9609 36.7422L11.8525 36.7071C11.2256 36.5039 10.6847 36.3269 10.6847 35.915V35.894C10.6847 35.5409 11.0015 35.2807 11.4904 35.2807C12.0335 35.2807 12.6808 35.4615 13.095 35.6903C13.095 35.6903 13.2176 35.7695 13.2622 35.6511C13.2864 35.5871 13.4976 35.022 13.5202 34.9586C13.5442 34.8923 13.5021 34.8423 13.4589 34.8165C12.9836 34.5268 12.3273 34.3299 11.6483 34.3299L11.5223 34.3304C10.3658 34.3304 9.55787 35.0297 9.55787 36.03V36.0515C9.55787 37.1061 10.4496 37.4501 11.2824 37.6878L11.4164 37.7294C12.0229 37.9159 12.548 38.0779 12.548 38.5034V38.5247C12.548 38.9162 12.2062 39.2081 11.6585 39.2081C11.4456 39.2081 10.7669 39.2045 10.0313 38.7397C9.94238 38.6878 9.89169 38.6505 9.82311 38.6086C9.7869 38.5867 9.69638 38.5471 9.657 38.6657L9.40805 39.3582L9.40896 39.36ZM27.898 39.3582C27.8593 39.4591 27.9119 39.4802 27.9248 39.4981C28.0399 39.5818 28.1579 39.6424 28.2755 39.7106C28.9047 40.0433 29.4976 40.1406 30.1178 40.1406C31.3806 40.1406 32.1659 39.4684 32.1659 38.3866V38.3653C32.1659 37.365 31.281 37.0007 30.4504 36.7404L30.342 36.7053C29.7151 36.5021 29.1742 36.3251 29.1742 35.9132V35.8922C29.1742 35.5391 29.4911 35.2788 29.9799 35.2788C30.5231 35.2788 31.1681 35.4597 31.5845 35.6885C31.5845 35.6885 31.7072 35.7677 31.752 35.6493C31.776 35.5853 31.9873 35.0202 32.0077 34.9568C32.0319 34.8905 31.9896 34.8405 31.9466 34.8147C31.4713 34.525 30.815 34.3281 30.1361 34.3281L30.0098 34.3285C28.8533 34.3285 28.0454 35.0279 28.0454 36.0282V36.0497C28.0454 37.1043 28.9371 37.4483 29.7699 37.6859L29.9037 37.7276C30.5124 37.9141 31.0352 38.0761 31.0352 38.5016V38.5229C31.0352 38.9144 30.6935 39.2063 30.1458 39.2063C29.9324 39.2063 29.2519 39.2027 28.5186 38.7379C28.4297 38.686 28.3776 38.6503 28.3102 38.6068C28.2873 38.5923 28.1807 38.5507 28.1443 38.6639L27.8953 39.3564L27.898 39.3582ZM40.5238 37.2381C40.5238 37.8491 40.4097 38.3312 40.1865 38.6729C39.9638 39.0101 39.6275 39.1753 39.1591 39.1753C38.6906 39.1753 38.3556 39.0115 38.1361 38.6752C37.915 38.3357 37.8034 37.8514 37.8034 37.2403C37.8034 36.6293 37.9157 36.1495 38.1361 35.8123C38.3552 35.4773 38.6883 35.3166 39.1591 35.3166C39.6298 35.3166 39.9648 35.4789 40.1865 35.8123C40.411 36.1495 40.5238 36.6293 40.5238 37.2403V37.2381ZM41.5784 36.1065C41.4745 35.7557 41.3136 35.4479 41.0986 35.1899C40.8834 34.9319 40.612 34.7237 40.2884 34.5743C39.967 34.4238 39.5868 34.348 39.1568 34.348C38.7268 34.348 38.3489 34.4243 38.0252 34.5743C37.7039 34.7246 37.43 34.9319 37.215 35.1899C37.0005 35.4479 36.8393 35.7557 36.7352 36.1065C36.6322 36.455 36.58 36.8352 36.58 37.2403C36.58 37.6454 36.6322 38.0256 36.7352 38.3742C36.8386 38.725 37 39.0328 37.215 39.2908C37.4302 39.5488 37.7039 39.7547 38.0252 39.9018C38.3489 40.0485 38.7291 40.1231 39.1568 40.1231C39.5845 40.1231 39.9648 40.0485 40.2861 39.9018C40.6075 39.7552 40.8813 39.5488 41.0963 39.2908C41.3111 39.0328 41.472 38.725 41.5761 38.3742C41.6789 38.0256 41.7311 37.6454 41.7311 37.2403C41.7311 36.8375 41.6789 36.455 41.5761 36.1065H41.5784ZM50.244 39.0033C50.2094 38.9008 50.1094 38.9395 50.1094 38.9395C49.9561 38.9981 49.7925 39.0524 49.6182 39.0796C49.4426 39.1072 49.2471 39.121 49.0411 39.121C48.5319 39.121 48.1246 38.9692 47.8349 38.6684C47.5429 38.3674 47.38 37.8831 47.3822 37.2268C47.3838 36.6293 47.5282 36.1812 47.7874 35.8372C48.0431 35.4977 48.4369 35.3212 48.9574 35.3212C49.3919 35.3212 49.7246 35.3716 50.0731 35.4807C50.0731 35.4807 50.1558 35.5167 50.1954 35.4078C50.2879 35.1521 50.3563 34.9688 50.4556 34.6882C50.4837 34.6078 50.4149 34.5739 50.3898 34.5641C50.2531 34.5107 49.9303 34.4231 49.6859 34.3863C49.4573 34.3514 49.1925 34.3333 48.8938 34.3333C48.4502 34.3333 48.0564 34.4091 47.7192 34.5594C47.382 34.7094 47.0969 34.917 46.8705 35.175C46.6442 35.433 46.4722 35.7408 46.3568 36.0915C46.2425 36.4401 46.1848 36.8226 46.1848 37.2277C46.1848 38.1012 46.4202 38.8096 46.8864 39.3279C47.3526 39.8484 48.0542 40.1109 48.9685 40.1109C49.5094 40.1109 50.0639 40.0016 50.4622 39.8439C50.4622 39.8439 50.5382 39.8072 50.5052 39.7185L50.2449 39.0033H50.244ZM52.0894 36.6496C52.1399 36.3102 52.2329 36.0273 52.3791 35.8077C52.5979 35.4728 52.9313 35.2895 53.3998 35.2895C53.8682 35.2895 54.1783 35.4737 54.4001 35.8077C54.5472 36.0284 54.6115 36.3215 54.6354 36.6496L52.0781 36.6492L52.0894 36.6496ZM55.6425 35.9028C55.5527 35.5656 55.3302 35.2239 55.1854 35.0677C54.9545 34.821 54.7305 34.6467 54.5064 34.5517C54.183 34.4141 53.835 34.3436 53.4835 34.3442C53.0377 34.3442 52.6325 34.4195 52.3044 34.5727C51.9762 34.7271 51.7001 34.9371 51.4829 35.1996C51.2658 35.4622 51.1027 35.7722 50.9985 36.1275C50.8944 36.4783 50.8419 36.8631 50.8419 37.2659C50.8419 37.6778 50.8965 38.0603 51.0038 38.4065C51.1122 38.7551 51.2866 39.0606 51.522 39.3141C51.7574 39.5698 52.0584 39.769 52.4205 39.9093C52.7803 40.0485 53.2171 40.1207 53.7173 40.1191C54.7493 40.1157 55.2924 39.886 55.5142 39.7615C55.5538 39.7393 55.5912 39.7011 55.5446 39.5908L55.3114 38.9368C55.2757 38.8393 55.177 38.8746 55.177 38.8746C54.9213 38.9701 54.5592 39.1416 53.7105 39.1393C53.156 39.1384 52.7464 38.9748 52.4884 38.7184C52.2259 38.4559 52.0946 38.0734 52.0742 37.5302L55.65 37.533C55.65 37.533 55.7442 37.5321 55.7539 37.4402C55.7577 37.4021 55.8763 36.7069 55.6473 35.9035L55.6425 35.9028ZM23.5057 36.6496C23.5562 36.3102 23.6494 36.0273 23.7954 35.8077C24.0145 35.4728 24.3476 35.2895 24.8161 35.2895C25.2846 35.2895 25.5946 35.4737 25.8164 35.8077C25.9633 36.0284 26.0275 36.3215 26.0518 36.6496L23.4944 36.6492L23.5057 36.6496ZM27.0589 35.9028C26.9692 35.5656 26.7466 35.2239 26.6017 35.0677C26.3709 34.821 26.1468 34.6467 25.9228 34.5517C25.5993 34.4141 25.2513 34.3436 24.8998 34.3442C24.454 34.3442 24.0489 34.4195 23.7207 34.5727C23.3926 34.7271 23.1164 34.9371 22.8992 35.1996C22.6826 35.4622 22.519 35.7722 22.4149 36.1275C22.311 36.4783 22.2587 36.8631 22.2587 37.2659C22.2587 37.6778 22.3128 38.0603 22.4208 38.4065C22.5289 38.7551 22.7036 39.0606 22.9368 39.3141C23.1721 39.5698 23.4731 39.769 23.8352 39.9093C24.1951 40.0485 24.6296 40.1207 25.132 40.1191C26.164 40.1157 26.7072 39.886 26.929 39.7615C26.9683 39.7393 27.0059 39.7011 26.9591 39.5908L26.726 38.9368C26.69 38.8393 26.5913 38.8746 26.5913 38.8746C26.3356 38.9701 25.9735 39.1416 25.1248 39.1393C24.5726 39.1384 24.1607 38.9748 23.9027 38.7184C23.6401 38.4559 23.5089 38.0734 23.4885 37.5302L27.0643 37.533C27.0643 37.533 27.1584 37.5321 27.1682 37.4402C27.172 37.4021 27.2906 36.7069 27.0614 35.9035L27.0589 35.9028ZM15.7883 38.9807C15.6483 38.8689 15.6288 38.8415 15.5824 38.7689C15.5116 38.6596 15.4753 38.5041 15.4753 38.3049C15.4753 37.9926 15.5795 37.7663 15.7945 37.6147C15.7922 37.6151 16.1022 37.3476 16.831 37.3567C17.1553 37.3625 17.4789 37.3901 17.7996 37.4393V39.0619H17.8001C17.8001 39.0619 17.3474 39.1595 16.836 39.1903C16.1095 39.2339 15.7881 38.9812 15.7904 38.9818L15.7883 38.9807ZM17.2096 36.4686C17.0648 36.458 16.8769 36.4528 16.6529 36.4528C16.3473 36.4528 16.0509 36.4908 15.7748 36.5655C15.4964 36.6406 15.2452 36.7569 15.0302 36.9117C14.8146 37.0655 14.6373 37.2669 14.5119 37.5001C14.3854 37.7355 14.3209 38.0116 14.3209 38.3239C14.3209 38.6408 14.3759 38.9146 14.4845 39.1387C14.591 39.3609 14.7512 39.5531 14.9507 39.6977C15.1492 39.8421 15.3943 39.9489 15.6772 40.0122C15.9579 40.0763 16.2747 40.1087 16.6232 40.1087C16.9899 40.1087 17.3542 40.0779 17.7073 40.0184C18.008 39.9665 18.3075 39.9082 18.6057 39.8436C18.7248 39.8163 18.857 39.7803 18.857 39.7803C18.9452 39.7579 18.9384 39.6635 18.9384 39.6635L18.9364 36.4045C18.9364 35.6894 18.7454 35.1575 18.3683 34.8294C17.9927 34.5012 17.4427 34.336 16.7298 34.336C16.4628 34.336 16.0305 34.3722 15.7725 34.4241C15.7725 34.4241 14.994 34.5752 14.6726 34.8269C14.6726 34.8269 14.602 34.8703 14.6405 34.9688L14.8939 35.6477C14.9254 35.7358 15.0112 35.7057 15.0112 35.7057C15.0112 35.7057 15.0381 35.695 15.0698 35.6763C15.7555 35.3028 16.6246 35.3142 16.6246 35.3142C17.0093 35.3142 17.3081 35.3922 17.5072 35.545C17.7021 35.6946 17.8014 35.9207 17.8014 36.3959V36.5469C17.4959 36.5025 17.213 36.477 17.213 36.477L17.2096 36.4686ZM45.9517 34.6286C45.9569 34.6167 45.9595 34.6039 45.9596 34.5909C45.9597 34.5779 45.9572 34.565 45.9522 34.553C45.9471 34.541 45.9398 34.5301 45.9305 34.521C45.9212 34.512 45.9102 34.5048 45.8981 34.5001C45.8372 34.477 45.5337 34.413 45.3006 34.3985C44.8525 34.3704 44.6035 34.446 44.3795 34.5465C44.1582 34.6463 43.9133 34.8068 43.7775 34.9923L43.777 34.5578C43.777 34.4981 43.7347 34.4499 43.6745 34.4499H42.7602C42.7009 34.4499 42.6579 34.4981 42.6579 34.5578V39.8762C42.658 39.905 42.6694 39.9325 42.6897 39.9528C42.71 39.9731 42.7376 39.9846 42.7663 39.9846H43.7033C43.732 39.9846 43.7595 39.9731 43.7798 39.9528C43.8 39.9325 43.8114 39.9049 43.8114 39.8762V37.2057C43.8114 36.8481 43.8508 36.4928 43.9294 36.2688C44.0068 36.0472 44.112 35.8704 44.2417 35.7437C44.3654 35.6213 44.5168 35.5305 44.683 35.4789C44.839 35.4341 45.0005 35.4114 45.1628 35.4115C45.3495 35.4115 45.5543 35.4594 45.5543 35.4594C45.6231 35.4671 45.6613 35.425 45.6847 35.363C45.746 35.1999 45.92 34.7112 45.954 34.6139" fill="#FFFFFE"/>
<path fill-rule="evenodd" clip-rule="evenodd" d="M37.2009 32.174C37.0851 32.139 36.9673 32.1111 36.8481 32.0903C36.6878 32.0635 36.5254 32.051 36.3629 32.0527C35.7172 32.0527 35.2082 32.2351 34.8509 32.5954C34.496 32.953 34.2545 33.4977 34.1334 34.2145L34.0898 34.4564H33.2793C33.2793 34.4564 33.1804 34.4523 33.1596 34.5603L33.0265 35.3026C33.0172 35.3737 33.0478 35.418 33.1428 35.4176H33.9318L33.1313 39.8857C33.0686 40.2456 32.9969 40.5416 32.9174 40.7659C32.8391 40.9872 32.7626 41.1531 32.6685 41.2735C32.5773 41.39 32.4908 41.4758 32.3417 41.5258C32.2186 41.5672 32.0769 41.5863 31.9216 41.5863C31.8352 41.5863 31.7202 41.5718 31.6354 41.5548C31.5505 41.5381 31.5064 41.519 31.4428 41.4923C31.4428 41.4923 31.3502 41.457 31.3138 41.5498C31.2841 41.6256 31.0739 42.2039 31.049 42.2754C31.0236 42.346 31.0592 42.4017 31.104 42.4177C31.209 42.4553 31.2871 42.4793 31.4301 42.513C31.6288 42.5599 31.7963 42.5628 31.9531 42.5628C32.2817 42.5628 32.5811 42.5166 32.8294 42.427C33.0793 42.3367 33.2967 42.1794 33.4891 41.9665C33.6971 41.7368 33.8279 41.4962 33.9531 41.168C34.0769 40.8428 34.1823 40.4391 34.2667 39.9686L35.0711 35.4176H36.247C36.247 35.4176 36.3461 35.4212 36.3667 35.3137L36.4998 34.5714C36.5091 34.5003 36.4787 34.456 36.3832 34.4564H35.2419C35.2476 34.4306 35.2994 34.0291 35.4305 33.6512C35.4864 33.4898 35.5916 33.3597 35.6808 33.2703C35.764 33.1852 35.8666 33.1213 35.9797 33.0843C36.1038 33.0459 36.2331 33.0273 36.3629 33.029C36.4704 33.029 36.5758 33.0419 36.6562 33.0587C36.7668 33.0822 36.8098 33.0947 36.8388 33.1033C36.9551 33.1388 36.9708 33.1044 36.9936 33.0481L37.2665 32.2985C37.2946 32.2179 37.2263 32.184 37.2009 32.174V32.174ZM21.2515 39.8952C21.2515 39.955 21.209 40.0036 21.1492 40.0036H20.2026C20.1426 40.0036 20.1 39.955 20.1 39.8952V32.2756C20.1 32.2161 20.1426 32.1679 20.2026 32.1679H21.1492C21.209 32.1679 21.2515 32.2161 21.2515 32.2756V39.8952" fill="#FFFFFE"/>
</g>
</g>
<defs>
<clipPath id="clip0_2397_1003">
<rect width="61.5579" height="46" fill="white" transform="translate(0.505798 17)"/>
</clipPath>
</defs>
</svg>
