<svg width="192" height="192" viewBox="0 0 192 192" fill="none" xmlns="http://www.w3.org/2000/svg">
<g clip-path="url(#clip0)">
<path d="M96.2569 124.109L67.8933 95.7454L96.2569 67.3819L124.62 95.7454L96.2569 124.109ZM186.918 90.3603L104.288 7.77676L96.2569 -0.254639L34.052 61.9503L5.64203 90.3603C4.93603 91.0633 4.37583 91.899 3.99358 92.8191C3.61133 93.7392 3.41455 94.7258 3.41455 95.7221C3.41455 96.7185 3.61133 97.7051 3.99358 98.6252C4.37583 99.5453 4.93603 100.381 5.64203 101.084L62.462 157.904L96.2569 191.699L158.462 129.494L159.437 128.519L186.918 101.084C188.311 99.6465 189.089 97.7235 189.089 95.7221C189.089 93.7208 188.311 91.7978 186.918 90.3603Z" fill="#2684FF"/>
<path d="M96.2557 67.3819C87.3545 58.4239 82.3586 46.3082 82.3586 33.6798C82.3586 21.0514 87.3545 8.93572 96.2557 -0.0222778L34.1437 62.0433L67.9386 95.8383L96.2557 67.3819Z" fill="url(#paint0_linear)"/>
<path d="M124.76 95.7454L96.2576 124.109C100.7 128.549 104.224 133.821 106.629 139.624C109.033 145.426 110.27 151.646 110.27 157.927C110.27 164.208 109.033 170.427 106.629 176.23C104.224 182.033 100.7 187.305 96.2576 191.745L158.509 129.494L124.76 95.7454Z" fill="#0052CC"/>
</g>
<defs>
<linearGradient id="paint0_linear" x1="53.3622" y1="76.4805" x2="97.4163" y2="32.4265" gradientUnits="userSpaceOnUse">
<stop stop-color="#2684FF"/>
<stop offset="0.14" stop-color="#1D78F3"/>
<stop offset="0.51" stop-color="#085CD7"/>
<stop offset="0.72" stop-color="#0052CC"/>
</linearGradient>
<clipPath id="clip0">
<rect width="192" height="192" fill="white"/>
</clipPath>
</defs>
</svg>
