<svg width="189" height="65" viewBox="0 0 189 65" fill="none" xmlns="http://www.w3.org/2000/svg">
<rect width="188.841" height="64.8" fill="white"/>
<g clip-path="url(#clip0_2397_982)">
<path d="M154.942 22.5C154.942 22.5 154.942 41.8759 154.942 41.8759C154.942 42.8332 155.442 43.3925 155.958 43.7447C156.511 44.1161 157.323 44.302 158.417 44.302C159.109 44.302 160.023 44.0725 160.023 44.0725C160.023 44.0725 160.023 42.3349 160.023 42.3349C159.749 42.3519 159.506 42.3677 159.237 42.3677C157.608 42.3677 157.368 41.7315 157.368 41.0235C157.368 41.0235 157.368 22.5 157.368 22.5L154.942 22.5ZM103.699 22.6967C101.87 22.6967 100.217 23.2703 99.0434 24.3032C97.9036 25.3107 97.273 26.7014 97.273 28.2046C97.273 29.8602 97.943 31.1538 99.3384 32.1716C100.569 33.0703 102.197 33.6505 103.764 34.2042C106.489 35.1734 109.043 36.0579 109.043 38.5318C109.043 39.6321 108.668 40.5753 107.961 41.2202C107.183 41.9294 106.063 42.2693 104.584 42.2693C101.991 42.2693 100.103 40.8336 99.0434 38.0401C99.0433 38.0401 96.7156 38.663 96.7156 38.663C97.217 39.7959 98.0698 41.4309 99.3056 42.5316C100.661 43.7473 102.343 44.3348 104.453 44.3348C106.952 44.3348 108.849 43.6902 110.092 42.4005C111.381 41.0578 111.666 39.3396 111.666 38.1384C111.666 36.4172 110.938 35.0881 109.469 34.0403C108.186 33.1204 106.527 32.5274 104.912 31.9749C102.28 31.075 99.7695 30.2187 99.7974 28.0079C99.8067 26.977 100.164 26.1745 100.814 25.6146C101.476 25.0457 102.419 24.7622 103.633 24.7622C104.908 24.7622 106.046 25.1186 106.912 25.8113C107.708 26.4421 108.288 27.3784 108.551 28.4341C108.551 28.4341 110.813 28.139 110.813 28.139C109.821 24.7556 107.395 22.6967 103.699 22.6967V22.6967ZM0 22.9918V44.0397H2.42609V24.7949L2.49166 24.8605L8.26181 44.0397H10.1306L15.9335 24.8605L15.9663 24.7949V44.0397H18.3924V22.9918H14.3598L9.21257 39.9088V39.9744L9.17978 39.9088L4.03255 22.9918H0ZM115.501 23.418V28.4669H113.174V30.4012C113.174 30.4012 115.501 30.4012 115.501 30.4012C115.501 30.4012 115.501 41.2197 115.501 41.8759C115.501 42.8332 115.937 43.3925 116.452 43.7447C117.006 44.1161 117.816 44.302 118.911 44.302C119.604 44.302 120.55 44.0725 120.55 44.0725C120.55 44.0725 120.55 42.3349 120.55 42.3349C120.281 42.3519 119.999 42.3677 119.731 42.3677C118.1 42.3677 117.927 41.7315 117.927 41.0235C117.927 41.0235 117.927 30.4012 117.927 30.4012H120.55V28.4669H117.927V23.418H115.501ZM28.2278 28.1718C26.1849 28.1718 24.4535 28.9949 23.2445 30.5323C22.1225 31.9671 21.5069 33.994 21.5069 36.2369C21.5069 38.4819 22.1225 40.5051 23.2445 41.9415C24.4535 43.4829 26.1849 44.302 28.2278 44.302C30.2791 44.302 32.0053 43.4829 33.2112 41.9415C34.3333 40.5051 34.9488 38.4819 34.9488 36.2369C34.9488 33.994 34.3333 31.9671 33.2112 30.5323C32.0053 28.9949 30.2791 28.1718 28.2278 28.1718V28.1718ZM168.187 28.2046C167.15 28.2046 166.186 28.3952 165.367 28.7619C164.566 29.1229 163.855 29.6664 163.302 30.3684C162.202 31.7462 161.564 33.7917 161.564 36.2697C161.564 39.0276 162.357 41.132 163.794 42.5316C165.309 44.0111 167.241 44.302 168.58 44.302C172.061 44.302 173.769 42.4186 174.482 40.6957C174.481 40.6957 172.547 39.7449 172.547 39.7449C172.077 40.7939 170.996 42.4005 168.58 42.4005C167.199 42.4005 166.07 41.8351 165.269 40.794C164.495 39.7865 164.06 38.392 164.056 36.7287C164.056 36.7287 174.678 36.7287 174.678 36.7287C174.678 36.7287 174.678 35.2533 174.678 35.2533C174.678 32.7049 174 30.8044 172.744 29.6471C171.675 28.664 170.175 28.2046 168.187 28.2046V28.2046ZM53.0788 28.2374C50.3417 28.2374 46.4563 30.0791 46.4563 36.2697C46.4563 42.2805 50.3296 44.302 52.9477 44.302C54.4757 44.302 55.8642 43.4555 56.8163 42.2365C56.8163 42.2366 56.9475 42.171 56.9475 42.171C56.9475 42.171 56.9475 45.1216 56.9475 45.1216C56.9475 47.1911 55.1564 48.4657 53.2428 48.4657C51.3823 48.4657 49.7353 48.1105 48.3906 47.4821C48.3906 47.4821 48.3906 49.5804 48.3906 49.5804C49.523 50.0657 51.3658 50.3672 52.9477 50.3672C57.2543 50.3672 59.308 47.997 59.308 44.5643C59.308 44.5643 59.308 28.5324 59.308 28.5324H57.5048L56.9803 30.1717C56.0902 29.0119 54.9249 28.2374 53.0788 28.2374V28.2374ZM68.7501 28.2374C65.3044 28.2374 63.673 30.3014 62.9799 31.5814L64.9142 32.5978C65.1857 31.8664 66.1629 30.1717 68.7828 30.1717C70.8487 30.1717 71.8974 31.0834 71.8974 32.8928V33.4502C71.8974 33.4502 71.9143 33.6196 71.8646 33.6797C71.7879 33.7765 71.5703 33.8558 71.045 33.9092C68.1526 34.2319 66.2301 34.7069 64.8159 35.614C63.2806 36.6008 62.3242 37.9823 62.3242 39.876C62.3242 41.2213 62.9756 42.3694 63.8323 43.1873C64.629 43.9405 65.7144 44.3324 66.9141 44.3676C69.4678 44.4495 71.1487 43.3866 71.963 42.1382C72.0262 42.996 72.3336 43.4861 73.0121 43.843C73.6493 44.1833 74.6945 44.1156 75.1431 44.0069C75.1431 44.0069 75.1431 42.3677 75.1431 42.3677C74.6023 42.3407 74.2579 42.0835 74.2579 41.4169C74.2579 41.4169 74.2579 33.9092 74.2579 33.9092C74.2579 33.9092 74.2579 32.9256 74.2579 32.9256C74.2579 31.3762 73.6498 30.1054 72.4875 29.2865C71.5292 28.6064 70.1901 28.2374 68.75 28.2374H68.7501ZM85.4376 28.2374C83.8586 28.2374 82.2428 29.0553 80.8805 30.5979V28.5324H78.4544V44.0725H80.8805C80.8805 44.0725 80.8805 32.5322 80.8805 32.5322C81.706 31.6501 83.5564 30.1717 85.2409 30.1717C86.9296 30.1717 87.667 31 87.667 32.86C87.6669 32.86 87.667 44.0725 87.667 44.0725H90.0931V32.7945C90.0931 29.4369 87.7053 28.2374 85.4376 28.2374V28.2374ZM129.337 28.2374C125.893 28.2374 124.262 30.3014 123.566 31.5814C123.567 31.5814 125.501 32.5978 125.501 32.5978C125.773 31.8664 126.749 30.1717 129.369 30.1717C131.435 30.1717 132.484 31.0834 132.484 32.8928C132.484 32.8928 132.484 33.4502 132.484 33.4502C132.484 33.4502 132.467 33.6196 132.418 33.6797C132.343 33.7765 132.159 33.8558 131.632 33.9092C128.739 34.2313 126.817 34.7069 125.402 35.614C123.868 36.6008 122.911 37.9823 122.911 39.876C122.911 41.2213 123.561 42.3689 124.419 43.1873C125.216 43.9405 126.302 44.3324 127.501 44.3676C130.052 44.4495 131.735 43.3866 132.55 42.1382C132.614 42.9956 132.919 43.4861 133.599 43.843C134.235 44.1833 135.28 44.1156 135.73 44.0069C135.73 44.0069 135.73 42.3677 135.73 42.3677C135.19 42.3407 134.845 42.0835 134.845 41.4169C134.845 41.4169 134.845 33.9092 134.845 33.9092C134.845 33.9092 134.845 32.9256 134.845 32.9256C134.845 31.3762 134.205 30.1054 133.041 29.2865C132.082 28.6064 130.776 28.2374 129.337 28.2374V28.2374ZM146.024 28.2374C144.441 28.2374 142.829 29.0553 141.467 30.5979V28.5324H139.041V44.0725H141.467C141.467 44.0725 141.467 32.5322 141.467 32.5322C142.294 31.6496 144.141 30.1717 145.827 30.1717C147.513 30.1717 148.254 31 148.254 32.86V44.0725H150.68V32.7945C150.68 29.4369 148.292 28.2374 146.024 28.2374V28.2374ZM45.5383 28.3029C43.0768 28.3029 41.618 29.2573 40.3583 31.5159V31.3519V28.5324H37.9322V44.0397H40.3583C40.3583 44.0397 40.3583 35.2533 40.3583 35.2533C40.9572 32.0615 42.6471 30.5651 45.5383 30.5651V28.3029V28.3029ZM176.317 28.4996L181.727 43.9086C181.727 43.9086 181.727 44.0397 181.727 44.0397C181.404 45.5165 180.469 47.3395 179.629 47.9083C178.887 48.4118 178.083 48.4657 177.465 48.4657C177.166 48.4657 176.55 48.3649 176.285 48.3018C176.285 48.3018 176.285 50.1705 176.285 50.1705C176.62 50.2529 177.395 50.4 177.891 50.4C179.047 50.4 180.022 50.1106 180.842 49.5148C181.823 48.8016 182.91 46.9428 183.432 45.3511C183.432 45.3511 188.841 28.4996 188.841 28.4996H186.481L182.94 40.4334L182.907 40.6956L182.842 40.4334L178.678 28.4996H176.317ZM28.2278 30.1061C30.8396 30.1061 32.3915 32.3986 32.3915 36.2369C32.3915 40.0763 30.8396 42.3677 28.2278 42.3677C25.6203 42.3677 24.0642 40.0763 24.0642 36.2369C24.0641 32.3986 25.6203 30.1061 28.2278 30.1061ZM53.2428 30.1389C54.6115 30.1389 55.8131 30.7303 56.9475 32.1388C56.9475 32.1388 56.9475 39.5482 56.9475 39.5482C56.3196 41.3353 54.5212 42.3677 53.2428 42.3677C50.7409 42.3677 49.0135 40.8098 49.0135 36.1385C49.0135 32.2107 50.5637 30.1389 53.2428 30.1389V30.1389ZM168.252 30.1389C171.032 30.1389 172.275 31.6087 172.285 34.7944C172.285 34.7944 164.121 34.7944 164.121 34.7944C164.333 31.6113 165.667 30.1389 168.252 30.1389ZM71.963 35.614C71.963 35.614 71.963 39.5482 71.963 39.5482C71.8511 40.9064 69.3129 42.5503 67.2419 42.4333C66.0993 42.3706 64.9984 41.4505 64.8814 39.9416C64.6918 37.4201 66.5865 36.3732 70.8155 35.909C71.1097 35.8821 71.679 35.7777 71.963 35.614ZM132.55 35.614C132.55 35.614 132.55 39.5482 132.55 39.5482C132.438 40.9058 129.899 42.5503 127.829 42.4333C126.688 42.3701 125.582 41.45 125.468 39.9416C125.275 37.4201 127.172 36.3732 131.402 35.909C131.694 35.8821 132.268 35.7777 132.55 35.614Z" fill="#222222"/>
</g>
<defs>
<clipPath id="clip0_2397_982">
<rect width="188.841" height="35.1" fill="white" transform="translate(0 18)"/>
</clipPath>
</defs>
</svg>
