<svg width="39" height="65" viewBox="0 0 39 65" fill="none" xmlns="http://www.w3.org/2000/svg">
<rect width="37.7272" height="64.8" transform="translate(0.883606)" fill="white"/>
<g clip-path="url(#clip0_2397_987)">
<path d="M19.7471 50.8422C10.6431 50.8422 3.14135 43.2676 3.14135 34.1636C3.14135 32.2699 3.50551 30.4491 4.08817 28.7011L13.7749 47.5647C13.9205 47.8561 14.0662 48.0017 14.3575 48.0017C14.7217 48.0017 14.7945 47.7832 14.9402 47.5647L19.4558 37.5139C19.5286 37.3682 19.6015 37.2954 19.6743 37.2954C19.82 37.2954 19.82 37.441 19.8928 37.5139L24.4812 47.5647C24.6269 47.8561 24.7726 48.0017 25.0639 48.0017C25.4281 48.0017 25.5009 47.7832 25.6466 47.5647L35.3333 28.7011C35.9159 30.3763 36.2801 32.1971 36.2801 34.1636C36.3529 43.2676 28.8512 50.8422 19.7471 50.8422ZM19.7471 29.8665C19.6015 29.8665 19.6015 29.7208 19.5286 29.648L14.3575 18.4318C17.8535 17.1936 21.6408 17.1936 25.1367 18.4318L19.9656 29.648C19.8928 29.7208 19.8928 29.8665 19.7471 29.8665ZM14.2847 42.0295C14.139 42.0295 14.139 41.8838 14.0662 41.811L5.61765 25.4965C7.0743 23.0931 9.25927 21.0537 11.7356 19.5971L17.7078 32.5613C17.8535 32.8526 17.9992 32.9254 18.1448 32.9254H21.2766C21.4951 32.9254 21.6408 32.8526 21.7136 32.5613L27.6859 19.5971C30.1622 20.9809 32.3471 23.0202 33.8038 25.4965L25.4281 41.811C25.3552 41.9566 25.2824 42.0295 25.2096 42.0295C25.0639 42.0295 25.0639 41.8838 24.9911 41.811L21.7864 34.6734C21.6408 34.3821 21.4951 34.3092 21.3494 34.3092H18.2176C17.9991 34.3092 17.8535 34.3821 17.7807 34.6734L14.5032 41.811C14.4304 41.8838 14.4304 42.0295 14.2847 42.0295ZM19.7471 53.1C30.235 53.1 38.6107 44.6514 38.6107 34.2364C38.6107 23.8214 30.235 15.3 19.7471 15.3C9.25927 15.3 0.883545 23.7485 0.883545 34.1636C0.883545 44.5786 9.3321 53.1 19.7471 53.1Z" fill="#0E2350"/>
</g>
<defs>
<clipPath id="clip0_2397_987">
<rect width="37.7272" height="40.5" fill="white" transform="translate(0.883545 15.3)"/>
</clipPath>
</defs>
</svg>
