<svg width="25" height="24" viewBox="0 0 25 24" fill="none" xmlns="http://www.w3.org/2000/svg">
<g opacity="0.9">
<path d="M13.8813 6.06522C13.1785 5.68707 12.372 5.47437 11.5309 5.47437C9.42248 5.47437 7.61363 6.78602 6.84168 8.65312C6.49608 8.58222 6.15043 8.53491 5.78173 8.53491C2.95898 8.54676 0.677734 10.8983 0.677734 13.8053C0.677734 16.7123 2.85529 18.9457 5.57433 19.0638V19.0757H13.8928" stroke="currentColor" stroke-miterlimit="10"/>
<path d="M6.93433 8.6886C6.93433 8.6886 7.39518 8.8186 7.85603 9.06675L6.93433 8.6886Z" fill="currentColor"/>
<path d="M6.93433 8.6886C6.93433 8.6886 7.39518 8.8186 7.85603 9.06675" stroke="currentColor" stroke-miterlimit="10" stroke-linecap="round"/>
<path d="M14.0654 5.17871H23.4785C23.8126 5.17871 24.0776 5.45051 24.0776 5.79321V9.45646C24.0776 9.79916 23.8126 10.071 23.4785 10.071H14.0654" stroke="currentColor" stroke-miterlimit="10"/>
<path d="M14.0654 14.9513H23.4785C23.8126 14.9513 24.0776 14.6795 24.0776 14.3368V10.6736C24.0776 10.3309 23.8126 10.0591 23.4785 10.0591H14.0654" stroke="currentColor" stroke-miterlimit="10"/>
<path d="M22.487 8.10924C22.7797 8.10924 23.017 7.86584 23.017 7.56564C23.017 7.26544 22.7797 7.02209 22.487 7.02209C22.1943 7.02209 21.957 7.26544 21.957 7.56564C21.957 7.86584 22.1943 8.10924 22.487 8.10924Z" fill="currentColor" stroke="currentColor" stroke-miterlimit="10"/>
<path d="M22.487 13.0016C22.7797 13.0016 23.017 12.7582 23.017 12.458C23.017 12.1578 22.7797 11.9144 22.487 11.9144C22.1943 11.9144 21.957 12.1578 21.957 12.458C21.957 12.7582 22.1943 13.0016 22.487 13.0016Z" fill="currentColor" stroke="currentColor" stroke-miterlimit="10"/>
<path d="M14.0654 14.9514H23.4785C23.8126 14.9514 24.0776 15.2232 24.0776 15.5659V19.2292C24.0776 19.5719 23.8126 19.8437 23.4785 19.8437H14.0654" stroke="currentColor" stroke-miterlimit="10"/>
<path d="M22.487 17.882C22.7797 17.882 23.017 17.6386 23.017 17.3384C23.017 17.0381 22.7797 16.7948 22.487 16.7948C22.1943 16.7948 21.957 17.0381 21.957 17.3384C21.957 17.6386 22.1943 17.882 22.487 17.882Z" fill="currentColor" stroke="currentColor" stroke-miterlimit="10"/>
<path d="M13.8816 2.94556V21.5927" stroke="currentColor" stroke-linecap="round" stroke-linejoin="round" stroke-dasharray="1.76 1.76"/>
<path d="M5.03371 2.52002V5.48608M3.58203 3.99714H6.47391" stroke="currentColor" stroke-linecap="round" stroke-linejoin="round" stroke-dasharray="1.45 1.45"/>
</g>
</svg>