<svg width="192" height="192" viewBox="0 0 192 192" fill="none" xmlns="http://www.w3.org/2000/svg">
<path d="M158.771 44.7585C158.771 38.3775 153.599 33.2251 147.242 33.2251C140.884 33.2251 135.708 38.3775 135.708 44.7585C135.708 51.1161 140.884 56.2685 147.242 56.2685C153.599 56.2685 158.771 51.1161 158.771 44.7585Z" fill="url(#paint0_linear)"/>
<path d="M174.132 134.788C173.705 144.148 172.14 149.234 170.84 152.612C169.094 157.091 167.011 160.293 163.633 163.652C160.293 167.011 157.091 169.089 152.612 170.816C149.234 172.135 144.129 173.706 134.769 174.152C124.649 174.598 121.65 174.693 95.9881 174.693C70.3496 174.693 67.3272 174.598 57.2075 174.152C47.8471 173.706 42.7659 172.135 39.3876 170.816C34.8853 169.089 31.7067 167.011 28.3477 163.652C24.9649 160.293 22.8822 157.091 21.16 152.612C19.8598 149.234 18.2707 144.148 17.8672 134.788C17.374 124.668 17.2836 121.622 17.2836 96.012C17.2836 70.3498 17.374 67.3274 17.8672 57.2076C18.2707 47.8472 19.8598 42.766 21.16 39.3593C22.8822 34.8855 24.9649 31.7019 28.3477 28.3429C31.7067 24.9888 34.8853 22.9058 39.3876 21.1601C42.7659 19.8365 47.8471 18.2897 57.2075 17.8438C67.3272 17.3976 70.3496 17.2837 95.9881 17.2837C121.65 17.2837 124.649 17.3976 134.769 17.8438C144.129 18.2897 149.234 19.8365 152.612 21.1601C157.091 22.9058 160.293 24.9888 163.633 28.3429C167.011 31.7019 169.094 34.8855 170.84 39.3593C172.14 42.766 173.705 47.8472 174.132 57.2076C174.602 67.3274 174.716 70.3498 174.716 96.012C174.716 121.622 174.602 124.668 174.132 134.788ZM191.416 56.4202C190.947 46.1912 189.333 39.2027 186.938 33.1159C184.499 26.8011 181.23 21.4494 175.879 16.0978C170.551 10.77 165.199 7.50098 158.884 5.03403C152.774 2.66171 145.809 1.02954 135.575 0.583694C125.341 0.0901489 122.073 0.00012207 95.9881 0.00012207C69.9273 0.00012207 66.6348 0.0901489 56.4012 0.583694C46.1911 1.02954 39.2311 2.66171 33.092 5.03403C26.8009 7.50098 21.4493 10.77 16.1215 16.0978C10.7698 21.4494 7.50085 26.8011 5.03852 33.1159C2.66622 39.2027 1.05325 46.1912 0.559717 56.4202C0.113865 66.6538 0 69.9274 0 96.012C0 122.073 0.113865 125.341 0.559717 135.575C1.05325 145.785 2.66622 152.769 5.03852 158.884C7.50085 165.175 10.7698 170.551 16.1215 175.879C21.4493 181.206 26.8009 184.499 33.092 186.962C39.2311 189.334 46.1911 190.947 56.4012 191.417C66.6348 191.886 69.9273 192 95.9881 192C122.073 192 125.341 191.886 135.575 191.417C145.809 190.947 152.774 189.334 158.884 186.962C165.199 184.499 170.551 181.206 175.879 175.879C181.23 170.551 184.499 165.175 186.938 158.884C189.333 152.769 190.947 145.785 191.416 135.575C191.886 125.341 192 122.073 192 96.012C192 69.9274 191.886 66.6538 191.416 56.4202Z" fill="url(#paint1_linear)"/>
<path d="M95.988 127.984C78.3247 127.984 63.992 113.675 63.992 96.0115C63.992 78.3197 78.3247 63.992 95.988 63.992C113.656 63.992 128.008 78.3197 128.008 96.0115C128.008 113.675 113.656 127.984 95.988 127.984ZM95.988 46.6845C68.7601 46.6845 46.7084 68.7836 46.7084 96.0115C46.7084 123.216 68.7601 145.292 95.988 145.292C123.216 145.292 145.291 123.216 145.291 96.0115C145.291 68.7836 123.216 46.6845 95.988 46.6845Z" fill="url(#paint2_linear)"/>
<defs>
<linearGradient id="paint0_linear" x1="1.73181" y1="189.773" x2="176.006" y2="15.7847" gradientUnits="userSpaceOnUse">
<stop stop-color="#FFD521"/>
<stop offset="0.05" stop-color="#FFD521"/>
<stop offset="0.501119" stop-color="#F50000"/>
<stop offset="0.95" stop-color="#B900B4"/>
<stop offset="0.950079" stop-color="#B900B4"/>
<stop offset="1" stop-color="#B900B4"/>
</linearGradient>
<linearGradient id="paint1_linear" x1="1.73181" y1="190.254" x2="176.151" y2="15.8345" gradientUnits="userSpaceOnUse">
<stop stop-color="#FFD521"/>
<stop offset="0.05" stop-color="#FFD521"/>
<stop offset="0.501119" stop-color="#F50000"/>
<stop offset="0.95" stop-color="#B900B4"/>
<stop offset="0.950079" stop-color="#B900B4"/>
<stop offset="1" stop-color="#B900B4"/>
</linearGradient>
<linearGradient id="paint2_linear" x1="1.82253" y1="190.259" x2="176.116" y2="15.8811" gradientUnits="userSpaceOnUse">
<stop stop-color="#FFD521"/>
<stop offset="0.05" stop-color="#FFD521"/>
<stop offset="0.501119" stop-color="#F50000"/>
<stop offset="0.95" stop-color="#B900B4"/>
<stop offset="0.950079" stop-color="#B900B4"/>
<stop offset="1" stop-color="#B900B4"/>
</linearGradient>
</defs>
</svg>
