<svg width="25" height="24" viewBox="0 0 25 24" fill="none" xmlns="http://www.w3.org/2000/svg">
<g clip-path="url(#clip0_5817_10272)">
<path d="M23.9574 15.4479C23.9574 14.1133 23.0759 12.9833 21.8797 12.6497C21.8797 12.6174 21.8797 12.5851 21.8797 12.542C21.8797 10.5187 20.2847 8.87207 18.3225 8.87207C16.8534 8.87207 15.5942 9.78687 15.0486 11.0891C14.8072 11.0353 14.5659 11.0138 14.314 11.0138C12.3518 11.0138 10.7568 12.6497 10.7568 14.6837C10.7568 16.7178 12.2678 18.2676 14.1671 18.3429H21.439C22.8556 18.203 23.9574 16.9546 23.9574 15.4479Z" stroke="currentColor" stroke-miterlimit="10"/>
<path d="M15.1113 11.1213C15.1113 11.1213 15.4261 11.2074 15.7514 11.3796L15.1113 11.1213Z" fill="#FFDBC0"/>
<path d="M15.1113 11.1213C15.1113 11.1213 15.4261 11.2074 15.7514 11.3796" stroke="currentColor" stroke-miterlimit="10" stroke-linecap="round"/>
<path d="M19.7813 16.2874C19.7813 14.3394 18.5011 12.7036 16.7593 12.2193C16.7593 12.1654 16.7593 12.1224 16.7593 12.0686C16.7593 9.11972 14.4402 6.73047 11.5756 6.73047C9.44543 6.73047 7.60913 8.05422 6.81163 9.95917C6.46533 9.88382 6.10858 9.84077 5.74128 9.84077C2.87664 9.84077 0.557617 12.23 0.557617 15.1681C0.557617 18.117 2.76121 20.3771 5.52093 20.4955V20.5062H16.0982C18.1654 20.2802 19.7813 18.4614 19.7813 16.2874Z" stroke="currentColor" stroke-miterlimit="10"/>
<path d="M6.90625 9.98071C6.90625 9.98071 7.36795 10.1099 7.84015 10.3682L6.90625 9.98071Z" fill="#FFDBC0"/>
<path d="M6.90625 9.98071C6.90625 9.98071 7.36795 10.1099 7.84015 10.3682" stroke="currentColor" stroke-miterlimit="10" stroke-linecap="round"/>
<path d="M4.87026 5.37427V8.07562M3.55859 6.73032H6.19239" stroke="currentColor" stroke-linecap="round" stroke-linejoin="round" stroke-dasharray="1.32 1.32"/>
<path d="M17.0425 3.48022V6.74122M15.458 5.11612H18.6375" stroke="currentColor" stroke-linecap="round" stroke-linejoin="round" stroke-dasharray="1.6 1.6"/>
</g>
<defs>
<clipPath id="clip0_5817_10272">
<rect width="24.5" height="24" fill="white"/>
</clipPath>
</defs>
</svg>