<svg width="40" height="40" viewBox="0 0 40 40" fill="none" xmlns="http://www.w3.org/2000/svg">
<path d="M12.6312 38.6441L13.3244 34.2408L11.7802 34.205H4.40637L9.53081 1.71266C9.54671 1.61457 9.59841 1.52311 9.67396 1.45816C9.74952 1.39321 9.84628 1.35742 9.94702 1.35742H22.3803C26.508 1.35742 29.3565 2.21635 30.8437 3.91169C31.541 4.70699 31.985 5.53809 32.1997 6.45269C32.4251 7.41237 32.429 8.55893 32.209 9.95735L32.1931 10.0594V10.9555L32.8903 11.3505C33.4775 11.662 33.9441 12.0185 34.302 12.4268C34.8985 13.1068 35.2842 13.971 35.4472 14.9956C35.6156 16.0494 35.5599 17.3033 35.2842 18.723C34.9661 20.356 34.4518 21.7783 33.7572 22.9421C33.1183 24.0144 32.3044 24.9038 31.3381 25.5931C30.4156 26.2479 29.3194 26.745 28.08 27.0631C26.8791 27.3759 25.5099 27.5337 24.0081 27.5337H23.0404C22.3485 27.5337 21.6765 27.7829 21.1489 28.2296C20.62 28.6855 20.2701 29.3085 20.1627 29.9898L20.0898 30.3862L18.8651 38.147L18.8094 38.432C18.7948 38.5222 18.7696 38.5672 18.7325 38.5977C18.6994 38.6255 18.6517 38.6441 18.6053 38.6441H12.6312Z" fill="#253B80"/>
<path d="M33.5504 10.1627C33.5133 10.4 33.4709 10.6426 33.4232 10.8918C31.7835 19.3101 26.1739 22.2183 19.0095 22.2183H15.3617C14.4856 22.2183 13.7472 22.8545 13.6107 23.7187L11.7431 35.5635L11.2142 38.9211C11.1254 39.4884 11.5628 40 12.1354 40H18.6052C19.3714 40 20.0222 39.4433 20.1428 38.6878L20.2065 38.359L21.4246 30.6286L21.5028 30.2045C21.6221 29.4463 22.2743 28.8896 23.0404 28.8896H24.008C30.2764 28.8896 35.1834 26.3446 36.6176 18.98C37.2168 15.9035 36.9066 13.3347 35.3213 11.528C34.8415 10.9832 34.2463 10.5312 33.5504 10.1627Z" fill="#179BD7"/>
<path d="M31.8352 9.47879C31.5847 9.40588 31.3262 9.33961 31.0611 9.27996C30.7947 9.22164 30.5216 9.16994 30.2406 9.12487C29.2571 8.96581 28.1795 8.89026 27.0249 8.89026H17.2798C17.0399 8.89026 16.8119 8.94461 16.6077 9.04269C16.1584 9.25875 15.8244 9.68424 15.7435 10.2052L13.6704 23.3357L13.6107 23.7188C13.7473 22.8545 14.4856 22.2183 15.3618 22.2183H19.0096C26.174 22.2183 31.7835 19.3088 33.4232 10.8918C33.4722 10.6426 33.5133 10.4 33.5504 10.1628C33.1356 9.94272 32.6862 9.75449 32.2024 9.59411C32.0831 9.55434 31.9598 9.5159 31.8352 9.47879Z" fill="#222D65"/>
<path d="M15.7435 10.2051C15.8243 9.6842 16.1584 9.25871 16.6077 9.04398C16.8132 8.94589 17.0398 8.89154 17.2797 8.89154H27.0249C28.1794 8.89154 29.2571 8.9671 30.2406 9.12616C30.5216 9.17123 30.7947 9.22292 31.0611 9.28124C31.3262 9.34089 31.5847 9.40717 31.8352 9.48007C31.9598 9.51718 32.0831 9.55562 32.2037 9.59406C32.6875 9.75445 33.1369 9.944 33.5517 10.1627C34.0395 7.05173 33.5478 4.93356 31.8657 3.01554C30.0113 0.904 26.6644 0 22.3816 0H9.94833C9.07349 0 8.32722 0.636246 8.19202 1.50181L3.01324 34.3281C2.91118 34.9776 3.41222 35.5635 4.06702 35.5635H11.7431L13.6704 23.3357L15.7435 10.2051Z" fill="#253B80"/>
</svg>
