<svg width="60" height="60" viewBox="0 0 60 60" fill="none" xmlns="http://www.w3.org/2000/svg">
<path d="M20.0023 1.73268H37.7568L19.3259 56.3416C19.1365 56.9028 18.7758 57.3904 18.2947 57.7358C17.8137 58.0812 17.2364 58.2671 16.6441 58.2672H2.82668C2.37795 58.2673 1.93565 58.1605 1.53638 57.9557C1.13711 57.7509 0.792344 57.4539 0.530603 57.0894C0.268862 56.7249 0.0976702 56.3034 0.0311898 55.8596C-0.0352905 55.4158 0.00485163 54.9626 0.148295 54.5374L17.3198 3.65828C17.5092 3.0969 17.8699 2.60906 18.3511 2.26349C18.8323 1.91792 19.4099 1.73203 20.0023 1.73199V1.73268Z" fill="url(#paint0_linear_4444_4795)"/>
<path d="M45.8027 38.3606H17.6482C17.3865 38.3603 17.1307 38.4389 16.9143 38.586C16.6978 38.7332 16.5306 38.9421 16.4346 39.1856C16.3386 39.4291 16.3181 39.6959 16.3759 39.9512C16.4336 40.2065 16.5669 40.4384 16.7584 40.6169L34.8498 57.5027C35.3765 57.9941 36.0701 58.2673 36.7904 58.2671H52.7325L45.8027 38.3606Z" fill="#0078D4"/>
<path d="M20.0016 1.73275C19.4027 1.73045 18.8187 1.91971 18.335 2.2729C17.8513 2.62608 17.4932 3.12468 17.313 3.69585L0.168752 54.4911C0.0156581 54.9178 -0.0324053 55.3751 0.0286276 55.8244C0.0896605 56.2736 0.257994 56.7015 0.519389 57.072C0.780783 57.4424 1.12755 57.7444 1.53035 57.9525C1.93315 58.1605 2.38014 58.2685 2.8335 58.2673H17.0075C17.5354 58.173 18.0288 57.9402 18.4374 57.5928C18.8459 57.2454 19.1548 56.7957 19.3327 56.2898L22.7516 46.2139L34.9639 57.6045C35.4757 58.0278 36.1176 58.2619 36.7818 58.2673H52.6646L45.6986 38.3608L25.3918 38.3655L37.8203 1.73275H20.0016Z" fill="url(#paint1_linear_4444_4795)"/>
<path d="M42.6785 3.6556C42.4894 3.09513 42.1292 2.6081 41.6487 2.26314C41.1682 1.91817 40.5916 1.73266 40.0001 1.73273H20.2129C20.8044 1.73276 21.381 1.91832 21.8614 2.26327C22.3419 2.60822 22.7021 3.09518 22.8913 3.6556L40.0635 54.5368C40.207 54.962 40.2473 55.4154 40.1809 55.8593C40.1144 56.3032 39.9433 56.7249 39.6815 57.0895C39.4198 57.4541 39.075 57.7512 38.6757 57.9561C38.2763 58.161 37.834 58.2679 37.3851 58.268H57.173C57.6218 58.2678 58.0641 58.1608 58.4633 57.9559C58.8626 57.7509 59.2073 57.4538 59.4689 57.0892C59.7306 56.7246 59.9017 56.3029 59.9681 55.8591C60.0345 55.4153 59.9942 54.962 59.8507 54.5368L42.6785 3.6556Z" fill="url(#paint2_linear_4444_4795)"/>
<defs>
<linearGradient id="paint0_linear_4444_4795" x1="26.4733" y1="5.92209" x2="8.0348" y2="60.394" gradientUnits="userSpaceOnUse">
<stop stop-color="#114A8B"/>
<stop offset="1" stop-color="#0669BC"/>
</linearGradient>
<linearGradient id="paint1_linear_4444_4795" x1="32.2323" y1="31.3075" x2="27.9672" y2="32.7497" gradientUnits="userSpaceOnUse">
<stop stop-opacity="0.3"/>
<stop offset="0.071" stop-opacity="0.2"/>
<stop offset="0.321" stop-opacity="0.1"/>
<stop offset="0.623" stop-opacity="0.05"/>
<stop offset="1" stop-opacity="0"/>
</linearGradient>
<linearGradient id="paint2_linear_4444_4795" x1="29.8866" y1="4.33338" x2="50.1265" y2="58.2564" gradientUnits="userSpaceOnUse">
<stop stop-color="#3CCBF4"/>
<stop offset="1" stop-color="#2892DF"/>
</linearGradient>
</defs>
</svg>
