<svg width="176" height="65" viewBox="0 0 176 65" fill="none" xmlns="http://www.w3.org/2000/svg">
<rect width="175.327" height="64.7971" transform="translate(0.18689)" fill="white"/>
<g clip-path="url(#clip0_2397_1021)">
<path d="M12.0597 24.3293L15.529 22.291V30.7908L16.3218 31.2574L17.1147 30.7908V22.291L20.584 24.3293L21.3768 22.9323L16.3218 19.9607L11.2668 22.9323L12.0597 24.3293Z" fill="#00AAE7"/>
<path d="M9.99893 43.0008L6.52961 40.9625L13.7578 36.7111V35.7807L12.965 35.3141L5.73678 39.5625V35.483H4.15112V41.4262L9.2061 44.4007L9.99893 43.0008Z" fill="#00AAE7"/>
<path d="M1.77267 42.8261V25.7178L16.3219 17.1637L30.8712 25.7178V42.8261L16.3219 51.3803L1.77267 42.8261ZM16.3219 15.3L0.187012 24.7846V43.7566L16.3219 53.2411L32.4568 43.7566V24.7846L16.3219 15.3Z" fill="#00AAE7"/>
<path d="M22.6448 25.5433L26.1141 27.5817L16.3219 33.3417L6.5268 27.5817L9.99893 25.5433L9.20611 24.1434L4.15112 27.115V33.0611H5.73397V28.9787L15.529 34.7388V46.2531L12.0569 44.2119L11.2669 45.6118L16.3219 48.5834L21.3769 45.6118L20.584 44.2119L17.1147 46.2531V34.7359L26.907 28.9787V33.0611H28.4926V27.115L23.4376 24.1434L22.6448 25.5433Z" fill="#00AAE7"/>
<path d="M26.9069 35.483V39.5625L19.6787 35.3141L18.8859 35.7779V36.7111L26.1141 40.9625L22.6448 43.0008L23.4376 44.4007L28.4926 41.4262V35.483H26.9069Z" fill="#00AAE7"/>
<path d="M31.0791 46.0214H31.5205C31.7932 46.0214 31.9282 46.1359 31.9282 46.3621C31.9282 46.4709 31.8972 46.5482 31.841 46.5997C31.782 46.6484 31.7089 46.6799 31.6217 46.6885L31.9563 47.2152H31.7651L31.4474 46.7028H31.2562V47.2152H31.0791V46.0243V46.0214ZM31.259 46.5539H31.4418C31.4811 46.5539 31.5205 46.5539 31.557 46.551C31.5936 46.5482 31.6273 46.5396 31.6554 46.5281C31.6836 46.5138 31.7089 46.4967 31.7257 46.468C31.7426 46.4394 31.751 46.4022 31.751 46.3564C31.751 46.3163 31.7426 46.2819 31.7285 46.259C31.7117 46.2361 31.692 46.2161 31.6667 46.2018C31.6414 46.1903 31.6133 46.1817 31.5824 46.1789C31.5514 46.176 31.5205 46.1732 31.4924 46.1732H31.259V46.5568V46.5539Z" fill="#00AAE7"/>
<path d="M31.4615 47.825C30.8064 47.825 30.275 47.2839 30.275 46.6169C30.275 45.9498 30.8064 45.4088 31.4615 45.4088C32.1165 45.4088 32.6479 45.9498 32.6479 46.6169C32.6479 47.2839 32.1165 47.825 31.4615 47.825ZM31.4615 45.6149C30.9188 45.6149 30.4746 46.0643 30.4746 46.6197C30.4746 47.1751 30.9188 47.6246 31.4615 47.6246C32.0041 47.6246 32.4483 47.1723 32.4483 46.6197C32.4483 46.0672 32.0069 45.6149 31.4615 45.6149Z" fill="#00AAE7"/>
<path d="M59.3567 39.1019C58.7972 39.8691 57.83 40.9198 56.6267 40.9198H53.939C53.4667 40.9198 52.9494 40.7451 52.6064 40.5247C52.1537 40.2613 51.2934 39.3652 51.0376 38.9702C50.7789 38.5751 50.6946 38.14 50.6946 37.722V30.8254C50.6946 30.4103 50.7789 29.9952 51.0376 29.6001C51.2962 29.2279 52.1565 28.2861 52.6064 28.0227C52.9494 27.8252 53.4667 27.6276 53.939 27.6276H56.6267C57.83 27.6276 58.8 28.7012 59.3567 29.4455C59.5282 29.686 59.6153 29.8606 59.8093 30.2128L57.6164 30.8483C57.6164 30.8483 56.9697 30.0381 56.6492 29.8406C56.6267 29.8206 56.5846 29.8206 56.5621 29.8206H54.0261C53.984 29.8206 53.939 29.8406 53.939 29.8406C53.6607 29.9952 53.1883 30.4532 52.9719 30.8054C52.9494 30.8483 52.9494 31.0029 52.9494 31.0458V37.7019C52.9494 37.9653 53.6157 38.535 53.939 38.7097C53.9615 38.7297 54.0683 38.7297 54.0908 38.7297H56.5424C56.5621 38.7297 56.6071 38.7297 56.6492 38.7097C57.1019 38.4921 57.6164 37.6819 57.6164 37.6819L59.8093 38.2716C59.6378 38.6667 59.531 38.8642 59.3567 39.1047" fill="#000006"/>
<path d="M64.4313 38.0512H61.7858V40.8109H64.4313V38.0512Z" fill="#000006"/>
<path d="M73.6332 40.8082V35.4003H68.9466V40.8082H66.689V27.7164H68.9466V33.2131H73.6332V27.7164H75.8908V40.8082H73.6332Z" fill="#000006"/>
<path d="M80.7967 38.0512H78.1511V40.8109H80.7967V38.0512Z" fill="#000006"/>
<path d="M96.6843 34.0004C96.4903 34.2838 95.824 34.9422 95.5231 35.1598C95.3516 35.2915 95.1576 35.4003 94.9636 35.4661L97.5221 40.8082H95.0705L92.6836 35.6408H90.2095V40.8082H87.9519V27.7164H93.9937C94.511 27.7164 95.0902 27.8911 95.5203 28.1974C95.8211 28.4178 96.4875 29.1164 96.6814 29.4026C96.9401 29.7977 97.0694 30.2787 97.0694 30.7367V32.6634C97.0694 33.1444 96.9401 33.6053 96.6814 34.0004M94.8146 30.7596C94.8146 30.7596 94.8146 30.6508 94.7922 30.6079C94.6628 30.3674 94.3198 29.9294 94.1062 29.9065H90.2123V33.4536H93.9965C94.1905 33.4536 94.6207 33.0384 94.7922 32.7321C94.7922 32.7321 94.8146 32.6892 94.8146 32.6434V30.7596Z" fill="#000006"/>
<path d="M109.029 38.9472C108.748 39.3194 107.91 40.2613 107.458 40.5247C107.115 40.7422 106.578 40.9197 106.125 40.9197H102.858C102.386 40.9197 101.869 40.7451 101.526 40.5247C101.073 40.2613 100.213 39.3194 99.9568 38.9472C99.6981 38.5522 99.6138 38.1141 99.6138 37.699V30.8454C99.6138 30.4303 99.6981 29.9923 99.9568 29.5972C100.215 29.225 101.076 28.2832 101.526 28.0198C101.869 27.8022 102.386 27.6247 102.858 27.6247H106.125C106.578 27.6247 107.115 27.7994 107.458 28.0198C107.91 28.2832 108.748 29.225 109.029 29.5972C109.288 29.9923 109.372 30.4303 109.372 30.8454V37.699C109.372 38.1141 109.285 38.5522 109.029 38.9472ZM101.869 37.679C101.869 37.679 101.869 37.7448 101.891 37.7649C102.15 38.16 102.6 38.5751 102.836 38.7068C102.878 38.7297 102.92 38.7297 102.943 38.7297H106.038C106.038 38.7297 106.103 38.7297 106.145 38.7068C106.381 38.5751 106.834 38.16 107.092 37.7649C107.112 37.7219 107.112 37.679 107.112 37.679V30.9141C107.112 30.9141 107.112 30.8282 107.092 30.8053C106.834 30.4103 106.381 29.9722 106.145 29.8434C106.103 29.8205 106.06 29.8205 106.038 29.8205H102.943C102.943 29.8205 102.858 29.8205 102.836 29.8434C102.6 29.9751 102.147 30.4131 101.891 30.8053C101.869 30.8483 101.869 30.9141 101.869 30.9141V37.679Z" fill="#000006"/>
<path d="M120.877 39.1449C120.683 39.4283 120.036 40.1068 119.738 40.3272C119.308 40.6335 118.706 40.8082 118.189 40.8082H112.147V27.7164H118.189C118.748 27.7164 119.308 27.914 119.738 28.2203C120.039 28.4379 120.683 29.1164 120.877 29.4026C121.155 29.8178 121.242 30.3216 121.242 30.7596V32.38C121.242 33.299 120.899 33.7828 120.404 34.2838C120.899 34.7876 121.242 35.2457 121.242 36.1675V37.8308C121.242 38.2917 121.135 38.7527 120.877 39.1449ZM118.985 32.337V30.7825C118.985 30.7396 118.962 30.6737 118.962 30.6737C118.768 30.3245 118.361 29.9065 118.167 29.9065H114.405V33.2131H118.189C118.383 33.2131 118.813 32.818 118.962 32.4888C118.962 32.4888 118.985 32.4458 118.985 32.337ZM118.985 37.7449V36.1904C118.985 36.1246 118.962 36.0816 118.962 36.0816C118.768 35.7324 118.361 35.3373 118.167 35.3373H114.405V38.621H118.189C118.383 38.621 118.813 38.2259 118.962 37.8967C118.962 37.8967 118.985 37.8308 118.985 37.7449Z" fill="#000006"/>
<path d="M126.553 27.7164H124.295V40.8082H126.553V27.7164Z" fill="#000006"/>
<path d="M136.573 40.8082L132.123 32.1166V40.8082H129.865V27.7164H132.294L136.702 36.5168V27.7164H138.96V40.8082H136.573Z" fill="#000006"/>
<path d="M151.108 38.9473C150.85 39.3423 149.989 40.2613 149.54 40.5247C149.197 40.7222 148.657 40.9198 148.207 40.9198H144.465C143.197 40.9198 142.292 39.8691 141.735 39.1019C141.564 38.8614 141.521 38.7526 141.347 38.4234L143.475 37.7019C143.475 37.7019 143.905 38.3146 144.42 38.7097C144.42 38.7097 144.462 38.7326 144.569 38.7326H148.095C148.179 38.7326 148.224 38.7097 148.224 38.7097C148.547 38.535 149.191 37.8794 149.191 37.7019V36.4108C149.191 36.2133 149.039 36.0615 148.932 36.0386L143.343 34.4183C142.247 34.1119 141.668 33.0384 141.668 32.0307V30.8483C141.668 30.4761 141.732 29.9952 141.991 29.6001C142.25 29.205 143.13 28.2861 143.582 28.0227C143.925 27.8252 144.442 27.6276 144.915 27.6276H148.097C149.388 27.6276 150.271 28.7012 150.827 29.4455C150.999 29.686 151.106 29.8835 151.257 30.2099L149.087 30.8454C149.087 30.8454 148.592 30.124 148.14 29.8377C148.14 29.8377 148.12 29.8148 148.01 29.8148H144.977C144.892 29.8148 144.847 29.8377 144.847 29.8377C144.504 30.0124 143.922 30.625 143.922 30.7996V31.8932C143.922 32.0908 144.052 32.2425 144.159 32.2654L149.77 33.9287C150.867 34.235 151.446 35.3315 151.446 36.3163V37.6962C151.446 38.0684 151.381 38.5493 151.103 38.9444" fill="#000006"/>
<path d="M163.302 38.9472C163.02 39.3194 162.183 40.2613 161.73 40.5247C161.387 40.7422 160.85 40.9197 160.397 40.9197H157.13C156.658 40.9197 156.141 40.7451 155.798 40.5247C155.345 40.2613 154.485 39.3194 154.229 38.9472C153.97 38.5522 153.886 38.1141 153.886 37.699V30.8454C153.886 30.4303 153.97 29.9923 154.229 29.5972C154.488 29.225 155.348 28.2832 155.798 28.0198C156.141 27.8022 156.658 27.6247 157.13 27.6247H160.397C160.85 27.6247 161.387 27.7994 161.73 28.0198C162.183 28.2832 163.02 29.225 163.302 29.5972C163.56 29.9923 163.645 30.4303 163.645 30.8454V37.699C163.645 38.1141 163.56 38.5522 163.302 38.9472ZM156.141 37.679C156.141 37.679 156.141 37.7448 156.163 37.7649C156.422 38.16 156.872 38.5751 157.108 38.7068C157.15 38.7297 157.192 38.7297 157.215 38.7297H160.31C160.31 38.7297 160.375 38.7297 160.417 38.7068C160.653 38.5751 161.106 38.16 161.364 37.7649C161.384 37.7219 161.384 37.679 161.384 37.679V30.9141C161.384 30.9141 161.384 30.8282 161.364 30.8053C161.106 30.4103 160.653 29.9722 160.417 29.8434C160.375 29.8205 160.333 29.8205 160.31 29.8205H157.215C157.215 29.8205 157.13 29.8205 157.108 29.8434C156.872 29.9751 156.419 30.4131 156.163 30.8053C156.141 30.8483 156.141 30.9141 156.141 30.9141V37.679Z" fill="#000006"/>
<path d="M173.128 40.8082L168.677 32.1166V40.8082H166.419V27.7164H168.849L173.257 36.5168V27.7164H175.514V40.8082H173.128Z" fill="#000006"/>
</g>
<defs>
<clipPath id="clip0_2397_1021">
<rect width="175.327" height="37.9411" fill="white" transform="translate(0.187012 15.3)"/>
</clipPath>
</defs>
</svg>
