<svg width="192" height="192" viewBox="0 0 192 192" fill="none" xmlns="http://www.w3.org/2000/svg">
<g clip-path="url(#clip0)">
<path d="M167.666 0.0434974H23.6668C20.5246 0.0153714 17.4077 0.607526 14.4946 1.78567C11.5815 2.96382 8.92952 4.7048 6.6903 6.90934C4.45108 9.11388 2.66868 11.7383 1.44522 14.6326C0.221749 17.5269 -0.418783 20.6342 -0.4397 23.7764V167.776C-0.468158 174.122 2.0186 180.222 6.47644 184.74C10.9343 189.258 17.0001 191.826 23.3468 191.882H167.666C170.797 191.889 173.898 191.279 176.793 190.088C179.688 188.896 182.32 187.146 184.539 184.938C186.757 182.729 188.519 180.105 189.724 177.215C190.929 174.325 191.552 171.227 191.559 168.096V24.0967C191.587 20.9545 190.995 17.8374 189.817 14.9243C188.639 12.0112 186.898 9.3595 184.693 7.12028C182.489 4.88106 179.864 3.09833 176.97 1.87487C174.076 0.651398 170.968 0.0110287 167.826 -0.0098877L167.666 0.0434974ZM153.159 48.0432C153.159 46.3458 153.834 44.7181 155.034 43.5178C156.234 42.3176 157.862 41.6435 159.559 41.6435C161.257 41.6435 162.885 42.3176 164.085 43.5178C165.285 44.7181 165.959 46.3458 165.959 48.0432V105.643C165.959 107.34 165.285 108.968 164.085 110.168C162.885 111.369 161.257 112.043 159.559 112.043C157.862 112.043 156.234 111.369 155.034 110.168C153.834 108.968 153.159 107.34 153.159 105.643V48.0432ZM121.159 35.2431C121.159 33.5458 121.834 31.918 123.034 30.7178C124.234 29.5176 125.862 28.8434 127.56 28.8434C129.257 28.8434 130.885 29.5176 132.085 30.7178C133.285 31.918 133.96 33.5458 133.96 35.2431V120.576C133.96 122.273 133.285 123.901 132.085 125.101C130.885 126.302 129.257 126.976 127.56 126.976C125.862 126.976 124.234 126.302 123.034 125.101C121.834 123.901 121.159 122.273 121.159 120.576V35.2431ZM89.1597 31.9899C89.3059 30.3865 90.0463 28.8958 91.2354 27.8103C92.4244 26.7247 93.9763 26.1228 95.5864 26.1228C97.1965 26.1228 98.7484 26.7247 99.9374 27.8103C101.127 28.8958 101.867 30.3865 102.013 31.9899V124.843C101.867 126.446 101.127 127.937 99.9374 129.023C98.7484 130.108 97.1965 130.71 95.5864 130.71C93.9763 130.71 92.4244 130.108 91.2354 129.023C90.0463 127.937 89.3059 126.446 89.1597 124.843V31.9899ZM57.1599 35.2431C57.1599 33.5458 57.8341 31.918 59.0344 30.7178C60.2346 29.5176 61.8625 28.8434 63.5599 28.8434C65.2573 28.8434 66.8852 29.5176 68.0854 30.7178C69.2857 31.918 69.9599 33.5458 69.9599 35.2431V120.576C69.9599 122.273 69.2857 123.901 68.0854 125.101C66.8852 126.302 65.2573 126.976 63.5599 126.976C61.8625 126.976 60.2346 126.302 59.0344 125.101C57.8341 123.901 57.1599 122.273 57.1599 120.576V35.2431ZM25.1601 48.0432C25.1601 46.3458 25.8344 44.7181 27.0346 43.5178C28.2348 42.3176 29.8627 41.6435 31.5601 41.6435C33.2575 41.6435 34.8854 42.3176 36.0856 43.5178C37.2859 44.7181 37.9601 46.3458 37.9601 48.0432V105.643C37.9601 107.34 37.2859 108.968 36.0856 110.168C34.8854 111.369 33.2575 112.043 31.5601 112.043C29.8627 112.043 28.2348 111.369 27.0346 110.168C25.8344 108.968 25.1601 107.34 25.1601 105.643V48.0432ZM163.826 145.749C162.759 146.656 139.079 166.442 95.5597 166.442C52.04 166.442 28.3602 146.602 27.2935 145.749C26.6643 145.208 26.1483 144.548 25.7753 143.806C25.4023 143.065 25.1797 142.257 25.1202 141.429C25.0607 140.602 25.1655 139.77 25.4286 138.983C25.6918 138.196 26.108 137.468 26.6534 136.843C27.1956 136.208 27.8577 135.686 28.6018 135.308C29.3458 134.929 30.1573 134.701 30.9896 134.637C31.8219 134.573 32.6587 134.673 33.4522 134.933C34.2456 135.192 34.9801 135.606 35.6135 136.149C53.2668 148.122 74.2376 154.242 95.5597 153.643C133.959 153.643 155.293 136.149 155.293 135.936C155.923 135.389 156.654 134.972 157.446 134.708C158.237 134.444 159.073 134.339 159.905 134.398C160.738 134.458 161.55 134.681 162.296 135.054C163.042 135.428 163.707 135.945 164.253 136.576C164.829 137.191 165.278 137.915 165.574 138.704C165.869 139.493 166.006 140.334 165.977 141.176C165.947 142.019 165.751 142.846 165.4 143.613C165.049 144.379 164.551 145.07 163.933 145.643L163.826 145.749Z" fill="#1F8DED"/>
</g>
<defs>
<clipPath id="clip0">
<rect width="192" height="192" fill="white"/>
</clipPath>
</defs>
</svg>
