<svg width="40" height="40" viewBox="0 0 40 40" fill="none" xmlns="http://www.w3.org/2000/svg">
<g clip-path="url(#clip0_1_747)">
<path d="M33.256 25.6789C33.2559 28.4087 32.2222 31.0371 30.3627 33.0357C30.558 32.8189 30.7334 32.585 30.8869 32.3368C31.0061 32.1477 31.1108 31.9499 31.2002 31.7451C31.2327 31.6776 31.2614 31.6084 31.2864 31.5378C31.3154 31.4701 31.3407 31.4009 31.3621 31.3304C31.3866 31.2652 31.4075 31.1976 31.4262 31.1301C31.4448 31.0625 31.4646 30.9903 31.4797 30.9193L31.4879 30.8948C31.5042 30.8249 31.517 30.755 31.531 30.684C31.545 30.6129 31.5578 30.5384 31.5694 30.465C31.5799 30.3974 31.5881 30.3299 31.5939 30.26C31.6103 30.1002 31.6185 29.9396 31.6184 29.7789C31.6209 28.897 31.3816 28.0312 30.9265 27.2758C30.8272 27.1064 30.7162 26.9441 30.5945 26.7901C30.4523 26.6067 30.2965 26.4342 30.1286 26.2741C29.7108 25.8684 29.223 25.5417 28.6889 25.3096C28.4549 25.2062 28.2125 25.1228 27.9644 25.0604H27.9539L27.8677 25.0313L26.6086 24.5991L23.3157 23.4669C23.3053 23.4669 23.2913 23.4669 23.2831 23.4669L23.077 23.3912C22.4162 23.129 21.8675 22.6446 21.5255 22.0214L20.3269 18.9487L18.9489 15.4357L18.6845 14.7578L18.617 14.6204C18.5399 14.4326 18.5003 14.2316 18.5005 14.0287C18.4976 13.9763 18.4976 13.9238 18.5005 13.8714C18.5252 13.6324 18.6056 13.4026 18.7353 13.2003C18.865 12.9981 19.0403 12.8291 19.2471 12.7068C19.454 12.5846 19.6866 12.5126 19.9263 12.4966C20.166 12.4806 20.4061 12.521 20.6274 12.6146L26.7647 15.7595L27.9749 16.378C28.6157 16.7586 29.2146 17.2057 29.7617 17.7117C31.8006 19.5793 33.0431 22.1597 33.2316 24.9183C33.2456 25.1734 33.256 25.425 33.256 25.6789Z" fill="url(#paint0_linear_1_747)"/>
<path d="M31.6149 29.7743C31.6149 30.0799 31.5868 30.3848 31.531 30.6852C31.5147 30.7632 31.4984 30.8424 31.4797 30.9181C31.4448 31.0579 31.4075 31.193 31.3633 31.3293C31.3388 31.3992 31.3144 31.4691 31.2876 31.5367C31.2608 31.6042 31.2305 31.6741 31.2014 31.744C31.112 31.9488 31.0072 32.1466 30.888 32.3357C30.7344 32.5837 30.559 32.8176 30.3639 33.0346C29.4693 34.0235 26.4327 35.787 25.3134 36.5045L22.8289 38.0187C21.0083 39.1404 19.2867 39.9348 17.1214 39.9884C17.0189 39.9884 16.9187 39.9884 16.8186 39.9884C16.6788 39.9884 16.5402 39.9884 16.4027 39.9802C14.6494 39.9127 12.9388 39.4197 11.4184 38.5437C9.89813 37.6677 8.61376 36.4349 7.67613 34.9518C6.81126 33.5902 6.26645 32.0502 6.0827 30.4476C6.21628 31.1929 6.52461 31.8959 6.98243 32.4991C7.44025 33.1022 8.0345 33.5882 8.71647 33.9172C9.39843 34.2463 10.1487 34.409 10.9057 34.392C11.6627 34.3751 12.4049 34.1789 13.0714 33.8196L13.0877 33.8115L13.3312 33.6659L14.3201 33.0835L15.5792 32.338V32.3031L15.7411 32.2064L27.0058 25.5333L27.8724 25.0197L27.9586 25.0488H27.9691C28.2173 25.1109 28.4597 25.1943 28.6936 25.298C29.2277 25.5301 29.7155 25.8568 30.1333 26.2625C30.3012 26.4226 30.4569 26.5951 30.5992 26.7785C30.7208 26.9326 30.8317 27.0949 30.9311 27.2642C31.3834 28.023 31.6198 28.891 31.6149 29.7743V29.7743Z" fill="url(#paint1_linear_1_747)"/>
<path d="M15.5792 7.50241V32.3462L14.3154 33.087L13.3254 33.6694L13.0819 33.8173C13.0763 33.818 13.071 33.8205 13.0668 33.8243C12.4003 34.1836 11.6582 34.3798 10.9013 34.3968C10.1443 34.4138 9.39415 34.2512 8.71221 33.9223C8.03027 33.5934 7.43599 33.1075 6.97811 32.5045C6.52023 31.9015 6.21178 31.1986 6.07805 30.4534C6.05941 30.3497 6.04544 30.2426 6.03379 30.1389C6.01865 29.9432 6.00816 29.751 6.00467 29.5565V1.60159C6.00494 1.31079 6.08426 1.02553 6.23415 0.77634C6.38404 0.527147 6.59885 0.323391 6.85562 0.186874C7.11238 0.0503567 7.40143 -0.0137858 7.69183 0.00130785C7.98224 0.0164015 8.26308 0.110164 8.50431 0.272563L13.4046 3.4734C13.4313 3.49545 13.4597 3.51531 13.4896 3.53281C14.1354 3.97376 14.6634 4.56605 15.0276 5.25798C15.3919 5.94991 15.5812 6.72046 15.5792 7.50241V7.50241Z" fill="url(#paint2_linear_1_747)"/>
<g opacity="0.149">
<g opacity="0.149">
<path opacity="0.149" d="M31.6149 29.7743C31.6149 30.0799 31.5868 30.3848 31.531 30.6852C31.5147 30.7632 31.4984 30.8424 31.4797 30.9181C31.4448 31.0579 31.4075 31.193 31.3633 31.3293C31.3388 31.3992 31.3144 31.4691 31.2876 31.5367C31.2608 31.6042 31.2305 31.6741 31.2014 31.744C31.112 31.9488 31.0072 32.1466 30.888 32.3357C30.7346 32.5839 30.5592 32.8178 30.3639 33.0346C29.4693 34.0235 26.4327 35.787 25.3134 36.5045L22.8289 38.0187C21.0083 39.1404 19.2867 39.9348 17.1214 39.9884C17.0189 39.9884 16.9187 39.9884 16.8186 39.9884C16.6788 39.9884 16.5402 39.9884 16.4027 39.9802C14.6494 39.9127 12.9388 39.4197 11.4184 38.5437C9.89813 37.6677 8.61376 36.4349 7.67613 34.9518C6.81126 33.5902 6.26645 32.0502 6.0827 30.4476C6.21628 31.1929 6.52461 31.8959 6.98243 32.4991C7.44025 33.1022 8.0345 33.5882 8.71647 33.9172C9.39843 34.2463 10.1487 34.409 10.9057 34.392C11.6627 34.3751 12.4049 34.1789 13.0714 33.8196L13.0877 33.8115L13.3312 33.6659L14.3201 33.0835L15.5792 32.338V32.3031L15.7411 32.2064L27.0058 25.5333L27.8724 25.0197L27.9586 25.0488H27.9691C28.2173 25.1109 28.4597 25.1943 28.6936 25.298C29.2277 25.5301 29.7155 25.8568 30.1333 26.2625C30.3012 26.4226 30.4569 26.5951 30.5992 26.7785C30.7208 26.9326 30.8317 27.0949 30.9311 27.2642C31.3834 28.023 31.6198 28.891 31.6149 29.7743V29.7743Z" fill="url(#paint3_linear_1_747)"/>
</g>
</g>
<g opacity="0.098">
<g opacity="0.098">
<path opacity="0.098" d="M15.5792 7.50241V32.3462L14.3154 33.087L13.3254 33.6694L13.0819 33.8173C13.0763 33.818 13.071 33.8205 13.0668 33.8243C12.4003 34.1836 11.6582 34.3798 10.9013 34.3968C10.1443 34.4138 9.39415 34.2512 8.71221 33.9223C8.03027 33.5934 7.43599 33.1075 6.97811 32.5045C6.52023 31.9015 6.21178 31.1986 6.07805 30.4534C6.05941 30.3497 6.04544 30.2426 6.03379 30.1389C6.01865 29.9432 6.00816 29.751 6.00467 29.5565V1.60159C6.00494 1.31079 6.08426 1.02553 6.23415 0.77634C6.38404 0.527147 6.59885 0.323391 6.85562 0.186874C7.11238 0.0503567 7.40143 -0.0137858 7.69183 0.00130785C7.98224 0.0164015 8.26308 0.110164 8.50431 0.272563L13.4046 3.4734C13.4313 3.49545 13.4597 3.51531 13.4896 3.53281C14.1354 3.97376 14.6634 4.56605 15.0276 5.25798C15.3919 5.94991 15.5812 6.72046 15.5792 7.50241V7.50241Z" fill="url(#paint4_linear_1_747)"/>
</g>
</g>
</g>
<defs>
<linearGradient id="paint0_linear_1_747" x1="16.3686" y1="17.6629" x2="33.9118" y2="27.8015" gradientUnits="userSpaceOnUse">
<stop stop-color="#37BDFF"/>
<stop offset="0.18" stop-color="#33BFFD"/>
<stop offset="0.36" stop-color="#28C5F5"/>
<stop offset="0.53" stop-color="#15D0E9"/>
<stop offset="0.55" stop-color="#12D1E7"/>
<stop offset="0.59" stop-color="#1CD2E5"/>
<stop offset="0.77" stop-color="#42D8DC"/>
<stop offset="0.91" stop-color="#59DBD6"/>
<stop offset="1" stop-color="#62DCD4"/>
</linearGradient>
<linearGradient id="paint1_linear_1_747" x1="6.08771" y1="32.8708" x2="31.6334" y2="32.8708" gradientUnits="userSpaceOnUse">
<stop stop-color="#39D2FF"/>
<stop offset="0.15" stop-color="#38CEFE"/>
<stop offset="0.29" stop-color="#35C3FA"/>
<stop offset="0.43" stop-color="#2FB0F3"/>
<stop offset="0.55" stop-color="#299AEB"/>
<stop offset="0.58" stop-color="#2692EC"/>
<stop offset="0.76" stop-color="#1A6CF1"/>
<stop offset="0.91" stop-color="#1355F4"/>
<stop offset="1" stop-color="#104CF5"/>
</linearGradient>
<linearGradient id="paint2_linear_1_747" x1="10.8152" y1="35.0922" x2="10.8152" y2="0.945753" gradientUnits="userSpaceOnUse">
<stop stop-color="#1B48EF"/>
<stop offset="0.12" stop-color="#1C51F0"/>
<stop offset="0.32" stop-color="#1E69F5"/>
<stop offset="0.57" stop-color="#2190FB"/>
<stop offset="1" stop-color="#26B8F4"/>
</linearGradient>
<linearGradient id="paint3_linear_1_747" x1="11.157" y1="39.1647" x2="26.9344" y2="23.4158" gradientUnits="userSpaceOnUse">
<stop stop-color="white"/>
<stop offset="0.37" stop-color="#FDFDFD"/>
<stop offset="0.51" stop-color="#F6F6F6"/>
<stop offset="0.6" stop-color="#EBEBEB"/>
<stop offset="0.68" stop-color="#DADADA"/>
<stop offset="0.75" stop-color="#C4C4C4"/>
<stop offset="0.81" stop-color="#A8A8A8"/>
<stop offset="0.86" stop-color="#888888"/>
<stop offset="0.91" stop-color="#626262"/>
<stop offset="0.95" stop-color="#373737"/>
<stop offset="0.99" stop-color="#090909"/>
<stop offset="1"/>
</linearGradient>
<linearGradient id="paint4_linear_1_747" x1="-292.722" y1="22981.9" x2="-292.722" y2="22566.3" gradientUnits="userSpaceOnUse">
<stop stop-color="white"/>
<stop offset="0.37" stop-color="#FDFDFD"/>
<stop offset="0.51" stop-color="#F6F6F6"/>
<stop offset="0.6" stop-color="#EBEBEB"/>
<stop offset="0.68" stop-color="#DADADA"/>
<stop offset="0.75" stop-color="#C4C4C4"/>
<stop offset="0.81" stop-color="#A8A8A8"/>
<stop offset="0.86" stop-color="#888888"/>
<stop offset="0.91" stop-color="#626262"/>
<stop offset="0.95" stop-color="#373737"/>
<stop offset="0.99" stop-color="#090909"/>
<stop offset="1"/>
</linearGradient>
<clipPath id="clip0_1_747">
<rect width="40" height="40" fill="white"/>
</clipPath>
</defs>
</svg>
