<svg width="25" height="24" viewBox="0 0 25 24" fill="none" xmlns="http://www.w3.org/2000/svg">
<g clip-path="url(#clip0_5467_8959)">
<path d="M6.88707 4.56055H17.5307C17.8619 4.56055 18.1394 4.83599 18.1394 5.18489V8.91249C18.1394 9.25219 17.8709 9.53684 17.5307 9.53684H6.88707C6.55587 9.53684 6.27832 9.26139 6.27832 8.91249V5.18489C6.27832 4.83599 6.54692 4.56055 6.88707 4.56055Z" stroke="currentColor" stroke-miterlimit="10"/>
<path d="M6.88707 14.5132H17.5307C17.8619 14.5132 18.1394 14.2377 18.1394 13.8888V10.1612C18.1394 9.82146 17.8709 9.53687 17.5307 9.53687H6.88707C6.55587 9.53687 6.27832 9.81231 6.27832 10.1612V13.8888C6.27832 14.2285 6.54692 14.5132 6.88707 14.5132Z" stroke="currentColor" stroke-miterlimit="10"/>
<path d="M16.5187 7.5445C16.8154 7.5445 17.0558 7.29785 17.0558 6.99365C17.0558 6.6894 16.8154 6.44275 16.5187 6.44275C16.2221 6.44275 15.9816 6.6894 15.9816 6.99365C15.9816 7.29785 16.2221 7.5445 16.5187 7.5445Z" fill="currentColor" stroke="currentColor" stroke-miterlimit="10"/>
<path d="M16.5187 12.5208C16.8154 12.5208 17.0558 12.2742 17.0558 11.97C17.0558 11.6657 16.8154 11.4191 16.5187 11.4191C16.2221 11.4191 15.9816 11.6657 15.9816 11.97C15.9816 12.2742 16.2221 12.5208 16.5187 12.5208Z" fill="currentColor" stroke="currentColor" stroke-miterlimit="10"/>
<path d="M6.88707 14.5132H17.5307C17.8619 14.5132 18.1394 14.7886 18.1394 15.1375V18.8651C18.1394 19.2048 17.8709 19.4895 17.5307 19.4895H6.88707C6.55587 19.4895 6.27832 19.214 6.27832 18.8651V15.1375C6.27832 14.7886 6.54692 14.5132 6.88707 14.5132Z" stroke="currentColor" stroke-miterlimit="10"/>
<path d="M16.5187 17.4971C16.8154 17.4971 17.0558 17.2505 17.0558 16.9463C17.0558 16.642 16.8154 16.3954 16.5187 16.3954C16.2221 16.3954 15.9816 16.642 15.9816 16.9463C15.9816 17.2505 16.2221 17.4971 16.5187 17.4971Z" fill="currentColor" stroke="currentColor" stroke-miterlimit="10"/>
<path d="M2.15021 10.1609V13.8885M0.333008 12.0247H3.96742" stroke="currentColor" stroke-linecap="round" stroke-linejoin="round" stroke-dasharray="1.83 1.83"/>
<path d="M21.9158 15.1279V18.8555M20.0986 17.0009H23.733" stroke="currentColor" stroke-linecap="round" stroke-linejoin="round" stroke-dasharray="1.83 1.83"/>
</g>
<defs>
<clipPath id="clip0_5467_8959">
<rect width="24.5" height="24" fill="currentColor"/>
</clipPath>
</defs>
</svg>