<svg width="46" height="34" viewBox="0 0 46 34" fill="none" xmlns="http://www.w3.org/2000/svg">
<path d="M45.2126 18.358C45.0499 15.4577 43.3491 13.0063 40.9449 11.7543C40.21 5.03518 34.3307 -0.00943699 27.5013 0.37114C23.4331 0.599486 19.916 2.70185 17.7402 5.79108C17.7008 5.79108 17.6614 5.79371 17.6221 5.79633C13.2441 6.04043 9.89503 9.78845 10.1391 14.1664C10.3832 18.5444 14.1312 21.8934 18.5092 21.6493C18.5486 21.6493 18.5879 21.6441 18.6273 21.6415C21.1339 24.4709 24.8635 26.169 28.9318 25.9407C30.2126 25.8698 31.4383 25.61 32.5853 25.1953C34.0184 26.2504 35.8136 26.8304 37.7297 26.7255C42.1076 26.4814 45.4567 22.7333 45.2126 18.3554V18.358Z" fill="white" stroke="#306BEA" stroke-width="0.328084"/>
<path d="M21.5436 15.667C15.8744 14.2681 17.2243 8.33284 17.8219 5.95193C13.5437 5.8894 9.99389 9.96758 10.2313 14.2175C10.4687 18.4674 13.9126 21.7683 18.241 21.5265C18.2857 21.524 18.3304 21.5207 18.3747 21.5174C20.8558 24.2915 24.555 25.9547 28.5909 25.7292C29.8666 25.6579 31.4388 25.3576 32.5806 24.9462C33.8746 26.0633 35.8457 26.6526 37.7469 26.5464C39.3176 26.4587 40.7363 25.9065 41.9188 25.0524C34.5509 25.6392 28.715 17.4368 21.544 15.6669L21.5436 15.667Z" fill="url(#paint0_linear_271_132)"/>
<path d="M16.9344 22.7963C16.8583 21.4131 16.0499 20.2451 14.9055 19.6467C14.5485 16.4499 11.7506 14.0509 8.49868 14.232C6.5643 14.3396 4.88976 15.3396 3.85039 16.8068C3.84777 16.8068 3.84252 16.8068 3.83989 16.8068C3.83989 16.8068 3.8189 16.8068 3.8084 16.8068C1.71654 16.9249 0.115487 18.715 0.230972 20.8068C0.349083 22.8987 2.13911 24.4997 4.23097 24.3842C4.24672 24.3842 4.25984 24.3842 4.27559 24.3816C5.46981 25.7255 7.24672 26.5312 9.1811 26.4236C9.7874 26.3895 10.3674 26.2688 10.9108 26.0719C11.5932 26.5706 12.4488 26.8462 13.3596 26.7963C15.4514 26.6782 17.0525 24.8882 16.937 22.7963H16.9344Z" fill="#E8F1FF" stroke="#306BEA" stroke-width="0.328084"/>
<path d="M16.1259 19.3239L33.5905 13.8331V25.547C33.5852 26.1271 33.1994 26.7098 32.433 27.1533L27.6508 29.9145L22.8687 32.6756C21.3332 33.5628 18.8477 33.5628 17.3201 32.6756L17.265 32.6441C16.5012 32.2006 16.1207 31.6179 16.1259 31.0378V19.3239Z" fill="#306BEA" stroke="#001525" stroke-width="0.328084"/>
<path d="M28.1295 23.9169L28.7504 23.5585C28.7654 23.5501 28.7802 23.5376 28.7936 23.5219C28.8069 23.5062 28.8182 23.4879 28.8266 23.4687C28.835 23.4495 28.8402 23.43 28.8416 23.4119C28.843 23.3938 28.8407 23.3778 28.8348 23.3652L27.7677 20.6096C27.7614 20.5932 27.7499 20.5825 27.7348 20.579C27.7197 20.5755 27.7017 20.5793 27.6833 20.59L27.0601 20.9497C27.0363 20.9635 27.0134 20.9877 26.9965 21.0169C26.9795 21.0461 26.97 21.078 26.9699 21.1056C26.9698 21.1184 26.9717 21.13 26.9754 21.1398L28.0425 23.8999C28.0492 23.9164 28.0611 23.9268 28.0767 23.9299C28.0923 23.9329 28.1108 23.9284 28.1295 23.9169Z" fill="white"/>
<path d="M28.0183 27.5658L28.6392 27.2073C28.663 27.1935 28.6859 27.1694 28.7028 27.1402C28.7197 27.1109 28.7293 27.079 28.7294 27.0514C28.7294 27.0387 28.7275 27.0271 28.7239 27.0172L26.5208 21.3299C26.5145 21.3133 26.5031 21.3025 26.488 21.299C26.4729 21.2954 26.4548 21.2992 26.4364 21.3099L25.8161 21.668C25.8043 21.6747 25.7926 21.6841 25.7817 21.6957C25.7707 21.7072 25.7608 21.7205 25.7525 21.735C25.7441 21.7495 25.7375 21.7648 25.733 21.78C25.7285 21.7952 25.7262 21.81 25.7262 21.8237C25.7258 21.8367 25.7277 21.8483 25.7317 21.8578L27.9355 27.5456C27.9417 27.5617 27.953 27.5722 27.9677 27.5758C27.9825 27.5794 28.0001 27.5759 28.0183 27.5658Z" fill="white"/>
<path d="M26.7959 28.2715L27.4181 27.9123C27.433 27.9044 27.4477 27.8923 27.4611 27.8771C27.4745 27.8619 27.4861 27.844 27.4948 27.8251C27.5036 27.8062 27.5092 27.7867 27.5112 27.7686C27.5132 27.7504 27.5116 27.734 27.5064 27.7209L26.4334 24.9645C26.4271 24.9481 26.4156 24.9374 26.4004 24.9339C26.3853 24.9305 26.3672 24.9343 26.3487 24.9451L25.7249 25.3052C25.7011 25.3197 25.6786 25.3444 25.6622 25.3738C25.6459 25.4032 25.637 25.4349 25.6376 25.4621C25.6379 25.4736 25.6399 25.4841 25.6434 25.493L26.7106 28.2532C26.717 28.2696 26.7287 28.2801 26.7439 28.2834C26.7592 28.2867 26.7774 28.2825 26.7959 28.2715Z" fill="white"/>
<path d="M28.2052 20.4298L28.7061 21.7197C28.7123 21.7363 28.7237 21.7471 28.7388 21.7507C28.7539 21.7542 28.772 21.7504 28.7905 21.7397L29.4114 21.3812C29.4232 21.3744 29.4349 21.365 29.4458 21.3536C29.4567 21.3421 29.4667 21.3287 29.475 21.3143C29.4834 21.2999 29.4901 21.2846 29.4946 21.2694C29.4992 21.2542 29.5015 21.2393 29.5016 21.2257C29.5016 21.2129 29.4998 21.2014 29.4961 21.1915L28.9952 19.9012C28.989 19.8847 28.9775 19.8739 28.9624 19.8703C28.9473 19.8668 28.9293 19.8706 28.9108 19.8813L28.2912 20.239C28.2673 20.2527 28.2444 20.2767 28.2274 20.3059C28.2105 20.3351 28.2008 20.367 28.2007 20.3947C28.2003 20.4077 28.2018 20.4195 28.2052 20.4298Z" fill="white"/>
<path d="M25.6509 28.9326L26.2718 28.5741C26.2956 28.5604 26.3185 28.5362 26.3353 28.507C26.3522 28.4778 26.3617 28.446 26.3617 28.4184C26.362 28.4055 26.3601 28.3939 26.3562 28.3843L25.8527 27.0921C25.8463 27.0759 25.8349 27.0654 25.82 27.0618C25.805 27.0582 25.7872 27.0618 25.7689 27.0721L25.148 27.4306C25.1362 27.4373 25.1245 27.4467 25.1136 27.4581C25.1026 27.4695 25.0927 27.4829 25.0843 27.4973C25.0759 27.5117 25.0692 27.527 25.0646 27.5422C25.06 27.5574 25.0576 27.5723 25.0575 27.5859C25.0575 27.5987 25.0595 27.6102 25.0633 27.6199L25.5639 28.9145C25.5704 28.9311 25.5823 28.9418 25.5979 28.9451C25.6135 28.9483 25.632 28.944 25.6509 28.9326Z" fill="white"/>
<path d="M16.1448 19.3214L18.1297 18.697V31.3658C18.1297 32.4553 19.0124 33.3395 20.1019 33.3409C19.1004 33.3409 18.1017 33.1174 17.3405 32.676L17.2846 32.6439C16.5206 32.1997 16.1407 31.6186 16.1448 31.0376V19.3228V19.3214Z" fill="#001525" stroke="#001525" stroke-width="0.148572"/>
<path d="M32.3937 12.1927L32.4488 12.2242C33.9764 13.1113 33.9685 14.5497 32.4305 15.4368L27.6483 18.1979L22.8662 20.9591C21.3307 21.8462 18.8452 21.8462 17.3176 20.9591L17.2625 20.9276C15.735 20.0405 15.7428 18.6021 17.2809 17.715L22.063 14.9539L26.8452 12.1927C28.3806 11.3056 30.8662 11.3056 32.3937 12.1927Z" fill="#C6DDFF" stroke="#001525" stroke-width="0.328084"/>
<path d="M16.5852 18.4181C16.778 18.1652 17.0489 17.9264 17.4079 17.7197H17.4093L22.1905 14.9582L25.0106 13.331C26.0079 13.1215 27.6044 12.9287 29.7345 12.9287V14.9848C24.7438 14.9848 22.7268 16.5226 20.221 18.4181V20.4741H16.7863C16.1522 19.8456 16.0866 19.0787 16.5866 18.4181H16.5852Z" fill="#001525" stroke="#001525" stroke-width="0.148572"/>
<path d="M18.1233 19.3239V14.5182C18.1128 10.8489 20.6036 6.53393 23.7926 4.69142L23.8871 4.6363C25.7611 3.55493 27.7034 3.4342 29.2178 4.30559C30.7217 5.17173 31.5905 6.89351 31.5957 9.03524V13.8463H31.5905C31.5826 14.135 31.3884 14.4237 31.0078 14.6442C30.2335 15.093 28.9763 15.093 28.2047 14.6442C27.8005 14.4079 27.6115 14.0956 27.6325 13.7885V9.04049C27.6299 8.29509 27.433 7.85152 27.2414 7.74128C27.0472 7.62842 26.5328 7.68354 25.8687 8.06937L25.7742 8.12448C23.8031 9.26359 22.0787 12.2452 22.0866 14.5156V19.3266C22.0866 19.6205 21.8897 19.9145 21.5013 20.1376C20.7244 20.5864 19.4698 20.5864 18.6981 20.1376C18.3123 19.9119 18.1207 19.6179 18.1233 19.3266V19.3239Z" fill="#85B4FF" stroke="#001525" stroke-width="0.328084"/>
<path d="M28.747 9.29918V13.9784C28.747 14.5203 29.1856 14.9589 29.7275 14.9589H29.7345C29.2261 14.9589 28.7176 14.8486 28.3321 14.6237C27.9271 14.3877 27.7385 14.0762 27.7608 13.7675V9.01983C27.7581 8.27534 27.5625 7.82977 27.3697 7.71942C27.3418 7.70406 27.3069 7.69288 27.2678 7.68311C28.0961 7.76133 28.747 8.45134 28.747 9.29918Z" fill="#001525" stroke="#001525" stroke-width="0.148572"/>
<path d="M22.8396 5.40991H22.8368C20.5475 7.47575 19.2401 10.4132 19.2401 13.4945V19.4671C19.2401 20.0091 19.6787 20.4477 20.2206 20.4477C19.715 20.4477 19.2108 20.3359 18.8253 20.1124C18.4397 19.8875 18.247 19.5942 18.2498 19.3009V14.496C18.2414 11.254 20.1857 7.50927 22.8396 5.40991Z" fill="#001525" stroke="#001525" stroke-width="0.148572"/>
<defs>
<linearGradient id="paint0_linear_271_132" x1="14.4547" y1="15.733" x2="43.1082" y2="27.1747" gradientUnits="userSpaceOnUse">
<stop stop-color="#CCDDFF"/>
<stop offset="0.982691" stop-color="#EBF1FF"/>
</linearGradient>
</defs>
</svg>
