<svg width="151" height="65" viewBox="0 0 151 65" fill="none" xmlns="http://www.w3.org/2000/svg">
<rect width="149.794" height="64.8" transform="translate(0.841339)" fill="white"/>
<g clip-path="url(#clip0_2397_985)">
<path d="M81.0933 44.995C81.0933 44.995 81.5457 42.6229 81.7407 41.4456C82.4881 36.934 83.2704 32.4273 84.0603 27.9207C84.6152 24.7538 86.0149 23.614 89.2668 23.6115C89.8067 23.6115 90.3466 23.6115 91.0265 23.6115C92.0463 28.4206 93.0586 33.2047 94.1534 38.3712C95.0557 36.739 95.8156 35.3643 96.5779 33.9895C97.7027 31.9549 98.94 29.9728 99.9348 27.8757C101.969 23.5815 103.712 23.364 108.451 23.719C107.688 28.1406 106.926 32.5498 106.164 36.959C105.774 39.2111 105.366 41.4606 104.999 43.7177C104.909 44.2651 104.784 44.9775 104.784 44.9775C103.284 44.9775 101.247 44.9925 99.7473 44.9925C100.432 40.8682 101.12 36.744 101.804 32.6223C101.804 32.6223 98.745 38.0113 97.2778 40.6933L94.7483 44.9925H90.749C90.0791 40.7708 89.4068 36.5491 88.6519 31.7899C88.4219 32.5548 88.3295 32.7773 88.2895 33.0097C87.6871 36.4866 87.0847 39.9634 86.4973 43.4428C86.3973 44.0402 86.2424 44.995 86.2424 44.995H81.0933Z" fill="#0003B1"/>
<path d="M43.2552 18C39.6134 22.9366 35.9766 27.8782 32.3273 32.8098C30.4026 35.4143 28.4305 37.9838 26.5359 40.6083C25.2636 42.373 23.7489 43.7827 21.6593 44.4976C21.4943 44.5542 20.3513 44.9925 19.6978 44.9925C17.1158 44.9925 16.0928 44.9925 13.5083 44.9925C13.6933 44.6775 13.8532 44.3451 14.0707 44.0551C19.1198 37.2739 24.0688 30.4177 29.2004 23.699C30.2277 22.3542 32.7647 19.2548 35.5142 18.2875C36.0866 18.09 36.689 18 37.2938 18C39.281 18 41.2681 18 43.2577 18H43.2552Z" fill="#0003B1"/>
<path d="M126.49 44.9951H125.957C128.757 41.5407 132.599 36.8141 134.931 33.8996C133.239 30.5053 131.576 27.1684 129.847 23.699H135.861C136.863 25.7162 137.875 27.7533 138.982 29.9879C139.872 28.8306 140.692 27.8208 141.442 26.7635C143.094 24.5614 144.989 23.5966 147.766 23.5966H150.635C147.781 27.1059 144.776 30.7627 141.967 34.2171C143.602 37.4965 145.151 40.6109 146.706 43.7228C146.916 44.1452 147.301 44.9976 147.301 44.9976H141.235C140.145 42.768 139.055 40.5384 137.935 38.2538C135.663 40.8308 134.383 44.2602 130.654 44.9701C130.544 44.9901 130.432 45 130.319 45H126.487L126.49 44.9951Z" fill="#0003B1"/>
<path d="M59.7423 37.1515H54.5758C53.8609 38.2738 52.9261 39.1936 51.6664 39.741C48.6419 41.0582 45.66 39.7385 45.2901 36.8315C44.9926 34.4845 45.5675 32.3299 46.9797 30.3702C48.9694 27.6107 54.1784 26.9259 55.6881 31.2001H60.9021C60.8296 27.6407 58.9675 24.8713 55.8081 23.9564C51.144 22.6042 46.8848 23.5565 43.6004 27.1533C40.181 30.8951 39.0837 36.919 40.7384 40.3084C41.8957 42.6779 43.1754 44.9825 49.4118 44.9825C56.5204 44.9825 59.7423 37.154 59.7423 37.154V37.1515Z" fill="#0003B1"/>
<path d="M108.743 44.995C109.773 39.0136 110.775 33.0297 111.85 27.0583C112.207 25.0787 113.702 23.6915 115.624 23.6515C119.698 23.5665 123.775 23.6265 127.984 23.6265C127.739 25.0037 127.509 26.296 127.26 27.6882H116.821C116.577 29.1629 116.349 30.5427 116.099 32.0649H124.53C124.3 33.4246 124.095 34.6344 123.865 35.9767H115.359C115.089 37.6064 114.839 39.1086 114.572 40.7283H125.137L123.988 44.995H108.74H108.743Z" fill="#0003B1"/>
<path d="M61.7518 44.995C62.7566 39.2636 63.7739 33.5321 64.7613 27.7982C65.2687 24.8613 66.6909 23.619 69.6753 23.614C73.4196 23.6065 77.1639 23.614 81.0432 23.614C80.7958 25.0137 80.5683 26.306 80.3183 27.7107H69.8803C69.6329 29.2004 69.4054 30.5727 69.1579 32.0774H77.5689C77.3539 33.4147 77.1589 34.6169 76.9465 35.9417H68.4331C68.1581 37.5539 67.9007 39.0586 67.6232 40.6883H78.2162L77.4114 45H61.7468L61.7518 44.995Z" fill="#0003B1"/>
<path d="M0.841351 44.9749C0.841351 44.9749 3.82054 44.9697 5.15966 44.9798C6.00371 44.9861 6.84776 44.9924 7.69181 44.9924C7.7393 44.9924 7.78429 44.9874 7.82928 44.9749C11.2102 44.026 13.1271 41.4106 15.0767 38.7506L15.1129 38.7011C18.7099 33.7937 22.352 28.92 25.994 24.0465L25.9944 24.0459C27.4999 22.0314 29.0053 20.0169 30.5075 18H23.7513C23.5913 18 23.4314 18.0225 23.2764 18.07C20.4919 18.9248 18.5973 20.7395 16.7951 23.109C13.7631 27.3372 7.48341 35.6464 7.48341 35.6464L0.841351 44.9749Z" fill="#F72230"/>
</g>
<defs>
<clipPath id="clip0_2397_985">
<rect width="149.794" height="29.7" fill="white" transform="translate(0.841339 18)"/>
</clipPath>
</defs>
</svg>
