<svg width="222" height="65" viewBox="0 0 222 65" fill="none" xmlns="http://www.w3.org/2000/svg">
<rect width="221.03" height="64.8" transform="translate(0.157288)" fill="white"/>
<g clip-path="url(#clip0_2397_990)">
<path d="M114.795 15.7059L114.324 14.2921L114.795 11.8178L114.56 11.7L108.08 17.1197V17.2376L114.795 15.7059Z" fill="#222222"/>
<path d="M15.8274 41.3901C15.2449 41.9875 14.5486 42.4621 13.7796 42.7859C13.0106 43.1097 12.1846 43.2761 11.3502 43.2753C6.16611 43.2753 4.87009 38.6803 4.87009 33.2605C4.87009 27.8408 6.04829 23.2458 11.2324 23.2458C12.0348 23.2263 12.8316 23.3853 13.5652 23.7114C14.2987 24.0374 14.9506 24.5222 15.4739 25.131L18.4194 29.6081H18.655V22.8924H18.4194L15.7095 24.3062C14.4585 23.2454 12.8726 22.6611 11.2324 22.6567C6.16611 22.6567 0.157288 26.5448 0.157288 33.3784C0.157288 40.2119 6.04829 44.1 11.3502 44.1C13.0809 44.0878 14.751 43.4615 16.063 42.3327L18.655 43.8644H18.8907V36.7951H18.655L15.8274 41.3901Z" fill="#222222"/>
<path d="M35.1501 22.5393C30.2016 22.5393 24.3106 26.7808 24.3106 33.2609C24.3106 39.741 30.2016 43.9825 35.1501 43.9825C40.0985 43.9825 45.9895 39.741 45.9895 33.2609C45.9895 26.7808 40.2163 22.5393 35.1501 22.5393ZM35.1501 43.2756C30.2016 43.2756 28.9056 38.9163 28.9056 33.2609C28.9056 27.6055 30.2016 23.2462 35.1501 23.2462C40.0985 23.2462 41.3945 27.6055 41.3945 33.2609C41.3945 38.9163 40.2163 43.2756 35.1501 43.2756Z" fill="#222222"/>
<path d="M64.7219 23.482H67.314V36.4423H67.1962L58.0062 22.8929H49.7588V23.482H52.233V43.0402H49.7588V43.6293H55.6498V43.0402H53.0578V23.482L67.9031 43.9827H68.1387V23.482H70.6129V22.8929H64.7219V23.482Z" fill="#222222"/>
<path d="M84.3982 22.8932H75.0905V23.4823H77.8003V43.0405H75.0905V43.6296H84.3982C88.9932 43.6296 96.6515 41.6266 96.6515 33.1436C96.6515 24.6605 88.9932 22.8932 84.3982 22.8932ZM84.1626 43.0405H81.924V23.4823H84.1626C89.5823 23.4823 92.0565 27.3704 92.0565 33.2614C92.0565 39.1524 89.5823 43.0405 84.1626 43.0405Z" fill="#222222"/>
<path d="M115.15 43.0402H107.374V32.7898H111.262C112.372 33.9732 113.286 35.3253 113.972 36.7957H114.207V28.1948H113.972C113.286 29.6652 112.372 31.0174 111.262 32.2007H107.374V23.482H114.325C116.328 24.7781 118.095 28.4305 118.095 28.4305H118.331V22.8929H100.54V23.482H103.25V43.0402H100.54V43.6293H118.92V36.6779H118.685C117.833 38.9643 116.641 41.1091 115.15 43.0402Z" fill="#222222"/>
<path d="M146.961 23.482H149.553V36.4423H149.435L140.245 22.8929H131.88V23.482H134.472V43.0402H131.88V43.6293H137.771V43.0402H135.297V23.482L150.142 43.9827H150.26V23.482H152.852V22.8929H146.961V23.482Z" fill="#222222"/>
<path d="M166.165 22.1866H165.929L157.093 42.923H154.618V43.5121H160.156V42.923H157.8L160.981 35.5003H167.696L171.113 42.923H168.403V43.5121H178.065V42.923H175.59L166.165 22.1866ZM161.334 35.029L164.397 27.842L167.579 35.029H161.334V35.029Z" fill="#222222"/>
<path d="M192.676 31.494L188.552 30.0801C186.549 29.3732 184.899 28.4307 184.899 26.4277C184.899 24.4248 186.667 23.1288 189.377 23.1288C190.053 23.0723 190.733 23.1702 191.366 23.4151C191.998 23.66 192.567 24.0456 193.029 24.5426L195.975 29.0198H196.21V22.4218H195.975L193.265 23.8357C192.188 22.9003 190.803 22.3966 189.377 22.4218C188.537 22.3741 187.697 22.4964 186.906 22.7814C186.115 23.0664 185.389 23.5082 184.773 24.0803C184.157 24.6525 183.663 25.3431 183.32 26.1109C182.977 26.8787 182.793 27.7078 182.779 28.5485C182.779 31.494 184.9 33.0256 187.138 33.8504L191.262 35.382C193.5 36.2068 194.914 37.1493 194.914 39.2701C194.914 41.3909 193.5 43.1582 189.966 43.1582C188.249 43.0745 186.601 42.4567 185.253 41.3909L182.19 36.3246H181.836V43.5116H182.19L184.782 42.0978C186.21 43.1818 187.938 43.7989 189.73 43.8651C194.207 43.8651 197.153 40.6839 197.153 37.1493C197.153 33.6147 195.268 32.3187 192.676 31.494Z" fill="#222222"/>
<path d="M201.982 22.8929V29.373H202.218C203.225 27.2866 204.449 25.312 205.87 23.482H209.523V43.0402H206.224V43.6293H216.945V43.0402H213.646V23.482H217.299C218.72 25.312 219.944 27.2866 220.951 29.373H221.187V23.0108H201.982V22.8929Z" fill="#222222"/>
</g>
<defs>
<clipPath id="clip0_2397_990">
<rect width="221.03" height="35.1" fill="white" transform="translate(0.157288 11.7)"/>
</clipPath>
</defs>
</svg>
