<svg width="40" height="40" viewBox="0 0 40 40" fill="none" xmlns="http://www.w3.org/2000/svg">
<g clip-path="url(#clip0_1059_16957)">
<path d="M29.5047 28.6659C29.7608 26.5332 29.684 26.2204 31.2726 26.5659L31.6759 26.6013C32.8974 26.6569 34.4953 26.4048 35.434 25.9687C37.4548 25.0311 38.653 23.4656 36.6605 23.8769C32.1153 24.8146 31.8028 23.2755 31.8028 23.2755C36.6023 16.1543 38.6086 7.11464 36.8768 4.90191C32.1533 -1.13361 23.9771 1.72045 23.8403 1.79455L23.7967 1.80259C22.8986 1.61625 21.8936 1.50492 20.7645 1.48667C18.7077 1.45287 17.147 2.02589 15.9631 2.92387C15.9631 2.92387 1.37711 -3.08536 2.05568 10.4811C2.19999 13.367 6.19241 32.3187 10.9541 26.5944C12.6945 24.5012 14.3764 22.7314 14.3764 22.7314C15.2116 23.2863 16.2115 23.5693 17.2602 23.4676L17.3413 23.3985C17.3159 23.6584 17.3271 23.9126 17.3737 24.2135C16.1472 25.5841 16.5076 25.8248 14.0552 26.3296C11.5739 26.8409 13.0317 27.7514 13.9831 27.9893C15.1369 28.2779 17.8061 28.6866 19.6101 26.1617L19.5383 26.4498C20.0195 26.8348 19.9869 29.2168 20.0552 30.9187C20.1235 32.6206 20.2374 34.2088 20.5843 35.1452C20.9313 36.0814 21.3406 38.4933 24.5638 37.8026C27.2575 37.2253 29.3171 36.3945 29.5047 28.6658" fill="black"/>
<path d="M29.5047 28.6659C29.7608 26.5332 29.684 26.2204 31.2726 26.5659L31.6759 26.6013C32.8974 26.6569 34.4953 26.4048 35.434 25.9687C37.4548 25.0311 38.6531 23.4656 36.6605 23.8769C32.1153 24.8146 31.8028 23.2755 31.8028 23.2755C36.6023 16.1543 38.6086 7.11464 36.8768 4.90191C32.1533 -1.13361 23.9771 1.72045 23.8403 1.79455L23.7967 1.80259C22.8986 1.61625 21.8936 1.50492 20.7645 1.48667C18.7077 1.45287 17.147 2.02589 15.9631 2.92387C15.9631 2.92387 1.37711 -3.08536 2.05568 10.4811C2.19999 13.367 6.19241 32.3187 10.9541 26.5944C12.6945 24.5012 14.3764 22.7314 14.3764 22.7314C15.2116 23.2863 16.2115 23.5693 17.2602 23.4676L17.3413 23.3985C17.3159 23.6584 17.3271 23.9126 17.3737 24.2135C16.1472 25.5841 16.5076 25.8248 14.0552 26.3296C11.5739 26.8409 13.0317 27.7514 13.9831 27.9893C15.1369 28.2779 17.8061 28.6866 19.6101 26.1617L19.5383 26.4498C20.0195 26.8348 19.9869 29.2168 20.0552 30.9187C20.1235 32.6206 20.2374 34.2088 20.5843 35.1452C20.9313 36.0814 21.3406 38.4933 24.5638 37.8026C27.2575 37.2253 29.3171 36.3945 29.5047 28.6658" stroke="black" stroke-width="3.3793"/>
<path d="M36.6609 23.8767C32.1152 24.8144 31.8027 23.2753 31.8027 23.2753C36.6022 16.1537 38.6085 7.11383 36.8771 4.90137C32.1536 -1.13379 23.977 1.72046 23.8406 1.79456L23.7967 1.80242C22.8986 1.61599 21.8935 1.50493 20.7639 1.4865C18.7071 1.45279 17.1469 2.02571 15.963 2.92351C15.963 2.92351 1.37679 -3.08544 2.05518 10.4809C2.19949 13.367 6.19182 32.3187 10.9537 26.5944C12.6942 24.5013 14.3758 22.7314 14.3758 22.7314C15.2111 23.2863 16.211 23.5693 17.2592 23.4676L17.3407 23.3985C17.3154 23.6584 17.3269 23.9126 17.3733 24.2135C16.1466 25.5841 16.507 25.8248 14.0547 26.3296C11.5734 26.8409 13.0311 27.7514 13.9828 27.9893C15.1366 28.2779 17.806 28.6866 19.6096 26.1617L19.5377 26.4498C20.0183 26.8348 20.3559 28.954 20.2993 30.875C20.2427 32.7961 20.2049 34.115 20.5837 35.1452C20.9624 36.1754 21.3399 38.4933 24.5636 37.8026C27.2574 37.2253 28.6533 35.7294 28.8475 33.2341C28.9853 31.4601 29.2971 31.7223 29.3168 30.1363L29.567 29.3854C29.8554 26.9807 29.6128 26.2049 31.2724 26.5657L31.6757 26.6011C32.8972 26.6567 34.4958 26.4047 35.4341 25.9685C37.4546 25.0309 38.6528 23.4654 36.6607 23.8767H36.6609Z" fill="#336791"/>
<path d="M19.8049 25.2552C19.6797 29.7298 19.8363 34.2356 20.2742 35.3307C20.7123 36.4257 21.6498 38.5557 24.8738 37.865C27.5673 37.2876 28.5474 36.1701 28.9726 33.7035C29.2858 31.8888 29.8897 26.8488 29.9671 25.8162" stroke="white" stroke-width="1.12643" stroke-linecap="round" stroke-linejoin="round"/>
<path d="M15.9405 2.82358C15.9405 2.82358 1.34438 -3.14209 2.02295 10.4243C2.16726 13.3104 6.15986 32.2627 10.9217 26.5381C12.6618 24.4447 14.2355 22.8028 14.2355 22.8028" stroke="white" stroke-width="1.12643" stroke-linecap="round" stroke-linejoin="round"/>
<path d="M23.8245 1.73474C23.3192 1.89316 31.9438 -1.41807 36.8452 4.84491C38.5765 7.05745 36.5702 16.0973 31.7708 23.2191" stroke="white" stroke-width="1.12643" stroke-linecap="round" stroke-linejoin="round"/>
<path d="M31.7709 23.2191C31.7709 23.2191 32.0837 24.7586 36.6294 23.8204C38.6211 23.409 37.4225 24.9747 35.4025 25.9128C33.7447 26.6822 30.028 26.8794 29.9673 25.8162C29.811 23.0731 31.9234 23.9065 31.771 23.2191C31.6332 22.6001 30.6885 21.9926 30.0636 20.4776C29.5181 19.1552 22.5816 9.01462 31.9872 10.5207C32.3318 10.4494 29.5341 1.57416 20.7318 1.42985C11.9314 1.28553 12.2201 12.2524 12.2201 12.2524" stroke="white" stroke-width="1.12643" stroke-linecap="round" stroke-linejoin="bevel"/>
<path d="M17.3411 24.1572C16.1142 25.5277 16.475 25.7684 14.0226 26.2734C11.5412 26.7848 12.9991 27.6951 13.9505 27.9329C15.1043 28.2217 17.7737 28.6304 19.5773 26.1049C20.1266 25.336 19.5741 24.1091 18.8196 23.7963C18.4551 23.6453 17.9676 23.4561 17.3411 24.1572V24.1572Z" stroke="white" stroke-width="1.12643" stroke-linecap="round" stroke-linejoin="round"/>
<path d="M17.2609 24.1333C17.1372 23.3275 17.5256 22.3686 17.9419 21.2468C18.5674 19.5636 20.0106 17.8802 18.8561 12.5409C17.9956 8.56216 12.2235 11.7129 12.2199 12.2524C12.2164 12.7917 12.481 14.9869 12.1235 17.5432C11.657 20.8789 14.246 23.7001 17.2273 23.4114" stroke="white" stroke-width="1.12643" stroke-linecap="round" stroke-linejoin="round"/>
<path d="M15.8875 12.1715C15.8615 12.3557 16.2249 12.8474 16.6987 12.9131C17.1717 12.9791 17.5765 12.5949 17.6022 12.4108C17.6278 12.2265 17.2649 12.0236 16.7909 11.9576C16.3177 11.8915 15.9127 11.9877 15.8876 12.1715H15.8875Z" fill="white" stroke="white" stroke-width="0.375475"/>
<path d="M30.2941 11.7958C30.3198 11.9801 29.9569 12.4718 29.483 12.5375C29.0096 12.6035 28.6048 12.2192 28.5789 12.0351C28.5538 11.8509 28.9168 11.6479 29.3903 11.5819C29.8637 11.516 30.2685 11.612 30.2941 11.7959V11.7958Z" fill="white" stroke="white" stroke-width="0.187737"/>
<path d="M31.9873 10.5207C32.0652 11.966 31.6759 12.9504 31.6269 14.489C31.5542 16.7254 32.6931 19.2852 30.9771 21.8481" stroke="white" stroke-width="1.12643" stroke-linecap="round" stroke-linejoin="round"/>
</g>
<defs>
<clipPath id="clip0_1059_16957">
<rect width="40" height="40" fill="white"/>
</clipPath>
</defs>
</svg>
