<svg width="126" height="28" viewBox="0 0 126 28" fill="none" xmlns="http://www.w3.org/2000/svg">
<path d="M9.13392 18.6983C13.349 18.6983 14.9932 16.1244 14.9932 11.7205C14.9932 7.31767 13.0704 4.24772 9.25743 4.24772H4.98401V18.6983H9.13392ZM0.488281 0.403134H9.81569C15.7362 0.403134 19.5492 5.17849 19.5492 11.7205C19.5492 15.3171 18.3398 18.4809 16.0149 20.4343C14.3717 21.7979 12.2325 22.5735 9.44318 22.5735H0.488281V0.403134ZM32.3892 14.6363C32.3892 11.5348 30.9328 9.42621 28.3598 9.42621C25.7553 9.42621 24.3285 11.5348 24.3285 14.6363C24.3285 17.7369 25.7553 19.8138 28.3598 19.8138C30.9328 19.8138 32.3892 17.7369 32.3892 14.6363ZM20.0511 14.6363C20.0511 9.89159 23.4303 6.23276 28.3598 6.23276C33.2883 6.23276 36.6675 9.89159 36.6675 14.6363C36.6675 19.3791 33.2883 23.0389 28.3598 23.0389C23.4294 23.0389 20.0501 19.3801 20.0501 14.6363H20.0511ZM37.3641 14.6363C37.3641 9.89159 40.4647 6.23276 45.3003 6.23276C49.4246 6.23276 51.9659 8.62093 52.5241 12.0624H48.4009C48.1223 10.6672 47.0374 9.61197 45.4871 9.61197C42.9448 9.61197 41.6435 11.5664 41.6435 14.6363C41.6435 17.644 42.8519 19.6597 45.4248 19.6597C47.1302 19.6597 48.3396 18.7605 48.6183 16.9622H52.6793C52.4006 20.3414 49.7645 23.0389 45.5177 23.0389C40.4963 23.0389 37.3641 19.3801 37.3641 14.6363ZM63.6568 22.5745V20.714H63.5639C62.479 22.1714 61.2389 23.0083 59.0069 23.0083C55.4725 23.0083 53.4885 20.7456 53.4885 17.2715V6.66653H57.673V16.5581C57.673 18.4187 58.5109 19.4423 60.3082 19.4423C62.2922 19.4423 63.5016 17.9543 63.5016 15.8457V6.66653H67.7177V22.5745H63.6568ZM88.2588 22.5745H92.4739V6.66653H88.2588V22.5745ZM88.2588 4.44336H92.4739V0.500953H88.2588V4.44336ZM105.352 13.9219C105.352 11.597 104.112 9.61296 101.57 9.61296C99.4309 9.61296 98.0051 11.2868 98.0051 13.9536C98.0051 16.651 99.4309 18.2329 101.602 18.2329C104.268 18.2329 105.352 16.2795 105.352 13.9229V13.9219ZM94.2228 23.0389H98.4063C98.7482 24.0309 99.6463 24.8066 101.6 24.8066C103.987 24.8066 105.134 23.6594 105.134 21.4886V19.7516H105.041C104.11 20.8058 102.902 21.6121 100.886 21.6121C97.353 21.6121 93.8809 18.8218 93.8809 14.0158C93.8809 9.27109 96.7325 6.23276 100.763 6.23276C102.747 6.23276 104.203 7.00741 105.165 8.34131H105.227V6.66653H109.288V21.3641C109.288 23.5971 108.575 25.1158 107.397 26.2017C106.063 27.4417 104.018 28 101.662 28C97.3214 28 94.6556 26.1395 94.2218 23.0389H94.2228ZM115.22 8.83732H115.313C116.398 7.13191 117.856 6.23276 120.025 6.23276C123.312 6.23276 125.512 8.71282 125.512 12.1859V22.5735H121.296V12.8064C121.296 11.101 120.304 9.89159 118.537 9.89159C116.677 9.89159 115.313 11.3796 115.313 13.5504V22.5735H111.097V6.66653H115.22V8.83732ZM78.6508 9.20884C75.3644 8.49742 73.8141 7.96979 73.8141 6.17051C73.8141 4.5896 75.3951 3.56595 77.8139 3.56595C80.0202 3.56595 81.7069 4.60145 82.0527 6.66653H86.3765C85.9368 2.36149 82.7424 0 77.8445 0C72.916 0 69.35 2.26367 69.35 6.6359C69.35 11.2561 72.9772 12.3104 76.9453 13.2095C80.3245 13.9852 82.4331 14.4189 82.4331 16.5888C82.4331 18.636 80.4174 19.4423 78.1241 19.4423C74.9623 19.4423 73.4426 18.388 73.1324 15.7212H68.7305C68.8856 20.4037 72.2955 23.0695 78.3099 23.0695C83.3006 23.0695 86.9278 20.5588 86.9278 16.0621C86.9278 11.2868 83.2077 10.2018 78.6508 9.20884Z" fill="#222222"/>
</svg>
