<svg width="138" height="40" viewBox="0 0 138 40" fill="none" xmlns="http://www.w3.org/2000/svg">
<path d="M24.5186 9.60701L27.4033 4.59596C28.2439 3.12891 27.7494 1.24976 26.2824 0.409093C24.8153 -0.431577 22.9362 0.0629336 22.0955 1.52999L19.1944 6.54104C13.0295 4.59596 6.12279 7.11797 2.76011 12.9532C0.617227 16.662 0.353487 20.9313 1.6557 24.6731L6.99643 15.4093C8.21622 13.2829 10.2108 11.7664 12.5844 11.1235C14.9581 10.4806 17.4306 10.8103 19.557 12.0466C23.9417 14.5851 25.4582 20.2225 22.9197 24.6072C20.3812 28.9919 14.7603 30.5084 10.3591 27.9699L13.4251 22.6621C14.8921 23.5028 16.7713 23.0083 17.6119 21.5412C18.4526 20.0742 17.9581 18.195 16.4911 17.3544C15.024 16.5137 13.1449 17.0082 12.3042 18.4753L2.54582 35.404C1.70515 36.8711 2.19966 38.7502 3.66672 39.5909C5.13377 40.4316 7.01291 39.9371 7.85358 38.47L10.7547 33.459C16.9196 35.404 23.8263 32.882 27.189 27.0468C30.5517 21.228 29.2824 13.9917 24.5186 9.60701Z" fill="#181A1D"/>
<path d="M37.4912 13.25H42.2385C44.9913 13.25 47.2661 14.6181 47.2661 17.783C47.2661 20.9479 44.9913 22.3325 42.2385 22.3325H40.277V26.7667H37.4912V13.25ZM42.1561 19.8929C43.5243 19.8929 44.3979 19.283 44.3979 17.783C44.3979 16.2665 43.4913 15.7061 42.1561 15.7061H40.277V19.8929H42.1561Z" fill="#181A1D"/>
<path d="M51.3376 13.25H60.2718V15.6896H54.1234V18.7885H59.5465V21.1787H54.1234V24.3106H60.552V26.7502H51.3376V13.25Z" fill="#181A1D"/>
<path d="M65.217 13.25H67.9863V24.3106H74.1018V26.7502H65.217V13.25Z" fill="#181A1D"/>
<path d="M77.2007 20.0081C77.2007 16.0191 80.2996 13.085 84.1898 13.085C88.0799 13.085 91.1789 16.0191 91.1789 20.0081C91.1789 23.9972 88.0799 26.9313 84.1898 26.9313C80.2996 26.9313 77.2007 23.9972 77.2007 20.0081ZM88.3107 20.0081C88.3107 17.4861 86.6459 15.5575 84.1898 15.5575C81.7337 15.5575 80.0688 17.4861 80.0688 20.0081C80.0688 22.5301 81.7337 24.4587 84.1898 24.4587C86.6459 24.4587 88.3107 22.5301 88.3107 20.0081Z" fill="#181A1D"/>
<path d="M98.0193 15.6896H94.1621V13.25H104.646V15.6896H100.789V26.7502H98.0028V15.6896H98.0193Z" fill="#181A1D"/>
<path d="M107.613 20.0081C107.613 16.0191 110.712 13.085 114.602 13.085C118.493 13.085 121.591 16.0191 121.591 20.0081C121.591 23.9972 118.493 26.9313 114.602 26.9313C110.712 26.9313 107.613 23.9972 107.613 20.0081ZM118.723 20.0081C118.723 17.4861 117.058 15.5575 114.602 15.5575C112.146 15.5575 110.481 17.4861 110.481 20.0081C110.481 22.5301 112.146 24.4587 114.602 24.4587C117.058 24.4587 118.723 22.5301 118.723 20.0081Z" fill="#181A1D"/>
<path d="M130.064 20.4865C129.388 19.8436 128.449 18.6403 128.449 18.6403C128.449 18.6403 128.646 20.1239 128.646 21.0964V26.7503H126.042V13.1348H126.322L133.13 19.5304C133.789 20.1403 134.712 21.3766 134.712 21.3766C134.712 21.3766 134.531 19.8436 134.531 18.9206V13.2666H137.136V26.8822H136.855L130.064 20.4865Z" fill="#181A1D"/>
</svg>
