<svg width="70" height="40" viewBox="0 0 70 40" fill="none" xmlns="http://www.w3.org/2000/svg">
<path d="M6.73509 21.3856H8.05738V23.9121H3.35436V21.3856H4.67065V19.9053H0.489746V21.3856H1.82003V28.8272H0.489746V30.3005H4.67065V28.8272H3.35336V25.3744H8.05638V28.8272H6.73509V30.3005H10.926V28.8272H9.59171V21.3856H10.927V19.9053H6.73609M57.168 28.8272H53.0471V25.3594H56.5918V23.8921H53.0461V21.3856H57.199V22.8079H58.6593V19.9053H50.1174V21.3856H51.5107V28.8272H50.1174V30.3005H58.6793V26.8368H57.169M21.4443 26.8368H19.9339V28.8272H15.813V25.3594H19.3588V23.8921H15.813V21.3856H19.9669V22.8079H21.4273V19.9053H12.8854V21.3856H14.2787V28.8272H12.8844V30.3005H21.4443M53.4442 19.3922H56.4398L55.6736 18.479H52.603M67.0101 24.3562C65.9649 24.0582 65.2267 24.1262 64.1635 23.7711C63.2033 23.449 63.0132 22.8589 63.0132 22.4678C63.0132 22.0747 63.4373 21.0555 64.9456 21.0555C66.456 21.0555 67.4442 22.0537 67.5002 22.9329L67.5062 22.9289V22.9329H68.9565V19.9023H67.5532V20.5624L67.5972 20.7684C67.5872 20.7384 67.5472 20.6554 67.3992 20.5084C67.3972 20.5054 67.3972 20.5034 67.3972 20.5004C66.9521 20.1003 66.1039 19.6642 64.8286 19.6642C63.2833 19.6642 61.4629 20.6224 61.4629 22.4748C61.4629 24.2802 62.7672 24.9103 63.8734 25.2024C64.9817 25.4965 65.5468 25.4965 66.471 25.7465C67.3932 25.9966 67.9913 26.5527 67.9913 27.3769C67.9913 28.157 67.5112 29.1803 65.5588 29.1803C63.6034 29.1803 62.8312 28.126 62.6051 26.6177L62.5891 26.6247H61.2088V30.3035H62.6511V29.6154L62.6471 29.6104L62.5951 29.4283C62.5951 29.4283 62.6471 29.5513 62.8112 29.6654L62.8252 29.6854C63.5553 30.2455 64.5135 30.6176 65.7418 30.6176C67.1121 30.6176 69.5106 29.9144 69.5106 27.4239C69.5066 25.6415 68.5604 24.8013 67.0101 24.3552V24.3562ZM43.9291 28.8272V30.3005H48.17V28.8272H46.7797V21.3856H48.17V19.9053H44.3792L41.8687 25.9806L41.8167 26.2786L41.7666 25.9756L39.2561 19.9043H35.4693V21.3846H36.8566V28.8262H35.4673V30.2995H39.7052V28.8272H38.3799V21.9837L38.3899 21.5316L38.5129 21.8917L41.4036 28.8082H42.2257L45.1264 21.8897L45.2324 21.5256L45.2484 21.9357V28.8272M14.9609 15.5283V15.8684H16.3912C16.2497 15.7618 16.1135 15.6483 15.9831 15.5283H14.9609ZM53.4852 15.5343H52.741C52.534 15.5743 52.3809 15.7494 52.3639 15.8684H53.4842V15.5333L53.4852 15.5343ZM14.9609 16.8606H53.4792V16.1405H28.7058C28.0727 16.4425 27.2695 16.4285 26.6434 16.1405H19.1218C18.4116 16.4525 17.5934 16.4505 16.8813 16.1435L14.9609 16.1385V16.8586V16.8606ZM25.8072 15.5283H19.99C19.9699 15.5683 19.7039 15.7984 19.5959 15.8684H26.1773C26.0408 15.7702 25.9166 15.656 25.8072 15.5283Z" fill="black"/>
<path d="M15.6209 12.8561C15.5496 13.0838 15.5115 13.3207 15.5079 13.5593C15.5261 14.2063 15.7959 14.8207 16.2599 15.2719C16.7239 15.7231 17.3456 15.9757 17.9929 15.9758C18.6402 15.9759 19.262 15.7237 19.7262 15.2726C20.1904 14.8216 20.4604 14.2073 20.4789 13.5603C20.4789 13.2662 20.4189 12.9871 20.3249 12.7251C20.611 12.6751 20.891 12.6151 21.1671 12.538C21.2971 12.503 21.2921 12.444 21.1901 12.413C20.822 12.3 20.4299 12.213 20.0298 12.139C19.8015 11.8106 19.4971 11.5424 19.1427 11.3571C18.7883 11.1718 18.3943 11.0749 17.9944 11.0747C17.6743 11.0747 17.3723 11.1397 17.0942 11.2498C17.0902 11.2478 17.0862 11.2418 17.0842 11.2398C17.0276 11.1377 16.9954 11.0238 16.9902 10.9072C16.985 10.7906 17.0069 10.6744 17.0542 10.5676C17.3072 10.1555 17.8684 9.9945 18.3295 9.95549C18.4845 9.94749 18.8566 9.96549 18.8966 10.0095C18.9866 10.0815 19.1416 10.1075 19.3067 10.0495C19.4647 10.1095 19.5047 10.1565 19.6848 10.2125C21.2691 10.7527 23.0235 11.0377 24.7959 10.7127C25.0729 10.9747 25.2259 11.4348 25.42 11.7529C25.472 11.8329 25.535 11.6929 26.4082 11.6629C26.7163 11.6509 27.0944 11.6529 27.4234 11.6609C26.7433 11.7389 26.1582 12.121 25.8111 12.6731C25.265 12.8471 24.8439 13.0132 24.6858 13.1092C24.4918 13.2262 24.4558 13.2912 24.6858 13.3512C24.9639 13.4242 25.234 13.4712 25.503 13.5043C25.485 13.6143 25.469 13.7273 25.469 13.8423C25.469 14.4274 25.7014 14.9885 26.1151 15.4022C26.5288 15.8159 27.0899 16.0483 27.675 16.0483C28.26 16.0483 28.8211 15.8159 29.2348 15.4022C29.6485 14.9885 29.881 14.4274 29.881 13.8423C29.881 13.4622 29.7759 13.1092 29.6069 12.7971C29.885 12.6971 30.177 12.5871 30.4871 12.467C30.7271 12.5541 30.8902 12.6971 31.0622 12.8971C31.2022 13.0552 31.5193 12.9931 31.7073 12.9471C32.0124 12.8671 32.0594 12.6241 32.0574 12.347C32.0574 12.221 32.0634 12.097 32.1234 11.9969C32.4805 11.1838 33.9078 11.0767 34.64 10.8967C34.64 10.8967 34.2569 11.3568 33.9858 11.4588C33.9308 12.6461 33.4757 13.6793 33.4207 14.8115C33.7658 14.8255 33.7508 15.2116 33.8338 15.4317C33.7378 15.6397 33.5717 15.4317 33.4207 15.5017C32.8966 15.2116 33.5447 14.7435 33.1166 14.3844C33.3367 13.4342 33.6968 12.509 33.6668 11.5018C33.5297 11.5158 33.4767 11.6679 33.4197 11.7779C33.3227 12.7311 33.0476 13.6003 32.7996 14.4825C32.9096 14.5375 33.1026 14.5925 33.0896 14.7585C32.7576 14.9656 33.1026 15.2986 32.9646 15.5347H29.5589L29.1808 15.8748H34.4039L34.4539 15.6827C33.6838 14.8826 33.9738 13.6823 34.3309 12.7721L35.2271 11.5578C35.9723 11.2678 36.4274 10.3576 37.2135 10.0675C37.2135 10.4546 36.7304 10.6206 36.4684 10.8407C36.1943 11.4888 35.3241 11.5578 35.2001 12.276C35.5302 12.6621 36.0253 12.9101 36.4404 13.2692C36.8685 13.5323 36.7144 14.0834 37.0605 14.3594C37.1165 14.4425 37.0605 14.5665 36.9625 14.6355C36.5994 14.7225 36.6104 14.9676 36.8295 15.1716C36.9695 15.3016 37.1295 15.4717 37.1115 15.5357H34.701C34.701 15.6457 34.799 15.6877 34.905 15.8758H48.2179C48.3179 15.6877 48.1009 15.4657 48.0079 15.2806C47.0677 14.9256 47.0727 14.0364 47.0177 13.0562C47.0277 13.0162 46.9636 12.9231 46.9736 12.7211C46.8336 12.5891 46.2155 11.0157 46.4965 9.78446L46.7016 9.37937C46.8946 9.10231 46.6896 8.95428 46.8266 8.66521L49.6322 8.1231C49.6822 8.09709 49.6692 7.98307 49.6162 7.93106L48.764 8.08909C48.0869 7.80403 47.0937 7.17389 46.4395 6.31871C46.6426 4.93241 46.5415 3.80817 46.4045 3.05801C46.8146 2.71793 47.1487 2.39586 47.1487 2.39586C47.4317 2.5659 47.4928 2.48588 47.5318 2.39386C47.4868 2.34185 47.0667 2.16381 47.1357 1.98177C47.4007 2.05179 47.4597 1.96977 47.5008 1.82174L47.3147 1.75573H47.3087L47.3387 1.6557C47.3927 1.54568 47.6428 1.6497 47.7388 1.6217C47.9058 1.51967 47.7188 1.36664 47.7748 1.22861C47.3847 0.89854 46.6806 0.888538 46.2545 0.581472C46.1225 0.335419 46.0684 0.231396 45.9304 0.131375C45.7884 0.0313534 45.1702 -0.0256589 45.0552 0.011349C44.9422 0.0513577 44.7252 0.254401 44.7252 0.254401C44.2821 0.347421 44.015 0.204391 43.7099 0.0193508C43.7099 0.0193508 43.775 0.369426 44.124 0.517458C43.816 0.643485 43.6799 0.903541 43.6299 1.22961C43.2058 1.31563 43.1898 1.73772 43.2448 1.92976C42.8978 2.13681 42.9318 2.41187 43.0548 2.68993C42.7447 2.89797 42.7917 3.19804 42.8798 3.42708C42.6197 3.58712 42.8798 4.03121 42.9198 4.29127C43.6669 4.13724 44.6001 5.78659 45.9404 5.98964C46.1925 4.81238 45.8764 4.23526 45.5863 3.65413C45.8044 3.52711 46.0414 3.35207 46.2715 3.16803C46.4055 3.91319 46.5015 4.99242 46.3515 6.22569C46.3415 6.21569 46.3315 6.20768 46.3255 6.19768C46.2415 6.19768 46.1575 6.14167 46.0894 6.11466C46.1035 6.15467 46.2575 6.39973 46.2265 6.44474C46.2265 6.44474 45.7924 6.7318 44.9312 6.36972C44.7011 6.90783 41.7445 8.23012 41.7445 8.23012C41.8545 9.0463 42.2426 9.58841 42.6427 10.0305C43.2778 10.5006 43.956 10.7427 44.7572 10.9087C44.9252 11.3428 45.4673 12.7871 45.5173 13.0192C45.5713 13.2512 45.7004 13.2512 45.7004 13.2512C45.7774 13.3552 46.0304 13.8153 46.0584 14.0364L46.1215 14.8165C46.1485 14.9946 46.3815 14.8605 46.4255 15.0126L46.3175 15.5367L37.4606 15.5387C37.5846 14.9186 37.2685 14.3764 37.4326 13.8243C37.0765 13.2042 36.1103 12.7761 36.2743 11.9619C36.7444 11.3138 38.2047 10.6816 37.8747 9.89848C39.202 9.22533 39.9021 10.3486 41.1594 10.2656C41.5975 10.2416 42.0856 10.1935 42.4867 10.0755C41.9906 9.64542 41.5165 9.01329 41.2664 8.44817C38.6318 9.5084 36.0693 10.3816 33.2127 10.9607L32.9926 10.8907C32.7756 10.9237 29.6289 11.6309 28.7947 11.9559C28.5757 11.8242 28.3354 11.7318 28.0846 11.6829H28.1576C28.4246 11.6829 28.8327 11.5408 29.1218 11.4398C30.3441 10.9937 30.7942 9.25334 31.3423 8.1471C31.8224 9.86747 32.9366 10.0075 33.5828 9.79346L33.6428 10.3336C33.6428 10.3336 34.2069 10.3136 34.631 10.1435C34.588 10.0415 34.531 9.76845 34.4909 9.40937C34.748 9.27635 34.887 9.17932 35.0041 9.11131C35.0391 9.5194 35.0641 9.90448 34.942 10.1115L36.3964 9.72344C36.6764 8.46617 37.4366 6.71879 38.7799 5.44252C36.9765 4.72536 35.6252 5.54454 35.2821 5.87261C33.5848 6.41473 33.5167 8.75723 33.5677 9.56341C33.2737 9.62142 32.0394 10.0495 31.4553 7.91305C31.7954 7.09288 32.4405 6.18068 33.1657 5.46953C33.2287 5.41651 33.1557 5.3325 33.0106 5.41751C31.5533 6.41773 31.0202 8.17811 30.237 9.66443C29.6229 10.5876 28.7937 11.0877 27.5505 11.0347C25.9981 11.0107 25.247 9.39137 24.5358 8.34014C23.4456 5.95263 20.625 6.80981 18.5285 6.2997C18.4115 6.23969 18.1784 5.54954 17.8444 5.57555C17.6073 5.59355 17.8304 5.8376 17.6943 5.91962C17.4313 5.8096 17.2102 5.61656 16.8802 5.67157C16.6731 5.71358 16.6171 5.93363 16.6321 6.12767C16.7971 6.88583 17.6103 7.2179 18.2174 7.49396C18.4505 7.84204 18.3635 9.0443 18.1694 9.45738C17.9194 9.91748 16.9362 9.75345 16.7391 10.8077C16.7011 11.0217 16.7491 11.2078 16.8371 11.3828C16.4553 11.5836 16.1321 11.88 15.8989 12.243C15.4819 12.343 15.0748 12.455 14.6947 12.5911C14.5947 12.6271 14.5947 12.6851 14.7247 12.7151C15.0178 12.7751 15.3188 12.8251 15.6229 12.8631L15.6209 12.8561ZM46.6816 6.95284C47.0417 7.34593 47.9018 7.94306 48.452 8.1381L46.8586 8.43316C47.0387 7.75802 46.4245 7.49896 46.6806 6.95284H46.6816ZM46.8536 1.48867C46.9136 1.46366 47.0817 1.52868 47.1507 1.54668C47.1927 1.55668 47.1767 1.6467 47.1557 1.72672C47.0517 1.74872 46.8896 1.69171 46.8676 1.6367C46.8376 1.57669 46.7956 1.51467 46.8546 1.48867H46.8536ZM46.8666 1.89876C46.8866 2.01578 46.9346 2.14881 47.0036 2.24883C47.0016 2.30284 46.7066 2.5759 46.3665 2.86396C46.2825 2.44687 46.1965 2.15981 46.1765 2.04579C46.3115 1.94977 46.6766 1.84574 46.8666 1.89876ZM45.3413 0.43544C45.4013 0.415436 45.5233 0.455445 45.5563 0.47945C45.5893 0.504455 45.5623 0.605477 45.5603 0.639484C45.5603 0.673492 45.4083 0.745507 45.4083 0.745507C45.4083 0.745507 45.2643 0.635484 45.2663 0.601476L45.2593 0.598476C45.2828 0.542317 45.3102 0.487844 45.3413 0.43544ZM45.5283 3.5191C45.3403 3.13902 45.1883 2.73694 45.2283 2.14881C45.4103 2.14581 45.6744 2.26483 46.0234 2.1068C46.0234 2.1068 46.1315 2.43287 46.2385 2.96699C45.9784 3.18403 45.7084 3.39508 45.5283 3.5191ZM43.1428 10.1305C42.5727 9.84447 42.9278 10.0845 43.0928 9.96049C43.996 10.3766 44.4511 10.2806 45.1272 10.1985C45.2243 10.3226 45.3573 10.4386 45.3573 10.6036C44.5301 10.8387 43.887 10.5336 43.1418 10.1315L43.1428 10.1305ZM46.3965 14.5815C46.3435 14.1434 46.3185 13.8333 46.1165 13.6243C45.9564 13.1882 45.4923 11.9759 45.1622 10.8837C45.3623 10.6856 45.5173 10.7887 45.6504 11.3318C45.7774 11.7699 45.9304 12.132 46.0464 12.498C46.2005 12.8661 46.3165 13.3562 46.4345 13.6143C46.4345 13.6143 46.5385 13.6323 46.5966 13.7713C46.8866 14.5815 46.9626 14.7115 46.9136 15.0976C46.9836 15.4007 47.4097 15.1536 47.3707 15.5277H46.4665L46.8646 15.5247C46.5906 15.2346 46.7846 14.8025 46.3965 14.5815ZM28.7607 15.3066C28.5107 15.4937 28.2106 15.6127 27.8835 15.6507C27.8515 15.6407 27.8235 15.5757 27.8215 15.5357L27.7695 14.4085C27.7675 14.3964 27.7875 14.3834 27.7995 14.3784C27.8275 14.3684 27.9045 14.3384 27.9355 14.3204C27.9475 14.3134 27.9785 14.3104 27.9885 14.3204L28.7287 15.1786C28.7547 15.2106 28.7787 15.2806 28.7587 15.3086L28.7607 15.3066ZM27.6165 15.6667C27.3164 15.6567 27.0363 15.5717 26.7893 15.4347C26.7693 15.4067 26.7763 15.3327 26.7993 15.2996L27.4174 14.3574C27.4234 14.3474 27.4474 14.3474 27.4614 14.3514C27.4874 14.3594 27.5485 14.3764 27.5835 14.3814C27.5975 14.3814 27.6235 14.4015 27.6235 14.4145L27.6785 15.5447C27.6805 15.5847 27.6485 15.6547 27.6155 15.6647L27.6165 15.6667ZM26.0561 13.3192C26.0161 13.3072 25.9561 13.2532 25.9581 13.2192C26.0151 13.0632 26.0881 12.9161 26.1832 12.7831C26.3332 12.7401 26.4882 12.6991 26.6433 12.6591L27.1434 13.2892L27.1204 13.2922C26.7963 13.3322 26.4932 13.3522 26.2062 13.3562L26.0561 13.3162V13.3192ZM27.4634 12.0289C27.4934 12.0409 27.5234 12.105 27.5234 12.144L27.5284 12.232C27.2284 12.29 26.9343 12.355 26.6523 12.427C26.6343 12.39 26.6253 12.347 26.6403 12.327C26.8803 12.164 27.1604 12.0639 27.4604 12.0299L27.4634 12.0289ZM27.3054 13.2592L26.7973 12.6231C27.0433 12.5631 27.2914 12.508 27.5394 12.459L27.5735 13.2042C27.4734 13.2282 27.3904 13.2442 27.3054 13.2592ZM27.2574 13.4592C27.2554 13.4662 27.2574 13.4732 27.2534 13.4793C27.2294 13.5134 27.2077 13.5492 27.1884 13.5863C27.1824 13.5993 27.1584 13.6183 27.1434 13.6163L26.7783 13.5163C26.9343 13.5003 27.0934 13.4863 27.2584 13.4582L27.2574 13.4592ZM27.9305 13.3232C27.9245 13.3332 27.9005 13.3332 27.8865 13.3282H27.8815L27.9345 13.3162L27.9315 13.3222L27.9305 13.3232ZM27.7175 13.1682L27.6825 12.431C27.9885 12.373 28.2896 12.325 28.5767 12.291C28.5733 12.3216 28.5645 12.3514 28.5507 12.379L28.0976 13.0672C27.9635 13.1072 27.8395 13.1372 27.7175 13.1672V13.1682ZM28.6707 12.458C28.6907 12.425 28.7547 12.388 28.7887 12.395C28.9187 12.497 29.0388 12.6151 29.1388 12.7481C28.8687 12.8381 28.5887 12.9241 28.3106 13.0081L28.6707 12.458ZM27.6705 12.205L27.6685 12.135C27.6665 12.093 27.6985 12.0189 27.7305 12.0119C27.9205 12.0169 28.1006 12.0539 28.2706 12.112C28.0706 12.138 27.8725 12.168 27.6705 12.204V12.205ZM27.6455 12.0099C27.6555 12.0099 27.6635 12.0069 27.6725 12.0069L27.6965 12.0089H27.6445L27.6455 12.0099ZM25.0269 13.2542C24.9289 13.2242 24.9519 13.1942 25.0109 13.1692C25.2079 13.0912 25.429 13.0142 25.661 12.9391C25.604 13.0672 25.561 13.2012 25.527 13.3392C25.3581 13.3264 25.1907 13.2983 25.0269 13.2552V13.2542ZM25.8721 13.5393C26.0201 13.5473 26.1722 13.5453 26.3252 13.5423L27.1014 13.7553C27.1114 13.7583 27.1194 13.7813 27.1194 13.7953C27.1194 13.8253 27.1244 13.9053 27.1334 13.9404C27.1334 13.9544 27.1234 13.9654 27.1114 13.9704L26.0761 14.4275C26.0381 14.4425 25.9631 14.4415 25.9401 14.4155C25.8756 14.2308 25.8411 14.0369 25.8381 13.8413C25.8381 13.7373 25.8521 13.6383 25.8681 13.5413L25.8721 13.5393ZM25.9871 14.5565L25.9841 14.5495C25.9841 14.5525 25.9861 14.5545 25.9871 14.5565ZM26.0431 14.6605C26.0431 14.6265 26.0981 14.5745 26.1331 14.5585L27.1734 14.1244C27.1834 14.1184 27.2034 14.1344 27.2114 14.1444C27.2294 14.1664 27.2564 14.1994 27.2814 14.2244C27.2934 14.2344 27.3034 14.2644 27.2974 14.2744L26.6773 15.2206C26.6553 15.2546 26.5872 15.2906 26.5552 15.2806C26.341 15.1146 26.1667 14.9027 26.0451 14.6605H26.0431ZM26.6603 15.3637C26.6503 15.3567 26.6433 15.3507 26.6343 15.3457L26.6613 15.3627L26.6603 15.3637ZM27.6705 15.6697H27.6695H27.6705ZM28.9708 15.1326C28.9408 15.1506 28.8657 15.1126 28.8377 15.0826L28.1006 14.2254C28.0906 14.2174 28.0986 14.1954 28.1066 14.1824C28.1263 14.153 28.144 14.1222 28.1596 14.0904C28.1666 14.0774 28.1896 14.0584 28.2046 14.0604L29.2948 14.3624C29.3288 14.3724 29.3848 14.4095 29.3968 14.4425C29.3038 14.7025 29.1618 14.9406 28.9708 15.1326ZM29.4689 14.1924C29.4509 14.2224 29.3688 14.2324 29.3288 14.2224L28.2436 13.9223C28.2306 13.9193 28.2236 13.8963 28.2236 13.8823C28.2237 13.8405 28.221 13.7988 28.2156 13.7573C28.2126 13.7433 28.2206 13.7133 28.2326 13.7073L29.2868 13.3072C29.3238 13.2932 29.3969 13.3002 29.4219 13.3252C29.4689 13.4893 29.5019 13.6583 29.5019 13.8383C29.5019 13.9584 29.4889 14.0784 29.4669 14.1934L29.4689 14.1924ZM29.3288 13.0672C29.3288 13.1022 29.2738 13.1572 29.2368 13.1722L29.3068 13.1482L28.1836 13.5703C28.1716 13.5753 28.1536 13.5603 28.1456 13.5503C28.1208 13.5164 28.0941 13.484 28.0656 13.4532C28.0526 13.4432 28.0436 13.4152 28.0486 13.4032L28.1456 13.2562C28.4877 13.1662 28.8557 13.0502 29.2458 12.9161C29.2758 12.9661 29.3058 13.0162 29.3298 13.0682L29.3288 13.0672ZM32.2595 11.4568C31.7714 11.8089 32.0014 12.224 31.6993 12.307C31.5893 12.291 30.9752 12.403 30.8792 12.447C30.6721 12.254 30.4611 12.091 30.143 12.0069C30.7481 11.7589 31.7073 11.5128 32.2595 11.4568ZM30.274 12.332C30.169 12.382 29.889 12.49 29.5119 12.6221C29.418 12.481 29.3079 12.3514 29.1838 12.236C29.6559 12.211 30.041 12.236 30.274 12.332ZM35.5432 6.15267C34.805 6.89483 34.9 8.00307 34.9861 8.87526C34.816 8.99929 34.606 9.10331 34.4699 9.17932C34.3899 8.10909 34.505 6.51275 35.5442 6.15267H35.5432ZM17.0692 6.52875C16.9452 6.36272 16.7631 6.10866 16.9042 5.93563C17.0082 5.8076 17.2202 5.90762 17.3443 5.96363C17.4493 6.01864 18.2765 6.46374 18.5015 6.52575C20.1719 6.94184 22.2823 6.32871 23.6066 7.52897C23.6716 7.58898 23.7186 7.64599 23.7046 7.72901C21.7612 6.40473 18.8356 8.36315 17.0702 6.52875H17.0692ZM18.6415 8.66721C18.7796 8.75023 18.8346 8.97028 18.9866 9.09431C19.2347 9.5084 19.7038 9.64642 19.9518 10.0045C19.868 10.0111 19.7837 10.005 19.7018 9.9865C19.5397 9.95449 19.4757 9.90648 19.3397 9.84647C19.2677 9.72944 19.0866 9.69043 18.9446 9.76645C18.8316 9.78646 18.5185 9.77145 18.3105 9.71644C18.3505 9.38437 18.6705 9.0663 18.6405 8.66621L18.6415 8.66721ZM16.6971 12.238L17.2052 12.8031C16.8371 12.8001 16.4821 12.7831 16.145 12.7601C16.119 12.7241 16.105 12.6901 16.112 12.6701C16.177 12.534 16.256 12.408 16.347 12.29C16.4601 12.27 16.5791 12.255 16.6971 12.24V12.238ZM19.7098 12.378C19.7718 12.468 19.8218 12.5641 19.8698 12.6631C19.6197 12.7001 19.3537 12.7281 19.0736 12.7501L19.4707 12.41C19.5707 12.33 19.6838 12.347 19.7088 12.378H19.7098ZM19.3597 12.29L18.7956 12.7701C18.6515 12.7801 18.5055 12.7841 18.3585 12.7901L18.5885 12.136C18.8746 12.146 19.1526 12.166 19.4117 12.192C19.3997 12.227 19.3897 12.262 19.3617 12.29H19.3597ZM19.2217 15.2356C19.0216 15.3817 18.7956 15.4897 18.5515 15.5587C18.5075 15.5527 18.4235 15.4847 18.3995 15.3847L18.1794 14.1914C18.1754 14.1764 18.1814 14.1574 18.1964 14.1514C18.2386 14.1377 18.2789 14.1189 18.3165 14.0954C18.3295 14.0854 18.3465 14.0924 18.3565 14.1034L19.1716 14.9996C19.2517 15.0936 19.2487 15.2016 19.2217 15.2346V15.2356ZM17.4953 13.1252C17.5053 13.1352 17.5093 13.1572 17.5003 13.1692C17.4753 13.1992 17.4663 13.2092 17.4463 13.2462C17.4393 13.2602 17.4223 13.2622 17.4063 13.2562L16.4981 12.9321C16.7781 12.9481 17.0602 12.9551 17.3413 12.9551L17.4953 13.1252ZM18.3955 13.0802C18.3681 13.055 18.3379 13.0332 18.3055 13.0152C18.2895 13.0071 18.2855 12.9951 18.2915 12.9781L18.3085 12.9321L18.6245 12.9161L18.4345 13.0762C18.4245 13.0862 18.4085 13.0902 18.3965 13.0802H18.3955ZM18.1804 12.7951C18.1004 12.7971 18.0244 12.8021 17.9464 12.8031H17.9424L17.8174 12.133C17.8574 12.131 17.8924 12.126 17.9314 12.123C18.0964 12.123 18.2574 12.129 18.4195 12.133L18.1794 12.7961L18.1804 12.7951ZM17.6523 12.143L17.7743 12.8031C17.6593 12.8051 17.5443 12.8051 17.4273 12.8031L16.8872 12.213C17.1352 12.183 17.3893 12.16 17.6523 12.143ZM17.7873 12.9531C17.7843 12.9571 17.7873 12.9651 17.7813 12.9671C17.7394 12.9822 17.6991 13.0016 17.6613 13.0252C17.6473 13.0352 17.6313 13.0282 17.6213 13.0172L17.5653 12.9551C17.6393 12.9531 17.7153 12.9551 17.7883 12.9521L17.7873 12.9531ZM16.067 12.7531C16.07 12.7451 16.077 12.7361 16.08 12.7261C16.0764 12.7358 16.0721 12.7451 16.067 12.7541V12.7531ZM15.974 13.0552C15.997 13.0182 16.104 12.9721 16.206 13.0051L17.3493 13.4132C17.3623 13.4172 17.3743 13.4332 17.3713 13.4482C17.3647 13.4852 17.3614 13.5227 17.3613 13.5603C17.3613 13.5763 17.3483 13.5853 17.3342 13.5903L16.14 13.8123C16.022 13.8293 15.9399 13.7723 15.9229 13.7323C15.9179 13.6723 15.9059 13.6163 15.9059 13.5563C15.9059 13.3832 15.9319 13.2162 15.974 13.0542V13.0552ZM15.994 14.1294C15.998 14.0844 16.067 13.9944 16.17 13.9714L17.3603 13.7533C17.3677 13.7517 17.3754 13.7528 17.3821 13.7565C17.3887 13.7602 17.3938 13.7662 17.3963 13.7733C17.4083 13.8073 17.4123 13.8233 17.4343 13.8593C17.4413 13.8733 17.4373 13.8873 17.4243 13.8993L16.4771 14.6615C16.375 14.7385 16.267 14.7215 16.242 14.6915C16.1332 14.5168 16.0497 14.3275 15.994 14.1294ZM16.279 14.7455C16.269 14.7325 16.259 14.7205 16.251 14.7055C16.257 14.7175 16.269 14.7325 16.278 14.7455H16.279ZM16.5021 15.0176C16.4801 14.9836 16.4961 14.8575 16.5801 14.7875L17.5263 14.0324C17.5363 14.0184 17.5533 14.0154 17.5663 14.0274C17.5933 14.0524 17.6363 14.0844 17.6723 14.1044C17.6873 14.1124 17.6923 14.1244 17.6843 14.1424L17.2742 15.2846C17.2302 15.3997 17.1382 15.4447 17.0972 15.4367C16.8765 15.3318 16.6755 15.1897 16.5031 15.0166L16.5021 15.0176ZM17.1952 15.4857C17.1825 15.4814 17.1701 15.476 17.1582 15.4697L17.1942 15.4857H17.1952ZM17.4813 15.5757C17.4433 15.5527 17.3913 15.4497 17.4233 15.3477L17.8374 14.2014C17.8414 14.1864 17.8554 14.1764 17.8704 14.1794C17.9074 14.1864 17.9404 14.1894 17.9834 14.1894C18.0004 14.1894 18.0104 14.2034 18.0134 14.2194L18.2364 15.4147C18.2544 15.5297 18.2014 15.6047 18.1614 15.6287C18.1054 15.6327 18.0494 15.6457 17.9914 15.6457C17.8144 15.6457 17.6463 15.6187 17.4833 15.5757H17.4813ZM19.4517 15.0456C19.4617 15.0356 19.4717 15.0256 19.4777 15.0156C19.4677 15.0256 19.4607 15.0356 19.4517 15.0456ZM19.5247 14.9606C19.4877 14.9836 19.3697 14.9756 19.2947 14.8986L18.4855 13.9944C18.4755 13.9844 18.4715 13.9644 18.4825 13.9514C18.503 13.9276 18.5205 13.9014 18.5345 13.8733C18.5415 13.8583 18.5585 13.8553 18.5725 13.8633L19.7328 14.2754C19.8528 14.3224 19.8828 14.4175 19.8728 14.4555C19.7828 14.6391 19.6673 14.8092 19.5297 14.9606H19.5247ZM19.8748 14.4385C19.8918 14.4085 19.9108 14.3604 19.9298 14.3124C19.9129 14.3547 19.8946 14.3964 19.8748 14.4375V14.4385ZM20.0078 14.0614C19.9918 14.0994 19.8878 14.1554 19.7808 14.1214L18.6265 13.7073C18.6135 13.7033 18.6015 13.6873 18.6035 13.6723C18.6095 13.6343 18.6135 13.6163 18.6135 13.5753C18.6135 13.5593 18.6275 13.5503 18.6415 13.5453L19.8588 13.3552C19.9788 13.3402 20.0548 13.3972 20.0668 13.4382C20.0688 13.4783 20.0768 13.5183 20.0768 13.5583C20.0768 13.7313 20.0508 13.8983 20.0098 14.0604L20.0078 14.0614ZM20.0028 13.0392C20.0028 13.0872 19.9328 13.1732 19.8288 13.1932L18.6185 13.3832C18.6111 13.3845 18.6036 13.3832 18.597 13.3795C18.5905 13.3759 18.5854 13.3701 18.5825 13.3632C18.57 13.3216 18.5532 13.2814 18.5325 13.2432C18.5225 13.2302 18.5265 13.2162 18.5375 13.2032L18.8976 12.8951C19.2417 12.8691 19.5827 12.8301 19.9208 12.7801C19.9538 12.8651 19.9778 12.9501 20.0008 13.0402L20.0028 13.0392ZM20.626 12.413C20.704 12.438 20.731 12.49 20.632 12.517C20.5279 12.545 20.4019 12.5671 20.2819 12.5921C20.2369 12.486 20.1769 12.389 20.1188 12.292C20.3069 12.328 20.4789 12.367 20.625 12.412L20.626 12.413ZM18.6485 11.9699L18.6985 11.8269C18.7426 11.7129 18.8386 11.6739 18.8826 11.6809C19.0766 11.7739 19.2557 11.8949 19.4127 12.0409C19.1586 12.008 18.9034 11.9847 18.6475 11.9709L18.6485 11.9699ZM18.4905 11.5398C18.5275 11.5668 18.5765 11.6749 18.5455 11.7749L18.4775 11.9649C18.2925 11.9569 18.1094 11.9469 17.9244 11.9489C17.8764 11.9489 17.8314 11.9589 17.7823 11.9589L17.7353 11.7029C17.7173 11.5848 17.7723 11.5088 17.8134 11.4898C17.8734 11.4848 17.9294 11.4718 17.9884 11.4718C18.1624 11.4718 18.3285 11.4988 18.4905 11.5388V11.5398ZM17.4203 11.5598C17.4653 11.5648 17.5523 11.6339 17.5753 11.7359L17.6053 11.8989C17.5027 11.8044 17.4084 11.7013 17.3232 11.5908L17.4213 11.5608L17.4203 11.5598ZM17.3503 11.9929C17.1562 12.0109 16.9632 12.0329 16.7721 12.0629C16.7321 11.9849 16.7301 11.9129 16.7521 11.8869C16.8471 11.8169 16.9502 11.7549 17.0582 11.7009C17.1442 11.7989 17.2422 11.8969 17.3503 11.9929ZM15.2478 12.5551C15.4038 12.499 15.5939 12.447 15.8039 12.397C15.7485 12.4997 15.7001 12.6059 15.6589 12.7151C15.5159 12.6981 15.3688 12.6821 15.2488 12.6591C15.1468 12.6411 15.1718 12.5831 15.2488 12.5551H15.2478ZM51.9607 6.63077C51.9187 6.66578 51.9047 6.71379 51.9387 6.72079C52.0027 6.7328 52.0387 6.7548 52.1127 6.82282C52.1528 6.84282 52.1428 6.78081 52.1328 6.7468C52.0927 6.65078 52.0087 6.59277 51.9627 6.63077H51.9607Z" fill="black"/>
<path d="M50.4604 15.5351H48.4939C48.4689 15.6681 48.624 15.7651 48.714 15.8682H50.8614L51.4616 15.5761C51.5676 15.316 51.3535 15.086 51.3616 14.8759C51.3976 14.2498 51.0485 13.6257 50.8644 13.0526C50.9845 12.9255 51.1345 12.6325 51.3315 12.7105C51.7916 13.4266 51.8767 14.3408 51.7986 15.251C51.7516 15.4761 51.3686 15.6811 51.3806 15.8932C51.3876 15.9672 51.8907 15.9352 52.0987 15.7581C52.1357 15.6121 52.4058 15.4321 52.4928 15.4111C52.5888 15.136 52.4388 15.145 52.4628 14.979C52.5108 14.8639 52.4468 13.6237 52.3608 13.4906C52.3288 13.4706 52.3178 13.4706 52.3158 13.4736C52.2197 13.2276 52.4538 12.8505 52.5478 12.6175L53.234 12.5554C53.1519 11.9453 52.9339 11.3112 52.7959 10.685C52.8799 10.539 53.0319 10.425 53.1709 10.342C53.8941 9.86487 53.257 9.0957 53.233 8.50157C53.1099 8.19351 52.6858 7.95345 52.6468 7.61338C52.7348 7.6814 52.8019 7.65339 52.8209 7.65839C53.0279 7.51636 53.0179 7.31132 52.9149 7.05426C53.229 6.68018 53.421 6.50814 53.479 6.38912C53.459 6.07605 52.9559 5.60895 52.6608 5.60895C52.4868 5.70497 52.3708 5.89901 52.0507 6.14707C52.0407 6.16007 51.6666 6.01704 51.5536 6.13706C51.4436 6.22708 51.4816 6.51715 51.6836 6.67418C51.6586 6.7512 51.6356 6.7812 51.5936 6.87422C51.5716 6.92023 51.5616 6.96924 51.5906 6.99625C51.6566 7.05626 51.6806 7.14928 51.6336 7.29231C51.5836 7.44434 51.7536 7.55637 51.8136 7.57837C51.8237 7.58137 51.8437 7.60238 51.8637 7.62839C51.8857 7.79642 51.3155 8.09849 51.3155 8.22851C51.2705 8.6216 51.0255 8.58259 50.7874 9.87387C50.8174 10.1869 50.8134 10.464 50.7914 10.711C50.4994 11.4832 50.2613 11.9283 50.0633 12.4864C49.8992 12.9465 50.8194 14.2788 50.8334 15.187C50.6334 15.4871 50.4734 15.4441 50.4604 15.5341V15.5351ZM51.9537 14.1518C51.9067 14.0288 51.8677 13.8547 51.8917 13.7257C51.9717 13.6487 52.1217 13.7057 52.1977 13.6937C52.2908 14.1238 52.3138 14.1838 51.9547 14.1538L51.9537 14.1518ZM51.9607 7.79342C51.9867 7.77342 52.0107 7.7094 52.0257 7.6864C52.3288 7.49236 52.1197 7.63239 51.8186 7.47335C51.7206 7.42334 51.7186 7.32932 51.7306 7.19629C51.7486 7.03126 51.6806 6.99925 51.6546 6.94624C51.6446 6.92423 51.6916 6.84322 51.7306 6.7862C51.8006 6.68018 51.8637 6.46013 51.8967 6.40612C52.3988 6.42613 52.2868 6.64817 52.2998 6.68818C52.3398 6.79621 52.5498 7.02825 52.6528 7.10127C52.6228 7.40534 52.3848 7.2263 52.4908 7.50336C52.4628 8.02947 51.8377 7.96346 51.5706 8.39555C51.5436 7.96746 51.9207 7.96846 51.9607 7.79242V7.79342ZM51.3906 10.0579C51.5266 10.1809 51.6706 10.336 51.7746 10.362C51.8467 10.542 51.6246 10.567 51.5446 10.652C51.3575 10.68 51.2875 10.482 51.1785 10.572C51.1535 10.592 51.0415 10.569 51.0435 10.547C51.1035 10.387 51.2705 10.1569 51.3896 10.0569L51.3906 10.0579ZM50.2053 12.7385C50.1353 12.3744 50.6194 11.8083 50.9415 10.698C51.0735 10.652 51.1435 10.9551 51.3315 10.8381C51.6216 10.8451 51.4976 11.6002 51.7676 11.1201C51.7616 10.9081 51.7556 10.67 51.9237 10.557C52.1057 10.515 52.2237 10.617 52.2357 10.7771L51.9557 11.2132C52.4858 11.2332 51.7856 12.0853 52.4858 11.9293C52.4628 12.2494 52.2908 13.1466 52.1677 13.1016C52.0717 12.6045 51.9937 12.8115 51.9937 12.9575C52.0137 13.1506 52.0097 13.3076 52.1237 13.4636C52.0857 13.5037 51.9437 13.4997 51.9037 13.5087C51.5076 12.9435 51.5236 12.1684 51.2685 11.5542C51.2255 11.5522 51.1715 11.6042 51.1735 11.6493C51.1435 12.0193 50.9995 12.5534 50.6954 12.7295C50.5054 12.8415 51.1135 12.7735 50.6154 13.0075C50.8054 13.1336 50.6304 13.3046 50.4214 13.3046C50.3173 13.0826 50.2373 12.8985 50.2063 12.7375L50.2053 12.7385ZM50.7304 13.9648C50.6584 13.8807 50.5474 13.6377 50.5024 13.5327L50.7924 13.4126C50.8824 13.5127 50.9725 13.6987 50.9855 13.8627C50.9205 13.8977 50.8304 13.9577 50.7304 13.9648ZM41.3934 8.00347C41.3504 7.41334 41.5934 6.91323 41.3184 6.28309C41.3214 6.02304 41.5034 5.823 41.4544 5.58294L41.0073 5.69097C40.9393 6.18707 40.8573 6.35111 40.9243 6.81821C41.0423 7.35333 41.1023 7.84043 41.3924 8.00447L41.3934 8.00347ZM36.7744 9.65382C38.4848 9.17372 39.665 8.76363 41.0823 8.1685C40.4922 6.90823 40.6222 6.54415 40.6722 5.73798C40.6722 5.73798 39.9521 5.74798 39.1149 5.52593C38.1227 6.16607 36.9644 8.45656 36.7744 9.65282V9.65382ZM42.6437 10.0189C42.5517 9.92888 42.6877 10.0729 42.6437 10.0189V10.0189ZM44.6991 6.19808C43.979 5.70197 43.4208 4.54772 42.6357 4.62574C42.5597 3.77555 42.1886 2.33224 43.3628 0.809915C43.5149 0.7399 43.7629 0.712894 43.8589 0.60187C43.3788 0.551859 42.7467 0.848923 42.2886 0.588867C42.2886 0.588867 42.5006 0.958947 42.7467 1.01496C42.5847 1.23501 42.2706 1.39204 42.4616 1.77512C42.0695 2.00817 42.2176 2.35725 42.3386 2.54529C42.1426 2.74733 42.0235 3.11041 42.2836 3.33146C41.9635 3.67453 42.3606 3.9656 42.4536 4.08162C42.2916 4.42469 42.4476 4.68975 42.4476 4.68975C42.4416 4.9368 42.0015 5.28988 41.8425 5.4039C41.6525 5.98403 41.7255 7.15128 41.7545 7.92445C42.8247 7.41234 43.8749 6.92423 44.6991 6.19708V6.19808ZM32.3965 26.7045C32.3965 26.0944 31.9894 25.3742 31.4303 25.0361C31.2936 24.9532 31.1395 24.9032 30.9802 24.8901C31.1162 24.8981 31.3002 24.8881 31.4733 24.8161C31.479 24.8138 31.4851 24.8125 31.4913 24.8121C32.0574 24.56 32.7435 23.8269 32.7435 22.5916C32.7435 21.6784 32.3505 20.9413 31.6833 20.4562C31.0592 20.0041 30.319 19.902 29.5799 19.902H23.7586V21.3823H25.0689V28.839H23.7586V30.3133H27.8925V28.838H26.5992V25.5532H29.4568C30.442 25.5653 30.8231 26.2134 30.8431 26.7705L30.9151 30.3113H33.7718V28.839H32.4365L32.3965 26.7055V26.7045ZM29.7659 24.1239H26.6002V21.3834H29.5959C29.9059 21.3834 30.292 21.3733 30.5931 21.5264C30.9612 21.7134 31.3062 22.1165 31.3062 22.7747C31.3062 23.5348 30.6101 24.1249 29.7659 24.1249V24.1239ZM23.2415 33.9741H21.2681V39.9223H22.1483V37.3478H23.1245C24.5448 37.3478 25.1899 36.6176 25.1899 35.6834C25.1899 34.7412 24.5798 33.9731 23.2415 33.9731V33.9741ZM23.2055 36.5816H22.1503V34.7412H23.2425C24.0427 34.7412 24.2827 35.2113 24.2827 35.6454C24.2827 36.2406 23.8626 36.5816 23.2065 36.5816H23.2055ZM28.6116 33.9391L25.9791 39.9203H26.9293L27.6494 38.167H30.255L31.0002 39.9203H31.9704L29.2298 33.9391H28.6096H28.6116ZM27.9915 37.3998L28.9077 35.0493L29.8949 37.3998H27.9905H27.9915ZM40.9863 33.9741H41.8665V39.9223H40.9863V33.9741ZM45.5263 35.3694C45.5263 34.9493 45.9544 34.6622 46.5505 34.6622C46.9906 34.6622 47.5237 34.8022 48.0728 35.2823V34.3121C47.6388 34.0423 47.1386 33.898 46.6275 33.895C45.4393 33.895 44.6601 34.5122 44.6601 35.4814C44.6601 37.1117 47.4637 37.2518 47.4637 38.482C47.4637 38.8121 47.1316 39.2302 46.4085 39.2302C45.7703 39.2302 45.1742 38.9241 44.6981 38.37V39.4502C45.2402 39.8253 45.8084 40.0004 46.5125 40.0004C47.5577 40.0004 48.3269 39.3182 48.3269 38.387C48.3309 36.4936 45.5263 36.5116 45.5263 35.3684V35.3694ZM37.8746 38.7441C37.3975 38.0039 37.0505 37.4538 36.4843 37.0957C37.1515 36.8437 37.5266 36.3276 37.5266 35.6404C37.5266 34.6122 36.7384 33.9751 35.4761 33.9751H33.8998V39.9233H34.797V37.3398H35.1731C35.6312 37.3398 36.0062 37.4798 36.8304 38.7001L37.6176 39.9223H38.6708L38.2077 39.2302C38.0918 39.0715 37.9808 38.9094 37.8746 38.7441ZM35.3741 36.5736H34.799V34.7062H35.3751C36.2453 34.7062 36.5934 35.0463 36.6034 35.6044C36.6104 36.1045 36.3373 36.5726 35.3751 36.5726L35.3741 36.5736Z" fill="black"/>
</svg>
