<svg width="96" height="32" viewBox="0 0 96 32" fill="none" xmlns="http://www.w3.org/2000/svg">
<path d="M3.69707 7.34244H7.34969V26.9143C7.34969 29.9577 5.12832 32 2.04826 32H0.618164V28.562H1.65491C2.90858 28.562 3.69707 27.9873 3.69707 26.6273V7.34244ZM3.69707 0H7.34969V3.65327H3.69707V0Z" fill="#003876"/>
<path d="M13.3601 14.7916C13.4311 12.0344 15.0432 10.5664 17.1929 10.5664C19.3425 10.5664 20.9177 12.0344 21.0238 14.7916H13.3601ZM24.6767 17.7985V14.7916C24.6767 10.1004 21.2015 7.12793 17.1933 7.12793C13.6813 7.12793 9.70752 9.41883 9.70752 16.4752C9.70752 23.9237 14.0401 25.715 17.7657 25.715C20.1992 25.715 22.528 24.8537 24.3173 22.7773L21.6696 20.5224C20.5935 21.6315 19.0903 22.2765 17.6937 22.2765C15.1864 22.2765 13.3603 20.7715 13.3603 17.7985H24.6767Z" fill="#003876"/>
<path d="M27.5727 1.82617H31.2253V7.34206H33.8735V10.1355H31.2253V20.6992C31.2253 21.703 31.6185 22.0607 32.5113 22.0607H33.8735V25.4987H31.9762C29.4325 25.4987 27.5727 23.8843 27.5727 21.0219V10.1355H25.7432V7.34206H27.5727V1.82617Z" fill="#003876"/>
<path d="M46.0159 14.1825C48.8803 14.1825 50.1671 16.0081 50.1671 18.0134C50.1671 20.0199 48.88 21.8458 46.0159 21.8458H40.0697V14.1825H46.0159ZM36.2002 25.4991H46.9452C50.778 25.4991 54.0356 22.6696 54.0356 18.2654C54.0356 15.6867 52.6754 13.0367 49.8824 12.3904V12.3199C52.8549 10.9944 53.6436 8.95322 53.6436 6.84104C53.6433 2.82984 51.0622 0 46.0857 0H36.2002V25.4991ZM45.6555 3.43929C48.4494 3.43929 49.7741 5.12172 49.7741 7.09174C49.7741 9.09587 48.4494 10.7455 45.6555 10.7455H40.0697V3.43929H45.6555Z" fill="#003876"/>
<path d="M56.1353 0H59.7879V20.8073C59.7879 21.6309 60.2537 22.0611 61.1519 22.0611H62.4034V25.4991H60.792C58.14 25.4991 56.1353 24.3538 56.1353 21.0932V0Z" fill="#003876"/>
<path d="M63.9429 7.34277H67.596V18.157C67.596 20.6297 69.1353 22.0614 71.2151 22.0614C73.2555 22.0614 74.7935 20.6299 74.7935 18.157V7.34277H78.4477V25.4994H74.7935V23.5645H74.7249C73.5777 24.9979 71.9297 25.7149 70.031 25.7149C67.168 25.7149 63.9429 23.5289 63.9429 19.412V7.34277Z" fill="#003876"/>
<path d="M84.0636 14.7916C84.1378 12.0344 85.7465 10.5664 87.8957 10.5664C90.0442 10.5664 91.6195 12.0344 91.7297 14.7916H84.0636ZM95.3815 17.7985V14.7916C95.3815 10.1004 91.9074 7.12793 87.8957 7.12793C84.3858 7.12793 80.4092 9.41883 80.4092 16.4752C80.4092 23.9237 84.7444 25.715 88.4675 25.715C90.9056 25.715 93.2316 24.8537 95.0227 22.7773L92.3715 20.5226C91.2968 21.6316 89.7951 22.2768 88.3976 22.2768C85.8911 22.2768 84.0636 20.772 84.0636 17.7987L95.3815 17.7985Z" fill="#003876"/>
</svg>
