<svg width="204" height="24" viewBox="0 0 204 24" fill="none" xmlns="http://www.w3.org/2000/svg">
<path fill-rule="evenodd" clip-rule="evenodd" d="M197.134 4.57006C193.944 4.3985 190.951 5.87896 188.617 8.59481C188.562 8.40716 187.522 4.42071 182.668 5.38037H175.556L172.576 10.6321C172.779 8.45925 171.804 4.57006 166.828 4.57006C165.338 4.57006 164.293 4.77225 162.915 5.36122L165.903 0.0788866H146.505L142.311 7.48733H148.828L139.4 14.4554C139.49 14.2272 139.578 13.9966 139.662 13.7623C141.575 8.44546 139.367 4.64205 134.803 4.51798C132.805 4.46437 131.045 4.95607 129.283 6.01912L129.648 5.37195H126.603L127.931 3.02603H119.105L117.797 5.33748H104.411C104.545 2.10619 101.439 0 96.8315 0C95.1358 0 91.4228 0.339289 88.8149 3.02296L90.4777 0.0842478H0.612061V23.3772H94.7988L96.3229 20.692C96.4792 21.0765 97.7107 23.9088 102.967 23.9088C104.693 23.9088 108.866 23.5067 111.149 19.9215C111.321 20.4906 112.382 23.3834 115.469 23.3834H119.781L122.146 19.2054C122.444 22.4551 124.881 23.7449 127.482 23.8896C129.99 24.0298 132.227 23.3014 134.142 21.883L133.285 23.3841H152.719L154.55 20.1567C155.032 21.8171 155.974 23.7043 159.655 23.9762C161.863 24.1385 164.232 23.4607 165.971 22.2744L165.341 23.3841L181.615 23.388L184.473 18.3254C184.173 20.9723 185.728 23.7571 189.647 23.9808C195.223 24.2986 198.79 20.0663 200.344 16.7439C205.253 6.24889 199.567 4.70179 197.134 4.57006Z" fill="white"/>
<mask id="mask0_3890_15445" style="mask-type:alpha" maskUnits="userSpaceOnUse" x="199" y="1" width="5" height="4">
<path d="M199.823 1.36621H203.388V4.89466H199.823V1.36621Z" fill="white"/>
</mask>
<g mask="url(#mask0_3890_15445)">
<path fill-rule="evenodd" clip-rule="evenodd" d="M201.232 3.00445V2.37642H201.653C201.871 2.37642 202.097 2.41854 202.097 2.67358C202.097 2.9853 201.862 3.00445 201.6 3.00445H201.232ZM201.232 3.26025H201.587L202.126 4.14792H202.469L201.889 3.24494C202.188 3.21736 202.418 3.05346 202.418 2.6935C202.418 2.28604 202.182 2.11219 201.701 2.11219H200.935V4.14792H201.233V3.25949L201.232 3.26025ZM200.181 3.12239C200.181 2.28604 200.798 1.65801 201.613 1.65801C202.398 1.65801 203.03 2.28604 203.03 3.12316C203.03 3.9733 202.398 4.5975 201.613 4.5975C200.798 4.5975 200.181 3.9733 200.181 3.12316V3.12239ZM201.613 4.89466C202.568 4.89466 203.389 4.14792 203.389 3.12316C203.389 2.11219 202.568 1.36621 201.613 1.36621C200.638 1.36621 199.823 2.11219 199.823 3.12316C199.823 4.14792 200.638 4.89466 201.613 4.89466Z" fill="#D52B1E"/>
</g>
<path fill-rule="evenodd" clip-rule="evenodd" d="M72.5527 1.29764L60.735 22.054H64.6931L76.5223 1.29764H72.5527ZM80.9759 1.29764H78.5243L66.7082 22.054H69.1567L73.4151 14.5927L80.9759 1.29688V1.29764ZM87.8253 1.29764L76.0107 22.054H76.7092L88.5192 1.29764H87.8253ZM83.5539 1.29764L71.7439 22.054H73.1861L84.9999 1.29764H83.5539ZM1.90479 1.29764V22.054H31.8449L43.6549 1.29764H1.90479ZM64.8854 1.29764L53.07 22.054H59.2906L71.1105 1.29764H64.8854ZM44.4706 1.29764L32.646 22.054H42.6463L54.4609 1.29764H44.4706ZM55.4481 1.29764L43.6335 22.054H51.8653L63.686 1.29764H55.4481Z" fill="#F37F00"/>
<path fill-rule="evenodd" clip-rule="evenodd" d="M112.009 6.48672L106.271 16.5068C105.802 17.3355 105.317 17.5707 104.573 17.4274C103.643 17.2482 104.032 16.5497 104.301 16.0718L109.955 6.48595H104.332C104.332 6.48595 97.9391 17.4121 97.9421 17.4175C96.8025 19.4701 98.299 21.525 102.001 21.9791C104.106 22.2372 108.521 21.9898 110.601 18.4943L110.611 18.4844L117.606 6.48595H112.009V6.48672ZM122.318 11.2069H125.406L127.947 6.83826H124.869L126.21 4.54059H120.143L112.873 17.0016C112.21 18.1956 112.273 19.5321 113.238 20.7391C113.928 21.6153 114.652 22.0534 115.957 22.0534H119.398L121.783 17.9666H119.186C118.986 17.9666 118.76 17.9988 118.676 17.8135C118.632 17.6986 118.607 17.5791 118.659 17.4726L122.318 11.2069ZM95.5212 8.30954L93.1186 12.5694H90.1929L92.826 7.90132C93.1729 7.28248 93.8446 6.73563 94.9 6.83826C95.7831 6.92328 96.0695 7.38358 95.5219 8.3103M97.8678 1.3836C95.4453 1.07571 90.2978 1.3836 88.04 5.74917L78.8232 22.0534H84.8309L87.402 17.5017H90.3231L87.7497 22.0534H93.7114L102.203 7.07722C103.616 4.4372 102.256 1.94117 97.8678 1.3836ZM132.774 13.6554C131.431 16.3261 130.513 17.6564 129.381 17.4282C128.557 17.262 128.865 16.0573 129.677 14.4443C130.81 12.1926 132.026 10.5521 133.039 10.7336C133.987 10.9021 133.586 12.0432 132.775 13.6554M134.812 5.8495C130.292 5.60059 126.046 9.28834 124.097 14.9689C122.702 19.0358 123.292 22.4524 127.569 22.6883C131.891 22.9258 136.028 20.1486 138.338 13.4127C139.733 9.34578 138.736 6.06471 134.813 5.8495M185.113 6.63837C182.428 5.97587 180.663 7.68687 180.663 7.68687L181.251 6.6353H176.152L167.377 22.0496H172.979L178.253 12.767C178.621 12.1106 179.125 11.3555 179.877 11.5171C180.548 11.6626 180.747 12.2845 180.526 12.7027L175.219 22.0542H180.78L187.147 10.8155C188.025 9.18418 186.58 7.0014 185.113 6.63913M160.891 7.01825L164.144 1.29705H147.533L144.738 6.21023H152.911L138.866 16.5375L135.704 22.0534H152.342L155.125 17.1716H147.314L160.891 7.01825ZM194.669 13.3491H192.055C192.994 11.6856 193.956 10.5827 194.78 10.7328C195.65 10.8921 195.362 11.9 194.669 13.3499M196.972 5.8495C192.324 5.60059 188.241 9.28834 186.237 14.9705C184.802 19.0373 185.126 22.4532 189.524 22.6883C193.226 22.8859 196.512 20.9881 198.974 16.4563H193.302C192.529 17.6457 191.796 18.3787 191.092 18.2401C190.437 18.1114 190.657 16.8745 191.176 15.5748H199.423C199.743 14.9038 200.041 14.1854 200.315 13.4119C201.748 9.34502 201.005 6.06471 196.972 5.8495Z" fill="#D52B1E"/>
<path fill-rule="evenodd" clip-rule="evenodd" d="M165.093 13.6557C163.749 16.3264 162.831 17.6567 161.7 17.4285C160.875 17.2623 161.184 16.0575 161.995 14.4446C163.128 12.1928 164.345 10.5523 165.357 10.7331C166.305 10.9031 165.905 12.0427 165.093 13.6549M167.132 5.84976C162.611 5.60084 158.365 9.2886 156.416 14.9707C155.021 19.0368 155.61 22.4535 159.886 22.6886C164.208 22.926 168.345 20.1481 170.656 13.4121C172.052 9.34527 171.055 6.06497 167.132 5.84976Z" fill="#D52B1E"/>
</svg>
