<svg width="156" height="30" viewBox="0 0 156 30" fill="none" xmlns="http://www.w3.org/2000/svg">
<path d="M26.9979 5.67713C24.8685 5.67502 22.81 6.45831 21.2021 7.88252C19.5943 9.30674 18.5455 11.2759 18.249 13.4269V1.04691C18.2491 1.01981 18.2412 0.993302 18.2263 0.970828C18.2114 0.948354 18.1904 0.930946 18.1657 0.920857C18.141 0.91077 18.1139 0.908466 18.088 0.914246C18.0621 0.920025 18.0383 0.93362 18.02 0.953272L12.8526 6.3834C11.7638 5.91559 10.5941 5.67542 9.41271 5.67713C4.53609 5.67713 0.578613 9.69924 0.578613 14.6612C0.578613 19.623 4.53388 23.6451 9.41381 23.6451C11.5431 23.6473 13.6014 22.8642 15.2092 21.4401C16.8171 20.0162 17.866 18.0474 18.1627 15.8965V28.2753C18.1627 28.3972 18.3077 28.4559 18.3905 28.369L23.5592 22.9389C24.6476 23.4066 25.817 23.6467 26.9979 23.6451C31.8768 23.6451 35.8321 19.623 35.8321 14.6612C35.8321 9.69924 31.8768 5.67713 26.9979 5.67713Z" fill="#7C52FF"/>
<path fill-rule="evenodd" clip-rule="evenodd" d="M69.2147 2.01332C69.2147 2.54727 69.0068 3.05937 68.6367 3.43694C68.2665 3.81451 67.7644 4.02662 67.241 4.02662C66.7175 4.02662 66.2155 3.81451 65.8453 3.43694C65.4752 3.05937 65.2672 2.54727 65.2672 2.01332C65.2672 1.47935 65.4752 0.967254 65.8453 0.589684C66.2155 0.212116 66.7175 0 67.241 0C67.7644 0 68.2665 0.212116 68.6367 0.589684C69.0068 0.967254 69.2147 1.47935 69.2147 2.01332ZM92.4454 0.298415V23.4563C92.4454 23.5782 92.5427 23.6763 92.6621 23.6763H95.4383C95.4668 23.6765 95.4951 23.6709 95.5214 23.6598C95.5477 23.6489 95.5716 23.6328 95.592 23.6123C95.6122 23.5918 95.6283 23.5675 95.6392 23.5408C95.6503 23.514 95.656 23.4853 95.6561 23.4563V0.298415C95.6556 0.240158 95.6325 0.184491 95.592 0.143507C95.5513 0.102525 95.4966 0.0795359 95.4394 0.07954H92.6621C92.6048 0.0795386 92.5498 0.102682 92.5092 0.143908C92.4686 0.185134 92.4456 0.241091 92.4454 0.299543V0.298415ZM58.7846 8.42161V0.305183C58.7846 0.183336 58.8819 0.0840531 59.0014 0.0840531H61.7787C61.8982 0.0840531 61.9955 0.183336 61.9955 0.305183V23.4619C61.9955 23.5206 61.9727 23.5768 61.932 23.6183C61.8913 23.6598 61.8362 23.683 61.7787 23.683H59.0025C58.9739 23.6831 58.9457 23.6775 58.9192 23.6665C58.8928 23.6554 58.8688 23.6392 58.8485 23.6187C58.8283 23.5981 58.8122 23.5737 58.8012 23.5468C58.7903 23.5199 58.7846 23.4911 58.7846 23.4619V21.465C57.4529 23.0107 55.566 23.964 53.2487 23.964C48.4706 23.964 44.584 19.9181 44.584 14.945C44.584 9.97064 48.4706 5.92484 53.2487 5.92484C55.5649 5.92484 57.4529 6.87707 58.7846 8.42273V8.42161ZM48.1056 14.945C48.1056 18.077 50.4173 20.6255 53.4258 20.6255C56.4364 20.6255 58.4727 18.0757 58.4727 14.9439C58.4727 11.8119 56.4364 9.26325 53.4269 9.26325C50.4173 9.26325 48.1056 11.813 48.1056 14.945ZM102.507 8.42047C103.839 6.87481 105.726 5.92147 108.043 5.92147C112.821 5.92147 116.708 9.96839 116.708 14.9416C116.708 19.9148 112.821 23.9618 108.043 23.9618C105.727 23.9618 103.839 23.0095 102.507 21.4639V29.7788C102.507 29.8374 102.484 29.8937 102.444 29.9352C102.403 29.9767 102.348 30 102.29 30H99.513C99.4556 30 99.4004 29.9767 99.3597 29.9352C99.319 29.8937 99.2963 29.8374 99.2963 29.7788V6.62321C99.2963 6.50136 99.3925 6.40209 99.513 6.40209H102.289C102.41 6.40209 102.507 6.50136 102.507 6.62321V8.42161V8.42047ZM102.819 14.9416C102.819 18.0747 104.855 20.6234 107.865 20.6234C110.874 20.6234 113.186 18.0736 113.186 14.9416C113.186 11.8085 110.874 9.25986 107.866 9.25986C104.855 9.25986 102.819 11.8096 102.819 14.9416ZM85.5954 8.42273V6.62321C85.5954 6.50136 85.6917 6.40209 85.8111 6.40209H88.5885C88.709 6.40209 88.8052 6.50136 88.8052 6.62321V23.4631C88.8052 23.492 88.7997 23.5208 88.7887 23.5476C88.7778 23.5745 88.7618 23.5989 88.7418 23.6194C88.7217 23.6399 88.6978 23.6563 88.6715 23.6673C88.6451 23.6785 88.617 23.6841 88.5885 23.6841H85.8123C85.7837 23.6844 85.7554 23.6786 85.7289 23.6677C85.7026 23.6567 85.6786 23.6403 85.6582 23.6198C85.638 23.5992 85.6219 23.5748 85.611 23.5479C85.6001 23.521 85.5943 23.4922 85.5943 23.4631V21.4673C84.2626 23.0129 82.3758 23.9663 80.0586 23.9663C75.2804 23.9663 71.3937 19.9194 71.3937 14.9461C71.3937 9.97178 75.2804 5.92598 80.0586 5.92598C82.3747 5.92598 84.2616 6.87819 85.5943 8.42386L85.5954 8.42273ZM74.9153 14.9439C74.9153 18.077 77.2271 20.6255 80.2366 20.6255C83.2462 20.6255 85.2825 18.0757 85.2825 14.9439C85.2825 11.8119 83.2473 9.26325 80.2366 9.26325C77.2271 9.26325 74.9164 11.813 74.9164 14.945L74.9153 14.9439ZM132.657 6.6221V8.42273C131.326 6.87707 129.437 5.92484 127.121 5.92484C122.343 5.92484 118.456 9.97064 118.456 14.945C118.456 19.9181 122.343 23.965 127.121 23.965C129.437 23.965 131.326 23.0118 132.657 21.466V23.4631C132.657 23.5849 132.755 23.683 132.874 23.683H135.651C135.709 23.683 135.764 23.6598 135.805 23.6183C135.845 23.5768 135.868 23.5206 135.868 23.4619V6.62321C135.868 6.56457 135.845 6.50833 135.805 6.46685C135.764 6.42538 135.709 6.40209 135.651 6.40209H132.874C132.816 6.40209 132.761 6.42538 132.721 6.46685C132.68 6.50833 132.657 6.56457 132.657 6.62321V6.6221ZM127.299 20.6255C124.289 20.6255 121.978 18.077 121.978 14.945C121.978 11.8119 124.289 9.26325 127.299 9.26325C130.309 9.26325 132.345 11.8119 132.345 14.9439C132.345 18.077 130.309 20.6255 127.299 20.6255ZM152.21 0.305183V8.42273C150.878 6.87707 148.99 5.92484 146.675 5.92484C141.895 5.92484 138.009 9.97064 138.009 14.945C138.009 19.9181 141.895 23.964 146.675 23.964C148.99 23.964 150.878 23.0118 152.21 21.466V23.4619C152.21 23.5838 152.307 23.683 152.427 23.683H155.204C155.261 23.683 155.317 23.6598 155.357 23.6183C155.398 23.5768 155.421 23.5206 155.421 23.4619V0.305183C155.421 0.246536 155.398 0.19029 155.357 0.14882C155.317 0.10735 155.261 0.0840531 155.204 0.0840531H152.427C152.369 0.0840531 152.314 0.10735 152.273 0.14882C152.234 0.19029 152.21 0.246536 152.21 0.305183ZM146.852 20.6255C143.842 20.6255 141.531 18.077 141.531 14.945C141.531 11.8119 143.842 9.26325 146.852 9.26325C149.862 9.26325 151.898 11.8119 151.898 14.9439C151.898 18.077 149.862 20.6255 146.852 20.6255ZM65.6355 23.4563V6.6221C65.6355 6.50024 65.7328 6.40096 65.8524 6.40096H68.6296C68.7491 6.40096 68.8464 6.50024 68.8464 6.6221V23.4552C68.8464 23.5137 68.8236 23.57 68.7829 23.6115C68.7422 23.653 68.6871 23.6763 68.6296 23.6763H65.8524C65.7951 23.6763 65.74 23.6531 65.6994 23.6119C65.6588 23.5707 65.6359 23.5147 65.6355 23.4563Z" fill="#7C52FF"/>
</svg>
