<svg width="375" height="318" viewBox="0 0 375 318" fill="none" xmlns="http://www.w3.org/2000/svg">
<rect x="0.3125" width="375" height="318" fill="#F5F5F5"/>
<g opacity="0.05" clip-path="url(#clip0_523_30145)">
<line x1="1.8125" y1="1" x2="1.8125" y2="1201" stroke="#222222"/>
<line x1="31.8125" y1="1" x2="31.8125" y2="1201" stroke="#222222"/>
<line x1="61.8125" y1="1" x2="61.8125" y2="1201" stroke="#222222"/>
<line x1="91.8125" y1="1" x2="91.8125" y2="1201" stroke="#222222"/>
<line x1="121.812" y1="1" x2="121.812" y2="1201" stroke="#222222"/>
<line x1="151.812" y1="1" x2="151.812" y2="1201" stroke="#222222"/>
<line x1="181.812" y1="1" x2="181.812" y2="1201" stroke="#222222"/>
<line x1="211.812" y1="1" x2="211.812" y2="1201" stroke="#222222"/>
<line x1="241.812" y1="1" x2="241.812" y2="1201" stroke="#222222"/>
<line x1="271.812" y1="1" x2="271.812" y2="1201" stroke="#222222"/>
<line x1="301.812" y1="1" x2="301.812" y2="1201" stroke="#222222"/>
<line x1="331.812" y1="1" x2="331.812" y2="1201" stroke="#222222"/>
<line x1="361.812" y1="1" x2="361.812" y2="1201" stroke="#222222"/>
<line x1="1.3125" y1="0.5" x2="1601.31" y2="0.5" stroke="#222222"/>
<line x1="1.3125" y1="30.5" x2="1601.31" y2="30.5" stroke="#222222"/>
<line x1="1.3125" y1="60.5" x2="1601.31" y2="60.5" stroke="#222222"/>
<line x1="1.3125" y1="90.5" x2="1601.31" y2="90.5" stroke="#222222"/>
<line x1="1.3125" y1="120.5" x2="1601.31" y2="120.5" stroke="#222222"/>
<line x1="1.3125" y1="150.5" x2="1601.31" y2="150.5" stroke="#222222"/>
<line x1="1.3125" y1="180.5" x2="1601.31" y2="180.5" stroke="#222222"/>
<line x1="1.3125" y1="210.5" x2="1601.31" y2="210.5" stroke="#222222"/>
<line x1="1.3125" y1="240.5" x2="1601.31" y2="240.5" stroke="#222222"/>
<line x1="1.3125" y1="270.5" x2="1601.31" y2="270.5" stroke="#222222"/>
<line x1="1.3125" y1="300.5" x2="1601.31" y2="300.5" stroke="#222222"/>
</g>
<defs>
<clipPath id="clip0_523_30145">
<rect width="375" height="318" fill="white" transform="translate(0.3125)"/>
</clipPath>
</defs>
</svg>
