<svg width="24" height="24" viewBox="0 0 24 24" fill="none" xmlns="http://www.w3.org/2000/svg">
<path d="M2.66667 3.11112C2.66667 2.86566 2.86565 2.66667 3.11111 2.66667H20.8889C21.1344 2.66667 21.3333 2.86566 21.3333 3.11112V20.8889C21.3333 21.1344 21.1344 21.3333 20.8889 21.3333H3.11111C2.86565 21.3333 2.66667 21.1344 2.66667 20.8889V3.11112Z" fill="white"/>
<path fill-rule="evenodd" clip-rule="evenodd" d="M2.48889 3.11111C2.48889 2.76747 2.76747 2.48889 3.11111 2.48889H20.8889C21.2325 2.48889 21.5111 2.76747 21.5111 3.11111V20.8889C21.5111 21.2325 21.2325 21.5111 20.8889 21.5111H3.11111C2.76747 21.5111 2.48889 21.2325 2.48889 20.8889V3.11111ZM3.11111 2.84445C2.96384 2.84445 2.84445 2.96384 2.84445 3.11111V20.8889C2.84445 21.0362 2.96384 21.1556 3.11111 21.1556H20.8889C21.0362 21.1556 21.1556 21.0362 21.1556 20.8889V3.11111C21.1556 2.96384 21.0362 2.84445 20.8889 2.84445H3.11111Z" fill="#222222"/>
<path d="M2.66667 3.11112C2.66667 2.86566 2.86565 2.66667 3.11111 2.66667H20.8889C21.1344 2.66667 21.3333 2.86566 21.3333 3.11112V4.44445H2.66667V3.11112Z" fill="url(#paint0_linear_1990_330)"/>
<path fill-rule="evenodd" clip-rule="evenodd" d="M2.48889 3.11111C2.48889 2.76747 2.76747 2.48889 3.11111 2.48889H20.8889C21.2325 2.48889 21.5111 2.76747 21.5111 3.11111V4.44445C21.5111 4.54263 21.4315 4.62222 21.3333 4.62222H2.66667C2.56849 4.62222 2.48889 4.54263 2.48889 4.44445V3.11111ZM3.11111 2.84445C2.96384 2.84445 2.84445 2.96384 2.84445 3.11111V4.26667H21.1556V3.11111C21.1556 2.96384 21.0362 2.84445 20.8889 2.84445H3.11111Z" fill="#222222"/>
<path d="M19.7655 20.355C19.7584 20.3796 19.7438 20.4014 19.7238 20.4174C19.7038 20.4334 19.6793 20.4428 19.6537 20.4442C19.6281 20.4457 19.6027 20.4392 19.581 20.4256C19.5592 20.412 19.5423 20.392 19.5324 20.3683L17.4316 15.282C17.4223 15.2594 17.4198 15.2346 17.4246 15.2106C17.4294 15.1866 17.4412 15.1646 17.4585 15.1473C17.4757 15.1301 17.4978 15.1183 17.5217 15.1135C17.5457 15.1087 17.5705 15.1112 17.5931 15.1205L22.6794 17.2213C22.7031 17.2312 22.7231 17.2481 22.7367 17.2698C22.7503 17.2916 22.7568 17.317 22.7554 17.3426C22.7539 17.3681 22.7445 17.3926 22.7285 17.4127C22.7125 17.4327 22.6907 17.4473 22.6661 17.4543L20.4762 18.0805C20.456 18.0863 20.4376 18.0971 20.4228 18.1119C20.408 18.1268 20.3971 18.1452 20.3914 18.1653L19.7655 20.355Z" fill="#C9E4EA"/>
<path fill-rule="evenodd" clip-rule="evenodd" d="M17.6456 15.3345L19.6373 20.1565L20.2204 18.1164C20.2345 18.0672 20.2609 18.0224 20.2971 17.9862C20.3333 17.95 20.3781 17.9237 20.4273 17.9096L22.4677 17.3262L17.6456 15.3345ZM17.4869 14.9392C17.5454 14.9275 17.6059 14.9334 17.661 14.9562L22.7478 17.0572C22.8055 17.0812 22.8543 17.1226 22.8874 17.1755C22.9205 17.2285 22.9364 17.2904 22.9328 17.3527C22.9293 17.4151 22.9064 17.4748 22.8674 17.5236C22.8285 17.5724 22.7753 17.6079 22.7153 17.6252L20.554 18.2431L19.9363 20.4042C19.919 20.4642 19.8835 20.5174 19.8347 20.5563C19.7859 20.5953 19.7262 20.6182 19.6638 20.6217C19.6015 20.6253 19.5396 20.6094 19.4866 20.5763C19.4337 20.5431 19.3923 20.4944 19.3683 20.4367L19.3681 20.4362L17.2673 15.3499C17.2445 15.2948 17.2386 15.2343 17.2503 15.1758C17.2619 15.1174 17.2906 15.0638 17.3327 15.0216C17.3749 14.9795 17.4285 14.9508 17.4869 14.9392Z" fill="#222222"/>
<path d="M12.4556 12.3761L13.8222 6.22222L8.35556 13.4017H11.5444L10.1778 19.5556L15.6444 12.3761H12.4556Z" fill="url(#paint1_linear_1990_330)"/>
<path fill-rule="evenodd" clip-rule="evenodd" d="M13.8971 6.06098C13.9728 6.09614 14.0139 6.17926 13.9958 6.26077L12.6771 12.1983H15.6444C15.712 12.1983 15.7737 12.2366 15.8037 12.2971C15.8337 12.3577 15.8268 12.43 15.7859 12.4838L10.3192 19.6633C10.2686 19.7297 10.1786 19.752 10.1029 19.7168C10.0272 19.6816 9.98613 19.5985 10.0042 19.517L11.3229 13.5795H8.35556C8.28799 13.5795 8.22626 13.5412 8.19626 13.4806C8.16626 13.4201 8.17318 13.3478 8.21412 13.294L13.6808 6.11453C13.7314 6.0481 13.8214 6.02582 13.8971 6.06098ZM8.71437 13.2239H11.5444C11.5984 13.2239 11.6494 13.2484 11.6831 13.2905C11.7169 13.3325 11.7297 13.3876 11.718 13.4403L10.5269 18.8036L15.2856 12.5538H12.4556C12.4016 12.5538 12.3506 12.5294 12.3169 12.4873C12.2832 12.4453 12.2703 12.3902 12.282 12.3375L13.4731 6.97417L8.71437 13.2239Z" fill="#222222"/>
<path fill-rule="evenodd" clip-rule="evenodd" d="M6.13333 15.8222C6.23152 15.8222 6.31111 15.9018 6.31111 16V16.6667C6.31111 16.7648 6.23152 16.8444 6.13333 16.8444C6.03515 16.8444 5.95556 16.7648 5.95556 16.6667V16C5.95556 15.9018 6.03515 15.8222 6.13333 15.8222ZM4.62222 17.3333C4.62222 17.2351 4.70182 17.1556 4.8 17.1556H5.46667C5.56485 17.1556 5.64445 17.2351 5.64445 17.3333C5.64445 17.4315 5.56485 17.5111 5.46667 17.5111H4.8C4.70182 17.5111 4.62222 17.4315 4.62222 17.3333ZM6.62222 17.3333C6.62222 17.2351 6.70182 17.1556 6.8 17.1556H7.46667C7.56485 17.1556 7.64444 17.2351 7.64444 17.3333C7.64444 17.4315 7.56485 17.5111 7.46667 17.5111H6.8C6.70182 17.5111 6.62222 17.4315 6.62222 17.3333ZM6.13333 17.8222C6.23152 17.8222 6.31111 17.9018 6.31111 18V18.6667C6.31111 18.7648 6.23152 18.8444 6.13333 18.8444C6.03515 18.8444 5.95556 18.7648 5.95556 18.6667V18C5.95556 17.9018 6.03515 17.8222 6.13333 17.8222Z" fill="#222222"/>
<path fill-rule="evenodd" clip-rule="evenodd" d="M18.4889 9.15556C18.5871 9.15556 18.6667 9.23515 18.6667 9.33333V10C18.6667 10.0982 18.5871 10.1778 18.4889 10.1778C18.3907 10.1778 18.3111 10.0982 18.3111 10V9.33333C18.3111 9.23515 18.3907 9.15556 18.4889 9.15556ZM16.9778 10.6667C16.9778 10.5685 17.0574 10.4889 17.1556 10.4889H17.8222C17.9204 10.4889 18 10.5685 18 10.6667C18 10.7649 17.9204 10.8444 17.8222 10.8444H17.1556C17.0574 10.8444 16.9778 10.7649 16.9778 10.6667ZM18.9778 10.6667C18.9778 10.5685 19.0574 10.4889 19.1556 10.4889H19.8222C19.9204 10.4889 20 10.5685 20 10.6667C20 10.7649 19.9204 10.8444 19.8222 10.8444H19.1556C19.0574 10.8444 18.9778 10.7649 18.9778 10.6667ZM18.4889 11.1556C18.5871 11.1556 18.6667 11.2351 18.6667 11.3333V12C18.6667 12.0982 18.5871 12.1778 18.4889 12.1778C18.3907 12.1778 18.3111 12.0982 18.3111 12V11.3333C18.3111 11.2351 18.3907 11.1556 18.4889 11.1556Z" fill="#222222"/>
<path fill-rule="evenodd" clip-rule="evenodd" d="M9.86667 6.59041C9.86667 6.68859 9.78707 6.76819 9.68889 6.76819L9.24445 6.76819C9.14626 6.76819 9.06667 6.68859 9.06667 6.59041C9.06667 6.49223 9.14626 6.41263 9.24445 6.41263L9.68889 6.41263C9.78707 6.41263 9.86667 6.49223 9.86667 6.59041ZM8.8 5.52374C8.89819 5.52374 8.97778 5.60334 8.97778 5.70152L8.97778 6.14596C8.97778 6.24415 8.89819 6.32374 8.8 6.32374C8.70182 6.32374 8.62222 6.24415 8.62222 6.14596L8.62222 5.70152C8.62222 5.60334 8.70182 5.52374 8.8 5.52374ZM8.8 6.85708C8.89819 6.85708 8.97778 6.93667 8.97778 7.03485L8.97778 7.4793C8.97778 7.57748 8.89819 7.65708 8.8 7.65708C8.70182 7.65708 8.62222 7.57748 8.62222 7.4793L8.62222 7.03485C8.62222 6.93667 8.70182 6.85708 8.8 6.85708ZM8.53334 6.59041C8.53334 6.68859 8.45374 6.76819 8.35556 6.76819L7.91111 6.76819C7.81293 6.76819 7.73333 6.68859 7.73333 6.59041C7.73333 6.49223 7.81293 6.41263 7.91111 6.41263L8.35556 6.41263C8.45374 6.41263 8.53334 6.49223 8.53334 6.59041Z" fill="#222222"/>
<defs>
<linearGradient id="paint0_linear_1990_330" x1="21.3333" y1="3.55556" x2="2.66667" y2="3.55556" gradientUnits="userSpaceOnUse">
<stop stop-color="#A1FF8B"/>
<stop offset="1" stop-color="#3F93FF"/>
</linearGradient>
<linearGradient id="paint1_linear_1990_330" x1="15.6444" y1="12.8889" x2="8.35556" y2="12.8889" gradientUnits="userSpaceOnUse">
<stop stop-color="#A1FF8B"/>
<stop offset="1" stop-color="#3F93FF"/>
</linearGradient>
</defs>
</svg>
