<svg width="24" height="24" viewBox="0 0 24 24" fill="none" xmlns="http://www.w3.org/2000/svg">
<path d="M6.22222 3.11112C6.22222 2.86566 6.42121 2.66667 6.66667 2.66667H20.8889C21.1343 2.66667 21.3333 2.86566 21.3333 3.11112V20.8889C21.3333 21.1344 21.1343 21.3333 20.8889 21.3333H6.66667C6.42121 21.3333 6.22222 21.1344 6.22222 20.8889V3.11112Z" fill="white"/>
<path fill-rule="evenodd" clip-rule="evenodd" d="M6.04444 3.11111C6.04444 2.76747 6.32302 2.48889 6.66666 2.48889H20.8889C21.2325 2.48889 21.5111 2.76747 21.5111 3.11111V20.8889C21.5111 21.2325 21.2325 21.5111 20.8889 21.5111H6.66666C6.32302 21.5111 6.04444 21.2325 6.04444 20.8889V3.11111ZM6.66666 2.84445C6.51939 2.84445 6.4 2.96384 6.4 3.11111V20.8889C6.4 21.0362 6.51939 21.1556 6.66666 21.1556H20.8889C21.0362 21.1556 21.1556 21.0362 21.1556 20.8889V3.11111C21.1556 2.96384 21.0362 2.84445 20.8889 2.84445H6.66666Z" fill="#222222"/>
<path fill-rule="evenodd" clip-rule="evenodd" d="M8 4.62222C8 4.52404 8.07959 4.44444 8.17777 4.44444H11.3778C11.476 4.44444 11.5556 4.52404 11.5556 4.62222C11.5556 4.7204 11.476 4.8 11.3778 4.8H8.17777C8.07959 4.8 8 4.7204 8 4.62222Z" fill="#222222"/>
<path fill-rule="evenodd" clip-rule="evenodd" d="M8 6.40001C8 6.30182 8.07959 6.22223 8.17777 6.22223H11.3778C11.476 6.22223 11.5556 6.30182 11.5556 6.40001C11.5556 6.49819 11.476 6.57778 11.3778 6.57778H8.17777C8.07959 6.57778 8 6.49819 8 6.40001Z" fill="#222222"/>
<path d="M20.2704 9.09873C20.0678 9.72236 19.6967 10.2778 19.198 10.7037C18.6994 11.1295 18.0927 11.4092 17.4451 11.5118C16.7974 11.6144 16.134 11.5358 15.5282 11.2849C14.9224 11.034 14.3978 10.6204 14.0124 10.0899C13.627 9.55941 13.3957 8.93267 13.3443 8.27896C13.2928 7.62526 13.4232 6.97006 13.7209 6.38581C14.0186 5.80156 14.472 5.311 15.0311 4.96839C15.5902 4.62577 16.2332 4.44444 16.8889 4.44444V8L20.2704 9.09873Z" fill="#C9E4EA"/>
<path fill-rule="evenodd" clip-rule="evenodd" d="M16.7111 4.6269C16.1502 4.65646 15.6045 4.82551 15.124 5.11997C14.5929 5.44545 14.1621 5.91148 13.8793 6.46652C13.5965 7.02156 13.4726 7.644 13.5215 8.26501C13.5704 8.88603 13.7901 9.48144 14.1562 9.9854C14.5224 10.4894 15.0207 10.8823 15.5963 11.1207C16.1718 11.359 16.802 11.4336 17.4173 11.3362C18.0326 11.2387 18.6089 10.973 19.0826 10.5685C19.5111 10.2025 19.8405 9.73573 20.042 9.21142L16.834 8.16907C16.7607 8.14527 16.7111 8.07701 16.7111 8V4.6269ZM14.9382 4.81681C15.5253 4.45706 16.2004 4.26666 16.8889 4.26666C16.936 4.26666 16.9813 4.28539 17.0146 4.31873C17.0479 4.35207 17.0667 4.39729 17.0667 4.44444V7.87083L20.3254 8.92965C20.3702 8.94422 20.4074 8.976 20.4288 9.01801C20.4502 9.06002 20.4541 9.10882 20.4395 9.15366C20.2267 9.80847 19.837 10.3917 19.3135 10.8388C18.7899 11.286 18.1529 11.5797 17.4729 11.6874C16.7929 11.7951 16.0963 11.7126 15.4602 11.4491C14.8241 11.1857 14.2733 10.7514 13.8686 10.1944C13.4639 9.63738 13.2211 8.9793 13.1671 8.29291C13.113 7.60652 13.2499 6.91856 13.5625 6.3051C13.875 5.69163 14.3512 5.17655 14.9382 4.81681Z" fill="#222222"/>
<path d="M19.7654 5.9101C20.0952 6.36404 20.3129 6.88959 20.4007 7.44379C20.4884 7.99798 20.4438 8.56508 20.2704 9.09872L16.8889 8L19.7654 5.9101Z" fill="#C9E4EA"/>
<path fill-rule="evenodd" clip-rule="evenodd" d="M19.6609 5.76626C19.7403 5.70855 19.8515 5.72616 19.9092 5.8056C20.2555 6.28223 20.4841 6.83407 20.5763 7.41597C20.6684 7.99788 20.6216 8.59333 20.4395 9.15366C20.4249 9.1985 20.3931 9.23571 20.3511 9.25712C20.3091 9.27853 20.2603 9.28237 20.2155 9.2678L16.834 8.16907C16.7704 8.14841 16.7238 8.09383 16.7133 8.0278C16.7028 7.96177 16.7303 7.89546 16.7844 7.85617L19.6609 5.76626ZM17.2757 7.93873L20.1518 8.87326C20.274 8.41696 20.2992 7.93944 20.2251 7.47159C20.151 7.00375 19.9794 6.55739 19.7223 6.16116L17.2757 7.93873Z" fill="#222222"/>
<path d="M16.8889 4.44444C17.45 4.44444 18.0031 4.57724 18.5031 4.83198C19.003 5.08671 19.4356 5.45615 19.7654 5.91009L16.8889 8V4.44444Z" fill="white"/>
<path fill-rule="evenodd" clip-rule="evenodd" d="M16.7632 4.31873C16.7965 4.28539 16.8417 4.26666 16.8889 4.26666C17.478 4.26666 18.0588 4.4061 18.5838 4.67357C19.1087 4.94104 19.5629 5.32896 19.9092 5.8056C19.9369 5.84374 19.9484 5.89133 19.941 5.9379C19.9336 5.98447 19.908 6.0262 19.8699 6.05392L16.9934 8.14382C16.9393 8.18311 16.8677 8.18875 16.8082 8.1584C16.7486 8.12805 16.7111 8.06685 16.7111 8V4.44444C16.7111 4.39729 16.7298 4.35207 16.7632 4.31873ZM17.0667 4.6269V7.65109L19.5133 5.87351C19.2159 5.50651 18.8444 5.20542 18.4224 4.99037C18.0003 4.77533 17.5384 4.65176 17.0667 4.6269Z" fill="#222222"/>
<path d="M10.6667 15.1111C10.6667 17.5657 8.67682 19.5555 6.22222 19.5555C3.76762 19.5555 1.77778 17.5657 1.77778 15.1111C1.77778 12.6565 3.76762 10.6667 6.22222 10.6667C8.67682 10.6667 10.6667 12.6565 10.6667 15.1111Z" fill="url(#paint0_linear_1990_237)"/>
<path fill-rule="evenodd" clip-rule="evenodd" d="M6.22222 10.8444C3.86581 10.8444 1.95555 12.7547 1.95555 15.1111C1.95555 17.4675 3.86581 19.3778 6.22222 19.3778C8.57864 19.3778 10.4889 17.4675 10.4889 15.1111C10.4889 12.7547 8.57864 10.8444 6.22222 10.8444ZM1.6 15.1111C1.6 12.5583 3.66944 10.4889 6.22222 10.4889C8.775 10.4889 10.8444 12.5583 10.8444 15.1111C10.8444 17.6639 8.775 19.7333 6.22222 19.7333C3.66944 19.7333 1.6 17.6639 1.6 15.1111Z" fill="#222222"/>
<path fill-rule="evenodd" clip-rule="evenodd" d="M6.22224 11.8564C6.32042 11.8564 6.40002 11.936 6.40002 12.0342V13.2033H7.85567C7.95385 13.2033 8.03345 13.2829 8.03345 13.3811C8.03345 13.4793 7.95385 13.5589 7.85567 13.5589H6.40002V14.8541H7.03028C7.58431 14.8541 8.03345 15.3032 8.03345 15.8572C8.03345 16.4113 7.58431 16.8604 7.03028 16.8604H6.40002V18.188C6.40002 18.2862 6.32042 18.3658 6.22224 18.3658C6.12406 18.3658 6.04446 18.2862 6.04446 18.188V16.8604H4.58881C4.49063 16.8604 4.41103 16.7808 4.41103 16.6826C4.41103 16.5845 4.49063 16.5049 4.58881 16.5049H6.04446V15.2096H5.4142C4.86017 15.2096 4.41103 14.7605 4.41103 14.2065C4.41103 13.6524 4.86017 13.2033 5.4142 13.2033H6.04446V12.0342C6.04446 11.936 6.12406 11.8564 6.22224 11.8564ZM6.04446 13.5589H5.4142C5.05654 13.5589 4.76659 13.8488 4.76659 14.2065C4.76659 14.5641 5.05654 14.8541 5.4142 14.8541H6.04446V13.5589ZM6.40002 15.2096V16.5049H7.03028C7.38794 16.5049 7.67789 16.2149 7.67789 15.8572C7.67789 15.4996 7.38794 15.2096 7.03028 15.2096H6.40002Z" fill="#222222"/>
<path d="M17.7778 16.8889H19.5556V21.3333H17.7778V16.8889Z" fill="#C9E4EA"/>
<path fill-rule="evenodd" clip-rule="evenodd" d="M17.6 16.8889C17.6 16.7907 17.6796 16.7111 17.7778 16.7111H19.5556C19.6537 16.7111 19.7333 16.7907 19.7333 16.8889V21.3333C19.7333 21.4315 19.6537 21.5111 19.5556 21.5111H17.7778C17.6796 21.5111 17.6 21.4315 17.6 21.3333V16.8889ZM17.9556 17.0667V21.1556H19.3778V17.0667H17.9556Z" fill="#222222"/>
<path d="M12.4444 19.5556H14.2222V21.3333H12.4444V19.5556Z" fill="#C9E4EA"/>
<path fill-rule="evenodd" clip-rule="evenodd" d="M12.2667 19.5556C12.2667 19.4574 12.3463 19.3778 12.4444 19.3778H14.2222C14.3204 19.3778 14.4 19.4574 14.4 19.5556V21.3333C14.4 21.4315 14.3204 21.5111 14.2222 21.5111H12.4444C12.3463 21.5111 12.2667 21.4315 12.2667 21.3333V19.5556ZM12.6222 19.7333V21.1556H14.0444V19.7333H12.6222Z" fill="#222222"/>
<path d="M15.1111 14.2222H16.8889V21.3333H15.1111V14.2222Z" fill="#C9E4EA"/>
<path fill-rule="evenodd" clip-rule="evenodd" d="M14.9333 14.2222C14.9333 14.124 15.0129 14.0444 15.1111 14.0444H16.8889C16.9871 14.0444 17.0667 14.124 17.0667 14.2222V21.3333C17.0667 21.4315 16.9871 21.5111 16.8889 21.5111H15.1111C15.0129 21.5111 14.9333 21.4315 14.9333 21.3333V14.2222ZM15.2889 14.4V21.1556H16.7111V14.4H15.2889Z" fill="#222222"/>
<defs>
<linearGradient id="paint0_linear_1990_237" x1="10.6667" y1="10.6667" x2="1.77778" y2="19.5555" gradientUnits="userSpaceOnUse">
<stop stop-color="#A1FF8B"/>
<stop offset="1" stop-color="#3F93FF"/>
</linearGradient>
</defs>
</svg>
