<svg width="24" height="24" viewBox="0 0 24 24" fill="none" xmlns="http://www.w3.org/2000/svg">
<path d="M2.66666 4.44445C2.66666 3.46261 3.4626 2.66667 4.44444 2.66667H19.5556C20.5374 2.66667 21.3333 3.46261 21.3333 4.44445C21.3333 5.42629 20.5374 6.22222 19.5556 6.22222H4.44444C3.4626 6.22222 2.66666 5.42629 2.66666 4.44445Z" fill="#C9E4EA"/>
<path fill-rule="evenodd" clip-rule="evenodd" d="M2.48889 4.44445C2.48889 3.36442 3.36442 2.48889 4.44444 2.48889H19.5556C20.6356 2.48889 21.5111 3.36442 21.5111 4.44445C21.5111 5.52447 20.6356 6.4 19.5556 6.4H4.44444C3.36442 6.4 2.48889 5.52447 2.48889 4.44445ZM4.44444 2.84445C3.56079 2.84445 2.84444 3.56079 2.84444 4.44445C2.84444 5.3281 3.56079 6.04445 4.44444 6.04445H19.5556C20.4392 6.04445 21.1556 5.3281 21.1556 4.44445C21.1556 3.56079 20.4392 2.84445 19.5556 2.84445H4.44444Z" fill="#222222"/>
<path d="M2.66666 9.51112C2.66666 8.52928 3.4626 7.73334 4.44444 7.73334H19.5556C20.5374 7.73334 21.3333 8.52928 21.3333 9.51112C21.3333 10.493 20.5374 11.2889 19.5556 11.2889H4.44444C3.4626 11.2889 2.66666 10.493 2.66666 9.51112Z" fill="url(#paint0_linear_1990_442)"/>
<path fill-rule="evenodd" clip-rule="evenodd" d="M2.48889 9.51111C2.48889 8.43109 3.36442 7.55556 4.44444 7.55556H19.5556C20.6356 7.55556 21.5111 8.43109 21.5111 9.51111C21.5111 10.5911 20.6356 11.4667 19.5556 11.4667H4.44444C3.36442 11.4667 2.48889 10.5911 2.48889 9.51111ZM4.44444 7.91111C3.56079 7.91111 2.84444 8.62746 2.84444 9.51111C2.84444 10.3948 3.56079 11.1111 4.44444 11.1111H19.5556C20.4392 11.1111 21.1556 10.3948 21.1556 9.51111C21.1556 8.62746 20.4392 7.91111 19.5556 7.91111H4.44444Z" fill="#222222"/>
<path d="M21.3333 19.6444C21.3333 20.6263 20.5374 21.4222 19.5556 21.4222L4.44445 21.4222C3.46261 21.4222 2.66667 20.6263 2.66667 19.6444C2.66667 18.6626 3.46261 17.8667 4.44445 17.8667L19.5556 17.8667C20.5374 17.8667 21.3333 18.6626 21.3333 19.6444Z" fill="url(#paint1_linear_1990_442)"/>
<path fill-rule="evenodd" clip-rule="evenodd" d="M21.5111 19.6444C21.5111 20.7245 20.6356 21.6 19.5556 21.6L4.44444 21.6C3.36442 21.6 2.48889 20.7245 2.48889 19.6444C2.48889 18.5644 3.36442 17.6889 4.44444 17.6889L19.5556 17.6889C20.6356 17.6889 21.5111 18.5644 21.5111 19.6444ZM19.5556 21.2444C20.4392 21.2444 21.1556 20.5281 21.1556 19.6444C21.1556 18.7608 20.4392 18.0444 19.5556 18.0444L4.44444 18.0444C3.56079 18.0444 2.84444 18.7608 2.84444 19.6444C2.84444 20.5281 3.56079 21.2444 4.44444 21.2444L19.5556 21.2444Z" fill="#222222"/>
<path d="M2.66666 14.5778C2.66666 13.5959 3.4626 12.8 4.44444 12.8H19.5556C20.5374 12.8 21.3333 13.5959 21.3333 14.5778C21.3333 15.5596 20.5374 16.3556 19.5556 16.3556H4.44444C3.4626 16.3556 2.66666 15.5596 2.66666 14.5778Z" fill="#C9E4EA"/>
<path fill-rule="evenodd" clip-rule="evenodd" d="M2.48889 14.5778C2.48889 13.4978 3.36442 12.6222 4.44444 12.6222H19.5556C20.6356 12.6222 21.5111 13.4978 21.5111 14.5778C21.5111 15.6578 20.6356 16.5333 19.5556 16.5333H4.44444C3.36442 16.5333 2.48889 15.6578 2.48889 14.5778ZM4.44444 12.9778C3.56079 12.9778 2.84444 13.6941 2.84444 14.5778C2.84444 15.4614 3.56079 16.1778 4.44444 16.1778H19.5556C20.4392 16.1778 21.1556 15.4614 21.1556 14.5778C21.1556 13.6941 20.4392 12.9778 19.5556 12.9778H4.44444Z" fill="#222222"/>
<path d="M21.3333 19.6444C21.3333 20.6263 20.5374 21.4222 19.5556 21.4222L4.44445 21.4222C3.46261 21.4222 2.66667 20.6263 2.66667 19.6444C2.66667 18.6626 3.46261 17.8667 4.44445 17.8667L19.5556 17.8667C20.5374 17.8667 21.3333 18.6626 21.3333 19.6444Z" fill="#C9E4EA"/>
<path fill-rule="evenodd" clip-rule="evenodd" d="M21.5111 19.6444C21.5111 20.7245 20.6356 21.6 19.5556 21.6L4.44444 21.6C3.36442 21.6 2.48889 20.7245 2.48889 19.6444C2.48889 18.5644 3.36442 17.6889 4.44444 17.6889L19.5556 17.6889C20.6356 17.6889 21.5111 18.5644 21.5111 19.6444ZM19.5556 21.2444C20.4392 21.2444 21.1556 20.5281 21.1556 19.6444C21.1556 18.7608 20.4392 18.0444 19.5556 18.0444L4.44444 18.0444C3.56079 18.0444 2.84444 18.7608 2.84444 19.6444C2.84444 20.5281 3.56079 21.2444 4.44444 21.2444L19.5556 21.2444Z" fill="#222222"/>
<path d="M2.66666 4.44445C2.66666 3.46261 3.4626 2.66667 4.44444 2.66667C5.42628 2.66667 6.22222 3.46261 6.22222 4.44445C6.22222 5.42629 5.42628 6.22222 4.44444 6.22222C3.4626 6.22222 2.66666 5.42629 2.66666 4.44445Z" fill="white"/>
<path fill-rule="evenodd" clip-rule="evenodd" d="M2.48889 4.44445C2.48889 3.36442 3.36442 2.48889 4.44444 2.48889C5.52447 2.48889 6.4 3.36442 6.4 4.44445C6.4 5.52447 5.52447 6.4 4.44444 6.4C3.36442 6.4 2.48889 5.52447 2.48889 4.44445ZM4.44444 2.84445C3.56079 2.84445 2.84444 3.56079 2.84444 4.44445C2.84444 5.3281 3.56079 6.04445 4.44444 6.04445C5.3281 6.04445 6.04444 5.3281 6.04444 4.44445C6.04444 3.56079 5.3281 2.84445 4.44444 2.84445Z" fill="#222222"/>
<path d="M2.66666 14.5778C2.66666 13.5959 3.4626 12.8 4.44444 12.8C5.42628 12.8 6.22222 13.5959 6.22222 14.5778C6.22222 15.5596 5.42628 16.3556 4.44444 16.3556C3.4626 16.3556 2.66666 15.5596 2.66666 14.5778Z" fill="white"/>
<path fill-rule="evenodd" clip-rule="evenodd" d="M2.48889 14.5778C2.48889 13.4978 3.36442 12.6222 4.44444 12.6222C5.52447 12.6222 6.4 13.4978 6.4 14.5778C6.4 15.6578 5.52447 16.5333 4.44444 16.5333C3.36442 16.5333 2.48889 15.6578 2.48889 14.5778ZM4.44444 12.9778C3.56079 12.9778 2.84444 13.6941 2.84444 14.5778C2.84444 15.4614 3.56079 16.1778 4.44444 16.1778C5.3281 16.1778 6.04444 15.4614 6.04444 14.5778C6.04444 13.6941 5.3281 12.9778 4.44444 12.9778Z" fill="#222222"/>
<path d="M2.66666 19.6444C2.66666 18.6626 3.4626 17.8667 4.44444 17.8667C5.42628 17.8667 6.22222 18.6626 6.22222 19.6444C6.22222 20.6263 5.42628 21.4222 4.44444 21.4222C3.4626 21.4222 2.66666 20.6263 2.66666 19.6444Z" fill="white"/>
<path fill-rule="evenodd" clip-rule="evenodd" d="M2.48889 19.6444C2.48889 18.5644 3.36442 17.6889 4.44444 17.6889C5.52447 17.6889 6.4 18.5644 6.4 19.6444C6.4 20.7245 5.52447 21.6 4.44444 21.6C3.36442 21.6 2.48889 20.7245 2.48889 19.6444ZM4.44444 18.0444C3.56079 18.0444 2.84444 18.7608 2.84444 19.6444C2.84444 20.5281 3.56079 21.2444 4.44444 21.2444C5.3281 21.2444 6.04444 20.5281 6.04444 19.6444C6.04444 18.7608 5.3281 18.0444 4.44444 18.0444Z" fill="#222222"/>
<path d="M17.7778 9.51112C17.7778 8.52928 18.5737 7.73334 19.5556 7.73334C20.5374 7.73334 21.3333 8.52928 21.3333 9.51112C21.3333 10.493 20.5374 11.2889 19.5556 11.2889C18.5737 11.2889 17.7778 10.493 17.7778 9.51112Z" fill="white"/>
<path fill-rule="evenodd" clip-rule="evenodd" d="M17.6 9.51111C17.6 8.43109 18.4755 7.55556 19.5556 7.55556C20.6356 7.55556 21.5111 8.43109 21.5111 9.51111C21.5111 10.5911 20.6356 11.4667 19.5556 11.4667C18.4755 11.4667 17.6 10.5911 17.6 9.51111ZM19.5556 7.91111C18.6719 7.91111 17.9556 8.62746 17.9556 9.51111C17.9556 10.3948 18.6719 11.1111 19.5556 11.1111C20.4392 11.1111 21.1556 10.3948 21.1556 9.51111C21.1556 8.62746 20.4392 7.91111 19.5556 7.91111Z" fill="#222222"/>
<defs>
<linearGradient id="paint0_linear_1990_442" x1="21.3333" y1="9.51112" x2="2.66666" y2="9.51111" gradientUnits="userSpaceOnUse">
<stop stop-color="#A1FF8B"/>
<stop offset="1" stop-color="#3F93FF"/>
</linearGradient>
<linearGradient id="paint1_linear_1990_442" x1="2.66667" y1="19.6444" x2="21.3333" y2="19.6445" gradientUnits="userSpaceOnUse">
<stop stop-color="#A1FF8B"/>
<stop offset="1" stop-color="#3F93FF"/>
</linearGradient>
</defs>
</svg>
