<svg width="24" height="25" viewBox="0 0 24 25" fill="none" xmlns="http://www.w3.org/2000/svg">
<g clip-path="url(#clip0_913_9164)">
<mask id="mask0_913_9164" style="mask-type:luminance" maskUnits="userSpaceOnUse" x="0" y="0" width="24" height="25">
<path d="M23.991 0.5H0V24.5555H23.991V0.5Z" fill="white"/>
</mask>
<g mask="url(#mask0_913_9164)">
<path d="M7.95138 6.45361C3.6278 6.45361 0.121826 7.66257 0.121826 9.15451V9.3354C0.121826 10.0374 0.898245 10.6786 2.17347 11.1595C3.60451 11.6977 5.66511 12.038 7.95138 12.038C10.2376 12.038 12.2956 11.6977 13.7293 11.1595H13.7311C15.0063 10.6786 15.7827 10.0366 15.7827 9.3354V9.15451C15.7827 7.66167 12.2768 6.45361 7.95138 6.45361Z" fill="url(#paint0_linear_913_9164)"/>
<path d="M7.95134 24.5555C3.49254 24.5555 0 23.3152 0 21.7328V17.7666C0 17.6994 0.0546269 17.6448 0.121791 17.6448C0.188955 17.6448 0.243582 17.6994 0.243582 17.7666C0.243582 18.3648 0.898209 18.954 2.08836 19.4278C2.09194 19.4287 2.09552 19.4296 2.09821 19.4313C3.57313 20.0125 5.70627 20.3457 7.95045 20.3457C10.1946 20.3457 12.3278 20.0125 13.8045 19.4313C13.8081 19.4296 13.8116 19.4287 13.8152 19.4278C15.0045 18.954 15.6591 18.3639 15.6591 17.7666C15.6591 17.6994 15.7137 17.6448 15.7809 17.6448C15.8481 17.6448 15.9027 17.6994 15.9027 17.7666V21.7328C15.9027 23.3152 12.4093 24.5555 7.94955 24.5555H7.95134ZM0.243582 18.4812V21.7328C0.243582 23.1307 3.77284 24.3119 7.95134 24.3119C12.1299 24.3119 15.6609 23.1307 15.6609 21.7328V18.4812C15.3537 18.9173 14.7582 19.3167 13.8967 19.6579C13.8931 19.6597 13.8887 19.6606 13.8851 19.6615C12.3815 20.2507 10.2197 20.5884 7.95134 20.5884C5.68299 20.5884 3.5203 20.2507 2.01851 19.6606C2.01493 19.6597 2.01134 19.6579 2.00776 19.657C1.14627 19.3149 0.551642 18.9164 0.243582 18.4803V18.4812Z" fill="#222222"/>
<path d="M7.95134 12.1598C5.74836 12.1598 3.62687 11.8366 2.13045 11.2742C0.756716 10.7557 0 10.067 0 9.33537V9.15447C0 7.57209 3.49254 6.33179 7.95134 6.33179C12.4101 6.33179 15.9045 7.57119 15.9045 9.15447V9.33537C15.9045 10.067 15.1478 10.7557 13.774 11.2742C13.7704 11.276 13.7669 11.2769 13.7633 11.2777C12.2642 11.8383 10.1463 12.1598 7.95134 12.1598ZM7.95134 6.57537C3.77373 6.57537 0.243582 7.75656 0.243582 9.15447V9.33537C0.243582 9.95864 0.943881 10.5658 2.21642 11.0458C3.68597 11.5992 5.77701 11.9163 7.95134 11.9163C10.1257 11.9163 12.2131 11.5992 13.6863 11.0458C13.6899 11.0449 13.6934 11.0431 13.697 11.0422C14.9633 10.5631 15.66 9.95685 15.66 9.33537V9.15447C15.66 7.75656 12.1299 6.57537 7.95045 6.57537H7.95134Z" fill="#222222"/>
<path d="M7.95134 20.5893C5.68209 20.5893 3.5203 20.2517 2.01851 19.6615C2.01493 19.6606 2.01134 19.6589 2.00776 19.658C0.69403 19.1368 0 18.483 0 17.7666V13.5559C0 13.4887 0.0546269 13.4341 0.121791 13.4341C0.188955 13.4341 0.243582 13.4887 0.243582 13.5559C0.243582 14.1729 0.93403 14.7756 2.18776 15.2538C3.65642 15.8144 5.75642 16.1368 7.95134 16.1368C10.1463 16.1368 12.2436 15.8153 13.7158 15.2538C14.9696 14.7756 15.66 14.1729 15.66 13.5559C15.66 13.4887 15.7146 13.4341 15.7818 13.4341C15.849 13.4341 15.9036 13.4887 15.9036 13.5559V17.7666C15.9036 18.483 15.2096 19.1368 13.8958 19.658C13.8922 19.6598 13.8878 19.6606 13.8842 19.6615C12.3806 20.2508 10.2188 20.5884 7.95045 20.5884L7.95134 20.5893ZM2.08836 19.4287C2.08836 19.4287 2.09552 19.4305 2.09821 19.4323C3.57313 20.0135 5.70627 20.3466 7.95045 20.3466C10.1946 20.3466 12.3278 20.0135 13.8045 19.4323C13.8081 19.4305 13.8116 19.4296 13.8152 19.4287C15.0045 18.955 15.6591 18.3648 15.6591 17.7675V14.2633C15.3376 14.7192 14.7045 15.1374 13.8018 15.4821C12.3027 16.0535 10.1696 16.3812 7.95045 16.3812C5.73134 16.3812 3.59552 16.0535 2.1 15.4821C1.19642 15.1374 0.564179 14.7192 0.242687 14.2633V17.7675C0.242687 18.3657 0.897313 18.955 2.08746 19.4296L2.08836 19.4287Z" fill="#222222"/>
<path d="M13.7311 11.1604H13.7293C12.2956 11.6986 10.2376 12.0389 7.95138 12.0389C5.66511 12.0389 3.60541 11.6986 2.17347 11.1604C0.898245 10.6795 0.121826 10.0374 0.121826 9.33618V13.5568C0.121826 14.2535 0.887498 14.8893 2.14481 15.3684C3.57854 15.9147 5.6472 16.2595 7.95138 16.2595C10.2556 16.2595 12.326 15.9165 13.7597 15.3684C15.0171 14.8893 15.7827 14.2535 15.7827 13.5568V9.33618C15.7827 10.0383 15.0063 10.6795 13.7311 11.1604Z" fill="#C9E4EA"/>
<path d="M7.95142 16.3803C5.73232 16.3803 3.60098 16.0525 2.10187 15.4812C0.746947 14.9644 0.000976562 14.2812 0.000976562 13.5558V9.33517C0.000976562 9.26801 0.0556035 9.21338 0.122768 9.21338C0.189932 9.21338 0.244559 9.26801 0.244559 9.33517C0.244559 9.95847 0.944856 10.5656 2.21739 11.0456C3.68874 11.5991 5.77889 11.9161 7.95232 11.9161C10.1258 11.9161 12.2141 11.5991 13.6872 11.0456C13.6908 11.0447 13.6944 11.0429 13.698 11.0421C14.9643 10.5629 15.661 9.95668 15.661 9.33517C15.661 9.26801 15.7156 9.21338 15.7828 9.21338C15.8499 9.21338 15.9046 9.26801 15.9046 9.33517V13.5558C15.9046 14.2812 15.1586 14.9644 13.8037 15.4812C12.309 16.0525 10.1759 16.3803 7.95232 16.3803H7.95142ZM0.243663 10.0435V13.5567C0.243663 14.1737 0.93411 14.7764 2.18784 15.2546C3.66008 15.8152 5.76098 16.1376 7.95142 16.1376C10.1419 16.1376 12.2481 15.8161 13.7159 15.2546C14.9696 14.7764 15.6601 14.1737 15.6601 13.5567V10.0435C15.335 10.5047 14.6929 10.9274 13.7732 11.274C13.7696 11.2758 13.766 11.2767 13.7625 11.2776C12.2634 11.8382 10.1455 12.1597 7.95053 12.1597C5.7556 12.1597 3.62784 11.8364 2.12963 11.274C1.21083 10.9274 0.567842 10.5038 0.242768 10.0435H0.243663Z" fill="#222222"/>
<path d="M20.9901 2.01701C19.3325 2.01701 18.3313 1.14477 18.016 0.818796C17.7545 1.15909 16.9163 2.01701 15.1154 2.01701C13.3145 2.01701 12.4396 1.18506 12.1396 0.837602C11.8907 1.19671 11.1151 2.01701 9.23813 2.01701C9.16828 2.01701 9.09574 2.01701 9.0232 2.01163C7.28679 1.95253 6.50589 1.17342 6.24619 0.834019C5.86022 1.32477 5.26291 1.68208 4.5044 1.87104C3.8838 2.02596 3.37962 2.01611 3.35813 2.01522C3.29097 2.01342 3.23813 1.9579 3.23902 1.89074C3.24082 1.82357 3.29545 1.76984 3.36351 1.77163C3.38321 1.77163 5.31486 1.80298 6.14769 0.553721C6.17097 0.5179 6.21037 0.497303 6.25514 0.49999C6.29813 0.501781 6.33665 0.52596 6.35635 0.563572C6.36262 0.574318 7.00201 1.6991 9.03485 1.76805C9.10291 1.77253 9.16828 1.77253 9.23723 1.77253C11.4232 1.77253 11.9919 0.61999 12.0151 0.570736C12.0339 0.530438 12.0734 0.504468 12.1172 0.500885C12.1611 0.497303 12.2032 0.518796 12.2274 0.555512C12.2354 0.567154 13.0584 1.77253 15.1137 1.77253C17.1689 1.77253 17.8907 0.574318 17.8978 0.562676C17.9175 0.527751 17.9534 0.505363 17.9937 0.502676C18.0339 0.499094 18.0725 0.516109 18.0975 0.547453C18.1074 0.55999 19.1157 1.77432 20.9892 1.77432C22.8626 1.77432 23.7223 0.566259 23.7313 0.553721C23.7528 0.523274 23.7868 0.503572 23.8244 0.501781C23.862 0.49999 23.8978 0.514318 23.9229 0.542079C23.9229 0.542079 23.9354 0.556408 23.9587 0.580587C24.0053 0.62984 24.0026 0.706855 23.9534 0.752527C23.9274 0.777602 23.8934 0.788348 23.8593 0.785661C23.6077 1.08924 22.6996 2.01701 20.991 2.01701H20.9901Z" fill="#222222"/>
<path d="M20.9902 5.30371C19.3326 5.30371 18.3323 4.42968 18.0162 4.10371C17.7547 4.44401 16.9165 5.30371 15.1156 5.30371C13.3147 5.30371 12.4407 4.47087 12.1416 4.12341C11.8917 4.48341 11.1171 5.30371 9.24009 5.30371C9.17024 5.30371 9.0977 5.30371 9.02517 5.29833C7.28874 5.23923 6.50784 4.45833 6.24814 4.11893C5.86217 4.61057 5.26486 4.96789 4.50635 5.15684C3.88575 5.31177 3.38068 5.30102 3.36008 5.30013C3.29292 5.29833 3.24008 5.24281 3.24098 5.17565C3.24277 5.10848 3.30008 5.05475 3.36546 5.05654C3.38426 5.05654 5.3168 5.08878 6.14963 3.83863C6.17292 3.80281 6.21322 3.78222 6.2571 3.7849C6.30008 3.78669 6.33859 3.81087 6.35829 3.84848C6.36456 3.85923 7.00396 4.9849 9.03681 5.05475C9.10487 5.05923 9.17024 5.05923 9.2392 5.05923C11.4368 5.05923 12.0108 3.86819 12.0171 3.85654C12.0359 3.81625 12.0744 3.78938 12.1183 3.7858C12.1631 3.78222 12.2052 3.80371 12.2293 3.84042C12.2374 3.85207 13.0586 5.05833 15.1138 5.05833C17.169 5.05833 17.8899 3.85744 17.8971 3.8458C17.9177 3.81087 17.9535 3.78848 17.9929 3.7858C18.0332 3.78222 18.0717 3.79923 18.0968 3.83057C18.1067 3.84311 19.115 5.05923 20.9885 5.05923C22.8619 5.05923 23.7207 3.85028 23.7288 3.83774C23.7502 3.80729 23.7843 3.78759 23.8219 3.7858C23.8595 3.78311 23.8953 3.79833 23.9204 3.8261C23.9204 3.8261 23.9329 3.84042 23.9562 3.8646C24.0028 3.91386 24.0001 3.99087 23.9508 4.03654C23.9249 4.06162 23.8908 4.07147 23.8568 4.06968C23.6052 4.37416 22.6971 5.30192 20.9885 5.30192L20.9902 5.30371Z" fill="#222222"/>
<path fill-rule="evenodd" clip-rule="evenodd" d="M23.9525 7.3212C23.9266 7.34538 23.8916 7.35613 23.8576 7.35344C23.8173 7.4018 23.76 7.46628 23.6857 7.54061C23.2943 7.92747 22.4185 8.58568 20.991 8.58568C19.9845 8.58568 19.2161 8.25882 18.6985 7.93016C18.4406 7.76628 18.2445 7.6024 18.1128 7.47882C18.0761 7.44389 18.0439 7.41255 18.0179 7.38568C17.9633 7.45553 17.8836 7.54867 17.7761 7.65165C17.5469 7.87106 17.1886 8.13613 16.6701 8.32777C16.6075 8.35106 16.5367 8.31882 16.5134 8.25523C16.4901 8.19255 16.5224 8.1227 16.586 8.09941C17.0695 7.92031 17.3991 7.67494 17.6078 7.47523C17.7125 7.37583 17.786 7.28717 17.8334 7.22538C17.8567 7.19404 17.8737 7.16897 17.8845 7.15285C17.8898 7.14479 17.8943 7.13852 17.8961 7.13494C17.8979 7.13225 17.8988 7.13135 17.8988 7.13046C17.9194 7.09553 17.9552 7.07225 17.9955 7.06956C18.0349 7.06598 18.0743 7.083 18.0994 7.11434L18.1012 7.11613C18.1012 7.11613 18.1057 7.1215 18.1092 7.12598C18.1164 7.13404 18.1272 7.14658 18.1424 7.16359C18.1728 7.19583 18.2185 7.24329 18.2794 7.30061C18.4021 7.41613 18.5857 7.57016 18.8292 7.72509C19.3155 8.03315 20.04 8.3421 20.991 8.3421C22.3361 8.3421 23.1528 7.72419 23.5146 7.36777C23.5889 7.29344 23.6445 7.22986 23.6803 7.18688C23.6991 7.16449 23.7125 7.14747 23.7206 7.13583C23.7251 7.13046 23.7286 7.12598 23.7304 7.12329L23.7322 7.12061C23.7537 7.09016 23.7877 7.07135 23.8254 7.06956C23.8621 7.06688 23.8979 7.0821 23.923 7.10986L23.9248 7.11165C23.9248 7.11165 23.9283 7.11613 23.931 7.11882C23.9373 7.12598 23.9463 7.13583 23.9588 7.14837C24.0045 7.19762 24.0027 7.27464 23.9534 7.3212H23.9525Z" fill="#222222"/>
<path d="M20.9901 11.8713C19.3334 11.8713 18.3322 10.9973 18.016 10.6713C17.8468 10.8916 17.4331 11.3304 16.6692 11.6125C16.6065 11.6358 16.5357 11.6036 16.5125 11.5409C16.4892 11.4782 16.5214 11.4074 16.5841 11.3842C17.528 11.0358 17.8934 10.4215 17.8978 10.4152C17.9175 10.3803 17.9542 10.3579 17.9936 10.3552C18.0348 10.3516 18.0725 10.3686 18.0975 10.4C18.1074 10.4125 19.1175 11.6286 20.9892 11.6286C22.3253 11.6286 23.1438 11.0179 23.5128 10.6543C23.6569 10.5101 23.7295 10.408 23.7304 10.4071C23.7519 10.3767 23.7859 10.3579 23.8226 10.3561C23.8602 10.3543 23.896 10.3686 23.9202 10.3964C23.9202 10.3964 23.9328 10.4107 23.956 10.4358C24.0017 10.4851 23.9999 10.5621 23.9507 10.6077C23.9238 10.6328 23.8907 10.6436 23.8557 10.64C23.8154 10.6883 23.7581 10.7528 23.6838 10.8271C23.288 11.2176 22.4122 11.8731 20.9892 11.8731L20.9901 11.8713Z" fill="#222222"/>
</g>
</g>
<defs>
<linearGradient id="paint0_linear_913_9164" x1="15.7827" y1="6.45361" x2="12.2493" y2="16.3626" gradientUnits="userSpaceOnUse">
<stop stop-color="#A1FF8B"/>
<stop offset="1" stop-color="#3F93FF"/>
</linearGradient>
<clipPath id="clip0_913_9164">
<rect width="24" height="24.0896" fill="white" transform="translate(0 0.5)"/>
</clipPath>
</defs>
</svg>
