<svg width="24" height="24" viewBox="0 0 24 24" fill="none" xmlns="http://www.w3.org/2000/svg">
<path d="M2.6665 4.44428C2.6665 3.46244 3.46244 2.6665 4.44428 2.6665H19.5554C20.5372 2.6665 21.3332 3.46244 21.3332 4.44428C21.3332 5.42612 20.5372 6.22206 19.5554 6.22206H4.44428C3.46244 6.22206 2.6665 5.42612 2.6665 4.44428Z" fill="#C9E4EA"/>
<path fill-rule="evenodd" clip-rule="evenodd" d="M2.48877 4.44433C2.48877 3.3643 3.3643 2.48877 4.44432 2.48877H19.5554C20.6355 2.48877 21.511 3.3643 21.511 4.44433C21.511 5.52435 20.6355 6.39988 19.5554 6.39988H4.44432C3.3643 6.39988 2.48877 5.52435 2.48877 4.44433ZM4.44432 2.84433C3.56067 2.84433 2.84433 3.56067 2.84433 4.44433C2.84433 5.32798 3.56067 6.04433 4.44432 6.04433H19.5554C20.4391 6.04433 21.1554 5.32798 21.1554 4.44433C21.1554 3.56067 20.4391 2.84433 19.5554 2.84433H4.44432Z" fill="#222222"/>
<path d="M2.6665 9.51118C2.6665 8.52934 3.46244 7.7334 4.44428 7.7334H19.5554C20.5372 7.7334 21.3332 8.52934 21.3332 9.51118C21.3332 10.493 20.5372 11.289 19.5554 11.289H4.44428C3.46244 11.289 2.6665 10.493 2.6665 9.51118Z" fill="url(#paint0_linear_6805_220457)"/>
<path fill-rule="evenodd" clip-rule="evenodd" d="M2.48877 9.51122C2.48877 8.4312 3.3643 7.55566 4.44432 7.55566H19.5554C20.6355 7.55566 21.511 8.4312 21.511 9.51122C21.511 10.5912 20.6355 11.4668 19.5554 11.4668H4.44432C3.3643 11.4668 2.48877 10.5912 2.48877 9.51122ZM4.44432 7.91122C3.56067 7.91122 2.84433 8.62756 2.84433 9.51122C2.84433 10.3949 3.56067 11.1112 4.44432 11.1112H19.5554C20.4391 11.1112 21.1554 10.3949 21.1554 9.51122C21.1554 8.62756 20.4391 7.91122 19.5554 7.91122H4.44432Z" fill="#222222"/>
<path d="M21.333 19.6441C21.333 20.6259 20.5371 21.4219 19.5552 21.4219L4.44412 21.4219C3.46228 21.4219 2.66634 20.6259 2.66634 19.6441C2.66634 18.6623 3.46228 17.8663 4.44412 17.8663L19.5552 17.8663C20.5371 17.8663 21.333 18.6623 21.333 19.6441Z" fill="url(#paint1_linear_6805_220457)"/>
<path fill-rule="evenodd" clip-rule="evenodd" d="M21.5112 19.6445C21.5112 20.7246 20.6357 21.6001 19.5557 21.6001L4.44456 21.6001C3.36454 21.6001 2.48901 20.7246 2.48901 19.6445C2.48901 18.5645 3.36454 17.689 4.44456 17.689L19.5557 17.689C20.6357 17.689 21.5112 18.5645 21.5112 19.6445ZM19.5557 21.2445C20.4393 21.2445 21.1557 20.5282 21.1557 19.6445C21.1557 18.7609 20.4393 18.0445 19.5557 18.0445L4.44456 18.0445C3.56091 18.0445 2.84456 18.7609 2.84456 19.6445C2.84456 20.5282 3.56091 21.2445 4.44456 21.2445L19.5557 21.2445Z" fill="#222222"/>
<path d="M2.6665 14.5776C2.6665 13.5957 3.46244 12.7998 4.44428 12.7998H19.5554C20.5372 12.7998 21.3332 13.5957 21.3332 14.5776C21.3332 15.5594 20.5372 16.3554 19.5554 16.3554H4.44428C3.46244 16.3554 2.6665 15.5594 2.6665 14.5776Z" fill="#C9E4EA"/>
<path fill-rule="evenodd" clip-rule="evenodd" d="M2.48877 14.5776C2.48877 13.4976 3.3643 12.6221 4.44432 12.6221H19.5554C20.6355 12.6221 21.511 13.4976 21.511 14.5776C21.511 15.6576 20.6355 16.5332 19.5554 16.5332H4.44432C3.3643 16.5332 2.48877 15.6576 2.48877 14.5776ZM4.44432 12.9776C3.56067 12.9776 2.84433 13.694 2.84433 14.5776C2.84433 15.4613 3.56067 16.1776 4.44432 16.1776H19.5554C20.4391 16.1776 21.1554 15.4613 21.1554 14.5776C21.1554 13.694 20.4391 12.9776 19.5554 12.9776H4.44432Z" fill="#222222"/>
<path d="M21.333 19.6441C21.333 20.6259 20.5371 21.4219 19.5552 21.4219L4.44412 21.4219C3.46228 21.4219 2.66634 20.6259 2.66634 19.6441C2.66634 18.6623 3.46228 17.8663 4.44412 17.8663L19.5552 17.8663C20.5371 17.8663 21.333 18.6623 21.333 19.6441Z" fill="#C9E4EA"/>
<path fill-rule="evenodd" clip-rule="evenodd" d="M21.5112 19.6445C21.5112 20.7246 20.6357 21.6001 19.5557 21.6001L4.44456 21.6001C3.36454 21.6001 2.48901 20.7246 2.48901 19.6445C2.48901 18.5645 3.36454 17.689 4.44456 17.689L19.5557 17.689C20.6357 17.689 21.5112 18.5645 21.5112 19.6445ZM19.5557 21.2445C20.4393 21.2445 21.1557 20.5282 21.1557 19.6445C21.1557 18.7609 20.4393 18.0445 19.5557 18.0445L4.44456 18.0445C3.56091 18.0445 2.84456 18.7609 2.84456 19.6445C2.84456 20.5282 3.56091 21.2445 4.44456 21.2445L19.5557 21.2445Z" fill="#222222"/>
<path d="M2.6665 4.44428C2.6665 3.46244 3.46244 2.6665 4.44428 2.6665C5.42612 2.6665 6.22206 3.46244 6.22206 4.44428C6.22206 5.42612 5.42612 6.22206 4.44428 6.22206C3.46244 6.22206 2.6665 5.42612 2.6665 4.44428Z" fill="white"/>
<path fill-rule="evenodd" clip-rule="evenodd" d="M2.48877 4.44433C2.48877 3.3643 3.3643 2.48877 4.44433 2.48877C5.52435 2.48877 6.39988 3.3643 6.39988 4.44433C6.39988 5.52435 5.52435 6.39988 4.44433 6.39988C3.3643 6.39988 2.48877 5.52435 2.48877 4.44433ZM4.44433 2.84433C3.56067 2.84433 2.84433 3.56067 2.84433 4.44433C2.84433 5.32798 3.56067 6.04433 4.44433 6.04433C5.32798 6.04433 6.04433 5.32798 6.04433 4.44433C6.04433 3.56067 5.32798 2.84433 4.44433 2.84433Z" fill="#222222"/>
<path d="M2.6665 14.5776C2.6665 13.5957 3.46244 12.7998 4.44428 12.7998C5.42612 12.7998 6.22206 13.5957 6.22206 14.5776C6.22206 15.5594 5.42612 16.3554 4.44428 16.3554C3.46244 16.3554 2.6665 15.5594 2.6665 14.5776Z" fill="white"/>
<path fill-rule="evenodd" clip-rule="evenodd" d="M2.48877 14.5776C2.48877 13.4976 3.3643 12.6221 4.44433 12.6221C5.52435 12.6221 6.39988 13.4976 6.39988 14.5776C6.39988 15.6576 5.52435 16.5332 4.44433 16.5332C3.3643 16.5332 2.48877 15.6576 2.48877 14.5776ZM4.44433 12.9776C3.56067 12.9776 2.84433 13.694 2.84433 14.5776C2.84433 15.4613 3.56067 16.1776 4.44433 16.1776C5.32798 16.1776 6.04433 15.4613 6.04433 14.5776C6.04433 13.694 5.32798 12.9776 4.44433 12.9776Z" fill="#222222"/>
<path d="M2.6665 19.6445C2.6665 18.6626 3.46244 17.8667 4.44428 17.8667C5.42612 17.8667 6.22206 18.6626 6.22206 19.6445C6.22206 20.6263 5.42612 21.4223 4.44428 21.4223C3.46244 21.4223 2.6665 20.6263 2.6665 19.6445Z" fill="white"/>
<path fill-rule="evenodd" clip-rule="evenodd" d="M2.48877 19.6445C2.48877 18.5645 3.3643 17.689 4.44433 17.689C5.52435 17.689 6.39988 18.5645 6.39988 19.6445C6.39988 20.7245 5.52435 21.6001 4.44433 21.6001C3.3643 21.6001 2.48877 20.7245 2.48877 19.6445ZM4.44433 18.0445C3.56067 18.0445 2.84433 18.7609 2.84433 19.6445C2.84433 20.5282 3.56067 21.2445 4.44433 21.2445C5.32798 21.2445 6.04433 20.5282 6.04433 19.6445C6.04433 18.7609 5.32798 18.0445 4.44433 18.0445Z" fill="#222222"/>
<path d="M17.7778 9.51118C17.7778 8.52934 18.5738 7.7334 19.5556 7.7334C20.5374 7.7334 21.3334 8.52934 21.3334 9.51118C21.3334 10.493 20.5374 11.289 19.5556 11.289C18.5738 11.289 17.7778 10.493 17.7778 9.51118Z" fill="white"/>
<path fill-rule="evenodd" clip-rule="evenodd" d="M17.6001 9.51122C17.6001 8.4312 18.4756 7.55566 19.5557 7.55566C20.6357 7.55566 21.5112 8.4312 21.5112 9.51122C21.5112 10.5912 20.6357 11.4668 19.5557 11.4668C18.4756 11.4668 17.6001 10.5912 17.6001 9.51122ZM19.5557 7.91122C18.672 7.91122 17.9557 8.62756 17.9557 9.51122C17.9557 10.3949 18.672 11.1112 19.5557 11.1112C20.4393 11.1112 21.1557 10.3949 21.1557 9.51122C21.1557 8.62756 20.4393 7.91122 19.5557 7.91122Z" fill="#222222"/>
<defs>
<linearGradient id="paint0_linear_6805_220457" x1="21.3332" y1="9.51118" x2="2.6665" y2="9.51117" gradientUnits="userSpaceOnUse">
<stop stop-color="#A1FF8B"/>
<stop offset="1" stop-color="#3F93FF"/>
</linearGradient>
<linearGradient id="paint1_linear_6805_220457" x1="2.66634" y1="19.6441" x2="21.333" y2="19.6441" gradientUnits="userSpaceOnUse">
<stop stop-color="#A1FF8B"/>
<stop offset="1" stop-color="#3F93FF"/>
</linearGradient>
</defs>
</svg>
