<svg width="24" height="24" viewBox="0 0 24 24" fill="none" xmlns="http://www.w3.org/2000/svg">
<g clip-path="url(#clip0_6805_185878)">
<path fill-rule="evenodd" clip-rule="evenodd" d="M3.43001 20.3191L20.3189 3.43022L20.5703 3.68164L3.68142 20.5705L3.43001 20.3191Z" fill="#222222"/>
<path fill-rule="evenodd" clip-rule="evenodd" d="M20.3191 20.5705L3.43022 3.68159L3.68164 3.43018L20.5705 20.3191L20.3191 20.5705Z" fill="#222222"/>
<path d="M11.6857 1.20343C11.8593 1.02986 12.1407 1.02986 12.3143 1.20343L22.7968 11.686C22.9704 11.8596 22.9704 12.141 22.7968 12.3145L12.3143 22.7971C12.1407 22.9707 11.8593 22.9707 11.6857 22.7971L1.20316 12.3145C1.02959 12.141 1.02959 11.8596 1.20316 11.686L11.6857 1.20343Z" fill="white"/>
<path fill-rule="evenodd" clip-rule="evenodd" d="M11.56 1.07767C11.803 0.83468 12.197 0.83468 12.44 1.07767L22.9225 11.5602C23.1655 11.8032 23.1655 12.1972 22.9225 12.4402L12.44 22.9228C12.197 23.1658 11.803 23.1658 11.56 22.9228L1.07745 12.4402C0.834457 12.1972 0.834457 11.8032 1.07745 11.5602L11.56 1.07767ZM12.1886 1.32909C12.0844 1.22495 11.9156 1.22495 11.8114 1.32909L1.32887 11.8117C1.22473 11.9158 1.22473 12.0846 1.32887 12.1888L11.8114 22.6714C11.9156 22.7755 12.0844 22.7755 12.1886 22.6714L22.6711 12.1888C22.7753 12.0846 22.7753 11.9158 22.6711 11.8117L12.1886 1.32909Z" fill="#222222"/>
<path d="M12.4446 4.00011C12.4446 4.24557 12.2456 4.44455 12.0001 4.44455C11.7546 4.44455 11.5557 4.24557 11.5557 4.00011C11.5557 3.75465 11.7546 3.55566 12.0001 3.55566C12.2456 3.55566 12.4446 3.75465 12.4446 4.00011Z" fill="#C9E4EA"/>
<path fill-rule="evenodd" clip-rule="evenodd" d="M12.0002 3.73349C11.8529 3.73349 11.7335 3.85288 11.7335 4.00015C11.7335 4.14743 11.8529 4.26682 12.0002 4.26682C12.1474 4.26682 12.2668 4.14743 12.2668 4.00015C12.2668 3.85288 12.1474 3.73349 12.0002 3.73349ZM11.3779 4.00015C11.3779 3.65651 11.6565 3.37793 12.0002 3.37793C12.3438 3.37793 12.6224 3.65651 12.6224 4.00015C12.6224 4.3438 12.3438 4.62237 12.0002 4.62237C11.6565 4.62237 11.3779 4.3438 11.3779 4.00015Z" fill="#222222"/>
<path d="M12.4446 20.0001C12.4446 20.2456 12.2456 20.4446 12.0001 20.4446C11.7546 20.4446 11.5557 20.2456 11.5557 20.0001C11.5557 19.7546 11.7546 19.5557 12.0001 19.5557C12.2456 19.5557 12.4446 19.7546 12.4446 20.0001Z" fill="#C9E4EA"/>
<path fill-rule="evenodd" clip-rule="evenodd" d="M12.0002 19.7335C11.8529 19.7335 11.7335 19.8529 11.7335 20.0002C11.7335 20.1474 11.8529 20.2668 12.0002 20.2668C12.1474 20.2668 12.2668 20.1474 12.2668 20.0002C12.2668 19.8529 12.1474 19.7335 12.0002 19.7335ZM11.3779 20.0002C11.3779 19.6565 11.6565 19.3779 12.0002 19.3779C12.3438 19.3779 12.6224 19.6565 12.6224 20.0002C12.6224 20.3438 12.3438 20.6224 12.0002 20.6224C11.6565 20.6224 11.3779 20.3438 11.3779 20.0002Z" fill="#222222"/>
<path d="M20.0004 12.4446C19.7549 12.4446 19.5559 12.2456 19.5559 12.0001C19.5559 11.7546 19.7549 11.5557 20.0004 11.5557C20.2458 11.5557 20.4448 11.7546 20.4448 12.0001C20.4448 12.2456 20.2458 12.4446 20.0004 12.4446Z" fill="#C9E4EA"/>
<path fill-rule="evenodd" clip-rule="evenodd" d="M20.267 12.0002C20.267 11.8529 20.1476 11.7335 20.0003 11.7335C19.8531 11.7335 19.7337 11.8529 19.7337 12.0002C19.7337 12.1474 19.8531 12.2668 20.0003 12.2668C20.1476 12.2668 20.267 12.1474 20.267 12.0002ZM20.0003 11.3779C20.344 11.3779 20.6226 11.6565 20.6226 12.0002C20.6226 12.3438 20.344 12.6224 20.0003 12.6224C19.6567 12.6224 19.3781 12.3438 19.3781 12.0002C19.3781 11.6565 19.6567 11.3779 20.0003 11.3779Z" fill="#222222"/>
<path d="M4.00038 12.4446C3.75492 12.4446 3.55594 12.2456 3.55594 12.0001C3.55594 11.7546 3.75492 11.5557 4.00038 11.5557C4.24584 11.5557 4.44482 11.7546 4.44482 12.0001C4.44482 12.2456 4.24584 12.4446 4.00038 12.4446Z" fill="#C9E4EA"/>
<path fill-rule="evenodd" clip-rule="evenodd" d="M4.267 12.0002C4.267 11.8529 4.14761 11.7335 4.00034 11.7335C3.85306 11.7335 3.73367 11.8529 3.73367 12.0002C3.73367 12.1474 3.85306 12.2668 4.00034 12.2668C4.14761 12.2668 4.267 12.1474 4.267 12.0002ZM4.00034 11.3779C4.34398 11.3779 4.62256 11.6565 4.62256 12.0002C4.62256 12.3438 4.34398 12.6224 4.00034 12.6224C3.65669 12.6224 3.37811 12.3438 3.37811 12.0002C3.37811 11.6565 3.65669 11.3779 4.00034 11.3779Z" fill="#222222"/>
<path d="M5.33366 4.00033C5.33366 4.73671 4.73671 5.33366 4.00033 5.33366C3.26395 5.33366 2.66699 4.73671 2.66699 4.00033C2.66699 3.26395 3.26395 2.66699 4.00033 2.66699C4.73671 2.66699 5.33366 3.26395 5.33366 4.00033Z" fill="#C9E4EA"/>
<path fill-rule="evenodd" clip-rule="evenodd" d="M4.00037 2.84481C3.36217 2.84481 2.84481 3.36217 2.84481 4.00037C2.84481 4.63856 3.36217 5.15592 4.00037 5.15592C4.63856 5.15592 5.15592 4.63856 5.15592 4.00037C5.15592 3.36217 4.63856 2.84481 4.00037 2.84481ZM2.48926 4.00037C2.48926 3.16581 3.16581 2.48926 4.00037 2.48926C4.83493 2.48926 5.51148 3.16581 5.51148 4.00037C5.51148 4.83493 4.83493 5.51148 4.00037 5.51148C3.16581 5.51148 2.48926 4.83493 2.48926 4.00037Z" fill="#222222"/>
<path d="M5.33366 20.0003C5.33366 20.7367 4.73671 21.3337 4.00033 21.3337C3.26395 21.3337 2.66699 20.7367 2.66699 20.0003C2.66699 19.2639 3.26395 18.667 4.00033 18.667C4.73671 18.667 5.33366 19.2639 5.33366 20.0003Z" fill="#C9E4EA"/>
<path fill-rule="evenodd" clip-rule="evenodd" d="M4.00037 18.8448C3.36217 18.8448 2.84481 19.3622 2.84481 20.0004C2.84481 20.6386 3.36217 21.1559 4.00037 21.1559C4.63856 21.1559 5.15592 20.6386 5.15592 20.0004C5.15592 19.3622 4.63856 18.8448 4.00037 18.8448ZM2.48926 20.0004C2.48926 19.1658 3.16581 18.4893 4.00037 18.4893C4.83493 18.4893 5.51148 19.1658 5.51148 20.0004C5.51148 20.8349 4.83493 21.5115 4.00037 21.5115C3.16581 21.5115 2.48926 20.8349 2.48926 20.0004Z" fill="#222222"/>
<path d="M21.3337 4.00033C21.3337 4.73671 20.7367 5.33366 20.0003 5.33366C19.2639 5.33366 18.667 4.73671 18.667 4.00033C18.667 3.26395 19.2639 2.66699 20.0003 2.66699C20.7367 2.66699 21.3337 3.26395 21.3337 4.00033Z" fill="#C9E4EA"/>
<path fill-rule="evenodd" clip-rule="evenodd" d="M20.0004 2.84481C19.3622 2.84481 18.8448 3.36217 18.8448 4.00037C18.8448 4.63856 19.3622 5.15592 20.0004 5.15592C20.6386 5.15592 21.1559 4.63856 21.1559 4.00037C21.1559 3.36217 20.6386 2.84481 20.0004 2.84481ZM18.4893 4.00037C18.4893 3.16581 19.1658 2.48926 20.0004 2.48926C20.8349 2.48926 21.5115 3.16581 21.5115 4.00037C21.5115 4.83493 20.8349 5.51148 20.0004 5.51148C19.1658 5.51148 18.4893 4.83493 18.4893 4.00037Z" fill="#222222"/>
<path d="M21.3337 20.0003C21.3337 20.7367 20.7367 21.3337 20.0003 21.3337C19.2639 21.3337 18.667 20.7367 18.667 20.0003C18.667 19.2639 19.2639 18.667 20.0003 18.667C20.7367 18.667 21.3337 19.2639 21.3337 20.0003Z" fill="#C9E4EA"/>
<path fill-rule="evenodd" clip-rule="evenodd" d="M20.0004 18.8448C19.3622 18.8448 18.8448 19.3622 18.8448 20.0004C18.8448 20.6386 19.3622 21.1559 20.0004 21.1559C20.6386 21.1559 21.1559 20.6386 21.1559 20.0004C21.1559 19.3622 20.6386 18.8448 20.0004 18.8448ZM18.4893 20.0004C18.4893 19.1658 19.1658 18.4893 20.0004 18.4893C20.8349 18.4893 21.5115 19.1658 21.5115 20.0004C21.5115 20.8349 20.8349 21.5115 20.0004 21.5115C19.1658 21.5115 18.4893 20.8349 18.4893 20.0004Z" fill="#222222"/>
<path d="M12.0445 6.22266L7.82227 8.23232V13.556C7.82227 15.8879 9.71262 17.7782 12.0445 17.7782C14.3764 17.7782 16.2667 15.8879 16.2667 13.556V8.23232L12.0445 6.22266Z" fill="url(#paint0_linear_6805_185878)"/>
<path fill-rule="evenodd" clip-rule="evenodd" d="M11.9681 6.06169C12.0165 6.03868 12.0726 6.03868 12.1209 6.06169L16.3432 8.07135C16.4051 8.10083 16.4445 8.16329 16.4445 8.23187V13.5555C16.4445 15.9856 14.4746 17.9555 12.0445 17.9555C9.61448 17.9555 7.64453 15.9856 7.64453 13.5555V8.23187C7.64453 8.16329 7.68398 8.10083 7.7459 8.07135L11.9681 6.06169ZM8.00009 8.34414V13.5555C8.00009 15.7892 9.81085 17.6 12.0445 17.6C14.2782 17.6 16.089 15.7892 16.089 13.5555V8.34414L12.0445 6.4191L8.00009 8.34414Z" fill="#222222"/>
</g>
<defs>
<linearGradient id="paint0_linear_6805_185878" x1="16.2667" y1="6.22265" x2="5.25717" y2="14.2681" gradientUnits="userSpaceOnUse">
<stop stop-color="#A1FF8B"/>
<stop offset="1" stop-color="#3F93FF"/>
</linearGradient>
<clipPath id="clip0_6805_185878">
<rect width="24" height="24" fill="white"/>
</clipPath>
</defs>
</svg>
