<svg width="24" height="24" viewBox="0 0 24 24" fill="none" xmlns="http://www.w3.org/2000/svg">
<path d="M11.6008 12.11L2.25482 16.7838C2.05829 16.8821 2.05829 17.1625 2.25482 17.2608L11.6008 21.9346C11.8511 22.0598 12.1456 22.0598 12.3959 21.9347L21.7452 17.2608C21.9418 17.1626 21.9418 16.882 21.7452 16.7838L12.3959 12.1099C12.1456 11.9848 11.8511 11.9848 11.6008 12.11Z" fill="#C9E4EA"/>
<path fill-rule="evenodd" clip-rule="evenodd" d="M12.3164 12.269C12.1162 12.1689 11.8806 12.1689 11.6804 12.269L2.33437 16.9428C2.26887 16.9756 2.26887 17.0691 2.33437 17.1019L11.6804 21.7757C11.8806 21.8758 12.1162 21.8758 12.3164 21.7757L21.6658 17.1019C21.7313 17.0691 21.7313 16.9756 21.6658 16.9428L12.3164 12.269ZM11.5214 11.951C11.8217 11.8009 12.1751 11.8008 12.4754 11.951L21.8247 16.6248C22.1524 16.7886 22.1524 17.2561 21.8247 17.4199L12.4754 22.0937C12.1751 22.2439 11.8217 22.2438 11.5214 22.0937L2.17534 17.4199C1.8478 17.2561 1.8478 16.7886 2.17534 16.6248L11.5214 11.951Z" fill="#222222"/>
<path d="M11.6008 7.04358L2.25482 11.7174C2.05829 11.8157 2.05829 12.0961 2.25482 12.1944L11.6008 16.8682C11.8511 16.9934 12.1456 16.9934 12.3959 16.8683L21.7452 12.1944C21.9418 12.0962 21.9418 11.8156 21.7452 11.7174L12.3959 7.04352C12.1456 6.91842 11.8511 6.91844 11.6008 7.04358Z" fill="url(#paint0_linear_6805_220504)"/>
<path fill-rule="evenodd" clip-rule="evenodd" d="M12.3164 7.20258C12.1162 7.1025 11.8806 7.10251 11.6804 7.20262L2.33437 11.8764C2.26887 11.9092 2.26887 12.0027 2.33437 12.0354L11.6804 16.7093C11.8806 16.8094 12.1162 16.8094 12.3164 16.7093L21.6658 12.0354C21.7313 12.0027 21.7313 11.9092 21.6658 11.8764L12.3164 7.20258ZM11.5214 6.88462C11.8217 6.73445 12.1751 6.73442 12.4754 6.88455L21.8247 11.5584C22.1524 11.7222 22.1524 12.1897 21.8247 12.3535L12.4754 17.0273C12.1751 17.1775 11.8217 17.1774 11.5214 17.0273L2.17534 12.3535C1.8478 12.1897 1.8478 11.7222 2.17534 11.5584L11.5214 6.88462Z" fill="#222222"/>
<path d="M11.6008 1.97668L2.25482 6.6505C2.05829 6.74878 2.05829 7.02923 2.25482 7.12751L11.6008 11.8013C11.8511 11.9265 12.1456 11.9265 12.3959 11.8014L21.7452 7.12753C21.9418 7.02926 21.9418 6.74875 21.7452 6.65048L12.3959 1.97663C12.1456 1.85152 11.8511 1.85154 11.6008 1.97668Z" fill="white"/>
<path fill-rule="evenodd" clip-rule="evenodd" d="M12.3164 2.13569C12.1162 2.0356 11.8806 2.03562 11.6804 2.13573L2.33437 6.80955C2.26887 6.84231 2.26887 6.93579 2.33437 6.96855L11.6804 11.6424C11.8806 11.7425 12.1162 11.7425 12.3164 11.6424L21.6658 6.96856C21.7313 6.9358 21.7313 6.8423 21.6658 6.80954L12.3164 2.13569ZM11.5214 1.81772C11.8217 1.66755 12.1751 1.66753 12.4754 1.81766L21.8247 6.49151C22.1524 6.65529 22.1524 7.12281 21.8247 7.28658L12.4754 11.9604C12.1751 12.1106 11.8217 12.1105 11.5214 11.9604L2.17534 7.28656C1.8478 7.12276 1.8478 6.65534 2.17534 6.49154L11.5214 1.81772Z" fill="#222222"/>
<defs>
<linearGradient id="paint0_linear_6805_220504" x1="21.8926" y1="11.9559" x2="2.10742" y2="11.9559" gradientUnits="userSpaceOnUse">
<stop stop-color="#A1FF8B"/>
<stop offset="1" stop-color="#3F93FF"/>
</linearGradient>
</defs>
</svg>
