<svg width="24" height="24" viewBox="0 0 24 24" fill="none" xmlns="http://www.w3.org/2000/svg">
<path fill-rule="evenodd" clip-rule="evenodd" d="M6.93343 3.55571C6.93343 3.45752 7.01302 3.37793 7.11121 3.37793H18.0001C20.4301 3.37793 22.4001 5.34788 22.4001 7.77793C22.4001 10.208 20.4301 12.1779 18.0001 12.1779H16.889C16.7908 12.1779 16.7112 12.0983 16.7112 12.0002C16.7112 11.902 16.7908 11.8224 16.889 11.8224H18.0001C20.2338 11.8224 22.0445 10.0116 22.0445 7.77793C22.0445 5.54424 20.2338 3.73349 18.0001 3.73349H7.11121C7.01302 3.73349 6.93343 3.65389 6.93343 3.55571ZM6.0001 12.1779C3.76641 12.1779 1.95565 13.9887 1.95565 16.2224C1.95565 18.4561 3.76641 20.2668 6.0001 20.2668H16.4997L15.6719 19.4389C15.6024 19.3695 15.6024 19.2569 15.6719 19.1875C15.7413 19.1181 15.8538 19.1181 15.9233 19.1875L17.0546 20.3189C17.1241 20.3883 17.1241 20.5009 17.0546 20.5703L15.9233 21.7017C15.8538 21.7711 15.7413 21.7711 15.6719 21.7017C15.6024 21.6322 15.6024 21.5197 15.6719 21.4503L16.4997 20.6224H6.0001C3.57004 20.6224 1.6001 18.6524 1.6001 16.2224C1.6001 13.7923 3.57004 11.8224 6.0001 11.8224H7.11121C7.20939 11.8224 7.28899 11.902 7.28899 12.0002C7.28899 12.0983 7.20939 12.1779 7.11121 12.1779H6.0001Z" fill="#222222"/>
<path d="M5.33339 3.55561C5.33339 4.53745 4.53745 5.33339 3.55561 5.33339C2.57377 5.33339 1.77783 4.53745 1.77783 3.55561C1.77783 2.57377 2.57377 1.77783 3.55561 1.77783C4.53745 1.77783 5.33339 2.57377 5.33339 3.55561Z" fill="white"/>
<path fill-rule="evenodd" clip-rule="evenodd" d="M3.55565 1.95565C2.672 1.95565 1.95565 2.672 1.95565 3.55565C1.95565 4.43931 2.672 5.15565 3.55565 5.15565C4.43931 5.15565 5.15565 4.43931 5.15565 3.55565C5.15565 2.672 4.43931 1.95565 3.55565 1.95565ZM1.6001 3.55565C1.6001 2.47563 2.47563 1.6001 3.55565 1.6001C4.63568 1.6001 5.51121 2.47563 5.51121 3.55565C5.51121 4.63568 4.63568 5.51121 3.55565 5.51121C2.47563 5.51121 1.6001 4.63568 1.6001 3.55565Z" fill="#222222"/>
<path d="M22.2221 20.4443C22.2221 21.4261 21.4261 22.2221 20.4443 22.2221C19.4624 22.2221 18.6665 21.4261 18.6665 20.4443C18.6665 19.4624 19.4624 18.6665 20.4443 18.6665C21.4261 18.6665 22.2221 19.4624 22.2221 20.4443Z" fill="white"/>
<path fill-rule="evenodd" clip-rule="evenodd" d="M20.4443 18.8443C19.5607 18.8443 18.8443 19.5607 18.8443 20.4443C18.8443 21.328 19.5607 22.0443 20.4443 22.0443C21.328 22.0443 22.0443 21.328 22.0443 20.4443C22.0443 19.5607 21.328 18.8443 20.4443 18.8443ZM18.4888 20.4443C18.4888 19.3643 19.3643 18.4888 20.4443 18.4888C21.5243 18.4888 22.3999 19.3643 22.3999 20.4443C22.3999 21.5243 21.5243 22.3999 20.4443 22.3999C19.3643 22.3999 18.4888 21.5243 18.4888 20.4443Z" fill="#222222"/>
<path d="M15.1114 12.0003C15.1114 13.7185 13.7185 15.1114 12.0003 15.1114C10.2821 15.1114 8.88916 13.7185 8.88916 12.0003C8.88916 10.2821 10.2821 8.88916 12.0003 8.88916C13.7185 8.88916 15.1114 10.2821 15.1114 12.0003Z" fill="url(#paint0_linear_6805_220524)"/>
<path fill-rule="evenodd" clip-rule="evenodd" d="M12.0003 9.06698C10.3803 9.06698 9.06698 10.3803 9.06698 12.0003C9.06698 13.6203 10.3803 14.9336 12.0003 14.9336C13.6203 14.9336 14.9336 13.6203 14.9336 12.0003C14.9336 10.3803 13.6203 9.06698 12.0003 9.06698ZM8.71143 12.0003C8.71143 10.1839 10.1839 8.71143 12.0003 8.71143C13.8167 8.71143 15.2892 10.1839 15.2892 12.0003C15.2892 13.8167 13.8167 15.2892 12.0003 15.2892C10.1839 15.2892 8.71143 13.8167 8.71143 12.0003Z" fill="#222222"/>
<path fill-rule="evenodd" clip-rule="evenodd" d="M13.9361 10.687C14.0054 10.7566 14.0052 10.8691 13.9357 10.9385L11.5524 13.3142C11.483 13.3834 11.3708 13.3834 11.3014 13.3142L10.0645 12.0812C9.99494 12.0119 9.99476 11.8993 10.0641 11.8298C10.1334 11.7603 10.246 11.7601 10.3155 11.8294L11.4269 12.9373L13.6847 10.6866C13.7542 10.6173 13.8668 10.6175 13.9361 10.687Z" fill="#222222"/>
<defs>
<linearGradient id="paint0_linear_6805_220524" x1="15.1114" y1="8.88916" x2="8.88916" y2="15.1114" gradientUnits="userSpaceOnUse">
<stop stop-color="#A1FF8B"/>
<stop offset="1" stop-color="#3F93FF"/>
</linearGradient>
</defs>
</svg>
