<svg width="24" height="24" viewBox="0 0 24 24" fill="none" xmlns="http://www.w3.org/2000/svg">
<path d="M10.6849 9.01933L9.01933 10.6849C8.93599 10.7683 8.88916 10.8813 8.88916 10.9992V20.0003C8.88916 20.2457 9.08815 20.4447 9.3336 20.4447H20.0003C20.2457 20.4447 20.4447 20.2457 20.4447 20.0003V9.3336C20.4447 9.08814 20.2457 8.88916 20.0003 8.88916H10.9992C10.8813 8.88916 10.7683 8.93599 10.6849 9.01933Z" fill="#C9E4EA"/>
<path fill-rule="evenodd" clip-rule="evenodd" d="M10.9992 9.06698C10.9285 9.06698 10.8607 9.09508 10.8107 9.14509L10.685 9.01938L10.8107 9.14509L9.14509 10.8107C9.09508 10.8607 9.06698 10.9285 9.06698 10.9992V20.0003C9.06698 20.1476 9.18637 20.267 9.33365 20.267H20.0003C20.1476 20.267 20.267 20.1476 20.267 20.0003V9.33365C20.267 9.18637 20.1476 9.06698 20.0003 9.06698H10.9992ZM10.5592 8.89367C10.6759 8.77698 10.8342 8.71143 10.9992 8.71143H20.0003C20.344 8.71143 20.6225 8.99 20.6225 9.33365V20.0003C20.6225 20.344 20.344 20.6225 20.0003 20.6225H9.33365C8.99 20.6225 8.71143 20.344 8.71143 20.0003V10.9992C8.71143 10.8342 8.77698 10.6759 8.89367 10.5592L10.5592 8.89367Z" fill="#222222"/>
<path d="M8.01792 6.35234L6.35234 8.01792C6.26899 8.10127 6.22217 8.21432 6.22217 8.33219V17.3333C6.22217 17.5787 6.42115 17.7777 6.66661 17.7777H17.3333C17.5787 17.7777 17.7777 17.5787 17.7777 17.3333V6.66661C17.7777 6.42115 17.5787 6.22217 17.3333 6.22217H8.33219C8.21431 6.22217 8.10127 6.26899 8.01792 6.35234Z" fill="white"/>
<path fill-rule="evenodd" clip-rule="evenodd" d="M8.33223 6.39999C8.26151 6.39999 8.19368 6.42808 8.14367 6.47809L8.01796 6.35239L8.14367 6.47809L6.47809 8.14367C6.42808 8.19368 6.39999 8.26151 6.39999 8.33223V17.3333C6.39999 17.4806 6.51938 17.6 6.66666 17.6H17.3333C17.4806 17.6 17.6 17.4806 17.6 17.3333V6.66666C17.6 6.51938 17.4806 6.39999 17.3333 6.39999H8.33223ZM7.89225 6.22668C8.00894 6.10999 8.16721 6.04443 8.33223 6.04443H17.3333C17.677 6.04443 17.9555 6.32301 17.9555 6.66666V17.3333C17.9555 17.677 17.677 17.9555 17.3333 17.9555H6.66666C6.32301 17.9555 6.04443 17.677 6.04443 17.3333V8.33223C6.04443 8.16721 6.10999 8.00894 6.22668 7.89226L7.89225 6.22668Z" fill="#222222"/>
<path d="M5.35142 3.68584L3.68584 5.35142C3.60249 5.43476 3.55566 5.54781 3.55566 5.66568V14.6668C3.55566 14.9122 3.75465 15.1112 4.00011 15.1112H14.6668C14.9122 15.1112 15.1112 14.9122 15.1112 14.6668V4.00011C15.1112 3.75465 14.9122 3.55566 14.6668 3.55566H5.66568C5.54781 3.55566 5.43476 3.60249 5.35142 3.68584Z" fill="url(#paint0_linear_6805_220479)"/>
<path fill-rule="evenodd" clip-rule="evenodd" d="M5.66573 3.73349C5.595 3.73349 5.52718 3.76158 5.47717 3.81159L3.81159 5.47717C3.76158 5.52718 3.73349 5.595 3.73349 5.66573V14.6668C3.73349 14.8141 3.85288 14.9335 4.00015 14.9335H14.6668C14.8141 14.9335 14.9335 14.8141 14.9335 14.6668V4.00015C14.9335 3.85288 14.8141 3.73349 14.6668 3.73349H5.66573ZM5.22575 3.56017C5.34244 3.44348 5.5007 3.37793 5.66573 3.37793H14.6668C15.0105 3.37793 15.289 3.65651 15.289 4.00015V14.6668C15.289 15.0105 15.0105 15.289 14.6668 15.289H4.00015C3.65651 15.289 3.37793 15.0105 3.37793 14.6668V5.66573C3.37793 5.5007 3.44349 5.34244 3.56017 5.22575L5.22575 3.56017Z" fill="#222222"/>
<defs>
<linearGradient id="paint0_linear_6805_220479" x1="15.1112" y1="3.55566" x2="3.55566" y2="15.1112" gradientUnits="userSpaceOnUse">
<stop stop-color="#A1FF8B"/>
<stop offset="1" stop-color="#3F93FF"/>
</linearGradient>
</defs>
</svg>
