<svg width="24" height="24" viewBox="0 0 24 24" fill="none" xmlns="http://www.w3.org/2000/svg">
<path fill-rule="evenodd" clip-rule="evenodd" d="M6.9852 13.2073C7.05463 13.1379 7.16719 13.1379 7.23661 13.2073L8.36799 14.3387C8.43741 14.4081 8.43741 14.5207 8.36799 14.5901C8.29856 14.6596 8.186 14.6596 8.11657 14.5901L7.28868 13.7622V15.9997C7.28868 16.3925 7.60706 16.7108 7.9998 16.7108H12.4442V17.0664H7.9998C7.41069 17.0664 6.93313 16.5888 6.93313 15.9997V13.7622L6.10524 14.5901C6.03582 14.6596 5.92325 14.6596 5.85383 14.5901C5.7844 14.5207 5.7844 14.4081 5.85383 14.3387L6.9852 13.2073Z" fill="#222222"/>
<path fill-rule="evenodd" clip-rule="evenodd" d="M17.0143 10.7922C16.9449 10.8616 16.8323 10.8616 16.7629 10.7922L15.6315 9.6608C15.5621 9.59137 15.5621 9.47881 15.6315 9.40938C15.701 9.33996 15.8135 9.33996 15.8829 9.40938L16.7108 10.2373V7.99979C16.7108 7.60706 16.3925 7.28868 15.9997 7.28868H11.5553V6.93313H15.9997C16.5888 6.93313 17.0664 7.41069 17.0664 7.99979V10.2373L17.8943 9.40938C17.9637 9.33996 18.0763 9.33996 18.1457 9.40938C18.2151 9.47881 18.2151 9.59137 18.1457 9.6608L17.0143 10.7922Z" fill="#222222"/>
<path d="M2.6665 3.11095C2.6665 2.86549 2.86549 2.6665 3.11095 2.6665H11.1109C11.3564 2.6665 11.5554 2.86549 11.5554 3.11095V5.15539C11.5554 5.40085 11.3564 5.59984 11.1109 5.59984H3.11095C2.86549 5.59984 2.6665 5.40085 2.6665 5.15539V3.11095Z" fill="white"/>
<path fill-rule="evenodd" clip-rule="evenodd" d="M2.48877 3.11099C2.48877 2.76735 2.76735 2.48877 3.11099 2.48877H11.111C11.4546 2.48877 11.7332 2.76735 11.7332 3.11099V5.15544C11.7332 5.49908 11.4546 5.77766 11.111 5.77766H3.11099C2.76735 5.77766 2.48877 5.49908 2.48877 5.15544V3.11099ZM3.11099 2.84433C2.96372 2.84433 2.84433 2.96372 2.84433 3.11099V5.15544C2.84433 5.30271 2.96372 5.4221 3.11099 5.4221H11.111C11.2583 5.4221 11.3777 5.30271 11.3777 5.15544V3.11099C11.3777 2.96372 11.2583 2.84433 11.111 2.84433H3.11099Z" fill="#222222"/>
<path d="M2.6665 6.04454C2.6665 5.79908 2.86549 5.6001 3.11095 5.6001H11.1109C11.3564 5.6001 11.5554 5.79908 11.5554 6.04454V8.17788C11.5554 8.42334 11.3564 8.62232 11.1109 8.62232H3.11095C2.86549 8.62232 2.6665 8.42334 2.6665 8.17788V6.04454Z" fill="white"/>
<path fill-rule="evenodd" clip-rule="evenodd" d="M2.48877 6.0441C2.48877 5.70045 2.76735 5.42188 3.11099 5.42188H11.111C11.4546 5.42188 11.7332 5.70045 11.7332 6.0441V8.17743C11.7332 8.52107 11.4546 8.79965 11.111 8.79965H3.11099C2.76735 8.79965 2.48877 8.52107 2.48877 8.17743V6.0441ZM3.11099 5.77743C2.96372 5.77743 2.84433 5.89682 2.84433 6.0441V8.17743C2.84433 8.32471 2.96372 8.4441 3.11099 8.4441H11.111C11.2583 8.4441 11.3777 8.32471 11.3777 8.17743V6.0441C11.3777 5.89682 11.2583 5.77743 11.111 5.77743H3.11099Z" fill="#222222"/>
<path d="M2.6665 9.06651C2.6665 8.82105 2.86549 8.62207 3.11095 8.62207H11.1109C11.3564 8.62207 11.5554 8.82105 11.5554 9.06651V11.111C11.5554 11.3564 11.3564 11.5554 11.1109 11.5554H3.11095C2.86549 11.5554 2.6665 11.3564 2.6665 11.111V9.06651Z" fill="white"/>
<path fill-rule="evenodd" clip-rule="evenodd" d="M2.48877 9.06656C2.48877 8.72291 2.76735 8.44434 3.11099 8.44434H11.111C11.4546 8.44434 11.7332 8.72291 11.7332 9.06656V11.111C11.7332 11.4546 11.4546 11.7332 11.111 11.7332H3.11099C2.76735 11.7332 2.48877 11.4546 2.48877 11.111V9.06656ZM3.11099 8.79989C2.96372 8.79989 2.84433 8.91928 2.84433 9.06656V11.111C2.84433 11.2583 2.96372 11.3777 3.11099 11.3777H11.111C11.2583 11.3777 11.3777 11.2583 11.3777 11.111V9.06656C11.3777 8.91928 11.2583 8.79989 11.111 8.79989H3.11099Z" fill="#222222"/>
<path d="M10.6667 4.08898C10.6667 4.33444 10.4677 4.53342 10.2223 4.53342C9.97682 4.53342 9.77783 4.33444 9.77783 4.08898C9.77783 3.84352 9.97682 3.64453 10.2223 3.64453C10.4677 3.64453 10.6667 3.84352 10.6667 4.08898Z" fill="#C9E4EA"/>
<path fill-rule="evenodd" clip-rule="evenodd" d="M10.2223 3.82186C10.075 3.82186 9.95565 3.94125 9.95565 4.08853C9.95565 4.23581 10.075 4.3552 10.2223 4.3552C10.3696 4.3552 10.489 4.23581 10.489 4.08853C10.489 3.94125 10.3696 3.82186 10.2223 3.82186ZM9.6001 4.08853C9.6001 3.74489 9.87868 3.46631 10.2223 3.46631C10.566 3.46631 10.8445 3.74489 10.8445 4.08853C10.8445 4.43217 10.566 4.71075 10.2223 4.71075C9.87868 4.71075 9.6001 4.43217 9.6001 4.08853Z" fill="#222222"/>
<path d="M10.6667 7.11095C10.6667 7.35641 10.4677 7.55539 10.2223 7.55539C9.97682 7.55539 9.77783 7.35641 9.77783 7.11095C9.77783 6.86549 9.97682 6.6665 10.2223 6.6665C10.4677 6.6665 10.6667 6.86549 10.6667 7.11095Z" fill="#C9E4EA"/>
<path fill-rule="evenodd" clip-rule="evenodd" d="M10.2223 6.84433C10.075 6.84433 9.95565 6.96372 9.95565 7.11099C9.95565 7.25827 10.075 7.37766 10.2223 7.37766C10.3696 7.37766 10.489 7.25827 10.489 7.11099C10.489 6.96372 10.3696 6.84433 10.2223 6.84433ZM9.6001 7.11099C9.6001 6.76735 9.87868 6.48877 10.2223 6.48877C10.566 6.48877 10.8445 6.76735 10.8445 7.11099C10.8445 7.45464 10.566 7.73321 10.2223 7.73321C9.87868 7.73321 9.6001 7.45464 9.6001 7.11099Z" fill="#222222"/>
<path d="M10.6667 10.1334C10.6667 10.3789 10.4677 10.5779 10.2223 10.5779C9.97682 10.5779 9.77783 10.3789 9.77783 10.1334C9.77783 9.88795 9.97682 9.68896 10.2223 9.68896C10.4677 9.68896 10.6667 9.88795 10.6667 10.1334Z" fill="#C9E4EA"/>
<path fill-rule="evenodd" clip-rule="evenodd" d="M10.2223 9.86679C10.075 9.86679 9.95565 9.98618 9.95565 10.1335C9.95565 10.2807 10.075 10.4001 10.2223 10.4001C10.3696 10.4001 10.489 10.2807 10.489 10.1335C10.489 9.98618 10.3696 9.86679 10.2223 9.86679ZM9.6001 10.1335C9.6001 9.78981 9.87868 9.51123 10.2223 9.51123C10.566 9.51123 10.8445 9.78981 10.8445 10.1335C10.8445 10.4771 10.566 10.7557 10.2223 10.7557C9.87868 10.7557 9.6001 10.4771 9.6001 10.1335Z" fill="#222222"/>
<path d="M12.4443 12.8888C12.4443 12.6433 12.6433 12.4443 12.8888 12.4443H20.8888C21.1342 12.4443 21.3332 12.6433 21.3332 12.8888V14.9332C21.3332 15.1787 21.1342 15.3777 20.8888 15.3777H12.8888C12.6433 15.3777 12.4443 15.1787 12.4443 14.9332V12.8888Z" fill="url(#paint0_linear_6805_186011)"/>
<path fill-rule="evenodd" clip-rule="evenodd" d="M12.2666 12.8888C12.2666 12.5452 12.5452 12.2666 12.8888 12.2666H20.8888C21.2325 12.2666 21.511 12.5452 21.511 12.8888V14.9333C21.511 15.2769 21.2325 15.5555 20.8888 15.5555H12.8888C12.5452 15.5555 12.2666 15.2769 12.2666 14.9333V12.8888ZM12.8888 12.6222C12.7415 12.6222 12.6222 12.7415 12.6222 12.8888V14.9333C12.6222 15.0805 12.7415 15.1999 12.8888 15.1999H20.8888C21.0361 15.1999 21.1555 15.0805 21.1555 14.9333V12.8888C21.1555 12.7415 21.0361 12.6222 20.8888 12.6222H12.8888Z" fill="#222222"/>
<path d="M12.4443 15.8224C12.4443 15.5769 12.6433 15.3779 12.8888 15.3779H20.8888C21.1342 15.3779 21.3332 15.5769 21.3332 15.8224V17.9557C21.3332 18.2012 21.1342 18.4002 20.8888 18.4002H12.8888C12.6433 18.4002 12.4443 18.2012 12.4443 17.9557V15.8224Z" fill="url(#paint1_linear_6805_186011)"/>
<path fill-rule="evenodd" clip-rule="evenodd" d="M12.2666 15.8219C12.2666 15.4783 12.5452 15.1997 12.8888 15.1997H20.8888C21.2325 15.1997 21.511 15.4783 21.511 15.8219V17.9553C21.511 18.2989 21.2325 18.5775 20.8888 18.5775H12.8888C12.5452 18.5775 12.2666 18.2989 12.2666 17.9553V15.8219ZM12.8888 15.5553C12.7415 15.5553 12.6222 15.6747 12.6222 15.8219V17.9553C12.6222 18.1025 12.7415 18.2219 12.8888 18.2219H20.8888C21.0361 18.2219 21.1555 18.1025 21.1555 17.9553V15.8219C21.1555 15.6747 21.0361 15.5553 20.8888 15.5553H12.8888Z" fill="#222222"/>
<path d="M12.4443 18.8443C12.4443 18.5989 12.6433 18.3999 12.8888 18.3999H20.8888C21.1342 18.3999 21.3332 18.5989 21.3332 18.8443V20.8888C21.3332 21.1343 21.1342 21.3332 20.8888 21.3332H12.8888C12.6433 21.3332 12.4443 21.1343 12.4443 20.8888V18.8443Z" fill="url(#paint2_linear_6805_186011)"/>
<path fill-rule="evenodd" clip-rule="evenodd" d="M12.2666 18.8444C12.2666 18.5007 12.5452 18.2222 12.8888 18.2222H20.8888C21.2325 18.2222 21.511 18.5007 21.511 18.8444V20.8888C21.511 21.2325 21.2325 21.5111 20.8888 21.5111H12.8888C12.5452 21.5111 12.2666 21.2325 12.2666 20.8888V18.8444ZM12.8888 18.5777C12.7415 18.5777 12.6222 18.6971 12.6222 18.8444V20.8888C12.6222 21.0361 12.7415 21.1555 12.8888 21.1555H20.8888C21.0361 21.1555 21.1555 21.0361 21.1555 20.8888V18.8444C21.1555 18.6971 21.0361 18.5777 20.8888 18.5777H12.8888Z" fill="#222222"/>
<path d="M20.4446 13.8668C20.4446 14.1123 20.2456 14.3113 20.0001 14.3113C19.7546 14.3113 19.5557 14.1123 19.5557 13.8668C19.5557 13.6213 19.7546 13.4224 20.0001 13.4224C20.2456 13.4224 20.4446 13.6213 20.4446 13.8668Z" fill="#C9E4EA"/>
<path fill-rule="evenodd" clip-rule="evenodd" d="M20.0002 13.5997C19.8529 13.5997 19.7335 13.7191 19.7335 13.8664C19.7335 14.0136 19.8529 14.133 20.0002 14.133C20.1474 14.133 20.2668 14.0136 20.2668 13.8664C20.2668 13.7191 20.1474 13.5997 20.0002 13.5997ZM19.3779 13.8664C19.3779 13.5227 19.6565 13.2441 20.0002 13.2441C20.3438 13.2441 20.6224 13.5227 20.6224 13.8664C20.6224 14.21 20.3438 14.4886 20.0002 14.4886C19.6565 14.4886 19.3779 14.21 19.3779 13.8664Z" fill="#222222"/>
<path d="M20.4446 16.8888C20.4446 17.1342 20.2456 17.3332 20.0001 17.3332C19.7546 17.3332 19.5557 17.1342 19.5557 16.8888C19.5557 16.6433 19.7546 16.4443 20.0001 16.4443C20.2456 16.4443 20.4446 16.6433 20.4446 16.8888Z" fill="#C9E4EA"/>
<path fill-rule="evenodd" clip-rule="evenodd" d="M20.0002 16.6222C19.8529 16.6222 19.7335 16.7415 19.7335 16.8888C19.7335 17.0361 19.8529 17.1555 20.0002 17.1555C20.1474 17.1555 20.2668 17.0361 20.2668 16.8888C20.2668 16.7415 20.1474 16.6222 20.0002 16.6222ZM19.3779 16.8888C19.3779 16.5452 19.6565 16.2666 20.0002 16.2666C20.3438 16.2666 20.6224 16.5452 20.6224 16.8888C20.6224 17.2325 20.3438 17.511 20.0002 17.511C19.6565 17.511 19.3779 17.2325 19.3779 16.8888Z" fill="#222222"/>
<path d="M20.4446 19.9112C20.4446 20.1567 20.2456 20.3557 20.0001 20.3557C19.7546 20.3557 19.5557 20.1567 19.5557 19.9112C19.5557 19.6658 19.7546 19.4668 20.0001 19.4668C20.2456 19.4668 20.4446 19.6658 20.4446 19.9112Z" fill="#C9E4EA"/>
<path fill-rule="evenodd" clip-rule="evenodd" d="M20.0002 19.6446C19.8529 19.6446 19.7335 19.764 19.7335 19.9113C19.7335 20.0586 19.8529 20.178 20.0002 20.178C20.1474 20.178 20.2668 20.0586 20.2668 19.9113C20.2668 19.764 20.1474 19.6446 20.0002 19.6446ZM19.3779 19.9113C19.3779 19.5676 19.6565 19.2891 20.0002 19.2891C20.3438 19.2891 20.6224 19.5676 20.6224 19.9113C20.6224 20.2549 20.3438 20.5335 20.0002 20.5335C19.6565 20.5335 19.3779 20.2549 19.3779 19.9113Z" fill="#222222"/>
<defs>
<linearGradient id="paint0_linear_6805_186011" x1="21.3332" y1="13.911" x2="12.4443" y2="13.911" gradientUnits="userSpaceOnUse">
<stop stop-color="#A1FF8B"/>
<stop offset="1" stop-color="#3F93FF"/>
</linearGradient>
<linearGradient id="paint1_linear_6805_186011" x1="21.3332" y1="16.889" x2="12.4443" y2="16.889" gradientUnits="userSpaceOnUse">
<stop stop-color="#A1FF8B"/>
<stop offset="1" stop-color="#3F93FF"/>
</linearGradient>
<linearGradient id="paint2_linear_6805_186011" x1="21.3332" y1="19.8666" x2="12.4443" y2="19.8666" gradientUnits="userSpaceOnUse">
<stop stop-color="#A1FF8B"/>
<stop offset="1" stop-color="#3F93FF"/>
</linearGradient>
</defs>
</svg>
