<svg width="24" height="24" viewBox="0 0 24 24" fill="none" xmlns="http://www.w3.org/2000/svg">
<path d="M9.33333 21.333C8.59695 21.333 8 20.7361 8 19.9997L8 3.99967C8 3.26329 8.59695 2.66634 9.33333 2.66634C10.0697 2.66634 10.6667 3.26329 10.6667 3.99967L10.6667 19.9997C10.6667 20.7361 10.0697 21.333 9.33333 21.333Z" fill="url(#paint0_linear_6805_220422)"/>
<path d="M21.333 9.33333C21.333 8.59695 20.7361 8 19.9997 8L3.99967 8C3.26329 8 2.66634 8.59695 2.66634 9.33333C2.66634 10.0697 3.26329 10.6667 3.99967 10.6667L19.9997 10.6667C20.7361 10.6667 21.333 10.0697 21.333 9.33333Z" fill="url(#paint1_linear_6805_220422)"/>
<path d="M8 19.9998C8 19.2635 8.59695 18.6665 9.33333 18.6665C10.0697 18.6665 10.6667 19.2635 10.6667 19.9998C10.6667 20.7362 10.0697 21.3332 9.33333 21.3332C8.59695 21.3332 8 20.7362 8 19.9998Z" fill="url(#paint2_linear_6805_220422)"/>
<path fill-rule="evenodd" clip-rule="evenodd" d="M7.82227 19.9999C7.82227 19.1653 8.49881 18.4888 9.33338 18.4888C10.1679 18.4888 10.8445 19.1653 10.8445 19.9999C10.8445 20.8344 10.1679 21.511 9.33338 21.511C8.49881 21.511 7.82227 20.8344 7.82227 19.9999ZM9.33338 18.8443C8.69518 18.8443 8.17782 19.3617 8.17782 19.9999C8.17782 20.6381 8.69518 21.1554 9.33338 21.1554C9.97157 21.1554 10.4889 20.6381 10.4889 19.9999C10.4889 19.3617 9.97157 18.8443 9.33338 18.8443Z" fill="#222222"/>
<path d="M18.6665 3.99984C18.6665 3.26346 19.2635 2.6665 19.9998 2.6665C20.7362 2.6665 21.3332 3.26346 21.3332 3.99984C21.3332 4.73622 20.7362 5.33317 19.9998 5.33317C19.2635 5.33317 18.6665 4.73622 18.6665 3.99984Z" fill="#C9E4EA"/>
<path fill-rule="evenodd" clip-rule="evenodd" d="M18.4888 3.99988C18.4888 3.16532 19.1653 2.48877 19.9999 2.48877C20.8344 2.48877 21.511 3.16532 21.511 3.99988C21.511 4.83444 20.8344 5.51099 19.9999 5.51099C19.1653 5.51099 18.4888 4.83444 18.4888 3.99988ZM19.9999 2.84433C19.3617 2.84433 18.8443 3.36168 18.8443 3.99988C18.8443 4.63808 19.3617 5.15544 19.9999 5.15544C20.6381 5.15544 21.1554 4.63808 21.1554 3.99988C21.1554 3.36168 20.6381 2.84433 19.9999 2.84433Z" fill="#222222"/>
<path d="M2.6665 9.33333C2.6665 8.59695 3.26346 8 3.99984 8C4.73622 8 5.33317 8.59695 5.33317 9.33333C5.33317 10.0697 4.73622 10.6667 3.99984 10.6667C3.26346 10.6667 2.6665 10.0697 2.6665 9.33333Z" fill="url(#paint3_linear_6805_220422)"/>
<path fill-rule="evenodd" clip-rule="evenodd" d="M2.48877 9.33338C2.48877 8.49881 3.16532 7.82227 3.99988 7.82227C4.83444 7.82227 5.51099 8.49881 5.51099 9.33338C5.51099 10.1679 4.83444 10.8445 3.99988 10.8445C3.16532 10.8445 2.48877 10.1679 2.48877 9.33338ZM3.99988 8.17782C3.36168 8.17782 2.84433 8.69518 2.84433 9.33338C2.84433 9.97157 3.36168 10.4889 3.99988 10.4889C4.63808 10.4889 5.15544 9.97157 5.15544 9.33338C5.15544 8.69518 4.63808 8.17782 3.99988 8.17782Z" fill="#222222"/>
<path d="M18.6665 14.6663C18.6665 13.93 19.2635 13.333 19.9998 13.333C20.7362 13.333 21.3332 13.93 21.3332 14.6663C21.3332 15.4027 20.7362 15.9997 19.9998 15.9997C19.2635 15.9997 18.6665 15.4027 18.6665 14.6663Z" fill="#C9E4EA"/>
<path fill-rule="evenodd" clip-rule="evenodd" d="M18.4888 14.6664C18.4888 13.8318 19.1653 13.1553 19.9999 13.1553C20.8344 13.1553 21.511 13.8318 21.511 14.6664C21.511 15.5009 20.8344 16.1775 19.9999 16.1775C19.1653 16.1775 18.4888 15.5009 18.4888 14.6664ZM19.9999 13.5108C19.3617 13.5108 18.8443 14.0282 18.8443 14.6664C18.8443 15.3046 19.3617 15.8219 19.9999 15.8219C20.6381 15.8219 21.1554 15.3046 21.1554 14.6664C21.1554 14.0282 20.6381 13.5108 19.9999 13.5108Z" fill="#222222"/>
<path d="M13.333 14.6663C13.333 13.93 13.93 13.333 14.6663 13.333C15.4027 13.333 15.9997 13.93 15.9997 14.6663C15.9997 15.4027 15.4027 15.9997 14.6663 15.9997C13.93 15.9997 13.333 15.4027 13.333 14.6663Z" fill="white"/>
<path fill-rule="evenodd" clip-rule="evenodd" d="M13.1553 14.6664C13.1553 13.8318 13.8318 13.1553 14.6664 13.1553C15.5009 13.1553 16.1775 13.8318 16.1775 14.6664C16.1775 15.5009 15.5009 16.1775 14.6664 16.1775C13.8318 16.1775 13.1553 15.5009 13.1553 14.6664ZM14.6664 13.5108C14.0282 13.5108 13.5108 14.0282 13.5108 14.6664C13.5108 15.3046 14.0282 15.8219 14.6664 15.8219C15.3046 15.8219 15.8219 15.3046 15.8219 14.6664C15.8219 14.0282 15.3046 13.5108 14.6664 13.5108Z" fill="#222222"/>
<path d="M18.6665 9.33333C18.6665 8.59695 19.2635 8 19.9998 8C20.7362 8 21.3332 8.59695 21.3332 9.33333C21.3332 10.0697 20.7362 10.6667 19.9998 10.6667C19.2635 10.6667 18.6665 10.0697 18.6665 9.33333Z" fill="url(#paint4_linear_6805_220422)"/>
<path fill-rule="evenodd" clip-rule="evenodd" d="M18.4888 9.33338C18.4888 8.49881 19.1653 7.82227 19.9999 7.82227C20.8344 7.82227 21.511 8.49881 21.511 9.33338C21.511 10.1679 20.8344 10.8445 19.9999 10.8445C19.1653 10.8445 18.4888 10.1679 18.4888 9.33338ZM19.9999 8.17782C19.3617 8.17782 18.8443 8.69518 18.8443 9.33338C18.8443 9.97157 19.3617 10.4889 19.9999 10.4889C20.6381 10.4889 21.1554 9.97157 21.1554 9.33338C21.1554 8.69518 20.6381 8.17782 19.9999 8.17782Z" fill="#222222"/>
<path d="M2.6665 19.9998C2.6665 19.2635 3.26346 18.6665 3.99984 18.6665C4.73622 18.6665 5.33317 19.2635 5.33317 19.9998C5.33317 20.7362 4.73622 21.3332 3.99984 21.3332C3.26346 21.3332 2.6665 20.7362 2.6665 19.9998Z" fill="#C9E4EA"/>
<path fill-rule="evenodd" clip-rule="evenodd" d="M2.48877 19.9999C2.48877 19.1653 3.16532 18.4888 3.99988 18.4888C4.83444 18.4888 5.51099 19.1653 5.51099 19.9999C5.51099 20.8344 4.83444 21.511 3.99988 21.511C3.16532 21.511 2.48877 20.8344 2.48877 19.9999ZM3.99988 18.8443C3.36168 18.8443 2.84433 19.3617 2.84433 19.9999C2.84433 20.6381 3.36168 21.1554 3.99988 21.1554C4.63808 21.1554 5.15544 20.6381 5.15544 19.9999C5.15544 19.3617 4.63808 18.8443 3.99988 18.8443Z" fill="#222222"/>
<path d="M8 3.99984C8 3.26346 8.59695 2.6665 9.33333 2.6665C10.0697 2.6665 10.6667 3.26346 10.6667 3.99984C10.6667 4.73622 10.0697 5.33317 9.33333 5.33317C8.59695 5.33317 8 4.73622 8 3.99984Z" fill="url(#paint5_linear_6805_220422)"/>
<path fill-rule="evenodd" clip-rule="evenodd" d="M7.82227 3.99988C7.82227 3.16532 8.49881 2.48877 9.33338 2.48877C10.1679 2.48877 10.8445 3.16532 10.8445 3.99988C10.8445 4.83444 10.1679 5.51099 9.33338 5.51099C8.49881 5.51099 7.82227 4.83444 7.82227 3.99988ZM9.33338 2.84433C8.69518 2.84433 8.17782 3.36168 8.17782 3.99988C8.17782 4.63808 8.69518 5.15544 9.33338 5.15544C9.97157 5.15544 10.4889 4.63808 10.4889 3.99988C10.4889 3.36168 9.97157 2.84433 9.33338 2.84433Z" fill="#222222"/>
<path d="M2.6665 3.99984C2.6665 3.26346 3.26346 2.6665 3.99984 2.6665C4.73622 2.6665 5.33317 3.26346 5.33317 3.99984C5.33317 4.73622 4.73622 5.33317 3.99984 5.33317C3.26346 5.33317 2.6665 4.73622 2.6665 3.99984Z" fill="white"/>
<path fill-rule="evenodd" clip-rule="evenodd" d="M2.48877 3.99988C2.48877 3.16532 3.16532 2.48877 3.99988 2.48877C4.83444 2.48877 5.51099 3.16532 5.51099 3.99988C5.51099 4.83444 4.83444 5.51099 3.99988 5.51099C3.16532 5.51099 2.48877 4.83444 2.48877 3.99988ZM3.99988 2.84433C3.36168 2.84433 2.84433 3.36168 2.84433 3.99988C2.84433 4.63808 3.36168 5.15544 3.99988 5.15544C4.63808 5.15544 5.15544 4.63808 5.15544 3.99988C5.15544 3.36168 4.63808 2.84433 3.99988 2.84433Z" fill="#222222"/>
<path d="M2.6665 14.6663C2.6665 13.93 3.26346 13.333 3.99984 13.333C4.73622 13.333 5.33317 13.93 5.33317 14.6663C5.33317 15.4027 4.73622 15.9997 3.99984 15.9997C3.26346 15.9997 2.6665 15.4027 2.6665 14.6663Z" fill="white"/>
<path fill-rule="evenodd" clip-rule="evenodd" d="M2.48877 14.6664C2.48877 13.8318 3.16532 13.1553 3.99988 13.1553C4.83444 13.1553 5.51099 13.8318 5.51099 14.6664C5.51099 15.5009 4.83444 16.1775 3.99988 16.1775C3.16532 16.1775 2.48877 15.5009 2.48877 14.6664ZM3.99988 13.5108C3.36168 13.5108 2.84433 14.0282 2.84433 14.6664C2.84433 15.3046 3.36168 15.8219 3.99988 15.8219C4.63808 15.8219 5.15544 15.3046 5.15544 14.6664C5.15544 14.0282 4.63808 13.5108 3.99988 13.5108Z" fill="#222222"/>
<path d="M13.333 3.99984C13.333 3.26346 13.93 2.6665 14.6663 2.6665C15.4027 2.6665 15.9997 3.26346 15.9997 3.99984C15.9997 4.73622 15.4027 5.33317 14.6663 5.33317C13.93 5.33317 13.333 4.73622 13.333 3.99984Z" fill="white"/>
<path fill-rule="evenodd" clip-rule="evenodd" d="M13.1553 3.99988C13.1553 3.16532 13.8318 2.48877 14.6664 2.48877C15.5009 2.48877 16.1775 3.16532 16.1775 3.99988C16.1775 4.83444 15.5009 5.51099 14.6664 5.51099C13.8318 5.51099 13.1553 4.83444 13.1553 3.99988ZM14.6664 2.84433C14.0282 2.84433 13.5108 3.36168 13.5108 3.99988C13.5108 4.63808 14.0282 5.15544 14.6664 5.15544C15.3046 5.15544 15.8219 4.63808 15.8219 3.99988C15.8219 3.36168 15.3046 2.84433 14.6664 2.84433Z" fill="#222222"/>
<path d="M13.333 19.9998C13.333 19.2635 13.93 18.6665 14.6663 18.6665C15.4027 18.6665 15.9997 19.2635 15.9997 19.9998C15.9997 20.7362 15.4027 21.3332 14.6663 21.3332C13.93 21.3332 13.333 20.7362 13.333 19.9998Z" fill="#C9E4EA"/>
<path fill-rule="evenodd" clip-rule="evenodd" d="M13.1553 19.9999C13.1553 19.1653 13.8318 18.4888 14.6664 18.4888C15.5009 18.4888 16.1775 19.1653 16.1775 19.9999C16.1775 20.8344 15.5009 21.511 14.6664 21.511C13.8318 21.511 13.1553 20.8344 13.1553 19.9999ZM14.6664 18.8443C14.0282 18.8443 13.5108 19.3617 13.5108 19.9999C13.5108 20.6381 14.0282 21.1554 14.6664 21.1554C15.3046 21.1554 15.8219 20.6381 15.8219 19.9999C15.8219 19.3617 15.3046 18.8443 14.6664 18.8443Z" fill="#222222"/>
<path d="M18.6665 19.9998C18.6665 19.2635 19.2635 18.6665 19.9998 18.6665C20.7362 18.6665 21.3332 19.2635 21.3332 19.9998C21.3332 20.7362 20.7362 21.3332 19.9998 21.3332C19.2635 21.3332 18.6665 20.7362 18.6665 19.9998Z" fill="white"/>
<path fill-rule="evenodd" clip-rule="evenodd" d="M18.4888 19.9999C18.4888 19.1653 19.1653 18.4888 19.9999 18.4888C20.8344 18.4888 21.511 19.1653 21.511 19.9999C21.511 20.8344 20.8344 21.511 19.9999 21.511C19.1653 21.511 18.4888 20.8344 18.4888 19.9999ZM19.9999 18.8443C19.3617 18.8443 18.8443 19.3617 18.8443 19.9999C18.8443 20.6381 19.3617 21.1554 19.9999 21.1554C20.6381 21.1554 21.1554 20.6381 21.1554 19.9999C21.1554 19.3617 20.6381 18.8443 19.9999 18.8443Z" fill="#222222"/>
<defs>
<linearGradient id="paint0_linear_6805_220422" x1="9.33333" y1="2.66634" x2="9.33333" y2="21.333" gradientUnits="userSpaceOnUse">
<stop stop-color="#A1FF8B"/>
<stop offset="1" stop-color="#3F93FF"/>
</linearGradient>
<linearGradient id="paint1_linear_6805_220422" x1="2.66634" y1="9.33333" x2="21.333" y2="9.33333" gradientUnits="userSpaceOnUse">
<stop stop-color="#A1FF8B"/>
<stop offset="1" stop-color="#3F93FF"/>
</linearGradient>
<linearGradient id="paint2_linear_6805_220422" x1="10.6667" y1="18.6665" x2="8" y2="21.3332" gradientUnits="userSpaceOnUse">
<stop stop-color="#A1FF8B"/>
<stop offset="1" stop-color="#3F93FF"/>
</linearGradient>
<linearGradient id="paint3_linear_6805_220422" x1="5.33317" y1="8" x2="2.6665" y2="10.6667" gradientUnits="userSpaceOnUse">
<stop stop-color="#A1FF8B"/>
<stop offset="1" stop-color="#3F93FF"/>
</linearGradient>
<linearGradient id="paint4_linear_6805_220422" x1="21.3332" y1="8" x2="18.6665" y2="10.6667" gradientUnits="userSpaceOnUse">
<stop stop-color="#A1FF8B"/>
<stop offset="1" stop-color="#3F93FF"/>
</linearGradient>
<linearGradient id="paint5_linear_6805_220422" x1="10.6667" y1="2.6665" x2="8" y2="5.33317" gradientUnits="userSpaceOnUse">
<stop stop-color="#A1FF8B"/>
<stop offset="1" stop-color="#3F93FF"/>
</linearGradient>
</defs>
</svg>
