<svg width="24" height="24" viewBox="0 0 24 24" fill="none" xmlns="http://www.w3.org/2000/svg">
<path d="M2.6665 3.11095C2.6665 2.86549 2.86549 2.6665 3.11095 2.6665H20.8887C21.1342 2.6665 21.3332 2.86549 21.3332 3.11095V20.8887C21.3332 21.1342 21.1342 21.3332 20.8887 21.3332H3.11095C2.86549 21.3332 2.6665 21.1342 2.6665 20.8887V3.11095Z" fill="white"/>
<path fill-rule="evenodd" clip-rule="evenodd" d="M2.48877 3.11099C2.48877 2.76735 2.76735 2.48877 3.11099 2.48877H20.8888C21.2324 2.48877 21.511 2.76735 21.511 3.11099V20.8888C21.511 21.2324 21.2324 21.511 20.8888 21.511H3.11099C2.76735 21.511 2.48877 21.2324 2.48877 20.8888V3.11099ZM3.11099 2.84433C2.96372 2.84433 2.84433 2.96372 2.84433 3.11099V20.8888C2.84433 21.036 2.96372 21.1554 3.11099 21.1554H20.8888C21.036 21.1554 21.1554 21.036 21.1554 20.8888V3.11099C21.1554 2.96372 21.036 2.84433 20.8888 2.84433H3.11099Z" fill="#222222"/>
<path d="M2.6665 3.11095C2.6665 2.86549 2.86549 2.6665 3.11095 2.6665H20.8887C21.1342 2.6665 21.3332 2.86549 21.3332 3.11095V4.44428H2.6665V3.11095Z" fill="url(#paint0_linear_6805_220489)"/>
<path fill-rule="evenodd" clip-rule="evenodd" d="M2.48877 3.11099C2.48877 2.76735 2.76735 2.48877 3.11099 2.48877H20.8888C21.2324 2.48877 21.511 2.76735 21.511 3.11099V4.44433C21.511 4.54251 21.4314 4.6221 21.3332 4.6221H2.66655C2.56836 4.6221 2.48877 4.54251 2.48877 4.44433V3.11099ZM3.11099 2.84433C2.96372 2.84433 2.84433 2.96372 2.84433 3.11099V4.26655H21.1554V3.11099C21.1554 2.96372 21.036 2.84433 20.8888 2.84433H3.11099Z" fill="#222222"/>
<path d="M19.7651 20.3547C19.758 20.3793 19.7435 20.4011 19.7234 20.4171C19.7034 20.4331 19.6789 20.4425 19.6533 20.444C19.6277 20.4454 19.6023 20.4389 19.5806 20.4253C19.5589 20.4117 19.5419 20.3917 19.5321 20.3681L17.4312 15.2818C17.4219 15.2592 17.4195 15.2343 17.4243 15.2103C17.429 15.1864 17.4408 15.1644 17.4581 15.1471C17.4754 15.1298 17.4974 15.118 17.5214 15.1132C17.5453 15.1084 17.5702 15.1109 17.5928 15.1202L22.6791 17.221C22.7028 17.2309 22.7228 17.2479 22.7364 17.2696C22.75 17.2913 22.7565 17.3167 22.755 17.3423C22.7535 17.3679 22.7442 17.3924 22.7282 17.4124C22.7122 17.4324 22.6904 17.447 22.6657 17.4541L20.4759 18.0802C20.4557 18.086 20.4373 18.0968 20.4224 18.1117C20.4076 18.1265 20.3968 18.1449 20.391 18.1651L19.7651 20.3547Z" fill="#C9E4EA"/>
<path fill-rule="evenodd" clip-rule="evenodd" d="M17.6453 15.3343L19.637 20.1563L20.2201 18.1162C20.2342 18.067 20.2606 18.0222 20.2968 17.986C20.333 17.9498 20.3778 17.9234 20.4269 17.9094L22.4674 17.3259L17.6453 15.3343ZM17.4866 14.9389C17.5451 14.9273 17.6056 14.9332 17.6607 14.9559L22.7475 17.057C22.8052 17.081 22.8539 17.1223 22.8871 17.1753C22.9202 17.2282 22.9361 17.2901 22.9325 17.3525C22.929 17.4149 22.9061 17.4746 22.8671 17.5234C22.8282 17.5722 22.775 17.6077 22.715 17.625L20.5537 18.2429L19.936 20.4039C19.9187 20.464 19.8832 20.5171 19.8344 20.5561C19.7856 20.5951 19.7259 20.6179 19.6635 20.6215C19.6012 20.6251 19.5393 20.6092 19.4863 20.5761C19.4334 20.5429 19.392 20.4941 19.368 20.4365L19.3678 20.436L17.267 15.3497C17.2442 15.2946 17.2383 15.234 17.25 15.1756C17.2616 15.1172 17.2903 15.0635 17.3324 15.0214C17.3746 14.9793 17.4282 14.9506 17.4866 14.9389Z" fill="#222222"/>
<path d="M12.4555 12.376L13.8221 6.22217L8.35547 13.4017H11.5444L10.1777 19.5555L15.6444 12.376H12.4555Z" fill="url(#paint1_linear_6805_220489)"/>
<path fill-rule="evenodd" clip-rule="evenodd" d="M13.897 6.06098C13.9728 6.09614 14.0138 6.17926 13.9957 6.26077L12.6771 12.1983H15.6444C15.712 12.1983 15.7737 12.2366 15.8037 12.2971C15.8337 12.3577 15.8268 12.43 15.7858 12.4838L10.3192 19.6633C10.2686 19.7297 10.1786 19.752 10.1029 19.7168C10.0271 19.6816 9.98608 19.5985 10.0042 19.517L11.3228 13.5795H8.35551C8.28794 13.5795 8.22621 13.5412 8.19622 13.4806C8.16622 13.4201 8.17314 13.3478 8.21407 13.294L13.6807 6.11453C13.7313 6.0481 13.8213 6.02582 13.897 6.06098ZM8.71433 13.2239H11.5444C11.5983 13.2239 11.6493 13.2484 11.6831 13.2905C11.7168 13.3325 11.7296 13.3876 11.718 13.4403L10.5268 18.8036L15.2856 12.5538H12.4555C12.4016 12.5538 12.3506 12.5294 12.3168 12.4873C12.2831 12.4453 12.2703 12.3902 12.282 12.3375L13.4731 6.97417L8.71433 13.2239Z" fill="#222222"/>
<path fill-rule="evenodd" clip-rule="evenodd" d="M6.13318 15.8223C6.23137 15.8223 6.31096 15.9019 6.31096 16V16.6667C6.31096 16.7649 6.23137 16.8445 6.13318 16.8445C6.035 16.8445 5.9554 16.7649 5.9554 16.6667V16C5.9554 15.9019 6.035 15.8223 6.13318 15.8223ZM4.62207 17.3334C4.62207 17.2352 4.70166 17.1556 4.79985 17.1556H5.46651C5.5647 17.1556 5.64429 17.2352 5.64429 17.3334C5.64429 17.4316 5.5647 17.5112 5.46651 17.5112H4.79985C4.70166 17.5112 4.62207 17.4316 4.62207 17.3334ZM6.62207 17.3334C6.62207 17.2352 6.70166 17.1556 6.79985 17.1556H7.46651C7.5647 17.1556 7.64429 17.2352 7.64429 17.3334C7.64429 17.4316 7.5647 17.5112 7.46651 17.5112H6.79985C6.70166 17.5112 6.62207 17.4316 6.62207 17.3334ZM6.13318 17.8223C6.23137 17.8223 6.31096 17.9019 6.31096 18V18.6667C6.31096 18.7649 6.23137 18.8445 6.13318 18.8445C6.035 18.8445 5.9554 18.7649 5.9554 18.6667V18C5.9554 17.9019 6.035 17.8223 6.13318 17.8223Z" fill="#222222"/>
<path fill-rule="evenodd" clip-rule="evenodd" d="M18.4887 9.15527C18.5868 9.15527 18.6664 9.23487 18.6664 9.33305V9.99972C18.6664 10.0979 18.5868 10.1775 18.4887 10.1775C18.3905 10.1775 18.3109 10.0979 18.3109 9.99972V9.33305C18.3109 9.23487 18.3905 9.15527 18.4887 9.15527ZM16.9775 10.6664C16.9775 10.5682 17.0571 10.4886 17.1553 10.4886H17.822C17.9202 10.4886 17.9998 10.5682 17.9998 10.6664C17.9998 10.7646 17.9202 10.8442 17.822 10.8442H17.1553C17.0571 10.8442 16.9775 10.7646 16.9775 10.6664ZM18.9775 10.6664C18.9775 10.5682 19.0571 10.4886 19.1553 10.4886H19.822C19.9202 10.4886 19.9998 10.5682 19.9998 10.6664C19.9998 10.7646 19.9202 10.8442 19.822 10.8442H19.1553C19.0571 10.8442 18.9775 10.7646 18.9775 10.6664ZM18.4887 11.1553C18.5868 11.1553 18.6664 11.2349 18.6664 11.3331V11.9997C18.6664 12.0979 18.5868 12.1775 18.4887 12.1775C18.3905 12.1775 18.3109 12.0979 18.3109 11.9997V11.3331C18.3109 11.2349 18.3905 11.1553 18.4887 11.1553Z" fill="#222222"/>
<path fill-rule="evenodd" clip-rule="evenodd" d="M9.8667 6.5901C9.8667 6.68829 9.78711 6.76788 9.68892 6.76788L9.24448 6.76788C9.14629 6.76788 9.0667 6.68829 9.0667 6.5901C9.0667 6.49192 9.14629 6.41233 9.24448 6.41233L9.68892 6.41233C9.78711 6.41233 9.8667 6.49192 9.8667 6.5901ZM8.80003 5.52344C8.89822 5.52344 8.97781 5.60303 8.97781 5.70122L8.97781 6.14566C8.97781 6.24384 8.89822 6.32344 8.80003 6.32344C8.70185 6.32344 8.62225 6.24384 8.62225 6.14566L8.62225 5.70122C8.62225 5.60303 8.70185 5.52344 8.80003 5.52344ZM8.80003 6.85677C8.89822 6.85677 8.97781 6.93636 8.97781 7.03455L8.97781 7.47899C8.97781 7.57718 8.89822 7.65677 8.80003 7.65677C8.70185 7.65677 8.62225 7.57718 8.62225 7.47899L8.62225 7.03455C8.62225 6.93636 8.70185 6.85677 8.80003 6.85677ZM8.53337 6.5901C8.53337 6.68829 8.45377 6.76788 8.35559 6.76788L7.91114 6.76788C7.81296 6.76788 7.73337 6.68829 7.73337 6.5901C7.73337 6.49192 7.81296 6.41233 7.91114 6.41233L8.35559 6.41233C8.45377 6.41233 8.53337 6.49192 8.53337 6.5901Z" fill="#222222"/>
<defs>
<linearGradient id="paint0_linear_6805_220489" x1="21.3332" y1="3.55539" x2="2.6665" y2="3.55539" gradientUnits="userSpaceOnUse">
<stop stop-color="#A1FF8B"/>
<stop offset="1" stop-color="#3F93FF"/>
</linearGradient>
<linearGradient id="paint1_linear_6805_220489" x1="15.6444" y1="12.8888" x2="8.35547" y2="12.8888" gradientUnits="userSpaceOnUse">
<stop stop-color="#A1FF8B"/>
<stop offset="1" stop-color="#3F93FF"/>
</linearGradient>
</defs>
</svg>
