<svg width="24" height="24" viewBox="0 0 24 24" fill="none" xmlns="http://www.w3.org/2000/svg">
<path d="M22.2223 12.0001C22.2223 17.6457 17.6457 22.2223 12.0001 22.2223C6.35448 22.2223 1.77783 17.6457 1.77783 12.0001C1.77783 6.35448 6.35448 1.77783 12.0001 1.77783C17.6457 1.77783 22.2223 6.35448 22.2223 12.0001Z" fill="white"/>
<path fill-rule="evenodd" clip-rule="evenodd" d="M13.1111 6.22217H10.8888V7.99733L9.95532 8.38399L8.70011 7.12876L7.12876 8.70011L8.36558 9.93692L7.9713 10.8888H6.22217V13.1111H7.9713L8.36558 14.063L7.12876 15.2998L8.70011 16.8711L9.95532 15.6159L10.8888 16.0025V17.7777H13.1111V15.9657L14.0185 15.5899L15.2998 16.8711L16.8711 15.2998L15.5714 14.0001L15.9397 13.1111H17.7777V10.8888H15.9397L15.5714 9.99977L16.8711 8.70011L15.2998 7.12876L14.0185 8.41003L13.1111 8.03415V6.22217ZM11.9555 14.6666C13.4283 14.6666 14.6222 13.4727 14.6222 11.9999C14.6222 10.5272 13.4283 9.33328 11.9555 9.33328C10.4827 9.33328 9.28883 10.5272 9.28883 11.9999C9.28883 13.4727 10.4827 14.6666 11.9555 14.6666Z" fill="url(#paint0_linear_673_3366)"/>
<path fill-rule="evenodd" clip-rule="evenodd" d="M10.7111 6.22221C10.7111 6.12402 10.7907 6.04443 10.8889 6.04443H13.1111C13.2093 6.04443 13.2889 6.12402 13.2889 6.22221V7.9154L13.9769 8.20037L15.1741 7.0031C15.2075 6.96976 15.2527 6.95103 15.2998 6.95103C15.3469 6.95103 15.3922 6.96976 15.4255 7.0031L16.9969 8.57445C17.0663 8.64387 17.0663 8.75644 16.9969 8.82586L15.7812 10.0415L16.0586 10.7111H17.7778C17.876 10.7111 17.9555 10.7907 17.9555 10.8889V13.1111C17.9555 13.2093 17.876 13.2889 17.7778 13.2889H16.0586L15.7812 13.9585L16.9969 15.1741C17.0663 15.2435 17.0663 15.3561 16.9969 15.4255L15.4255 16.9969C15.3561 17.0663 15.2435 17.0663 15.1741 16.9969L13.9769 15.7996L13.2889 16.0846V17.7778C13.2889 17.876 13.2093 17.9555 13.1111 17.9555H10.8889C10.7907 17.9555 10.7111 17.876 10.7111 17.7778V16.1214L9.99706 15.8257L8.82586 16.9969C8.75643 17.0663 8.64387 17.0663 8.57444 16.9969L7.0031 15.4255C6.96976 15.3922 6.95103 15.347 6.95103 15.2998C6.95103 15.2527 6.96976 15.2075 7.0031 15.1741L8.15593 14.0213L7.85255 13.2889H6.22221C6.12402 13.2889 6.04443 13.2093 6.04443 13.1111V10.8889C6.04443 10.7907 6.12402 10.7111 6.22221 10.7111H7.85255L8.15593 9.97866L7.0031 8.82586C6.96976 8.79252 6.95103 8.7473 6.95103 8.70016C6.95103 8.65301 6.96976 8.60779 7.0031 8.57445L8.57445 7.0031C8.64387 6.93368 8.75644 6.93368 8.82586 7.0031L9.99706 8.17434L10.7111 7.87858V6.22221ZM11.0667 6.39999V7.99738C11.0667 8.06928 11.0234 8.1341 10.9569 8.16162L10.0235 8.54828C9.95697 8.5758 9.88052 8.56059 9.82968 8.50975L8.70016 7.38023L7.38023 8.70016L8.49134 9.81128C8.54218 9.86212 8.55739 9.93857 8.52987 10.005L8.13558 10.9569C8.10807 11.0234 8.04324 11.0667 7.97134 11.0667H6.39999V12.9333H7.97134C8.04324 12.9333 8.10807 12.9766 8.13558 13.0431L8.52987 13.9949C8.55738 14.0614 8.54218 14.1379 8.49133 14.1887L7.38022 15.2998L8.70015 16.6197L9.82968 15.4902C9.88052 15.4394 9.95697 15.4242 10.0235 15.4517L10.9569 15.8384C11.0234 15.8659 11.0667 15.9307 11.0667 16.0026V17.6H12.9333V15.9658C12.9333 15.8939 12.9766 15.8291 13.0431 15.8015L13.9506 15.4257C14.017 15.3981 14.0934 15.4133 14.1443 15.4642L15.2998 16.6197L16.6197 15.2998L15.4458 14.1259C15.3949 14.075 15.3797 13.9986 15.4073 13.9321L15.7755 13.0431C15.803 12.9766 15.8678 12.9333 15.9397 12.9333H17.6V11.0667H15.9397C15.8678 11.0667 15.803 11.0234 15.7755 10.9569L15.4073 10.0679C15.3797 10.0014 15.3949 9.92497 15.4458 9.87412L16.6197 8.70016L15.2998 7.38022L14.1443 8.53578C14.0934 8.58662 14.017 8.60183 13.9505 8.57432L13.0431 8.19843C12.9766 8.17092 12.9333 8.1061 12.9333 8.03419V6.39999H11.0667ZM11.9555 9.5111C10.581 9.5111 9.46666 10.6254 9.46666 12C9.46666 13.3746 10.581 14.4889 11.9555 14.4889C13.3301 14.4889 14.4444 13.3746 14.4444 12C14.4444 10.6254 13.3301 9.5111 11.9555 9.5111ZM9.1111 12C9.1111 10.4291 10.3846 9.15554 11.9555 9.15554C13.5265 9.15554 14.8 10.4291 14.8 12C14.8 13.5709 13.5265 14.8444 11.9555 14.8444C10.3846 14.8444 9.1111 13.5709 9.1111 12Z" fill="#222222"/>
<path fill-rule="evenodd" clip-rule="evenodd" d="M10.9944 0.520698L12.1258 1.65207C12.1952 1.72149 12.1952 1.83406 12.1258 1.90348L10.9944 3.03485C10.925 3.10428 10.8125 3.10428 10.743 3.03485C10.6736 2.96543 10.6736 2.85287 10.743 2.78344L11.5613 1.96514C9.1921 2.06866 6.93031 3.00796 5.18194 4.62414C3.32592 6.33983 2.18494 8.69219 1.98664 11.2119C1.78833 13.7317 2.54726 16.2335 4.11204 18.2185C5.67682 20.2034 7.93241 21.5254 10.4288 21.9208L10.3732 22.2719C7.78842 21.8626 5.45299 20.4938 3.83282 18.4386C2.21265 16.3834 1.42685 13.793 1.63218 11.184C1.8375 8.57509 3.01886 6.13947 4.94059 4.36305C6.75911 2.68202 9.11414 1.70824 11.5794 1.60851L10.743 0.772114C10.6736 0.702687 10.6736 0.590125 10.743 0.520698C10.8125 0.451271 10.925 0.451271 10.9944 0.520698Z" fill="#222222"/>
<path fill-rule="evenodd" clip-rule="evenodd" d="M13.0057 23.3534L11.8743 22.222C11.8049 22.1526 11.8049 22.0401 11.8743 21.9707L13.0057 20.8393C13.0751 20.7699 13.1877 20.7699 13.2571 20.8393C13.3265 20.9087 13.3265 21.0212 13.2571 21.0907L12.4388 21.909C14.808 21.8055 17.0698 20.8662 18.8182 19.25C20.6742 17.5343 21.8151 15.1819 22.0134 12.6622C22.2118 10.1425 21.4528 7.64058 19.8881 5.65568C18.3233 3.67076 16.0678 2.34874 13.5713 1.95335L13.627 1.60217C16.2117 2.01156 18.5471 3.38038 20.1673 5.43555C21.7875 7.49072 22.5733 10.0811 22.3679 12.6901C22.1626 15.299 20.9813 17.7347 19.0595 19.5111C17.241 21.1921 14.886 22.1659 12.4207 22.2656L13.2571 23.102C13.3265 23.1715 13.3265 23.284 13.2571 23.3534C13.1877 23.4228 13.0751 23.4228 13.0057 23.3534Z" fill="#222222"/>
<defs>
<linearGradient id="paint0_linear_673_3366" x1="17.7777" y1="6.22217" x2="6.22217" y2="17.7777" gradientUnits="userSpaceOnUse">
<stop stop-color="#A1FF8B"/>
<stop offset="1" stop-color="#3F93FF"/>
</linearGradient>
</defs>
</svg>
