<svg width="24" height="24" viewBox="0 0 24 24" fill="none" xmlns="http://www.w3.org/2000/svg">
<path d="M11.9999 0.888672L4.44434 4.44423V13.7776C4.44434 17.9504 7.82707 21.3331 11.9999 21.3331C16.1727 21.3331 19.5554 17.9504 19.5554 13.7776V4.44423L11.9999 0.888672Z" fill="white"/>
<path fill-rule="evenodd" clip-rule="evenodd" d="M11.9242 0.727859C11.9722 0.705297 12.0277 0.705297 12.0756 0.727859L19.6312 4.28341C19.6935 4.31274 19.7333 4.37541 19.7333 4.44427V13.7776C19.7333 18.0486 16.2709 21.5109 11.9999 21.5109C7.72893 21.5109 4.2666 18.0486 4.2666 13.7776V4.44427C4.2666 4.37541 4.30637 4.31274 4.36868 4.28341L11.9242 0.727859ZM4.62216 4.55709V13.7776C4.62216 17.8522 7.9253 21.1554 11.9999 21.1554C16.0746 21.1554 19.3777 17.8522 19.3777 13.7776V4.55709L11.9999 1.08519L4.62216 4.55709Z" fill="#222222"/>
<path d="M13.0078 13.2294V14.2472H15.3827H17.7576V13.2294C17.7576 12.5995 17.5074 11.9955 17.062 11.5501C16.6166 11.1047 16.0126 10.8545 15.3827 10.8545C14.7528 10.8545 14.1488 11.1047 13.7034 11.5501C13.258 11.9955 13.0078 12.5995 13.0078 13.2294Z" fill="url(#paint0_linear_6805_185956)"/>
<path fill-rule="evenodd" clip-rule="evenodd" d="M13.5777 11.4244C14.0565 10.9457 14.7057 10.6768 15.3828 10.6768C16.0598 10.6768 16.709 10.9457 17.1878 11.4244C17.6665 11.9031 17.9354 12.5524 17.9354 13.2294V14.2472C17.9354 14.3454 17.8558 14.425 17.7576 14.425H13.0079C12.9097 14.425 12.8301 14.3454 12.8301 14.2472V13.2294C12.8301 12.5524 13.099 11.9031 13.5777 11.4244ZM15.3828 11.0323C14.8 11.0323 14.2412 11.2638 13.8292 11.6758C13.4171 12.0879 13.1856 12.6467 13.1856 13.2294V14.0695H17.5799V13.2294C17.5799 12.6467 17.3484 12.0879 16.9363 11.6758C16.5243 11.2638 15.9655 11.0323 15.3828 11.0323Z" fill="#222222"/>
<path d="M6.22217 13.2294V14.2472H8.59706H10.972V13.2294C10.972 12.5995 10.7217 11.9955 10.2764 11.5501C9.83099 11.1047 9.22692 10.8545 8.59706 10.8545C7.9672 10.8545 7.36314 11.1047 6.91776 11.5501C6.47238 11.9955 6.22217 12.5995 6.22217 13.2294Z" fill="url(#paint1_linear_6805_185956)"/>
<path fill-rule="evenodd" clip-rule="evenodd" d="M6.79209 11.4244C7.27081 10.9457 7.92009 10.6768 8.59711 10.6768C9.27412 10.6768 9.9234 10.9457 10.4021 11.4244C10.8808 11.9031 11.1498 12.5524 11.1498 13.2294V14.2472C11.1498 14.3454 11.0702 14.425 10.972 14.425H6.22221C6.12403 14.425 6.04443 14.3454 6.04443 14.2472V13.2294C6.04443 12.5524 6.31338 11.9031 6.79209 11.4244ZM8.59711 11.0323C8.01439 11.0323 7.45555 11.2638 7.04351 11.6758C6.63147 12.0879 6.39999 12.6467 6.39999 13.2294V14.0695H10.7942V13.2294C10.7942 12.6467 10.5627 12.0879 10.1507 11.6758C9.73866 11.2638 9.17982 11.0323 8.59711 11.0323Z" fill="#222222"/>
<path d="M8.59717 14.1305V15.5555H11.9899H15.3826V14.1305C15.3826 13.2487 15.0251 12.403 14.3889 11.7795C13.7526 11.156 12.8897 10.8057 11.9899 10.8057C11.0901 10.8057 10.2271 11.156 9.59087 11.7795C8.95461 12.403 8.59717 13.2487 8.59717 14.1305Z" fill="url(#paint2_linear_6805_185956)"/>
<path fill-rule="evenodd" clip-rule="evenodd" d="M9.46648 11.6526C10.1363 10.9961 11.0441 10.6279 11.9899 10.6279C12.9357 10.6279 13.8435 10.9961 14.5134 11.6526C15.1833 12.3091 15.5604 13.2004 15.5604 14.1306V15.5555C15.5604 15.6537 15.4808 15.7333 15.3826 15.7333H8.59721C8.49903 15.7333 8.41943 15.6537 8.41943 15.5555V14.1306C8.41943 13.2004 8.7965 12.3091 9.46648 11.6526ZM11.9899 10.9835C11.1361 10.9835 10.318 11.3159 9.71534 11.9065C9.11281 12.497 8.77499 13.2971 8.77499 14.1306V15.3777H15.2048V14.1306C15.2048 13.2971 14.867 12.497 14.2645 11.9065C13.6618 11.3159 12.8437 10.9835 11.9899 10.9835Z" fill="#222222"/>
<path d="M15.3486 10.1947C16.0044 10.1947 16.536 9.66308 16.536 9.00727C16.536 8.35146 16.0044 7.81982 15.3486 7.81982C14.6928 7.81982 14.1611 8.35146 14.1611 9.00727C14.1611 9.66308 14.6928 10.1947 15.3486 10.1947Z" fill="url(#paint3_linear_6805_185956)"/>
<path fill-rule="evenodd" clip-rule="evenodd" d="M15.3486 7.99765C14.791 7.99765 14.339 8.44969 14.339 9.00731C14.339 9.56494 14.791 10.017 15.3486 10.017C15.9062 10.017 16.3583 9.56494 16.3583 9.00731C16.3583 8.44969 15.9062 7.99765 15.3486 7.99765ZM13.9834 9.00731C13.9834 8.25332 14.5946 7.64209 15.3486 7.64209C16.1026 7.64209 16.7138 8.25332 16.7138 9.00731C16.7138 9.76131 16.1026 10.3725 15.3486 10.3725C14.5946 10.3725 13.9834 9.76131 13.9834 9.00731Z" fill="#222222"/>
<path d="M8.56294 10.1947C9.21874 10.1947 9.75038 9.66308 9.75038 9.00727C9.75038 8.35146 9.21874 7.81982 8.56294 7.81982C7.90713 7.81982 7.37549 8.35146 7.37549 9.00727C7.37549 9.66308 7.90713 10.1947 8.56294 10.1947Z" fill="url(#paint4_linear_6805_185956)"/>
<path fill-rule="evenodd" clip-rule="evenodd" d="M8.56298 7.99765C8.00535 7.99765 7.55331 8.44969 7.55331 9.00731C7.55331 9.56494 8.00535 10.017 8.56298 10.017C9.1206 10.017 9.57265 9.56494 9.57265 9.00731C9.57265 8.44969 9.1206 7.99765 8.56298 7.99765ZM7.19775 9.00731C7.19775 8.25332 7.80899 7.64209 8.56298 7.64209C9.31697 7.64209 9.9282 8.25332 9.9282 9.00731C9.9282 9.76131 9.31697 10.3725 8.56298 10.3725C7.80899 10.3725 7.19775 9.76131 7.19775 9.00731Z" fill="#222222"/>
<path d="M11.9219 10.0592C12.8588 10.0592 13.6183 9.29973 13.6183 8.36286C13.6183 7.42599 12.8588 6.6665 11.9219 6.6665C10.9851 6.6665 10.2256 7.42599 10.2256 8.36286C10.2256 9.29973 10.9851 10.0592 11.9219 10.0592Z" fill="url(#paint5_linear_6805_185956)"/>
<path fill-rule="evenodd" clip-rule="evenodd" d="M11.922 6.84433C11.0833 6.84433 10.4034 7.52421 10.4034 8.3629C10.4034 9.20159 11.0833 9.88148 11.922 9.88148C12.7607 9.88148 13.4406 9.20159 13.4406 8.3629C13.4406 7.52421 12.7607 6.84433 11.922 6.84433ZM10.0479 8.3629C10.0479 7.32785 10.8869 6.48877 11.922 6.48877C12.957 6.48877 13.7961 7.32785 13.7961 8.3629C13.7961 9.39795 12.957 10.237 11.922 10.237C10.8869 10.237 10.0479 9.39795 10.0479 8.3629Z" fill="#222222"/>
<defs>
<linearGradient id="paint0_linear_6805_185956" x1="17.7576" y1="12.5508" x2="13.0078" y2="12.5508" gradientUnits="userSpaceOnUse">
<stop stop-color="#A1FF8B"/>
<stop offset="1" stop-color="#3F93FF"/>
</linearGradient>
<linearGradient id="paint1_linear_6805_185956" x1="10.972" y1="12.5508" x2="6.22217" y2="12.5508" gradientUnits="userSpaceOnUse">
<stop stop-color="#A1FF8B"/>
<stop offset="1" stop-color="#3F93FF"/>
</linearGradient>
<linearGradient id="paint2_linear_6805_185956" x1="15.3826" y1="13.1806" x2="8.59717" y2="13.1806" gradientUnits="userSpaceOnUse">
<stop stop-color="#A1FF8B"/>
<stop offset="1" stop-color="#3F93FF"/>
</linearGradient>
<linearGradient id="paint3_linear_6805_185956" x1="16.536" y1="9.00727" x2="14.1611" y2="9.00727" gradientUnits="userSpaceOnUse">
<stop stop-color="#A1FF8B"/>
<stop offset="1" stop-color="#3F93FF"/>
</linearGradient>
<linearGradient id="paint4_linear_6805_185956" x1="9.75038" y1="9.00727" x2="7.37549" y2="9.00727" gradientUnits="userSpaceOnUse">
<stop stop-color="#A1FF8B"/>
<stop offset="1" stop-color="#3F93FF"/>
</linearGradient>
<linearGradient id="paint5_linear_6805_185956" x1="13.6183" y1="8.36286" x2="10.2256" y2="8.36286" gradientUnits="userSpaceOnUse">
<stop stop-color="#A1FF8B"/>
<stop offset="1" stop-color="#3F93FF"/>
</linearGradient>
</defs>
</svg>
