<svg width="24" height="24" viewBox="0 0 24 24" fill="none" xmlns="http://www.w3.org/2000/svg">
<path d="M0.888672 4.88878C0.888672 4.64332 1.08766 4.44434 1.33312 4.44434H22.6664C22.9119 4.44434 23.1109 4.64332 23.1109 4.88878V19.111C23.1109 19.3565 22.9119 19.5554 22.6664 19.5554H1.33312C1.08766 19.5554 0.888672 19.3565 0.888672 19.111V4.88878Z" fill="white"/>
<path fill-rule="evenodd" clip-rule="evenodd" d="M0.710938 4.88882C0.710938 4.54518 0.989516 4.2666 1.33316 4.2666H22.6665C23.0101 4.2666 23.2887 4.54518 23.2887 4.88882V19.111C23.2887 19.4547 23.0101 19.7333 22.6665 19.7333H1.33316C0.989515 19.7333 0.710938 19.4547 0.710938 19.111V4.88882ZM1.33316 4.62216C1.18588 4.62216 1.06649 4.74155 1.06649 4.88882V19.111C1.06649 19.2583 1.18588 19.3777 1.33316 19.3777H22.6665C22.8138 19.3777 22.9332 19.2583 22.9332 19.111V4.88882C22.9332 4.74155 22.8138 4.62216 22.6665 4.62216H1.33316Z" fill="#222222"/>
<path fill-rule="evenodd" clip-rule="evenodd" d="M20.7996 9.33316C20.7996 8.98952 20.5211 8.71094 20.1774 8.71094H19.5552C19.457 8.71094 19.3774 8.79053 19.3774 8.88872C19.3774 8.9869 19.457 9.06649 19.5552 9.06649H20.1774C20.3247 9.06649 20.4441 9.18588 20.4441 9.33316V11.5304C20.4441 11.7168 20.5264 11.8853 20.6579 11.9998C20.5264 12.1143 20.4441 12.2829 20.4441 12.4693V14.6665C20.4441 14.8138 20.3247 14.9332 20.1774 14.9332H19.5552C19.457 14.9332 19.3774 15.0128 19.3774 15.1109C19.3774 15.2091 19.457 15.2887 19.5552 15.2887H20.1774C20.5211 15.2887 20.7996 15.0101 20.7996 14.6665V12.4693C20.7996 12.331 20.9053 12.2157 21.0431 12.2037L21.3485 12.1769C21.4403 12.1689 21.5107 12.092 21.5107 11.9998C21.5107 11.9076 21.4403 11.8308 21.3485 11.8227L21.0431 11.796C20.9053 11.7839 20.7996 11.6686 20.7996 11.5304V9.33316Z" fill="#222222"/>
<path fill-rule="evenodd" clip-rule="evenodd" d="M3.19988 14.6664C3.19988 15.01 3.47846 15.2886 3.8221 15.2886L4.44432 15.2886C4.54251 15.2886 4.6221 15.209 4.6221 15.1108C4.6221 15.0126 4.54251 14.933 4.44433 14.933L3.8221 14.933C3.67483 14.933 3.55544 14.8136 3.55544 14.6664L3.55544 12.4692C3.55544 12.2827 3.47311 12.1142 3.3416 11.9997C3.47311 11.8852 3.55544 11.7166 3.55544 11.5302L3.55544 9.33302C3.55544 9.18574 3.67483 9.06635 3.8221 9.06635L4.44433 9.06635C4.54251 9.06635 4.6221 8.98676 4.6221 8.88857C4.6221 8.79039 4.54251 8.7108 4.44433 8.7108L3.8221 8.7108C3.47846 8.7108 3.19988 8.98937 3.19988 9.33302L3.19988 11.5302C3.19988 11.6685 3.0942 11.7838 2.95646 11.7959L2.65105 11.8226C2.55922 11.8306 2.48877 11.9075 2.48877 11.9997C2.48877 12.0919 2.55922 12.1688 2.65105 12.1768L2.95646 12.2035C3.0942 12.2156 3.19988 12.3309 3.19988 12.4692L3.19988 14.6664Z" fill="#222222"/>
<path d="M12.6387 11.2819L14.5553 2.6665L6.88867 12.7178H11.3609L9.44423 21.3332L17.1109 11.2819H12.6387Z" fill="url(#paint0_linear_6805_220514)"/>
<path fill-rule="evenodd" clip-rule="evenodd" d="M14.6303 2.50536C14.706 2.54056 14.747 2.62368 14.7289 2.70517L12.8604 11.1042H17.1109C17.1785 11.1042 17.2403 11.1425 17.2703 11.2031C17.3003 11.2637 17.2933 11.336 17.2523 11.3898L9.58562 21.441C9.535 21.5074 9.44501 21.5296 9.36931 21.4944C9.29362 21.4592 9.25261 21.3761 9.27074 21.2946L11.1393 12.8956H6.88872C6.82112 12.8956 6.75937 12.8573 6.72939 12.7967C6.6994 12.7361 6.70637 12.6638 6.74736 12.61L14.414 2.55874C14.4647 2.49237 14.5546 2.47016 14.6303 2.50536ZM7.24791 12.5401H11.3609C11.4149 12.5401 11.4659 12.5645 11.4996 12.6066C11.5334 12.6487 11.5462 12.7038 11.5345 12.7564L9.79345 20.5823L16.7517 11.4597H12.6387C12.5848 11.4597 12.5338 11.4352 12.5 11.3932C12.4663 11.3511 12.4535 11.296 12.4652 11.2433L14.2062 3.41749L7.24791 12.5401Z" fill="#222222"/>
<defs>
<linearGradient id="paint0_linear_6805_220514" x1="17.1109" y1="11.9998" x2="6.88867" y2="11.9998" gradientUnits="userSpaceOnUse">
<stop stop-color="#A1FF8B"/>
<stop offset="1" stop-color="#3F93FF"/>
</linearGradient>
</defs>
</svg>
