<svg width="24" height="24" viewBox="0 0 24 24" fill="none" xmlns="http://www.w3.org/2000/svg">
<path d="M2.6665 12.7999C2.6665 12.6035 2.82569 12.4443 3.02206 12.4443L20.9776 12.4443C21.174 12.4443 21.3332 12.6035 21.3332 12.7999L21.3332 20.9777C21.3332 21.174 21.174 21.3332 20.9776 21.3332H3.02206C2.82569 21.3332 2.6665 21.174 2.6665 20.9777L2.6665 12.7999Z" fill="url(#paint0_linear_6805_185863)"/>
<path fill-rule="evenodd" clip-rule="evenodd" d="M20.9779 12.2666C21.2724 12.2666 21.5112 12.5054 21.5112 12.7999L21.5112 20.9777C21.5112 21.2723 21.2724 21.511 20.9779 21.511L3.02234 21.511C2.72779 21.511 2.48901 21.2723 2.48901 20.9777L2.48901 12.7999C2.48901 12.5054 2.72779 12.2666 3.02234 12.2666L6.22234 12.2666C6.32053 12.2666 6.40012 12.3462 6.40012 12.4444C6.40012 12.5426 6.32053 12.6222 6.22234 12.6222L3.02234 12.6222C2.92416 12.6222 2.84456 12.7018 2.84456 12.7999L2.84456 20.9777C2.84456 21.0759 2.92416 21.1555 3.02234 21.1555L20.9779 21.1555C21.0761 21.1555 21.1557 21.0759 21.1557 20.9777L21.1557 12.7999C21.1557 12.7018 21.0761 12.6222 20.9779 12.6222L17.7779 12.6222C17.6797 12.6222 17.6001 12.5426 17.6001 12.4444C17.6001 12.3462 17.6797 12.2666 17.7779 12.2666L20.9779 12.2666Z" fill="#222222"/>
<path fill-rule="evenodd" clip-rule="evenodd" d="M17.6 6.22217L17.9556 6.22217L17.9556 9.33328C17.9556 9.92238 17.478 10.3999 16.8889 10.3999L16 10.3999C15.6073 10.3999 15.2889 10.7183 15.2889 11.1111L15.2889 16.4596L16.1168 15.6318C16.1862 15.5623 16.2988 15.5623 16.3682 15.6318C16.4376 15.7012 16.4376 15.8137 16.3682 15.8832L15.2368 17.0145C15.1674 17.084 15.0548 17.084 14.9854 17.0145L13.854 15.8832C13.7846 15.8137 13.7846 15.7012 13.854 15.6318C13.9235 15.5623 14.036 15.5623 14.1055 15.6318L14.9333 16.4596L14.9333 11.1111C14.9333 10.522 15.4109 10.0444 16 10.0444L16.8889 10.0444C17.2816 10.0444 17.6 9.72602 17.6 9.33328L17.6 6.22217Z" fill="#222222"/>
<path fill-rule="evenodd" clip-rule="evenodd" d="M13.257 15.8832L12.1256 17.0145C12.0562 17.0839 11.9437 17.0839 11.8742 17.0145L10.7429 15.8832C10.6734 15.8137 10.6734 15.7012 10.7429 15.6317C10.8123 15.5623 10.9248 15.5623 10.9943 15.6317L11.8222 16.4596L11.8222 6.31104L12.1777 6.31104L12.1777 16.4596L13.0056 15.6317C13.075 15.5623 13.1876 15.5623 13.257 15.6317C13.3264 15.7012 13.3264 15.8137 13.257 15.8832Z" fill="#222222"/>
<path fill-rule="evenodd" clip-rule="evenodd" d="M10.1457 15.8831L9.01431 17.0145C8.94489 17.0839 8.83232 17.0839 8.7629 17.0145L7.63153 15.8831C7.5621 15.8137 7.5621 15.7011 7.63153 15.6317C7.70095 15.5622 7.81352 15.5622 7.88294 15.6317L8.71083 16.4596L8.71083 11.111C8.71083 10.7182 8.39245 10.3999 7.99972 10.3999L7.11083 10.3999C6.52172 10.3999 6.04416 9.9223 6.04416 9.33319L6.04416 6.16162L6.39972 6.16162L6.39972 9.33319C6.39972 9.72593 6.71809 10.0443 7.11083 10.0443L7.99972 10.0443C8.58882 10.0443 9.06638 10.5219 9.06638 11.111L9.06638 16.4596L9.89427 15.6317C9.96369 15.5622 10.0763 15.5622 10.1457 15.6317C10.2151 15.7011 10.2151 15.8137 10.1457 15.8831Z" fill="#222222"/>
<path d="M17.7779 6.22206C16.796 6.22206 16.0001 5.42612 16.0001 4.44428C16.0001 3.46244 16.796 2.6665 17.7779 2.6665C18.7597 2.6665 19.5557 3.46244 19.5557 4.44428C19.5557 5.42612 18.7597 6.22206 17.7779 6.22206Z" fill="white"/>
<path fill-rule="evenodd" clip-rule="evenodd" d="M19.3778 4.44433C19.3778 3.56067 18.6615 2.84433 17.7778 2.84433C16.8942 2.84432 16.1778 3.56067 16.1778 4.44432C16.1778 5.32798 16.8942 6.04433 17.7778 6.04433C18.6615 6.04433 19.3778 5.32798 19.3778 4.44433ZM17.7778 2.48877C18.8579 2.48877 19.7334 3.3643 19.7334 4.44433C19.7334 5.52435 18.8579 6.39988 17.7778 6.39988C16.6978 6.39988 15.8223 5.52435 15.8223 4.44432C15.8223 3.3643 16.6978 2.48877 17.7778 2.48877Z" fill="#222222"/>
<path d="M12.0001 6.22206C11.0182 6.22206 10.2223 5.42612 10.2223 4.44428C10.2223 3.46244 11.0182 2.6665 12.0001 2.6665C12.9819 2.6665 13.7778 3.46244 13.7778 4.44428C13.7778 5.42612 12.9819 6.22206 12.0001 6.22206Z" fill="white"/>
<path fill-rule="evenodd" clip-rule="evenodd" d="M13.6 4.44433C13.6 3.56067 12.8837 2.84433 12 2.84433C11.1164 2.84432 10.4 3.56067 10.4 4.44432C10.4 5.32798 11.1164 6.04433 12 6.04433C12.8837 6.04433 13.6 5.32798 13.6 4.44433ZM12 2.48877C13.08 2.48877 13.9556 3.3643 13.9556 4.44433C13.9556 5.52435 13.08 6.39988 12 6.39988C10.92 6.39988 10.0445 5.52435 10.0445 4.44432C10.0445 3.3643 10.92 2.48877 12 2.48877Z" fill="#222222"/>
<path d="M6.22222 6.22206C5.24038 6.22206 4.44444 5.42612 4.44444 4.44428C4.44444 3.46244 5.24038 2.6665 6.22222 2.6665C7.20406 2.6665 8 3.46244 8 4.44428C8 5.42612 7.20406 6.22206 6.22222 6.22206Z" fill="white"/>
<path fill-rule="evenodd" clip-rule="evenodd" d="M7.82218 4.44432C7.82218 3.56067 7.10583 2.84433 6.22218 2.84432C5.33852 2.84432 4.62218 3.56067 4.62218 4.44432C4.62218 5.32798 5.33852 6.04432 6.22218 6.04432C7.10583 6.04432 7.82218 5.32798 7.82218 4.44432ZM6.22218 2.48877C7.3022 2.48877 8.17773 3.3643 8.17773 4.44432C8.17773 5.52435 7.3022 6.39988 6.22218 6.39988C5.14215 6.39988 4.26662 5.52435 4.26662 4.44432C4.26662 3.3643 5.14215 2.48877 6.22218 2.48877Z" fill="#222222"/>
<defs>
<linearGradient id="paint0_linear_6805_185863" x1="21.3332" y1="12.4443" x2="14.4324" y2="26.936" gradientUnits="userSpaceOnUse">
<stop stop-color="#A1FF8B"/>
<stop offset="1" stop-color="#3F93FF"/>
</linearGradient>
</defs>
</svg>
