<svg width="24" height="24" viewBox="0 0 24 24" fill="none" xmlns="http://www.w3.org/2000/svg">
<g clip-path="url(#clip0_6805_220307)">
<path d="M21.3332 12.0001C21.3332 17.1547 17.1545 21.3334 11.9998 21.3334C6.84518 21.3334 2.6665 17.1547 2.6665 12.0001C2.6665 6.84542 6.84518 2.66675 11.9998 2.66675C17.1545 2.66675 21.3332 6.84542 21.3332 12.0001Z" fill="white"/>
<path fill-rule="evenodd" clip-rule="evenodd" d="M11.9999 2.84457C6.94341 2.84457 2.84433 6.94365 2.84433 12.0001C2.84433 17.0566 6.94341 21.1557 11.9999 21.1557C17.0564 21.1557 21.1554 17.0566 21.1554 12.0001C21.1554 6.94365 17.0564 2.84457 11.9999 2.84457ZM2.48877 12.0001C2.48877 6.74728 6.74704 2.48901 11.9999 2.48901C17.2527 2.48901 21.511 6.74728 21.511 12.0001C21.511 17.253 17.2527 21.5112 11.9999 21.5112C6.74704 21.5112 2.48877 17.253 2.48877 12.0001Z" fill="#222222"/>
<path d="M17.3332 12.0001C17.3332 14.9456 14.9454 17.3334 11.9998 17.3334C9.05432 17.3334 6.6665 14.9456 6.6665 12.0001C6.6665 9.05456 9.05432 6.66675 11.9998 6.66675C14.9454 6.66675 17.3332 9.05456 17.3332 12.0001Z" fill="url(#paint0_linear_6805_220307)"/>
<path fill-rule="evenodd" clip-rule="evenodd" d="M11.9999 6.84457C9.15255 6.84457 6.84433 9.15279 6.84433 12.0001C6.84433 14.8475 9.15255 17.1557 11.9999 17.1557C14.8472 17.1557 17.1554 14.8475 17.1554 12.0001C17.1554 9.15279 14.8472 6.84457 11.9999 6.84457ZM6.48877 12.0001C6.48877 8.95642 8.95618 6.48901 11.9999 6.48901C15.0436 6.48901 17.511 8.95642 17.511 12.0001C17.511 15.0438 15.0436 17.5112 11.9999 17.5112C8.95618 17.5112 6.48877 15.0438 6.48877 12.0001Z" fill="#222222"/>
<path fill-rule="evenodd" clip-rule="evenodd" d="M10.2946 8.30839C9.82679 9.244 9.53231 10.549 9.53231 12.0001C9.53231 13.4513 9.82679 14.7562 10.2946 15.6919C10.7677 16.6381 11.3884 17.1557 12.0212 17.1557C12.654 17.1557 13.2747 16.6381 13.7478 15.6919C14.2156 14.7562 14.5101 13.4513 14.5101 12.0001C14.5101 10.549 14.2156 9.244 13.7478 8.30839C13.2747 7.36215 12.654 6.84457 12.0212 6.84457C11.3884 6.84457 10.7677 7.36215 10.2946 8.30839ZM9.97657 8.14938C10.4686 7.16534 11.1812 6.48901 12.0212 6.48901C12.8612 6.48901 13.5738 7.16534 14.0658 8.14938C14.5632 9.14406 14.8656 10.5058 14.8656 12.0001C14.8656 13.4945 14.5632 14.8562 14.0658 15.8509C13.5738 16.8349 12.8612 17.5112 12.0212 17.5112C11.1812 17.5112 10.4686 16.8349 9.97657 15.8509C9.47924 14.8562 9.17676 13.4945 9.17676 12.0001C9.17676 10.5058 9.47924 9.14406 9.97657 8.14938Z" fill="#222222"/>
<path fill-rule="evenodd" clip-rule="evenodd" d="M11.8222 17.3335L11.8222 6.66679C11.8222 6.56861 11.9018 6.48901 12 6.48901C12.0981 6.48901 12.1777 6.56861 12.1777 6.66679L12.1777 17.3335C12.1777 17.4316 12.0981 17.5112 12 17.5112C11.9018 17.5112 11.8222 17.4316 11.8222 17.3335Z" fill="#222222"/>
<path fill-rule="evenodd" clip-rule="evenodd" d="M17.5112 12.0002C17.5112 12.0984 17.4316 12.178 17.3335 12.178L6.66679 12.178C6.5686 12.178 6.48901 12.0984 6.48901 12.0002C6.48901 11.902 6.5686 11.8224 6.66679 11.8224L17.3335 11.8224C17.4316 11.8224 17.5112 11.902 17.5112 12.0002Z" fill="#222222"/>
<path fill-rule="evenodd" clip-rule="evenodd" d="M16.6577 9.22676C16.6577 9.32495 16.5781 9.40454 16.4799 9.40454L7.51994 9.40454C7.42175 9.40454 7.34216 9.32495 7.34216 9.22676C7.34216 9.12858 7.42175 9.04899 7.51994 9.04899L16.4799 9.04899C16.5781 9.04899 16.6577 9.12858 16.6577 9.22676Z" fill="#222222"/>
<path fill-rule="evenodd" clip-rule="evenodd" d="M16.6577 14.7734C16.6577 14.8716 16.5781 14.9512 16.4799 14.9512L7.51994 14.9512C7.42175 14.9512 7.34216 14.8716 7.34216 14.7734C7.34216 14.6752 7.42175 14.5956 7.51994 14.5956L16.4799 14.5956C16.5781 14.5956 16.6577 14.6752 16.6577 14.7734Z" fill="#222222"/>
<path d="M23.1107 12.0002C23.1107 12.982 22.3148 13.778 21.333 13.778C20.3511 13.778 19.5552 12.982 19.5552 12.0002C19.5552 11.0184 20.3511 10.2224 21.333 10.2224C22.3148 10.2224 23.1107 11.0184 23.1107 12.0002Z" fill="#C9E4EA"/>
<path fill-rule="evenodd" clip-rule="evenodd" d="M21.333 10.4C20.4493 10.4 19.733 11.1163 19.733 12C19.733 12.8836 20.4493 13.6 21.333 13.6C22.2167 13.6 22.933 12.8836 22.933 12C22.933 11.1163 22.2167 10.4 21.333 10.4ZM19.3774 12C19.3774 10.92 20.253 10.0444 21.333 10.0444C22.413 10.0444 23.2886 10.92 23.2886 12C23.2886 13.08 22.413 13.9555 21.333 13.9555C20.253 13.9555 19.3774 13.08 19.3774 12Z" fill="#222222"/>
<path d="M13.7777 2.66669C13.7777 3.64853 12.9818 4.44447 11.9999 4.44447C11.0181 4.44447 10.2222 3.64853 10.2222 2.66669C10.2222 1.68485 11.0181 0.888916 11.9999 0.888916C12.9818 0.888916 13.7777 1.68485 13.7777 2.66669Z" fill="#C9E4EA"/>
<path fill-rule="evenodd" clip-rule="evenodd" d="M12 1.06674C11.1163 1.06674 10.4 1.78308 10.4 2.66674C10.4 3.55039 11.1163 4.26674 12 4.26674C12.8836 4.26674 13.6 3.55039 13.6 2.66674C13.6 1.78308 12.8836 1.06674 12 1.06674ZM10.0444 2.66674C10.0444 1.58671 10.92 0.711182 12 0.711182C13.08 0.711182 13.9555 1.58671 13.9555 2.66674C13.9555 3.74676 13.08 4.62229 12 4.62229C10.92 4.62229 10.0444 3.74676 10.0444 2.66674Z" fill="#222222"/>
<path d="M4.44423 12.0002C4.44423 12.982 3.64829 13.778 2.66645 13.778C1.68461 13.778 0.888672 12.982 0.888672 12.0002C0.888672 11.0184 1.68461 10.2224 2.66645 10.2224C3.64829 10.2224 4.44423 11.0184 4.44423 12.0002Z" fill="#C9E4EA"/>
<path fill-rule="evenodd" clip-rule="evenodd" d="M2.66649 10.4C1.78284 10.4 1.06649 11.1163 1.06649 12C1.06649 12.8836 1.78284 13.6 2.66649 13.6C3.55015 13.6 4.26649 12.8836 4.26649 12C4.26649 11.1163 3.55015 10.4 2.66649 10.4ZM0.710937 12C0.710938 10.92 1.58647 10.0444 2.66649 10.0444C3.74652 10.0444 4.62205 10.92 4.62205 12C4.62205 13.08 3.74652 13.9555 2.66649 13.9555C1.58647 13.9555 0.710937 13.08 0.710937 12Z" fill="#222222"/>
<path d="M13.7777 21.3334C13.7777 22.3153 12.9818 23.1112 11.9999 23.1112C11.0181 23.1112 10.2222 22.3153 10.2222 21.3334C10.2222 20.3516 11.0181 19.5557 11.9999 19.5557C12.9818 19.5557 13.7777 20.3516 13.7777 21.3334Z" fill="#C9E4EA"/>
<path fill-rule="evenodd" clip-rule="evenodd" d="M12 19.7335C11.1163 19.7335 10.4 20.4498 10.4 21.3335C10.4 22.2171 11.1163 22.9335 12 22.9335C12.8836 22.9335 13.6 22.2171 13.6 21.3335C13.6 20.4498 12.8836 19.7335 12 19.7335ZM10.0444 21.3335C10.0444 20.2535 10.92 19.3779 12 19.3779C13.08 19.3779 13.9555 20.2535 13.9555 21.3335C13.9555 22.4135 13.08 23.289 12 23.289C10.92 23.289 10.0444 22.4135 10.0444 21.3335Z" fill="#222222"/>
</g>
<defs>
<linearGradient id="paint0_linear_6805_220307" x1="17.3332" y1="6.66675" x2="6.6665" y2="17.3334" gradientUnits="userSpaceOnUse">
<stop stop-color="#A1FF8B"/>
<stop offset="1" stop-color="#3F93FF"/>
</linearGradient>
<clipPath id="clip0_6805_220307">
<rect width="24" height="24" fill="white"/>
</clipPath>
</defs>
</svg>
