<svg width="24" height="24" viewBox="0 0 24 24" fill="none" xmlns="http://www.w3.org/2000/svg">
<path d="M22.2223 12.0001C22.2223 17.6456 17.6456 22.2223 12.0001 22.2223C6.35448 22.2223 1.77783 17.6456 1.77783 12.0001C1.77783 6.35448 6.35448 1.77783 12.0001 1.77783C17.6456 1.77783 22.2223 6.35448 22.2223 12.0001Z" fill="white"/>
<path d="M17.7777 12.0002C17.7777 15.1912 15.1909 17.778 11.9999 17.778C8.80897 17.778 6.22217 15.1912 6.22217 12.0002C6.22217 8.80921 8.80897 6.22241 11.9999 6.22241C15.1909 6.22241 17.7777 8.80921 17.7777 12.0002Z" fill="url(#paint0_linear_6805_186610)"/>
<path fill-rule="evenodd" clip-rule="evenodd" d="M12 6.40023C8.90719 6.40023 6.39999 8.90744 6.39999 12.0002C6.39999 15.093 8.90719 17.6002 12 17.6002C15.0928 17.6002 17.6 15.093 17.6 12.0002C17.6 8.90744 15.0928 6.40023 12 6.40023ZM6.04443 12.0002C6.04443 8.71107 8.71083 6.04468 12 6.04468C15.2892 6.04468 17.9555 8.71107 17.9555 12.0002C17.9555 15.2894 15.2892 17.9558 12 17.9558C8.71083 17.9558 6.04443 15.2894 6.04443 12.0002Z" fill="#222222"/>
<path fill-rule="evenodd" clip-rule="evenodd" d="M15.4874 9.66872C15.5567 9.73826 15.5565 9.85082 15.487 9.92014L11.0608 14.3323C10.9915 14.4014 10.8792 14.4014 10.8098 14.3323L8.51272 12.0424C8.44318 11.9731 8.443 11.8605 8.51232 11.791C8.58164 11.7215 8.6942 11.7213 8.76374 11.7906L10.9353 13.9553L15.236 9.66833C15.3055 9.59901 15.418 9.59919 15.4874 9.66872Z" fill="#222222"/>
<path fill-rule="evenodd" clip-rule="evenodd" d="M10.9944 0.52082L12.1258 1.65219C12.1952 1.72162 12.1952 1.83418 12.1258 1.90361L10.9945 3.03498C10.925 3.1044 10.8125 3.1044 10.743 3.03498C10.6736 2.96555 10.6736 2.85299 10.743 2.78356L11.5613 1.96526C9.1921 2.06878 6.93031 3.00808 5.18194 4.62426C3.32592 6.33995 2.18494 8.69231 1.98664 11.212C1.78833 13.7318 2.54727 16.2337 4.11205 18.2186C5.67682 20.2035 7.93241 21.5255 10.4288 21.9209L10.3732 22.2721C7.78842 21.8627 5.45299 20.4939 3.83282 18.4387C2.21265 16.3835 1.42685 13.7931 1.63218 11.1841C1.8375 8.57522 3.01887 6.13959 4.94059 4.36317C6.75911 2.68214 9.11411 1.70836 11.5794 1.60863L10.743 0.772236C10.6736 0.702809 10.6736 0.590246 10.743 0.52082C10.8125 0.451393 10.925 0.451393 10.9944 0.52082Z" fill="#222222"/>
<path fill-rule="evenodd" clip-rule="evenodd" d="M13.0056 23.3537L11.8742 22.2223C11.8048 22.1529 11.8048 22.0403 11.8742 21.9709L13.0055 20.8395C13.075 20.7701 13.1875 20.7701 13.257 20.8395C13.3264 20.909 13.3264 21.0215 13.257 21.0909L12.4387 21.9093C14.8079 21.8057 17.0697 20.8664 18.8181 19.2503C20.6741 17.5346 21.8151 15.1822 22.0134 12.6625C22.2117 10.1427 21.4527 7.64085 19.888 5.65593C18.3232 3.67102 16.0676 2.349 13.5712 1.95361L13.6268 1.60243C16.2116 2.01182 18.547 3.38064 20.1672 5.43581C21.7873 7.49099 22.5732 10.0814 22.3678 12.6904C22.1625 15.2993 20.9811 17.7349 19.0594 19.5113C17.2409 21.1924 14.8859 22.1661 12.4206 22.2659L13.257 23.1023C13.3264 23.1717 13.3264 23.2843 13.257 23.3537C13.1875 23.4231 13.075 23.4231 13.0056 23.3537Z" fill="#222222"/>
<defs>
<linearGradient id="paint0_linear_6805_186610" x1="17.7777" y1="6.22241" x2="6.22217" y2="17.778" gradientUnits="userSpaceOnUse">
<stop stop-color="#A1FF8B"/>
<stop offset="1" stop-color="#3F93FF"/>
</linearGradient>
</defs>
</svg>
