<svg width="24" height="24" viewBox="0 0 24 24" fill="none" xmlns="http://www.w3.org/2000/svg">
<g clip-path="url(#clip0_6805_220541)">
<path fill-rule="evenodd" clip-rule="evenodd" d="M11.9318 2.5023C11.9754 2.48426 12.0244 2.48426 12.0679 2.5023L18.6676 5.23597C18.7111 5.25401 18.7457 5.28862 18.7638 5.33218L21.4975 11.9318C21.5155 11.9754 21.5155 12.0244 21.4975 12.0679L18.7638 18.6676C18.7457 18.7111 18.7111 18.7457 18.6676 18.7638L12.0679 21.4975C12.0244 21.5155 11.9754 21.5155 11.9318 21.4975L5.33218 18.7638C5.28862 18.7457 5.25402 18.7111 5.23597 18.6676L2.5023 12.0679C2.48426 12.0244 2.48426 11.9754 2.5023 11.9318L5.23597 5.33218C5.25402 5.28862 5.28862 5.25401 5.33218 5.23597L11.9318 2.5023ZM5.53628 5.53628L2.85897 11.9999L5.53628 18.4635L11.9999 21.1408L18.4635 18.4635L21.1408 11.9999L18.4635 5.53628L11.9999 2.85897L5.53628 5.53628Z" fill="#222222"/>
<path fill-rule="evenodd" clip-rule="evenodd" d="M12.1778 2.66634L12.1778 21.333L11.8223 21.333L11.8223 2.66634L12.1778 2.66634Z" fill="#222222"/>
<path fill-rule="evenodd" clip-rule="evenodd" d="M21.3332 12.1778L2.6665 12.1778V11.8223L21.3332 11.8223V12.1778Z" fill="#222222"/>
<path fill-rule="evenodd" clip-rule="evenodd" d="M18.7252 5.52572L5.52583 18.725L5.27441 18.4736L18.4737 5.27431L18.7252 5.52572Z" fill="#222222"/>
<path fill-rule="evenodd" clip-rule="evenodd" d="M18.4738 18.7252L5.27446 5.52583L5.52588 5.27441L18.7252 18.4737L18.4738 18.7252Z" fill="#222222"/>
<path d="M11.9999 8.44434L14.514 9.48573L15.5554 11.9999L14.514 14.514L11.9999 15.5554L9.48573 14.514L8.44434 11.9999L9.48573 9.48573L11.9999 8.44434Z" fill="url(#paint0_linear_6805_220541)"/>
<path fill-rule="evenodd" clip-rule="evenodd" d="M11.9319 8.28013C11.9755 8.26209 12.0244 8.26209 12.068 8.28013L14.5821 9.32153C14.6257 9.33958 14.6603 9.37418 14.6783 9.41774L15.7197 11.9319C15.7378 11.9755 15.7378 12.0244 15.7197 12.068L14.6783 14.5821C14.6603 14.6257 14.6257 14.6603 14.5821 14.6783L12.068 15.7197C12.0244 15.7378 11.9755 15.7378 11.9319 15.7197L9.41774 14.6783C9.37418 14.6603 9.33958 14.6257 9.32153 14.5821L8.28013 12.068C8.26209 12.0244 8.26209 11.9755 8.28013 11.9319L9.32153 9.41774C9.33958 9.37418 9.37418 9.33958 9.41774 9.32153L11.9319 8.28013ZM9.62184 9.62184L8.6368 11.9999L9.62184 14.378L11.9999 15.3631L14.378 14.378L15.3631 11.9999L14.378 9.62184L11.9999 8.6368L9.62184 9.62184Z" fill="#222222"/>
<path d="M20.3773 5.37739C20.3773 6.35923 19.5814 7.15517 18.5996 7.15517C17.6177 7.15517 16.8218 6.35923 16.8218 5.37739C16.8218 4.39555 17.6177 3.59961 18.5996 3.59961C19.5814 3.59961 20.3773 4.39555 20.3773 5.37739Z" fill="#C9E4EA"/>
<path fill-rule="evenodd" clip-rule="evenodd" d="M18.5996 3.77743C17.7159 3.77743 16.9996 4.49377 16.9996 5.37743C16.9996 6.26109 17.7159 6.97743 18.5996 6.97743C19.4833 6.97743 20.1996 6.26109 20.1996 5.37743C20.1996 4.49377 19.4833 3.77743 18.5996 3.77743ZM16.644 5.37743C16.644 4.29741 17.5196 3.42188 18.5996 3.42188C19.6796 3.42187 20.5552 4.29741 20.5552 5.37743C20.5552 6.45745 19.6796 7.33299 18.5996 7.33299C17.5196 7.33299 16.644 6.45745 16.644 5.37743Z" fill="#222222"/>
<path d="M7.17811 18.622C7.17811 19.6039 6.38218 20.3998 5.40034 20.3998C4.4185 20.3998 3.62256 19.6039 3.62256 18.622C3.62256 17.6402 4.4185 16.8442 5.40034 16.8442C6.38218 16.8442 7.17811 17.6402 7.17811 18.622Z" fill="#C9E4EA"/>
<path fill-rule="evenodd" clip-rule="evenodd" d="M5.40038 17.0221C4.51672 17.0221 3.80038 17.7384 3.80038 18.6221C3.80038 19.5057 4.51672 20.2221 5.40038 20.2221C6.28404 20.2221 7.00038 19.5057 7.00038 18.6221C7.00038 17.7384 6.28404 17.0221 5.40038 17.0221ZM3.44482 18.6221C3.44482 17.542 4.32036 16.6665 5.40038 16.6665C6.4804 16.6665 7.35594 17.542 7.35594 18.6221C7.35594 19.7021 6.4804 20.5776 5.40038 20.5776C4.32036 20.5776 3.44482 19.7021 3.44482 18.6221Z" fill="#222222"/>
<path d="M13.7777 2.66645C13.7777 3.64829 12.9818 4.44423 11.9999 4.44423C11.0181 4.44423 10.2222 3.64829 10.2222 2.66645C10.2222 1.68461 11.0181 0.888672 11.9999 0.888672C12.9818 0.888672 13.7777 1.68461 13.7777 2.66645Z" fill="white"/>
<path fill-rule="evenodd" clip-rule="evenodd" d="M12 1.06649C11.1163 1.06649 10.4 1.78284 10.4 2.66649C10.4 3.55015 11.1163 4.26649 12 4.26649C12.8836 4.26649 13.6 3.55015 13.6 2.66649C13.6 1.78284 12.8836 1.06649 12 1.06649ZM10.0444 2.66649C10.0444 1.58647 10.92 0.710937 12 0.710937C13.08 0.710937 13.9555 1.58647 13.9555 2.66649C13.9555 3.74652 13.08 4.62205 12 4.62205C10.92 4.62205 10.0444 3.74652 10.0444 2.66649Z" fill="#222222"/>
<path d="M13.7777 21.333C13.7777 22.3148 12.9818 23.1107 11.9999 23.1107C11.0181 23.1107 10.2222 22.3148 10.2222 21.333C10.2222 20.3511 11.0181 19.5552 11.9999 19.5552C12.9818 19.5552 13.7777 20.3511 13.7777 21.333Z" fill="white"/>
<path fill-rule="evenodd" clip-rule="evenodd" d="M12 19.733C11.1163 19.733 10.4 20.4493 10.4 21.333C10.4 22.2167 11.1163 22.933 12 22.933C12.8836 22.933 13.6 22.2167 13.6 21.333C13.6 20.4493 12.8836 19.733 12 19.733ZM10.0444 21.333C10.0444 20.253 10.92 19.3774 12 19.3774C13.08 19.3774 13.9555 20.253 13.9555 21.333C13.9555 22.413 13.08 23.2886 12 23.2886C10.92 23.2886 10.0444 22.413 10.0444 21.333Z" fill="#222222"/>
<path d="M23.1107 11.9999C23.1107 12.9818 22.3148 13.7777 21.333 13.7777C20.3511 13.7777 19.5552 12.9818 19.5552 11.9999C19.5552 11.0181 20.3511 10.2222 21.333 10.2222C22.3148 10.2222 23.1107 11.0181 23.1107 11.9999Z" fill="white"/>
<path fill-rule="evenodd" clip-rule="evenodd" d="M21.333 10.4C20.4493 10.4 19.733 11.1163 19.733 12C19.733 12.8836 20.4493 13.6 21.333 13.6C22.2167 13.6 22.933 12.8836 22.933 12C22.933 11.1163 22.2167 10.4 21.333 10.4ZM19.3774 12C19.3774 10.92 20.253 10.0444 21.333 10.0444C22.413 10.0444 23.2886 10.92 23.2886 12C23.2886 13.08 22.413 13.9555 21.333 13.9555C20.253 13.9555 19.3774 13.08 19.3774 12Z" fill="#222222"/>
<path d="M4.44423 11.9999C4.44423 12.9818 3.64829 13.7777 2.66645 13.7777C1.68461 13.7777 0.888672 12.9818 0.888672 11.9999C0.888672 11.0181 1.68461 10.2222 2.66645 10.2222C3.64829 10.2222 4.44423 11.0181 4.44423 11.9999Z" fill="white"/>
<path fill-rule="evenodd" clip-rule="evenodd" d="M2.66649 10.4C1.78284 10.4 1.06649 11.1163 1.06649 12C1.06649 12.8836 1.78284 13.6 2.66649 13.6C3.55015 13.6 4.26649 12.8836 4.26649 12C4.26649 11.1163 3.55015 10.4 2.66649 10.4ZM0.710938 12C0.710938 10.92 1.58647 10.0444 2.66649 10.0444C3.74652 10.0444 4.62205 10.92 4.62205 12C4.62205 13.08 3.74652 13.9555 2.66649 13.9555C1.58647 13.9555 0.710938 13.08 0.710938 12Z" fill="#222222"/>
<path d="M7.17811 5.40034C7.17811 6.38218 6.38218 7.17811 5.40034 7.17811C4.4185 7.17811 3.62256 6.38218 3.62256 5.40034C3.62256 4.4185 4.4185 3.62256 5.40034 3.62256C6.38218 3.62256 7.17811 4.4185 7.17811 5.40034Z" fill="#C9E4EA"/>
<path fill-rule="evenodd" clip-rule="evenodd" d="M5.40038 3.80038C4.51672 3.80038 3.80038 4.51672 3.80038 5.40038C3.80038 6.28404 4.51672 7.00038 5.40038 7.00038C6.28404 7.00038 7.00038 6.28404 7.00038 5.40038C7.00038 4.51672 6.28404 3.80038 5.40038 3.80038ZM3.44482 5.40038C3.44482 4.32036 4.32036 3.44482 5.40038 3.44482C6.4804 3.44482 7.35594 4.32036 7.35594 5.40038C7.35594 6.4804 6.4804 7.35594 5.40038 7.35594C4.32036 7.35594 3.44482 6.4804 3.44482 5.40038Z" fill="#222222"/>
<path d="M20.3773 18.5996C20.3773 19.5814 19.5814 20.3773 18.5996 20.3773C17.6177 20.3773 16.8218 19.5814 16.8218 18.5996C16.8218 17.6177 17.6177 16.8218 18.5996 16.8218C19.5814 16.8218 20.3773 17.6177 20.3773 18.5996Z" fill="#C9E4EA"/>
<path fill-rule="evenodd" clip-rule="evenodd" d="M18.5996 16.9996C17.7159 16.9996 16.9996 17.7159 16.9996 18.5996C16.9996 19.4833 17.7159 20.1996 18.5996 20.1996C19.4833 20.1996 20.1996 19.4833 20.1996 18.5996C20.1996 17.7159 19.4833 16.9996 18.5996 16.9996ZM16.644 18.5996C16.644 17.5196 17.5196 16.644 18.5996 16.644C19.6796 16.644 20.5552 17.5196 20.5552 18.5996C20.5552 19.6796 19.6796 20.5552 18.5996 20.5552C17.5196 20.5552 16.644 19.6796 16.644 18.5996Z" fill="#222222"/>
</g>
<defs>
<linearGradient id="paint0_linear_6805_220541" x1="15.5554" y1="8.44433" x2="8.44434" y2="15.5554" gradientUnits="userSpaceOnUse">
<stop stop-color="#A1FF8B"/>
<stop offset="1" stop-color="#3F93FF"/>
</linearGradient>
<clipPath id="clip0_6805_220541">
<rect width="24" height="24" fill="white"/>
</clipPath>
</defs>
</svg>
