<svg width="24" height="24" viewBox="0 0 24 24" fill="none" xmlns="http://www.w3.org/2000/svg">
<path d="M12.4442 19.1111V6.66661C12.4442 6.42115 12.6432 6.22217 12.8886 6.22217H20.601H22.6664C22.9119 6.22217 23.1108 6.42115 23.1108 6.66661V8.76185V19.1111C23.1108 19.3565 22.9119 19.5555 22.6664 19.5555H12.8886C12.6432 19.5555 12.4442 19.3565 12.4442 19.1111Z" fill="#C9E4EA"/>
<path fill-rule="evenodd" clip-rule="evenodd" d="M22.6668 6.39999C22.8141 6.39999 22.9335 6.51938 22.9335 6.66666V19.1111C22.9335 19.2584 22.8141 19.3778 22.6668 19.3778H12.8891C12.7418 19.3778 12.6224 19.2584 12.6224 19.1111V6.66666C12.6224 6.51938 12.7418 6.39999 12.8891 6.39999H22.6668ZM23.2891 6.66666C23.2891 6.32301 23.0105 6.04443 22.6668 6.04443H12.8891C12.5454 6.04443 12.2668 6.32301 12.2668 6.66666V19.1111C12.2668 19.4547 12.5454 19.7333 12.8891 19.7333H22.6668C23.0105 19.7333 23.2891 19.4547 23.2891 19.1111V6.66666Z" fill="#222222"/>
<path fill-rule="evenodd" clip-rule="evenodd" d="M13.689 8.26664C13.689 8.16846 13.7686 8.08887 13.8667 8.08887H21.6681C21.7662 8.08887 21.8458 8.16846 21.8458 8.26664C21.8458 8.36483 21.7662 8.44442 21.6681 8.44442H13.8667C13.7686 8.44442 13.689 8.36483 13.689 8.26664Z" fill="#222222"/>
<path fill-rule="evenodd" clip-rule="evenodd" d="M13.689 10.0445C13.689 9.94629 13.7686 9.8667 13.8667 9.8667H21.6681C21.7662 9.8667 21.8458 9.94629 21.8458 10.0445C21.8458 10.1427 21.7662 10.2223 21.6681 10.2223H13.8667C13.7686 10.2223 13.689 10.1427 13.689 10.0445Z" fill="#222222"/>
<path fill-rule="evenodd" clip-rule="evenodd" d="M13.689 11.8223C13.689 11.7241 13.7686 11.6445 13.8667 11.6445H21.6681C21.7662 11.6445 21.8458 11.7241 21.8458 11.8223C21.8458 11.9205 21.7662 12.0001 21.6681 12.0001H13.8667C13.7686 12.0001 13.689 11.9205 13.689 11.8223Z" fill="#222222"/>
<path fill-rule="evenodd" clip-rule="evenodd" d="M13.689 13.5999C13.689 13.5017 13.7686 13.4221 13.8667 13.4221H21.6681C21.7662 13.4221 21.8458 13.5017 21.8458 13.5999C21.8458 13.6981 21.7662 13.7777 21.6681 13.7777H13.8667C13.7686 13.7777 13.689 13.6981 13.689 13.5999Z" fill="#222222"/>
<path fill-rule="evenodd" clip-rule="evenodd" d="M13.689 15.3777C13.689 15.2795 13.7686 15.2 13.8667 15.2H21.6681C21.7662 15.2 21.8458 15.2795 21.8458 15.3777C21.8458 15.4759 21.7662 15.5555 21.6681 15.5555H13.8667C13.7686 15.5555 13.689 15.4759 13.689 15.3777Z" fill="#222222"/>
<path fill-rule="evenodd" clip-rule="evenodd" d="M13.689 17.1556C13.689 17.0574 13.7686 16.9778 13.8667 16.9778H21.6681C21.7662 16.9778 21.8458 17.0574 21.8458 17.1556C21.8458 17.2537 21.7662 17.3333 21.6681 17.3333H13.8667C13.7686 17.3333 13.689 17.2537 13.689 17.1556Z" fill="#222222"/>
<path d="M0.888998 19.1111V6.66661C0.888998 6.42115 1.08798 6.22217 1.33344 6.22217H9.04586H11.1112C11.3567 6.22217 11.5557 6.42115 11.5557 6.66661V8.76185V19.1111C11.5557 19.3565 11.3567 19.5555 11.1112 19.5555H1.33344C1.08798 19.5555 0.888998 19.3565 0.888998 19.1111Z" fill="#C9E4EA"/>
<path fill-rule="evenodd" clip-rule="evenodd" d="M11.1112 6.39999C11.2585 6.39999 11.3778 6.51938 11.3778 6.66666V19.1111C11.3778 19.2584 11.2585 19.3778 11.1112 19.3778H1.3334C1.18612 19.3778 1.06673 19.2584 1.06673 19.1111V6.66666C1.06673 6.51938 1.18612 6.39999 1.3334 6.39999H11.1112ZM11.7334 6.66666C11.7334 6.32301 11.4548 6.04443 11.1112 6.04443H1.3334C0.989755 6.04443 0.711176 6.32301 0.711176 6.66666V19.1111C0.711176 19.4547 0.989753 19.7333 1.3334 19.7333H11.1112C11.4548 19.7333 11.7334 19.4547 11.7334 19.1111V6.66666Z" fill="#222222"/>
<path fill-rule="evenodd" clip-rule="evenodd" d="M2.11865 8.26664C2.11865 8.16846 2.19825 8.08887 2.29643 8.08887H10.0977C10.1959 8.08887 10.2755 8.16846 10.2755 8.26664C10.2755 8.36483 10.1959 8.44442 10.0977 8.44442H2.29643C2.19825 8.44442 2.11865 8.36483 2.11865 8.26664Z" fill="#222222"/>
<path fill-rule="evenodd" clip-rule="evenodd" d="M2.11865 10.0445C2.11865 9.94629 2.19825 9.8667 2.29643 9.8667H10.0977C10.1959 9.8667 10.2755 9.94629 10.2755 10.0445C10.2755 10.1427 10.1959 10.2223 10.0977 10.2223H2.29643C2.19825 10.2223 2.11865 10.1427 2.11865 10.0445Z" fill="#222222"/>
<path fill-rule="evenodd" clip-rule="evenodd" d="M2.11865 11.8223C2.11865 11.7241 2.19825 11.6445 2.29643 11.6445H10.0977C10.1959 11.6445 10.2755 11.7241 10.2755 11.8223C10.2755 11.9205 10.1959 12.0001 10.0977 12.0001H2.29643C2.19825 12.0001 2.11865 11.9205 2.11865 11.8223Z" fill="#222222"/>
<path fill-rule="evenodd" clip-rule="evenodd" d="M2.11865 13.5999C2.11865 13.5017 2.19825 13.4221 2.29643 13.4221H10.0977C10.1959 13.4221 10.2755 13.5017 10.2755 13.5999C10.2755 13.6981 10.1959 13.7777 10.0977 13.7777H2.29643C2.19825 13.7777 2.11865 13.6981 2.11865 13.5999Z" fill="#222222"/>
<path fill-rule="evenodd" clip-rule="evenodd" d="M2.11865 15.3777C2.11865 15.2795 2.19825 15.2 2.29643 15.2H10.0977C10.1959 15.2 10.2755 15.2795 10.2755 15.3777C10.2755 15.4759 10.1959 15.5555 10.0977 15.5555H2.29643C2.19825 15.5555 2.11865 15.4759 2.11865 15.3777Z" fill="#222222"/>
<path fill-rule="evenodd" clip-rule="evenodd" d="M2.11865 17.1556C2.11865 17.0574 2.19825 16.9778 2.29643 16.9778H10.0977C10.1959 16.9778 10.2755 17.0574 10.2755 17.1556C10.2755 17.2537 10.1959 17.3333 10.0977 17.3333H2.29643C2.19825 17.3333 2.11865 17.2537 2.11865 17.1556Z" fill="#222222"/>
<path d="M4.44434 2.22228C4.44434 1.97682 4.64332 1.77783 4.88878 1.77783H19.111C19.3565 1.77783 19.5554 1.97682 19.5554 2.22228V21.7778C19.5554 22.0233 19.3565 22.2223 19.111 22.2223H4.88878C4.64332 22.2223 4.44434 22.0233 4.44434 21.7778V2.22228Z" fill="white"/>
<path fill-rule="evenodd" clip-rule="evenodd" d="M4.2666 2.22232C4.2666 1.87868 4.54518 1.6001 4.88882 1.6001H19.111C19.4547 1.6001 19.7333 1.87868 19.7333 2.22232V21.7779C19.7333 22.1215 19.4547 22.4001 19.111 22.4001H4.88882C4.54518 22.4001 4.2666 22.1215 4.2666 21.7779V2.22232ZM4.88882 1.95565C4.74155 1.95565 4.62216 2.07504 4.62216 2.22232V21.7779C4.62216 21.9251 4.74155 22.0445 4.88882 22.0445H19.111C19.2583 22.0445 19.3777 21.9252 19.3777 21.7779V2.22232C19.3777 2.07504 19.2583 1.95565 19.111 1.95565H4.88882Z" fill="#222222"/>
<path d="M6.22217 3.55566L17.7777 3.55566V8.889L6.22217 8.889L6.22217 3.55566Z" fill="url(#paint0_linear_6805_220381)"/>
<path fill-rule="evenodd" clip-rule="evenodd" d="M6.04443 3.55571C6.04443 3.45752 6.12403 3.37793 6.22221 3.37793L17.7778 3.37793C17.876 3.37793 17.9555 3.45752 17.9555 3.55571V8.88904C17.9555 8.98722 17.876 9.06682 17.7778 9.06682L6.22221 9.06682C6.12403 9.06682 6.04443 8.98722 6.04443 8.88904L6.04443 3.55571ZM6.39999 3.73349L6.39999 8.71126L17.6 8.71126V3.73349L6.39999 3.73349Z" fill="#222222"/>
<path fill-rule="evenodd" clip-rule="evenodd" d="M6.1333 10.9334C6.1333 10.8352 6.21289 10.7556 6.31108 10.7556H17.7777C17.8759 10.7556 17.9555 10.8352 17.9555 10.9334C17.9555 11.0316 17.8759 11.1112 17.7777 11.1112H6.31108C6.21289 11.1112 6.1333 11.0316 6.1333 10.9334Z" fill="#222222"/>
<path fill-rule="evenodd" clip-rule="evenodd" d="M6.1333 12.7112C6.1333 12.613 6.21289 12.5334 6.31108 12.5334H12.1777C12.2759 12.5334 12.3555 12.613 12.3555 12.7112C12.3555 12.8094 12.2759 12.889 12.1777 12.889H6.31108C6.21289 12.889 6.1333 12.8094 6.1333 12.7112Z" fill="#222222"/>
<path fill-rule="evenodd" clip-rule="evenodd" d="M6.1333 12.7112C6.1333 12.613 6.21289 12.5334 6.31108 12.5334H17.7777C17.8759 12.5334 17.9555 12.613 17.9555 12.7112C17.9555 12.8094 17.8759 12.889 17.7777 12.889H6.31108C6.21289 12.889 6.1333 12.8094 6.1333 12.7112Z" fill="#222222"/>
<path fill-rule="evenodd" clip-rule="evenodd" d="M6.1333 14.4891C6.1333 14.3909 6.21289 14.3113 6.31108 14.3113H12.1777C12.2759 14.3113 12.3555 14.3909 12.3555 14.4891C12.3555 14.5872 12.2759 14.6668 12.1777 14.6668H6.31108C6.21289 14.6668 6.1333 14.5872 6.1333 14.4891Z" fill="#222222"/>
<path fill-rule="evenodd" clip-rule="evenodd" d="M6.1333 14.4891C6.1333 14.3909 6.21289 14.3113 6.31108 14.3113H17.7777C17.8759 14.3113 17.9555 14.3909 17.9555 14.4891C17.9555 14.5872 17.8759 14.6668 17.7777 14.6668H6.31108C6.21289 14.6668 6.1333 14.5872 6.1333 14.4891Z" fill="#222222"/>
<path fill-rule="evenodd" clip-rule="evenodd" d="M6.1333 16.2666C6.1333 16.1685 6.21289 16.0889 6.31108 16.0889H17.7777C17.8759 16.0889 17.9555 16.1685 17.9555 16.2666C17.9555 16.3648 17.8759 16.4444 17.7777 16.4444H6.31108C6.21289 16.4444 6.1333 16.3648 6.1333 16.2666Z" fill="#222222"/>
<path fill-rule="evenodd" clip-rule="evenodd" d="M6.1333 18.0445C6.1333 17.9463 6.21289 17.8667 6.31108 17.8667L17.7777 17.8667C17.8759 17.8667 17.9555 17.9463 17.9555 18.0445C17.9555 18.1427 17.8759 18.2223 17.7777 18.2223L6.31108 18.2223C6.21289 18.2223 6.1333 18.1427 6.1333 18.0445Z" fill="#222222"/>
<path fill-rule="evenodd" clip-rule="evenodd" d="M6.1333 19.7676C6.1333 19.6694 6.21289 19.5898 6.31108 19.5898L17.7777 19.5898C17.8759 19.5898 17.9555 19.6694 17.9555 19.7676C17.9555 19.8658 17.8759 19.9454 17.7777 19.9454L6.31108 19.9454C6.21289 19.9454 6.1333 19.8658 6.1333 19.7676Z" fill="#222222"/>
<defs>
<linearGradient id="paint0_linear_6805_220381" x1="17.7777" y1="6.22233" x2="6.22217" y2="6.22233" gradientUnits="userSpaceOnUse">
<stop stop-color="#A1FF8B"/>
<stop offset="1" stop-color="#3F93FF"/>
</linearGradient>
</defs>
</svg>
