<svg width="24" height="24" viewBox="0 0 24 24" fill="none" xmlns="http://www.w3.org/2000/svg">
<path d="M2.6665 3.11095C2.6665 2.86549 2.86549 2.6665 3.11095 2.6665H20.8887C21.1342 2.6665 21.3332 2.86549 21.3332 3.11095V20.8887C21.3332 21.1342 21.1342 21.3332 20.8887 21.3332H3.11095C2.86549 21.3332 2.6665 21.1342 2.6665 20.8887V3.11095Z" fill="white"/>
<path fill-rule="evenodd" clip-rule="evenodd" d="M2.48877 3.11099C2.48877 2.76735 2.76735 2.48877 3.11099 2.48877H20.8888C21.2324 2.48877 21.511 2.76735 21.511 3.11099V20.8888C21.511 21.2324 21.2324 21.511 20.8888 21.511H3.11099C2.76735 21.511 2.48877 21.2324 2.48877 20.8888V3.11099ZM3.11099 2.84433C2.96372 2.84433 2.84433 2.96372 2.84433 3.11099V20.8888C2.84433 21.036 2.96372 21.1554 3.11099 21.1554H20.8888C21.036 21.1554 21.1554 21.036 21.1554 20.8888V3.11099C21.1554 2.96372 21.036 2.84433 20.8888 2.84433H3.11099Z" fill="#222222"/>
<path d="M2.6665 3.11095C2.6665 2.86549 2.86549 2.6665 3.11095 2.6665H20.8887C21.1342 2.6665 21.3332 2.86549 21.3332 3.11095V4.44428H2.6665V3.11095Z" fill="url(#paint0_linear_6805_220250)"/>
<path fill-rule="evenodd" clip-rule="evenodd" d="M2.48877 3.11099C2.48877 2.76735 2.76735 2.48877 3.11099 2.48877H20.8888C21.2324 2.48877 21.511 2.76735 21.511 3.11099V4.44433C21.511 4.54251 21.4314 4.6221 21.3332 4.6221H2.66655C2.56836 4.6221 2.48877 4.54251 2.48877 4.44433V3.11099ZM3.11099 2.84433C2.96372 2.84433 2.84433 2.96372 2.84433 3.11099V4.26655H21.1554V3.11099C21.1554 2.96372 21.036 2.84433 20.8888 2.84433H3.11099Z" fill="#222222"/>
<path d="M16 12.8887C16 15.0978 14.2091 16.8887 12 16.8887C9.79086 16.8887 8 15.0978 8 12.8887C8 10.6795 9.79086 8.88867 12 8.88867C14.2091 8.88867 16 10.6795 16 12.8887Z" fill="url(#paint1_linear_6805_220250)"/>
<path fill-rule="evenodd" clip-rule="evenodd" d="M12 9.06649C9.88909 9.06649 8.17782 10.7778 8.17782 12.8887C8.17782 14.9997 9.88909 16.7109 12 16.7109C14.111 16.7109 15.8223 14.9997 15.8223 12.8887C15.8223 10.7778 14.111 9.06649 12 9.06649ZM7.82227 12.8887C7.82227 10.5814 9.69272 8.71094 12 8.71094C14.3074 8.71094 16.1778 10.5814 16.1778 12.8887C16.1778 15.196 14.3074 17.0665 12 17.0665C9.69272 17.0665 7.82227 15.196 7.82227 12.8887Z" fill="#222222"/>
<path fill-rule="evenodd" clip-rule="evenodd" d="M14.4533 11.2359C14.5227 11.3054 14.5225 11.418 14.4529 11.4873L11.3887 14.5418C11.3193 14.611 11.2071 14.611 11.1377 14.5418L9.54739 12.9566C9.47785 12.8872 9.47767 12.7747 9.54699 12.7051C9.6163 12.6356 9.72887 12.6354 9.7984 12.7047L11.2632 14.1649L14.2019 11.2355C14.2715 11.1661 14.384 11.1663 14.4533 11.2359Z" fill="#222222"/>
<path d="M19.6762 19.6599C19.6691 19.6845 19.6546 19.7063 19.6346 19.7223C19.6145 19.7383 19.59 19.7477 19.5645 19.7491C19.5389 19.7506 19.5135 19.7441 19.4917 19.7305C19.47 19.7169 19.4531 19.6969 19.4432 19.6732L17.3424 14.5869C17.333 14.5643 17.3306 14.5395 17.3354 14.5155C17.3402 14.4915 17.352 14.4695 17.3692 14.4522C17.3865 14.435 17.4085 14.4232 17.4325 14.4184C17.4565 14.4136 17.4813 14.4161 17.5039 14.4254L22.5902 16.5262C22.6139 16.5361 22.6339 16.553 22.6475 16.5747C22.6611 16.5965 22.6676 16.6219 22.6661 16.6475C22.6647 16.673 22.6553 16.6975 22.6393 16.7176C22.6233 16.7376 22.6015 16.7522 22.5769 16.7592L20.387 17.3854C20.3668 17.3912 20.3484 17.402 20.3336 17.4168C20.3187 17.4317 20.3079 17.4501 20.3021 17.4702L19.6762 19.6599Z" fill="#C9E4EA"/>
<path fill-rule="evenodd" clip-rule="evenodd" d="M17.5564 14.6394L19.5481 19.4615L20.1313 17.4213C20.1454 17.3721 20.1717 17.3274 20.2079 17.2912C20.2441 17.255 20.2889 17.2286 20.3381 17.2145L22.3785 16.6311L17.5564 14.6394ZM17.3978 14.2441C17.4562 14.2325 17.5168 14.2384 17.5718 14.2611L22.6587 16.3622C22.7163 16.3862 22.7651 16.4275 22.7982 16.4805C22.8314 16.5334 22.8472 16.5953 22.8437 16.6577C22.8401 16.72 22.8172 16.7797 22.7783 16.8285C22.7393 16.8774 22.6861 16.9128 22.6261 16.9301L20.4648 17.5481L19.8471 19.7091C19.8298 19.7691 19.7943 19.8223 19.7455 19.8613C19.6967 19.9002 19.637 19.9231 19.5747 19.9267C19.5123 19.9303 19.4504 19.9144 19.3975 19.8812C19.3445 19.8481 19.3032 19.7993 19.2791 19.7417L19.2789 19.7411L17.1781 14.6548C17.1554 14.5998 17.1494 14.5392 17.1611 14.4808C17.1727 14.4224 17.2014 14.3687 17.2436 14.3266C17.2857 14.2845 17.3394 14.2558 17.3978 14.2441Z" fill="#222222"/>
<defs>
<linearGradient id="paint0_linear_6805_220250" x1="21.3332" y1="3.55539" x2="2.6665" y2="3.55539" gradientUnits="userSpaceOnUse">
<stop stop-color="#A1FF8B"/>
<stop offset="1" stop-color="#3F93FF"/>
</linearGradient>
<linearGradient id="paint1_linear_6805_220250" x1="16" y1="8.88867" x2="8" y2="16.8887" gradientUnits="userSpaceOnUse">
<stop stop-color="#A1FF8B"/>
<stop offset="1" stop-color="#3F93FF"/>
</linearGradient>
</defs>
</svg>
