<svg width="24" height="24" viewBox="0 0 24 24" fill="none" xmlns="http://www.w3.org/2000/svg">
<path d="M4.44434 2.22228C4.44434 1.97682 4.64332 1.77783 4.88878 1.77783H19.111C19.3565 1.77783 19.5554 1.97682 19.5554 2.22228V21.7778C19.5554 22.0233 19.3565 22.2223 19.111 22.2223H4.88878C4.64332 22.2223 4.44434 22.0233 4.44434 21.7778V2.22228Z" fill="white"/>
<path fill-rule="evenodd" clip-rule="evenodd" d="M4.2666 2.22232C4.2666 1.87868 4.54518 1.6001 4.88882 1.6001H19.111C19.4547 1.6001 19.7333 1.87868 19.7333 2.22232V21.7779C19.7333 22.1215 19.4547 22.4001 19.111 22.4001H4.88882C4.54518 22.4001 4.2666 22.1215 4.2666 21.7779V2.22232ZM4.88882 1.95565C4.74155 1.95565 4.62216 2.07504 4.62216 2.22232V21.7779C4.62216 21.9251 4.74155 22.0445 4.88882 22.0445H19.111C19.2583 22.0445 19.3777 21.9252 19.3777 21.7779V2.22232C19.3777 2.07504 19.2583 1.95565 19.111 1.95565H4.88882Z" fill="#222222"/>
<path fill-rule="evenodd" clip-rule="evenodd" d="M6.22217 5.77788C6.22217 5.67969 6.30176 5.6001 6.39995 5.6001H17.5999C17.6981 5.6001 17.7777 5.67969 17.7777 5.77788C17.7777 5.87606 17.6981 5.95565 17.5999 5.95565H6.39995C6.30176 5.95565 6.22217 5.87606 6.22217 5.77788Z" fill="#222222"/>
<path fill-rule="evenodd" clip-rule="evenodd" d="M6.22217 18.2222C6.22217 18.124 6.30176 18.0444 6.39995 18.0444H17.5999C17.6981 18.0444 17.7777 18.124 17.7777 18.2222C17.7777 18.3204 17.6981 18.4 17.5999 18.4H6.39995C6.30176 18.4 6.22217 18.3204 6.22217 18.2222Z" fill="#222222"/>
<path fill-rule="evenodd" clip-rule="evenodd" d="M6.22217 4.00004C6.22217 3.90186 6.30176 3.82227 6.39995 3.82227H17.5999C17.6981 3.82227 17.7777 3.90186 17.7777 4.00004C17.7777 4.09823 17.6981 4.17782 17.5999 4.17782H6.39995C6.30176 4.17782 6.22217 4.09823 6.22217 4.00004Z" fill="#222222"/>
<path fill-rule="evenodd" clip-rule="evenodd" d="M6.22217 7.55571C6.22217 7.45752 6.30176 7.37793 6.39995 7.37793H17.5999C17.6981 7.37793 17.7777 7.45752 17.7777 7.55571C17.7777 7.65389 17.6981 7.73349 17.5999 7.73349H6.39995C6.30176 7.73349 6.22217 7.65389 6.22217 7.55571Z" fill="#222222"/>
<path fill-rule="evenodd" clip-rule="evenodd" d="M6.22217 20C6.22217 19.9019 6.30176 19.8223 6.39995 19.8223H17.5999C17.6981 19.8223 17.7777 19.9019 17.7777 20C17.7777 20.0982 17.6981 20.1778 17.5999 20.1778H6.39995C6.30176 20.1778 6.22217 20.0982 6.22217 20Z" fill="#222222"/>
<path fill-rule="evenodd" clip-rule="evenodd" d="M6.24414 9.33354C6.24414 9.23536 6.32373 9.15576 6.42192 9.15576H10.5053C10.6034 9.15576 10.683 9.23536 10.683 9.33354C10.683 9.43172 10.6034 9.51132 10.5053 9.51132H6.42192C6.32373 9.51132 6.24414 9.43172 6.24414 9.33354Z" fill="#222222"/>
<path fill-rule="evenodd" clip-rule="evenodd" d="M6.24414 11.1111C6.24414 11.0129 6.32373 10.9333 6.42192 10.9333H10.5053C10.6034 10.9333 10.683 11.0129 10.683 11.1111C10.683 11.2093 10.6034 11.2889 10.5053 11.2889H6.42192C6.32373 11.2889 6.24414 11.2093 6.24414 11.1111Z" fill="#222222"/>
<path fill-rule="evenodd" clip-rule="evenodd" d="M6.24414 12.889C6.24414 12.7908 6.32373 12.7112 6.42192 12.7112H10.5053C10.6034 12.7112 10.683 12.7908 10.683 12.889C10.683 12.9871 10.6034 13.0667 10.5053 13.0667H6.42192C6.32373 13.0667 6.24414 12.9871 6.24414 12.889Z" fill="#222222"/>
<path fill-rule="evenodd" clip-rule="evenodd" d="M6.24414 14.6668C6.24414 14.5686 6.32373 14.489 6.42192 14.489H10.5053C10.6034 14.489 10.683 14.5686 10.683 14.6668C10.683 14.765 10.6034 14.8446 10.5053 14.8446H6.42192C6.32373 14.8446 6.24414 14.765 6.24414 14.6668Z" fill="#222222"/>
<path fill-rule="evenodd" clip-rule="evenodd" d="M6.22217 16.4446C6.22217 16.3464 6.30176 16.2668 6.39995 16.2668H17.5999C17.6981 16.2668 17.7777 16.3464 17.7777 16.4446C17.7777 16.5428 17.6981 16.6224 17.5999 16.6224H6.39995C6.30176 16.6224 6.22217 16.5428 6.22217 16.4446Z" fill="#222222"/>
<path d="M11.5557 9.3335H17.7779V14.6668H11.5557V9.3335Z" fill="url(#paint0_linear_6805_220159)"/>
<path fill-rule="evenodd" clip-rule="evenodd" d="M11.3779 9.33354C11.3779 9.23536 11.4575 9.15576 11.5557 9.15576H17.7779C17.8761 9.15576 17.9557 9.23536 17.9557 9.33354V14.6669C17.9557 14.7651 17.8761 14.8447 17.7779 14.8447H11.5557C11.4575 14.8447 11.3779 14.7651 11.3779 14.6669V9.33354ZM11.7335 9.51132V14.4891H17.6002V9.51132H11.7335Z" fill="#222222"/>
<defs>
<linearGradient id="paint0_linear_6805_220159" x1="17.7779" y1="12.0002" x2="11.5557" y2="12.0002" gradientUnits="userSpaceOnUse">
<stop stop-color="#A1FF8B"/>
<stop offset="1" stop-color="#3F93FF"/>
</linearGradient>
</defs>
</svg>
