<svg width="24" height="24" viewBox="0 0 24 24" fill="none" xmlns="http://www.w3.org/2000/svg">
<path fill-rule="evenodd" clip-rule="evenodd" d="M6.93333 3.55555C6.93333 3.45737 7.01292 3.37778 7.11111 3.37778H18C20.43 3.37778 22.4 5.34772 22.4 7.77778C22.4 10.2078 20.43 12.1778 18 12.1778H16.8889C16.7907 12.1778 16.7111 12.0982 16.7111 12C16.7111 11.9018 16.7907 11.8222 16.8889 11.8222H18C20.2337 11.8222 22.0444 10.0115 22.0444 7.77778C22.0444 5.54409 20.2337 3.73333 18 3.73333H7.11111C7.01292 3.73333 6.93333 3.65374 6.93333 3.55555ZM6 12.1778C3.76631 12.1778 1.95555 13.9885 1.95555 16.2222C1.95555 18.4559 3.76631 20.2667 6 20.2667H16.4996L15.6717 19.4388C15.6023 19.3693 15.6023 19.2568 15.6717 19.1874C15.7412 19.118 15.8538 19.118 15.9232 19.1874L17.0546 20.3188C17.124 20.3882 17.124 20.5007 17.0546 20.5701L15.9232 21.7015C15.8538 21.7709 15.7412 21.7709 15.6717 21.7015C15.6023 21.6321 15.6023 21.5196 15.6717 21.4501L16.4996 20.6222H6C3.56994 20.6222 1.6 18.6523 1.6 16.2222C1.6 13.7922 3.56994 11.8222 6 11.8222H7.11111C7.2093 11.8222 7.28889 11.9018 7.28889 12C7.28889 12.0982 7.2093 12.1778 7.11111 12.1778H6Z" fill="#222222"/>
<path fill-rule="evenodd" clip-rule="evenodd" d="M12.7692 8H11.2308V9.22898L10.5845 9.49662L9.71547 8.62764L8.62764 9.71547L9.48391 10.5717L9.21093 11.2308H8V12.7692H9.21093L9.48391 13.4283L8.62764 14.2845L9.71547 15.3724L10.5845 14.5034L11.2308 14.771V16H12.7692V14.7455L13.3975 14.4853L14.2845 15.3724L15.3724 14.2845L14.4726 13.3847L14.7276 12.7692H16V11.2308H14.7276L14.4726 10.6153L15.3724 9.71547L14.2845 8.62764L13.3975 9.51467L12.7692 9.25449V8ZM11.9692 13.8461C12.9888 13.8461 13.8154 13.0196 13.8154 12C13.8154 10.9804 12.9888 10.1539 11.9692 10.1539C10.9496 10.1539 10.1231 10.9804 10.1231 12C10.1231 13.0196 10.9496 13.8461 11.9692 13.8461Z" fill="url(#paint0_linear_1_14)"/>
<path fill-rule="evenodd" clip-rule="evenodd" d="M11.053 8.00001C11.053 7.90183 11.1326 7.82224 11.2308 7.82224H12.7692C12.8674 7.82224 12.947 7.90183 12.947 8.00001V9.13566L13.3557 9.30499L14.1588 8.50195C14.1921 8.46861 14.2373 8.44988 14.2845 8.44988C14.3316 8.44988 14.3769 8.46861 14.4102 8.50195L15.498 9.58979C15.5675 9.65921 15.5675 9.77183 15.498 9.84126L14.6823 10.657L14.8463 11.053H16C16.0982 11.053 16.1778 11.1326 16.1778 11.2308V12.7693C16.1778 12.8674 16.0982 12.947 16 12.947H14.8463L14.6823 13.343L15.498 14.1588C15.5675 14.2282 15.5675 14.3408 15.498 14.4102L14.4102 15.4981C14.3769 15.5314 14.3316 15.5501 14.2845 15.5501C14.2373 15.5501 14.1921 15.5314 14.1588 15.4981L13.3557 14.695L12.947 14.8644V16C12.947 16.0982 12.8674 16.1778 12.7692 16.1778H11.2308C11.1326 16.1778 11.053 16.0982 11.053 16V14.8899L10.6262 14.7131L9.84124 15.4981C9.77182 15.5675 9.6592 15.5675 9.58978 15.4981L8.50193 14.4102C8.46859 14.3769 8.44986 14.3317 8.44986 14.2845C8.44986 14.2373 8.46859 14.1921 8.50193 14.1588L9.27422 13.3865L9.09218 12.947H8C7.90181 12.947 7.82222 12.8674 7.82222 12.7693V11.2308C7.82222 11.1326 7.90181 11.053 8 11.053H9.09218L9.27422 10.6135L8.50194 9.84126C8.46859 9.80792 8.44986 9.76268 8.44986 9.71548C8.44986 9.66837 8.46859 9.62312 8.50194 9.58979L9.58978 8.50195C9.6592 8.43252 9.77182 8.43252 9.84124 8.50195L10.6262 9.28695L11.053 9.11015V8.00001ZM11.4085 8.17779V9.22899C11.4085 9.3009 11.3652 9.3657 11.2988 9.39326L10.6525 9.6609C10.5861 9.68846 10.5096 9.67326 10.4588 9.62241L9.71546 8.87907L8.87906 9.71548L9.6096 10.4461C9.66044 10.4969 9.67564 10.5733 9.64818 10.6398L9.3752 11.2989C9.34764 11.3653 9.28284 11.4085 9.21093 11.4085H8.17778V12.5915H9.21093C9.28284 12.5915 9.34764 12.6348 9.3752 12.7012L9.64818 13.3602C9.67564 13.4267 9.66044 13.5031 9.6096 13.554L8.87906 14.2845L9.71546 15.121L10.4588 14.3776C10.5096 14.3268 10.5861 14.3116 10.6525 14.3391L11.2988 14.6068C11.3652 14.6343 11.4085 14.6991 11.4085 14.771V15.8222H12.5915V14.7455C12.5915 14.6737 12.6348 14.6088 12.7012 14.5813L13.3294 14.3211C13.3959 14.2936 13.4724 14.3088 13.5232 14.3597L14.2845 15.121L15.121 14.2845L14.3468 13.5104C14.296 13.4596 14.2808 13.3831 14.3084 13.3167L14.5633 12.7012C14.5908 12.6348 14.6556 12.5915 14.7276 12.5915H15.8222V11.4085H14.7276C14.6556 11.4085 14.5908 11.3653 14.5633 11.2989L14.3084 10.6833C14.2808 10.6169 14.296 10.5405 14.3468 10.4896L15.121 9.71548L14.2845 8.87907L13.5232 9.64037C13.4724 9.69121 13.3958 9.70641 13.3294 9.67895L12.7012 9.41868C12.6348 9.39121 12.5915 9.32632 12.5915 9.2545V8.17779H11.4085ZM11.9692 10.3317C11.0478 10.3317 10.3009 11.0786 10.3009 12C10.3009 12.9214 11.0478 13.6684 11.9692 13.6684C12.8907 13.6684 13.6376 12.9214 13.6376 12C13.6376 11.0786 12.8907 10.3317 11.9692 10.3317ZM9.94533 12C9.94533 10.8822 10.8515 9.9761 11.9692 9.9761C13.087 9.9761 13.9932 10.8822 13.9932 12C13.9932 13.1178 13.087 14.0239 11.9692 14.0239C10.8515 14.0239 9.94533 13.1178 9.94533 12Z" fill="#222222"/>
<path d="M5.06667 2C5.06667 2.61365 4.56921 3.11111 3.95556 3.11111C3.3419 3.11111 2.84444 2.61365 2.84444 2C2.84444 1.38634 3.3419 0.888885 3.95556 0.888885C4.56921 0.888885 5.06667 1.38634 5.06667 2Z" fill="white"/>
<path fill-rule="evenodd" clip-rule="evenodd" d="M3.95555 1.06668C3.44009 1.06668 3.02222 1.48454 3.02222 2.00001C3.02222 2.51548 3.44009 2.93334 3.95555 2.93334C4.47102 2.93334 4.88889 2.51548 4.88889 2.00001C4.88889 1.48454 4.47102 1.06668 3.95555 1.06668ZM2.66666 2.00001C2.66666 1.28818 3.24372 0.711121 3.95555 0.711121C4.66738 0.711121 5.24444 1.28818 5.24444 2.00001C5.24444 2.71184 4.66738 3.2889 3.95555 3.2889C3.24372 3.2889 2.66666 2.71184 2.66666 2.00001Z" fill="#222222"/>
<path d="M1.77778 5.95556C1.77778 5.36619 2.0119 4.80096 2.42865 4.38421C2.8454 3.96746 3.41063 3.73334 4 3.73334C4.58937 3.73334 5.15461 3.96746 5.57135 4.38421C5.9881 4.80096 6.22222 5.36619 6.22222 5.95556H4H1.77778Z" fill="white"/>
<path fill-rule="evenodd" clip-rule="evenodd" d="M6.0367 5.77776C5.99508 5.3007 5.78692 4.85118 5.44564 4.5099C5.06223 4.12649 4.54222 3.9111 4 3.9111C3.45778 3.9111 2.93777 4.12649 2.55435 4.5099C2.21307 4.85118 2.00491 5.3007 1.9633 5.77776H6.0367ZM6.22222 6.13332H1.77778C1.73063 6.13332 1.68541 6.11459 1.65207 6.08125C1.61873 6.04791 1.6 6.00269 1.6 5.95554C1.6 5.31903 1.85285 4.70857 2.30294 4.25848C2.75303 3.8084 3.36348 3.55554 4 3.55554C4.63651 3.55554 5.24697 3.8084 5.69706 4.25848C6.14715 4.70857 6.4 5.31903 6.4 5.95554C6.4 6.05373 6.32041 6.13332 6.22222 6.13332Z" fill="#222222"/>
<path d="M21.0667 19.0667C21.0667 19.6804 20.5692 20.1778 19.9556 20.1778C19.3419 20.1778 18.8444 19.6804 18.8444 19.0667C18.8444 18.453 19.3419 17.9556 19.9556 17.9556C20.5692 17.9556 21.0667 18.453 21.0667 19.0667Z" fill="white"/>
<path fill-rule="evenodd" clip-rule="evenodd" d="M19.9556 18.1333C19.4401 18.1333 19.0222 18.5512 19.0222 19.0667C19.0222 19.5821 19.4401 20 19.9556 20C20.471 20 20.8889 19.5821 20.8889 19.0667C20.8889 18.5512 20.471 18.1333 19.9556 18.1333ZM18.6667 19.0667C18.6667 18.3548 19.2437 17.7778 19.9556 17.7778C20.6674 17.7778 21.2444 18.3548 21.2444 19.0667C21.2444 19.7785 20.6674 20.3555 19.9556 20.3555C19.2437 20.3555 18.6667 19.7785 18.6667 19.0667Z" fill="#222222"/>
<path d="M17.7778 23.0222C17.7778 22.4329 18.0119 21.8676 18.4286 21.4508C18.8454 21.0341 19.4107 20.8 20 20.8C20.5893 20.8 21.1546 21.0341 21.5714 21.4508C21.9881 21.8676 22.2222 22.4329 22.2222 23.0222H20H17.7778Z" fill="white"/>
<path fill-rule="evenodd" clip-rule="evenodd" d="M22.0367 22.8444C21.9951 22.3674 21.7869 21.9179 21.4456 21.5766C21.0622 21.1932 20.5422 20.9778 20 20.9778C19.4578 20.9778 18.9378 21.1932 18.5544 21.5766C18.2131 21.9179 18.0049 22.3674 17.9633 22.8444H22.0367ZM22.2222 23.2H17.7778C17.7307 23.2 17.6854 23.1812 17.6521 23.1479C17.6188 23.1146 17.6 23.0693 17.6 23.0222C17.6 22.3857 17.8529 21.7753 18.3029 21.3252C18.7531 20.8751 19.3635 20.6222 20 20.6222C20.6365 20.6222 21.2469 20.8751 21.6971 21.3252C22.1471 21.7753 22.4 22.3857 22.4 23.0222C22.4 23.1204 22.3204 23.2 22.2222 23.2Z" fill="#222222"/>
<defs>
<linearGradient id="paint0_linear_1_14" x1="16" y1="12" x2="8" y2="12" gradientUnits="userSpaceOnUse">
<stop stop-color="#A1FF8B"/>
<stop offset="1" stop-color="#3F93FF"/>
</linearGradient>
</defs>
</svg>
