<svg width="24" height="24" viewBox="0 0 24 24" fill="none" xmlns="http://www.w3.org/2000/svg">
<path d="M22.2223 12.0001C22.2223 17.6456 17.6456 22.2223 12.0001 22.2223C6.35448 22.2223 1.77783 17.6456 1.77783 12.0001C1.77783 6.35448 6.35448 1.77783 12.0001 1.77783C17.6456 1.77783 22.2223 6.35448 22.2223 12.0001Z" fill="white"/>
<path d="M7.64453 7.11119C7.64453 6.86573 7.84352 6.66675 8.08898 6.66675H15.8914C16.1369 6.66675 16.3359 6.86573 16.3359 7.11119V9.77786C16.3359 10.0233 16.1369 10.2223 15.8914 10.2223H8.08898C7.84352 10.2223 7.64453 10.0233 7.64453 9.77786V7.11119Z" fill="url(#paint0_linear_6805_220226)"/>
<path fill-rule="evenodd" clip-rule="evenodd" d="M7.4668 7.11124C7.4668 6.76759 7.74538 6.48901 8.08902 6.48901H15.8915C16.2351 6.48901 16.5137 6.76759 16.5137 7.11124V9.7779C16.5137 10.1215 16.2351 10.4001 15.8915 10.4001H8.08902C7.74537 10.4001 7.4668 10.1215 7.4668 9.7779V7.11124ZM8.08902 6.84457C7.94174 6.84457 7.82235 6.96396 7.82235 7.11124V9.7779C7.82235 9.92518 7.94174 10.0446 8.08902 10.0446H15.8915C16.0388 10.0446 16.1582 9.92518 16.1582 9.7779V7.11124C16.1582 6.96396 16.0388 6.84457 15.8915 6.84457H8.08902Z" fill="#222222"/>
<path d="M7.64453 13.3334C7.64453 13.5788 7.84352 13.7778 8.08898 13.7778L15.8914 13.7778C16.1369 13.7778 16.3359 13.5788 16.3359 13.3334L16.3359 10.6667C16.3359 10.4213 16.1369 10.2223 15.8914 10.2223L8.08897 10.2223C7.84352 10.2223 7.64453 10.4213 7.64453 10.6667L7.64453 13.3334Z" fill="url(#paint1_linear_6805_220226)"/>
<path fill-rule="evenodd" clip-rule="evenodd" d="M7.4668 13.3333C7.4668 13.677 7.74538 13.9556 8.08902 13.9556L15.8915 13.9556C16.2351 13.9556 16.5137 13.677 16.5137 13.3333L16.5137 10.6667C16.5137 10.323 16.2351 10.0445 15.8915 10.0445L8.08902 10.0445C7.74537 10.0445 7.4668 10.323 7.4668 10.6667L7.4668 13.3333ZM8.08902 13.6C7.94174 13.6 7.82235 13.4806 7.82235 13.3333L7.82235 10.6667C7.82235 10.5194 7.94174 10.4 8.08902 10.4L15.8915 10.4C16.0388 10.4 16.1582 10.5194 16.1582 10.6667L16.1582 13.3333C16.1582 13.4806 16.0388 13.6 15.8915 13.6L8.08902 13.6Z" fill="#222222"/>
<path d="M15.546 8.40507C15.546 8.62326 15.3691 8.80013 15.1509 8.80013C14.9327 8.80013 14.7559 8.62326 14.7559 8.40507C14.7559 8.18689 14.9327 8.01001 15.1509 8.01001C15.3691 8.01001 15.546 8.18689 15.546 8.40507Z" fill="#C9E4EA"/>
<path fill-rule="evenodd" clip-rule="evenodd" d="M15.151 8.18783C15.031 8.18783 14.9337 8.28511 14.9337 8.40511C14.9337 8.52512 15.031 8.6224 15.151 8.6224C15.271 8.6224 15.3682 8.52512 15.3682 8.40511C15.3682 8.28511 15.271 8.18783 15.151 8.18783ZM14.5781 8.40511C14.5781 8.08874 14.8346 7.83228 15.151 7.83228C15.4673 7.83228 15.7238 8.08874 15.7238 8.40511C15.7238 8.72149 15.4673 8.97795 15.151 8.97795C14.8346 8.97795 14.5781 8.72149 14.5781 8.40511Z" fill="#222222"/>
<path d="M15.546 11.9607C15.546 12.1789 15.3691 12.3558 15.1509 12.3558C14.9327 12.3558 14.7559 12.1789 14.7559 11.9607C14.7559 11.7425 14.9327 11.5657 15.1509 11.5657C15.3691 11.5657 15.546 11.7425 15.546 11.9607Z" fill="#C9E4EA"/>
<path fill-rule="evenodd" clip-rule="evenodd" d="M15.151 11.7433C15.031 11.7433 14.9337 11.8405 14.9337 11.9605C14.9337 12.0805 15.031 12.1778 15.151 12.1778C15.271 12.1778 15.3682 12.0805 15.3682 11.9605C15.3682 11.8405 15.271 11.7433 15.151 11.7433ZM14.5781 11.9605C14.5781 11.6442 14.8346 11.3877 15.151 11.3877C15.4673 11.3877 15.7238 11.6442 15.7238 11.9605C15.7238 12.2769 15.4673 12.5334 15.151 12.5334C14.8346 12.5334 14.5781 12.2769 14.5781 11.9605Z" fill="#222222"/>
<path d="M7.64453 14.2223C7.64453 13.9768 7.84352 13.7778 8.08898 13.7778H15.8914C16.1369 13.7778 16.3359 13.9768 16.3359 14.2223V16.8889C16.3359 17.1344 16.1369 17.3334 15.8914 17.3334H8.08898C7.84352 17.3334 7.64453 17.1344 7.64453 16.8889V14.2223Z" fill="url(#paint2_linear_6805_220226)"/>
<path fill-rule="evenodd" clip-rule="evenodd" d="M7.4668 14.2223C7.4668 13.8787 7.74538 13.6001 8.08902 13.6001H15.8915C16.2351 13.6001 16.5137 13.8787 16.5137 14.2223V16.889C16.5137 17.2326 16.2351 17.5112 15.8915 17.5112H8.08902C7.74537 17.5112 7.4668 17.2326 7.4668 16.889V14.2223ZM8.08902 13.9557C7.94174 13.9557 7.82235 14.075 7.82235 14.2223V16.889C7.82235 17.0363 7.94174 17.1557 8.08902 17.1557H15.8915C16.0388 17.1557 16.1582 17.0363 16.1582 16.889V14.2223C16.1582 14.075 16.0388 13.9557 15.8915 13.9557H8.08902Z" fill="#222222"/>
<path d="M15.546 15.5162C15.546 15.7343 15.3691 15.9112 15.1509 15.9112C14.9327 15.9112 14.7559 15.7343 14.7559 15.5162C14.7559 15.298 14.9327 15.1211 15.1509 15.1211C15.3691 15.1211 15.546 15.298 15.546 15.5162Z" fill="#C9E4EA"/>
<path fill-rule="evenodd" clip-rule="evenodd" d="M15.151 15.2989C15.031 15.2989 14.9337 15.3962 14.9337 15.5162C14.9337 15.6362 15.031 15.7335 15.151 15.7335C15.271 15.7335 15.3682 15.6362 15.3682 15.5162C15.3682 15.3962 15.271 15.2989 15.151 15.2989ZM14.5781 15.5162C14.5781 15.1998 14.8346 14.9434 15.151 14.9434C15.4673 14.9434 15.7238 15.1998 15.7238 15.5162C15.7238 15.8326 15.4673 16.089 15.151 16.089C14.8346 16.089 14.5781 15.8326 14.5781 15.5162Z" fill="#222222"/>
<path fill-rule="evenodd" clip-rule="evenodd" d="M4.62244 10.489C4.72062 10.489 4.80022 10.5686 4.80022 10.6668V11.3335C4.80022 11.4316 4.72062 11.5112 4.62244 11.5112C4.52426 11.5112 4.44466 11.4316 4.44466 11.3335V10.6668C4.44466 10.5686 4.52426 10.489 4.62244 10.489ZM3.11133 12.0001C3.11133 11.9019 3.19092 11.8223 3.28911 11.8223H3.95577C4.05396 11.8223 4.13355 11.9019 4.13355 12.0001C4.13355 12.0983 4.05396 12.1779 3.95577 12.1779H3.28911C3.19092 12.1779 3.11133 12.0983 3.11133 12.0001ZM5.11133 12.0001C5.11133 11.9019 5.19092 11.8223 5.28911 11.8223H5.95577C6.05396 11.8223 6.13355 11.9019 6.13355 12.0001C6.13355 12.0983 6.05396 12.1779 5.95577 12.1779H5.28911C5.19092 12.1779 5.11133 12.0983 5.11133 12.0001ZM4.62244 12.489C4.72062 12.489 4.80022 12.5686 4.80022 12.6668V13.3335C4.80022 13.4316 4.72062 13.5112 4.62244 13.5112C4.52426 13.5112 4.44466 13.4316 4.44466 13.3335V12.6668C4.44466 12.5686 4.52426 12.489 4.62244 12.489Z" fill="#222222"/>
<path fill-rule="evenodd" clip-rule="evenodd" d="M19.1112 14.0447C19.2094 14.0447 19.289 14.1243 19.289 14.2225V14.8891C19.289 14.9873 19.2094 15.0669 19.1112 15.0669C19.013 15.0669 18.9334 14.9873 18.9334 14.8891V14.2225C18.9334 14.1243 19.013 14.0447 19.1112 14.0447ZM17.6001 15.5558C17.6001 15.4576 17.6797 15.378 17.7779 15.378H18.4445C18.5427 15.378 18.6223 15.4576 18.6223 15.5558C18.6223 15.654 18.5427 15.7336 18.4445 15.7336H17.7779C17.6797 15.7336 17.6001 15.654 17.6001 15.5558ZM19.6001 15.5558C19.6001 15.4576 19.6797 15.378 19.7779 15.378H20.4445C20.5427 15.378 20.6223 15.4576 20.6223 15.5558C20.6223 15.654 20.5427 15.7336 20.4445 15.7336H19.7779C19.6797 15.7336 19.6001 15.654 19.6001 15.5558ZM19.1112 16.0447C19.2094 16.0447 19.289 16.1243 19.289 16.2225V16.8891C19.289 16.9873 19.2094 17.0669 19.1112 17.0669C19.013 17.0669 18.9334 16.9873 18.9334 16.8891V16.2225C18.9334 16.1243 19.013 16.0447 19.1112 16.0447Z" fill="#222222"/>
<path fill-rule="evenodd" clip-rule="evenodd" d="M16.1904 4.81276C16.1904 4.91094 16.1108 4.99054 16.0127 4.99054L15.5682 4.99054C15.47 4.99054 15.3904 4.91094 15.3904 4.81276C15.3904 4.71458 15.47 4.63498 15.5682 4.63498L16.0127 4.63498C16.1108 4.63498 16.1904 4.71458 16.1904 4.81276ZM15.1238 3.74609C15.2219 3.74609 15.3015 3.82569 15.3015 3.92387L15.3015 4.36832C15.3015 4.4665 15.2219 4.54609 15.1238 4.54609C15.0256 4.54609 14.946 4.4665 14.946 4.36832L14.946 3.92387C14.946 3.82569 15.0256 3.74609 15.1238 3.74609ZM15.1238 5.07943C15.2219 5.07943 15.3015 5.15902 15.3015 5.25721L15.3015 5.70165C15.3015 5.79983 15.2219 5.87943 15.1238 5.87943C15.0256 5.87943 14.946 5.79983 14.946 5.70165L14.946 5.25721C14.946 5.15902 15.0256 5.07943 15.1238 5.07943ZM14.8571 4.81276C14.8571 4.91094 14.7775 4.99054 14.6793 4.99054L14.2349 4.99054C14.1367 4.99054 14.0571 4.91094 14.0571 4.81276C14.0571 4.71458 14.1367 4.63498 14.2349 4.63498L14.6793 4.63498C14.7775 4.63498 14.8571 4.71458 14.8571 4.81276Z" fill="#222222"/>
<path fill-rule="evenodd" clip-rule="evenodd" d="M10.9944 0.52082L12.1258 1.65219C12.1952 1.72162 12.1952 1.83418 12.1258 1.90361L10.9945 3.03498C10.925 3.1044 10.8125 3.1044 10.743 3.03498C10.6736 2.96555 10.6736 2.85299 10.743 2.78356L11.5613 1.96526C9.1921 2.06878 6.93031 3.00808 5.18194 4.62426C3.32592 6.33995 2.18494 8.69231 1.98664 11.212C1.78833 13.7318 2.54727 16.2337 4.11205 18.2186C5.67682 20.2035 7.93241 21.5255 10.4288 21.9209L10.3732 22.2721C7.78842 21.8627 5.45299 20.4939 3.83282 18.4387C2.21265 16.3835 1.42685 13.7931 1.63218 11.1841C1.8375 8.57522 3.01887 6.13959 4.94059 4.36317C6.75911 2.68214 9.11411 1.70836 11.5794 1.60863L10.743 0.772236C10.6736 0.702809 10.6736 0.590246 10.743 0.52082C10.8125 0.451393 10.925 0.451393 10.9944 0.52082Z" fill="#222222"/>
<path fill-rule="evenodd" clip-rule="evenodd" d="M13.0056 23.3537L11.8742 22.2223C11.8048 22.1529 11.8048 22.0403 11.8742 21.9709L13.0055 20.8395C13.075 20.7701 13.1875 20.7701 13.257 20.8395C13.3264 20.909 13.3264 21.0215 13.257 21.0909L12.4387 21.9093C14.8079 21.8057 17.0697 20.8664 18.8181 19.2503C20.6741 17.5346 21.8151 15.1822 22.0134 12.6625C22.2117 10.1427 21.4527 7.64085 19.888 5.65593C18.3232 3.67102 16.0676 2.349 13.5712 1.95361L13.6268 1.60243C16.2116 2.01182 18.547 3.38064 20.1672 5.43581C21.7873 7.49099 22.5732 10.0814 22.3678 12.6904C22.1625 15.2993 20.9811 17.7349 19.0594 19.5113C17.2409 21.1924 14.8859 22.1661 12.4206 22.2659L13.257 23.1023C13.3264 23.1717 13.3264 23.2843 13.257 23.3537C13.1875 23.4231 13.075 23.4231 13.0056 23.3537Z" fill="#222222"/>
<defs>
<linearGradient id="paint0_linear_6805_220226" x1="16.3359" y1="8.44453" x2="7.64453" y2="8.44453" gradientUnits="userSpaceOnUse">
<stop stop-color="#A1FF8B"/>
<stop offset="1" stop-color="#3F93FF"/>
</linearGradient>
<linearGradient id="paint1_linear_6805_220226" x1="16.3359" y1="12.0001" x2="7.64453" y2="12.0001" gradientUnits="userSpaceOnUse">
<stop stop-color="#A1FF8B"/>
<stop offset="1" stop-color="#3F93FF"/>
</linearGradient>
<linearGradient id="paint2_linear_6805_220226" x1="16.3359" y1="15.5556" x2="7.64453" y2="15.5556" gradientUnits="userSpaceOnUse">
<stop stop-color="#A1FF8B"/>
<stop offset="1" stop-color="#3F93FF"/>
</linearGradient>
</defs>
</svg>
