<svg width="24" height="24" viewBox="0 0 24 24" fill="none" xmlns="http://www.w3.org/2000/svg">
<path d="M2.6665 3.11119C2.6665 2.86573 2.86549 2.66675 3.11095 2.66675H20.8887C21.1342 2.66675 21.3332 2.86573 21.3332 3.11119V20.0001C21.3332 20.2455 21.1342 20.4445 20.8887 20.4445H3.11095C2.86549 20.4445 2.6665 20.2455 2.6665 20.0001V3.11119Z" fill="white"/>
<path fill-rule="evenodd" clip-rule="evenodd" d="M2.48877 3.11124C2.48877 2.76759 2.76735 2.48901 3.11099 2.48901H20.8888C21.2324 2.48901 21.511 2.76759 21.511 3.11124V20.0001C21.511 20.3438 21.2324 20.6223 20.8888 20.6223H3.11099C2.76735 20.6223 2.48877 20.3438 2.48877 20.0001V3.11124ZM3.11099 2.84457C2.96372 2.84457 2.84433 2.96396 2.84433 3.11124V20.0001C2.84433 20.1474 2.96372 20.2668 3.11099 20.2668H20.8888C21.036 20.2668 21.1554 20.1474 21.1554 20.0001V3.11124C21.1554 2.96396 21.036 2.84457 20.8888 2.84457H3.11099Z" fill="#222222"/>
<path d="M2.6665 3.11119C2.6665 2.86573 2.86549 2.66675 3.11095 2.66675H20.8887C21.1342 2.66675 21.3332 2.86573 21.3332 3.11119V7.11119H2.6665V3.11119Z" fill="url(#paint0_linear_6805_220329)"/>
<path fill-rule="evenodd" clip-rule="evenodd" d="M2.48877 3.11124C2.48877 2.76759 2.76735 2.48901 3.11099 2.48901H20.8888C21.2324 2.48901 21.511 2.76759 21.511 3.11124V7.11124C21.511 7.20942 21.4314 7.28901 21.3332 7.28901H2.66655C2.56836 7.28901 2.48877 7.20942 2.48877 7.11124V3.11124ZM3.11099 2.84457C2.96372 2.84457 2.84433 2.96396 2.84433 3.11124V6.93346H21.1554V3.11124C21.1554 2.96396 21.036 2.84457 20.8888 2.84457H3.11099Z" fill="#222222"/>
<path d="M2.6665 7.11108H8.88873V11.5555H2.6665V7.11108Z" fill="#C9E4EA"/>
<path fill-rule="evenodd" clip-rule="evenodd" d="M2.48877 7.11113C2.48877 7.01294 2.56836 6.93335 2.66655 6.93335H8.88877C8.98695 6.93335 9.06655 7.01294 9.06655 7.11113V11.5556C9.06655 11.6538 8.98695 11.7333 8.88877 11.7333H2.66655C2.56836 11.7333 2.48877 11.6538 2.48877 11.5556V7.11113ZM2.84433 7.28891V11.3778H8.71099V7.28891H2.84433Z" fill="#222222"/>
<path fill-rule="evenodd" clip-rule="evenodd" d="M2.48877 11.5555C2.48877 11.4573 2.56836 11.3777 2.66655 11.3777H8.88877C8.98695 11.3777 9.06655 11.4573 9.06655 11.5555V15.9999C9.06655 16.0981 8.98695 16.1777 8.88877 16.1777H2.66655C2.56836 16.1777 2.48877 16.0981 2.48877 15.9999V11.5555ZM2.84433 11.7332V15.8221H8.71099V11.7332H2.84433Z" fill="#222222"/>
<path fill-rule="evenodd" clip-rule="evenodd" d="M2.48877 16C2.48877 15.9019 2.56836 15.8223 2.66655 15.8223H8.88877C8.98695 15.8223 9.06655 15.9019 9.06655 16V20.4445C9.06655 20.5427 8.98695 20.6223 8.88877 20.6223H3.11099C2.76735 20.6223 2.48877 20.3437 2.48877 20V16ZM2.84433 16.1778V20C2.84433 20.1473 2.96372 20.2667 3.11099 20.2667H8.71099V16.1778H2.84433Z" fill="#222222"/>
<path fill-rule="evenodd" clip-rule="evenodd" d="M8.71094 7.11113C8.71094 7.01294 8.79053 6.93335 8.88872 6.93335H15.1109C15.2091 6.93335 15.2887 7.01294 15.2887 7.11113V11.5556C15.2887 11.6538 15.2091 11.7333 15.1109 11.7333H8.88872C8.79053 11.7333 8.71094 11.6538 8.71094 11.5556V7.11113ZM9.06649 7.28891V11.3778H14.9332V7.28891H9.06649Z" fill="#222222"/>
<path fill-rule="evenodd" clip-rule="evenodd" d="M8.71094 11.5555C8.71094 11.4573 8.79053 11.3777 8.88872 11.3777H15.1109C15.2091 11.3777 15.2887 11.4573 15.2887 11.5555V15.9999C15.2887 16.0981 15.2091 16.1777 15.1109 16.1777H8.88872C8.79053 16.1777 8.71094 16.0981 8.71094 15.9999V11.5555ZM9.06649 11.7332V15.8221H14.9332V11.7332H9.06649Z" fill="#222222"/>
<path fill-rule="evenodd" clip-rule="evenodd" d="M8.71094 16C8.71094 15.9019 8.79053 15.8223 8.88872 15.8223H15.1109C15.2091 15.8223 15.2887 15.9019 15.2887 16V20.4445C15.2887 20.5427 15.2091 20.6223 15.1109 20.6223H8.88872C8.79053 20.6223 8.71094 20.5427 8.71094 20.4445V16ZM9.06649 16.1778V20.2667H14.9332V16.1778H9.06649Z" fill="#222222"/>
<path fill-rule="evenodd" clip-rule="evenodd" d="M14.9331 16C14.9331 15.9019 15.0127 15.8223 15.1109 15.8223H21.3331C21.4313 15.8223 21.5109 15.9019 21.5109 16V20C21.5109 20.3437 21.2323 20.6223 20.8887 20.6223H15.1109C15.0127 20.6223 14.9331 20.5427 14.9331 20.4445V16ZM15.2887 16.1778V20.2667H20.8887C21.0359 20.2667 21.1553 20.1473 21.1553 20V16.1778H15.2887Z" fill="#222222"/>
<path fill-rule="evenodd" clip-rule="evenodd" d="M7.99996 0.888916C8.09814 0.888916 8.17773 0.96851 8.17773 1.06669L8.17773 4.26669C8.17773 4.36488 8.09814 4.44447 7.99996 4.44447C7.90177 4.44447 7.82218 4.36488 7.82218 4.26669L7.82218 1.06669C7.82218 0.96851 7.90177 0.888916 7.99996 0.888916Z" fill="#222222"/>
<path d="M15.1108 11.5557H21.3331V16.0001H15.1108V11.5557Z" fill="#C9E4EA"/>
<path fill-rule="evenodd" clip-rule="evenodd" d="M14.9331 11.5555C14.9331 11.4573 15.0127 11.3777 15.1109 11.3777H21.3331C21.4313 11.3777 21.5109 11.4573 21.5109 11.5555V15.9999C21.5109 16.0981 21.4313 16.1777 21.3331 16.1777H15.1109C15.0127 16.1777 14.9331 16.0981 14.9331 15.9999V11.5555ZM15.2887 11.7332V15.8221H21.1553V11.7332H15.2887Z" fill="#222222"/>
<path fill-rule="evenodd" clip-rule="evenodd" d="M16 0.888916C16.0981 0.888916 16.1777 0.96851 16.1777 1.06669L16.1777 4.26669C16.1777 4.36488 16.0981 4.44447 16 4.44447C15.9018 4.44447 15.8222 4.36488 15.8222 4.26669L15.8222 1.06669C15.8222 0.96851 15.9018 0.888916 16 0.888916Z" fill="#222222"/>
<defs>
<linearGradient id="paint0_linear_6805_220329" x1="21.3332" y1="4.88897" x2="2.6665" y2="4.88897" gradientUnits="userSpaceOnUse">
<stop stop-color="#A1FF8B"/>
<stop offset="1" stop-color="#3F93FF"/>
</linearGradient>
</defs>
</svg>
