<svg width="24" height="24" viewBox="0 0 24 24" fill="none" xmlns="http://www.w3.org/2000/svg">
<path d="M2.13336 3.1111C2.13336 2.86564 2.33235 2.66666 2.57781 2.66666H20.3556C20.601 2.66666 20.8 2.86564 20.8 3.1111V20.8889C20.8 21.1343 20.601 21.3333 20.3556 21.3333H2.57781C2.33235 21.3333 2.13336 21.1343 2.13336 20.8889V3.1111Z" fill="white"/>
<path fill-rule="evenodd" clip-rule="evenodd" d="M1.95557 3.11111C1.95557 2.76747 2.23414 2.48889 2.57779 2.48889H20.3556C20.6992 2.48889 20.9778 2.76747 20.9778 3.11111V20.8889C20.9778 21.2325 20.6992 21.5111 20.3556 21.5111H2.57779C2.23414 21.5111 1.95557 21.2325 1.95557 20.8889V3.11111ZM2.57779 2.84445C2.43051 2.84445 2.31112 2.96383 2.31112 3.11111V20.8889C2.31112 21.0362 2.43051 21.1556 2.57779 21.1556H20.3556C20.5029 21.1556 20.6222 21.0362 20.6222 20.8889V3.11111C20.6222 2.96383 20.5029 2.84445 20.3556 2.84445H2.57779Z" fill="#222222"/>
<path d="M2.13336 3.1111C2.13336 2.86564 2.33235 2.66666 2.57781 2.66666H20.3556C20.601 2.66666 20.8 2.86564 20.8 3.1111V4.44443H2.13336V3.1111Z" fill="url(#paint0_linear_101_76)"/>
<path fill-rule="evenodd" clip-rule="evenodd" d="M1.95557 3.11111C1.95557 2.76747 2.23414 2.48889 2.57779 2.48889H20.3556C20.6992 2.48889 20.9778 2.76747 20.9778 3.11111V4.44445C20.9778 4.54263 20.8982 4.62222 20.8 4.62222H2.13334C2.03516 4.62222 1.95557 4.54263 1.95557 4.44445V3.11111ZM2.57779 2.84445C2.43051 2.84445 2.31112 2.96383 2.31112 3.11111V4.26667H20.6222V3.11111C20.6222 2.96383 20.5029 2.84445 20.3556 2.84445H2.57779Z" fill="#222222"/>
<path fill-rule="evenodd" clip-rule="evenodd" d="M14.0723 10.0789C14.1418 10.0095 14.2544 10.0095 14.3238 10.0789L16.9257 12.6809C16.9951 12.7503 16.9951 12.8628 16.9257 12.9323L14.3238 15.5342C14.2544 15.6036 14.1418 15.6036 14.0723 15.5342C14.0029 15.4647 14.0029 15.3522 14.0723 15.2827L16.5486 12.8066L14.0723 10.3304C14.0029 10.261 14.0029 10.1483 14.0723 10.0789Z" fill="#222222"/>
<path fill-rule="evenodd" clip-rule="evenodd" d="M13.3302 9.62382C13.4153 9.67289 13.4444 9.7816 13.3953 9.86667L9.71565 16.24C9.66658 16.3251 9.55787 16.3541 9.4728 16.3051C9.38783 16.256 9.35867 16.1473 9.40774 16.0622L13.0874 9.68889C13.1365 9.60382 13.2452 9.57475 13.3302 9.62382Z" fill="#222222"/>
<path fill-rule="evenodd" clip-rule="evenodd" d="M8.86096 10.0789C8.79153 10.0095 8.67897 10.0095 8.60954 10.0789L6.00763 12.6809C5.93821 12.7503 5.93821 12.8628 6.00763 12.9323L8.60954 15.5342C8.67897 15.6036 8.79153 15.6036 8.86096 15.5342C8.93041 15.4647 8.93041 15.3522 8.86096 15.2827L6.38476 12.8066L8.86096 10.3304C8.93041 10.261 8.93041 10.1483 8.86096 10.0789Z" fill="#222222"/>
<path d="M18.6099 20.3549C18.6029 20.3797 18.5883 20.4014 18.5682 20.4174C18.5482 20.4334 18.5237 20.4428 18.4981 20.4443C18.4725 20.4457 18.4471 20.4392 18.4254 20.4256C18.4037 20.412 18.3868 20.392 18.3769 20.3684L16.276 15.2821C16.2667 15.2595 16.2643 15.2346 16.2691 15.2106C16.2739 15.1867 16.2856 15.1646 16.3029 15.1474C16.3202 15.1301 16.3422 15.1183 16.3661 15.1135C16.3901 15.1087 16.415 15.1111 16.4376 15.1205L21.5239 17.2213C21.5476 17.2312 21.5676 17.2481 21.5812 17.2699C21.5948 17.2916 21.6013 17.317 21.5998 17.3426C21.5983 17.3682 21.589 17.3926 21.573 17.4126C21.557 17.4327 21.5352 17.4473 21.5105 17.4543L19.3206 18.0805C19.3005 18.0862 19.2821 18.0971 19.2672 18.1119C19.2524 18.1268 19.2416 18.1452 19.2358 18.1653L18.6099 20.3549Z" fill="#C9E4EA"/>
<path fill-rule="evenodd" clip-rule="evenodd" d="M16.49 15.3345L18.4817 20.1565L19.0649 18.1163C19.0789 18.0672 19.1053 18.0224 19.1415 17.9862C19.1777 17.95 19.2225 17.9236 19.2717 17.9096L21.3121 17.3261L16.49 15.3345ZM16.3314 14.9392C16.3898 14.9275 16.4504 14.9334 16.5054 14.9562L21.5922 17.0572C21.6499 17.0812 21.6986 17.1226 21.7318 17.1755C21.765 17.2284 21.7809 17.2904 21.7772 17.3527C21.7737 17.4151 21.7508 17.4747 21.7119 17.5235C21.6729 17.5724 21.6197 17.6079 21.5597 17.6251L19.3985 18.2431L18.7807 20.4042C18.7634 20.4642 18.728 20.5173 18.6791 20.5563C18.6303 20.5953 18.5706 20.6181 18.5082 20.6217C18.4459 20.6253 18.384 20.6094 18.3311 20.5763C18.2781 20.5431 18.2368 20.4944 18.2128 20.4367L18.2125 20.4362L16.1117 15.3499C16.089 15.2948 16.083 15.2342 16.0947 15.1758C16.1064 15.1174 16.135 15.0637 16.1771 15.0216C16.2193 14.9795 16.273 14.9508 16.3314 14.9392Z" fill="#222222"/>
<defs>
<linearGradient id="paint0_linear_101_76" x1="20.8" y1="3.55555" x2="2.13336" y2="3.55554" gradientUnits="userSpaceOnUse">
<stop stop-color="#A1FF8B"/>
<stop offset="1" stop-color="#3F93FF"/>
</linearGradient>
</defs>
</svg>
