<svg width="24" height="24" viewBox="0 0 24 24" fill="none" xmlns="http://www.w3.org/2000/svg">
<path d="M2.6665 3.11095C2.6665 2.86549 2.86549 2.6665 3.11095 2.6665H20.8887C21.1342 2.6665 21.3332 2.86549 21.3332 3.11095V20.8887C21.3332 21.1342 21.1342 21.3332 20.8887 21.3332H3.11095C2.86549 21.3332 2.6665 21.1342 2.6665 20.8887V3.11095Z" fill="white"/>
<path fill-rule="evenodd" clip-rule="evenodd" d="M2.48877 3.11099C2.48877 2.76735 2.76735 2.48877 3.11099 2.48877H20.8888C21.2324 2.48877 21.511 2.76735 21.511 3.11099V20.8888C21.511 21.2324 21.2324 21.511 20.8888 21.511H3.11099C2.76735 21.511 2.48877 21.2324 2.48877 20.8888V3.11099ZM3.11099 2.84433C2.96372 2.84433 2.84433 2.96372 2.84433 3.11099V20.8888C2.84433 21.036 2.96372 21.1554 3.11099 21.1554H20.8888C21.036 21.1554 21.1554 21.036 21.1554 20.8888V3.11099C21.1554 2.96372 21.036 2.84433 20.8888 2.84433H3.11099Z" fill="#222222"/>
<path d="M2.6665 3.11095C2.6665 2.86549 2.86549 2.6665 3.11095 2.6665H20.8887C21.1342 2.6665 21.3332 2.86549 21.3332 3.11095V4.44428H2.6665V3.11095Z" fill="url(#paint0_linear_6805_220351)"/>
<path fill-rule="evenodd" clip-rule="evenodd" d="M2.48877 3.11099C2.48877 2.76735 2.76735 2.48877 3.11099 2.48877H20.8888C21.2324 2.48877 21.511 2.76735 21.511 3.11099V4.44433C21.511 4.54251 21.4314 4.6221 21.3332 4.6221H2.66655C2.56836 4.6221 2.48877 4.54251 2.48877 4.44433V3.11099ZM3.11099 2.84433C2.96372 2.84433 2.84433 2.96372 2.84433 3.11099V4.26655H21.1554V3.11099C21.1554 2.96372 21.036 2.84433 20.8888 2.84433H3.11099Z" fill="#222222"/>
<path d="M4.44434 6.22217L19.5554 6.22217V11.5555L4.44434 11.5555L4.44434 6.22217Z" fill="#C9E4EA"/>
<path fill-rule="evenodd" clip-rule="evenodd" d="M4.2666 6.22221C4.2666 6.12403 4.3462 6.04443 4.44438 6.04443L19.5555 6.04443C19.6537 6.04443 19.7333 6.12403 19.7333 6.22221V11.5555C19.7333 11.6537 19.6537 11.7333 19.5555 11.7333L4.44438 11.7333C4.3462 11.7333 4.2666 11.6537 4.2666 11.5555L4.2666 6.22221ZM4.62216 6.39999L4.62216 11.3778L19.3777 11.3778V6.39999L4.62216 6.39999Z" fill="#222222"/>
<path d="M12.4443 13.3333H19.5554V18.6666H12.4443V13.3333Z" fill="#C9E4EA"/>
<path fill-rule="evenodd" clip-rule="evenodd" d="M12.2666 13.3333C12.2666 13.2351 12.3462 13.1555 12.4444 13.1555L19.5555 13.1555C19.6537 13.1555 19.7333 13.2351 19.7333 13.3333V18.6666C19.7333 18.7648 19.6537 18.8444 19.5555 18.8444H12.4444C12.3462 18.8444 12.2666 18.7648 12.2666 18.6666V13.3333ZM12.6222 13.5111V18.4889H19.3777V13.5111H12.6222Z" fill="#222222"/>
<path fill-rule="evenodd" clip-rule="evenodd" d="M4.44434 15.9998C4.44434 15.9016 4.52393 15.822 4.62211 15.822H10.4888C10.587 15.822 10.6666 15.9016 10.6666 15.9998C10.6666 16.098 10.587 16.1776 10.4888 16.1776H4.62211C4.52393 16.1776 4.44434 16.098 4.44434 15.9998Z" fill="#222222"/>
<path fill-rule="evenodd" clip-rule="evenodd" d="M4.44434 14.2222C4.44434 14.124 4.52393 14.0444 4.62211 14.0444H10.4888C10.587 14.0444 10.6666 14.124 10.6666 14.2222C10.6666 14.3204 10.587 14.4 10.4888 14.4H4.62211C4.52393 14.4 4.44434 14.3204 4.44434 14.2222Z" fill="#222222"/>
<path fill-rule="evenodd" clip-rule="evenodd" d="M4.44434 17.7776C4.44434 17.6794 4.52393 17.5999 4.62211 17.5999H10.4888C10.587 17.5999 10.6666 17.6794 10.6666 17.7776C10.6666 17.8758 10.587 17.9554 10.4888 17.9554H4.62211C4.52393 17.9554 4.44434 17.8758 4.44434 17.7776Z" fill="#222222"/>
<defs>
<linearGradient id="paint0_linear_6805_220351" x1="21.3332" y1="3.55539" x2="2.6665" y2="3.55539" gradientUnits="userSpaceOnUse">
<stop stop-color="#A1FF8B"/>
<stop offset="1" stop-color="#3F93FF"/>
</linearGradient>
</defs>
</svg>
