<svg width="24" height="24" viewBox="0 0 24 24" fill="none" xmlns="http://www.w3.org/2000/svg">
<path d="M6.68934 9.95507C6.68934 10.2472 6.72092 10.484 6.77618 10.6577C6.83934 10.8314 6.91829 11.0209 7.02881 11.2261C7.06829 11.2893 7.08408 11.3524 7.08408 11.4077C7.08408 11.4866 7.03671 11.5656 6.93408 11.6445L6.43671 11.9761C6.36566 12.0235 6.2946 12.0472 6.23145 12.0472C6.1525 12.0472 6.07355 12.0077 5.9946 11.9366C5.88408 11.8182 5.78934 11.6919 5.71039 11.5656C5.63145 11.4314 5.5525 11.2814 5.46566 11.0998C4.84987 11.8261 4.07618 12.1893 3.1446 12.1893C2.48145 12.1893 1.9525 11.9998 1.56566 11.6209C1.17881 11.2419 0.981445 10.7366 0.981445 10.1051C0.981445 9.43401 1.21829 8.88928 1.69987 8.47875C2.18145 8.06823 2.82092 7.86296 3.63408 7.86296C3.9025 7.86296 4.17881 7.88665 4.47092 7.92612C4.76302 7.96559 5.06302 8.02875 5.37881 8.0998V7.52349C5.37881 6.92349 5.2525 6.50507 5.00776 6.26033C4.75513 6.01559 4.32881 5.89717 3.72092 5.89717C3.4446 5.89717 3.16039 5.92875 2.86829 5.9998C2.57618 6.07086 2.29197 6.1577 2.01566 6.26823C1.88934 6.32349 1.7946 6.35507 1.73934 6.37086C1.68408 6.38665 1.6446 6.39454 1.61302 6.39454C1.5025 6.39454 1.44723 6.31559 1.44723 6.1498V5.76296C1.44723 5.63665 1.46302 5.54191 1.5025 5.48665C1.54197 5.43138 1.61302 5.37612 1.72355 5.32086C1.99987 5.17875 2.33145 5.06033 2.71829 4.96559C3.10513 4.86296 3.51566 4.81559 3.94987 4.81559C4.88934 4.81559 5.57618 5.02875 6.01829 5.45507C6.4525 5.88138 6.67355 6.52875 6.67355 7.39717V9.95507H6.68934ZM3.48408 11.1551C3.7446 11.1551 4.01302 11.1077 4.29723 11.013C4.58145 10.9182 4.83408 10.7445 5.04724 10.5077C5.17355 10.3577 5.26829 10.1919 5.31566 10.0024C5.36302 9.81296 5.3946 9.58401 5.3946 9.31559V8.98401C5.16566 8.92875 4.92092 8.88138 4.66829 8.8498C4.41566 8.81823 4.17092 8.80244 3.92618 8.80244C3.39724 8.80244 3.01039 8.90507 2.74987 9.11823C2.48934 9.33138 2.36302 9.63138 2.36302 10.0261C2.36302 10.3972 2.45776 10.6735 2.65513 10.863C2.8446 11.0603 3.12092 11.1551 3.48408 11.1551ZM9.82355 12.0077C9.68145 12.0077 9.58671 11.984 9.52355 11.9288C9.46039 11.8814 9.40513 11.7709 9.35776 11.6209L7.5025 5.51823C7.45513 5.36033 7.43145 5.2577 7.43145 5.20244C7.43145 5.07612 7.4946 5.00507 7.62092 5.00507H8.3946C8.5446 5.00507 8.64724 5.02875 8.7025 5.08402C8.76566 5.13138 8.81302 5.24191 8.86039 5.39191L10.1867 10.6182L11.4183 5.39191C11.4578 5.23402 11.5051 5.13138 11.5683 5.08402C11.6314 5.03665 11.742 5.00507 11.8841 5.00507H12.5157C12.6657 5.00507 12.7683 5.02875 12.8314 5.08402C12.8946 5.13138 12.9499 5.24191 12.9814 5.39191L14.2288 10.6814L15.5946 5.39191C15.642 5.23402 15.6972 5.13138 15.7525 5.08402C15.8157 5.03665 15.9183 5.00507 16.0604 5.00507H16.7946C16.9209 5.00507 16.992 5.06823 16.992 5.20244C16.992 5.24191 16.9841 5.28138 16.9762 5.32875C16.9683 5.37612 16.9525 5.43928 16.9209 5.52612L15.0183 11.6288C14.9709 11.7866 14.9157 11.8893 14.8525 11.9366C14.7893 11.984 14.6867 12.0156 14.5525 12.0156H13.8736C13.7236 12.0156 13.6209 11.9919 13.5578 11.9366C13.4946 11.8814 13.4393 11.7788 13.4078 11.6209L12.1841 6.52875L10.9683 11.613C10.9288 11.7709 10.8814 11.8735 10.8183 11.9288C10.7551 11.984 10.6446 12.0077 10.5025 12.0077H9.82355ZM19.9683 12.2209C19.5578 12.2209 19.1472 12.1735 18.7525 12.0788C18.3578 11.984 18.0499 11.8814 17.8446 11.763C17.7183 11.6919 17.6314 11.613 17.5999 11.5419C17.5683 11.4709 17.5525 11.3919 17.5525 11.3209V10.9182C17.5525 10.7524 17.6157 10.6735 17.7341 10.6735C17.7814 10.6735 17.8288 10.6814 17.8762 10.6972C17.9236 10.713 17.9946 10.7445 18.0736 10.7761C18.342 10.8945 18.6341 10.9893 18.942 11.0524C19.2578 11.1156 19.5657 11.1472 19.8814 11.1472C20.3788 11.1472 20.7657 11.0603 21.0341 10.8866C21.3025 10.713 21.4446 10.4603 21.4446 10.1366C21.4446 9.91559 21.3736 9.73401 21.2314 9.58401C21.0893 9.43401 20.8209 9.2998 20.4341 9.17349L19.2893 8.81823C18.713 8.63665 18.2867 8.36823 18.0262 8.01296C17.7657 7.66559 17.6314 7.27875 17.6314 6.86823C17.6314 6.53665 17.7025 6.24454 17.8446 5.99191C17.9867 5.73928 18.1762 5.51823 18.413 5.34454C18.6499 5.16296 18.9183 5.02875 19.2341 4.93402C19.5499 4.83928 19.8814 4.7998 20.2288 4.7998C20.4025 4.7998 20.5841 4.8077 20.7578 4.83138C20.9393 4.85507 21.1051 4.88665 21.2709 4.91823C21.4288 4.9577 21.5788 4.99717 21.7209 5.04454C21.863 5.09191 21.9736 5.13928 22.0525 5.18665C22.163 5.2498 22.242 5.31296 22.2893 5.38402C22.3367 5.44717 22.3604 5.53402 22.3604 5.64454V6.01559C22.3604 6.18138 22.2972 6.26823 22.1788 6.26823C22.1157 6.26823 22.013 6.23665 21.8788 6.17349C21.4288 5.96823 20.9236 5.86559 20.363 5.86559C19.913 5.86559 19.5578 5.93665 19.313 6.08665C19.0683 6.23665 18.942 6.46559 18.942 6.78928C18.942 7.01033 19.0209 7.1998 19.1788 7.3498C19.3367 7.4998 19.6288 7.6498 20.0472 7.78402L21.1683 8.13928C21.7367 8.32086 22.1472 8.57349 22.392 8.89717C22.6367 9.22086 22.7551 9.59191 22.7551 10.0024C22.7551 10.3419 22.6841 10.6498 22.5499 10.9182C22.4078 11.1866 22.2183 11.4235 21.9736 11.613C21.7288 11.8103 21.4367 11.9524 21.0972 12.0551C20.742 12.1656 20.3709 12.2209 19.9683 12.2209Z" fill="#252F3E"/>
<path fill-rule="evenodd" clip-rule="evenodd" d="M21.4604 16.0579C18.8631 17.9763 15.0894 18.9947 11.8446 18.9947C7.29727 18.9947 3.1999 17.3131 0.105159 14.5184C-0.139578 14.2973 0.081475 13.9973 0.37358 14.171C3.72095 16.1131 7.8499 17.2894 12.121 17.2894C15.0025 17.2894 18.1683 16.6894 21.0815 15.4579C21.5157 15.2605 21.8867 15.7421 21.4604 16.0579Z" fill="#FF9900"/>
<path fill-rule="evenodd" clip-rule="evenodd" d="M22.5418 14.8263C22.2102 14.4 20.347 14.6211 19.5023 14.7237C19.2497 14.7553 19.2102 14.5342 19.4391 14.3684C20.9234 13.3263 23.3628 13.6263 23.647 13.9737C23.9312 14.329 23.5681 16.7684 22.1786 17.9369C21.9655 18.1184 21.7602 18.0237 21.8549 17.7869C22.1707 17.0053 22.8734 15.2448 22.5418 14.8263Z" fill="#FF9900"/>
</svg>
