<svg width="24" height="24" viewBox="0 0 24 24" fill="none" xmlns="http://www.w3.org/2000/svg">
<g clip-path="url(#clip0_6805_186411)">
<path d="M19.8567 14.8285C16.9061 17.7792 12.1222 17.7792 9.17158 14.8285C6.22095 11.8779 6.22095 7.09399 9.17158 4.14337C12.1222 1.19274 16.9061 1.19274 19.8567 4.14337C22.8074 7.09399 22.8074 11.8779 19.8567 14.8285Z" fill="#C9E4EA"/>
<path fill-rule="evenodd" clip-rule="evenodd" d="M19.731 4.26902C16.8498 1.38782 12.1785 1.38782 9.29728 4.26902C6.41608 7.15023 6.41608 11.8216 9.29728 14.7028C12.1785 17.584 16.8498 17.584 19.731 14.7028C22.6122 11.8216 22.6122 7.15023 19.731 4.26902ZM9.04587 4.01761C12.0659 0.997554 16.9624 0.997554 19.9825 4.01761C23.0025 7.03766 23.0025 11.9341 19.9825 14.9542C16.9624 17.9742 12.0659 17.9742 9.04587 14.9542C6.02581 11.9341 6.02581 7.03766 9.04587 4.01761Z" fill="#222222"/>
<path d="M14.8284 19.8569C11.8778 22.8075 7.09388 22.8075 4.14326 19.8569C1.19263 16.9062 1.19263 12.1223 4.14326 9.17169C7.09388 6.22106 11.8778 6.22106 14.8284 9.17169C17.7791 12.1223 17.7791 16.9062 14.8284 19.8569Z" fill="white"/>
<path fill-rule="evenodd" clip-rule="evenodd" d="M14.7027 9.29734C11.8215 6.41614 7.15016 6.41614 4.26896 9.29734C1.38776 12.1785 1.38776 16.8499 4.26896 19.7311C7.15016 22.6123 11.8215 22.6123 14.7027 19.7311C17.5839 16.8499 17.5839 12.1785 14.7027 9.29734ZM4.01755 9.04593C7.0376 6.02587 11.9341 6.02587 14.9541 9.04593C17.9742 12.066 17.9742 16.9625 14.9541 19.9825C11.9341 23.0026 7.0376 23.0026 4.01755 19.9825C0.997492 16.9625 0.997492 12.066 4.01755 9.04593Z" fill="#222222"/>
<path d="M7.28483 7.28407C7.9812 7.07236 8.72017 6.9585 9.48574 6.9585C13.6586 6.9585 17.0413 10.3412 17.0413 14.514C17.0413 15.2796 16.9274 16.0186 16.7157 16.715C14.1331 17.4991 11.2133 16.8702 9.17147 14.8283C7.12961 12.7865 6.50074 9.8667 7.28483 7.28407Z" fill="url(#paint0_linear_6805_186411)"/>
<path fill-rule="evenodd" clip-rule="evenodd" d="M7.42788 7.42709C6.70417 9.9267 7.32758 12.733 9.29719 14.7027C11.2668 16.6723 14.0731 17.2957 16.5728 16.572C16.762 15.919 16.8635 15.2285 16.8635 14.5141C16.8635 10.4395 13.5604 7.13632 9.48576 7.13632C8.7713 7.13632 8.08084 7.23782 7.42788 7.42709ZM7.23314 7.11402C7.94609 6.89727 8.70248 6.78076 9.48576 6.78076C13.7568 6.78076 17.2191 10.2431 17.2191 14.5141C17.2191 15.2974 17.1026 16.0538 16.8858 16.7667C16.8686 16.8235 16.8241 16.8679 16.7674 16.8851C14.1245 17.6875 11.1358 17.0441 9.04578 14.9541C6.95571 12.864 6.31234 9.87538 7.11474 7.23247C7.13197 7.1757 7.17638 7.13128 7.23314 7.11402Z" fill="#222222"/>
<path fill-rule="evenodd" clip-rule="evenodd" d="M10.0514 15.5825L15.5826 10.0513L15.834 10.3027L10.3028 15.8339L10.0514 15.5825Z" fill="#222222"/>
<path fill-rule="evenodd" clip-rule="evenodd" d="M12.6913 16.7141L16.7139 12.6915L16.9653 12.9429L12.9427 16.9655L12.6913 16.7141Z" fill="#222222"/>
<path fill-rule="evenodd" clip-rule="evenodd" d="M8.41705 13.9486L13.9482 8.41743L13.6968 8.16602L8.16563 13.6972L8.41705 13.9486Z" fill="#222222"/>
<path fill-rule="evenodd" clip-rule="evenodd" d="M7.03453 11.0574L11.0572 7.03472L11.3086 7.28613L7.28594 11.3088L7.03453 11.0574Z" fill="#222222"/>
</g>
<defs>
<linearGradient id="paint0_linear_6805_186411" x1="17.0413" y1="11.9999" x2="6.9585" y2="11.9999" gradientUnits="userSpaceOnUse">
<stop stop-color="#A1FF8B"/>
<stop offset="1" stop-color="#3F93FF"/>
</linearGradient>
<clipPath id="clip0_6805_186411">
<rect width="24" height="24" fill="white"/>
</clipPath>
</defs>
</svg>
