<svg width="24" height="24" viewBox="0 0 24 24" fill="none" xmlns="http://www.w3.org/2000/svg">
<path d="M6.22217 3.11095C6.22217 2.86549 6.42115 2.6665 6.66661 2.6665H20.8888C21.1343 2.6665 21.3333 2.86549 21.3333 3.11095V20.8887C21.3333 21.1342 21.1343 21.3332 20.8888 21.3332H6.66661C6.42115 21.3332 6.22217 21.1342 6.22217 20.8887V3.11095Z" fill="white"/>
<path fill-rule="evenodd" clip-rule="evenodd" d="M6.04443 3.11099C6.04443 2.76735 6.32301 2.48877 6.66666 2.48877H20.8889C21.2325 2.48877 21.5111 2.76735 21.5111 3.11099V20.8888C21.5111 21.2324 21.2325 21.511 20.8889 21.511H6.66666C6.32301 21.511 6.04443 21.2324 6.04443 20.8888V3.11099ZM6.66666 2.84433C6.51938 2.84433 6.39999 2.96372 6.39999 3.11099V20.8888C6.39999 21.036 6.51938 21.1554 6.66666 21.1554H20.8889C21.0362 21.1554 21.1555 21.036 21.1555 20.8888V3.11099C21.1555 2.96372 21.0362 2.84433 20.8889 2.84433H6.66666Z" fill="#222222"/>
<path d="M15.1113 15.1108H16.8891V19.5553H15.1113V15.1108Z" fill="#C9E4EA"/>
<path fill-rule="evenodd" clip-rule="evenodd" d="M14.9331 15.1109C14.9331 15.0127 15.0127 14.9331 15.1109 14.9331H16.8887C16.9868 14.9331 17.0664 15.0127 17.0664 15.1109V19.5553C17.0664 19.6535 16.9868 19.7331 16.8887 19.7331H15.1109C15.0127 19.7331 14.9331 19.6535 14.9331 19.5553V15.1109ZM15.2887 15.2887V19.3776H16.7109V15.2887H15.2887Z" fill="#222222"/>
<path d="M12.4443 17.7778H14.2221V19.5556H12.4443V17.7778Z" fill="#C9E4EA"/>
<path fill-rule="evenodd" clip-rule="evenodd" d="M12.2666 17.7779C12.2666 17.6797 12.3462 17.6001 12.4444 17.6001H14.2222C14.3203 17.6001 14.3999 17.6797 14.3999 17.7779V19.5557C14.3999 19.6538 14.3203 19.7334 14.2222 19.7334H12.4444C12.3462 19.7334 12.2666 19.6538 12.2666 19.5557V17.7779ZM12.6222 17.9557V19.3779H14.0444V17.9557H12.6222Z" fill="#222222"/>
<path d="M17.7778 12.4443H19.5556V19.5554H17.7778V12.4443Z" fill="#C9E4EA"/>
<path fill-rule="evenodd" clip-rule="evenodd" d="M17.6001 12.4444C17.6001 12.3462 17.6797 12.2666 17.7779 12.2666H19.5557C19.6538 12.2666 19.7334 12.3462 19.7334 12.4444V19.5555C19.7334 19.6537 19.6538 19.7333 19.5557 19.7333H17.7779C17.6797 19.7333 17.6001 19.6537 17.6001 19.5555V12.4444ZM17.9557 12.6222V19.3777H19.3779V12.6222H17.9557Z" fill="#222222"/>
<path fill-rule="evenodd" clip-rule="evenodd" d="M16.6222 9.15527H18.2222C18.3203 9.15527 18.3999 9.23487 18.3999 9.33305V10.9331C18.3999 11.0312 18.3203 11.1108 18.2222 11.1108C18.124 11.1108 18.0444 11.0312 18.0444 10.9331V9.76224L12.5701 15.2365C12.5007 15.306 12.3881 15.306 12.3187 15.2365C12.2492 15.1671 12.2492 15.0545 12.3187 14.9851L17.793 9.51083H16.6222C16.524 9.51083 16.4444 9.43124 16.4444 9.33305C16.4444 9.23487 16.524 9.15527 16.6222 9.15527Z" fill="#222222"/>
<path d="M10.6667 9.77745C10.6667 12.2321 8.67688 14.2219 6.22228 14.2219C3.76768 14.2219 1.77783 12.2321 1.77783 9.77745C1.77783 7.32285 3.76768 5.33301 6.22228 5.33301C8.67688 5.33301 10.6667 7.32285 10.6667 9.77745Z" fill="url(#paint0_linear_6805_220056)"/>
<path fill-rule="evenodd" clip-rule="evenodd" d="M6.22232 5.51083C3.8659 5.51083 1.95565 7.42108 1.95565 9.7775C1.95565 12.1339 3.8659 14.0442 6.22232 14.0442C8.57873 14.0442 10.489 12.1339 10.489 9.7775C10.489 7.42108 8.57873 5.51083 6.22232 5.51083ZM1.6001 9.7775C1.6001 7.22471 3.66954 5.15527 6.22232 5.15527C8.7751 5.15527 10.8445 7.22471 10.8445 9.7775C10.8445 12.3303 8.7751 14.3997 6.22232 14.3997C3.66954 14.3997 1.6001 12.3303 1.6001 9.7775Z" fill="#222222"/>
<mask id="mask0_6805_220056" style="mask-type:alpha" maskUnits="userSpaceOnUse" x="1" y="5" width="10" height="10">
<path d="M10.5483 9.77759C10.5483 12.1667 8.61155 14.1035 6.22241 14.1035C3.83327 14.1035 1.89648 12.1667 1.89648 9.77759C1.89648 7.38844 3.83327 5.45166 6.22241 5.45166C8.61155 5.45166 10.5483 7.38844 10.5483 9.77759Z" fill="white"/>
</mask>
<g mask="url(#mask0_6805_220056)">
<path d="M3.33838 13.0656V15.9495H6.22233H9.10628V13.0656C9.10628 12.3007 8.80244 11.5672 8.26159 11.0263C7.72074 10.4855 6.9872 10.1816 6.22233 10.1816C5.45746 10.1816 4.72391 10.4855 4.18307 11.0263C3.64222 11.5672 3.33838 12.3007 3.33838 13.0656Z" fill="white"/>
<path fill-rule="evenodd" clip-rule="evenodd" d="M4.0574 10.9007C4.63159 10.3265 5.41035 10.0039 6.22237 10.0039C7.03439 10.0039 7.81316 10.3265 8.38734 10.9007C8.96153 11.4749 9.2841 12.2536 9.2841 13.0656V15.9496C9.2841 16.0478 9.20451 16.1274 9.10632 16.1274H3.33842C3.24024 16.1274 3.16064 16.0478 3.16064 15.9496V13.0656C3.16064 12.2536 3.48322 11.4749 4.0574 10.9007ZM6.22237 10.3595C5.50465 10.3595 4.81633 10.6446 4.30882 11.1521C3.80131 11.6596 3.5162 12.3479 3.5162 13.0656V15.7718H8.92855V13.0656C8.92855 12.3479 8.64343 11.6596 8.13593 11.1521C7.62842 10.6446 6.94009 10.3595 6.22237 10.3595Z" fill="#222222"/>
<path d="M6.22225 9.60465C7.01863 9.60465 7.66422 8.95906 7.66422 8.16268C7.66422 7.3663 7.01863 6.7207 6.22225 6.7207C5.42587 6.7207 4.78027 7.3663 4.78027 8.16268C4.78027 8.95906 5.42587 9.60465 6.22225 9.60465Z" fill="white"/>
<path fill-rule="evenodd" clip-rule="evenodd" d="M6.22229 6.89852C5.5241 6.89852 4.95809 7.46452 4.95809 8.16272C4.95809 8.86092 5.5241 9.42692 6.22229 9.42692C6.92049 9.42692 7.48649 8.86092 7.48649 8.16272C7.48649 7.46452 6.92049 6.89852 6.22229 6.89852ZM4.60254 8.16272C4.60254 7.26816 5.32773 6.54297 6.22229 6.54297C7.11686 6.54297 7.84205 7.26816 7.84205 8.16272C7.84205 9.05729 7.11686 9.78247 6.22229 9.78247C5.32773 9.78247 4.60254 9.05729 4.60254 8.16272Z" fill="#222222"/>
</g>
<path fill-rule="evenodd" clip-rule="evenodd" d="M18.2225 3.37744C18.3207 3.37744 18.4003 3.45704 18.4003 3.55522V4.26633H19.5559C19.6541 4.26633 19.7336 4.34592 19.7336 4.44411C19.7336 4.54229 19.6541 4.62189 19.5559 4.62189H18.4003V5.59966H18.8892C19.3556 5.59966 19.7336 5.97773 19.7336 6.44411C19.7336 6.91048 19.3556 7.28855 18.8892 7.28855H18.4003V7.99966C18.4003 8.09785 18.3207 8.17744 18.2225 8.17744C18.1244 8.17744 18.0448 8.09785 18.0448 7.99966V7.28855H16.8892C16.791 7.28855 16.7114 7.20896 16.7114 7.11077C16.7114 7.01259 16.791 6.933 16.8892 6.933H18.0448V5.95522H17.5559C17.0895 5.95522 16.7114 5.57715 16.7114 5.11077C16.7114 4.6444 17.0895 4.26633 17.5559 4.26633H18.0448V3.55522C18.0448 3.45704 18.1244 3.37744 18.2225 3.37744ZM18.0448 4.62189H17.5559C17.2859 4.62189 17.067 4.84077 17.067 5.11077C17.067 5.38078 17.2859 5.59966 17.5559 5.59966H18.0448V4.62189ZM18.4003 5.95522V6.933H18.8892C19.1592 6.933 19.3781 6.71411 19.3781 6.44411C19.3781 6.1741 19.1592 5.95522 18.8892 5.95522H18.4003Z" fill="#222222"/>
<path fill-rule="evenodd" clip-rule="evenodd" d="M10.667 4.44438C10.667 4.3462 10.7466 4.2666 10.8448 4.2666L14.9337 4.2666C15.0318 4.2666 15.1114 4.3462 15.1114 4.44438C15.1114 4.54256 15.0318 4.62216 14.9337 4.62216L10.8448 4.62216C10.7466 4.62216 10.667 4.54256 10.667 4.44438Z" fill="#222222"/>
<path fill-rule="evenodd" clip-rule="evenodd" d="M8 16.8887C8 16.7905 8.07959 16.7109 8.17778 16.7109H10.4889C10.5871 16.7109 10.6667 16.7905 10.6667 16.8887C10.6667 16.9869 10.5871 17.0665 10.4889 17.0665H8.17778C8.07959 17.0665 8 16.9869 8 16.8887Z" fill="#222222"/>
<path fill-rule="evenodd" clip-rule="evenodd" d="M12.4443 7.11088C12.4443 7.0127 12.5239 6.93311 12.6221 6.93311H14.9332C15.0314 6.93311 15.111 7.0127 15.111 7.11088C15.111 7.20907 15.0314 7.28866 14.9332 7.28866H12.6221C12.5239 7.28866 12.4443 7.20907 12.4443 7.11088Z" fill="#222222"/>
<path fill-rule="evenodd" clip-rule="evenodd" d="M8 19.5552C8 19.457 8.07959 19.3774 8.17778 19.3774H10.4889C10.5871 19.3774 10.6667 19.457 10.6667 19.5552C10.6667 19.6534 10.5871 19.733 10.4889 19.733H8.17778C8.07959 19.733 8 19.6534 8 19.5552Z" fill="#222222"/>
<path fill-rule="evenodd" clip-rule="evenodd" d="M11.5557 5.77788C11.5557 5.67969 11.6353 5.6001 11.7334 5.6001L14.9334 5.6001C15.0316 5.6001 15.1112 5.67969 15.1112 5.77787C15.1112 5.87606 15.0316 5.95565 14.9334 5.95565L11.7334 5.95565C11.6353 5.95565 11.5557 5.87606 11.5557 5.77788Z" fill="#222222"/>
<path fill-rule="evenodd" clip-rule="evenodd" d="M8 18.2222C8 18.124 8.07959 18.0444 8.17778 18.0444H10.4889C10.5871 18.0444 10.6667 18.124 10.6667 18.2222C10.6667 18.3204 10.5871 18.4 10.4889 18.4H8.17778C8.07959 18.4 8 18.3204 8 18.2222Z" fill="#222222"/>
<defs>
<linearGradient id="paint0_linear_6805_220056" x1="10.6667" y1="5.33301" x2="1.77783" y2="14.2219" gradientUnits="userSpaceOnUse">
<stop stop-color="#A1FF8B"/>
<stop offset="1" stop-color="#3F93FF"/>
</linearGradient>
</defs>
</svg>
