<svg width="24" height="24" viewBox="0 0 24 24" fill="none" xmlns="http://www.w3.org/2000/svg">
<g clip-path="url(#clip0_6805_220137)">
<path fill-rule="evenodd" clip-rule="evenodd" d="M5.67578 10.5952V13.751C6.1732 14.6086 6.87895 15.3267 7.72767 15.8389V10.5952H5.67578Z" fill="#AECBFA"/>
<path fill-rule="evenodd" clip-rule="evenodd" d="M9.46777 7.69141V16.7269C9.90941 16.7833 10.3546 16.8074 10.7997 16.7989C11.1993 16.824 11.6001 16.824 11.9996 16.7989V7.69141H9.46777Z" fill="#669DF6"/>
<path fill-rule="evenodd" clip-rule="evenodd" d="M13.9673 11.8315V15.7793C14.8206 15.2351 15.5223 14.4838 16.0072 13.5955V11.8315H13.9673Z" fill="#AECBFA"/>
<path fill-rule="evenodd" clip-rule="evenodd" d="M18.8869 17.183L17.183 18.8869C17.1351 18.9338 17.0971 18.9898 17.0711 19.0517C17.0451 19.1135 17.0317 19.1798 17.0317 19.2469C17.0317 19.3139 17.0451 19.3803 17.0711 19.4421C17.0971 19.5039 17.1351 19.56 17.183 19.6069L21.4308 23.8547C21.5251 23.9477 21.6523 23.9999 21.7848 23.9999C21.9173 23.9999 22.0444 23.9477 22.1387 23.8547L23.8547 22.1387C23.9477 22.0444 23.9999 21.9173 23.9999 21.7848C23.9999 21.6523 23.9477 21.5251 23.8547 21.4308L19.6069 17.183C19.56 17.1351 19.5039 17.0971 19.4421 17.0711C19.3803 17.0451 19.3139 17.0317 19.2469 17.0317C19.1798 17.0317 19.1135 17.0451 19.0517 17.0711C18.9898 17.0971 18.9338 17.1351 18.8869 17.183Z" fill="#4285F4"/>
<path fill-rule="evenodd" clip-rule="evenodd" d="M10.7994 0C8.66351 0 6.57555 0.633376 4.79959 1.82003C3.02364 3.00669 1.63945 4.69333 0.822063 6.66667C0.00467917 8.64001 -0.209186 10.8114 0.207513 12.9063C0.624211 15.0012 1.65276 16.9255 3.16309 18.4358C4.67341 19.9461 6.59769 20.9747 8.69257 21.3914C10.7875 21.8081 12.9589 21.5942 14.9322 20.7768C16.9055 19.9594 18.5922 18.5752 19.7788 16.7993C20.9655 15.0233 21.5989 12.9354 21.5989 10.7994C21.5989 9.38123 21.3195 7.97692 20.7768 6.66667C20.2341 5.35642 19.4386 4.1659 18.4358 3.16308C17.433 2.16026 16.2425 1.36478 14.9322 0.822058C13.622 0.279335 12.2176 0 10.7994 0ZM10.7994 18.827C9.21513 18.8246 7.66706 18.3528 6.35074 17.4711C5.03443 16.5895 4.00891 15.3375 3.40372 13.8733C2.79853 12.4092 2.64081 10.7985 2.95047 9.24474C3.26014 7.69099 4.0233 6.26385 5.14358 5.14357C6.26385 4.0233 7.69099 3.26013 9.24474 2.95047C10.7985 2.6408 12.4092 2.79852 13.8733 3.40372C15.3375 4.00891 16.5895 5.03442 17.4711 6.35074C18.3528 7.66706 18.8246 9.21513 18.827 10.7994C18.8286 11.8541 18.622 12.8987 18.2192 13.8733C17.8163 14.848 17.2251 15.7336 16.4793 16.4793C15.7336 17.2251 14.848 17.8163 13.8733 18.2192C12.8987 18.622 11.8541 18.8286 10.7994 18.827Z" fill="#669DF6"/>
</g>
<defs>
<clipPath id="clip0_6805_220137">
<rect width="24" height="24" fill="white"/>
</clipPath>
</defs>
</svg>
