<svg width="24" height="24" viewBox="0 0 24 24" fill="none" xmlns="http://www.w3.org/2000/svg">
<path d="M7.55551 17.3333L7.55551 6.66661C7.55551 6.42115 7.75449 6.22217 7.99995 6.22217L13.9047 6.22217L16.4443 8.79007V17.3333C16.4443 17.5787 16.2454 17.7777 15.9999 17.7777H7.99995C7.75449 17.7777 7.55551 17.5787 7.55551 17.3333Z" fill="white"/>
<path fill-rule="evenodd" clip-rule="evenodd" d="M14.0311 6.0972C13.9977 6.06344 13.9522 6.04443 13.9047 6.04443L7.99991 6.04443C7.65627 6.04443 7.37769 6.32301 7.37769 6.66666L7.37769 17.3333C7.37769 17.677 7.65627 17.9555 7.99991 17.9555H15.9998C16.3435 17.9555 16.6221 17.677 16.6221 17.3333V8.79011C16.6221 8.7433 16.6036 8.69838 16.5707 8.6651L14.0311 6.0972ZM13.8305 6.39999L16.2665 8.86317V17.3333C16.2665 17.4806 16.1471 17.6 15.9998 17.6H7.99991C7.85263 17.6 7.73324 17.4806 7.73324 17.3333L7.73324 6.66666C7.73324 6.51938 7.85263 6.39999 7.99991 6.39999L13.8305 6.39999Z" fill="#222222"/>
<path d="M13.9048 6.22214L16.4445 8.79004L14.3492 8.79004C14.1038 8.79004 13.9048 8.59105 13.9048 8.3456L13.9048 6.22214Z" fill="#C9E4EA"/>
<path fill-rule="evenodd" clip-rule="evenodd" d="M14.3493 8.61222C14.202 8.61222 14.0826 8.49283 14.0826 8.34555L14.0826 6.65467L16.0186 8.61222L14.3493 8.61222ZM13.7271 8.34555C13.7271 8.6892 14.0056 8.96777 14.3493 8.96777L16.4445 8.96777C16.5162 8.96777 16.5809 8.92467 16.6085 8.85848C16.6362 8.79229 16.6213 8.71598 16.5709 8.66498L14.0312 6.09708C13.9805 6.04583 13.9039 6.03026 13.8372 6.05766C13.7706 6.08506 13.7271 6.15001 13.7271 6.22209L13.7271 8.34555Z" fill="#222222"/>
<path d="M10.092 11.4907C9.94001 11.9584 9.66165 12.375 9.28769 12.6944C8.91373 13.0138 8.45872 13.2236 7.97299 13.3005C7.48725 13.3774 6.9897 13.3185 6.53534 13.1303C6.08098 12.9421 5.68752 12.632 5.39845 12.2341C5.10938 11.8362 4.93597 11.3662 4.89738 10.8759C4.8588 10.3856 4.95654 9.89422 5.17981 9.45603C5.40308 9.01783 5.74318 8.64992 6.1625 8.39296C6.58182 8.136 7.06403 8 7.55583 8V10.6667L10.092 11.4907Z" fill="url(#paint0_linear_6805_185655)"/>
<path fill-rule="evenodd" clip-rule="evenodd" d="M7.37809 8.18369C6.98127 8.2121 6.59611 8.33532 6.25543 8.5441C5.86406 8.78393 5.54664 9.12731 5.33826 9.53629C5.12987 9.94527 5.03864 10.4039 5.07465 10.8615C5.11067 11.3191 5.27252 11.7578 5.54232 12.1292C5.81212 12.5005 6.17935 12.79 6.60341 12.9657C7.02748 13.1413 7.49186 13.1963 7.94522 13.1245C8.39857 13.0527 8.82324 12.8569 9.17228 12.5588C9.4761 12.2993 9.71232 11.9711 9.86196 11.6024L7.50094 10.8353C7.42769 10.8115 7.37809 10.7432 7.37809 10.6662V8.18369ZM6.06965 8.24093C6.51693 7.96684 7.03129 7.82178 7.55587 7.82178C7.65406 7.82178 7.73365 7.90137 7.73365 7.99956V10.5371L10.147 11.3212C10.1918 11.3358 10.229 11.3675 10.2504 11.4096C10.2718 11.4516 10.2757 11.5004 10.2611 11.5452C10.099 12.0441 9.80208 12.4885 9.40319 12.8292C9.0043 13.1698 8.51896 13.3936 8.00084 13.4756C7.48272 13.5577 6.952 13.4949 6.46735 13.2941C5.9827 13.0934 5.56301 12.7625 5.25467 12.3381C4.94633 11.9138 4.76135 11.4124 4.7202 10.8894C4.67904 10.3664 4.7833 9.84227 5.02145 9.37487C5.25961 8.90747 5.62238 8.51503 6.06965 8.24093Z" fill="#222222"/>
<path d="M8.44482 7.11084C8.86565 7.11084 9.28051 7.21044 9.65547 7.40149C10.0304 7.59254 10.3548 7.86962 10.6022 8.21008C10.8496 8.55054 11.0128 8.9447 11.0787 9.36035C11.1445 9.77599 11.111 10.2013 10.981 10.6016L8.44482 9.77751V7.11084Z" fill="url(#paint1_linear_6805_185655)"/>
<path fill-rule="evenodd" clip-rule="evenodd" d="M8.31916 6.98518C8.3525 6.95184 8.39772 6.93311 8.44487 6.93311C8.89375 6.93311 9.33626 7.03934 9.73622 7.24313C10.1362 7.44692 10.4822 7.74247 10.7461 8.10563C11.0099 8.46878 11.1841 8.88922 11.2543 9.33258C11.3245 9.77594 11.2888 10.2296 11.1501 10.6565C11.1355 10.7014 11.1037 10.7386 11.0617 10.76C11.0197 10.7814 10.9709 10.7852 10.9261 10.7707L8.38993 9.94663C8.31668 9.92283 8.26709 9.85457 8.26709 9.77755V7.11088C8.26709 7.06373 8.28582 7.01852 8.31916 6.98518ZM8.62265 7.29502V9.64839L10.8608 10.3756C10.9406 10.0532 10.9553 9.71745 10.9031 9.3882C10.8417 9.00027 10.6893 8.63238 10.4584 8.31462C10.2276 7.99686 9.92476 7.73825 9.5748 7.55993C9.27778 7.4086 8.95395 7.31874 8.62265 7.29502Z" fill="#222222"/>
<path d="M14.2227 14.4443H15.556V17.7777H14.2227V14.4443Z" fill="url(#paint2_linear_6805_185655)"/>
<path fill-rule="evenodd" clip-rule="evenodd" d="M14.0449 14.4444C14.0449 14.3462 14.1245 14.2666 14.2227 14.2666H15.556C15.6542 14.2666 15.7338 14.3462 15.7338 14.4444V17.7777C15.7338 17.8759 15.6542 17.9555 15.556 17.9555H14.2227C14.1245 17.9555 14.0449 17.8759 14.0449 17.7777V14.4444ZM14.4005 14.6222V17.5999H15.3783V14.6222H14.4005Z" fill="#222222"/>
<path d="M12.0005 16.4443H13.3338V17.7777H12.0005V16.4443Z" fill="url(#paint3_linear_6805_185655)"/>
<path fill-rule="evenodd" clip-rule="evenodd" d="M11.8228 16.4444C11.8228 16.3462 11.9023 16.2666 12.0005 16.2666H13.3339C13.432 16.2666 13.5116 16.3462 13.5116 16.4444V17.7777C13.5116 17.8759 13.432 17.9555 13.3339 17.9555H12.0005C11.9023 17.9555 11.8228 17.8759 11.8228 17.7777V16.4444ZM12.1783 16.6222V17.5999H13.1561V16.6222H12.1783Z" fill="#222222"/>
<path d="M16.4448 12.4443H17.7782V17.7777H16.4448V12.4443Z" fill="url(#paint4_linear_6805_185655)"/>
<path fill-rule="evenodd" clip-rule="evenodd" d="M16.2671 12.4444C16.2671 12.3462 16.3467 12.2666 16.4449 12.2666H17.7782C17.8764 12.2666 17.956 12.3462 17.956 12.4444V17.7777C17.956 17.8759 17.8764 17.9555 17.7782 17.9555H16.4449C16.3467 17.9555 16.2671 17.8759 16.2671 17.7777V12.4444ZM16.6226 12.6222V17.5999H17.6004V12.6222H16.6226Z" fill="#222222"/>
<path fill-rule="evenodd" clip-rule="evenodd" d="M10.9944 0.52082L12.1258 1.65219C12.1952 1.72162 12.1952 1.83418 12.1258 1.90361L10.9945 3.03498C10.925 3.1044 10.8125 3.1044 10.743 3.03498C10.6736 2.96555 10.6736 2.85299 10.743 2.78356L11.5613 1.96526C9.1921 2.06878 6.93031 3.00808 5.18194 4.62426C3.32592 6.33995 2.18494 8.69231 1.98664 11.212C1.78833 13.7318 2.54727 16.2337 4.11205 18.2186C5.67682 20.2035 7.93241 21.5255 10.4288 21.9209L10.3732 22.2721C7.78842 21.8627 5.45299 20.4939 3.83282 18.4387C2.21265 16.3835 1.42685 13.7931 1.63218 11.1841C1.8375 8.57522 3.01887 6.13959 4.94059 4.36317C6.75911 2.68214 9.11411 1.70836 11.5794 1.60863L10.743 0.772236C10.6736 0.702809 10.6736 0.590246 10.743 0.52082C10.8125 0.451393 10.925 0.451393 10.9944 0.52082Z" fill="#222222"/>
<path fill-rule="evenodd" clip-rule="evenodd" d="M13.0056 23.3537L11.8742 22.2223C11.8048 22.1529 11.8048 22.0403 11.8742 21.9709L13.0055 20.8395C13.075 20.7701 13.1875 20.7701 13.257 20.8395C13.3264 20.909 13.3264 21.0215 13.257 21.0909L12.4387 21.9093C14.8079 21.8057 17.0697 20.8664 18.8181 19.2503C20.6741 17.5346 21.8151 15.1822 22.0134 12.6625C22.2117 10.1427 21.4527 7.64085 19.888 5.65593C18.3232 3.67102 16.0676 2.349 13.5712 1.95361L13.6268 1.60243C16.2116 2.01182 18.547 3.38064 20.1672 5.43581C21.7873 7.49099 22.5732 10.0814 22.3678 12.6904C22.1625 15.2993 20.9811 17.7349 19.0594 19.5113C17.2409 21.1924 14.8859 22.1661 12.4206 22.2659L13.257 23.1023C13.3264 23.1717 13.3264 23.2843 13.257 23.3537C13.1875 23.4231 13.075 23.4231 13.0056 23.3537Z" fill="#222222"/>
<defs>
<linearGradient id="paint0_linear_6805_185655" x1="10.092" y1="8" x2="4.76028" y2="13.2012" gradientUnits="userSpaceOnUse">
<stop stop-color="#A1FF8B"/>
<stop offset="1" stop-color="#3F93FF"/>
</linearGradient>
<linearGradient id="paint1_linear_6805_185655" x1="11.1115" y1="7.11084" x2="7.74362" y2="9.68366" gradientUnits="userSpaceOnUse">
<stop stop-color="#A1FF8B"/>
<stop offset="1" stop-color="#3F93FF"/>
</linearGradient>
<linearGradient id="paint2_linear_6805_185655" x1="15.556" y1="14.4443" x2="13.2571" y2="15.3639" gradientUnits="userSpaceOnUse">
<stop stop-color="#A1FF8B"/>
<stop offset="1" stop-color="#3F93FF"/>
</linearGradient>
<linearGradient id="paint3_linear_6805_185655" x1="13.3338" y1="16.4443" x2="12.0005" y2="17.7777" gradientUnits="userSpaceOnUse">
<stop stop-color="#A1FF8B"/>
<stop offset="1" stop-color="#3F93FF"/>
</linearGradient>
<linearGradient id="paint4_linear_6805_185655" x1="17.7782" y1="12.4443" x2="15.2684" y2="13.0718" gradientUnits="userSpaceOnUse">
<stop stop-color="#A1FF8B"/>
<stop offset="1" stop-color="#3F93FF"/>
</linearGradient>
</defs>
</svg>
