<svg width="24" height="24" viewBox="0 0 24 24" fill="none" xmlns="http://www.w3.org/2000/svg">
<path d="M6.22217 3.11095C6.22217 2.86549 6.42115 2.6665 6.66661 2.6665H20.8888C21.1343 2.6665 21.3333 2.86549 21.3333 3.11095V20.8887C21.3333 21.1342 21.1343 21.3332 20.8888 21.3332H6.66661C6.42115 21.3332 6.22217 21.1342 6.22217 20.8887V3.11095Z" fill="white"/>
<path fill-rule="evenodd" clip-rule="evenodd" d="M6.04443 3.11099C6.04443 2.76735 6.32301 2.48877 6.66666 2.48877H20.8889C21.2325 2.48877 21.5111 2.76735 21.5111 3.11099V20.8888C21.5111 21.2324 21.2325 21.511 20.8889 21.511H6.66666C6.32301 21.511 6.04443 21.2324 6.04443 20.8888V3.11099ZM6.66666 2.84433C6.51938 2.84433 6.39999 2.96372 6.39999 3.11099V20.8888C6.39999 21.036 6.51938 21.1554 6.66666 21.1554H20.8889C21.0362 21.1554 21.1555 21.036 21.1555 20.8888V3.11099C21.1555 2.96372 21.0362 2.84433 20.8889 2.84433H6.66666Z" fill="#222222"/>
<path fill-rule="evenodd" clip-rule="evenodd" d="M14.6665 5.33305C14.6665 5.23487 14.7461 5.15527 14.8443 5.15527H18.9332C19.0314 5.15527 19.1109 5.23487 19.1109 5.33305C19.1109 5.43124 19.0314 5.51083 18.9332 5.51083H14.8443C14.7461 5.51083 14.6665 5.43124 14.6665 5.33305Z" fill="#222222"/>
<path fill-rule="evenodd" clip-rule="evenodd" d="M14.6665 7.11088C14.6665 7.0127 14.7461 6.93311 14.8443 6.93311H18.9332C19.0314 6.93311 19.1109 7.0127 19.1109 7.11088C19.1109 7.20907 19.0314 7.28866 18.9332 7.28866H14.8443C14.7461 7.28866 14.6665 7.20907 14.6665 7.11088Z" fill="#222222"/>
<path fill-rule="evenodd" clip-rule="evenodd" d="M14.6665 8.88872C14.6665 8.79053 14.7461 8.71094 14.8443 8.71094H18.9332C19.0314 8.71094 19.1109 8.79053 19.1109 8.88872C19.1109 8.9869 19.0314 9.06649 18.9332 9.06649H14.8443C14.7461 9.06649 14.6665 8.9869 14.6665 8.88872Z" fill="#222222"/>
<path d="M10.6667 8.88878C10.6667 11.3434 8.67688 13.3332 6.22228 13.3332C3.76768 13.3332 1.77783 11.3434 1.77783 8.88878C1.77783 6.43418 3.76768 4.44434 6.22228 4.44434C8.67688 4.44434 10.6667 6.43418 10.6667 8.88878Z" fill="url(#paint0_linear_6805_185838)"/>
<path fill-rule="evenodd" clip-rule="evenodd" d="M6.22232 4.62216C3.8659 4.62216 1.95565 6.53241 1.95565 8.88882C1.95565 11.2452 3.8659 13.1555 6.22232 13.1555C8.57873 13.1555 10.489 11.2452 10.489 8.88882C10.489 6.53241 8.57873 4.62216 6.22232 4.62216ZM1.6001 8.88882C1.6001 6.33604 3.66954 4.2666 6.22232 4.2666C8.7751 4.2666 10.8445 6.33604 10.8445 8.88882C10.8445 11.4416 8.7751 13.511 6.22232 13.511C3.66954 13.511 1.6001 11.4416 1.6001 8.88882Z" fill="#222222"/>
<mask id="mask0_6805_185838" style="mask-type:alpha" maskUnits="userSpaceOnUse" x="1" y="4" width="10" height="10">
<path d="M10.5483 8.88891C10.5483 11.2781 8.61155 13.2148 6.22241 13.2148C3.83327 13.2148 1.89648 11.2781 1.89648 8.88891C1.89648 6.49977 3.83327 4.56299 6.22241 4.56299C8.61155 4.56299 10.5483 6.49977 10.5483 8.88891Z" fill="white"/>
</mask>
<g mask="url(#mask0_6805_185838)">
<path d="M3.33838 12.1769V15.0609H6.22233H9.10628V12.1769C9.10628 11.412 8.80244 10.6785 8.26159 10.1377C7.72074 9.59681 6.9872 9.29297 6.22233 9.29297C5.45746 9.29297 4.72391 9.59681 4.18307 10.1377C3.64222 10.6785 3.33838 11.412 3.33838 12.1769Z" fill="white"/>
<path fill-rule="evenodd" clip-rule="evenodd" d="M4.0574 10.012C4.63159 9.43781 5.41035 9.11523 6.22237 9.11523C7.03439 9.11523 7.81316 9.43781 8.38734 10.012C8.96153 10.5862 9.2841 11.3649 9.2841 12.177V15.0609C9.2841 15.1591 9.20451 15.2387 9.10632 15.2387H3.33842C3.24024 15.2387 3.16064 15.1591 3.16064 15.0609V12.177C3.16064 11.3649 3.48322 10.5862 4.0574 10.012ZM6.22237 9.47079C5.50465 9.47079 4.81633 9.7559 4.30882 10.2634C3.80131 10.7709 3.5162 11.4592 3.5162 12.177V14.8831H8.92855V12.177C8.92855 11.4592 8.64343 10.7709 8.13593 10.2634C7.62842 9.7559 6.94009 9.47079 6.22237 9.47079Z" fill="#222222"/>
<path d="M6.22225 8.71598C7.01863 8.71598 7.66422 8.07039 7.66422 7.27401C7.66422 6.47763 7.01863 5.83203 6.22225 5.83203C5.42587 5.83203 4.78027 6.47763 4.78027 7.27401C4.78027 8.07039 5.42587 8.71598 6.22225 8.71598Z" fill="white"/>
<path fill-rule="evenodd" clip-rule="evenodd" d="M6.22229 6.00985C5.5241 6.00985 4.95809 6.57585 4.95809 7.27405C4.95809 7.97225 5.5241 8.53825 6.22229 8.53825C6.92049 8.53825 7.48649 7.97225 7.48649 7.27405C7.48649 6.57585 6.92049 6.00985 6.22229 6.00985ZM4.60254 7.27405C4.60254 6.37949 5.32773 5.6543 6.22229 5.6543C7.11686 5.6543 7.84205 6.37949 7.84205 7.27405C7.84205 8.16862 7.11686 8.8938 6.22229 8.8938C5.32773 8.8938 4.60254 8.16862 4.60254 7.27405Z" fill="#222222"/>
</g>
<path d="M12 16.8887H14.6667V21.3331H12V16.8887Z" fill="#C9E4EA"/>
<path fill-rule="evenodd" clip-rule="evenodd" d="M11.8223 16.8887C11.8223 16.7905 11.9019 16.7109 12 16.7109H14.6667C14.7649 16.7109 14.8445 16.7905 14.8445 16.8887V21.3332C14.8445 21.4313 14.7649 21.5109 14.6667 21.5109H12C11.9019 21.5109 11.8223 21.4313 11.8223 21.3332V16.8887ZM12.1778 17.0665V21.1554H14.4889V17.0665H12.1778Z" fill="#222222"/>
<path d="M16.4443 12H19.111V21.3333H16.4443V12Z" fill="#C9E4EA"/>
<path fill-rule="evenodd" clip-rule="evenodd" d="M16.2666 12C16.2666 11.9019 16.3462 11.8223 16.4444 11.8223H19.111C19.2092 11.8223 19.2888 11.9019 19.2888 12V21.3334C19.2888 21.4316 19.2092 21.5112 19.111 21.5112H16.4444C16.3462 21.5112 16.2666 21.4316 16.2666 21.3334V12ZM16.6222 12.1778V21.1556H18.9333V12.1778H16.6222Z" fill="#222222"/>
<defs>
<linearGradient id="paint0_linear_6805_185838" x1="10.6667" y1="4.44433" x2="1.77783" y2="13.3332" gradientUnits="userSpaceOnUse">
<stop stop-color="#A1FF8B"/>
<stop offset="1" stop-color="#3F93FF"/>
</linearGradient>
</defs>
</svg>
