<svg width="24" height="24" viewBox="0 0 24 24" fill="none" xmlns="http://www.w3.org/2000/svg">
<path d="M20.4855 18.6193C20.6591 18.7929 20.6591 19.0743 20.4855 19.2479L19.2285 20.5049C19.0549 20.6785 18.7735 20.6785 18.5999 20.5049L3.51497 5.42C3.34141 5.24643 3.34141 4.96502 3.51497 4.79146L4.77205 3.53438C4.94562 3.36081 5.22702 3.36081 5.40059 3.53438L20.4855 18.6193Z" fill="white"/>
<path fill-rule="evenodd" clip-rule="evenodd" d="M20.6113 18.4936C20.8543 18.7366 20.8543 19.1306 20.6113 19.3736L19.3542 20.6307C19.1112 20.8736 18.7173 20.8736 18.4743 20.6307L3.38931 5.5457C3.14632 5.30271 3.14632 4.90874 3.38931 4.66575L4.64639 3.40867C4.88938 3.16568 5.28335 3.16568 5.52635 3.40867L20.6113 18.4936ZM20.3599 19.1222C20.464 19.018 20.464 18.8492 20.3599 18.745L5.27493 3.66009C5.17079 3.55595 5.00195 3.55595 4.89781 3.66009L3.64073 4.91716C3.53659 5.0213 3.53659 5.19015 3.64073 5.29429L18.7257 20.3792C18.8298 20.4834 18.9987 20.4834 19.1028 20.3792L20.3599 19.1222Z" fill="#222222"/>
<path fill-rule="evenodd" clip-rule="evenodd" d="M18.4742 18.4936L19.417 17.5508L19.6685 17.8022L18.7256 18.7451L18.4742 18.4936Z" fill="#222222"/>
<path fill-rule="evenodd" clip-rule="evenodd" d="M16.5885 16.6079L17.5313 15.6651L17.7827 15.9165L16.8399 16.8593L16.5885 16.6079Z" fill="#222222"/>
<path fill-rule="evenodd" clip-rule="evenodd" d="M14.7032 14.7222L15.646 13.7793L15.8975 14.0308L14.9547 14.9736L14.7032 14.7222Z" fill="#222222"/>
<path fill-rule="evenodd" clip-rule="evenodd" d="M12.8175 12.8369L13.7603 11.8941L14.0117 12.1455L13.0689 13.0883L12.8175 12.8369Z" fill="#222222"/>
<path fill-rule="evenodd" clip-rule="evenodd" d="M10.9318 10.9512L11.8746 10.0083L12.126 10.2598L11.1832 11.2026L10.9318 10.9512Z" fill="#222222"/>
<path fill-rule="evenodd" clip-rule="evenodd" d="M9.04601 9.06542L9.98882 8.12261L10.2402 8.37402L9.29743 9.31683L9.04601 9.06542Z" fill="#222222"/>
<path fill-rule="evenodd" clip-rule="evenodd" d="M7.16076 7.17967L8.10356 6.23687L8.35498 6.48828L7.41217 7.43109L7.16076 7.17967Z" fill="#222222"/>
<path fill-rule="evenodd" clip-rule="evenodd" d="M5.27501 5.29442L6.21782 4.35161L6.46924 4.60303L5.52643 5.54584L5.27501 5.29442Z" fill="#222222"/>
<path d="M20.4849 4.77154L19.2278 3.51446C19.0543 3.3409 18.7729 3.3409 18.5993 3.51446L3.20009 18.9137V20.7993H5.08571L20.4849 5.40008C20.6585 5.22652 20.6585 4.94511 20.4849 4.77154Z" fill="white"/>
<path fill-rule="evenodd" clip-rule="evenodd" d="M18.4736 3.38871C18.7166 3.14571 19.1106 3.14572 19.3536 3.38871L20.6106 4.64579C20.8536 4.88878 20.8536 5.28275 20.6106 5.52574L5.21142 20.925C5.17808 20.9583 5.13286 20.977 5.08571 20.977L3.20009 20.977C3.10191 20.977 3.02231 20.8974 3.02231 20.7992L3.02231 18.9136C3.02231 18.8665 3.04104 18.8213 3.07438 18.7879L18.4736 3.38871ZM19.1021 3.64012C18.998 3.53598 18.8292 3.53598 18.725 3.64012L3.37787 18.9873L3.37787 20.6215H5.01207L20.3592 5.27433C20.4634 5.17019 20.4634 5.00134 20.3592 4.8972L19.1021 3.64012Z" fill="#222222"/>
<path d="M18.5998 3.51495C18.7734 3.34139 19.0548 3.34139 19.2283 3.51495L20.4854 4.77203C20.659 4.9456 20.659 5.22701 20.4854 5.40057L19.5426 6.34338L17.657 4.45776L18.5998 3.51495Z" fill="#C9E4EA"/>
<path fill-rule="evenodd" clip-rule="evenodd" d="M18.4741 3.3892C18.7171 3.1462 19.111 3.1462 19.354 3.3892L20.6111 4.64628C20.8541 4.88927 20.8541 5.28324 20.6111 5.52623L19.6683 6.46904C19.5989 6.53847 19.4863 6.53847 19.4169 6.46904L17.5313 4.58342C17.4618 4.51399 17.4618 4.40143 17.5313 4.33201L18.4741 3.3892ZM19.1026 3.64061C18.9985 3.53647 18.8296 3.53647 18.7255 3.64061L17.9084 4.45771L19.5426 6.09192L20.3597 5.27481C20.4638 5.17067 20.4638 5.00183 20.3597 4.89769L19.1026 3.64061Z" fill="#222222"/>
<path d="M16.8891 12.0002C16.8891 14.7003 14.7003 16.8891 12.0002 16.8891C9.30016 16.8891 7.11133 14.7003 7.11133 12.0002C7.11133 9.30016 9.30016 7.11133 12.0002 7.11133C14.7003 7.11133 16.8891 9.30016 16.8891 12.0002Z" fill="url(#paint0_linear_6805_185696)"/>
<path fill-rule="evenodd" clip-rule="evenodd" d="M12.0003 7.28915C9.39839 7.28915 7.28915 9.39839 7.28915 12.0003C7.28915 14.6021 9.39839 16.7114 12.0003 16.7114C14.6021 16.7114 16.7114 14.6021 16.7114 12.0003C16.7114 9.39839 14.6021 7.28915 12.0003 7.28915ZM6.93359 12.0003C6.93359 9.20202 9.20202 6.93359 12.0003 6.93359C14.7985 6.93359 17.0669 9.20202 17.0669 12.0003C17.0669 14.7985 14.7985 17.0669 12.0003 17.0669C9.20202 17.0669 6.93359 14.7985 6.93359 12.0003Z" fill="#222222"/>
<mask id="mask0_6805_185696" style="mask-type:alpha" maskUnits="userSpaceOnUse" x="7" y="7" width="10" height="10">
<path d="M16.7587 12.0002C16.7587 14.6283 14.6283 16.7587 12.0002 16.7587C9.37216 16.7587 7.2417 14.6283 7.2417 12.0002C7.2417 9.37216 9.37216 7.2417 12.0002 7.2417C14.6283 7.2417 16.7587 9.37216 16.7587 12.0002Z" fill="white"/>
</mask>
<g mask="url(#mask0_6805_185696)">
<path d="M8.82764 15.6167V18.789H12H15.1723V15.6167C15.1723 14.7753 14.8381 13.9684 14.2432 13.3735C13.6482 12.7786 12.8413 12.4443 12 12.4443C11.1586 12.4443 10.3517 12.7786 9.7568 13.3735C9.16187 13.9684 8.82764 14.7753 8.82764 15.6167Z" fill="white"/>
<path fill-rule="evenodd" clip-rule="evenodd" d="M9.63113 13.2478C10.2594 12.6196 11.1115 12.2666 12 12.2666C12.8885 12.2666 13.7407 12.6196 14.3689 13.2478C14.9972 13.8761 15.3502 14.7282 15.3502 15.6167V18.7891C15.3502 18.8873 15.2706 18.9668 15.1724 18.9668H8.82768C8.7295 18.9668 8.6499 18.8873 8.6499 18.7891V15.6167C8.6499 14.7282 9.00286 13.8761 9.63113 13.2478ZM12 12.6222C11.2058 12.6222 10.4441 12.9377 9.88255 13.4992C9.32096 14.0608 9.00546 14.8225 9.00546 15.6167V18.6113H14.9946V15.6167C14.9946 14.8225 14.6791 14.0608 14.1175 13.4992C13.5559 12.9377 12.7942 12.6222 12 12.6222Z" fill="#222222"/>
<path d="M12.0002 11.81C12.8763 11.81 13.5864 11.0999 13.5864 10.2239C13.5864 9.34785 12.8763 8.6377 12.0002 8.6377C11.1242 8.6377 10.4141 9.34785 10.4141 10.2239C10.4141 11.0999 11.1242 11.81 12.0002 11.81Z" fill="white"/>
<path fill-rule="evenodd" clip-rule="evenodd" d="M12.0003 8.81552C11.2224 8.81552 10.5919 9.44608 10.5919 10.2239C10.5919 11.0017 11.2224 11.6323 12.0003 11.6323C12.7781 11.6323 13.4087 11.0017 13.4087 10.2239C13.4087 9.44608 12.7781 8.81552 12.0003 8.81552ZM10.2363 10.2239C10.2363 9.24971 11.0261 8.45996 12.0003 8.45996C12.9745 8.45996 13.7642 9.24971 13.7642 10.2239C13.7642 11.1981 12.9745 11.9879 12.0003 11.9879C11.0261 11.9879 10.2363 11.1981 10.2363 10.2239Z" fill="#222222"/>
</g>
<defs>
<linearGradient id="paint0_linear_6805_185696" x1="16.8891" y1="7.11133" x2="7.11133" y2="16.8891" gradientUnits="userSpaceOnUse">
<stop stop-color="#A1FF8B"/>
<stop offset="1" stop-color="#3F93FF"/>
</linearGradient>
</defs>
</svg>
