<svg width="24" height="24" viewBox="0 0 24 24" fill="none" xmlns="http://www.w3.org/2000/svg">
<path d="M2.6665 3.11113C2.6665 2.86567 2.86549 2.66669 3.11095 2.66669H20.8887C21.1342 2.66669 21.3332 2.86567 21.3332 3.11113V20.8889C21.3332 21.1344 21.1342 21.3334 20.8887 21.3334H3.11095C2.86549 21.3334 2.6665 21.1344 2.6665 20.8889V3.11113Z" fill="white"/>
<path fill-rule="evenodd" clip-rule="evenodd" d="M2.48877 3.11111C2.48877 2.76747 2.76735 2.48889 3.11099 2.48889H20.8888C21.2324 2.48889 21.511 2.76747 21.511 3.11111V20.8889C21.511 21.2325 21.2324 21.5111 20.8888 21.5111H3.11099C2.76735 21.5111 2.48877 21.2325 2.48877 20.8889V3.11111ZM3.11099 2.84445C2.96372 2.84445 2.84433 2.96384 2.84433 3.11111V20.8889C2.84433 21.0362 2.96372 21.1556 3.11099 21.1556H20.8888C21.036 21.1556 21.1554 21.0362 21.1554 20.8889V3.11111C21.1554 2.96384 21.036 2.84445 20.8888 2.84445H3.11099Z" fill="#222222"/>
<path d="M2.6665 3.11113C2.6665 2.86567 2.86549 2.66669 3.11095 2.66669H20.8887C21.1342 2.66669 21.3332 2.86567 21.3332 3.11113V4.44446H2.6665V3.11113Z" fill="url(#paint0_linear_5722_749)"/>
<path fill-rule="evenodd" clip-rule="evenodd" d="M2.48877 3.11111C2.48877 2.76747 2.76735 2.48889 3.11099 2.48889H20.8888C21.2324 2.48889 21.511 2.76747 21.511 3.11111V4.44445C21.511 4.54263 21.4314 4.62222 21.3332 4.62222H2.66655C2.56836 4.62222 2.48877 4.54263 2.48877 4.44445V3.11111ZM3.11099 2.84445C2.96372 2.84445 2.84433 2.96384 2.84433 3.11111V4.26667H21.1554V3.11111C21.1554 2.96384 21.036 2.84445 20.8888 2.84445H3.11099Z" fill="#222222"/>
<path d="M19.7651 20.3549C19.758 20.3796 19.7435 20.4014 19.7234 20.4174C19.7034 20.4334 19.6789 20.4427 19.6533 20.4442C19.6277 20.4457 19.6023 20.4392 19.5806 20.4256C19.5589 20.412 19.5419 20.392 19.5321 20.3683L17.4312 15.282C17.4219 15.2594 17.4195 15.2346 17.4243 15.2106C17.429 15.1866 17.4408 15.1646 17.4581 15.1473C17.4754 15.13 17.4974 15.1183 17.5214 15.1135C17.5453 15.1087 17.5702 15.1111 17.5928 15.1205L22.6791 17.2213C22.7028 17.2311 22.7228 17.2481 22.7364 17.2698C22.75 17.2915 22.7565 17.3169 22.755 17.3425C22.7535 17.3681 22.7442 17.3926 22.7282 17.4126C22.7122 17.4327 22.6904 17.4472 22.6657 17.4543L20.4759 18.0805C20.4557 18.0862 20.4373 18.0971 20.4224 18.1119C20.4076 18.1268 20.3968 18.1451 20.391 18.1653L19.7651 20.3549Z" fill="#C9E4EA"/>
<path fill-rule="evenodd" clip-rule="evenodd" d="M17.6453 15.3345L19.637 20.1566L20.2201 18.1164C20.2342 18.0672 20.2606 18.0224 20.2968 17.9862C20.333 17.9501 20.3778 17.9237 20.4269 17.9096L22.4674 17.3262L17.6453 15.3345ZM17.4866 14.9392C17.5451 14.9275 17.6056 14.9334 17.6607 14.9562L22.7475 17.0572C22.8052 17.0812 22.8539 17.1226 22.8871 17.1755C22.9202 17.2285 22.9361 17.2904 22.9325 17.3527C22.929 17.4151 22.9061 17.4748 22.8671 17.5236C22.8282 17.5724 22.775 17.6079 22.715 17.6252L20.5537 18.2432L19.936 20.4042C19.9187 20.4642 19.8832 20.5174 19.8344 20.5563C19.7856 20.5953 19.7259 20.6182 19.6635 20.6217C19.6012 20.6253 19.5393 20.6094 19.4863 20.5763C19.4334 20.5432 19.392 20.4944 19.368 20.4367L19.3678 20.4362L17.267 15.3499C17.2442 15.2948 17.2383 15.2343 17.25 15.1759C17.2616 15.1174 17.2903 15.0638 17.3324 15.0216C17.3746 14.9795 17.4282 14.9508 17.4866 14.9392Z" fill="#222222"/>
<path d="M12.4555 12.3761L13.8221 6.22223L8.35547 13.4017H11.5444L10.1777 19.5556L15.6444 12.3761H12.4555Z" fill="url(#paint1_linear_5722_749)"/>
<path fill-rule="evenodd" clip-rule="evenodd" d="M13.897 6.06098C13.9728 6.09614 14.0138 6.17926 13.9957 6.26077L12.6771 12.1983H15.6444C15.712 12.1983 15.7737 12.2366 15.8037 12.2971C15.8337 12.3577 15.8268 12.43 15.7858 12.4838L10.3192 19.6633C10.2686 19.7297 10.1786 19.752 10.1029 19.7168C10.0271 19.6816 9.98608 19.5985 10.0042 19.517L11.3228 13.5795H8.35551C8.28794 13.5795 8.22621 13.5412 8.19622 13.4806C8.16622 13.4201 8.17314 13.3478 8.21407 13.294L13.6807 6.11453C13.7313 6.0481 13.8213 6.02582 13.897 6.06098ZM8.71433 13.2239H11.5444C11.5983 13.2239 11.6493 13.2484 11.6831 13.2905C11.7168 13.3325 11.7296 13.3876 11.718 13.4403L10.5268 18.8036L15.2856 12.5538H12.4555C12.4016 12.5538 12.3506 12.5294 12.3168 12.4873C12.2831 12.4453 12.2703 12.3902 12.282 12.3375L13.4731 6.97417L8.71433 13.2239Z" fill="#222222"/>
<path fill-rule="evenodd" clip-rule="evenodd" d="M6.13318 15.8222C6.23137 15.8222 6.31096 15.9018 6.31096 16V16.6666C6.31096 16.7648 6.23137 16.8444 6.13318 16.8444C6.035 16.8444 5.9554 16.7648 5.9554 16.6666V16C5.9554 15.9018 6.035 15.8222 6.13318 15.8222ZM4.62207 17.3333C4.62207 17.2351 4.70166 17.1555 4.79985 17.1555H5.46651C5.5647 17.1555 5.64429 17.2351 5.64429 17.3333C5.64429 17.4315 5.5647 17.5111 5.46651 17.5111H4.79985C4.70166 17.5111 4.62207 17.4315 4.62207 17.3333ZM6.62207 17.3333C6.62207 17.2351 6.70166 17.1555 6.79985 17.1555H7.46651C7.5647 17.1555 7.64429 17.2351 7.64429 17.3333C7.64429 17.4315 7.5647 17.5111 7.46651 17.5111H6.79985C6.70166 17.5111 6.62207 17.4315 6.62207 17.3333ZM6.13318 17.8222C6.23137 17.8222 6.31096 17.9018 6.31096 18V18.6666C6.31096 18.7648 6.23137 18.8444 6.13318 18.8444C6.035 18.8444 5.9554 18.7648 5.9554 18.6666V18C5.9554 17.9018 6.035 17.8222 6.13318 17.8222Z" fill="#222222"/>
<path fill-rule="evenodd" clip-rule="evenodd" d="M18.4887 9.15558C18.5868 9.15558 18.6664 9.23517 18.6664 9.33336V10C18.6664 10.0982 18.5868 10.1778 18.4887 10.1778C18.3905 10.1778 18.3109 10.0982 18.3109 10V9.33336C18.3109 9.23517 18.3905 9.15558 18.4887 9.15558ZM16.9775 10.6667C16.9775 10.5685 17.0571 10.4889 17.1553 10.4889H17.822C17.9202 10.4889 17.9998 10.5685 17.9998 10.6667C17.9998 10.7649 17.9202 10.8445 17.822 10.8445H17.1553C17.0571 10.8445 16.9775 10.7649 16.9775 10.6667ZM18.9775 10.6667C18.9775 10.5685 19.0571 10.4889 19.1553 10.4889H19.822C19.9202 10.4889 19.9998 10.5685 19.9998 10.6667C19.9998 10.7649 19.9202 10.8445 19.822 10.8445H19.1553C19.0571 10.8445 18.9775 10.7649 18.9775 10.6667ZM18.4887 11.1556C18.5868 11.1556 18.6664 11.2352 18.6664 11.3334V12C18.6664 12.0982 18.5868 12.1778 18.4887 12.1778C18.3905 12.1778 18.3109 12.0982 18.3109 12V11.3334C18.3109 11.2352 18.3905 11.1556 18.4887 11.1556Z" fill="#222222"/>
<path fill-rule="evenodd" clip-rule="evenodd" d="M9.8667 6.59041C9.8667 6.68859 9.78711 6.76819 9.68892 6.76819L9.24448 6.76819C9.14629 6.76819 9.0667 6.68859 9.0667 6.59041C9.0667 6.49223 9.14629 6.41263 9.24448 6.41263L9.68892 6.41263C9.78711 6.41263 9.8667 6.49223 9.8667 6.59041ZM8.80003 5.52374C8.89822 5.52374 8.97781 5.60334 8.97781 5.70152L8.97781 6.14596C8.97781 6.24415 8.89822 6.32374 8.80003 6.32374C8.70185 6.32374 8.62225 6.24415 8.62225 6.14596L8.62225 5.70152C8.62225 5.60334 8.70185 5.52374 8.80003 5.52374ZM8.80003 6.85708C8.89822 6.85708 8.97781 6.93667 8.97781 7.03485L8.97781 7.4793C8.97781 7.57748 8.89822 7.65708 8.80003 7.65708C8.70185 7.65708 8.62225 7.57748 8.62225 7.4793L8.62225 7.03485C8.62225 6.93667 8.70185 6.85708 8.80003 6.85708ZM8.53337 6.59041C8.53337 6.68859 8.45377 6.76819 8.35559 6.76819L7.91114 6.76819C7.81296 6.76819 7.73337 6.68859 7.73337 6.59041C7.73337 6.49223 7.81296 6.41263 7.91114 6.41263L8.35559 6.41263C8.45377 6.41263 8.53337 6.49223 8.53337 6.59041Z" fill="#222222"/>
<defs>
<linearGradient id="paint0_linear_5722_749" x1="21.3332" y1="3.55558" x2="2.6665" y2="3.55557" gradientUnits="userSpaceOnUse">
<stop stop-color="#A1FF8B"/>
<stop offset="1" stop-color="#3F93FF"/>
</linearGradient>
<linearGradient id="paint1_linear_5722_749" x1="15.6444" y1="12.8889" x2="8.35547" y2="12.8889" gradientUnits="userSpaceOnUse">
<stop stop-color="#A1FF8B"/>
<stop offset="1" stop-color="#3F93FF"/>
</linearGradient>
</defs>
</svg>
