<svg width="24" height="24" viewBox="0 0 24 24" fill="none" xmlns="http://www.w3.org/2000/svg">
<path d="M6.22217 3.11095C6.22217 2.86549 6.42115 2.6665 6.66661 2.6665H20.8888C21.1343 2.6665 21.3333 2.86549 21.3333 3.11095V20.8887C21.3333 21.1342 21.1343 21.3332 20.8888 21.3332H6.66661C6.42115 21.3332 6.22217 21.1342 6.22217 20.8887V3.11095Z" fill="white"/>
<path fill-rule="evenodd" clip-rule="evenodd" d="M6.04443 3.11099C6.04443 2.76735 6.32301 2.48877 6.66666 2.48877H20.8889C21.2325 2.48877 21.5111 2.76735 21.5111 3.11099V20.8888C21.5111 21.2324 21.2325 21.511 20.8889 21.511H6.66666C6.32301 21.511 6.04443 21.2324 6.04443 20.8888V3.11099ZM6.66666 2.84433C6.51938 2.84433 6.39999 2.96372 6.39999 3.11099V20.8888C6.39999 21.036 6.51938 21.1554 6.66666 21.1554H20.8889C21.0362 21.1554 21.1555 21.036 21.1555 20.8888V3.11099C21.1555 2.96372 21.0362 2.84433 20.8889 2.84433H6.66666Z" fill="#222222"/>
<path fill-rule="evenodd" clip-rule="evenodd" d="M8 4.62211C8 4.52393 8.07959 4.44434 8.17778 4.44434H11.3778C11.476 4.44434 11.5556 4.52393 11.5556 4.62211C11.5556 4.7203 11.476 4.79989 11.3778 4.79989H8.17778C8.07959 4.79989 8 4.7203 8 4.62211Z" fill="#222222"/>
<path fill-rule="evenodd" clip-rule="evenodd" d="M8 6.39995C8 6.30176 8.07959 6.22217 8.17778 6.22217H11.3778C11.476 6.22217 11.5556 6.30176 11.5556 6.39995C11.5556 6.49813 11.476 6.57772 11.3778 6.57772H8.17778C8.07959 6.57772 8 6.49813 8 6.39995Z" fill="#222222"/>
<path d="M20.2706 9.09862C20.068 9.72225 19.6968 10.2777 19.1982 10.7036C18.6996 11.1294 18.0929 11.4091 17.4453 11.5117C16.7976 11.6143 16.1342 11.5357 15.5284 11.2848C14.9226 11.0339 14.398 10.6203 14.0125 10.0898C13.6271 9.5593 13.3959 8.93256 13.3445 8.27886C13.293 7.62515 13.4233 6.96996 13.721 6.3857C14.0187 5.80145 14.4722 5.3109 15.0313 4.96828C15.5904 4.62567 16.2333 4.44434 16.8891 4.44434V7.99989L20.2706 9.09862Z" fill="#C9E4EA"/>
<path fill-rule="evenodd" clip-rule="evenodd" d="M16.7113 4.62684C16.1504 4.6564 15.6047 4.82545 15.1242 5.11991C14.5931 5.44539 14.1623 5.91141 13.8795 6.46646C13.5967 7.0215 13.4729 7.64393 13.5217 8.26495C13.5706 8.88597 13.7903 9.48138 14.1564 9.98534C14.5226 10.4893 15.021 10.8822 15.5965 11.1206C16.172 11.359 16.8022 11.4336 17.4175 11.3361C18.0328 11.2387 18.6091 10.973 19.0828 10.5684C19.5113 10.2024 19.8407 9.73567 20.0422 9.21136L16.8342 8.16901C16.7609 8.14521 16.7113 8.07695 16.7113 7.99993V4.62684ZM14.9384 4.81674C15.5255 4.457 16.2006 4.2666 16.8891 4.2666C16.9362 4.2666 16.9815 4.28533 17.0148 4.31867C17.0481 4.35201 17.0669 4.39723 17.0669 4.44438V7.87077L20.3256 8.92959C20.3704 8.94415 20.4076 8.97594 20.429 9.01795C20.4504 9.05996 20.4543 9.10876 20.4397 9.1536C20.2269 9.80841 19.8373 10.3916 19.3137 10.8388C18.7902 11.2859 18.1532 11.5796 17.4731 11.6873C16.7931 11.795 16.0965 11.7126 15.4604 11.4491C14.8243 11.1856 14.2735 10.7513 13.8688 10.1943C13.4641 9.63732 13.2213 8.97924 13.1673 8.29285C13.1133 7.60646 13.2501 6.9185 13.5627 6.30504C13.8752 5.69157 14.3514 5.17649 14.9384 4.81674Z" fill="#222222"/>
<path d="M19.7657 5.91016C20.0955 6.3641 20.3132 6.88965 20.4009 7.44385C20.4887 7.99804 20.4441 8.56514 20.2707 9.09878L16.8892 8.00006L19.7657 5.91016Z" fill="#C9E4EA"/>
<path fill-rule="evenodd" clip-rule="evenodd" d="M19.6612 5.76639C19.7407 5.70868 19.8518 5.72628 19.9095 5.80572C20.2558 6.28236 20.4844 6.83419 20.5766 7.41609C20.6687 7.998 20.6219 8.59345 20.4398 9.15378C20.4252 9.19862 20.3935 9.23584 20.3515 9.25724C20.3094 9.27865 20.2606 9.28249 20.2158 9.26792L16.8343 8.16919C16.7707 8.14853 16.7241 8.09395 16.7136 8.02792C16.7032 7.9619 16.7306 7.89558 16.7847 7.85629L19.6612 5.76639ZM17.276 7.93886L20.1522 8.87338C20.2743 8.41708 20.2995 7.93956 20.2254 7.47171C20.1513 7.00387 19.9797 6.55751 19.7226 6.16128L17.276 7.93886Z" fill="#222222"/>
<path d="M16.8892 4.44434C17.4503 4.44434 18.0034 4.57713 18.5033 4.83187C19.0033 5.0866 19.4359 5.45605 19.7657 5.90999L16.8892 7.99989V4.44434Z" fill="white"/>
<path fill-rule="evenodd" clip-rule="evenodd" d="M16.7635 4.31867C16.7968 4.28533 16.8421 4.2666 16.8892 4.2666C17.4784 4.2666 18.0592 4.40604 18.5841 4.67351C19.109 4.94098 19.5632 5.3289 19.9095 5.80554C19.9372 5.84368 19.9487 5.89127 19.9413 5.93784C19.9339 5.98441 19.9083 6.02614 19.8702 6.05386L16.9937 8.14376C16.9396 8.18305 16.8681 8.18869 16.8085 8.15834C16.7489 8.12799 16.7114 8.06679 16.7114 7.99993V4.44438C16.7114 4.39723 16.7302 4.35201 16.7635 4.31867ZM17.067 4.62684V7.65103L19.5136 5.87345C19.2162 5.50645 18.8447 5.20536 18.4227 4.99031C18.0006 4.77527 17.5387 4.6517 17.067 4.62684Z" fill="#222222"/>
<path d="M10.6667 15.1109C10.6667 17.5655 8.67688 19.5554 6.22228 19.5554C3.76768 19.5554 1.77783 17.5655 1.77783 15.1109C1.77783 12.6563 3.76768 10.6665 6.22228 10.6665C8.67688 10.6665 10.6667 12.6563 10.6667 15.1109Z" fill="url(#paint0_linear_6805_220029)"/>
<path fill-rule="evenodd" clip-rule="evenodd" d="M6.22232 10.8443C3.8659 10.8443 1.95565 12.7546 1.95565 15.111C1.95565 17.4674 3.8659 19.3777 6.22232 19.3777C8.57873 19.3777 10.489 17.4674 10.489 15.111C10.489 12.7546 8.57873 10.8443 6.22232 10.8443ZM1.6001 15.111C1.6001 12.5582 3.66954 10.4888 6.22232 10.4888C8.7751 10.4888 10.8445 12.5582 10.8445 15.111C10.8445 17.6638 8.7751 19.7332 6.22232 19.7332C3.66954 19.7332 1.6001 17.6638 1.6001 15.111Z" fill="#222222"/>
<path fill-rule="evenodd" clip-rule="evenodd" d="M6.22234 11.8564C6.32052 11.8564 6.40012 11.936 6.40012 12.0342V13.2033H7.85577C7.95395 13.2033 8.03355 13.2829 8.03355 13.3811C8.03355 13.4793 7.95395 13.5589 7.85577 13.5589H6.40012V14.8541H7.03038C7.58441 14.8541 8.03355 15.3032 8.03355 15.8573C8.03355 16.4113 7.58441 16.8604 7.03038 16.8604H6.40012V18.1881C6.40012 18.2863 6.32052 18.3658 6.22234 18.3658C6.12415 18.3658 6.04456 18.2863 6.04456 18.1881V16.8604H4.58891C4.49073 16.8604 4.41113 16.7809 4.41113 16.6827C4.41113 16.5845 4.49073 16.5049 4.58891 16.5049H6.04456V15.2097H5.4143C4.86027 15.2097 4.41113 14.7605 4.41113 14.2065C4.41113 13.6525 4.86027 13.2033 5.4143 13.2033H6.04456V12.0342C6.04456 11.936 6.12415 11.8564 6.22234 11.8564ZM6.04456 13.5589H5.4143C5.05663 13.5589 4.76669 13.8488 4.76669 14.2065C4.76669 14.5642 5.05663 14.8541 5.4143 14.8541H6.04456V13.5589ZM6.40012 15.2097V16.5049H7.03038C7.38804 16.5049 7.67799 16.2149 7.67799 15.8573C7.67799 15.4996 7.38804 15.2097 7.03038 15.2097H6.40012Z" fill="#222222"/>
<path d="M17.7778 16.8887H19.5556V21.3331H17.7778V16.8887Z" fill="#C9E4EA"/>
<path fill-rule="evenodd" clip-rule="evenodd" d="M17.6001 16.8887C17.6001 16.7905 17.6797 16.7109 17.7779 16.7109H19.5557C19.6538 16.7109 19.7334 16.7905 19.7334 16.8887V21.3332C19.7334 21.4313 19.6538 21.5109 19.5557 21.5109H17.7779C17.6797 21.5109 17.6001 21.4313 17.6001 21.3332V16.8887ZM17.9557 17.0665V21.1554H19.3779V17.0665H17.9557Z" fill="#222222"/>
<path d="M12.4443 19.5557H14.2221V21.3334H12.4443V19.5557Z" fill="#C9E4EA"/>
<path fill-rule="evenodd" clip-rule="evenodd" d="M12.2666 19.5552C12.2666 19.457 12.3462 19.3774 12.4444 19.3774H14.2222C14.3203 19.3774 14.3999 19.457 14.3999 19.5552V21.333C14.3999 21.4312 14.3203 21.5108 14.2222 21.5108H12.4444C12.3462 21.5108 12.2666 21.4312 12.2666 21.333V19.5552ZM12.6222 19.733V21.1552H14.0444V19.733H12.6222Z" fill="#222222"/>
<path d="M15.1113 14.2222H16.8891V21.3333H15.1113V14.2222Z" fill="#C9E4EA"/>
<path fill-rule="evenodd" clip-rule="evenodd" d="M14.9336 14.2222C14.9336 14.124 15.0132 14.0444 15.1114 14.0444H16.8892C16.9873 14.0444 17.0669 14.124 17.0669 14.2222V21.3333C17.0669 21.4315 16.9873 21.5111 16.8892 21.5111H15.1114C15.0132 21.5111 14.9336 21.4315 14.9336 21.3333V14.2222ZM15.2891 14.4V21.1555H16.7114V14.4H15.2891Z" fill="#222222"/>
<defs>
<linearGradient id="paint0_linear_6805_220029" x1="10.6667" y1="10.6665" x2="1.77783" y2="19.5554" gradientUnits="userSpaceOnUse">
<stop stop-color="#A1FF8B"/>
<stop offset="1" stop-color="#3F93FF"/>
</linearGradient>
</defs>
</svg>
