<svg width="24" height="24" viewBox="0 0 24 24" fill="none" xmlns="http://www.w3.org/2000/svg">
<g clip-path="url(#clip0_6805_220132)">
<path d="M23.3593 17.7651V13.5109L22.8925 13.2507L12.2786 19.2835L2.20029 13.5561L2.20244 11.0892L12.2786 16.752L23.3593 10.5171V6.32746L22.8925 6.06723L12.2786 12.1L2.61538 6.60706L12.2786 1.14849L20.0815 5.55535L20.6665 5.22629V4.73592L12.2786 0L1.2002 6.25649V6.87375L12.2786 13.126L22.357 7.43509V9.92995L12.2786 15.6573L1.66691 9.62669L1.2002 9.88693V14.1389L12.2786 20.3739L22.357 14.7024V17.1823L12.2786 22.9097L1.66691 16.8769L1.2002 17.1371V17.7651L12.2786 24L23.3593 17.7651Z" fill="#FF3621"/>
</g>
<defs>
<clipPath id="clip0_6805_220132">
<rect width="24" height="24" fill="white"/>
</clipPath>
</defs>
</svg>
