<svg width="144" height="36" viewBox="0 0 144 36" fill="none" xmlns="http://www.w3.org/2000/svg">
<path fill-rule="evenodd" clip-rule="evenodd" d="M50.7622 23.2868C50.7622 23.897 50.3148 24.3987 49.6784 24.3987C49.0592 24.3987 48.6118 23.8959 48.6118 23.2868V12.6845C48.6118 12.0742 49.0592 11.5725 49.6956 11.5725C50.3148 11.5725 50.7622 12.0754 50.7622 12.6845V23.2868Z" fill="white"/>
<path fill-rule="evenodd" clip-rule="evenodd" d="M64.6615 12.6845V22.3724C64.6615 23.6821 63.9909 24.4181 62.9244 24.4181H62.8389C61.8242 24.4181 61.3418 23.8079 60.9122 22.9107L58.7446 18.5153L56.8178 13.977L56.8697 18.3725L56.887 23.2696C56.887 23.8799 56.4401 24.3816 55.8031 24.3816C55.1839 24.3816 54.7371 23.8787 54.7371 23.2696V13.5816C54.7371 12.3793 55.4076 11.5359 56.5778 11.5359H56.6638C57.7476 11.5359 58.1945 12.1462 58.625 13.0433L60.7577 17.4033L62.5812 21.6376L62.5298 17.5827L62.5125 12.6856C62.5125 12.0753 62.9594 11.5736 63.5964 11.5736C64.2141 11.5725 64.6615 12.0742 64.6615 12.6845Z" fill="white"/>
<path fill-rule="evenodd" clip-rule="evenodd" d="M73.2803 23.2697C73.2803 23.88 72.8334 24.3817 72.1965 24.3817C71.5777 24.3817 71.1304 23.8788 71.1304 23.2697V13.672H68.464C67.9139 13.672 67.467 13.2411 67.467 12.6137C67.467 12.0034 67.9139 11.5737 68.464 11.5737H75.9467C76.4968 11.5737 76.9441 12.0046 76.9441 12.632C76.9441 13.2423 76.4968 13.672 75.9467 13.672H73.2803V23.2697Z" fill="white"/>
<path fill-rule="evenodd" clip-rule="evenodd" d="M79.7482 22.9108V12.9542C79.7482 12.0217 80.2469 11.5017 81.1589 11.5371H87.3518C87.9019 11.5371 88.3488 11.9851 88.3488 12.5954C88.3488 13.2057 87.9019 13.6354 87.3518 13.6354H81.8808V16.7211H86.7149C87.2486 16.7211 87.6782 17.1336 87.6782 17.7257C87.6782 18.3177 87.2486 18.7302 86.7149 18.7302H81.8808V22.2822H87.3518C87.9019 22.2822 88.3488 22.7302 88.3488 23.3405C88.3488 23.9508 87.9019 24.3805 87.3518 24.3805H81.1071C80.2128 24.3816 79.7146 23.8616 79.7482 22.9108Z" fill="white"/>
<path fill-rule="evenodd" clip-rule="evenodd" d="M100.065 24.4353C100.667 24.1119 100.857 23.4479 100.564 22.9279L98.4135 18.9462C100.186 18.5874 101.218 17.2239 101.218 15.3759C101.218 13.4388 100.049 11.5371 97.2442 11.5371H93.1676C92.256 11.5017 91.7573 12.0217 91.7573 12.9542V23.2879C91.7573 23.8971 92.2042 24.3999 92.8234 24.3999C93.4604 24.3999 93.9072 23.8982 93.9072 23.2879L93.89 19.3771H96.1603L98.5517 23.9873C98.8431 24.5073 99.48 24.7405 100.065 24.4353ZM97.2946 17.3485H93.8885V13.6343H97.2773C98.4125 13.6343 99.0495 14.3874 99.0495 15.4823C99.0495 16.5771 98.4475 17.3485 97.2946 17.3485Z" fill="white"/>
<path fill-rule="evenodd" clip-rule="evenodd" d="M105.655 23.4307C104.365 22.2284 103.78 20.345 103.78 17.9771C103.78 15.5907 104.348 13.7256 105.622 12.5416C106.413 11.8239 107.479 11.3394 109.028 11.3394C110.386 11.3394 111.436 11.6628 112.227 12.3622C112.916 12.9359 113.414 13.7439 113.707 14.8742C113.861 15.4662 113.466 16.0582 112.812 16.1839C112.193 16.2914 111.695 15.8787 111.505 15.2868C111.299 14.7131 111.023 14.3005 110.697 14.0125C110.249 13.5999 109.699 13.4205 108.976 13.4205C108.202 13.4205 107.531 13.6536 107.032 14.1736C106.309 14.9268 105.999 16.2731 105.999 17.9771C105.999 19.6639 106.292 21.009 107.049 21.7622C107.548 22.2822 108.202 22.5153 108.958 22.5153C109.75 22.5153 110.351 22.3004 110.851 21.8159C111.108 21.5645 111.333 21.2421 111.488 20.865C111.711 20.3085 112.176 19.8959 112.777 20.0399C113.379 20.1839 113.758 20.793 113.569 21.385C113.259 22.3713 112.726 23.161 112.004 23.6993C111.213 24.2913 110.232 24.5964 108.994 24.5964C107.411 24.5964 106.413 24.1119 105.655 23.4307Z" fill="white"/>
<path fill-rule="evenodd" clip-rule="evenodd" d="M121.448 11.3394C117.715 11.3394 116.132 13.9588 116.132 17.9771C116.132 22.121 117.698 24.6147 121.448 24.6147C125.129 24.6147 126.747 22.121 126.747 17.9771C126.747 13.8868 125.147 11.3394 121.448 11.3394ZM121.431 13.4388C123.478 13.4388 124.544 14.9268 124.544 17.9771C124.544 21.0261 123.46 22.5153 121.431 22.5153C119.384 22.5153 118.351 21.0273 118.351 17.9771C118.351 14.9279 119.418 13.4388 121.431 13.4388Z" fill="white"/>
<path fill-rule="evenodd" clip-rule="evenodd" d="M143.433 23.2696C143.433 23.88 142.986 24.3817 142.349 24.3817C141.73 24.3817 141.282 23.8788 141.282 23.2696V18.4617L141.334 13.7794L139.837 18.5337L138.324 23.2159C138.066 24.0411 137.533 24.3645 136.862 24.3645C136.156 24.3645 135.64 24.024 135.365 23.1988L133.817 18.5349L132.389 13.8526L132.44 18.4629V23.2708C132.44 23.8811 131.993 24.3828 131.356 24.3828C130.737 24.3828 130.29 23.88 130.29 23.2708V13.6731C130.29 12.3451 130.978 11.5737 132.182 11.5737C133.318 11.5737 133.954 12.2011 134.315 13.3497L135.897 18.2469L136.861 21.5839L137.841 18.2469L139.424 13.3497C139.786 12.2011 140.405 11.5737 141.54 11.5737C142.745 11.5737 143.415 12.3268 143.415 13.6731L143.433 23.2696Z" fill="white"/>
<path d="M31.249 19.81C31.249 20.1309 31.126 20.4387 30.9073 20.6656C30.6884 20.8925 30.3916 21.02 30.0822 21.02C29.7727 21.02 29.476 20.8925 29.2571 20.6656C29.0383 20.4387 28.9154 20.1309 28.9154 19.81V9.00006C28.9154 8.67914 29.0383 8.37136 29.2571 8.14447C29.476 7.91752 29.7727 7.79004 30.0822 7.79004C30.3916 7.79004 30.6884 7.91752 30.9073 8.14447C31.126 8.37136 31.249 8.67914 31.249 9.00006V19.81ZM30.844 27.2999C30.6897 27.46 26.3503 31.21 18.3949 31.21C10.4394 31.21 6.12899 27.4799 5.94577 27.32C5.83028 27.219 5.7352 27.0954 5.66588 26.9563C5.59657 26.8171 5.55448 26.6651 5.5419 26.509C5.52937 26.353 5.54665 26.1959 5.59278 26.0467C5.63891 25.8976 5.71297 25.7593 5.81075 25.64C6.01216 25.3983 6.29747 25.2491 6.60457 25.2247C6.91167 25.2003 7.21561 25.3029 7.45004 25.51C7.51757 25.5599 11.394 28.82 18.3852 28.82C25.3764 28.82 29.2818 25.54 29.3204 25.51C29.5575 25.3048 29.8624 25.2036 30.1703 25.2278C30.4782 25.2521 30.7649 25.4 30.9693 25.64C31.1661 25.878 31.2643 26.1869 31.2426 26.4996C31.2209 26.8124 31.0812 27.1035 30.8536 27.31L30.844 27.2999ZM5.5311 9.00006C5.54853 8.67813 5.68816 8.37645 5.91947 8.16093C6.15073 7.94546 6.45491 7.83367 6.76542 7.85004C7.05327 7.86698 7.3249 7.99389 7.52789 8.20624C7.73089 8.4186 7.85088 8.70136 7.86471 9.00006V19.79C7.86471 20.1109 7.74178 20.4187 7.52295 20.6456C7.30417 20.8725 7.00738 21 6.69793 21C6.38847 21 6.09169 20.8725 5.87286 20.6456C5.65403 20.4187 5.5311 20.1109 5.5311 19.79V9.00006ZM11.3844 6.60007C11.4019 6.27814 11.5414 5.97646 11.7728 5.76094C12.004 5.54547 12.3082 5.43368 12.6187 5.45005C12.9066 5.46699 13.1782 5.5939 13.3812 5.80625C13.5842 6.0186 13.7042 6.30137 13.718 6.60007V22.6C13.718 22.9209 13.5951 23.2286 13.3763 23.4556C13.1575 23.6825 12.8607 23.81 12.5512 23.81C12.2418 23.81 11.945 23.6825 11.7261 23.4556C11.5073 23.2286 11.3844 22.9209 11.3844 22.6V6.60007ZM17.2666 6.00008C17.2666 5.67915 17.3896 5.37138 17.6084 5.14448C17.8272 4.91754 18.124 4.79005 18.4335 4.79005C18.7429 4.79005 19.0397 4.91754 19.2585 5.14448C19.4773 5.37138 19.6002 5.67915 19.6002 6.00008V23.4C19.6002 23.7209 19.4773 24.0287 19.2585 24.2556C19.0397 24.4825 18.7429 24.61 18.4335 24.61C18.124 24.61 17.8272 24.4825 17.6084 24.2556C17.3896 24.0287 17.2666 23.7209 17.2666 23.4V6.00008ZM23.0524 6.60007C23.0524 6.27915 23.1754 5.97137 23.3942 5.74448C23.613 5.51753 23.9098 5.39005 24.2193 5.39005C24.5287 5.39005 24.8255 5.51753 25.0443 5.74448C25.2631 5.97137 25.386 6.27915 25.386 6.60007V22.6C25.386 22.9209 25.2631 23.2286 25.0443 23.4556C24.8255 23.6825 24.5287 23.81 24.2193 23.81C23.9098 23.81 23.613 23.6825 23.3942 23.4556C23.1754 23.2286 23.0524 22.9209 23.0524 22.6V6.60007ZM31.5672 0.000101505H5.2611C4.68789 -0.00388248 4.11957 0.109446 3.58869 0.333605C3.05777 0.557716 2.57475 0.888242 2.16718 1.30622C1.75961 1.72425 1.43556 2.22148 1.21361 2.76955C0.991615 3.31756 0.876079 3.90565 0.873535 4.50008V31.4999C0.876079 32.0944 0.991615 32.6824 1.21361 33.2305C1.43556 33.7785 1.75961 34.2758 2.16718 34.6938C2.57475 35.1118 3.05777 35.4423 3.58869 35.6664C4.11957 35.8906 4.68789 36.0037 5.2611 35.9999H31.5672C32.1396 36.0037 32.7071 35.8909 33.2374 35.6674C33.7677 35.4439 34.2503 35.1142 34.6577 34.6973C35.0652 34.2804 35.3894 33.7843 35.612 33.2374C35.8345 32.6905 35.951 32.1035 35.9548 31.51V4.50008C35.9522 3.90647 35.837 3.31924 35.6156 2.77185C35.3942 2.22446 35.0711 1.72766 34.6645 1.30978C34.258 0.891938 33.7761 0.561219 33.2463 0.336484C32.7165 0.111749 32.1493 -0.00253848 31.5769 0.000101505" fill="white"/>
</svg>
