<svg width="87" height="36" viewBox="0 0 87 36" fill="none" xmlns="http://www.w3.org/2000/svg">
<path d="M9.74754 0C6.97324 0 3.73272 1.24986 3.73272 4.77162C3.73272 7.06543 5.33532 7.94636 6.88551 8.79867C8.1554 9.49559 9.35381 10.1544 9.35381 11.5501C9.35381 13.3863 7.71303 14.2081 6.08564 14.2081C4.64414 14.2081 3.29415 13.6666 2.12628 13.1403C2.05479 13.373 1.42174 15.4284 1.35596 15.6439C2.97289 16.2111 4.50304 16.5086 5.89685 16.5086C7.89703 16.5086 12.5495 15.9938 12.5495 11.2259C12.5495 8.73956 10.7857 7.71755 9.22983 6.8147C8.04576 6.12828 6.92745 5.47997 6.92745 4.28349C6.92745 2.91349 8.37944 2.29952 9.81807 2.29952C10.9107 2.29952 12.1148 2.59794 13.1587 3.09751C13.2244 2.87442 13.8022 0.892356 13.8652 0.679753C12.6973 0.234529 11.3187 0 9.74754 0Z" fill="white"/>
<path d="M15.7196 3.40747H18.308L17.2174 8.53183H22.4304L23.5211 3.40747H26.1095L23.4105 16.0902H20.8221L22.0052 10.5301H16.7922L15.609 16.0902H13.0206L15.7196 3.40747Z" fill="white"/>
<path d="M28.3154 3.40747H35.9128L35.5247 5.40573H30.4776L29.8121 8.53183H34.3235L33.9164 10.5301H29.3869L28.63 14.0909H33.7315L33.2881 16.0902H25.5973L28.3154 3.40747Z" fill="white"/>
<path d="M39.6153 8.82169H40.5582C41.9444 8.82169 43.6271 8.40412 43.6271 6.73286C43.6271 5.40577 42.4621 5.40577 41.4076 5.40577H40.3351L39.6153 8.82169ZM38.1366 3.40749H41.1864C43.5718 3.40749 46.3261 3.37221 46.3261 6.40585C46.3261 8.58526 44.6615 9.74837 42.5555 9.7846V9.82179C43.2572 9.85708 43.7005 10.2937 43.8683 10.9849L45.1058 16.0902H42.3877L41.7594 13.11C41.4639 11.7657 41.5372 10.8209 40.133 10.8209H39.1519L38.0251 16.0902H35.4376L38.1366 3.40749Z" fill="white"/>
<path d="M47.8143 3.40747H50.4027L50.7908 13.128H50.828L55.1172 3.40747H58.5922L58.6476 13.128H58.6856L63.2504 3.40747H65.9322L59.7744 16.0902H56.5386L56.4098 5.95107H56.3735L51.8259 16.0902H48.6273L47.8143 3.40747Z" fill="white"/>
<path d="M67.3539 3.40747H70.0539L67.3368 16.0902H64.6368L67.3539 3.40747Z" fill="white"/>
<path d="M72.4394 3.40747H75.7123L78.4656 13.0375H78.5037L80.6116 3.40747H83.0522L80.2598 16.0902H76.9326L74.2336 6.36959H74.1955L72.1448 16.0902H69.667L72.4394 3.40747Z" fill="white"/>
<path d="M84.8418 33.9768C85.0467 33.9768 85.185 33.9425 85.185 33.7136C85.185 33.5107 84.9676 33.4859 84.7989 33.4859H84.4967V33.9768L84.8418 33.9768ZM84.0696 33.1579H84.8179C85.3251 33.1579 85.6131 33.3066 85.6131 33.7527C85.6131 34.115 85.3928 34.2599 85.0858 34.2838L85.6131 35.1475H85.1745L84.7007 34.3038H84.4966V35.1475H84.0695L84.0696 33.1579ZM84.7884 35.5537C85.4968 35.5537 86.0631 34.9874 86.0631 34.1598C86.0631 33.3361 85.4968 32.766 84.7884 32.766C84.0696 32.766 83.5138 33.3361 83.5138 34.1598C83.5138 34.9874 84.0696 35.5537 84.7884 35.5537ZM84.7884 32.3704C85.7752 32.3704 86.5788 33.1731 86.5788 34.1598C86.5788 35.1475 85.7752 35.9503 84.7884 35.9503C83.8007 35.9503 82.9989 35.1475 82.9989 34.1598C82.9989 33.1731 83.8007 32.3704 84.7884 32.3704Z" fill="white"/>
<path d="M13.6047 32.2333L13.3663 32.1932C13.3663 32.1932 13.3023 20.0711 13.3014 19.8728H9.33535C9.28375 19.9967 4.2577 32.2314 4.2577 32.2314L4.01844 32.1971C4.01844 32.1971 3.56748 20.0645 3.55987 19.8728H0.686401C0.697932 20.0826 1.63118 35.6884 1.64263 35.8762H5.28452C5.33612 35.7522 10.6691 22.9827 10.6691 22.9827L10.9084 23.0209C10.9084 23.0209 11.058 35.6779 11.0609 35.8762H14.7438C14.7971 35.7588 21.8502 20.1522 21.9761 19.8728H19.0111C18.9577 19.993 13.6045 32.2333 13.6045 32.2333" fill="white"/>
<path d="M21.9597 23.0994H24.4738L21.9426 35.783H19.4294L21.9597 23.0994Z" fill="white"/>
<path d="M26.7078 23.0994H29.1179L26.9661 33.7848H31.6815L31.2697 35.783H24.1594L26.7078 23.0994Z" fill="white"/>
<path d="M35.3144 23.0994H37.7245L35.5728 33.7848H40.2891L39.8763 35.783H32.767L35.3144 23.0994Z" fill="white"/>
<path d="M43.8007 23.0994H46.3138L43.7835 35.783H41.2714L43.8007 23.0994Z" fill="white"/>
<path d="M50.3068 30.8765H54.025L53.268 25.3536H53.1982L50.3068 30.8765ZM52.3222 23.0999H54.9898L57.1749 35.7835H54.7667L54.352 32.8748H49.2391L47.7079 35.7835H45.0394L52.3222 23.0999Z" fill="white"/>
<path d="M61.02 23.0994H64.9965L65.805 32.2393H65.8401L70.5736 23.0994H74.5854L72.0199 35.783H69.4715L71.7434 25.2807H71.7091L66.2702 35.783H63.9629L62.9991 25.2807H62.9648L60.7625 35.783H58.4716L61.02 23.0994Z" fill="white"/>
<path d="M82.5764 25.5349C81.869 25.1535 80.9585 24.8808 80.0795 24.8808C79.2205 24.8808 78.066 25.2441 78.066 26.3338C78.066 28.3702 82.1626 28.2415 82.1626 31.768C82.1626 34.8741 79.8564 36 77.2213 36C76.0696 36 74.8817 35.7102 73.7977 35.2926L74.4174 33.1294C75.346 33.5832 76.327 34.0018 77.3595 34.0018C78.514 34.0018 79.6495 33.384 79.6495 32.0216C79.6495 29.7316 75.5538 30.0958 75.5538 26.7151C75.5538 24.0447 77.7218 22.8826 80.028 22.8826C81.0796 22.8826 82.1626 23.0265 83.1436 23.4451L82.5764 25.5349Z" fill="white"/>
</svg>
