<svg width="69" height="36" viewBox="0 0 69 36" fill="none" xmlns="http://www.w3.org/2000/svg">
<path d="M35.1677 35.6246C35.1697 35.6482 35.1388 35.8053 35.0698 35.8738C35.0003 35.9429 34.8984 35.9683 34.8 35.9877C34.6391 36.0196 34.4802 35.9889 34.3522 35.9016C34.247 35.8301 34.1815 35.7298 34.1736 35.6323L34.1729 35.627L34.1723 35.6276L32.9766 32.1275C32.3069 30.3326 31.2945 28.4072 29.3306 26.7034C26.9583 24.6457 23.4614 23.2222 18.6395 22.3543C14.4367 21.5975 11.6705 20.9462 9.66992 20.2442C7.7494 19.5706 6.61681 18.8691 5.50711 18.0243C2.67861 15.8699 0.706883 13.1232 0.578857 9.66333C0.578857 9.66333 3.39299 13.2395 6.48608 11.5315C7.94827 10.7244 8.99949 10.8395 8.99949 10.8395C8.04813 9.89544 7.34626 8.66256 7.15849 7.32176C7.00885 6.24955 7.10657 5.0593 7.44868 3.78455C8.03106 1.61478 9.72696 0.0247088 9.74346 0C9.74346 0 9.07631 5.21229 11.8478 7.06148C13.5569 7.92642 15.3106 7.57755 15.3106 7.57755C15.3106 7.57755 13.0092 6.61928 12.6869 3.54322C12.5458 2.19115 12.7677 1.12777 12.8267 0.856232C12.8267 0.856232 15.8648 4.71286 18.9086 3.1288C19.5894 2.77456 23.1817 1.10486 24.7305 0.734608C27.0042 0.192037 29.2543 0.15363 31.4184 0.621305C33.2149 1.00922 34.9685 1.74844 36.6317 2.8177C39.5962 4.72413 41.516 7.19923 42.2035 8.17517C42.2035 8.17517 48.1699 7.93896 51.4351 11.6918L51.4397 11.6977L58.9917 14.6952L58.1355 15.1876L58.0981 15.2095L58.1368 15.2314C60.5807 16.6283 64.8563 19.104 66.0204 19.9968L66.023 19.9991L66.027 20.0008L68.1905 20.9261L67.7959 21.8678V21.8685C67.7696 21.9316 67.1826 23.4414 68.2903 24.1883L68.8471 24.5638L68.8589 24.5721L68.8536 24.5839L67.153 28.6347L66.7223 28.1145C64.35 25.1742 62.1079 24.6311 60.9811 24.6104C59.706 24.5862 59.6161 25.1972 59.7743 25.4606C60.2871 26.3126 63.1451 26.7542 64.2042 26.8511C64.2035 26.8511 64.9048 26.9331 64.9251 26.9354L62.172 29.1536L57.1806 28.8714L57.1603 28.8703L57.1622 28.852L57.2463 27.9705V27.9652C57.2207 27.7981 56.8833 26.293 52.8019 24.7822L52.7901 24.7786L52.7782 24.7833C52.0842 25.0715 50.6601 25.5686 48.9149 25.653C46.8106 25.7552 44.8579 25.2445 43.1106 24.1362L43.0988 24.1296L43.0843 24.1326C42.3837 24.3475 41.0016 24.8329 39.6203 25.686C37.0563 27.2714 35.6572 29.3444 35.4621 31.8483C35.4621 31.8483 35.2375 33.9118 35.168 35.6251" fill="white"/>
<path d="M18.8924 7.79856C24.4507 6.26354 28.2126 6.50269 29.4969 8.46801C24.7777 8.95335 20.0584 10.1577 15.4706 12.0493C13.1721 11.9087 11.0605 11.0651 9.8211 9.79051C8.25848 8.18354 7.74254 5.78831 8.81994 2.76731C8.89676 5.37326 9.73973 6.9029 11.1382 7.76425C12.7789 8.77501 15.3151 8.78564 18.8925 7.79844L18.8924 7.79856ZM36.1685 3.70893C38.0731 4.99059 39.8609 6.75593 41.342 8.81752C38.4526 8.33755 35.489 8.14807 32.5332 8.25485C31.6593 6.6827 30.1801 5.53022 28.5717 5.17072C26.7866 4.77218 24.4985 5.07982 21.7705 6.0852C19.321 6.98791 17.3672 7.08764 15.9627 6.38222C15.1775 5.98791 14.5656 5.34317 14.1422 4.46697C13.8028 3.76501 13.663 3.07841 13.592 2.69932L13.6261 2.73056C14.3707 3.42484 16.3488 5.26917 19.4076 3.84348C20.5709 3.30091 23.6777 1.92951 25.0518 1.59703C27.1731 1.08403 29.2766 1.07213 31.2994 1.54326C32.9743 1.93348 34.6123 2.66207 36.1684 3.7088L36.1685 3.70893ZM2.42566 12.1998C2.42566 12.1998 4.10506 13.6386 6.93086 12.3368C10.1079 10.8732 10.6496 12.4891 13.3032 13.2431C3.71715 18.1964 2.42566 12.1999 2.42566 12.1999V12.1998Z" fill="white"/>
<path d="M66.3654 22.5678C66.3727 21.9036 66.5703 21.3629 66.6117 21.2589L65.3242 20.7181L65.3189 20.717L65.3163 20.7134C64.5213 19.94 55.912 15.0711 55.8254 15.0215L55.7926 15.0032L55.8247 14.9849L56.4608 14.6035L50.6262 12.3813L50.6196 12.3783L50.6151 12.3729C48.2469 9.18781 43.5797 9.06093 42.6835 9.06682C44.4613 9.561 45.0043 10.0475 45.1416 10.3715C45.2329 10.5881 45.1416 10.7233 45.1376 10.7287L45.1278 10.7429L45.1107 10.7388C24.9792 5.80436 8.51061 17.1575 7.82056 17.6427C8.61104 18.36 10.3876 19.3265 16.7738 20.6018C18.1991 19.6005 24.9923 15.257 35.2455 15.5126L33.5819 13.2526C33.5819 13.2526 39.9327 14.7368 43.558 16.5481C43.2784 18.9616 44.9407 21.2877 47.622 21.9997C49.5444 22.5097 51.5265 22.0693 52.9458 20.983L57.5015 23.5973L53.1309 22.0724C51.2723 23.2814 48.8187 23.7024 46.4703 23.0158C43.5644 22.1674 41.6375 19.8614 41.3638 17.2896C31.5255 15.068 24.2715 20.6624 22.8218 21.894C23.9937 22.2275 25.0751 22.6066 26.0559 23.0287C27.2508 23.5435 28.3269 24.1345 29.2703 24.7946C29.9991 23.9952 32.9042 21.2493 38.4756 21.208C38.4756 21.208 33.0054 22.4808 31.2615 26.4877C32.8109 28.1012 33.6087 29.8062 34.2219 31.4345C34.361 29.887 34.9112 28.4666 35.8639 27.2121C36.6431 26.1872 37.6891 25.2697 38.9732 24.4857C41.1594 23.1507 43.3077 22.6596 43.3293 22.6549L43.3411 22.6519L43.3504 22.659C47.7833 25.8719 52.6628 23.342 52.7113 23.3155L52.7211 23.3108L52.7329 23.3144C54.0972 23.7831 55.25 24.3086 56.1567 24.8772C56.8835 25.3311 57.456 25.8147 57.8585 26.3123C58.4828 27.0851 58.5006 27.6407 58.4966 27.7564L61.8022 27.9513L62.7719 27.2068C59.7676 26.8567 58.8569 26.0172 58.6711 25.2981C58.3481 23.563 60.3177 23.3493 61.2153 23.4543C63.3076 23.6998 65.8518 25.3854 66.8097 26.5579L67.5188 24.8458C66.5536 24.1863 66.358 23.2429 66.3653 22.5675" fill="white"/>
<path d="M54.7099 15.6006C54.6527 15.9472 54.3067 16.2004 53.9116 16.1727C53.4993 16.145 53.1901 15.8209 53.2215 15.4495C53.2373 15.2754 53.3252 15.1213 53.4565 15.0103C51.2467 14.035 50.0905 13.8867 50.0905 13.8867C52.7672 15.4843 53.9096 16.8168 53.9096 16.8168L54.6331 16.3728L61.4013 19.7699C58.7088 17.7951 56.4681 16.4778 54.7099 15.6006Z" fill="white"/>
<path d="M53.2215 15.4494C53.1899 15.8208 53.4991 16.1448 53.9115 16.1726C54.3067 16.2004 54.6528 15.947 54.7098 15.6005C54.6034 15.5473 54.4984 15.4954 54.3947 15.4458L53.6562 15.9335L53.8617 15.1931C53.7232 15.1287 53.5879 15.0679 53.4566 15.01C53.3253 15.121 53.2372 15.2752 53.2216 15.4493" fill="white"/>
<path d="M53.6561 15.9335L54.3947 15.4458C54.2115 15.3561 54.0337 15.2722 53.8616 15.1931L53.656 15.9335" fill="white"/>
<path d="M65.4133 21.4007C63.8199 21.974 65.8735 23.6169 65.8735 23.6169C61.4077 20.4471 65.4133 21.4007 65.4133 21.4007Z" fill="white"/>
<path d="M45.9871 11.0487C48.8745 11.1012 46.0087 9.99951 46.0087 9.99951C46.0087 9.99951 48.0872 10.2864 49.2967 12.0204C48.1555 11.6248 46.9076 11.2522 45.9871 11.0487Z" fill="white"/>
</svg>
