<svg width="113" height="36" viewBox="0 0 113 36" fill="none" xmlns="http://www.w3.org/2000/svg">
<path d="M111.441 24.6062C111.251 24.6062 111.078 24.7297 110.989 24.9878C109.845 28.2713 108.299 30.2245 107.027 30.2245C106.296 30.2245 106 29.4051 106 28.1197C106 24.9036 107.914 18.0842 108.88 14.9747C108.991 14.5987 109.064 14.2619 109.064 13.9757C109.064 13.072 108.573 12.6286 107.356 12.6286C106.045 12.6286 104.633 13.145 103.261 15.5641C102.786 13.4312 101.352 12.4995 99.349 12.4995C97.0333 12.4995 94.7957 13.9981 92.9543 16.4284C91.1129 18.8587 88.9478 19.6558 87.3185 19.2629C88.4903 16.3779 88.9255 14.2226 88.9255 12.623C88.9255 10.1141 87.6923 8.59869 85.7003 8.59869C82.6703 8.59869 80.9238 11.5061 80.9238 14.565C80.9238 16.928 81.9896 19.3583 84.3332 20.5369C82.369 25.0047 79.5009 29.0458 78.4128 29.0458C77.0066 29.0458 76.5937 22.1253 76.6718 17.1749C76.7221 14.3349 76.9564 14.189 76.9564 13.3302C76.9564 12.8363 76.6384 12.4995 75.3605 12.4995C72.3808 12.4995 71.4601 15.0365 71.3206 17.9495C71.2756 19.0565 71.1033 20.1545 70.8073 21.2217C69.5629 25.6894 66.9961 29.0795 65.3221 29.0795C64.5465 29.0795 64.3345 28.2993 64.3345 27.2778C64.3345 24.0617 66.1256 20.043 66.1256 16.6137C66.1256 14.0935 65.0264 12.4995 62.9562 12.4995C60.5177 12.4995 57.2925 15.4181 54.2402 20.8849C55.2446 16.6978 55.6576 12.6455 52.6834 12.6455C52.0382 12.6551 51.4048 12.8207 50.8364 13.1282C50.6457 13.2179 50.4861 13.3633 50.3787 13.5455C50.2712 13.7277 50.2207 13.9382 50.2338 14.1497C50.5184 18.6062 46.6626 30.0224 43.0077 30.0224C42.3437 30.0224 42.0201 29.2984 42.0201 28.131C42.0201 24.9093 43.9284 18.1066 44.8882 14.9916C45.0109 14.5875 45.0779 14.2395 45.0779 13.9364C45.0779 13.0833 44.5534 12.6455 43.3648 12.6455C42.0591 12.6455 40.6418 13.145 39.2747 15.5641C38.7948 13.4312 37.3607 12.4995 35.3575 12.4995C32.0709 12.4995 28.3993 15.9963 26.7867 20.5538C24.6272 26.638 20.2748 32.5145 14.4158 32.5145C9.09805 32.5145 6.29131 28.0636 6.29131 21.0309C6.29131 10.8775 13.7016 2.58185 19.1979 2.58185C21.826 2.58185 23.0815 4.26567 23.0815 6.84752C23.0815 9.97381 21.3462 11.4275 21.3462 12.6174C21.3462 12.9822 21.6475 13.3414 22.2445 13.3414C24.6328 13.3414 27.4451 10.5182 27.4451 6.66791C27.4451 2.81759 24.337 0 18.8407 0C9.75649 0 0.616455 9.19364 0.616455 20.9747C0.616455 30.348 5.21438 36 13.1659 36C18.5896 36 23.3271 31.7568 25.8827 26.8064C26.1728 30.9093 28.0254 33.0533 30.8489 33.0533C33.3599 33.0533 35.391 31.5491 36.9423 28.9055C37.5393 31.6726 39.124 33.0253 41.183 33.0253C43.5434 33.0253 45.5187 31.521 47.3992 28.7259C47.3713 30.9205 47.8679 32.986 49.7595 32.986C50.6523 32.986 51.7181 32.7783 51.9078 31.9925C53.8999 23.7081 58.8214 16.9448 60.328 16.9448C60.7744 16.9448 60.8972 17.377 60.8972 17.8877C60.8972 20.1384 59.318 24.7521 59.318 27.6988C59.318 30.8812 60.6628 32.986 63.4417 32.986C66.5218 32.986 69.6522 29.1918 71.7391 23.6464C72.392 28.8269 73.8037 33.0084 76.0134 33.0084C78.7253 33.0084 83.5408 27.2666 86.4592 21.188C87.6031 21.334 89.3217 21.2947 90.9734 20.1216C90.2703 21.9121 89.8574 23.8709 89.8574 25.8297C89.8574 31.4705 92.5358 33.0533 94.8403 33.0533C97.3457 33.0533 99.3769 31.5491 100.934 28.9055C101.447 31.2909 102.758 33.0196 105.169 33.0196C108.941 33.0196 112.216 29.1413 112.216 25.9588C112.216 25.1169 111.859 24.6062 111.441 24.6062ZM33.1479 29.927C31.6245 29.927 31.0274 28.3835 31.0274 26.0823C31.0274 22.0861 33.7449 15.4125 36.6186 15.4125C37.8741 15.4125 38.3484 16.8999 38.3484 18.7184C38.3484 22.7764 35.7649 29.927 33.1479 29.927ZM85.3264 18C84.4169 16.9111 84.0877 15.4294 84.0877 14.1104C84.0877 12.4827 84.6791 11.1076 85.3878 11.1076C86.0965 11.1076 86.3141 11.8092 86.3141 12.7858C86.3141 14.4191 85.7338 16.8045 85.3264 18ZM97.1393 29.927C95.6159 29.927 95.0189 28.1534 95.0189 26.0823C95.0189 22.2264 97.7363 15.4125 100.632 15.4125C101.888 15.4125 102.334 16.8887 102.334 18.7184C102.334 22.7764 99.7954 29.927 97.1393 29.927Z" fill="white"/>
</svg>
