<svg width="1706" height="613" viewBox="0 0 1706 613" fill="none" xmlns="http://www.w3.org/2000/svg">
<path opacity="0.3" d="M1 1C124.021 162 264.968 213.5 894.021 213.5C1456.02 213.5 1622.02 192.5 1704.02 1" stroke="#C6DDFF" stroke-width="2"/>
<path opacity="0.3" d="M1704.02 611.5C1581 450.5 1440.05 399 811 399C249 399 82.9998 420 0.999878 611.5" stroke="#C6DDFF" stroke-width="2"/>
<path opacity="0.3" d="M1704.02 492C1581 404.113 1440.06 376 811.011 376C249.017 376 83.0194 387.464 1.02051 492" stroke="#C6DDFF" stroke-width="2"/>
<path opacity="0.3" d="M1704.02 236C1581 280.701 1440.06 295 811.011 295C249.017 295 83.0194 289.169 1.02051 236" stroke="#C6DDFF" stroke-width="2"/>
<path opacity="0.3" d="M1705.02 409C1582 364.299 1441.06 350 812.011 350C250.017 350 84.0194 355.831 2.02051 409" stroke="#C6DDFF" stroke-width="2"/>
<path opacity="0.3" d="M1705.02 331C1582 328.727 1441.06 328 812.011 328C250.017 328 84.0194 328.296 2.02051 331" stroke="#C6DDFF" stroke-width="2"/>
<path opacity="0.3" d="M1.02051 136C124.04 223.887 264.985 252 894.03 252C1456.02 252 1622.02 240.536 1704.02 136" stroke="#C6DDFF" stroke-width="2"/>
</svg>
