<svg width="123" height="36" viewBox="0 0 123 36" fill="none" xmlns="http://www.w3.org/2000/svg">
<path d="M28.3972 19.2073C28.8101 19.0216 29.2643 18.7986 29.6772 18.6128C29.8423 18.5385 30.4203 18.3527 30.5029 18.204C30.5442 18.1297 30.5029 17.9068 30.5029 17.7953V16.9035V10.5492V4.34354V3.52603C30.5029 3.48887 30.5442 3.22875 30.5029 3.19159C30.4616 3.15443 30.1313 3.19159 30.09 3.19159H29.1817C28.8514 3.19159 28.8927 3.22875 28.6862 3.45171C27.9018 4.3807 27.1173 5.30968 26.3328 6.27583C25.9612 6.72175 25.5896 7.1305 25.2593 7.57642C25.0116 7.87369 25.0116 7.91085 24.5574 7.91085L24.6813 5.45832C24.7225 4.86377 24.7225 4.26922 24.7638 3.67466C24.7638 3.45171 24.8051 3.22875 24.8051 3.00579C24.8051 2.93147 24.7638 2.70852 24.8051 2.67136C24.8877 2.55988 25.6309 2.6342 25.8373 2.6342H41.2792C41.3618 2.6342 41.7334 2.59704 41.8159 2.6342C41.8985 2.67136 41.8572 2.89431 41.8572 3.00579C41.8985 3.48887 41.8985 4.0091 41.9398 4.49217C41.9811 5.5698 42.0224 6.61027 42.1049 7.68789V7.91085C41.8985 7.91085 41.7334 7.94801 41.5682 7.83653C41.403 7.72505 41.2792 7.5021 41.1553 7.35346C40.6599 6.75891 40.1644 6.12719 39.6276 5.53264L38.1413 3.74898C38.0587 3.63751 37.9348 3.37739 37.7697 3.30307C37.6458 3.22875 37.3981 3.26591 37.2329 3.26591H36.5723C36.4897 3.26591 36.1594 3.22875 36.0769 3.26591C36.0356 3.30307 36.0769 3.30307 36.0356 3.37739C35.953 3.67466 36.0356 4.04626 36.0356 4.34354V17.2751C36.0356 17.5352 35.953 17.9068 36.0356 18.1669C36.1181 18.427 36.7788 18.6128 37.0678 18.7243C37.3568 18.8729 37.8522 18.9844 38.1 19.2073C38.1826 19.2817 38.2651 19.6533 38.1826 19.7647C38.1413 19.8019 37.9348 19.7647 37.8935 19.7647H28.8101C28.7275 19.7647 28.4385 19.8019 28.3972 19.7647C28.3559 19.6161 28.3972 19.3188 28.3972 19.2073ZM43.7152 18.5385V13.1132V4.23206V2.78284C43.7152 2.55988 43.7978 2.22544 43.7152 2.00249C43.6326 1.74237 43.1372 1.70521 42.8481 1.59373C42.683 1.55657 42.1462 1.44509 42.0637 1.29645V0.999179H42.1875C42.3527 0.92486 42.683 0.92486 42.8894 0.8877C43.261 0.813381 43.6326 0.776221 43.9629 0.701902C44.7887 0.553264 45.6558 0.404626 46.4815 0.293147C46.977 0.218828 47.4724 0.10735 47.9679 0.0330307C48.0918 0.0330307 48.5872 -0.0412884 48.6285 0.0330307C48.6698 0.0701902 48.6285 0.218828 48.6285 0.255988V7.94801C50.1975 6.53595 52.9225 5.7556 55.1108 6.23867C57.0101 6.64743 57.6294 8.24529 57.6294 9.88031C57.6707 11.9612 57.6294 14.005 57.6294 16.0859V17.7581C57.6294 17.9439 57.5468 18.3898 57.6294 18.5756C57.6707 18.65 57.8358 18.6871 57.9184 18.7614C58.2074 18.9101 58.5377 19.0587 58.8267 19.2073C58.868 19.2445 58.9919 19.2817 58.9919 19.3188C59.0332 19.356 59.0332 19.6904 58.9919 19.7276C58.9506 19.8019 58.9506 19.7647 58.8267 19.7647C58.3726 19.8391 57.8771 19.7647 57.4642 19.7647H51.5187C51.4774 19.7647 51.271 19.8019 51.2297 19.7647C51.1884 19.7276 51.1884 19.3188 51.2297 19.2817C51.3535 19.133 51.849 18.9844 52.0142 18.8729C52.138 18.7986 52.5096 18.6871 52.5922 18.5756C52.6748 18.4642 52.5922 18.0554 52.5922 17.9439V16.4204C52.5922 14.2651 52.6335 12.0727 52.5922 9.91747C52.5922 9.28576 52.4683 8.54256 51.7664 8.20813C51.3948 8.02233 50.8994 7.98517 50.4865 7.98517C50.1562 7.98517 49.8259 8.05949 49.5369 8.13381C49.2891 8.20813 48.835 8.35677 48.6698 8.54256C48.5459 8.6912 48.6285 8.91416 48.6285 9.09996V17.8696C48.6285 18.0554 48.5459 18.427 48.6285 18.5756C48.6698 18.65 48.835 18.7243 48.9588 18.7614C49.2478 18.9101 49.6194 19.0587 49.9085 19.2073C49.9497 19.2445 50.0323 19.2445 50.0323 19.2817C50.0736 19.3188 50.0736 19.6533 50.0323 19.6904C49.991 19.7276 49.9497 19.7276 49.8672 19.7276C49.413 19.7647 48.9175 19.7276 48.4634 19.7276H42.5178C42.4765 19.7276 42.2701 19.7647 42.2288 19.7276C42.1875 19.6904 42.2288 19.3188 42.2701 19.2445C42.394 19.0959 42.8481 18.9472 43.0133 18.8729C43.3023 18.7614 43.5088 18.65 43.7152 18.5385ZM63.3272 13.4105C63.4098 15.0455 63.9878 16.8663 65.6393 17.7581C66.5064 18.204 67.5799 18.3527 68.5708 18.2784C69.7682 18.1669 70.7591 17.6466 71.7913 17.1636C71.7913 17.3122 71.8326 17.5723 71.7913 17.721C71.7087 17.8696 71.5023 18.0554 71.3784 18.1669C71.2133 18.3155 71.0068 18.5013 70.8004 18.65C70.0985 19.1702 69.314 19.5418 68.4882 19.8019C66.9193 20.285 65.1026 20.2478 63.4923 19.8762C62.2124 19.5789 61.0563 19.0216 60.1893 18.1297C59.3222 17.2379 58.8267 16.0859 58.6203 14.8968C58.1661 12.3328 58.7029 9.39723 61.0563 7.68789C63.1207 6.20151 66.4238 5.90424 68.8598 6.79607C71.8326 7.87369 72.328 10.9208 72.328 13.4476H64.442C64.0704 13.4105 63.6988 13.4105 63.3272 13.4105ZM63.2446 12.7788C64.0704 12.7416 64.8961 12.7044 65.7632 12.6301C66.2586 12.593 66.7954 12.593 67.2909 12.5558C67.3734 12.5558 67.5799 12.5558 67.6625 12.5186C67.7863 12.4443 67.7037 11.7011 67.7037 11.5525C67.6625 10.2147 67.6212 8.57972 66.7541 7.42778C66.1348 6.61027 65.1852 6.75891 64.6071 7.5021C63.4098 8.95132 63.2446 11.1066 63.2446 12.7788ZM0.734009 26.342C0.734009 24.261 1.18818 22.1058 2.46812 20.3593C3.70677 18.65 5.68861 17.5352 7.83561 16.9778C10.4368 16.3089 13.327 16.3832 16.0107 16.8291C16.5887 16.9406 17.1668 17.0521 17.7035 17.2007C17.7861 17.2379 18.1577 17.3122 18.199 17.3865V17.498C18.3229 17.9439 18.2403 18.5013 18.2403 18.9472C18.2816 20.0992 18.2816 21.2883 18.3229 22.4402C18.1577 22.4402 17.8687 22.4774 17.7448 22.4402C17.6622 22.4031 17.5797 22.2173 17.5384 22.143C17.2081 21.697 16.8778 21.2511 16.5887 20.768C15.8868 19.7647 15.1436 18.7614 14.4417 17.7581C14.0702 17.2007 13.0379 17.2007 12.3773 17.2007C11.6341 17.2007 10.8909 17.3122 10.2716 17.6466C8.86782 18.427 8.2072 19.9505 7.83561 21.3254C7.25757 23.5179 7.29886 25.8217 7.42272 28.0513C7.54659 29.7607 7.71174 31.5815 8.45493 33.1422C8.90911 34.1083 9.69358 34.963 10.8909 35.1859C11.2625 35.2603 11.6341 35.2603 12.047 35.2231C12.2948 35.186 13.1618 35.1488 13.2857 34.9258C13.327 34.8515 13.2857 34.6657 13.2857 34.5914V33.9597V30.0208V28.4972C13.2857 28.2371 13.3682 28.1256 13.1205 27.977C12.8315 27.8284 12.5012 27.6797 12.2122 27.4939C12.0057 27.3824 11.5928 27.271 11.469 27.1223C11.3864 27.048 11.3451 26.6393 11.4277 26.5649C11.469 26.4906 11.469 26.5278 11.5928 26.5278C11.9644 26.4535 12.4599 26.5278 12.8315 26.5278H19.2312C19.6441 26.5278 20.0983 26.4906 20.5111 26.5278H20.6763C20.7176 26.5649 20.7176 27.0852 20.6763 27.1595C20.5937 27.271 20.1808 27.4196 20.0157 27.4939C19.7267 27.6426 19.3964 27.7912 19.1073 27.977C18.777 28.1256 18.8183 28.1256 18.8183 28.4601V34.5171C18.8183 34.5914 18.8596 34.7772 18.8183 34.8515C18.7357 35.0373 17.8687 35.1488 17.621 35.2231C16.919 35.4089 16.1759 35.5575 15.4327 35.669C13.9876 35.892 12.5425 35.9663 11.0974 35.9291C8.78524 35.8548 6.34923 35.4089 4.44996 34.1455C2.79843 33.0679 1.72493 31.4328 1.22947 29.6492C0.857874 28.6087 0.734009 27.4568 0.734009 26.342ZM19.7679 22.9605C19.7679 22.8861 19.7267 22.5889 19.7679 22.5517C19.8092 22.5145 19.8505 22.5517 19.8918 22.5145C20.1395 22.4031 20.4698 22.4031 20.7589 22.3659C21.7085 22.2173 22.6581 22.0686 23.6491 21.92C24.3922 21.8085 25.1354 21.6599 25.8373 21.5856C26.0438 21.5484 26.2915 21.5484 26.4979 21.6227C26.7044 21.6599 26.6218 21.6227 26.6631 21.7714C26.7457 22.2173 26.6631 22.7375 26.6631 23.1834V30.9498C26.6631 31.8788 26.3741 33.5881 27.365 34.1455C27.8605 34.4428 28.5624 34.4428 29.1404 34.3313C29.5946 34.257 30.4616 33.9597 30.6268 33.5138C30.6681 33.4023 30.6268 33.2537 30.6268 33.1422V32.3618V27.1966V24.8184V24.0381C30.6268 23.9638 30.6681 23.7408 30.6268 23.6665C30.5029 23.555 30.09 23.4435 29.9662 23.4064C29.7184 23.3321 29.512 23.2206 29.2643 23.1463C29.1817 23.1091 28.8927 23.0719 28.8514 22.9976C28.8101 22.9605 28.8101 22.626 28.8514 22.5889C28.8927 22.5517 28.8927 22.5889 28.934 22.5517C29.1404 22.4402 29.512 22.4774 29.7184 22.4402C31.4113 22.1801 33.1454 21.8457 34.8795 21.6227C35.0859 21.5856 35.2924 21.5856 35.4988 21.6227C35.7053 21.6599 35.6227 21.5856 35.664 21.7714C35.7465 22.143 35.664 22.6632 35.664 23.0719V33.7739C35.664 33.8854 35.6227 34.0712 35.664 34.2198C35.7053 34.3313 35.664 34.2941 35.8704 34.3684C36.2833 34.5171 36.7375 34.7029 37.1503 34.8515C37.2742 34.8887 37.3155 34.8887 37.3568 34.963C37.3981 35.0373 37.3981 35.2974 37.3568 35.2974C37.2742 35.3717 36.8613 35.3346 36.7788 35.3717C35.8704 35.4832 34.9621 35.5575 34.0124 35.669C33.1867 35.7433 32.3609 35.8548 31.5764 35.9291C31.4113 35.9663 31.2461 35.9663 31.081 35.9291C30.9984 35.9291 30.7507 35.9291 30.7094 35.892C30.6681 35.8177 30.7094 35.5204 30.7094 35.4461V34.8144C30.7094 34.7029 30.7919 34.4056 30.7094 34.2941C30.6268 34.1826 30.4616 34.3313 30.3378 34.4056C30.0075 34.6657 29.6359 34.9258 29.2643 35.1116C27.9018 35.8548 26.2089 36.1893 24.64 35.892C23.4839 35.669 22.493 35.0745 21.9975 34.0712C21.6259 33.3651 21.5433 32.5848 21.5433 31.8416V27.4196V24.8928V24.0381C21.5433 23.9638 21.5846 23.7408 21.5433 23.6665C21.4608 23.555 20.9653 23.4435 20.8414 23.3692C20.4286 23.2206 20.0983 23.1091 19.7679 22.9605ZM58.7029 21.5484C58.7855 21.5484 59.1571 21.5484 59.1983 21.6227C59.2396 21.6599 59.1983 21.92 59.1983 21.9572V25.2272C59.1983 25.3387 59.1571 25.5245 59.1983 25.636V25.7103C59.3635 25.8589 59.4048 25.3758 59.4461 25.3387C59.8177 23.9638 60.5196 22.3659 62.0885 21.8085C62.3775 21.697 62.6666 21.6599 62.9556 21.6227C63.2033 21.6227 63.9052 21.5484 64.0291 21.7342C64.0704 21.8085 64.0291 21.9943 64.0291 22.0686V25.8589C63.0382 25.6731 61.9234 25.7103 60.9737 25.8961C60.5196 25.9704 60.1067 26.0819 59.6938 26.2677C59.4874 26.342 59.4461 26.3048 59.4048 26.4535C59.3635 26.6021 59.4048 26.8622 59.4048 27.0109V34.1826C59.4048 34.257 59.3635 34.3684 59.4048 34.4428C59.4874 34.5542 59.7764 34.6286 59.9002 34.6657C60.1067 34.7772 60.3544 34.8887 60.5609 35.0001C60.6434 35.0373 60.7673 35.0745 60.8086 35.1488C60.8499 35.1859 60.8499 35.6319 60.8086 35.669C60.7673 35.7062 60.5196 35.669 60.437 35.669H53.5831C53.3767 35.669 53.0051 35.7433 52.8399 35.669H52.7161C52.6748 35.6319 52.7161 35.2231 52.7161 35.1859C52.7986 34.963 53.3354 34.8144 53.5831 34.7029C53.7483 34.6286 54.0786 34.5171 54.1612 34.3684C54.2024 34.2941 54.1612 34.0712 54.1612 33.9968V33.2165V23.6665C54.1612 23.6293 54.2024 23.4435 54.1612 23.4064C54.1199 23.3692 53.9134 23.3321 53.8309 23.3321C53.5831 23.2577 53.3354 23.1834 53.0877 23.1463C52.8399 23.0719 52.2206 23.0348 52.427 22.6632C52.4683 22.5517 52.6335 22.5889 52.7986 22.5517C54.6153 22.2544 56.3907 21.9572 58.2074 21.6599C58.3726 21.5856 58.5377 21.5856 58.7029 21.5484ZM74.2686 21.8828V18.9101V18.0554C74.2686 17.9439 74.3099 17.721 74.2686 17.6095C74.2273 17.5352 74.0621 17.498 73.9383 17.4609C73.608 17.3494 73.2777 17.2379 72.9061 17.1264C72.6583 17.0521 72.5345 17.0893 72.5345 16.8291C72.5345 16.6062 72.4932 16.6805 72.6996 16.6433C73.1538 16.4947 73.6906 16.4947 74.1447 16.4204C75.5072 16.1974 76.8285 15.9745 78.191 15.7515C78.48 15.7144 78.769 15.64 79.058 15.6772C79.3884 15.7144 79.4296 15.64 79.4296 15.9002C79.4709 16.4947 79.4296 17.1264 79.4296 17.721V33.9968C79.4296 34.1455 79.3884 34.1455 79.5122 34.2198C79.7599 34.3684 80.1728 34.4428 80.4206 34.5171C80.5857 34.5542 81.0399 34.6286 81.1225 34.74C81.1637 34.7772 81.1637 35.186 81.1225 35.2231C81.0812 35.2603 80.8334 35.2603 80.7922 35.2603C80.2141 35.3346 79.6774 35.4089 79.0993 35.4461C77.8194 35.5947 76.5395 35.7433 75.2182 35.892C75.0118 35.9291 74.5163 36.0035 74.4337 35.8548C74.3512 35.7062 74.4337 35.2231 74.4337 35.0745C74.4337 34.963 74.5163 34.4799 74.4337 34.4056C74.3512 34.3313 73.4428 35.0745 73.319 35.1488C72.8235 35.4461 72.2868 35.669 71.7087 35.8177C70.8004 36.0406 69.7682 36.0406 68.8598 35.8548C64.8961 35.0373 64.0704 30.8011 64.4007 27.7169C64.5658 26.0819 65.1439 24.4468 66.3825 23.2577C67.5386 22.1801 69.1075 21.6227 70.7178 21.5112C71.9564 21.3998 73.1538 21.4741 74.2686 21.8828ZM74.2686 33.7367V24.5955V22.8861C74.2686 22.6632 74.2273 22.626 73.9383 22.4774C73.3602 22.1801 72.6171 22.0686 71.9977 22.2916C71.0481 22.626 70.5939 23.6293 70.3462 24.4468C69.8507 25.9332 69.8094 27.5311 69.8507 29.0918C69.892 30.4295 69.9333 32.0645 70.7591 33.2537C71.5023 34.2941 73.1951 34.5542 74.2686 33.7367ZM87.935 21.5484C88.1415 21.5856 88.3892 21.5112 88.4718 21.697C88.5131 21.8085 88.4718 22.0686 88.4718 22.1801V33.811C88.4718 33.9597 88.4305 34.1826 88.4718 34.3313C88.5131 34.4799 88.6782 34.5171 88.8434 34.5914C89.0911 34.7029 89.2976 34.8144 89.5453 34.9258C89.6279 34.963 89.8756 35.0373 89.9169 35.1488C89.9169 35.1859 89.9582 35.6319 89.9169 35.669H89.793C89.5453 35.7062 89.215 35.669 88.926 35.669H82.6501C82.485 35.669 82.0308 35.7433 81.9069 35.669C81.8244 35.6319 81.7831 35.1859 81.8656 35.1116C81.9482 35.0002 82.2373 34.9258 82.3611 34.8887C82.6088 34.7772 82.8566 34.6286 83.1043 34.5171C83.3107 34.4056 83.2695 34.4428 83.2695 34.2941C83.352 33.7367 83.2695 33.105 83.2695 32.5476V29.612V24.261C83.2695 24.1124 83.3107 23.8523 83.2695 23.7037C83.2282 23.555 83.0217 23.555 82.8566 23.4807C82.5676 23.3692 82.3198 23.2949 82.0308 23.1834C81.9482 23.1463 81.6179 23.1091 81.5353 22.9976C81.4941 22.9605 81.4941 22.5889 81.5353 22.5517C81.5766 22.5145 81.6592 22.5517 81.7005 22.5145C82.0308 22.4031 82.4024 22.4031 82.774 22.3287C83.3107 22.2544 83.8062 22.143 84.3429 22.0686C85.3752 21.92 86.3661 21.7342 87.3983 21.5856C87.6047 21.6227 87.7699 21.5856 87.935 21.5484ZM88.5131 18.0926C88.4305 20.3221 85.0861 21.2883 83.5585 19.5418C82.8566 18.7243 82.8153 17.6095 83.4346 16.7548C84.0539 15.9002 85.2513 15.5286 86.3661 15.7515C87.6047 15.9745 88.5131 16.9406 88.5131 18.0926ZM106.597 34.4056V25.4502V23.7408C106.597 23.7037 106.639 23.5179 106.597 23.4807C106.556 23.4064 106.308 23.3692 106.226 23.3692L105.483 23.1463C105.359 23.1091 105.028 23.0719 104.946 22.9605C104.863 22.8861 104.905 22.7003 104.905 22.5889C104.905 22.3659 104.987 22.4031 105.235 22.3659L107.96 21.92L110.685 21.4741C110.85 21.4369 110.974 21.3998 111.139 21.3998C111.222 21.3998 111.635 21.3998 111.717 21.4369C111.758 21.4741 111.717 21.697 111.717 21.7714V22.4774C111.717 22.5889 111.635 22.9233 111.717 23.0348C111.8 23.1834 111.965 23.0348 112.089 22.9233C112.46 22.6632 112.832 22.4402 113.245 22.2544C114.731 21.5112 116.507 21.1768 118.199 21.3998C119.355 21.5484 120.305 22.1058 120.718 23.1091C121.007 23.8151 121.048 24.5583 121.048 25.3015V33.7739C121.048 33.9225 121.007 34.1826 121.048 34.3313C121.09 34.4799 121.213 34.5171 121.42 34.5914C121.626 34.7029 121.874 34.8144 122.081 34.9258C122.163 34.963 122.452 35.0373 122.493 35.1488C122.535 35.2231 122.535 35.5947 122.493 35.6319C122.452 35.7062 122.535 35.6319 122.411 35.669C122.246 35.7433 121.874 35.669 121.668 35.669H115.763C115.516 35.669 114.566 35.7805 114.442 35.6319C114.401 35.5947 114.401 35.1859 114.442 35.1116C114.483 35.0373 114.731 34.963 114.814 34.9258C115.062 34.8144 115.268 34.7029 115.516 34.5914C115.598 34.5542 115.846 34.4799 115.887 34.4056C115.929 34.3313 115.887 34.1826 115.887 34.1083V33.2908V30.6896V25.6731C115.887 25.0786 115.929 24.4097 115.516 23.8895C115.185 23.4435 114.607 23.3321 114.029 23.2949C113.575 23.2949 113.162 23.3321 112.749 23.4435C112.543 23.5179 111.924 23.6665 111.8 23.8895C111.758 23.9638 111.8 24.1124 111.8 24.1867V33.811C111.8 33.9225 111.758 34.1826 111.8 34.2941C111.841 34.4428 112.089 34.4799 112.213 34.5542C112.419 34.6657 112.667 34.7772 112.873 34.8887C112.956 34.9258 113.121 35.0002 113.162 35.0373C113.204 35.0745 113.204 35.5204 113.162 35.5575C113.162 35.5947 113.121 35.5575 113.08 35.5575C112.915 35.6319 112.502 35.5575 112.336 35.5575H105.4C105.194 35.5575 105.152 35.5947 105.111 35.4832C105.07 35.4089 105.07 35.0745 105.111 35.0001C105.152 34.9258 105.4 34.8515 105.483 34.8144C105.895 34.7772 106.226 34.5914 106.597 34.4056ZM97.8443 27.5682C97.8443 26.6021 97.8855 25.5988 97.803 24.5955C97.6791 23.5179 97.3488 22.3288 95.9863 22.1058C95.5734 22.0315 94.8302 21.92 94.5412 22.2173C94.2522 22.4774 94.0457 22.849 93.798 23.1463L91.6923 25.7103C91.5684 25.8589 91.4445 26.1562 91.2794 26.2305C91.2381 26.2677 90.8252 26.2677 90.8252 26.2305C90.7839 26.1933 90.8252 25.9332 90.8252 25.8589V22.849C90.8252 22.7375 90.7839 22.5517 90.8252 22.4402C90.9078 22.2544 91.8161 22.143 92.0226 22.0686C93.1787 21.8085 94.376 21.6227 95.5734 21.5484C97.2662 21.4369 99.1655 21.4741 100.734 22.143C101.973 22.6632 102.758 23.5922 102.964 24.7813C103.088 25.3758 103.047 26.0447 103.047 26.6393V34.0712C103.047 34.1826 102.964 34.4799 103.047 34.5542C103.088 34.5914 103.294 34.6286 103.336 34.6286C103.666 34.7029 103.955 34.7772 104.285 34.8515C104.492 34.8887 104.533 34.8887 104.533 35.0745C104.533 35.2603 104.574 35.2603 104.327 35.3346C104.038 35.4461 103.748 35.5575 103.459 35.6319C101.932 36.0406 99.5371 36.1521 98.4223 34.8887C98.3397 34.7772 98.092 34.2941 97.9681 34.257C97.803 34.2198 97.3075 34.8144 97.1423 34.9258C96.4817 35.4461 95.6147 35.7433 94.7476 35.8548C93.1374 36.0406 91.4033 35.7433 90.4123 34.4799C89.5866 33.4023 89.4214 31.7301 90.0407 30.541C91.1555 28.2743 94.4586 28.0513 96.8533 27.6797C97.1423 27.6797 97.4727 27.6054 97.8443 27.5682ZM97.8443 33.7367V28.2371C96.6056 28.3114 95.3257 28.3858 94.8715 29.612C94.5412 30.4295 94.5412 31.3957 94.665 32.2503C94.7476 32.8449 94.9128 33.5881 95.5321 33.9597C96.1927 34.3684 97.3075 34.2941 97.8443 33.7367ZM45.5732 27.5682C45.5732 26.6021 45.6145 25.5988 45.5319 24.5955C45.408 23.5179 45.0777 22.3288 43.7152 22.1058C43.3023 22.0315 42.5591 21.92 42.2701 22.2173C41.9811 22.4774 41.7746 22.849 41.5269 23.1463L39.4212 25.7103C39.2973 25.8589 39.1735 26.1562 39.0083 26.2305C38.967 26.2677 38.5542 26.2677 38.5542 26.2305C38.5129 26.1933 38.5542 25.9332 38.5542 25.8589V22.8861C38.5542 22.7747 38.5129 22.5889 38.5542 22.4774C38.6367 22.2916 39.5038 22.1801 39.7515 22.1058C40.9076 21.8457 42.105 21.6599 43.261 21.5856C44.9538 21.4741 46.8531 21.5112 48.4221 22.1801C49.6607 22.7003 50.4452 23.6293 50.6516 24.8184C50.7755 25.413 50.7342 26.0819 50.7342 26.6764V34.1083C50.7342 34.2198 50.6516 34.5171 50.7342 34.5914C50.7755 34.6286 50.9819 34.6657 51.0232 34.6657C51.3535 34.74 51.6426 34.8144 51.9729 34.8887C52.1793 34.9258 52.2206 34.9258 52.2206 35.1116C52.2206 35.2974 52.2619 35.2974 52.0142 35.3717C51.7251 35.4832 51.4361 35.5947 51.1471 35.669C49.6194 36.0778 47.2247 36.1893 46.1099 34.9258C46.0273 34.8144 45.7796 34.3313 45.6558 34.2941C45.4906 34.257 44.9951 34.8515 44.8713 34.963C44.2107 35.4832 43.3436 35.7805 42.4765 35.892C40.8663 36.0778 39.1322 35.7805 38.1413 34.5171C37.3155 33.4395 37.1503 31.7673 37.7697 30.5782C38.8845 28.3114 42.1875 28.0885 44.541 27.7169C44.8713 27.6797 45.2016 27.6054 45.5732 27.5682ZM45.5732 33.7367V28.2371C44.3345 28.3114 43.0546 28.3858 42.6004 29.612C42.2701 30.4295 42.2701 31.3957 42.394 32.2503C42.4765 32.8449 42.6417 33.5881 43.261 33.9597C43.9216 34.3684 45.0364 34.2941 45.5732 33.7367Z" fill="white"/>
</svg>
