<svg width="274" height="36" viewBox="0 0 274 36" fill="none" xmlns="http://www.w3.org/2000/svg">
<path d="M142.387 4.45096L141.805 2.88004L142.387 0.130911L142.096 0L134.096 6.02189V6.1528L142.387 4.45096Z" fill="white"/>
<path d="M20.2046 32.9891C19.4855 33.6529 18.6259 34.1802 17.6765 34.54C16.7272 34.8997 15.7073 35.0846 14.6772 35.0837C8.27716 35.0837 6.67714 29.9782 6.67714 23.9563C6.67714 17.9344 8.1317 12.8289 14.5318 12.8289C15.5225 12.8072 16.5062 12.9839 17.4117 13.3461C18.3173 13.7083 19.1222 14.2471 19.7682 14.9234L23.4046 19.8981H23.6955V12.4361H23.4046L20.0591 14.0071C18.5146 12.8284 16.5568 12.1792 14.5318 12.1743C8.27716 12.1743 0.858887 16.4944 0.858887 24.0872C0.858887 31.68 8.13171 36.0001 14.6772 36.0001C16.8139 35.9865 18.8758 35.2906 20.4955 34.0364L23.6955 35.7383H23.9865V27.8836H23.6955L20.2046 32.9891Z" fill="white"/>
<path d="M44.0597 12.0437C37.9505 12.0437 30.6777 16.7565 30.6777 23.9566C30.6777 31.1567 37.9505 35.8695 44.0597 35.8695C50.1689 35.8695 57.4417 31.1567 57.4417 23.9566C57.4417 16.7565 50.3143 12.0437 44.0597 12.0437ZM44.0597 35.084C37.9505 35.084 36.3505 30.2403 36.3505 23.9566C36.3505 17.6729 37.9505 12.8292 44.0597 12.8292C50.1689 12.8292 51.7689 17.6729 51.7689 23.9566C51.7689 30.2403 50.3143 35.084 44.0597 35.084Z" fill="white"/>
<path d="M80.5682 13.0913H83.7682V27.4915H83.6228L72.2772 12.4368H62.0952V13.0913H65.1498V34.8225H62.0952V35.4771H69.368V34.8225H66.168V13.0913L84.4955 35.8698H84.7864V13.0913H87.841V12.4368H80.5682V13.0913Z" fill="white"/>
<path d="M104.86 12.4368H93.3687V13.0913H96.7142V34.8225H93.3687V35.4771H104.86C110.533 35.4771 119.987 33.2516 119.987 23.826C119.987 14.4004 110.533 12.4368 104.86 12.4368ZM104.569 34.8225H101.805V13.0913H104.569C111.26 13.0913 114.314 17.4114 114.314 23.9569C114.314 30.5024 111.26 34.8225 104.569 34.8225Z" fill="white"/>
<path d="M142.825 34.8225H133.225V23.4333H138.025C139.395 24.7481 140.524 26.2505 141.37 27.8842H141.661V18.3278H141.37C140.524 19.9615 139.395 21.4639 138.025 22.7787H133.225V13.0913H141.806C144.279 14.5313 146.461 18.5896 146.461 18.5896H146.752V12.4368H124.788V13.0913H128.134V34.8225H124.788V35.4771H147.479V27.7533H147.188C146.137 30.2937 144.666 32.6769 142.825 34.8225Z" fill="white"/>
<path d="M182.097 13.0913H185.297V27.4915H185.152L173.806 12.4368H163.479V13.0913H166.679V34.8225H163.479V35.4771H170.752V34.8225H167.697V13.0913L186.024 35.8698H186.17V13.0913H189.37V12.4368H182.097V13.0913Z" fill="white"/>
<path d="M205.806 11.6519H205.515L194.605 34.6921H191.551V35.3467H198.387V34.6921H195.478L199.406 26.4448H207.697L211.915 34.6921H208.569V35.3467H220.497V34.6921H217.442L205.806 11.6519ZM199.842 25.9211L203.624 17.9356L207.551 25.9211H199.842Z" fill="white"/>
<path d="M238.535 21.9932L233.444 20.4222C230.971 19.6368 228.935 18.5895 228.935 16.364C228.935 14.1385 231.117 12.6985 234.462 12.6985C235.297 12.6357 236.137 12.7445 236.918 13.0167C237.699 13.2888 238.401 13.7172 238.971 14.2694L242.608 19.244H242.899V11.913H242.608L239.262 13.484C237.933 12.4446 236.223 11.885 234.462 11.913C233.426 11.86 232.388 11.9959 231.412 12.3126C230.435 12.6292 229.54 13.1201 228.779 13.7558C228.018 14.3915 227.408 15.1589 226.985 16.012C226.562 16.8651 226.334 17.7863 226.317 18.7204C226.317 21.9932 228.935 23.695 231.698 24.6114L236.789 26.3132C239.553 27.2296 241.299 28.2769 241.299 30.6333C241.299 32.9897 239.553 34.9533 235.189 34.9533C233.07 34.8604 231.036 34.1739 229.371 32.9897L225.589 27.3605H225.153V35.3461H225.589L228.789 33.7751C230.553 34.9795 232.686 35.6652 234.899 35.7388C240.426 35.7388 244.062 32.2042 244.062 28.2769C244.062 24.3496 241.735 22.9095 238.535 21.9932Z" fill="white"/>
<path d="M250.025 12.4368V19.6369H250.316C251.559 17.3186 253.07 15.1246 254.825 13.0913H259.334V34.8225H255.261V35.4771H268.498V34.8225H264.425V13.0913H268.934C270.688 15.1246 272.2 17.3186 273.443 19.6369H273.734V12.5677H250.025V12.4368Z" fill="white"/>
</svg>
