<svg width="99" height="36" viewBox="0 0 99 36" fill="none" xmlns="http://www.w3.org/2000/svg">
<path d="M37.809 18.6878V23.122C38.5082 24.0878 39.7277 24.7317 41.2886 24.7317C43.6464 24.7317 45.2886 23.1512 45.2886 20.9415C45.2886 18.7756 43.5651 17.1951 41.2399 17.1951C39.7277 17.1805 38.5407 17.7659 37.809 18.6878ZM41.874 27.0146C40.248 27.0146 38.8496 26.5756 37.7764 25.6976V26.7659H34.7358V9H37.809V16.3902C38.8984 15.3366 40.3781 14.839 42.1016 14.839C45.5488 14.839 48.3618 17.3268 48.3618 20.9122C48.3781 24.439 45.4512 27.0146 41.874 27.0146ZM50.4431 9H53.5163V26.7659H50.4431V9ZM58.7195 19.5219H65.1423C64.7683 18.1171 63.6626 17.0927 61.9553 17.0927C60.3943 17.078 59.1423 17.9561 58.7195 19.5219ZM62.8171 27C58.5732 27 55.5488 24.5415 55.5488 20.9268C55.5488 17.3268 58.5732 14.839 61.9553 14.839C65.9228 14.839 68.1992 17.4 68.1992 20.9707V21.5561H58.622C58.9147 23.4732 60.4268 24.7171 63.0447 24.7171C64.7358 24.7171 66.687 24.1024 67.8415 23.2829V25.6683C66.7358 26.4293 64.8171 27 62.8171 27ZM73.4675 18.5854V26.7659H70.3943V15.0878H73.4187V16.3756C74.3293 15.4244 75.7602 14.8244 77.5 14.8244C80.687 14.8244 82.4594 16.7415 82.4594 19.5366V26.7659H79.3862V19.8585C79.3862 18.3512 78.3781 17.2537 76.6545 17.2537C75.2073 17.2537 74.1504 17.7951 73.4675 18.5854ZM91.5813 24.7024C93.0935 24.7024 94.2805 24.1171 95.0122 23.1951V18.761C94.313 17.7951 93.0935 17.1512 91.5325 17.1512C89.1748 17.1512 87.5325 18.7317 87.5325 20.9268C87.5325 23.122 89.2561 24.7024 91.5813 24.7024ZM95.061 25.4341C94.0041 26.4732 92.5244 27.0146 90.8171 27.0146C87.3049 27.0146 84.4431 24.5561 84.4431 20.9854C84.4431 17.4585 87.3537 14.8537 90.9472 14.8537C92.5407 14.8537 93.939 15.2634 94.996 16.1415V9.01463H98.0854V26.7805H95.061V25.4341ZM15.9553 14.0634L17.3049 13.1561C20.1667 11.2683 20.0529 8.97073 19.5488 7.60976C18.996 6.05854 17.4025 4.39024 14.6382 4.39024H0.524414V0H14.6382C19.0773 0 22.8171 2.45854 24.1829 6.24878C25.5488 10.0537 24.1179 14.0195 20.5407 16.361L20.0041 16.7122L15.9553 14.0634ZM18.0366 18L20.5244 19.639C24.1179 21.9805 25.5488 25.9463 24.1829 29.7512C22.8171 33.5561 19.061 36 14.6382 36H0.524414V31.6098H14.622C17.3862 31.6098 18.9797 29.9415 19.5325 28.3902C20.1017 26.839 19.8903 24.6585 17.6626 23.1951L13.8903 20.722L9.74393 18.0146L5.40246 15.1756V20.8537L7.74393 19.3171L11.8903 22.0244L4.39433 26.9268C3.66263 27.4098 2.67075 27.4829 1.85775 27.1024C1.04474 26.7219 0.524414 25.9756 0.524414 25.1415V10.8439C0.524414 10.0244 1.04474 9.26341 1.85775 8.89756C2.67075 8.51707 3.64637 8.59024 4.39433 9.07317L13.8903 15.278L18.0366 18Z" fill="white"/>
</svg>
