<svg width="186" height="36" viewBox="0 0 186 36" fill="none" xmlns="http://www.w3.org/2000/svg">
<path d="M25.3964 12.4621V23.5381L15.8059 29.0773V36.0001L31.3953 27.0006V8.99951L25.3964 12.4621Z" fill="white"/>
<path d="M15.8059 6.92508L25.3964 12.462L31.3953 8.99944L15.8059 0L0.216553 8.99944L6.21316 12.462L15.8059 6.92508Z" fill="white"/>
<path d="M9.80931 21.4638V32.5398L15.8059 36.0001V18.0012L0.216553 8.99951V15.9246L9.80931 21.4638Z" fill="white"/>
<path d="M52.7933 8.97461C49.4372 8.97461 47.8474 11.0943 47.8474 11.0943H47.6708L47.3198 9.32788H43.2549V27.3449H47.6708V16.9278C47.6708 14.6315 49.256 13.0418 51.5568 13.0418C53.8576 13.0418 55.4428 14.627 55.4428 16.9278V27.3449H59.8588V16.57C59.8588 11.9774 56.8559 8.97461 52.7933 8.97461Z" fill="white"/>
<path d="M100.417 21.1626H100.164L97.161 9.32788H92.668L89.6652 21.1626H89.4138L86.4087 9.32788H81.8162L86.4087 27.3449H91.7871L94.7877 15.6868H95.0413L98.0441 27.3449H103.42L108.013 9.32788H103.42L100.417 21.1626Z" fill="white"/>
<path d="M121.535 10.9175H121.358L121.005 9.33234H117.295V27.3471H121.711V16.93C121.711 14.6337 122.771 13.5739 125.067 13.5739H127.332V9.33008H124.705C124.09 9.33139 123.483 9.47545 122.933 9.75091C122.383 10.0264 121.904 10.4257 121.535 10.9175Z" fill="white"/>
<path d="M137.104 8.97461C131.807 8.97461 127.921 12.8606 127.921 18.3364C127.921 23.8121 131.587 27.6981 137.104 27.6981C141.572 27.6981 144.262 25.069 145.383 23.135L141.329 21.6902C140.928 22.4239 139.311 23.8348 137.104 23.8348C134.529 23.8348 132.69 22.2224 132.337 19.7585H145.759C145.883 19.1781 145.942 18.5857 145.935 17.9922C145.935 12.8606 142.049 8.97461 137.104 8.97461ZM132.337 16.7466C132.866 14.4504 134.456 12.684 137.104 12.684C139.579 12.684 141.166 14.4504 141.519 16.7466H132.337Z" fill="white"/>
<path d="M71.8677 8.97461C66.5686 8.97461 62.6826 12.8606 62.6826 18.3364C62.6826 23.8121 66.3422 27.6981 71.8677 27.6981C76.3358 27.6981 79.0238 25.069 80.1448 23.135L76.0912 21.6902C75.6904 22.4239 74.0757 23.8348 71.8677 23.8348C69.2929 23.8348 67.4518 22.2224 67.0985 19.7585H80.523C80.6471 19.1781 80.7063 18.5857 80.6996 17.9922C80.6996 12.8606 76.8136 8.97461 71.8677 8.97461ZM67.0985 16.7466C67.6285 14.4504 69.2182 12.684 71.8677 12.684C74.3407 12.684 75.9304 14.4504 76.2837 16.7466H67.0985Z" fill="white"/>
<path d="M161.373 2.21484H156.957V6.63077H161.373V2.21484Z" fill="white"/>
<path d="M173.559 23.6355C170.909 23.6355 168.79 21.5158 168.79 18.3364C168.79 15.1569 170.909 13.0373 173.559 13.0373C176.208 13.0373 177.268 14.8036 177.621 15.8635L181.621 14.4413C180.651 11.9254 178.274 8.97461 173.559 8.97461C168.26 8.97461 164.374 12.8606 164.374 18.3364C164.374 23.8121 168.26 27.6981 173.559 27.6981C178.314 27.6981 180.692 24.6998 181.643 22.0639L177.621 20.6327C177.268 21.8691 176.208 23.6355 173.559 23.6355Z" fill="white"/>
<path d="M146.425 6.13936H148.931V27.3449H153.347V2.21484H146.425V6.13936Z" fill="white"/>
<path d="M161.373 9.32788H156.957V27.3449H161.373V9.32788Z" fill="white"/>
<path d="M184.008 23.889C183.67 23.884 183.338 23.9797 183.055 24.1638C182.771 24.3479 182.549 24.6121 182.417 24.9228C182.284 25.2335 182.247 25.5766 182.309 25.9086C182.372 26.2406 182.532 26.5463 182.77 26.787C183.007 27.0277 183.31 27.1924 183.641 27.2601C183.972 27.3279 184.316 27.2956 184.628 27.1675C184.941 27.0394 185.209 26.8211 185.397 26.5406C185.585 26.26 185.686 25.9298 185.686 25.5919C185.693 25.3684 185.655 25.1457 185.573 24.9374C185.492 24.729 185.369 24.5395 185.212 24.3802C185.055 24.2209 184.867 24.0952 184.66 24.0107C184.453 23.9263 184.231 23.8848 184.008 23.889ZM184.008 27.0345C183.721 27.0394 183.44 26.959 183.199 26.8035C182.959 26.6481 182.77 26.4245 182.657 26.1614C182.544 25.8983 182.512 25.6075 182.565 25.3261C182.618 25.0446 182.753 24.7853 182.954 24.581C183.154 24.3768 183.411 24.2369 183.692 24.1792C183.972 24.1215 184.264 24.1486 184.529 24.257C184.794 24.3654 185.021 24.5502 185.18 24.788C185.34 25.0257 185.425 25.3056 185.425 25.5919C185.432 25.7806 185.4 25.9686 185.331 26.1444C185.262 26.3202 185.158 26.4802 185.025 26.6144C184.893 26.7486 184.734 26.8543 184.559 26.925C184.384 26.9957 184.196 27.0298 184.008 27.0254V27.0345Z" fill="white"/>
<path d="M184.739 25.2773C184.739 25.1956 184.721 25.1149 184.689 25.0401C184.656 24.9653 184.608 24.8981 184.548 24.8425C184.488 24.7869 184.418 24.7441 184.341 24.7169C184.264 24.6896 184.182 24.6784 184.1 24.684H183.344V26.4594H183.604V25.8435H183.842L184.456 26.4594H184.78L184.166 25.8435C184.317 25.8435 184.462 25.7841 184.569 25.6781C184.676 25.5721 184.737 25.4281 184.739 25.2773ZM183.607 25.583V24.9444H184.1C184.148 24.9387 184.196 24.943 184.241 24.9571C184.287 24.9711 184.329 24.9946 184.365 25.026C184.401 25.0574 184.43 25.096 184.45 25.1393C184.47 25.1826 184.48 25.2296 184.481 25.2773C184.481 25.4653 184.361 25.583 184.1 25.583H183.607Z" fill="white"/>
</svg>
