<svg width="109" height="36" viewBox="0 0 109 36" fill="none" xmlns="http://www.w3.org/2000/svg">
<path d="M11.6227 25.5321C9.56859 25.5321 8.58126 23.9529 9.09687 22.1261C10.1614 18.3398 17.0015 12.7291 21.6628 12.7291C25.0619 12.7291 24.8032 15.7705 22.8105 18.3648L21.709 19.584C17.7583 23.4608 14.0959 25.5321 11.6227 25.5321ZM28.2831 0C22.3342 0.00231009 15.7832 3.64163 11.6689 7.08828L11.9937 7.55908C18.3797 3.08259 27.2408 0.171871 29.6835 4.53794C30.9734 6.8411 28.7839 11.4927 25.7004 15.169C26.4378 13.5455 25.9508 10.4282 21.6513 10.4282C14.5039 10.4282 0.433105 19.8964 0.433105 29.5863C0.433105 33.4677 3.12575 36 7.56112 36C19.4331 36 35.5336 16.5398 35.5336 6.76579C35.5336 3.31313 33.5473 0 28.2831 0Z" fill="white"/>
<path d="M43.5677 25.5322C42.8765 25.5322 42.3013 25.291 41.9414 24.8507C41.5662 24.3891 41.4544 23.7349 41.6323 23.0594C42.0273 21.5939 43.6069 20.4426 45.2314 20.4426H49.0523L47.687 25.5322H43.5677ZM54.5489 10.2745C53.4562 8.93092 51.6872 8.32983 50.4212 8.32983H43.478L42.2994 12.7255H48.8476L49.475 12.7915C49.4815 12.7915 50.0761 12.8608 50.4078 13.3072C50.6758 13.6805 50.7151 14.2349 50.5224 14.9621L50.2129 16.119H46.0871C42.536 16.119 37.5855 18.6666 36.4817 22.7813C35.9328 24.8331 36.4138 26.6105 37.4801 27.9166C38.5381 29.2131 40.535 29.9287 42.6921 29.9287H46.513H46.5107H51.367L53.6447 21.4225L55.3214 15.17C55.9798 12.7116 55.2664 11.15 54.5489 10.2745Z" fill="white"/>
<path d="M102.244 8.32983C100.365 8.32983 98.6198 8.88564 97.2004 9.93766C95.7673 10.9989 94.9767 12.2741 94.5055 14.033C93.483 17.8451 96.4788 19.6849 98.8859 20.9891C100.612 21.9243 102.106 22.7309 101.782 23.9257C101.554 24.7832 101.179 25.5335 99.0554 25.5335H92.5719L91.3956 29.9287H98.5722C100.496 29.9287 102.272 29.5282 103.703 28.4295C105.136 27.3271 105.945 25.7914 106.445 23.9169C106.926 22.1331 106.602 20.4292 105.454 19.1577C104.497 18.09 103.121 17.3484 101.908 16.6933C100.354 15.857 98.8882 15.0679 99.1441 14.1115C99.3008 13.5326 99.8751 12.7255 101.13 12.7255H107.437L108.616 8.32983H102.244Z" fill="white"/>
<path d="M64.6172 8.32983C62.7391 8.32983 60.994 8.88564 59.5742 9.93766C58.141 10.9989 57.3505 12.2741 56.8747 14.033C55.8545 17.8451 58.8526 19.6849 61.2592 20.9891C62.9867 21.9243 64.4762 22.7309 64.1561 23.9257C63.9255 24.7832 63.5527 25.5335 61.4288 25.5335H54.9462L53.7676 29.9287H60.9436C62.8703 29.9287 64.6458 29.5282 66.0767 28.4295C67.5112 27.3271 68.3188 25.7914 68.8192 23.9169C69.2979 22.1331 68.9735 20.4292 67.83 19.1577C66.8732 18.09 65.4945 17.3484 64.2794 16.6933C62.7275 15.857 61.2638 15.0679 61.5202 14.1115C61.6741 13.5326 62.2507 12.7255 63.5037 12.7255H69.807L70.9879 8.32983H64.6172Z" fill="white"/>
<path d="M74.4092 8.32983L68.7804 29.9287H73.536L79.1601 8.32983H74.4092Z" fill="white"/>
<path d="M91.8116 8.32983C83.4394 8.35987 79.0581 13.9355 77.6674 19.1295C76.0198 25.2882 79.2983 29.9292 85.2939 29.9292H89.3116L90.4879 25.534H86.4716C84.2276 25.534 81.1418 23.7682 82.3855 19.1295C83.3733 15.4426 86.9683 12.7259 90.9116 12.7259H93.4629L94.6415 8.3303H91.8116V8.32983Z" fill="white"/>
</svg>
