<svg width="500" height="350" viewBox="0 0 500 350" fill="none" xmlns="http://www.w3.org/2000/svg">
<g clip-path="url(#clip0_635_3051)">
<rect width="500" height="350" rx="8" fill="white"/>
<path d="M41.5953 34.4531C41.5291 33.8329 41.2497 33.3499 40.7573 33.0043C40.2696 32.6586 39.6351 32.4858 38.8539 32.4858C38.3046 32.4858 37.8335 32.5687 37.4405 32.7344C37.0475 32.9001 36.7469 33.125 36.5385 33.4091C36.3302 33.6932 36.2237 34.0175 36.2189 34.3821C36.2189 34.6851 36.2876 34.9479 36.4249 35.1705C36.5669 35.393 36.7587 35.5824 37.0002 35.7386C37.2417 35.8902 37.5092 36.018 37.8027 36.1222C38.0963 36.2263 38.3922 36.3139 38.6905 36.3849L40.0542 36.7259C40.6034 36.8537 41.1313 37.0265 41.638 37.2443C42.1493 37.4621 42.6062 37.7367 43.0087 38.0682C43.4159 38.3996 43.7379 38.7997 43.9746 39.2685C44.2114 39.7372 44.3297 40.2865 44.3297 40.9162C44.3297 41.7685 44.1119 42.5189 43.6763 43.1676C43.2407 43.8116 42.611 44.3158 41.7871 44.6804C40.968 45.0402 39.976 45.2202 38.8113 45.2202C37.6796 45.2202 36.6971 45.045 35.8638 44.6946C35.0352 44.3442 34.3865 43.8329 33.9178 43.1605C33.4538 42.4882 33.2028 41.669 33.165 40.7031H35.7573C35.7952 41.2098 35.9514 41.6312 36.226 41.9673C36.5007 42.3035 36.8581 42.5545 37.2985 42.7202C37.7435 42.8859 38.2407 42.9688 38.79 42.9688C39.3629 42.9688 39.8648 42.8835 40.2956 42.7131C40.7312 42.5379 41.0721 42.2964 41.3184 41.9886C41.5646 41.6761 41.69 41.3116 41.6948 40.8949C41.69 40.5161 41.5788 40.2036 41.361 39.9574C41.1432 39.7064 40.8378 39.4981 40.4448 39.3324C40.0565 39.1619 39.602 39.0104 39.0811 38.8778L37.4263 38.4517C36.2284 38.1439 35.2814 37.6776 34.5854 37.0526C33.8941 36.4228 33.5485 35.5871 33.5485 34.5455C33.5485 33.6884 33.7805 32.938 34.2445 32.294C34.7132 31.6501 35.3501 31.1506 36.155 30.7955C36.9599 30.4356 37.8714 30.2557 38.8894 30.2557C39.9216 30.2557 40.8259 30.4356 41.6025 30.7955C42.3837 31.1506 42.9969 31.6454 43.4419 32.2798C43.887 32.9096 44.1167 33.634 44.1309 34.4531H41.5953ZM51.3237 45.2131C50.2347 45.2131 49.2995 44.974 48.5183 44.4957C47.7418 44.0175 47.1428 43.357 46.7214 42.5142C46.3047 41.6667 46.0964 40.6913 46.0964 39.5881C46.0964 38.4801 46.3095 37.5024 46.7356 36.6548C47.1618 35.8026 47.7631 35.1397 48.5396 34.6662C49.3208 34.188 50.2441 33.9489 51.3095 33.9489C52.1949 33.9489 52.9785 34.1122 53.6603 34.4389C54.3469 34.7609 54.8938 35.2178 55.301 35.8097C55.7082 36.3968 55.9402 37.0833 55.997 37.8693H53.5396C53.4402 37.3437 53.2034 36.9058 52.8294 36.5554C52.46 36.2003 51.9653 36.0227 51.345 36.0227C50.8194 36.0227 50.3578 36.1648 49.96 36.4489C49.5623 36.7282 49.2522 37.1307 49.0297 37.6562C48.8118 38.1818 48.7029 38.8116 48.7029 39.5455C48.7029 40.2888 48.8118 40.928 49.0297 41.4631C49.2475 41.9934 49.5529 42.4029 49.9458 42.6918C50.3436 42.9759 50.81 43.1179 51.345 43.1179C51.7238 43.1179 52.0623 43.0469 52.3606 42.9048C52.6636 42.758 52.917 42.5473 53.1206 42.2727C53.3242 41.9981 53.4638 41.6643 53.5396 41.2713H55.997C55.9354 42.0431 55.7082 42.7273 55.3152 43.3239C54.9222 43.9157 54.3871 44.3797 53.71 44.7159C53.033 45.0473 52.2375 45.2131 51.3237 45.2131ZM60.6792 38.608V45H58.1081V30.4545H60.6223V35.9446H60.7502C61.0059 35.3291 61.4012 34.8437 61.9363 34.4886C62.476 34.1288 63.1626 33.9489 63.9959 33.9489C64.7535 33.9489 65.414 34.1075 65.9775 34.4247C66.5409 34.742 66.9765 35.206 67.2843 35.8168C67.5968 36.4276 67.753 37.1733 67.753 38.054V45H65.182V38.4517C65.182 37.7178 64.9926 37.1473 64.6138 36.7401C64.2398 36.3281 63.7142 36.1222 63.0371 36.1222C62.5826 36.1222 62.1754 36.2216 61.8155 36.4205C61.4604 36.6146 61.181 36.8963 60.9775 37.2656C60.7786 37.6349 60.6792 38.0824 60.6792 38.608ZM75.2033 45.2131C74.1096 45.2131 73.165 44.9858 72.3695 44.5312C71.5788 44.072 70.9703 43.4233 70.5442 42.5852C70.1181 41.7424 69.905 40.7505 69.905 39.6094C69.905 38.4872 70.1181 37.5024 70.5442 36.6548C70.9751 35.8026 71.5764 35.1397 72.3482 34.6662C73.12 34.188 74.0267 33.9489 75.0684 33.9489C75.7407 33.9489 76.3752 34.0578 76.9718 34.2756C77.5731 34.4886 78.1034 34.8201 78.5627 35.2699C79.0267 35.7197 79.3913 36.2926 79.6564 36.9886C79.9216 37.6799 80.0542 38.5038 80.0542 39.4602V40.2486H71.1124V38.5156H77.5897C77.5849 38.0232 77.4784 37.5852 77.2701 37.2017C77.0617 36.8134 76.7705 36.508 76.3965 36.2855C76.0272 36.063 75.5963 35.9517 75.1039 35.9517C74.5783 35.9517 74.1167 36.0795 73.7189 36.3352C73.3212 36.5862 73.0111 36.9176 72.7885 37.3295C72.5707 37.7367 72.4595 38.1842 72.4547 38.6719V40.1847C72.4547 40.8191 72.5707 41.3636 72.8027 41.8182C73.0347 42.268 73.3591 42.6136 73.7757 42.8551C74.1924 43.0919 74.6801 43.2102 75.2388 43.2102C75.6129 43.2102 75.9514 43.1581 76.2544 43.054C76.5575 42.9451 76.8203 42.7865 77.0428 42.5781C77.2653 42.3698 77.4334 42.1117 77.5471 41.804L79.9476 42.0739C79.7961 42.7083 79.5073 43.2623 79.0811 43.7358C78.6597 44.2045 78.12 44.5691 77.4618 44.8295C76.8037 45.0852 76.0508 45.2131 75.2033 45.2131ZM86.2775 45.1918C85.4205 45.1918 84.6535 44.9716 83.9764 44.5312C83.2993 44.0909 82.7643 43.4517 82.3713 42.6136C81.9783 41.7756 81.7818 40.7576 81.7818 39.5597C81.7818 38.3475 81.9806 37.3248 82.3784 36.4915C82.7808 35.6534 83.323 35.0213 84.0048 34.5952C84.6866 34.1643 85.4466 33.9489 86.2846 33.9489C86.9238 33.9489 87.4494 34.0578 87.8613 34.2756C88.2733 34.4886 88.6 34.7467 88.8414 35.0497C89.0829 35.348 89.2699 35.6297 89.4025 35.8949H89.5091V30.4545H92.0872V45H89.5588V43.2812H89.4025C89.2699 43.5464 89.0782 43.8281 88.8272 44.1264C88.5763 44.42 88.2449 44.6709 87.8329 44.8793C87.421 45.0876 86.9025 45.1918 86.2775 45.1918ZM86.9949 43.0824C87.5394 43.0824 88.0034 42.9356 88.3869 42.642C88.7704 42.3437 89.0616 41.9295 89.2605 41.3991C89.4593 40.8688 89.5588 40.2509 89.5588 39.5455C89.5588 38.84 89.4593 38.2268 89.2605 37.706C89.0663 37.1851 88.7775 36.7803 88.394 36.4915C88.0152 36.2027 87.5488 36.0582 86.9949 36.0582C86.4219 36.0582 85.9437 36.2074 85.5602 36.5057C85.1767 36.804 84.8878 37.2159 84.6937 37.7415C84.4996 38.267 84.4025 38.8684 84.4025 39.5455C84.4025 40.2273 84.4996 40.8357 84.6937 41.3707C84.8926 41.901 85.1838 42.3201 85.5673 42.6278C85.9556 42.9309 86.4314 43.0824 86.9949 43.0824ZM101.78 40.4119V34.0909H104.351V45H101.858V43.0611H101.744C101.498 43.6719 101.093 44.1714 100.53 44.5597C99.9713 44.9479 99.2824 45.142 98.4632 45.142C97.7483 45.142 97.1162 44.9834 96.5669 44.6662C96.0224 44.3442 95.5963 43.8778 95.2885 43.267C94.9808 42.6515 94.8269 41.9081 94.8269 41.0369V34.0909H97.3979V40.6392C97.3979 41.3305 97.5873 41.8797 97.9661 42.2869C98.3449 42.6941 98.842 42.8977 99.4576 42.8977C99.8364 42.8977 100.203 42.8054 100.558 42.6207C100.914 42.4361 101.205 42.1615 101.432 41.7969C101.664 41.4276 101.78 40.9659 101.78 40.4119ZM109.566 30.4545V45H106.995V30.4545H109.566ZM117.039 45.2131C115.945 45.2131 115.001 44.9858 114.205 44.5312C113.415 44.072 112.806 43.4233 112.38 42.5852C111.954 41.7424 111.741 40.7505 111.741 39.6094C111.741 38.4872 111.954 37.5024 112.38 36.6548C112.811 35.8026 113.412 35.1397 114.184 34.6662C114.956 34.188 115.863 33.9489 116.904 33.9489C117.577 33.9489 118.211 34.0578 118.808 34.2756C119.409 34.4886 119.939 34.8201 120.399 35.2699C120.863 35.7197 121.227 36.2926 121.492 36.9886C121.758 37.6799 121.89 38.5038 121.89 39.4602V40.2486H112.948V38.5156H119.426C119.421 38.0232 119.314 37.5852 119.106 37.2017C118.898 36.8134 118.606 36.508 118.232 36.2855C117.863 36.063 117.432 35.9517 116.94 35.9517C116.414 35.9517 115.953 36.0795 115.555 36.3352C115.157 36.5862 114.847 36.9176 114.624 37.3295C114.407 37.7367 114.295 38.1842 114.291 38.6719V40.1847C114.291 40.8191 114.407 41.3636 114.639 41.8182C114.871 42.268 115.195 42.6136 115.612 42.8551C116.028 43.0919 116.516 43.2102 117.075 43.2102C117.449 43.2102 117.787 43.1581 118.09 43.054C118.393 42.9451 118.656 42.7865 118.879 42.5781C119.101 42.3698 119.269 42.1117 119.383 41.804L121.784 42.0739C121.632 42.7083 121.343 43.2623 120.917 43.7358C120.496 44.2045 119.956 44.5691 119.298 44.8295C118.64 45.0852 117.887 45.2131 117.039 45.2131Z" fill="black"/>
<path d="M36 66.5H48C49.933 66.5 51.5 68.067 51.5 70V82C51.5 83.933 49.933 85.5 48 85.5H36C34.067 85.5 32.5 83.933 32.5 82V70C32.5 68.067 34.067 66.5 36 66.5Z" fill="white"/>
<path d="M36 66.5H48C49.933 66.5 51.5 68.067 51.5 70V82C51.5 83.933 49.933 85.5 48 85.5H36C34.067 85.5 32.5 83.933 32.5 82V70C32.5 68.067 34.067 66.5 36 66.5Z" stroke="#8A8C8F"/>
<path d="M47.0859 72.9141C47.2969 73.1484 47.2969 73.5 47.0859 73.7109L40.8984 79.8984C40.6641 80.1328 40.3125 80.1328 40.1016 79.8984L36.9141 76.7109C36.6797 76.5 36.6797 76.1484 36.9141 75.9375C37.125 75.7031 37.4766 75.7031 37.6875 75.9375L40.4766 78.7266L46.2891 72.9141C46.5 72.7031 46.8516 72.7031 47.0625 72.9141H47.0859Z" fill="white"/>
<path d="M70.8011 73.3636C70.7415 72.8598 70.4995 72.4688 70.0753 72.1903C69.651 71.9119 69.1307 71.7727 68.5142 71.7727C68.0634 71.7727 67.669 71.8456 67.331 71.9915C66.9962 72.1373 66.7344 72.3378 66.5455 72.593C66.3598 72.8482 66.267 73.1383 66.267 73.4631C66.267 73.7348 66.3317 73.9685 66.4609 74.1641C66.5935 74.3563 66.7625 74.517 66.968 74.6463C67.1735 74.7723 67.389 74.8767 67.6143 74.9595C67.8397 75.0391 68.0469 75.1037 68.2358 75.1534L69.2699 75.4318C69.535 75.5014 69.83 75.5975 70.1548 75.7202C70.483 75.8428 70.7962 76.0102 71.0945 76.2223C71.3961 76.4311 71.6446 76.6996 71.8402 77.0277C72.0357 77.3558 72.1335 77.7585 72.1335 78.2358C72.1335 78.786 71.9893 79.2831 71.701 79.7273C71.416 80.1714 70.9983 80.5244 70.4482 80.7862C69.9013 81.0481 69.2367 81.179 68.4545 81.179C67.7254 81.179 67.094 81.0613 66.5604 80.826C66.0301 80.5907 65.6125 80.2625 65.3075 79.8416C65.0059 79.4207 64.8352 78.9318 64.7955 78.375H66.0682C66.1013 78.7595 66.2306 79.0777 66.456 79.3295C66.6847 79.5781 66.973 79.7637 67.321 79.8864C67.6723 80.0057 68.0502 80.0653 68.4545 80.0653C68.9252 80.0653 69.3478 79.9891 69.7223 79.8366C70.0968 79.6809 70.3935 79.4654 70.6122 79.1903C70.831 78.9119 70.9403 78.5871 70.9403 78.2159C70.9403 77.8778 70.8459 77.6027 70.657 77.3906C70.468 77.1785 70.2195 77.0062 69.9112 76.8736C69.603 76.741 69.2699 76.625 68.9119 76.5256L67.6591 76.1676C66.8636 75.9389 66.2339 75.6125 65.7699 75.1882C65.3059 74.764 65.0739 74.2088 65.0739 73.5227C65.0739 72.9527 65.228 72.4555 65.5362 72.0312C65.8478 71.6037 66.2654 71.2723 66.7891 71.0369C67.3161 70.7983 67.9044 70.679 68.554 70.679C69.2102 70.679 69.7936 70.7966 70.304 71.032C70.8144 71.264 71.2188 71.5821 71.517 71.9865C71.8187 72.3909 71.9777 72.8499 71.9943 73.3636H70.8011ZM78.8141 77.8778V73.3636H79.9874V81H78.8141V79.7074H78.7346C78.5556 80.0952 78.2772 80.425 77.8993 80.6967C77.5215 80.9652 77.0442 81.0994 76.4675 81.0994C75.9902 81.0994 75.566 80.995 75.1948 80.7862C74.8236 80.5741 74.5319 80.2559 74.3198 79.8317C74.1077 79.4041 74.0016 78.8655 74.0016 78.2159V73.3636H75.1749V78.1364C75.1749 78.6932 75.3307 79.1373 75.6422 79.4688C75.9571 79.8002 76.3581 79.9659 76.8453 79.9659C77.137 79.9659 77.4337 79.8913 77.7353 79.7422C78.0402 79.593 78.2954 79.3643 78.5009 79.0561C78.7097 78.7479 78.8141 78.3551 78.8141 77.8778ZM83.3097 76.4062V81H82.1364V73.3636H83.2699V74.5568H83.3693C83.5483 74.169 83.8201 73.8575 84.1847 73.6222C84.5492 73.3835 85.0199 73.2642 85.5966 73.2642C86.1136 73.2642 86.5661 73.3703 86.9538 73.5824C87.3416 73.7912 87.6432 74.1094 87.8587 74.5369C88.0741 74.9612 88.1818 75.4981 88.1818 76.1477V81H87.0085V76.2273C87.0085 75.6274 86.8527 75.16 86.5412 74.8253C86.2296 74.4872 85.8021 74.3182 85.2585 74.3182C84.884 74.3182 84.5492 74.3994 84.2543 74.5618C83.9626 74.7242 83.7322 74.9612 83.5632 75.2727C83.3942 75.5843 83.3097 75.9621 83.3097 76.4062Z" fill="#222222"/>
<path d="M134 70C134 67.7909 135.791 66 138 66H150C152.209 66 154 67.7909 154 70V82C154 84.2091 152.209 86 150 86H138C135.791 86 134 84.2091 134 82V70Z" fill="#306BEA"/>
<path d="M149.016 72.9844C149.32 73.2656 149.32 73.7578 149.016 74.0391L143.016 80.0391C142.734 80.3438 142.242 80.3438 141.961 80.0391L138.961 77.0391C138.656 76.7578 138.656 76.2656 138.961 75.9844C139.242 75.6797 139.734 75.6797 140.016 75.9844L142.5 78.4453L147.961 72.9844C148.242 72.6797 148.734 72.6797 149.016 72.9844Z" fill="white"/>
<path d="M167.233 68.8182H168.705L172.165 77.2699H172.284L175.744 68.8182H177.216V79H176.062V71.2642H175.963L172.781 79H171.668L168.486 71.2642H168.386V79H167.233V68.8182ZM182.631 79.1591C181.942 79.1591 181.337 78.995 180.817 78.6669C180.3 78.3388 179.895 77.8797 179.604 77.2898C179.315 76.6998 179.171 76.0104 179.171 75.2216C179.171 74.4261 179.315 73.7318 179.604 73.1385C179.895 72.5452 180.3 72.0845 180.817 71.7564C181.337 71.4283 181.942 71.2642 182.631 71.2642C183.321 71.2642 183.924 71.4283 184.441 71.7564C184.961 72.0845 185.366 72.5452 185.654 73.1385C185.946 73.7318 186.091 74.4261 186.091 75.2216C186.091 76.0104 185.946 76.6998 185.654 77.2898C185.366 77.8797 184.961 78.3388 184.441 78.6669C183.924 78.995 183.321 79.1591 182.631 79.1591ZM182.631 78.1051C183.155 78.1051 183.586 77.9709 183.924 77.7024C184.262 77.4339 184.512 77.081 184.675 76.6435C184.837 76.206 184.918 75.732 184.918 75.2216C184.918 74.7112 184.837 74.2356 184.675 73.7947C184.512 73.3539 184.262 72.9976 183.924 72.7259C183.586 72.4541 183.155 72.3182 182.631 72.3182C182.108 72.3182 181.677 72.4541 181.339 72.7259C181.001 72.9976 180.75 73.3539 180.588 73.7947C180.425 74.2356 180.344 74.7112 180.344 75.2216C180.344 75.732 180.425 76.206 180.588 76.6435C180.75 77.081 181.001 77.4339 181.339 77.7024C181.677 77.9709 182.108 78.1051 182.631 78.1051ZM189.056 74.4062V79H187.882V71.3636H189.016V72.5568H189.115C189.294 72.169 189.566 71.8575 189.931 71.6222C190.295 71.3835 190.766 71.2642 191.343 71.2642C191.86 71.2642 192.312 71.3703 192.7 71.5824C193.088 71.7912 193.389 72.1094 193.605 72.5369C193.82 72.9612 193.928 73.4981 193.928 74.1477V79H192.755V74.2273C192.755 73.6274 192.599 73.16 192.287 72.8253C191.976 72.4872 191.548 72.3182 191.005 72.3182C190.63 72.3182 190.295 72.3994 190 72.5618C189.709 72.7242 189.478 72.9612 189.309 73.2727C189.14 73.5843 189.056 73.9621 189.056 74.4062Z" fill="#222222"/>
<path d="M236 70C236 67.7909 237.791 66 240 66H252C254.209 66 256 67.7909 256 70V82C256 84.2091 254.209 86 252 86H240C237.791 86 236 84.2091 236 82V70Z" fill="#306BEA"/>
<path d="M251.016 72.9844C251.32 73.2656 251.32 73.7578 251.016 74.0391L245.016 80.0391C244.734 80.3438 244.242 80.3438 243.961 80.0391L240.961 77.0391C240.656 76.7578 240.656 76.2656 240.961 75.9844C241.242 75.6797 241.734 75.6797 242.016 75.9844L244.5 78.4453L249.961 72.9844C250.242 72.6797 250.734 72.6797 251.016 72.9844Z" fill="white"/>
<path d="M268.676 69.9119V68.8182H276.312V69.9119H273.111V79H271.878V69.9119H268.676ZM281.83 75.8778V71.3636H283.003V79H281.83V77.7074H281.75C281.571 78.0952 281.293 78.425 280.915 78.6967C280.537 78.9652 280.06 79.0994 279.483 79.0994C279.006 79.0994 278.582 78.995 278.21 78.7862C277.839 78.5741 277.548 78.2559 277.335 77.8317C277.123 77.4041 277.017 76.8655 277.017 76.2159V71.3636H278.191V76.1364C278.191 76.6932 278.346 77.1373 278.658 77.4688C278.973 77.8002 279.374 77.9659 279.861 77.9659C280.153 77.9659 280.449 77.8913 280.751 77.7422C281.056 77.593 281.311 77.3643 281.517 77.0561C281.725 76.7479 281.83 76.3551 281.83 75.8778ZM288.354 79.1591C287.618 79.1591 286.983 78.9967 286.45 78.6719C285.919 78.3438 285.51 77.8864 285.222 77.2997C284.937 76.7098 284.794 76.0237 284.794 75.2415C284.794 74.4593 284.937 73.7699 285.222 73.1733C285.51 72.5734 285.911 72.1061 286.425 71.7713C286.942 71.4332 287.545 71.2642 288.234 71.2642C288.632 71.2642 289.025 71.3305 289.413 71.4631C289.8 71.5956 290.153 71.8111 290.472 72.1094C290.79 72.4044 291.043 72.7955 291.232 73.2827C291.421 73.7699 291.516 74.3698 291.516 75.0824V75.5795H285.629V74.5653H290.322C290.322 74.1345 290.236 73.75 290.064 73.4119C289.895 73.0739 289.653 72.8071 289.338 72.6115C289.027 72.416 288.659 72.3182 288.234 72.3182C287.767 72.3182 287.363 72.4342 287.021 72.6662C286.683 72.8949 286.423 73.1932 286.241 73.5611C286.058 73.929 285.967 74.3234 285.967 74.7443V75.4205C285.967 75.9972 286.067 76.486 286.266 76.8871C286.468 77.2848 286.748 77.5881 287.106 77.7969C287.464 78.0024 287.88 78.1051 288.354 78.1051C288.662 78.1051 288.94 78.062 289.189 77.9759C289.441 77.8864 289.658 77.7538 289.84 77.5781C290.022 77.3991 290.163 77.1771 290.263 76.9119L291.396 77.2301C291.277 77.6146 291.076 77.9527 290.795 78.2443C290.513 78.5327 290.165 78.758 289.751 78.9205C289.336 79.0795 288.871 79.1591 288.354 79.1591Z" fill="#222222"/>
<path d="M338 70C338 67.7909 339.791 66 342 66H354C356.209 66 358 67.7909 358 70V82C358 84.2091 356.209 86 354 86H342C339.791 86 338 84.2091 338 82V70Z" fill="#306BEA"/>
<path d="M353.016 72.9844C353.32 73.2656 353.32 73.7578 353.016 74.0391L347.016 80.0391C346.734 80.3438 346.242 80.3438 345.961 80.0391L342.961 77.0391C342.656 76.7578 342.656 76.2656 342.961 75.9844C343.242 75.6797 343.734 75.6797 344.016 75.9844L346.5 78.4453L351.961 72.9844C352.242 72.6797 352.734 72.6797 353.016 72.9844Z" fill="white"/>
<path d="M373.082 79L370.298 68.8182H371.551L373.679 77.1108H373.778L375.946 68.8182H377.338L379.506 77.1108H379.605L381.733 68.8182H382.986L380.202 79H378.929L376.682 70.8864H376.602L374.355 79H373.082ZM386.854 79.1591C386.118 79.1591 385.483 78.9967 384.95 78.6719C384.419 78.3438 384.01 77.8864 383.722 77.2997C383.437 76.7098 383.294 76.0237 383.294 75.2415C383.294 74.4593 383.437 73.7699 383.722 73.1733C384.01 72.5734 384.411 72.1061 384.925 71.7713C385.442 71.4332 386.045 71.2642 386.734 71.2642C387.132 71.2642 387.525 71.3305 387.913 71.4631C388.3 71.5956 388.653 71.8111 388.972 72.1094C389.29 72.4044 389.543 72.7955 389.732 73.2827C389.921 73.7699 390.016 74.3698 390.016 75.0824V75.5795H384.129V74.5653H388.822C388.822 74.1345 388.736 73.75 388.564 73.4119C388.395 73.0739 388.153 72.8071 387.838 72.6115C387.527 72.416 387.159 72.3182 386.734 72.3182C386.267 72.3182 385.863 72.4342 385.521 72.6662C385.183 72.8949 384.923 73.1932 384.741 73.5611C384.558 73.929 384.467 74.3234 384.467 74.7443V75.4205C384.467 75.9972 384.567 76.486 384.766 76.8871C384.968 77.2848 385.248 77.5881 385.606 77.7969C385.964 78.0024 386.38 78.1051 386.854 78.1051C387.162 78.1051 387.44 78.062 387.689 77.9759C387.941 77.8864 388.158 77.7538 388.34 77.5781C388.522 77.3991 388.663 77.1771 388.763 76.9119L389.896 77.2301C389.777 77.6146 389.576 77.9527 389.295 78.2443C389.013 78.5327 388.665 78.758 388.251 78.9205C387.836 79.0795 387.371 79.1591 386.854 79.1591ZM394.684 79.1591C394.048 79.1591 393.486 78.9983 392.999 78.6768C392.511 78.352 392.13 77.8946 391.855 77.3047C391.58 76.7114 391.442 76.0104 391.442 75.2017C391.442 74.3996 391.58 73.7036 391.855 73.1136C392.13 72.5237 392.513 72.0679 393.004 71.7464C393.494 71.425 394.061 71.2642 394.704 71.2642C395.201 71.2642 395.594 71.3471 395.882 71.5128C396.174 71.6752 396.396 71.8608 396.548 72.0696C396.704 72.2751 396.825 72.4441 396.911 72.5767H397.011V68.8182H398.184V79H397.05V77.8267H396.911C396.825 77.9659 396.702 78.1416 396.543 78.3537C396.384 78.5625 396.157 78.7498 395.862 78.9155C395.567 79.0779 395.174 79.1591 394.684 79.1591ZM394.843 78.1051C395.314 78.1051 395.711 77.9825 396.036 77.7372C396.361 77.4886 396.608 77.1456 396.777 76.7081C396.946 76.2673 397.031 75.7585 397.031 75.1818C397.031 74.6117 396.948 74.1129 396.782 73.6854C396.616 73.2545 396.371 72.9197 396.046 72.6811C395.721 72.4392 395.32 72.3182 394.843 72.3182C394.346 72.3182 393.932 72.4458 393.6 72.701C393.272 72.9529 393.025 73.2959 392.859 73.7301C392.697 74.161 392.616 74.6449 392.616 75.1818C392.616 75.7254 392.699 76.2192 392.864 76.6634C393.033 77.1042 393.282 77.4555 393.61 77.7173C393.942 77.9759 394.353 78.1051 394.843 78.1051Z" fill="#222222"/>
<path d="M32 119C32 116.791 33.7909 115 36 115H48C50.2091 115 52 116.791 52 119V131C52 133.209 50.2091 135 48 135H36C33.7909 135 32 133.209 32 131V119Z" fill="#306BEA"/>
<path d="M47.0156 121.984C47.3203 122.266 47.3203 122.758 47.0156 123.039L41.0156 129.039C40.7344 129.344 40.2422 129.344 39.9609 129.039L36.9609 126.039C36.6562 125.758 36.6562 125.266 36.9609 124.984C37.2422 124.68 37.7344 124.68 38.0156 124.984L40.5 127.445L45.9609 121.984C46.2422 121.68 46.7344 121.68 47.0156 121.984Z" fill="white"/>
<path d="M64.6761 118.912V117.818H72.3125V118.912H69.1108V128H67.8778V118.912H64.6761ZM75.2296 123.406V128H74.0563V117.818H75.2296V121.557H75.329C75.508 121.162 75.7765 120.849 76.1344 120.617C76.4957 120.382 76.9763 120.264 77.5762 120.264C78.0965 120.264 78.5523 120.369 78.9434 120.577C79.3345 120.783 79.6377 121.099 79.8532 121.527C80.0719 121.951 80.1813 122.491 80.1813 123.148V128H79.008V123.227C79.008 122.621 78.8506 122.152 78.5357 121.82C78.2241 121.486 77.7916 121.318 77.2381 121.318C76.8536 121.318 76.5089 121.399 76.204 121.562C75.9024 121.724 75.6638 121.961 75.4881 122.273C75.3158 122.584 75.2296 122.962 75.2296 123.406ZM87.1403 124.878V120.364H88.3136V128H87.1403V126.707H87.0607C86.8817 127.095 86.6033 127.425 86.2255 127.697C85.8477 127.965 85.3704 128.099 84.7937 128.099C84.3164 128.099 83.8922 127.995 83.521 127.786C83.1497 127.574 82.8581 127.256 82.646 126.832C82.4338 126.404 82.3278 125.866 82.3278 125.216V120.364H83.5011V125.136C83.5011 125.693 83.6568 126.137 83.9684 126.469C84.2833 126.8 84.6843 126.966 85.1715 126.966C85.4632 126.966 85.7598 126.891 86.0614 126.742C86.3664 126.593 86.6216 126.364 86.8271 126.056C87.0359 125.748 87.1403 125.355 87.1403 124.878Z" fill="#222222"/>
<path d="M134 119C134 116.791 135.791 115 138 115H150C152.209 115 154 116.791 154 119V131C154 133.209 152.209 135 150 135H138C135.791 135 134 133.209 134 131V119Z" fill="#306BEA"/>
<path d="M149.016 121.984C149.32 122.266 149.32 122.758 149.016 123.039L143.016 129.039C142.734 129.344 142.242 129.344 141.961 129.039L138.961 126.039C138.656 125.758 138.656 125.266 138.961 124.984C139.242 124.68 139.734 124.68 140.016 124.984L142.5 127.445L147.961 121.984C148.242 121.68 148.734 121.68 149.016 121.984Z" fill="white"/>
<path d="M167.233 128V117.818H173.338V118.912H168.466V122.352H172.881V123.446H168.466V128H167.233ZM175.209 128V120.364H176.342V121.517H176.422C176.561 121.139 176.813 120.833 177.177 120.597C177.542 120.362 177.953 120.244 178.41 120.244C178.497 120.244 178.604 120.246 178.733 120.249C178.863 120.253 178.961 120.258 179.027 120.264V121.457C178.987 121.447 178.896 121.433 178.753 121.413C178.614 121.389 178.467 121.378 178.311 121.378C177.94 121.378 177.608 121.456 177.317 121.612C177.028 121.764 176.8 121.976 176.631 122.248C176.465 122.516 176.382 122.823 176.382 123.168V128H175.209ZM180.418 128V120.364H181.591V128H180.418ZM181.014 119.091C180.786 119.091 180.588 119.013 180.423 118.857C180.26 118.701 180.179 118.514 180.179 118.295C180.179 118.077 180.26 117.889 180.423 117.734C180.588 117.578 180.786 117.5 181.014 117.5C181.243 117.5 181.438 117.578 181.601 117.734C181.767 117.889 181.849 118.077 181.849 118.295C181.849 118.514 181.767 118.701 181.601 118.857C181.438 119.013 181.243 119.091 181.014 119.091Z" fill="#222222"/>
<path d="M240 115.5H252C253.933 115.5 255.5 117.067 255.5 119V131C255.5 132.933 253.933 134.5 252 134.5H240C238.067 134.5 236.5 132.933 236.5 131V119C236.5 117.067 238.067 115.5 240 115.5Z" fill="white"/>
<path d="M240 115.5H252C253.933 115.5 255.5 117.067 255.5 119V131C255.5 132.933 253.933 134.5 252 134.5H240C238.067 134.5 236.5 132.933 236.5 131V119C236.5 117.067 238.067 115.5 240 115.5Z" stroke="#8A8C8F"/>
<path d="M251.086 121.914C251.297 122.148 251.297 122.5 251.086 122.711L244.898 128.898C244.664 129.133 244.312 129.133 244.102 128.898L240.914 125.711C240.68 125.5 240.68 125.148 240.914 124.938C241.125 124.703 241.477 124.703 241.688 124.938L244.477 127.727L250.289 121.914C250.5 121.703 250.852 121.703 251.062 121.914H251.086Z" fill="white"/>
<path d="M274.801 122.364C274.741 121.86 274.5 121.469 274.075 121.19C273.651 120.912 273.131 120.773 272.514 120.773C272.063 120.773 271.669 120.846 271.331 120.991C270.996 121.137 270.734 121.338 270.545 121.593C270.36 121.848 270.267 122.138 270.267 122.463C270.267 122.735 270.332 122.969 270.461 123.164C270.594 123.356 270.763 123.517 270.968 123.646C271.174 123.772 271.389 123.877 271.614 123.96C271.84 124.039 272.047 124.104 272.236 124.153L273.27 124.432C273.535 124.501 273.83 124.598 274.155 124.72C274.483 124.843 274.796 125.01 275.094 125.222C275.396 125.431 275.645 125.7 275.84 126.028C276.036 126.356 276.134 126.759 276.134 127.236C276.134 127.786 275.989 128.283 275.701 128.727C275.416 129.171 274.998 129.524 274.448 129.786C273.901 130.048 273.237 130.179 272.455 130.179C271.725 130.179 271.094 130.061 270.56 129.826C270.03 129.591 269.612 129.263 269.308 128.842C269.006 128.421 268.835 127.932 268.795 127.375H270.068C270.101 127.759 270.231 128.078 270.456 128.33C270.685 128.578 270.973 128.764 271.321 128.886C271.672 129.006 272.05 129.065 272.455 129.065C272.925 129.065 273.348 128.989 273.722 128.837C274.097 128.681 274.393 128.465 274.612 128.19C274.831 127.912 274.94 127.587 274.94 127.216C274.94 126.878 274.846 126.603 274.657 126.391C274.468 126.179 274.219 126.006 273.911 125.874C273.603 125.741 273.27 125.625 272.912 125.526L271.659 125.168C270.864 124.939 270.234 124.612 269.77 124.188C269.306 123.764 269.074 123.209 269.074 122.523C269.074 121.953 269.228 121.455 269.536 121.031C269.848 120.604 270.265 120.272 270.789 120.037C271.316 119.798 271.904 119.679 272.554 119.679C273.21 119.679 273.794 119.797 274.304 120.032C274.814 120.264 275.219 120.582 275.517 120.987C275.819 121.391 275.978 121.85 275.994 122.364H274.801ZM280.249 130.179C279.765 130.179 279.326 130.088 278.931 129.906C278.537 129.72 278.224 129.453 277.992 129.105C277.76 128.754 277.644 128.33 277.644 127.832C277.644 127.395 277.73 127.04 277.902 126.768C278.075 126.493 278.305 126.278 278.593 126.122C278.882 125.966 279.2 125.85 279.548 125.774C279.899 125.695 280.252 125.632 280.607 125.585C281.071 125.526 281.447 125.481 281.735 125.451C282.027 125.418 282.239 125.363 282.372 125.287C282.508 125.211 282.575 125.078 282.575 124.889V124.849C282.575 124.359 282.441 123.978 282.173 123.706C281.908 123.434 281.505 123.298 280.965 123.298C280.405 123.298 279.965 123.421 279.647 123.666C279.329 123.911 279.105 124.173 278.976 124.452L277.862 124.054C278.061 123.59 278.326 123.229 278.658 122.97C278.993 122.708 279.357 122.526 279.752 122.423C280.149 122.317 280.54 122.264 280.925 122.264C281.17 122.264 281.452 122.294 281.77 122.354C282.092 122.41 282.401 122.528 282.7 122.707C283.001 122.886 283.252 123.156 283.45 123.517C283.649 123.878 283.749 124.362 283.749 124.969V130H282.575V128.966H282.516C282.436 129.132 282.304 129.309 282.118 129.498C281.932 129.687 281.686 129.848 281.377 129.98C281.069 130.113 280.693 130.179 280.249 130.179ZM280.428 129.125C280.892 129.125 281.283 129.034 281.601 128.852C281.923 128.669 282.164 128.434 282.327 128.146C282.493 127.857 282.575 127.554 282.575 127.236V126.162C282.526 126.222 282.416 126.276 282.247 126.326C282.082 126.372 281.889 126.414 281.671 126.45C281.455 126.483 281.245 126.513 281.039 126.54C280.837 126.563 280.673 126.583 280.547 126.599C280.242 126.639 279.957 126.704 279.692 126.793C279.43 126.879 279.218 127.01 279.056 127.186C278.896 127.358 278.817 127.594 278.817 127.892C278.817 128.3 278.968 128.608 279.269 128.817C279.574 129.022 279.96 129.125 280.428 129.125ZM289.211 122.364V123.358H285.254V122.364H289.211ZM286.407 120.534H287.581V127.812C287.581 128.144 287.629 128.393 287.725 128.558C287.824 128.721 287.95 128.83 288.103 128.886C288.258 128.939 288.422 128.966 288.595 128.966C288.724 128.966 288.83 128.959 288.913 128.946C288.996 128.929 289.062 128.916 289.112 128.906L289.35 129.96C289.271 129.99 289.16 130.02 289.017 130.05C288.875 130.083 288.694 130.099 288.475 130.099C288.144 130.099 287.819 130.028 287.501 129.886C287.186 129.743 286.924 129.526 286.716 129.234C286.51 128.943 286.407 128.575 286.407 128.131V120.534Z" fill="#222222"/>
<g clip-path="url(#clip1_635_3051)">
<path d="M42.0466 176.786C44.9779 176.786 47.3549 174.409 47.3549 171.478C47.3549 168.547 44.9779 166.17 42.0466 166.17C39.1154 166.17 36.7383 168.547 36.7383 171.478C36.7383 174.409 39.1154 176.786 42.0466 176.786Z" fill="#222222" stroke="#222222" stroke-linecap="round" stroke-linejoin="round"/>
<path d="M48.6984 177.828C50.2546 176.178 51.2109 173.953 51.2109 171.505C51.2109 166.418 47.0879 162.293 42.0004 162.293C36.9129 162.293 32.79 166.418 32.79 171.505C32.79 176.593 36.9129 180.716 42.0004 180.716" stroke="#222222" stroke-linecap="round" stroke-linejoin="round"/>
<path d="M41.0547 179.722L42.0109 180.678C42.0318 180.699 42.0318 180.732 42.0109 180.751L41.0547 181.707" stroke="#222222" stroke-linecap="round" stroke-linejoin="round"/>
<path d="M42.0459 171.478V167.722" stroke="white" stroke-linecap="round" stroke-linejoin="round"/>
<path d="M42.0459 171.478L44.7021 174.132" stroke="white" stroke-linecap="round" stroke-linejoin="round"/>
</g>
<path d="M61.0043 177V166.818H67.527V168.364H62.8487V171.129H67.0795V172.675H62.8487V177H61.0043ZM69.0185 177V169.364H70.7635V170.636H70.843C70.9822 170.196 71.2209 169.856 71.5589 169.617C71.9003 169.375 72.2898 169.254 72.7273 169.254C72.8267 169.254 72.9377 169.259 73.0604 169.269C73.1863 169.276 73.2907 169.287 73.3736 169.304V170.96C73.2973 170.933 73.1764 170.91 73.0107 170.89C72.8482 170.867 72.6908 170.855 72.5384 170.855C72.2102 170.855 71.9152 170.926 71.6534 171.069C71.3949 171.208 71.1911 171.402 71.0419 171.651C70.8928 171.899 70.8182 172.186 70.8182 172.511V177H69.0185ZM77.6355 177.149C76.8699 177.149 76.2086 176.99 75.6518 176.672C75.0983 176.35 74.6724 175.896 74.3741 175.31C74.0758 174.72 73.9267 174.025 73.9267 173.227C73.9267 172.441 74.0758 171.752 74.3741 171.158C74.6757 170.562 75.0967 170.098 75.6369 169.766C76.1771 169.432 76.8118 169.264 77.541 169.264C78.0117 169.264 78.4558 169.34 78.8734 169.493C79.2943 169.642 79.6655 169.874 79.987 170.189C80.3118 170.504 80.5671 170.905 80.7527 171.392C80.9383 171.876 81.0311 172.453 81.0311 173.122V173.674H74.7718V172.461H79.3059C79.3026 172.116 79.228 171.81 79.0822 171.541C78.9364 171.269 78.7325 171.056 78.4707 170.9C78.2122 170.744 77.9106 170.666 77.5659 170.666C77.198 170.666 76.8748 170.756 76.5964 170.935C76.318 171.11 76.1009 171.342 75.9451 171.631C75.7927 171.916 75.7148 172.229 75.7115 172.57V173.629C75.7115 174.073 75.7927 174.455 75.9551 174.773C76.1175 175.088 76.3445 175.33 76.6362 175.499C76.9279 175.664 77.2692 175.747 77.6603 175.747C77.9222 175.747 78.1592 175.711 78.3713 175.638C78.5834 175.562 78.7673 175.451 78.9231 175.305C79.0789 175.159 79.1966 174.978 79.2761 174.763L80.9565 174.952C80.8504 175.396 80.6483 175.784 80.35 176.115C80.055 176.443 79.6771 176.698 79.2164 176.881C78.7557 177.06 78.2288 177.149 77.6355 177.149ZM87.6495 179.864V175.797H87.5749C87.4821 175.982 87.3479 176.18 87.1722 176.388C86.9966 176.594 86.7646 176.77 86.4762 176.915C86.1879 177.061 85.8249 177.134 85.3874 177.134C84.7875 177.134 84.2506 176.98 83.7766 176.672C83.3027 176.364 82.9281 175.916 82.6531 175.33C82.378 174.743 82.2404 174.03 82.2404 173.192C82.2404 172.343 82.3796 171.627 82.658 171.044C82.9397 170.457 83.3192 170.015 83.7965 169.717C84.2738 169.415 84.8058 169.264 85.3924 169.264C85.8398 169.264 86.2077 169.34 86.4961 169.493C86.7844 169.642 87.0131 169.823 87.1822 170.035C87.3512 170.244 87.4821 170.441 87.5749 170.626H87.6843V169.364H89.4542V179.864H87.6495ZM85.8896 175.658C86.2707 175.658 86.5955 175.555 86.864 175.349C87.1325 175.141 87.3363 174.851 87.4755 174.479C87.6147 174.108 87.6843 173.676 87.6843 173.182C87.6843 172.688 87.6147 172.259 87.4755 171.894C87.3396 171.53 87.1374 171.246 86.869 171.044C86.6038 170.842 86.2773 170.741 85.8896 170.741C85.4885 170.741 85.1538 170.845 84.8853 171.054C84.6168 171.263 84.4147 171.551 84.2788 171.919C84.1429 172.287 84.0749 172.708 84.0749 173.182C84.0749 173.659 84.1429 174.085 84.2788 174.46C84.418 174.831 84.6218 175.124 84.8903 175.339C85.1621 175.552 85.4951 175.658 85.8896 175.658ZM96.1708 173.788V169.364H97.9705V177H96.2255V175.643H96.146C95.9736 176.07 95.6902 176.42 95.2958 176.692C94.9047 176.964 94.4225 177.099 93.8491 177.099C93.3486 177.099 92.9061 176.988 92.5217 176.766C92.1405 176.541 91.8422 176.214 91.6268 175.787C91.4113 175.356 91.3036 174.836 91.3036 174.226V169.364H93.1033V173.947C93.1033 174.431 93.2359 174.816 93.5011 175.101C93.7662 175.386 94.1142 175.528 94.5451 175.528C94.8103 175.528 95.0671 175.464 95.3157 175.335C95.5643 175.205 95.7681 175.013 95.9272 174.758C96.0896 174.499 96.1708 174.176 96.1708 173.788ZM103.202 177.149C102.436 177.149 101.775 176.99 101.218 176.672C100.665 176.35 100.239 175.896 99.9405 175.31C99.6422 174.72 99.4931 174.025 99.4931 173.227C99.4931 172.441 99.6422 171.752 99.9405 171.158C100.242 170.562 100.663 170.098 101.203 169.766C101.744 169.432 102.378 169.264 103.107 169.264C103.578 169.264 104.022 169.34 104.44 169.493C104.861 169.642 105.232 169.874 105.553 170.189C105.878 170.504 106.133 170.905 106.319 171.392C106.505 171.876 106.597 172.453 106.597 173.122V173.674H100.338V172.461H104.872C104.869 172.116 104.794 171.81 104.649 171.541C104.503 171.269 104.299 171.056 104.037 170.9C103.779 170.744 103.477 170.666 103.132 170.666C102.764 170.666 102.441 170.756 102.163 170.935C101.884 171.11 101.667 171.342 101.512 171.631C101.359 171.916 101.281 172.229 101.278 172.57V173.629C101.278 174.073 101.359 174.455 101.521 174.773C101.684 175.088 101.911 175.33 102.203 175.499C102.494 175.664 102.836 175.747 103.227 175.747C103.489 175.747 103.726 175.711 103.938 175.638C104.15 175.562 104.334 175.451 104.49 175.305C104.645 175.159 104.763 174.978 104.843 174.763L106.523 174.952C106.417 175.396 106.215 175.784 105.916 176.115C105.621 176.443 105.244 176.698 104.783 176.881C104.322 177.06 103.795 177.149 103.202 177.149ZM109.92 172.526V177H108.12V169.364H109.84V170.661H109.93C110.105 170.234 110.385 169.894 110.77 169.642C111.158 169.39 111.637 169.264 112.207 169.264C112.734 169.264 113.193 169.377 113.584 169.602C113.978 169.828 114.283 170.154 114.499 170.582C114.717 171.009 114.825 171.528 114.822 172.138V177H113.022V172.416C113.022 171.906 112.889 171.506 112.624 171.218C112.362 170.93 112 170.786 111.536 170.786C111.221 170.786 110.941 170.855 110.695 170.994C110.453 171.13 110.263 171.327 110.124 171.586C109.988 171.844 109.92 172.158 109.92 172.526ZM119.982 177.149C119.22 177.149 118.565 176.982 118.018 176.647C117.475 176.312 117.056 175.85 116.761 175.26C116.469 174.667 116.323 173.984 116.323 173.212C116.323 172.436 116.472 171.752 116.771 171.158C117.069 170.562 117.49 170.098 118.033 169.766C118.58 169.432 119.227 169.264 119.972 169.264C120.592 169.264 121.141 169.379 121.618 169.607C122.098 169.833 122.481 170.152 122.766 170.567C123.051 170.978 123.214 171.458 123.254 172.009H121.533C121.464 171.641 121.298 171.334 121.036 171.089C120.778 170.84 120.431 170.716 119.997 170.716C119.629 170.716 119.306 170.815 119.028 171.014C118.749 171.21 118.532 171.491 118.376 171.859C118.224 172.227 118.148 172.668 118.148 173.182C118.148 173.702 118.224 174.15 118.376 174.524C118.529 174.895 118.743 175.182 119.018 175.384C119.296 175.583 119.623 175.683 119.997 175.683C120.262 175.683 120.499 175.633 120.708 175.533C120.92 175.431 121.098 175.283 121.24 175.091C121.383 174.899 121.48 174.665 121.533 174.39H123.254C123.21 174.93 123.051 175.409 122.776 175.827C122.501 176.241 122.127 176.566 121.653 176.801C121.179 177.033 120.622 177.149 119.982 177.149ZM125.85 179.864C125.605 179.864 125.378 179.844 125.169 179.804C124.963 179.768 124.799 179.724 124.677 179.675L125.094 178.273C125.356 178.349 125.59 178.385 125.795 178.382C126.001 178.379 126.181 178.314 126.337 178.188C126.496 178.066 126.631 177.86 126.74 177.572L126.894 177.159L124.125 169.364H126.034L127.794 175.131H127.873L129.638 169.364H131.552L128.495 177.925C128.352 178.329 128.163 178.675 127.928 178.964C127.693 179.255 127.404 179.478 127.063 179.63C126.725 179.786 126.321 179.864 125.85 179.864Z" fill="#222222"/>
<g clip-path="url(#clip2_635_3051)">
<path d="M32 194C32 191.791 33.7909 190 36 190H464C466.209 190 468 191.791 468 194V230C468 232.209 466.209 234 464 234H36C33.7909 234 32 232.209 32 230V194Z" fill="white"/>
<path d="M45.054 217V216.105L48.4148 212.426C48.8092 211.995 49.134 211.621 49.3892 211.303C49.6444 210.981 49.8333 210.679 49.956 210.398C50.0819 210.113 50.1449 209.814 50.1449 209.503C50.1449 209.145 50.0587 208.835 49.8864 208.573C49.7173 208.311 49.4853 208.109 49.1903 207.967C48.8954 207.824 48.5639 207.753 48.196 207.753C47.8049 207.753 47.4635 207.834 47.1719 207.996C46.8835 208.156 46.6598 208.379 46.5007 208.668C46.3449 208.956 46.267 209.294 46.267 209.682H45.0938C45.0938 209.085 45.2313 208.562 45.5064 208.111C45.7815 207.66 46.156 207.309 46.63 207.057C47.1072 206.805 47.6425 206.679 48.2358 206.679C48.8324 206.679 49.361 206.805 49.8217 207.057C50.2824 207.309 50.6437 207.648 50.9055 208.076C51.1674 208.504 51.2983 208.979 51.2983 209.503C51.2983 209.877 51.2304 210.244 51.0945 210.602C50.9619 210.956 50.7299 211.352 50.3984 211.79C50.0703 212.224 49.6146 212.754 49.0312 213.381L46.7443 215.827V215.906H51.4773V217H45.054ZM53.0732 214.912V213.898L57.5476 206.818H58.2834V208.389H57.7862L54.4055 213.739V213.818H60.4311V214.912H53.0732ZM57.8658 217V214.604V214.131V206.818H59.0391V217H57.8658ZM67.4249 212.406V217H66.2516V206.818H67.4249V210.557H67.5243C67.7033 210.162 67.9718 209.849 68.3297 209.617C68.691 209.382 69.1716 209.264 69.7715 209.264C70.2918 209.264 70.7476 209.369 71.1387 209.577C71.5298 209.783 71.833 210.099 72.0485 210.527C72.2672 210.951 72.3766 211.491 72.3766 212.148V217H71.2033V212.227C71.2033 211.621 71.0459 211.152 70.731 210.82C70.4194 210.486 69.9869 210.318 69.4334 210.318C69.0489 210.318 68.7042 210.399 68.3993 210.562C68.0977 210.724 67.8591 210.961 67.6834 211.273C67.5111 211.584 67.4249 211.962 67.4249 212.406ZM77.6254 217.159C76.936 217.159 76.3311 216.995 75.8107 216.667C75.2937 216.339 74.8893 215.88 74.5977 215.29C74.3093 214.7 74.1651 214.01 74.1651 213.222C74.1651 212.426 74.3093 211.732 74.5977 211.138C74.8893 210.545 75.2937 210.085 75.8107 209.756C76.3311 209.428 76.936 209.264 77.6254 209.264C78.3147 209.264 78.918 209.428 79.435 209.756C79.9554 210.085 80.3597 210.545 80.6481 211.138C80.9397 211.732 81.0856 212.426 81.0856 213.222C81.0856 214.01 80.9397 214.7 80.6481 215.29C80.3597 215.88 79.9554 216.339 79.435 216.667C78.918 216.995 78.3147 217.159 77.6254 217.159ZM77.6254 216.105C78.149 216.105 78.5799 215.971 78.918 215.702C79.256 215.434 79.5063 215.081 79.6687 214.643C79.8311 214.206 79.9123 213.732 79.9123 213.222C79.9123 212.711 79.8311 212.236 79.6687 211.795C79.5063 211.354 79.256 210.998 78.918 210.726C78.5799 210.454 78.149 210.318 77.6254 210.318C77.1017 210.318 76.6708 210.454 76.3327 210.726C75.9947 210.998 75.7444 211.354 75.582 211.795C75.4196 212.236 75.3384 212.711 75.3384 213.222C75.3384 213.732 75.4196 214.206 75.582 214.643C75.7444 215.081 75.9947 215.434 76.3327 215.702C76.6708 215.971 77.1017 216.105 77.6254 216.105ZM87.6891 213.878V209.364H88.8624V217H87.6891V215.707H87.6096C87.4306 216.095 87.1522 216.425 86.7743 216.697C86.3965 216.965 85.9192 217.099 85.3425 217.099C84.8652 217.099 84.441 216.995 84.0698 216.786C83.6986 216.574 83.4069 216.256 83.1948 215.832C82.9827 215.404 82.8766 214.866 82.8766 214.216V209.364H84.0499V214.136C84.0499 214.693 84.2057 215.137 84.5172 215.469C84.8321 215.8 85.2331 215.966 85.7203 215.966C86.012 215.966 86.3087 215.891 86.6103 215.742C86.9152 215.593 87.1704 215.364 87.3759 215.056C87.5847 214.748 87.6891 214.355 87.6891 213.878ZM91.0114 217V209.364H92.1449V210.517H92.2244C92.3636 210.139 92.6155 209.833 92.9801 209.597C93.3447 209.362 93.7557 209.244 94.2131 209.244C94.2992 209.244 94.407 209.246 94.5362 209.249C94.6655 209.253 94.7633 209.258 94.8295 209.264V210.457C94.7898 210.447 94.6986 210.433 94.5561 210.413C94.4169 210.389 94.2694 210.378 94.1136 210.378C93.7424 210.378 93.411 210.456 93.1193 210.612C92.831 210.764 92.6023 210.976 92.4332 211.248C92.2675 211.516 92.1847 211.823 92.1847 212.168V217H91.0114ZM101.629 211.074L100.575 211.372C100.509 211.196 100.411 211.026 100.282 210.86C100.156 210.691 99.9838 210.552 99.7651 210.442C99.5463 210.333 99.2663 210.278 98.9249 210.278C98.4576 210.278 98.0681 210.386 97.7566 210.602C97.4483 210.814 97.2942 211.084 97.2942 211.412C97.2942 211.704 97.4003 211.934 97.6124 212.103C97.8245 212.272 98.156 212.413 98.6067 212.526L99.7402 212.804C100.423 212.97 100.932 213.223 101.267 213.565C101.601 213.903 101.769 214.339 101.769 214.872C101.769 215.31 101.643 215.701 101.391 216.045C101.142 216.39 100.794 216.662 100.347 216.861C99.8993 217.06 99.379 217.159 98.7857 217.159C98.0068 217.159 97.3622 216.99 96.8517 216.652C96.3413 216.314 96.0182 215.82 95.8823 215.17L96.9959 214.892C97.102 215.303 97.3025 215.611 97.5975 215.817C97.8958 216.022 98.2852 216.125 98.7658 216.125C99.3127 216.125 99.7469 216.009 100.068 215.777C100.393 215.542 100.556 215.26 100.556 214.932C100.556 214.667 100.463 214.445 100.277 214.266C100.092 214.083 99.8065 213.947 99.4221 213.858L98.1493 213.56C97.45 213.394 96.9363 213.137 96.6081 212.789C96.2833 212.438 96.1209 211.999 96.1209 211.472C96.1209 211.041 96.2419 210.66 96.4838 210.328C96.7291 209.997 97.0622 209.737 97.4831 209.548C97.9074 209.359 98.388 209.264 98.9249 209.264C99.6806 209.264 100.274 209.43 100.705 209.761C101.139 210.093 101.447 210.53 101.629 211.074Z" fill="#494A4C"/>
<path d="M443.281 215.719L439.281 211.719C439 211.438 438.906 211 439.062 210.625C439.219 210.25 439.594 210 440 210H448C448.406 210 448.75 210.25 448.906 210.625C449.062 211 448.969 211.438 448.688 211.719L444.688 215.719C444.312 216.125 443.656 216.125 443.281 215.719Z" fill="#626366"/>
</g>
<path d="M36 190.5H464C465.933 190.5 467.5 192.067 467.5 194V230C467.5 231.933 465.933 233.5 464 233.5H36C34.067 233.5 32.5 231.933 32.5 230V194C32.5 192.067 34.067 190.5 36 190.5Z" stroke="#D0D3D9"/>
<g clip-path="url(#clip3_635_3051)">
<path d="M32.6924 252.357V248.332C32.6924 248.085 32.8924 247.885 33.1403 247.885H46.1132" fill="#222222"/>
<path d="M32.6924 252.357V248.332C32.6924 248.085 32.8924 247.885 33.1403 247.885H46.1132" stroke="#222222" stroke-linecap="round" stroke-linejoin="round"/>
<path d="M48.6757 247.885H51.0341C51.282 247.885 51.482 248.085 51.482 248.332V265.33C51.482 265.578 51.2799 265.778 51.0341 265.778H33.1403C32.8924 265.778 32.6924 265.578 32.6924 265.33V254.912" stroke="#222222" stroke-linecap="round" stroke-linejoin="round"/>
<path d="M46.1111 247.885H33.1403C32.8924 247.885 32.6924 248.085 32.6924 248.332V252.357H51.482V248.332C51.482 248.085 51.282 247.885 51.0341 247.885H46.1132" fill="#222222"/>
<path d="M46.1111 247.885H33.1403C32.8924 247.885 32.6924 248.085 32.6924 248.332V252.357H51.482V248.332C51.482 248.085 51.282 247.885 51.0341 247.885H46.1132" stroke="#222222" stroke-linecap="round" stroke-linejoin="round"/>
<path d="M32.6924 252.36H38.9549V256.832H32.6924V254.912V252.36Z" stroke="#222222" stroke-linecap="round" stroke-linejoin="round"/>
<path d="M38.955 256.832H32.6904V261.305H38.9529V256.832H38.955Z" stroke="#222222" stroke-linecap="round" stroke-linejoin="round"/>
<path d="M32.6904 261.305H38.9529V265.778H33.1383C32.8904 265.778 32.6904 265.578 32.6904 265.33V261.305Z" stroke="#222222" stroke-linecap="round" stroke-linejoin="round"/>
<path d="M45.2176 252.357H38.9551V256.83H45.2176V252.357Z" stroke="#222222" stroke-linecap="round" stroke-linejoin="round"/>
<path d="M45.2176 256.832H38.9551V261.305H45.2176V256.832Z" stroke="#222222" stroke-linecap="round" stroke-linejoin="round"/>
<path d="M45.2176 261.305H38.9551V265.778H45.2176V261.305Z" fill="#222222" stroke="#222222" stroke-linecap="round" stroke-linejoin="round"/>
<path d="M45.2168 261.305H51.4793V265.33C51.4793 265.578 51.2793 265.778 51.0314 265.778H45.2168V261.305Z" stroke="#222222" stroke-linecap="round" stroke-linejoin="round"/>
<path d="M38.0586 246.274V249.495" stroke="#222222" stroke-linecap="round" stroke-linejoin="round"/>
<path d="M51.4793 256.832H45.2168V261.305H51.4793V256.832Z" fill="#222222" stroke="#222222" stroke-linecap="round" stroke-linejoin="round"/>
<path d="M51.4793 252.357H45.2168V256.83H51.4793V252.357Z" stroke="#222222" stroke-linecap="round" stroke-linejoin="round"/>
<path d="M46.1113 246.274V249.495" stroke="#222222" stroke-linecap="round" stroke-linejoin="round"/>
</g>
<path d="M61.0043 261V250.818H64.8224C65.6046 250.818 66.2609 250.954 66.7912 251.226C67.3248 251.498 67.7275 251.879 67.9993 252.369C68.2744 252.857 68.4119 253.425 68.4119 254.075C68.4119 254.728 68.2727 255.294 67.9943 255.775C67.7192 256.252 67.3132 256.622 66.7763 256.884C66.2393 257.142 65.5798 257.271 64.7976 257.271H62.0781V255.74H64.549C65.0064 255.74 65.3809 255.677 65.6726 255.551C65.9643 255.422 66.1797 255.235 66.3189 254.989C66.4614 254.741 66.5327 254.436 66.5327 254.075C66.5327 253.713 66.4614 253.405 66.3189 253.15C66.1764 252.891 65.9593 252.696 65.6676 252.563C65.3759 252.427 64.9998 252.359 64.5391 252.359H62.8487V261H61.0043ZM66.2642 256.386L68.7848 261H66.7266L64.2507 256.386H66.2642ZM74.8974 257.788V253.364H76.6971V261H74.9521V259.643H74.8725C74.7002 260.07 74.4168 260.42 74.0224 260.692C73.6313 260.964 73.149 261.099 72.5756 261.099C72.0752 261.099 71.6327 260.988 71.2482 260.766C70.8671 260.541 70.5688 260.214 70.3533 259.787C70.1379 259.356 70.0302 258.836 70.0302 258.226V253.364H71.8299V257.947C71.8299 258.431 71.9625 258.816 72.2276 259.101C72.4928 259.386 72.8408 259.528 73.2717 259.528C73.5368 259.528 73.7937 259.464 74.0423 259.335C74.2908 259.205 74.4947 259.013 74.6538 258.758C74.8162 258.499 74.8974 258.176 74.8974 257.788ZM80.3475 256.526V261H78.5478V253.364H80.2679V254.661H80.3574C80.5331 254.234 80.8132 253.894 81.1976 253.642C81.5854 253.39 82.0643 253.264 82.6344 253.264C83.1614 253.264 83.6204 253.377 84.0115 253.602C84.406 253.828 84.7109 254.154 84.9263 254.582C85.1451 255.009 85.2528 255.528 85.2495 256.138V261H83.4498V256.416C83.4498 255.906 83.3172 255.506 83.052 255.218C82.7902 254.93 82.4273 254.786 81.9632 254.786C81.6484 254.786 81.3683 254.855 81.123 254.994C80.8811 255.13 80.6905 255.327 80.5513 255.586C80.4154 255.844 80.3475 256.158 80.3475 256.526ZM88.8787 256.526V261H87.079V253.364H88.7992V254.661H88.8887C89.0643 254.234 89.3444 253.894 89.7289 253.642C90.1167 253.39 90.5956 253.264 91.1657 253.264C91.6926 253.264 92.1517 253.377 92.5428 253.602C92.9372 253.828 93.2421 254.154 93.4576 254.582C93.6763 255.009 93.784 255.528 93.7807 256.138V261H91.981V256.416C91.981 255.906 91.8484 255.506 91.5833 255.218C91.3214 254.93 90.9585 254.786 90.4945 254.786C90.1796 254.786 89.8996 254.855 89.6543 254.994C89.4123 255.13 89.2218 255.327 89.0826 255.586C88.9467 255.844 88.8787 256.158 88.8787 256.526ZM95.6103 261V253.364H97.41V261H95.6103ZM96.5151 252.28C96.2301 252.28 95.9848 252.185 95.7793 251.996C95.5738 251.804 95.4711 251.574 95.4711 251.305C95.4711 251.034 95.5738 250.803 95.7793 250.614C95.9848 250.422 96.2301 250.326 96.5151 250.326C96.8034 250.326 97.0487 250.422 97.2509 250.614C97.4564 250.803 97.5591 251.034 97.5591 251.305C97.5591 251.574 97.4564 251.804 97.2509 251.996C97.0487 252.185 96.8034 252.28 96.5151 252.28ZM101.06 256.526V261H99.2607V253.364H100.981V254.661H101.07C101.246 254.234 101.526 253.894 101.911 253.642C102.298 253.39 102.777 253.264 103.347 253.264C103.874 253.264 104.333 253.377 104.724 253.602C105.119 253.828 105.424 254.154 105.639 254.582C105.858 255.009 105.966 255.528 105.962 256.138V261H104.163V256.416C104.163 255.906 104.03 255.506 103.765 255.218C103.503 254.93 103.14 254.786 102.676 254.786C102.361 254.786 102.081 254.855 101.836 254.994C101.594 255.13 101.403 255.327 101.264 255.586C101.128 255.844 101.06 256.158 101.06 256.526ZM111.113 264.023C110.467 264.023 109.911 263.935 109.447 263.759C108.983 263.587 108.611 263.355 108.329 263.063C108.047 262.772 107.852 262.448 107.742 262.094L109.363 261.701C109.436 261.85 109.542 261.998 109.681 262.143C109.82 262.293 110.008 262.415 110.243 262.511C110.482 262.611 110.781 262.661 111.143 262.661C111.653 262.661 112.076 262.536 112.411 262.288C112.745 262.042 112.913 261.638 112.913 261.075V259.628H112.823C112.73 259.813 112.594 260.004 112.415 260.2C112.24 260.395 112.006 260.559 111.714 260.692C111.426 260.824 111.063 260.891 110.626 260.891C110.039 260.891 109.507 260.753 109.03 260.478C108.556 260.2 108.178 259.785 107.896 259.235C107.618 258.682 107.479 257.989 107.479 257.157C107.479 256.318 107.618 255.611 107.896 255.034C108.178 254.454 108.558 254.015 109.035 253.717C109.512 253.415 110.044 253.264 110.631 253.264C111.078 253.264 111.446 253.34 111.734 253.493C112.026 253.642 112.258 253.823 112.43 254.035C112.603 254.244 112.734 254.441 112.823 254.626H112.923V253.364H114.697V261.124C114.697 261.777 114.542 262.317 114.23 262.745C113.919 263.173 113.493 263.492 112.952 263.705C112.412 263.917 111.799 264.023 111.113 264.023ZM111.128 259.479C111.509 259.479 111.834 259.386 112.102 259.2C112.371 259.015 112.575 258.748 112.714 258.4C112.853 258.052 112.923 257.634 112.923 257.147C112.923 256.666 112.853 256.246 112.714 255.884C112.578 255.523 112.376 255.243 112.107 255.044C111.842 254.842 111.516 254.741 111.128 254.741C110.727 254.741 110.392 254.845 110.124 255.054C109.855 255.263 109.653 255.549 109.517 255.914C109.381 256.275 109.313 256.686 109.313 257.147C109.313 257.614 109.381 258.024 109.517 258.375C109.656 258.723 109.86 258.995 110.129 259.19C110.4 259.383 110.733 259.479 111.128 259.479ZM122.212 261.154C121.728 261.154 121.292 261.068 120.904 260.896C120.52 260.72 120.215 260.461 119.99 260.12C119.768 259.779 119.657 259.358 119.657 258.857C119.657 258.426 119.736 258.07 119.895 257.788C120.054 257.507 120.271 257.281 120.547 257.112C120.822 256.943 121.132 256.816 121.476 256.729C121.824 256.64 122.184 256.575 122.555 256.536C123.002 256.489 123.365 256.448 123.644 256.411C123.922 256.371 124.124 256.312 124.25 256.232C124.38 256.149 124.444 256.022 124.444 255.849V255.82C124.444 255.445 124.333 255.155 124.111 254.95C123.889 254.744 123.569 254.641 123.152 254.641C122.711 254.641 122.361 254.737 122.103 254.93C121.847 255.122 121.675 255.349 121.586 255.611L119.905 255.372C120.038 254.908 120.257 254.52 120.561 254.209C120.866 253.894 121.239 253.659 121.68 253.503C122.121 253.344 122.608 253.264 123.142 253.264C123.51 253.264 123.876 253.307 124.24 253.393C124.605 253.48 124.938 253.622 125.24 253.821C125.541 254.017 125.783 254.283 125.966 254.621C126.151 254.96 126.244 255.382 126.244 255.889V261H124.514V259.951H124.454C124.345 260.163 124.191 260.362 123.992 260.548C123.796 260.73 123.549 260.877 123.251 260.99C122.956 261.099 122.61 261.154 122.212 261.154ZM122.679 259.832C123.041 259.832 123.354 259.76 123.619 259.618C123.884 259.472 124.088 259.28 124.23 259.041C124.376 258.803 124.449 258.542 124.449 258.261V257.361C124.393 257.407 124.297 257.45 124.161 257.49C124.028 257.53 123.879 257.565 123.713 257.594C123.548 257.624 123.384 257.651 123.221 257.674C123.059 257.697 122.918 257.717 122.799 257.734C122.53 257.77 122.29 257.83 122.078 257.913C121.866 257.996 121.698 258.112 121.576 258.261C121.453 258.406 121.392 258.595 121.392 258.827C121.392 259.159 121.513 259.409 121.755 259.578C121.997 259.747 122.305 259.832 122.679 259.832ZM131.867 253.364V254.756H127.477V253.364H131.867ZM128.561 251.534H130.36V258.703C130.36 258.945 130.397 259.131 130.47 259.26C130.546 259.386 130.645 259.472 130.768 259.518C130.891 259.565 131.027 259.588 131.176 259.588C131.288 259.588 131.391 259.58 131.484 259.563C131.58 259.547 131.653 259.532 131.703 259.518L132.006 260.925C131.91 260.959 131.772 260.995 131.593 261.035C131.418 261.075 131.202 261.098 130.947 261.104C130.496 261.118 130.09 261.05 129.729 260.901C129.368 260.748 129.081 260.513 128.869 260.195C128.66 259.876 128.557 259.479 128.561 259.001V251.534Z" fill="#222222"/>
<g clip-path="url(#clip4_635_3051)">
<path d="M32 278C32 275.791 33.7909 274 36 274H464C466.209 274 468 275.791 468 278V314C468 316.209 466.209 318 464 318H36C33.7909 318 32 316.209 32 314V278Z" fill="white"/>
<path d="M48.375 301.139C47.6259 301.139 46.9879 300.935 46.4609 300.528C45.9339 300.117 45.5313 299.522 45.2528 298.743C44.9744 297.961 44.8352 297.016 44.8352 295.909C44.8352 294.809 44.9744 293.869 45.2528 293.09C45.5346 292.308 45.9389 291.711 46.4659 291.3C46.9962 290.886 47.6326 290.679 48.375 290.679C49.1174 290.679 49.7521 290.886 50.2791 291.3C50.8094 291.711 51.2138 292.308 51.4922 293.09C51.7739 293.869 51.9148 294.809 51.9148 295.909C51.9148 297.016 51.7756 297.961 51.4972 298.743C51.2188 299.522 50.8161 300.117 50.2891 300.528C49.7621 300.935 49.1241 301.139 48.375 301.139ZM48.375 300.045C49.1174 300.045 49.6941 299.687 50.1051 298.972C50.5161 298.256 50.7216 297.235 50.7216 295.909C50.7216 295.027 50.6271 294.277 50.4382 293.657C50.2526 293.037 49.9841 292.565 49.6328 292.24C49.2848 291.915 48.8655 291.753 48.375 291.753C47.6392 291.753 47.0642 292.116 46.6499 292.842C46.2356 293.564 46.0284 294.587 46.0284 295.909C46.0284 296.791 46.1212 297.54 46.3068 298.156C46.4924 298.773 46.7592 299.242 47.1072 299.563C47.4586 299.885 47.8812 300.045 48.375 300.045ZM57.125 301.139C56.3759 301.139 55.7379 300.935 55.2109 300.528C54.6839 300.117 54.2813 299.522 54.0028 298.743C53.7244 297.961 53.5852 297.016 53.5852 295.909C53.5852 294.809 53.7244 293.869 54.0028 293.09C54.2846 292.308 54.6889 291.711 55.2159 291.3C55.7462 290.886 56.3826 290.679 57.125 290.679C57.8674 290.679 58.5021 290.886 59.0291 291.3C59.5594 291.711 59.9638 292.308 60.2422 293.09C60.5239 293.869 60.6648 294.809 60.6648 295.909C60.6648 297.016 60.5256 297.961 60.2472 298.743C59.9688 299.522 59.5661 300.117 59.0391 300.528C58.5121 300.935 57.8741 301.139 57.125 301.139ZM57.125 300.045C57.8674 300.045 58.4441 299.687 58.8551 298.972C59.2661 298.256 59.4716 297.235 59.4716 295.909C59.4716 295.027 59.3771 294.277 59.1882 293.657C59.0026 293.037 58.7341 292.565 58.3828 292.24C58.0348 291.915 57.6155 291.753 57.125 291.753C56.3892 291.753 55.8142 292.116 55.3999 292.842C54.9856 293.564 54.7784 294.587 54.7784 295.909C54.7784 296.791 54.8712 297.54 55.0568 298.156C55.2424 298.773 55.5092 299.242 55.8572 299.563C56.2086 299.885 56.6312 300.045 57.125 300.045ZM63.429 299.697C63.1837 299.697 62.9732 299.61 62.7976 299.434C62.6219 299.258 62.5341 299.048 62.5341 298.803C62.5341 298.557 62.6219 298.347 62.7976 298.171C62.9732 297.996 63.1837 297.908 63.429 297.908C63.6742 297.908 63.8847 297.996 64.0604 298.171C64.236 298.347 64.3239 298.557 64.3239 298.803C64.3239 298.965 64.2824 299.114 64.1996 299.25C64.12 299.386 64.0123 299.495 63.8764 299.578C63.7438 299.658 63.5947 299.697 63.429 299.697ZM63.429 294.547C63.1837 294.547 62.9732 294.459 62.7976 294.283C62.6219 294.108 62.5341 293.897 62.5341 293.652C62.5341 293.407 62.6219 293.196 62.7976 293.021C62.9732 292.845 63.1837 292.757 63.429 292.757C63.6742 292.757 63.8847 292.845 64.0604 293.021C64.236 293.196 64.3239 293.407 64.3239 293.652C64.3239 293.814 64.2824 293.964 64.1996 294.099C64.12 294.235 64.0123 294.345 63.8764 294.428C63.7438 294.507 63.5947 294.547 63.429 294.547ZM69.7305 301.139C68.9814 301.139 68.3434 300.935 67.8164 300.528C67.2894 300.117 66.8867 299.522 66.6083 298.743C66.3299 297.961 66.1907 297.016 66.1907 295.909C66.1907 294.809 66.3299 293.869 66.6083 293.09C66.89 292.308 67.2944 291.711 67.8214 291.3C68.3517 290.886 68.988 290.679 69.7305 290.679C70.4729 290.679 71.1076 290.886 71.6346 291.3C72.1649 291.711 72.5692 292.308 72.8477 293.09C73.1294 293.869 73.2702 294.809 73.2702 295.909C73.2702 297.016 73.131 297.961 72.8526 298.743C72.5742 299.522 72.1715 300.117 71.6445 300.528C71.1175 300.935 70.4795 301.139 69.7305 301.139ZM69.7305 300.045C70.4729 300.045 71.0496 299.687 71.4606 298.972C71.8716 298.256 72.0771 297.235 72.0771 295.909C72.0771 295.027 71.9826 294.277 71.7937 293.657C71.6081 293.037 71.3396 292.565 70.9883 292.24C70.6403 291.915 70.221 291.753 69.7305 291.753C68.9947 291.753 68.4196 292.116 68.0053 292.842C67.591 293.564 67.3839 294.587 67.3839 295.909C67.3839 296.791 67.4767 297.54 67.6623 298.156C67.8479 298.773 68.1147 299.242 68.4627 299.563C68.814 299.885 69.2366 300.045 69.7305 300.045ZM78.739 290.818V301H77.506V292.111H77.4464L74.9606 293.761V292.509L77.506 290.818H78.739ZM85.7837 301V290.818H89.2241C90.0228 290.818 90.6758 290.962 91.1829 291.251C91.6933 291.536 92.0711 291.922 92.3164 292.409C92.5617 292.896 92.6843 293.44 92.6843 294.04C92.6843 294.64 92.5617 295.185 92.3164 295.675C92.0745 296.166 91.6999 296.557 91.1928 296.849C90.6857 297.137 90.0361 297.281 89.244 297.281H86.7781V296.188H89.2042C89.7511 296.188 90.1902 296.093 90.5217 295.904C90.8531 295.715 91.0934 295.46 91.2425 295.138C91.395 294.814 91.4712 294.447 91.4712 294.04C91.4712 293.632 91.395 293.268 91.2425 292.946C91.0934 292.625 90.8514 292.373 90.5167 292.19C90.1819 292.005 89.7378 291.912 89.1843 291.912H87.0167V301H85.7837ZM100.239 293.364C100.179 292.86 99.937 292.469 99.5128 292.19C99.0885 291.912 98.5682 291.773 97.9517 291.773C97.5009 291.773 97.1065 291.846 96.7685 291.991C96.4337 292.137 96.1719 292.338 95.983 292.593C95.7973 292.848 95.7045 293.138 95.7045 293.463C95.7045 293.735 95.7692 293.969 95.8984 294.164C96.031 294.356 96.2 294.517 96.4055 294.646C96.611 294.772 96.8265 294.877 97.0518 294.96C97.2772 295.039 97.4844 295.104 97.6733 295.153L98.7074 295.432C98.9725 295.501 99.2675 295.598 99.5923 295.72C99.9205 295.843 100.234 296.01 100.532 296.222C100.834 296.431 101.082 296.7 101.278 297.028C101.473 297.356 101.571 297.759 101.571 298.236C101.571 298.786 101.427 299.283 101.138 299.727C100.853 300.171 100.436 300.524 99.8857 300.786C99.3388 301.048 98.6742 301.179 97.892 301.179C97.1629 301.179 96.5315 301.061 95.9979 300.826C95.4676 300.591 95.05 300.263 94.745 299.842C94.4434 299.421 94.2727 298.932 94.233 298.375H95.5057C95.5388 298.759 95.6681 299.078 95.8935 299.33C96.1222 299.578 96.4105 299.764 96.7585 299.886C97.1098 300.006 97.4877 300.065 97.892 300.065C98.3627 300.065 98.7853 299.989 99.1598 299.837C99.5343 299.681 99.831 299.465 100.05 299.19C100.268 298.912 100.378 298.587 100.378 298.216C100.378 297.878 100.283 297.603 100.094 297.391C99.9055 297.179 99.657 297.006 99.3487 296.874C99.0405 296.741 98.7074 296.625 98.3494 296.526L97.0966 296.168C96.3011 295.939 95.6714 295.612 95.2074 295.188C94.7434 294.764 94.5114 294.209 94.5114 293.523C94.5114 292.953 94.6655 292.455 94.9737 292.031C95.2853 291.604 95.7029 291.272 96.2266 291.037C96.7536 290.798 97.3419 290.679 97.9915 290.679C98.6477 290.679 99.2311 290.797 99.7415 291.032C100.252 291.264 100.656 291.582 100.955 291.987C101.256 292.391 101.415 292.85 101.432 293.364H100.239ZM103.041 291.912V290.818H110.678V291.912H107.476V301H106.243V291.912H103.041ZM116.777 295.909C116.777 294.656 116.939 293.504 117.264 292.454C117.592 291.4 118.059 290.43 118.666 289.545H119.7C119.461 289.874 119.238 290.278 119.029 290.759C118.823 291.236 118.643 291.761 118.487 292.335C118.331 292.905 118.208 293.495 118.119 294.104C118.033 294.714 117.99 295.316 117.99 295.909C117.99 296.698 118.066 297.498 118.218 298.31C118.371 299.122 118.576 299.876 118.835 300.572C119.093 301.268 119.382 301.835 119.7 302.273H118.666C118.059 301.388 117.592 300.42 117.264 299.369C116.939 298.315 116.777 297.162 116.777 295.909ZM128.272 290.818H129.505V297.56C129.505 298.256 129.341 298.877 129.013 299.424C128.688 299.968 128.229 300.397 127.636 300.712C127.043 301.023 126.347 301.179 125.548 301.179C124.749 301.179 124.053 301.023 123.46 300.712C122.866 300.397 122.406 299.968 122.078 299.424C121.753 298.877 121.59 298.256 121.59 297.56V290.818H122.823V297.46C122.823 297.957 122.933 298.4 123.151 298.788C123.37 299.172 123.682 299.475 124.086 299.697C124.494 299.916 124.981 300.026 125.548 300.026C126.115 300.026 126.602 299.916 127.009 299.697C127.417 299.475 127.729 299.172 127.944 298.788C128.163 298.4 128.272 297.957 128.272 297.46V290.818ZM131.411 291.912V290.818H139.047V291.912H135.845V301H134.612V291.912H131.411ZM148.719 294H147.486C147.413 293.645 147.286 293.334 147.103 293.065C146.924 292.797 146.706 292.571 146.447 292.389C146.192 292.204 145.908 292.064 145.597 291.972C145.285 291.879 144.961 291.832 144.623 291.832C144.006 291.832 143.448 291.988 142.947 292.3C142.45 292.611 142.054 293.07 141.759 293.677C141.467 294.283 141.321 295.027 141.321 295.909C141.321 296.791 141.467 297.535 141.759 298.141C142.054 298.748 142.45 299.207 142.947 299.518C143.448 299.83 144.006 299.986 144.623 299.986C144.961 299.986 145.285 299.939 145.597 299.847C145.908 299.754 146.192 299.616 146.447 299.434C146.706 299.248 146.924 299.021 147.103 298.753C147.286 298.481 147.413 298.17 147.486 297.818H148.719C148.626 298.339 148.457 298.804 148.212 299.215C147.967 299.626 147.662 299.976 147.297 300.264C146.933 300.549 146.523 300.766 146.069 300.915C145.618 301.065 145.136 301.139 144.623 301.139C143.754 301.139 142.982 300.927 142.306 300.503C141.63 300.079 141.098 299.475 140.71 298.693C140.322 297.911 140.128 296.983 140.128 295.909C140.128 294.835 140.322 293.907 140.71 293.125C141.098 292.343 141.63 291.74 142.306 291.315C142.982 290.891 143.754 290.679 144.623 290.679C145.136 290.679 145.618 290.754 146.069 290.903C146.523 291.052 146.933 291.271 147.297 291.559C147.662 291.844 147.967 292.192 148.212 292.603C148.457 293.011 148.626 293.476 148.719 294ZM154.927 295.362V296.456H150.473V295.362H154.927ZM160.293 301.139C159.544 301.139 158.906 300.935 158.379 300.528C157.852 300.117 157.449 299.522 157.171 298.743C156.892 297.961 156.753 297.016 156.753 295.909C156.753 294.809 156.892 293.869 157.171 293.09C157.453 292.308 157.857 291.711 158.384 291.3C158.914 290.886 159.551 290.679 160.293 290.679C161.035 290.679 161.67 290.886 162.197 291.3C162.727 291.711 163.132 292.308 163.41 293.09C163.692 293.869 163.833 294.809 163.833 295.909C163.833 297.016 163.694 297.961 163.415 298.743C163.137 299.522 162.734 300.117 162.207 300.528C161.68 300.935 161.042 301.139 160.293 301.139ZM160.293 300.045C161.035 300.045 161.612 299.687 162.023 298.972C162.434 298.256 162.64 297.235 162.64 295.909C162.64 295.027 162.545 294.277 162.356 293.657C162.171 293.037 161.902 292.565 161.551 292.24C161.203 291.915 160.783 291.753 160.293 291.753C159.557 291.753 158.982 292.116 158.568 292.842C158.154 293.564 157.946 294.587 157.946 295.909C157.946 296.791 158.039 297.54 158.225 298.156C158.41 298.773 158.677 299.242 159.025 299.563C159.377 299.885 159.799 300.045 160.293 300.045ZM168.983 301.139C168.301 301.139 167.697 301.018 167.174 300.776C166.653 300.531 166.247 300.195 165.956 299.767C165.664 299.336 165.52 298.846 165.523 298.295C165.52 297.865 165.604 297.467 165.777 297.102C165.949 296.734 166.184 296.428 166.483 296.183C166.784 295.934 167.121 295.777 167.492 295.71V295.651C167.005 295.525 166.617 295.251 166.328 294.83C166.04 294.406 165.898 293.924 165.901 293.384C165.898 292.866 166.029 292.404 166.294 291.996C166.559 291.589 166.923 291.267 167.387 291.032C167.855 290.797 168.387 290.679 168.983 290.679C169.573 290.679 170.1 290.797 170.564 291.032C171.028 291.267 171.393 291.589 171.658 291.996C171.926 292.404 172.062 292.866 172.066 293.384C172.062 293.924 171.915 294.406 171.623 294.83C171.335 295.251 170.952 295.525 170.475 295.651V295.71C170.843 295.777 171.174 295.934 171.469 296.183C171.764 296.428 171.999 296.734 172.175 297.102C172.351 297.467 172.44 297.865 172.444 298.295C172.44 298.846 172.291 299.336 171.996 299.767C171.704 300.195 171.298 300.531 170.778 300.776C170.261 301.018 169.663 301.139 168.983 301.139ZM168.983 300.045C169.444 300.045 169.842 299.971 170.176 299.822C170.511 299.673 170.77 299.462 170.952 299.19C171.134 298.919 171.227 298.6 171.23 298.236C171.227 297.851 171.128 297.512 170.932 297.217C170.737 296.922 170.47 296.69 170.132 296.521C169.797 296.352 169.414 296.267 168.983 296.267C168.549 296.267 168.161 296.352 167.82 296.521C167.482 296.69 167.215 296.922 167.02 297.217C166.827 297.512 166.733 297.851 166.736 298.236C166.733 298.6 166.821 298.919 167 299.19C167.182 299.462 167.442 299.673 167.78 299.822C168.118 299.971 168.519 300.045 168.983 300.045ZM168.983 295.213C169.348 295.213 169.671 295.14 169.953 294.994C170.238 294.848 170.462 294.645 170.624 294.383C170.786 294.121 170.869 293.814 170.873 293.463C170.869 293.118 170.788 292.818 170.629 292.563C170.47 292.305 170.249 292.106 169.968 291.967C169.686 291.824 169.358 291.753 168.983 291.753C168.602 291.753 168.269 291.824 167.984 291.967C167.699 292.106 167.479 292.305 167.323 292.563C167.167 292.818 167.091 293.118 167.094 293.463C167.091 293.814 167.169 294.121 167.328 294.383C167.49 294.645 167.714 294.848 167.999 294.994C168.284 295.14 168.612 295.213 168.983 295.213ZM176.874 295.909C176.874 297.162 176.71 298.315 176.382 299.369C176.057 300.42 175.592 301.388 174.985 302.273H173.951C174.19 301.945 174.412 301.54 174.617 301.06C174.826 300.582 175.008 300.059 175.164 299.489C175.32 298.915 175.441 298.324 175.527 297.714C175.617 297.101 175.661 296.499 175.661 295.909C175.661 295.12 175.585 294.32 175.433 293.508C175.28 292.696 175.075 291.942 174.816 291.246C174.558 290.55 174.269 289.983 173.951 289.545H174.985C175.592 290.43 176.057 291.4 176.382 292.454C176.71 293.504 176.874 294.656 176.874 295.909Z" fill="#494A4C"/>
<path d="M443.281 299.719L439.281 295.719C439 295.438 438.906 295 439.062 294.625C439.219 294.25 439.594 294 440 294H448C448.406 294 448.75 294.25 448.906 294.625C449.062 295 448.969 295.438 448.688 295.719L444.688 299.719C444.312 300.125 443.656 300.125 443.281 299.719Z" fill="#626366"/>
</g>
<path d="M36 274.5H464C465.933 274.5 467.5 276.067 467.5 278V314C467.5 315.933 465.933 317.5 464 317.5H36C34.067 317.5 32.5 315.933 32.5 314V278C32.5 276.067 34.067 274.5 36 274.5Z" stroke="#D0D3D9"/>
</g>
<defs>
<clipPath id="clip0_635_3051">
<rect width="500" height="350" rx="8" fill="white"/>
</clipPath>
<clipPath id="clip1_635_3051">
<rect width="20" height="20" fill="white" transform="translate(32 162)"/>
</clipPath>
<clipPath id="clip2_635_3051">
<path d="M32 194C32 191.791 33.7909 190 36 190H464C466.209 190 468 191.791 468 194V230C468 232.209 466.209 234 464 234H36C33.7909 234 32 232.209 32 230V194Z" fill="white"/>
</clipPath>
<clipPath id="clip3_635_3051">
<rect width="20" height="20" fill="white" transform="translate(32 246)"/>
</clipPath>
<clipPath id="clip4_635_3051">
<path d="M32 278C32 275.791 33.7909 274 36 274H464C466.209 274 468 275.791 468 278V314C468 316.209 466.209 318 464 318H36C33.7909 318 32 316.209 32 314V278Z" fill="white"/>
</clipPath>
</defs>
</svg>
