<svg width="500" height="350" viewBox="0 0 500 350" fill="none" xmlns="http://www.w3.org/2000/svg">
<rect width="500" height="350" rx="8" fill="white"/>
<path d="M41.7965 42.4531C41.7302 41.8329 41.4509 41.3499 40.9585 41.0043C40.4708 40.6586 39.8363 40.4858 39.055 40.4858C38.5058 40.4858 38.0347 40.5687 37.6417 40.7344C37.2487 40.9001 36.948 41.125 36.7397 41.4091C36.5314 41.6932 36.4248 42.0175 36.4201 42.3821C36.4201 42.6851 36.4888 42.9479 36.6261 43.1705C36.7681 43.393 36.9599 43.5824 37.2013 43.7386C37.4428 43.8902 37.7103 44.018 38.0039 44.1222C38.2975 44.2263 38.5934 44.3139 38.8917 44.3849L40.2553 44.7259C40.8046 44.8537 41.3325 45.0265 41.8391 45.2443C42.3505 45.4621 42.8074 45.7367 43.2099 46.0682C43.6171 46.3996 43.939 46.7997 44.1758 47.2685C44.4125 47.7372 44.5309 48.2865 44.5309 48.9162C44.5309 49.7685 44.3131 50.5189 43.8775 51.1676C43.4419 51.8116 42.8121 52.3158 41.9883 52.6804C41.1692 53.0402 40.1772 53.2202 39.0124 53.2202C37.8808 53.2202 36.8983 53.045 36.065 52.6946C35.2364 52.3442 34.5877 51.8329 34.119 51.1605C33.6549 50.4882 33.404 49.669 33.3661 48.7031H35.9585C35.9963 49.2098 36.1526 49.6312 36.4272 49.9673C36.7018 50.3035 37.0593 50.5545 37.4996 50.7202C37.9447 50.8859 38.4419 50.9688 38.9911 50.9688C39.564 50.9688 40.0659 50.8835 40.4968 50.7131C40.9324 50.5379 41.2733 50.2964 41.5195 49.9886C41.7657 49.6761 41.8912 49.3116 41.896 48.8949C41.8912 48.5161 41.7799 48.2036 41.5621 47.9574C41.3443 47.7064 41.0389 47.4981 40.646 47.3324C40.2577 47.1619 39.8031 47.0104 39.2823 46.8778L37.6275 46.4517C36.4296 46.1439 35.4826 45.6776 34.7866 45.0526C34.0953 44.4228 33.7496 43.5871 33.7496 42.5455C33.7496 41.6884 33.9817 40.938 34.4457 40.294C34.9144 39.6501 35.5513 39.1506 36.3562 38.7955C37.1611 38.4356 38.0726 38.2557 39.0906 38.2557C40.1228 38.2557 41.0271 38.4356 41.8036 38.7955C42.5849 39.1506 43.198 39.6454 43.6431 40.2798C44.0882 40.9096 44.3178 41.634 44.332 42.4531H41.7965ZM51.5249 53.2131C50.4358 53.2131 49.5007 52.974 48.7195 52.4957C47.9429 52.0175 47.344 51.357 46.9226 50.5142C46.5059 49.6667 46.2976 48.6913 46.2976 47.5881C46.2976 46.4801 46.5107 45.5024 46.9368 44.6548C47.3629 43.8026 47.9643 43.1397 48.7408 42.6662C49.522 42.188 50.4453 41.9489 51.5107 41.9489C52.3961 41.9489 53.1797 42.1122 53.8615 42.4389C54.5481 42.7609 55.0949 43.2178 55.5021 43.8097C55.9093 44.3968 56.1413 45.0833 56.1982 45.8693H53.7408C53.6413 45.3437 53.4046 44.9058 53.0305 44.5554C52.6612 44.2003 52.1664 44.0227 51.5462 44.0227C51.0206 44.0227 50.5589 44.1648 50.1612 44.4489C49.7635 44.7282 49.4534 45.1307 49.2308 45.6562C49.013 46.1818 48.9041 46.8116 48.9041 47.5455C48.9041 48.2888 49.013 48.928 49.2308 49.4631C49.4486 49.9934 49.754 50.4029 50.147 50.6918C50.5447 50.9759 51.0111 51.1179 51.5462 51.1179C51.925 51.1179 52.2635 51.0469 52.5618 50.9048C52.8648 50.758 53.1181 50.5473 53.3217 50.2727C53.5253 49.9981 53.665 49.6643 53.7408 49.2713H56.1982C56.1366 50.0431 55.9093 50.7273 55.5163 51.3239C55.1233 51.9157 54.5883 52.3797 53.9112 52.7159C53.2341 53.0473 52.4387 53.2131 51.5249 53.2131ZM60.8803 46.608V53H58.3093V38.4545H60.8235V43.9446H60.9513C61.207 43.3291 61.6024 42.8437 62.1374 42.4886C62.6772 42.1288 63.3638 41.9489 64.1971 41.9489C64.9547 41.9489 65.6152 42.1075 66.1786 42.4247C66.7421 42.742 67.1777 43.206 67.4854 43.8168C67.7979 44.4276 67.9542 45.1733 67.9542 46.054V53H65.3832V46.4517C65.3832 45.7178 65.1938 45.1473 64.815 44.7401C64.4409 44.3281 63.9154 44.1222 63.2383 44.1222C62.7837 44.1222 62.3765 44.2216 62.0167 44.4205C61.6616 44.6146 61.3822 44.8963 61.1786 45.2656C60.9798 45.6349 60.8803 46.0824 60.8803 46.608ZM75.4045 53.2131C74.3107 53.2131 73.3661 52.9858 72.5707 52.5312C71.7799 52.072 71.1715 51.4233 70.7454 50.5852C70.3192 49.7424 70.1062 48.7505 70.1062 47.6094C70.1062 46.4872 70.3192 45.5024 70.7454 44.6548C71.1763 43.8026 71.7776 43.1397 72.5494 42.6662C73.3211 42.188 74.2279 41.9489 75.2695 41.9489C75.9419 41.9489 76.5763 42.0578 77.1729 42.2756C77.7743 42.4886 78.3046 42.8201 78.7638 43.2699C79.2279 43.7197 79.5924 44.2926 79.8576 44.9886C80.1228 45.6799 80.2553 46.5038 80.2553 47.4602V48.2486H71.3136V46.5156H77.7908C77.7861 46.0232 77.6796 45.5852 77.4712 45.2017C77.2629 44.8134 76.9717 44.508 76.5977 44.2855C76.2283 44.063 75.7975 43.9517 75.305 43.9517C74.7795 43.9517 74.3178 44.0795 73.9201 44.3352C73.5224 44.5862 73.2122 44.9176 72.9897 45.3295C72.7719 45.7367 72.6606 46.1842 72.6559 46.6719V48.1847C72.6559 48.8191 72.7719 49.3636 73.0039 49.8182C73.2359 50.268 73.5603 50.6136 73.9769 50.8551C74.3936 51.0919 74.8813 51.2102 75.44 51.2102C75.814 51.2102 76.1526 51.1581 76.4556 51.054C76.7586 50.9451 77.0214 50.7865 77.244 50.5781C77.4665 50.3698 77.6346 50.1117 77.7482 49.804L80.1488 50.0739C79.9973 50.7083 79.7085 51.2623 79.2823 51.7358C78.8609 52.2045 78.3211 52.5691 77.663 52.8295C77.0049 53.0852 76.252 53.2131 75.4045 53.2131ZM82.4304 53V42.0909H84.8878V43.9446H85.0156C85.2429 43.3196 85.6193 42.8319 86.1449 42.4815C86.6705 42.1264 87.2978 41.9489 88.027 41.9489C88.7656 41.9489 89.3883 42.1288 89.8949 42.4886C90.4063 42.8437 90.7661 43.3291 90.9744 43.9446H91.0881C91.3295 43.3385 91.7367 42.8556 92.3097 42.4957C92.8873 42.1312 93.5715 41.9489 94.3622 41.9489C95.366 41.9489 96.1851 42.2661 96.8196 42.9006C97.4541 43.535 97.7713 44.4607 97.7713 45.6776V53H95.1932V46.0753C95.1932 45.3982 95.0133 44.9034 94.6534 44.5909C94.2936 44.2737 93.8532 44.1151 93.3324 44.1151C92.7121 44.1151 92.2268 44.3092 91.8764 44.6974C91.5308 45.081 91.358 45.5805 91.358 46.196V53H88.8366V45.9688C88.8366 45.4053 88.6662 44.9555 88.3253 44.6193C87.9891 44.2831 87.5488 44.1151 87.0043 44.1151C86.6349 44.1151 86.2988 44.2098 85.9957 44.3991C85.6927 44.5838 85.4512 44.8466 85.2713 45.1875C85.0914 45.5237 85.0014 45.9167 85.0014 46.3665V53H82.4304ZM103.519 53.2202C102.828 53.2202 102.205 53.0971 101.651 52.8509C101.102 52.5999 100.666 52.2306 100.344 51.7429C100.027 51.2552 99.8683 50.6539 99.8683 49.9389C99.8683 49.3234 99.9819 48.8144 100.209 48.4119C100.436 48.0095 100.747 47.6875 101.14 47.446C101.533 47.2045 101.975 47.0223 102.468 46.8991C102.965 46.7713 103.479 46.679 104.009 46.6222C104.648 46.5559 105.167 46.4967 105.564 46.4446C105.962 46.3878 106.251 46.3026 106.431 46.1889C106.615 46.0705 106.708 45.8883 106.708 45.642V45.5994C106.708 45.0644 106.549 44.6501 106.232 44.3565C105.915 44.063 105.458 43.9162 104.861 43.9162C104.231 43.9162 103.732 44.0535 103.363 44.3281C102.998 44.6027 102.752 44.9271 102.624 45.3011L100.223 44.9602C100.413 44.2973 100.725 43.7434 101.161 43.2983C101.596 42.8485 102.129 42.5123 102.759 42.2898C103.389 42.0625 104.085 41.9489 104.847 41.9489C105.373 41.9489 105.896 42.0104 106.417 42.1335C106.937 42.2566 107.413 42.4602 107.844 42.7443C108.275 43.0237 108.621 43.4048 108.881 43.8878C109.146 44.3707 109.279 44.9744 109.279 45.6989V53H106.807V51.5014H106.722C106.566 51.8045 106.346 52.0885 106.061 52.3537C105.782 52.6141 105.429 52.8248 105.003 52.9858C104.582 53.142 104.087 53.2202 103.519 53.2202ZM104.186 51.331C104.703 51.331 105.15 51.2292 105.529 51.0256C105.908 50.8172 106.199 50.5426 106.402 50.2017C106.611 49.8608 106.715 49.4891 106.715 49.0866V47.8011C106.634 47.8674 106.497 47.929 106.303 47.9858C106.114 48.0426 105.9 48.0923 105.664 48.1349C105.427 48.1776 105.193 48.2154 104.961 48.2486C104.729 48.2817 104.527 48.3101 104.357 48.3338C103.973 48.3859 103.63 48.4711 103.327 48.5895C103.024 48.7079 102.785 48.8736 102.61 49.0866C102.435 49.295 102.347 49.5649 102.347 49.8963C102.347 50.3698 102.52 50.7273 102.865 50.9688C103.211 51.2102 103.651 51.331 104.186 51.331Z" fill="black"/>
<rect width="436" height="38.6497" transform="translate(32 72)" fill="white"/>
<path d="M35.8717 94.3306L32.3749 90.8337C32.129 90.5879 32.047 90.2054 32.1836 89.8776C32.3202 89.5497 32.648 89.3312 33.0032 89.3312H39.9968C40.352 89.3312 40.6525 89.5497 40.7891 89.8776C40.9257 90.2054 40.8437 90.5879 40.5978 90.8337L37.101 94.3306C36.7732 94.6857 36.1995 94.6857 35.8717 94.3306Z" fill="#222222"/>
<path d="M53.5631 88.6885V90.0805H49.0489V88.6885H53.5631ZM50.1775 96.3248V87.9676C50.1775 87.4539 50.2835 87.0263 50.4956 86.6849C50.7111 86.3435 50.9994 86.0883 51.3607 85.9193C51.722 85.7503 52.123 85.6657 52.5638 85.6657C52.8754 85.6657 53.1521 85.6906 53.3941 85.7403C53.636 85.79 53.815 85.8348 53.931 85.8745L53.5731 87.2666C53.4968 87.2434 53.4007 87.2202 53.2847 87.197C53.1687 87.1705 53.0394 87.1572 52.8969 87.1572C52.5622 87.1572 52.3252 87.2384 52.186 87.4008C52.0501 87.5599 51.9822 87.7886 51.9822 88.0869V96.3248H50.1775ZM54.9726 96.3248V88.6885H56.7723V96.3248H54.9726ZM55.8774 87.6047C55.5924 87.6047 55.3471 87.5102 55.1416 87.3213C54.9361 87.129 54.8334 86.8987 54.8334 86.6302C54.8334 86.3584 54.9361 86.1281 55.1416 85.9392C55.3471 85.7469 55.5924 85.6508 55.8774 85.6508C56.1657 85.6508 56.411 85.7469 56.6132 85.9392C56.8187 86.1281 56.9214 86.3584 56.9214 86.6302C56.9214 86.8987 56.8187 87.129 56.6132 87.3213C56.411 87.5102 56.1657 87.6047 55.8774 87.6047ZM65.444 88.6885L62.7245 96.3248H60.7359L58.0164 88.6885H59.9355L61.6904 94.3611H61.77L63.5299 88.6885H65.444ZM69.8103 96.474C69.0447 96.474 68.3834 96.3149 67.8266 95.9967C67.2731 95.6752 66.8472 95.2211 66.5489 94.6345C66.2506 94.0445 66.1015 93.3502 66.1015 92.5514C66.1015 91.7659 66.2506 91.0765 66.5489 90.4832C66.8505 89.8866 67.2715 89.4226 67.8117 89.0912C68.3519 88.7564 68.9867 88.589 69.7158 88.589C70.1865 88.589 70.6306 88.6653 71.0482 88.8177C71.4691 88.9669 71.8403 89.1989 72.1618 89.5137C72.4867 89.8286 72.7419 90.2297 72.9275 90.7169C73.1131 91.2008 73.2059 91.7775 73.2059 92.447V92.9988H66.9466V91.7858H71.4807C71.4774 91.4411 71.4028 91.1345 71.257 90.866C71.1112 90.5942 70.9073 90.3805 70.6455 90.2247C70.387 90.0689 70.0854 89.991 69.7407 89.991C69.3728 89.991 69.0496 90.0805 68.7712 90.2595C68.4928 90.4352 68.2757 90.6672 68.1199 90.9555C67.9675 91.2405 67.8896 91.5538 67.8863 91.8951V92.9541C67.8863 93.3982 67.9675 93.7794 68.1299 94.0976C68.2923 94.4124 68.5193 94.6544 68.811 94.8234C69.1027 94.9891 69.444 95.072 69.8351 95.072C70.097 95.072 70.334 95.0355 70.5461 94.9626C70.7582 94.8864 70.9421 94.7753 71.0979 94.6295C71.2537 94.4837 71.3714 94.303 71.4509 94.0876L73.1313 94.2765C73.0252 94.7207 72.8231 95.1084 72.5248 95.4399C72.2298 95.768 71.8519 96.0232 71.3912 96.2055C70.9305 96.3845 70.4036 96.474 69.8103 96.474ZM78.5416 88.6885V90.0805H74.1517V88.6885H78.5416ZM75.2355 86.8589H77.0352V94.028C77.0352 94.2699 77.0717 94.4555 77.1446 94.5848C77.2209 94.7107 77.3203 94.7969 77.4429 94.8433C77.5655 94.8897 77.7014 94.9129 77.8506 94.9129C77.9633 94.9129 78.066 94.9046 78.1588 94.888C78.2549 94.8715 78.3279 94.8566 78.3776 94.8433L78.6808 96.2503C78.5847 96.2834 78.4472 96.3199 78.2682 96.3596C78.0925 96.3994 77.8771 96.4226 77.6219 96.4292C77.1711 96.4425 76.7651 96.3745 76.4039 96.2254C76.0426 96.0729 75.7559 95.8376 75.5438 95.5194C75.335 95.2012 75.2322 94.8035 75.2355 94.3262V86.8589ZM80.0468 96.3248V88.6885H81.7918V89.9612H81.8714C82.0106 89.5204 82.2492 89.1807 82.5873 88.942C82.9287 88.7001 83.3181 88.5791 83.7556 88.5791C83.855 88.5791 83.9661 88.5841 84.0887 88.594C84.2146 88.6006 84.319 88.6122 84.4019 88.6288V90.2843C84.3257 90.2578 84.2047 90.2346 84.039 90.2147C83.8766 90.1915 83.7191 90.1799 83.5667 90.1799C83.2385 90.1799 82.9436 90.2512 82.6817 90.3937C82.4232 90.5329 82.2194 90.7268 82.0702 90.9754C81.9211 91.224 81.8465 91.5107 81.8465 91.8355V96.3248H80.0468ZM87.6583 96.4789C87.1744 96.4789 86.7385 96.3928 86.3508 96.2204C85.9663 96.0448 85.6614 95.7862 85.436 95.4449C85.2139 95.1035 85.1029 94.6825 85.1029 94.1821C85.1029 93.7512 85.1824 93.3949 85.3415 93.1132C85.5006 92.8315 85.7177 92.6061 85.9928 92.437C86.2679 92.268 86.5778 92.1404 86.9225 92.0542C87.2705 91.9647 87.6301 91.9001 88.0013 91.8603C88.4488 91.8139 88.8117 91.7725 89.0901 91.7361C89.3685 91.6963 89.5707 91.6366 89.6966 91.5571C89.8259 91.4742 89.8905 91.3466 89.8905 91.1743V91.1444C89.8905 90.7699 89.7795 90.4799 89.5574 90.2744C89.3354 90.0689 89.0155 89.9662 88.5979 89.9662C88.1571 89.9662 87.8074 90.0623 87.5489 90.2545C87.2937 90.4468 87.1214 90.6738 87.0319 90.9356L85.3515 90.697C85.484 90.233 85.7028 89.8452 86.0077 89.5336C86.3126 89.2188 86.6855 88.9834 87.1263 88.8277C87.5671 88.6686 88.0544 88.589 88.588 88.589C88.9559 88.589 89.3221 88.6321 89.6867 88.7183C90.0513 88.8045 90.3844 88.947 90.686 89.1459C90.9876 89.3414 91.2296 89.6082 91.4118 89.9463C91.5974 90.2843 91.6903 90.7069 91.6903 91.214V96.3248H89.9601V95.2758H89.9005C89.7911 95.4879 89.637 95.6868 89.4381 95.8724C89.2426 96.0547 88.9956 96.2022 88.6974 96.3149C88.4024 96.4243 88.056 96.4789 87.6583 96.4789ZM88.1256 95.1565C88.4869 95.1565 88.8001 95.0852 89.0653 94.9427C89.3304 94.7969 89.5342 94.6047 89.6768 94.366C89.8226 94.1274 89.8955 93.8672 89.8955 93.5855V92.6856C89.8392 92.732 89.743 92.7751 89.6072 92.8149C89.4746 92.8547 89.3254 92.8895 89.1597 92.9193C88.994 92.9491 88.8299 92.9756 88.6675 92.9988C88.5051 93.022 88.3643 93.0419 88.2449 93.0585C87.9765 93.095 87.7362 93.1546 87.5241 93.2375C87.3119 93.3203 87.1446 93.4363 87.0219 93.5855C86.8993 93.7313 86.838 93.9202 86.838 94.1522C86.838 94.4837 86.959 94.7339 87.2009 94.903C87.4429 95.072 87.7511 95.1565 88.1256 95.1565ZM95.2996 91.8504V96.3248H93.4999V88.6885H95.2201V89.9861H95.3096C95.4852 89.5585 95.7653 89.2188 96.1498 88.9669C96.5376 88.715 97.0165 88.589 97.5866 88.589C98.1135 88.589 98.5726 88.7017 98.9637 88.9271C99.3581 89.1525 99.663 89.4789 99.8785 89.9065C100.097 90.3341 100.205 90.8528 100.202 91.4626V96.3248H98.4019V91.741C98.4019 91.2306 98.2693 90.8312 98.0042 90.5429C97.7423 90.2545 97.3794 90.1103 96.9154 90.1103C96.6005 90.1103 96.3205 90.1799 96.0752 90.3191C95.8332 90.455 95.6427 90.6522 95.5035 90.9108C95.3676 91.1693 95.2996 91.4825 95.2996 91.8504ZM107.674 96.3248V97.7616H101.097V96.3248H107.674ZM110.38 86.143V96.3248H108.58V86.143H110.38ZM115.561 96.474C114.816 96.474 114.169 96.3099 113.622 95.9818C113.076 95.6537 112.651 95.1946 112.35 94.6047C112.051 94.0147 111.902 93.3253 111.902 92.5365C111.902 91.7477 112.051 91.0566 112.35 90.4633C112.651 89.87 113.076 89.4093 113.622 89.0812C114.169 88.7531 114.816 88.589 115.561 88.589C116.307 88.589 116.953 88.7531 117.5 89.0812C118.047 89.4093 118.47 89.87 118.768 90.4633C119.07 91.0566 119.22 91.7477 119.22 92.5365C119.22 93.3253 119.07 94.0147 118.768 94.6047C118.47 95.1946 118.047 95.6537 117.5 95.9818C116.953 96.3099 116.307 96.474 115.561 96.474ZM115.571 95.0322C115.976 95.0322 116.314 94.9212 116.585 94.6991C116.857 94.4737 117.059 94.1721 117.192 93.7943C117.328 93.4164 117.396 92.9955 117.396 92.5315C117.396 92.0642 117.328 91.6416 117.192 91.2637C117.059 90.8826 116.857 90.5793 116.585 90.3539C116.314 90.1286 115.976 90.0159 115.571 90.0159C115.157 90.0159 114.812 90.1286 114.537 90.3539C114.265 90.5793 114.062 90.8826 113.926 91.2637C113.793 91.6416 113.727 92.0642 113.727 92.5315C113.727 92.9955 113.793 93.4164 113.926 93.7943C114.062 94.1721 114.265 94.4737 114.537 94.6991C114.812 94.9212 115.157 95.0322 115.571 95.0322ZM124.069 99.3476C123.423 99.3476 122.868 99.2597 122.403 99.0841C121.939 98.9117 121.567 98.6797 121.285 98.388C121.003 98.0964 120.808 97.7732 120.698 97.4186L122.319 97.0258C122.392 97.175 122.498 97.3225 122.637 97.4683C122.776 97.6174 122.964 97.7401 123.199 97.8362C123.438 97.9356 123.738 97.9853 124.099 97.9853C124.609 97.9853 125.032 97.8611 125.367 97.6125C125.701 97.3672 125.869 96.9628 125.869 96.3994V94.9527H125.779C125.686 95.1383 125.551 95.3289 125.372 95.5244C125.196 95.72 124.962 95.884 124.671 96.0166C124.382 96.1492 124.019 96.2155 123.582 96.2155C122.995 96.2155 122.463 96.0779 121.986 95.8028C121.512 95.5244 121.134 95.1101 120.852 94.5599C120.574 94.0064 120.435 93.3137 120.435 92.4818C120.435 91.6432 120.574 90.9356 120.852 90.3589C121.134 89.7789 121.514 89.3397 121.991 89.0414C122.468 88.7398 123 88.589 123.587 88.589C124.034 88.589 124.402 88.6653 124.69 88.8177C124.982 88.9669 125.214 89.1475 125.386 89.3596C125.559 89.5684 125.69 89.7656 125.779 89.9512H125.879V88.6885H127.653V96.4491C127.653 97.1021 127.498 97.6423 127.186 98.0699C126.875 98.4974 126.449 98.8173 125.908 99.0294C125.368 99.2415 124.755 99.3476 124.069 99.3476ZM124.084 94.8035C124.465 94.8035 124.79 94.7107 125.058 94.5251C125.327 94.3395 125.531 94.0727 125.67 93.7247C125.809 93.3767 125.879 92.9591 125.879 92.4718C125.879 91.9913 125.809 91.5703 125.67 91.2091C125.534 90.8478 125.332 90.5677 125.063 90.3689C124.798 90.1667 124.472 90.0656 124.084 90.0656C123.683 90.0656 123.348 90.17 123.08 90.3788C122.811 90.5876 122.609 90.8743 122.473 91.2389C122.337 91.6002 122.269 92.0111 122.269 92.4718C122.269 92.9392 122.337 93.3485 122.473 93.6998C122.612 94.0478 122.816 94.3196 123.085 94.5152C123.356 94.7074 123.689 94.8035 124.084 94.8035Z" fill="black"/>
<line x1="32" y1="110.261" x2="468" y2="110.261" stroke="#D0D3D9" stroke-width="0.77707"/>
<rect width="436" height="41.4701" transform="translate(32 110.65)" fill="white"/>
<path d="M51.4268 123.974C51.4268 121.765 53.2176 119.974 55.4268 119.974H63.8599C66.069 119.974 67.8599 121.765 67.8599 123.974V131.516C67.8599 133.725 66.069 135.516 63.8599 135.516H55.4268C53.2176 135.516 51.4268 133.725 51.4268 131.516V123.974Z" fill="#306BEA"/>
<path d="M63.541 125.462C63.7778 125.681 63.7778 126.063 63.541 126.282L58.8786 130.944C58.6601 131.181 58.2776 131.181 58.0591 130.944L55.7279 128.613C55.4911 128.395 55.4911 128.012 55.7279 127.794C55.9464 127.557 56.3289 127.557 56.5474 127.794L58.4779 129.706L62.7215 125.462C62.94 125.226 63.3225 125.226 63.541 125.462Z" fill="white"/>
<path d="M84.9967 138.134C84.2467 138.134 83.5782 138.005 82.991 137.747C82.4077 137.49 81.9437 137.132 81.599 136.673C81.2581 136.211 81.0725 135.675 81.0422 135.065H82.474C82.5043 135.44 82.6331 135.764 82.8604 136.037C83.0876 136.306 83.385 136.514 83.7524 136.662C84.1198 136.81 84.527 136.884 84.974 136.884C85.474 136.884 85.9172 136.796 86.3035 136.622C86.6899 136.448 86.9929 136.206 87.2126 135.895C87.4323 135.584 87.5422 135.224 87.5422 134.815C87.5422 134.387 87.4361 134.01 87.224 133.685C87.0119 133.355 86.7013 133.098 86.2922 132.912C85.8831 132.726 85.3831 132.634 84.7922 132.634H83.8604V131.384H84.7922C85.2543 131.384 85.6596 131.3 86.0081 131.134C86.3604 130.967 86.635 130.732 86.8319 130.429C87.0327 130.126 87.1331 129.77 87.1331 129.361C87.1331 128.967 87.046 128.624 86.8717 128.332C86.6975 128.041 86.4513 127.814 86.1331 127.651C85.8187 127.488 85.4475 127.406 85.0194 127.406C84.6179 127.406 84.2391 127.48 83.8831 127.628C83.5308 127.772 83.2429 127.982 83.0194 128.259C82.796 128.531 82.6747 128.861 82.6558 129.247H81.2922C81.3149 128.637 81.4986 128.103 81.8433 127.645C82.188 127.183 82.6388 126.823 83.1956 126.565C83.7562 126.308 84.3717 126.179 85.0422 126.179C85.7619 126.179 86.3793 126.325 86.8944 126.617C87.4096 126.904 87.8054 127.285 88.0819 127.759C88.3585 128.232 88.4967 128.743 88.4967 129.293C88.4967 129.948 88.3244 130.507 87.9797 130.969C87.6388 131.431 87.1747 131.751 86.5876 131.929V132.02C87.3225 132.141 87.8963 132.454 88.3092 132.957C88.7221 133.457 88.9285 134.077 88.9285 134.815C88.9285 135.448 88.7562 136.016 88.4115 136.52C88.0706 137.02 87.6047 137.414 87.0138 137.702C86.4229 137.99 85.7505 138.134 84.9967 138.134ZM95.1842 138.134C94.4342 138.134 93.7657 138.005 93.1785 137.747C92.5952 137.49 92.1312 137.132 91.7865 136.673C91.4456 136.211 91.26 135.675 91.2297 135.065H92.6615C92.6918 135.44 92.8206 135.764 93.0479 136.037C93.2751 136.306 93.5725 136.514 93.9399 136.662C94.3073 136.81 94.7145 136.884 95.1615 136.884C95.6615 136.884 96.1047 136.796 96.491 136.622C96.8774 136.448 97.1804 136.206 97.4001 135.895C97.6198 135.584 97.7297 135.224 97.7297 134.815C97.7297 134.387 97.6236 134.01 97.4115 133.685C97.1994 133.355 96.8888 133.098 96.4797 132.912C96.0706 132.726 95.5706 132.634 94.9797 132.634H94.0479V131.384H94.9797C95.4418 131.384 95.8471 131.3 96.1956 131.134C96.5479 130.967 96.8225 130.732 97.0194 130.429C97.2202 130.126 97.3206 129.77 97.3206 129.361C97.3206 128.967 97.2335 128.624 97.0592 128.332C96.885 128.041 96.6388 127.814 96.3206 127.651C96.0062 127.488 95.635 127.406 95.2069 127.406C94.8054 127.406 94.4266 127.48 94.0706 127.628C93.7183 127.772 93.4304 127.982 93.2069 128.259C92.9835 128.531 92.8622 128.861 92.8433 129.247H91.4797C91.5024 128.637 91.6861 128.103 92.0308 127.645C92.3755 127.183 92.8263 126.823 93.3831 126.565C93.9437 126.308 94.5592 126.179 95.2297 126.179C95.9494 126.179 96.5668 126.325 97.0819 126.617C97.5971 126.904 97.9929 127.285 98.2694 127.759C98.546 128.232 98.6842 128.743 98.6842 129.293C98.6842 129.948 98.5119 130.507 98.1672 130.969C97.8263 131.431 97.3622 131.751 96.7751 131.929V132.02C97.51 132.141 98.0838 132.454 98.4967 132.957C98.9096 133.457 99.116 134.077 99.116 134.815C99.116 135.448 98.9437 136.016 98.599 136.52C98.2581 137.02 97.7922 137.414 97.2013 137.702C96.6104 137.99 95.938 138.134 95.1842 138.134ZM109.758 129.247V130.384H105.235V129.247H109.758ZM106.554 127.156H107.894V135.474C107.894 135.853 107.949 136.137 108.059 136.327C108.173 136.512 108.317 136.637 108.491 136.702C108.669 136.762 108.857 136.793 109.054 136.793C109.201 136.793 109.322 136.785 109.417 136.77C109.512 136.751 109.588 136.736 109.644 136.724L109.917 137.929C109.826 137.963 109.699 137.997 109.536 138.031C109.374 138.069 109.167 138.088 108.917 138.088C108.538 138.088 108.167 138.007 107.804 137.844C107.444 137.681 107.144 137.433 106.906 137.099C106.671 136.766 106.554 136.346 106.554 135.838V127.156ZM114.343 138.179C113.79 138.179 113.288 138.075 112.838 137.867C112.387 137.654 112.029 137.349 111.764 136.952C111.499 136.55 111.366 136.065 111.366 135.497C111.366 134.997 111.465 134.592 111.661 134.281C111.858 133.967 112.122 133.721 112.451 133.543C112.781 133.365 113.144 133.232 113.542 133.145C113.944 133.054 114.347 132.982 114.752 132.929C115.283 132.861 115.713 132.81 116.042 132.776C116.376 132.738 116.618 132.675 116.769 132.588C116.925 132.501 117.002 132.349 117.002 132.134V132.088C117.002 131.528 116.849 131.092 116.542 130.781C116.239 130.471 115.779 130.315 115.161 130.315C114.521 130.315 114.019 130.456 113.656 130.736C113.292 131.016 113.036 131.315 112.889 131.634L111.616 131.179C111.843 130.649 112.146 130.236 112.525 129.94C112.908 129.641 113.324 129.433 113.775 129.315C114.23 129.194 114.677 129.134 115.116 129.134C115.396 129.134 115.718 129.168 116.082 129.236C116.449 129.3 116.804 129.435 117.144 129.639C117.489 129.844 117.775 130.153 118.002 130.565C118.23 130.978 118.343 131.531 118.343 132.224V137.974H117.002V136.793H116.934C116.843 136.982 116.692 137.185 116.48 137.401C116.268 137.617 115.985 137.8 115.633 137.952C115.281 138.103 114.851 138.179 114.343 138.179ZM114.548 136.974C115.078 136.974 115.525 136.87 115.889 136.662C116.256 136.454 116.533 136.185 116.718 135.855C116.908 135.526 117.002 135.179 117.002 134.815V133.588C116.946 133.656 116.821 133.719 116.627 133.776C116.438 133.829 116.218 133.876 115.968 133.918C115.722 133.956 115.482 133.99 115.247 134.02C115.016 134.046 114.828 134.069 114.684 134.088C114.336 134.134 114.01 134.207 113.707 134.31C113.408 134.408 113.165 134.558 112.98 134.759C112.798 134.956 112.707 135.224 112.707 135.565C112.707 136.031 112.879 136.384 113.224 136.622C113.572 136.857 114.014 136.974 114.548 136.974ZM120.973 137.974V126.338H122.313V130.634H122.427C122.526 130.482 122.662 130.289 122.836 130.054C123.014 129.815 123.268 129.603 123.598 129.418C123.931 129.228 124.382 129.134 124.95 129.134C125.685 129.134 126.332 129.317 126.893 129.685C127.454 130.052 127.891 130.573 128.206 131.247C128.52 131.921 128.677 132.717 128.677 133.634C128.677 134.558 128.52 135.359 128.206 136.037C127.891 136.711 127.456 137.234 126.899 137.605C126.342 137.973 125.7 138.156 124.973 138.156C124.412 138.156 123.963 138.064 123.626 137.878C123.289 137.689 123.029 137.474 122.848 137.236C122.666 136.993 122.526 136.793 122.427 136.634H122.268V137.974H120.973ZM122.291 133.611C122.291 134.27 122.387 134.851 122.581 135.355C122.774 135.855 123.056 136.247 123.427 136.531C123.798 136.812 124.253 136.952 124.791 136.952C125.351 136.952 125.819 136.804 126.194 136.509C126.573 136.209 126.857 135.808 127.046 135.304C127.24 134.796 127.336 134.232 127.336 133.611C127.336 132.997 127.242 132.444 127.052 131.952C126.867 131.456 126.584 131.064 126.206 130.776C125.831 130.484 125.359 130.338 124.791 130.338C124.245 130.338 123.787 130.476 123.416 130.753C123.045 131.026 122.764 131.408 122.575 131.901C122.385 132.389 122.291 132.959 122.291 133.611ZM132.069 126.338V137.974H130.728V126.338H132.069ZM138.184 138.156C137.343 138.156 136.618 137.971 136.008 137.599C135.402 137.224 134.934 136.702 134.605 136.031C134.279 135.357 134.116 134.573 134.116 133.679C134.116 132.785 134.279 131.997 134.605 131.315C134.934 130.63 135.393 130.096 135.98 129.713C136.571 129.327 137.26 129.134 138.048 129.134C138.502 129.134 138.951 129.209 139.394 129.361C139.838 129.512 140.241 129.759 140.605 130.099C140.968 130.437 141.258 130.884 141.474 131.44C141.69 131.997 141.798 132.683 141.798 133.497V134.065H135.071V132.906H140.434C140.434 132.414 140.336 131.974 140.139 131.588C139.946 131.202 139.669 130.897 139.309 130.673C138.953 130.45 138.533 130.338 138.048 130.338C137.514 130.338 137.052 130.471 136.661 130.736C136.275 130.997 135.978 131.338 135.769 131.759C135.561 132.179 135.457 132.63 135.457 133.111V133.884C135.457 134.543 135.571 135.101 135.798 135.56C136.029 136.014 136.349 136.361 136.758 136.599C137.167 136.834 137.643 136.952 138.184 136.952C138.536 136.952 138.855 136.903 139.139 136.804C139.427 136.702 139.675 136.55 139.883 136.349C140.091 136.145 140.252 135.891 140.366 135.588L141.661 135.952C141.525 136.391 141.296 136.778 140.974 137.111C140.652 137.44 140.254 137.698 139.781 137.884C139.307 138.065 138.775 138.156 138.184 138.156ZM150.019 131.202L148.815 131.543C148.739 131.342 148.627 131.147 148.48 130.957C148.336 130.764 148.139 130.605 147.889 130.48C147.639 130.355 147.319 130.293 146.929 130.293C146.394 130.293 145.949 130.416 145.593 130.662C145.241 130.904 145.065 131.213 145.065 131.588C145.065 131.921 145.186 132.185 145.429 132.378C145.671 132.571 146.05 132.732 146.565 132.861L147.86 133.179C148.641 133.368 149.222 133.658 149.605 134.048C149.987 134.435 150.179 134.933 150.179 135.543C150.179 136.043 150.035 136.49 149.747 136.884C149.463 137.278 149.065 137.588 148.554 137.815C148.042 138.043 147.447 138.156 146.769 138.156C145.879 138.156 145.143 137.963 144.559 137.577C143.976 137.19 143.607 136.626 143.451 135.884L144.724 135.565C144.845 136.035 145.074 136.387 145.411 136.622C145.752 136.857 146.197 136.974 146.747 136.974C147.372 136.974 147.868 136.842 148.235 136.577C148.607 136.308 148.792 135.986 148.792 135.611C148.792 135.308 148.686 135.054 148.474 134.849C148.262 134.641 147.936 134.486 147.497 134.384L146.042 134.043C145.243 133.853 144.656 133.56 144.281 133.162C143.91 132.76 143.724 132.259 143.724 131.656C143.724 131.164 143.862 130.728 144.139 130.349C144.419 129.971 144.8 129.673 145.281 129.457C145.766 129.242 146.315 129.134 146.929 129.134C147.792 129.134 148.47 129.323 148.963 129.702C149.459 130.081 149.811 130.581 150.019 131.202Z" fill="#222222"/>
<line x1="32" y1="151.731" x2="468" y2="151.731" stroke="#D0D3D9" stroke-width="0.77707"/>
<rect width="436" height="41.4701" transform="translate(32 152.12)" fill="white"/>
<path d="M86.395 168.969L77.8473 177.517L73.9619 173.632" stroke="#222222" stroke-width="1.55414" stroke-linecap="round" stroke-linejoin="round"/>
<path d="M107.279 173.483L103.782 176.98C103.536 177.226 103.154 177.308 102.826 177.171C102.498 177.035 102.28 176.707 102.28 176.352L102.28 169.358C102.28 169.003 102.498 168.702 102.826 168.566C103.154 168.429 103.536 168.511 103.782 168.757L107.279 172.254C107.634 172.582 107.634 173.155 107.279 173.483Z" fill="#222222"/>
<path d="M122.84 179.059C122.287 179.059 121.785 178.955 121.335 178.747C120.884 178.535 120.526 178.23 120.261 177.832C119.996 177.431 119.863 176.946 119.863 176.378C119.863 175.878 119.962 175.472 120.159 175.162C120.356 174.847 120.619 174.601 120.948 174.423C121.278 174.245 121.642 174.112 122.039 174.025C122.441 173.934 122.844 173.862 123.249 173.809C123.78 173.741 124.21 173.69 124.539 173.656C124.873 173.618 125.115 173.556 125.267 173.468C125.422 173.381 125.499 173.23 125.499 173.014V172.968C125.499 172.408 125.346 171.972 125.039 171.662C124.736 171.351 124.276 171.196 123.659 171.196C123.018 171.196 122.517 171.336 122.153 171.616C121.789 171.896 121.534 172.196 121.386 172.514L120.113 172.059C120.34 171.529 120.643 171.116 121.022 170.821C121.405 170.521 121.821 170.313 122.272 170.196C122.727 170.074 123.174 170.014 123.613 170.014C123.893 170.014 124.215 170.048 124.579 170.116C124.946 170.181 125.301 170.315 125.642 170.52C125.986 170.724 126.272 171.033 126.499 171.446C126.727 171.859 126.84 172.412 126.84 173.105V178.855H125.499V177.673H125.431C125.34 177.862 125.189 178.065 124.977 178.281C124.765 178.497 124.482 178.681 124.13 178.832C123.778 178.984 123.348 179.059 122.84 179.059ZM123.045 177.855C123.575 177.855 124.022 177.751 124.386 177.542C124.753 177.334 125.03 177.065 125.215 176.735C125.405 176.406 125.499 176.059 125.499 175.696V174.468C125.443 174.537 125.318 174.599 125.124 174.656C124.935 174.709 124.715 174.756 124.465 174.798C124.219 174.836 123.979 174.87 123.744 174.9C123.513 174.927 123.325 174.949 123.181 174.968C122.833 175.014 122.507 175.088 122.204 175.19C121.905 175.289 121.662 175.438 121.477 175.639C121.295 175.836 121.204 176.105 121.204 176.446C121.204 176.912 121.376 177.264 121.721 177.503C122.07 177.737 122.511 177.855 123.045 177.855ZM132.833 179.037C132.015 179.037 131.311 178.843 130.72 178.457C130.129 178.071 129.674 177.539 129.356 176.86C129.038 176.182 128.879 175.408 128.879 174.537C128.879 173.65 129.042 172.868 129.367 172.19C129.697 171.508 130.155 170.976 130.742 170.593C131.333 170.207 132.023 170.014 132.811 170.014C133.424 170.014 133.977 170.128 134.47 170.355C134.962 170.582 135.365 170.9 135.68 171.309C135.994 171.718 136.189 172.196 136.265 172.741H134.924C134.822 172.343 134.595 171.991 134.242 171.684C133.894 171.374 133.424 171.218 132.833 171.218C132.311 171.218 131.852 171.355 131.458 171.628C131.068 171.896 130.763 172.277 130.544 172.77C130.328 173.258 130.22 173.832 130.22 174.491C130.22 175.165 130.326 175.753 130.538 176.253C130.754 176.753 131.057 177.141 131.447 177.417C131.841 177.694 132.303 177.832 132.833 177.832C133.182 177.832 133.498 177.771 133.782 177.65C134.066 177.529 134.307 177.355 134.504 177.128C134.701 176.9 134.841 176.628 134.924 176.309H136.265C136.189 176.824 136.002 177.289 135.703 177.701C135.407 178.11 135.015 178.436 134.526 178.679C134.042 178.917 133.477 179.037 132.833 179.037ZM141.771 179.037C140.953 179.037 140.248 178.843 139.657 178.457C139.066 178.071 138.612 177.539 138.294 176.86C137.975 176.182 137.816 175.408 137.816 174.537C137.816 173.65 137.979 172.868 138.305 172.19C138.634 171.508 139.093 170.976 139.68 170.593C140.271 170.207 140.96 170.014 141.748 170.014C142.362 170.014 142.915 170.128 143.407 170.355C143.9 170.582 144.303 170.9 144.617 171.309C144.932 171.718 145.127 172.196 145.203 172.741H143.862C143.759 172.343 143.532 171.991 143.18 171.684C142.831 171.374 142.362 171.218 141.771 171.218C141.248 171.218 140.79 171.355 140.396 171.628C140.006 171.896 139.701 172.277 139.481 172.77C139.265 173.258 139.157 173.832 139.157 174.491C139.157 175.165 139.263 175.753 139.475 176.253C139.691 176.753 139.994 177.141 140.384 177.417C140.778 177.694 141.24 177.832 141.771 177.832C142.119 177.832 142.436 177.771 142.72 177.65C143.004 177.529 143.244 177.355 143.441 177.128C143.638 176.9 143.778 176.628 143.862 176.309H145.203C145.127 176.824 144.939 177.289 144.64 177.701C144.345 178.11 143.953 178.436 143.464 178.679C142.979 178.917 142.415 179.037 141.771 179.037ZM150.708 179.037C149.92 179.037 149.229 178.849 148.634 178.474C148.044 178.099 147.581 177.574 147.248 176.9C146.919 176.226 146.754 175.438 146.754 174.537C146.754 173.628 146.919 172.834 147.248 172.156C147.581 171.478 148.044 170.951 148.634 170.576C149.229 170.201 149.92 170.014 150.708 170.014C151.496 170.014 152.186 170.201 152.776 170.576C153.371 170.951 153.833 171.478 154.163 172.156C154.496 172.834 154.663 173.628 154.663 174.537C154.663 175.438 154.496 176.226 154.163 176.9C153.833 177.574 153.371 178.099 152.776 178.474C152.186 178.849 151.496 179.037 150.708 179.037ZM150.708 177.832C151.307 177.832 151.799 177.679 152.186 177.372C152.572 177.065 152.858 176.662 153.044 176.162C153.229 175.662 153.322 175.12 153.322 174.537C153.322 173.953 153.229 173.41 153.044 172.906C152.858 172.402 152.572 171.995 152.186 171.684C151.799 171.374 151.307 171.218 150.708 171.218C150.11 171.218 149.617 171.374 149.231 171.684C148.845 171.995 148.559 172.402 148.373 172.906C148.187 173.41 148.095 173.953 148.095 174.537C148.095 175.12 148.187 175.662 148.373 176.162C148.559 176.662 148.845 177.065 149.231 177.372C149.617 177.679 150.11 177.832 150.708 177.832ZM162.21 175.287V170.128H163.551V178.855H162.21V177.378H162.119C161.914 177.821 161.596 178.198 161.164 178.508C160.732 178.815 160.187 178.968 159.528 178.968C158.982 178.968 158.498 178.849 158.073 178.61C157.649 178.368 157.316 178.004 157.073 177.52C156.831 177.031 156.71 176.415 156.71 175.673V170.128H158.051V175.582C158.051 176.218 158.229 176.726 158.585 177.105C158.945 177.484 159.403 177.673 159.96 177.673C160.293 177.673 160.632 177.588 160.977 177.417C161.325 177.247 161.617 176.985 161.852 176.633C162.09 176.281 162.21 175.832 162.21 175.287ZM167.347 173.605V178.855H166.007V170.128H167.302V171.491H167.416C167.62 171.048 167.931 170.692 168.347 170.423C168.764 170.15 169.302 170.014 169.961 170.014C170.552 170.014 171.069 170.135 171.512 170.378C171.955 170.616 172.3 170.98 172.546 171.468C172.793 171.953 172.916 172.567 172.916 173.309V178.855H171.575V173.4C171.575 172.715 171.397 172.181 171.041 171.798C170.685 171.412 170.196 171.218 169.575 171.218C169.147 171.218 168.764 171.311 168.427 171.497C168.094 171.682 167.83 171.953 167.637 172.309C167.444 172.665 167.347 173.097 167.347 173.605ZM179.161 170.128V171.264H174.639V170.128H179.161ZM175.957 168.037H177.298V176.355C177.298 176.734 177.353 177.018 177.463 177.207C177.576 177.393 177.72 177.518 177.894 177.582C178.072 177.643 178.26 177.673 178.457 177.673C178.605 177.673 178.726 177.665 178.82 177.65C178.915 177.631 178.991 177.616 179.048 177.605L179.32 178.809C179.23 178.843 179.103 178.878 178.94 178.912C178.777 178.949 178.57 178.968 178.32 178.968C177.942 178.968 177.57 178.887 177.207 178.724C176.847 178.561 176.548 178.313 176.309 177.98C176.074 177.646 175.957 177.226 175.957 176.718V168.037Z" fill="black"/>
<line x1="32" y1="193.201" x2="468" y2="193.201" stroke="#D0D3D9" stroke-width="0.77707"/>
<rect width="436" height="41.4701" transform="translate(32 193.59)" fill="white"/>
<path d="M86.395 210.44L77.8473 218.987L73.9619 215.102" stroke="#222222" stroke-width="1.55414" stroke-linecap="round" stroke-linejoin="round"/>
<path d="M107.279 214.953L103.782 218.45C103.536 218.696 103.154 218.778 102.826 218.641C102.498 218.505 102.28 218.177 102.28 217.822L102.28 210.828C102.28 210.473 102.498 210.172 102.826 210.036C103.154 209.899 103.536 209.981 103.782 210.227L107.279 213.724C107.634 214.052 107.634 214.625 107.279 214.953Z" fill="#222222"/>
<path d="M123.818 220.507C122.999 220.507 122.295 220.313 121.704 219.927C121.113 219.541 120.659 219.009 120.34 218.331C120.022 217.652 119.863 216.878 119.863 216.007C119.863 215.12 120.026 214.338 120.352 213.66C120.681 212.978 121.14 212.446 121.727 212.063C122.318 211.677 123.007 211.484 123.795 211.484C124.409 211.484 124.962 211.598 125.454 211.825C125.946 212.052 126.35 212.37 126.664 212.779C126.979 213.188 127.174 213.666 127.249 214.211H125.909C125.806 213.813 125.579 213.461 125.227 213.154C124.878 212.844 124.409 212.688 123.818 212.688C123.295 212.688 122.837 212.825 122.443 213.098C122.052 213.366 121.748 213.747 121.528 214.24C121.312 214.728 121.204 215.302 121.204 215.961C121.204 216.635 121.31 217.223 121.522 217.723C121.738 218.223 122.041 218.611 122.431 218.887C122.825 219.164 123.287 219.302 123.818 219.302C124.166 219.302 124.482 219.241 124.767 219.12C125.051 218.999 125.291 218.825 125.488 218.598C125.685 218.37 125.825 218.098 125.909 217.779H127.249C127.174 218.295 126.986 218.759 126.687 219.171C126.392 219.581 125.999 219.906 125.511 220.149C125.026 220.387 124.462 220.507 123.818 220.507ZM132.755 220.507C131.967 220.507 131.276 220.319 130.681 219.944C130.09 219.569 129.628 219.045 129.295 218.37C128.965 217.696 128.801 216.908 128.801 216.007C128.801 215.098 128.965 214.304 129.295 213.626C129.628 212.948 130.09 212.421 130.681 212.046C131.276 211.671 131.967 211.484 132.755 211.484C133.543 211.484 134.232 211.671 134.823 212.046C135.418 212.421 135.88 212.948 136.21 213.626C136.543 214.304 136.71 215.098 136.71 216.007C136.71 216.908 136.543 217.696 136.21 218.37C135.88 219.045 135.418 219.569 134.823 219.944C134.232 220.319 133.543 220.507 132.755 220.507ZM132.755 219.302C133.354 219.302 133.846 219.149 134.232 218.842C134.619 218.535 134.905 218.132 135.09 217.632C135.276 217.132 135.369 216.59 135.369 216.007C135.369 215.423 135.276 214.88 135.09 214.376C134.905 213.872 134.619 213.465 134.232 213.154C133.846 212.844 133.354 212.688 132.755 212.688C132.157 212.688 131.664 212.844 131.278 213.154C130.892 213.465 130.606 213.872 130.42 214.376C130.234 214.88 130.142 215.423 130.142 216.007C130.142 216.59 130.234 217.132 130.42 217.632C130.606 218.132 130.892 218.535 131.278 218.842C131.664 219.149 132.157 219.302 132.755 219.302ZM144.257 216.757V211.598H145.597V220.325H144.257V218.848H144.166C143.961 219.291 143.643 219.668 143.211 219.978C142.779 220.285 142.234 220.438 141.575 220.438C141.029 220.438 140.544 220.319 140.12 220.081C139.696 219.838 139.363 219.474 139.12 218.99C138.878 218.501 138.757 217.885 138.757 217.143V211.598H140.097V217.052C140.097 217.688 140.276 218.196 140.632 218.575C140.991 218.954 141.45 219.143 142.007 219.143C142.34 219.143 142.679 219.058 143.024 218.887C143.372 218.717 143.664 218.456 143.899 218.103C144.137 217.751 144.257 217.302 144.257 216.757ZM149.394 208.688V220.325H148.053V208.688H149.394ZM151.85 220.325V211.598H153.146V212.961H153.259C153.441 212.495 153.735 212.134 154.14 211.876C154.545 211.615 155.032 211.484 155.6 211.484C156.176 211.484 156.655 211.615 157.038 211.876C157.424 212.134 157.725 212.495 157.941 212.961H158.032C158.256 212.51 158.591 212.152 159.038 211.887C159.485 211.618 160.021 211.484 160.646 211.484C161.426 211.484 162.064 211.728 162.561 212.217C163.057 212.702 163.305 213.457 163.305 214.484V220.325H161.964V214.484C161.964 213.84 161.788 213.38 161.436 213.103C161.083 212.827 160.669 212.688 160.191 212.688C159.578 212.688 159.102 212.874 158.765 213.245C158.428 213.613 158.259 214.079 158.259 214.643V220.325H156.896V214.348C156.896 213.851 156.735 213.452 156.413 213.149C156.091 212.842 155.676 212.688 155.169 212.688C154.82 212.688 154.494 212.781 154.191 212.967C153.892 213.152 153.65 213.41 153.464 213.74C153.282 214.065 153.191 214.442 153.191 214.87V220.325H151.85ZM167.097 215.075V220.325H165.757V211.598H167.052V212.961H167.166C167.37 212.518 167.681 212.162 168.097 211.893C168.514 211.62 169.052 211.484 169.711 211.484C170.302 211.484 170.819 211.605 171.262 211.848C171.705 212.086 172.05 212.45 172.296 212.938C172.543 213.423 172.666 214.037 172.666 214.779V220.325H171.325V214.87C171.325 214.185 171.147 213.651 170.791 213.268C170.435 212.882 169.946 212.688 169.325 212.688C168.897 212.688 168.514 212.781 168.177 212.967C167.844 213.152 167.58 213.423 167.387 213.779C167.194 214.135 167.097 214.567 167.097 215.075ZM181.139 220.325V221.575H173.866V220.325H181.139ZM183.691 208.688V220.325H182.35V208.688H183.691ZM186.147 220.325V211.598H187.488V220.325H186.147ZM186.829 210.143C186.568 210.143 186.342 210.054 186.153 209.876C185.967 209.698 185.874 209.484 185.874 209.234C185.874 208.984 185.967 208.77 186.153 208.592C186.342 208.414 186.568 208.325 186.829 208.325C187.09 208.325 187.314 208.414 187.499 208.592C187.689 208.77 187.784 208.984 187.784 209.234C187.784 209.484 187.689 209.698 187.499 209.876C187.314 210.054 187.09 210.143 186.829 210.143ZM191.285 215.075V220.325H189.944V211.598H191.24V212.961H191.353C191.558 212.518 191.868 212.162 192.285 211.893C192.702 211.62 193.24 211.484 193.899 211.484C194.49 211.484 195.007 211.605 195.45 211.848C195.893 212.086 196.238 212.45 196.484 212.938C196.73 213.423 196.853 214.037 196.853 214.779V220.325H195.512V214.87C195.512 214.185 195.334 213.651 194.978 213.268C194.622 212.882 194.133 212.688 193.512 212.688C193.084 212.688 192.702 212.781 192.365 212.967C192.031 213.152 191.768 213.423 191.575 213.779C191.382 214.135 191.285 214.567 191.285 215.075ZM202.963 220.507C202.122 220.507 201.396 220.321 200.786 219.95C200.18 219.575 199.713 219.052 199.383 218.382C199.057 217.707 198.894 216.923 198.894 216.029C198.894 215.135 199.057 214.348 199.383 213.666C199.713 212.98 200.171 212.446 200.758 212.063C201.349 211.677 202.038 211.484 202.826 211.484C203.281 211.484 203.73 211.56 204.173 211.711C204.616 211.863 205.019 212.109 205.383 212.45C205.747 212.787 206.036 213.234 206.252 213.791C206.468 214.348 206.576 215.033 206.576 215.848V216.416H199.849V215.257H205.213C205.213 214.764 205.114 214.325 204.917 213.938C204.724 213.552 204.447 213.247 204.088 213.024C203.731 212.8 203.311 212.688 202.826 212.688C202.292 212.688 201.83 212.821 201.44 213.086C201.053 213.348 200.756 213.688 200.548 214.109C200.339 214.529 200.235 214.98 200.235 215.461V216.234C200.235 216.893 200.349 217.452 200.576 217.91C200.807 218.365 201.127 218.711 201.536 218.95C201.945 219.185 202.421 219.302 202.963 219.302C203.315 219.302 203.633 219.253 203.917 219.154C204.205 219.052 204.453 218.901 204.661 218.7C204.87 218.495 205.031 218.241 205.144 217.938L206.44 218.302C206.303 218.741 206.074 219.128 205.752 219.461C205.43 219.791 205.033 220.048 204.559 220.234C204.086 220.416 203.553 220.507 202.963 220.507ZM211.184 220.529C210.631 220.529 210.129 220.425 209.678 220.217C209.228 220.005 208.87 219.7 208.605 219.302C208.339 218.901 208.207 218.416 208.207 217.848C208.207 217.348 208.305 216.942 208.502 216.632C208.699 216.317 208.963 216.071 209.292 215.893C209.622 215.715 209.985 215.582 210.383 215.495C210.785 215.404 211.188 215.332 211.593 215.279C212.124 215.211 212.553 215.16 212.883 215.126C213.216 215.088 213.459 215.026 213.61 214.938C213.766 214.851 213.843 214.7 213.843 214.484V214.438C213.843 213.878 213.69 213.442 213.383 213.132C213.08 212.821 212.62 212.666 212.002 212.666C211.362 212.666 210.86 212.806 210.497 213.086C210.133 213.366 209.877 213.666 209.73 213.984L208.457 213.529C208.684 212.999 208.987 212.586 209.366 212.291C209.749 211.991 210.165 211.783 210.616 211.666C211.07 211.545 211.517 211.484 211.957 211.484C212.237 211.484 212.559 211.518 212.923 211.586C213.29 211.651 213.644 211.785 213.985 211.99C214.33 212.194 214.616 212.503 214.843 212.916C215.07 213.329 215.184 213.882 215.184 214.575V220.325H213.843V219.143H213.775C213.684 219.332 213.533 219.535 213.32 219.751C213.108 219.967 212.826 220.151 212.474 220.302C212.122 220.454 211.692 220.529 211.184 220.529ZM211.389 219.325C211.919 219.325 212.366 219.221 212.73 219.012C213.097 218.804 213.374 218.535 213.559 218.206C213.749 217.876 213.843 217.529 213.843 217.166V215.938C213.786 216.007 213.661 216.069 213.468 216.126C213.279 216.179 213.059 216.226 212.809 216.268C212.563 216.306 212.322 216.34 212.088 216.37C211.856 216.397 211.669 216.42 211.525 216.438C211.177 216.484 210.851 216.558 210.548 216.66C210.249 216.759 210.006 216.908 209.82 217.109C209.639 217.306 209.548 217.575 209.548 217.916C209.548 218.382 209.72 218.734 210.065 218.973C210.413 219.207 210.855 219.325 211.389 219.325ZM221.154 223.779C220.507 223.779 219.95 223.696 219.484 223.529C219.018 223.366 218.63 223.151 218.319 222.882C218.012 222.616 217.768 222.332 217.586 222.029L218.654 221.279C218.776 221.438 218.929 221.62 219.115 221.825C219.3 222.033 219.554 222.213 219.876 222.365C220.202 222.52 220.628 222.598 221.154 222.598C221.859 222.598 222.44 222.427 222.899 222.086C223.357 221.745 223.586 221.211 223.586 220.484V218.711H223.472C223.374 218.87 223.234 219.067 223.052 219.302C222.874 219.533 222.616 219.74 222.279 219.921C221.946 220.099 221.495 220.188 220.927 220.188C220.222 220.188 219.59 220.022 219.029 219.688C218.472 219.355 218.031 218.87 217.705 218.234C217.383 217.598 217.222 216.825 217.222 215.916C217.222 215.022 217.38 214.243 217.694 213.581C218.008 212.914 218.446 212.399 219.007 212.035C219.567 211.668 220.215 211.484 220.95 211.484C221.518 211.484 221.969 211.579 222.302 211.768C222.639 211.954 222.897 212.166 223.075 212.404C223.257 212.639 223.397 212.832 223.495 212.984H223.632V211.598H224.927V220.575C224.927 221.325 224.757 221.935 224.416 222.404C224.079 222.878 223.624 223.224 223.052 223.444C222.484 223.668 221.851 223.779 221.154 223.779ZM221.109 218.984C221.647 218.984 222.101 218.861 222.472 218.615C222.844 218.368 223.126 218.014 223.319 217.552C223.512 217.09 223.609 216.537 223.609 215.893C223.609 215.264 223.514 214.709 223.325 214.228C223.135 213.747 222.855 213.37 222.484 213.098C222.113 212.825 221.654 212.688 221.109 212.688C220.541 212.688 220.067 212.832 219.688 213.12C219.313 213.408 219.031 213.795 218.842 214.279C218.656 214.764 218.563 215.302 218.563 215.893C218.563 216.499 218.658 217.035 218.847 217.501C219.041 217.963 219.325 218.327 219.7 218.592C220.079 218.853 220.548 218.984 221.109 218.984ZM231.041 220.507C230.2 220.507 229.474 220.321 228.865 219.95C228.258 219.575 227.791 219.052 227.461 218.382C227.135 217.707 226.972 216.923 226.972 216.029C226.972 215.135 227.135 214.348 227.461 213.666C227.791 212.98 228.249 212.446 228.836 212.063C229.427 211.677 230.116 211.484 230.904 211.484C231.359 211.484 231.808 211.56 232.251 211.711C232.694 211.863 233.097 212.109 233.461 212.45C233.825 212.787 234.115 213.234 234.33 213.791C234.546 214.348 234.654 215.033 234.654 215.848V216.416H227.927V215.257H233.291C233.291 214.764 233.192 214.325 232.995 213.938C232.802 213.552 232.526 213.247 232.166 213.024C231.81 212.8 231.389 212.688 230.904 212.688C230.37 212.688 229.908 212.821 229.518 213.086C229.132 213.348 228.834 213.688 228.626 214.109C228.418 214.529 228.313 214.98 228.313 215.461V216.234C228.313 216.893 228.427 217.452 228.654 217.91C228.885 218.365 229.205 218.711 229.615 218.95C230.024 219.185 230.499 219.302 231.041 219.302C231.393 219.302 231.711 219.253 231.995 219.154C232.283 219.052 232.531 218.901 232.74 218.7C232.948 218.495 233.109 218.241 233.222 217.938L234.518 218.302C234.382 218.741 234.152 219.128 233.83 219.461C233.508 219.791 233.111 220.048 232.637 220.234C232.164 220.416 231.632 220.507 231.041 220.507Z" fill="black"/>
<line x1="32" y1="234.671" x2="468" y2="234.671" stroke="#D0D3D9" stroke-width="0.77707"/>
<line x1="32" y1="234.671" x2="468" y2="234.671" stroke="#D0D3D9" stroke-width="0.77707"/>
<rect width="436" height="41.4701" transform="translate(32 235.06)" fill="white"/>
<path d="M86.395 251.91L77.8473 260.457L73.9619 256.572" stroke="#222222" stroke-width="1.55414" stroke-linecap="round" stroke-linejoin="round"/>
<path d="M107.279 256.423L103.782 259.92C103.536 260.166 103.154 260.248 102.826 260.111C102.498 259.975 102.28 259.647 102.28 259.292L102.28 252.298C102.28 251.943 102.498 251.642 102.826 251.506C103.154 251.369 103.536 251.451 103.782 251.697L107.279 255.194C107.634 255.522 107.634 256.095 107.279 256.423Z" fill="#222222"/>
<path d="M123.818 261.977C122.999 261.977 122.295 261.784 121.704 261.397C121.113 261.011 120.659 260.479 120.34 259.801C120.022 259.123 119.863 258.348 119.863 257.477C119.863 256.59 120.026 255.808 120.352 255.13C120.681 254.448 121.14 253.916 121.727 253.534C122.318 253.147 123.007 252.954 123.795 252.954C124.409 252.954 124.962 253.068 125.454 253.295C125.946 253.522 126.35 253.84 126.664 254.249C126.979 254.659 127.174 255.136 127.249 255.681H125.909C125.806 255.284 125.579 254.931 125.227 254.624C124.878 254.314 124.409 254.159 123.818 254.159C123.295 254.159 122.837 254.295 122.443 254.568C122.052 254.837 121.748 255.217 121.528 255.71C121.312 256.198 121.204 256.772 121.204 257.431C121.204 258.106 121.31 258.693 121.522 259.193C121.738 259.693 122.041 260.081 122.431 260.357C122.825 260.634 123.287 260.772 123.818 260.772C124.166 260.772 124.482 260.712 124.767 260.59C125.051 260.469 125.291 260.295 125.488 260.068C125.685 259.84 125.825 259.568 125.909 259.249H127.249C127.174 259.765 126.986 260.229 126.687 260.642C126.392 261.051 125.999 261.376 125.511 261.619C125.026 261.857 124.462 261.977 123.818 261.977ZM132.755 261.977C131.967 261.977 131.276 261.789 130.681 261.414C130.09 261.039 129.628 260.515 129.295 259.84C128.965 259.166 128.801 258.378 128.801 257.477C128.801 256.568 128.965 255.774 129.295 255.096C129.628 254.418 130.09 253.892 130.681 253.517C131.276 253.142 131.967 252.954 132.755 252.954C133.543 252.954 134.232 253.142 134.823 253.517C135.418 253.892 135.88 254.418 136.21 255.096C136.543 255.774 136.71 256.568 136.71 257.477C136.71 258.378 136.543 259.166 136.21 259.84C135.88 260.515 135.418 261.039 134.823 261.414C134.232 261.789 133.543 261.977 132.755 261.977ZM132.755 260.772C133.354 260.772 133.846 260.619 134.232 260.312C134.619 260.005 134.905 259.602 135.09 259.102C135.276 258.602 135.369 258.06 135.369 257.477C135.369 256.893 135.276 256.35 135.09 255.846C134.905 255.342 134.619 254.935 134.232 254.624C133.846 254.314 133.354 254.159 132.755 254.159C132.157 254.159 131.664 254.314 131.278 254.624C130.892 254.935 130.606 255.342 130.42 255.846C130.234 256.35 130.142 256.893 130.142 257.477C130.142 258.06 130.234 258.602 130.42 259.102C130.606 259.602 130.892 260.005 131.278 260.312C131.664 260.619 132.157 260.772 132.755 260.772ZM140.097 256.545V261.795H138.757V253.068H140.052V254.431H140.166C140.37 253.988 140.681 253.632 141.097 253.363C141.514 253.09 142.052 252.954 142.711 252.954C143.302 252.954 143.819 253.075 144.262 253.318C144.705 253.556 145.05 253.92 145.296 254.409C145.543 254.893 145.666 255.507 145.666 256.249V261.795H144.325V256.34C144.325 255.655 144.147 255.121 143.791 254.738C143.435 254.352 142.946 254.159 142.325 254.159C141.897 254.159 141.514 254.251 141.177 254.437C140.844 254.623 140.58 254.893 140.387 255.249C140.194 255.606 140.097 256.037 140.097 256.545ZM149.457 256.545V261.795H148.116V253.068H149.411V254.431H149.525C149.73 253.988 150.04 253.632 150.457 253.363C150.874 253.09 151.411 252.954 152.07 252.954C152.661 252.954 153.178 253.075 153.622 253.318C154.065 253.556 154.41 253.92 154.656 254.409C154.902 254.893 155.025 255.507 155.025 256.249V261.795H153.684V256.34C153.684 255.655 153.506 255.121 153.15 254.738C152.794 254.352 152.305 254.159 151.684 254.159C151.256 254.159 150.874 254.251 150.536 254.437C150.203 254.623 149.94 254.893 149.747 255.249C149.553 255.606 149.457 256.037 149.457 256.545ZM161.134 261.977C160.294 261.977 159.568 261.791 158.958 261.42C158.352 261.045 157.884 260.522 157.555 259.852C157.229 259.177 157.066 258.393 157.066 257.499C157.066 256.606 157.229 255.818 157.555 255.136C157.884 254.45 158.343 253.916 158.93 253.534C159.521 253.147 160.21 252.954 160.998 252.954C161.453 252.954 161.901 253.03 162.345 253.181C162.788 253.333 163.191 253.579 163.555 253.92C163.919 254.257 164.208 254.704 164.424 255.261C164.64 255.818 164.748 256.503 164.748 257.318V257.886H158.021V256.727H163.384C163.384 256.234 163.286 255.795 163.089 255.409C162.896 255.022 162.619 254.717 162.259 254.494C161.903 254.27 161.483 254.159 160.998 254.159C160.464 254.159 160.002 254.291 159.612 254.556C159.225 254.818 158.928 255.159 158.72 255.579C158.511 255.999 158.407 256.45 158.407 256.931V257.704C158.407 258.363 158.521 258.922 158.748 259.38C158.979 259.835 159.299 260.181 159.708 260.42C160.117 260.655 160.593 260.772 161.134 260.772C161.487 260.772 161.805 260.723 162.089 260.624C162.377 260.522 162.625 260.371 162.833 260.17C163.042 259.965 163.203 259.712 163.316 259.409L164.612 259.772C164.475 260.212 164.246 260.598 163.924 260.931C163.602 261.261 163.204 261.518 162.731 261.704C162.258 261.886 161.725 261.977 161.134 261.977ZM170.333 261.977C169.515 261.977 168.811 261.784 168.22 261.397C167.629 261.011 167.174 260.479 166.856 259.801C166.538 259.123 166.379 258.348 166.379 257.477C166.379 256.59 166.542 255.808 166.867 255.13C167.197 254.448 167.655 253.916 168.242 253.534C168.833 253.147 169.523 252.954 170.311 252.954C170.924 252.954 171.477 253.068 171.97 253.295C172.462 253.522 172.865 253.84 173.18 254.249C173.494 254.659 173.689 255.136 173.765 255.681H172.424C172.322 255.284 172.095 254.931 171.742 254.624C171.394 254.314 170.924 254.159 170.333 254.159C169.811 254.159 169.352 254.295 168.958 254.568C168.568 254.837 168.263 255.217 168.044 255.71C167.828 256.198 167.72 256.772 167.72 257.431C167.72 258.106 167.826 258.693 168.038 259.193C168.254 259.693 168.557 260.081 168.947 260.357C169.341 260.634 169.803 260.772 170.333 260.772C170.682 260.772 170.998 260.712 171.282 260.59C171.566 260.469 171.807 260.295 172.004 260.068C172.201 259.84 172.341 259.568 172.424 259.249H173.765C173.689 259.765 173.502 260.229 173.203 260.642C172.907 261.051 172.515 261.376 172.026 261.619C171.542 261.857 170.977 261.977 170.333 261.977ZM179.521 253.068V254.204H174.998V253.068H179.521ZM176.316 250.977H177.657V259.295C177.657 259.674 177.712 259.958 177.822 260.147C177.936 260.333 178.079 260.458 178.254 260.522C178.432 260.583 178.619 260.613 178.816 260.613C178.964 260.613 179.085 260.606 179.18 260.59C179.275 260.571 179.35 260.556 179.407 260.545L179.68 261.749C179.589 261.784 179.462 261.818 179.299 261.852C179.136 261.89 178.93 261.909 178.68 261.909C178.301 261.909 177.93 261.827 177.566 261.664C177.206 261.501 176.907 261.253 176.669 260.92C176.434 260.587 176.316 260.166 176.316 259.659V250.977ZM184.99 261.977C184.202 261.977 183.51 261.789 182.916 261.414C182.325 261.039 181.863 260.515 181.529 259.84C181.2 259.166 181.035 258.378 181.035 257.477C181.035 256.568 181.2 255.774 181.529 255.096C181.863 254.418 182.325 253.892 182.916 253.517C183.51 253.142 184.202 252.954 184.99 252.954C185.777 252.954 186.467 253.142 187.058 253.517C187.652 253.892 188.115 254.418 188.444 255.096C188.777 255.774 188.944 256.568 188.944 257.477C188.944 258.378 188.777 259.166 188.444 259.84C188.115 260.515 187.652 261.039 187.058 261.414C186.467 261.789 185.777 261.977 184.99 261.977ZM184.99 260.772C185.588 260.772 186.08 260.619 186.467 260.312C186.853 260.005 187.139 259.602 187.325 259.102C187.51 258.602 187.603 258.06 187.603 257.477C187.603 256.893 187.51 256.35 187.325 255.846C187.139 255.342 186.853 254.935 186.467 254.624C186.08 254.314 185.588 254.159 184.99 254.159C184.391 254.159 183.899 254.314 183.512 254.624C183.126 254.935 182.84 255.342 182.654 255.846C182.469 256.35 182.376 256.893 182.376 257.477C182.376 258.06 182.469 258.602 182.654 259.102C182.84 259.602 183.126 260.005 183.512 260.312C183.899 260.619 184.391 260.772 184.99 260.772ZM190.991 261.795V253.068H192.286V254.386H192.377C192.536 253.954 192.824 253.604 193.241 253.335C193.658 253.066 194.127 252.931 194.65 252.931C194.749 252.931 194.872 252.933 195.019 252.937C195.167 252.941 195.279 252.946 195.355 252.954V254.318C195.309 254.306 195.205 254.289 195.042 254.267C194.883 254.24 194.714 254.227 194.536 254.227C194.112 254.227 193.733 254.316 193.4 254.494C193.07 254.668 192.809 254.91 192.616 255.221C192.427 255.528 192.332 255.878 192.332 256.272V261.795H190.991Z" fill="black"/>
<line x1="32" y1="276.141" x2="468" y2="276.141" stroke="#D0D3D9" stroke-width="0.77707"/>
<rect width="436" height="41.4701" transform="translate(32 276.53)" fill="white"/>
<path d="M86.395 293.38L77.8473 301.927L73.9619 298.042" stroke="#222222" stroke-width="1.55414" stroke-linecap="round" stroke-linejoin="round"/>
<path d="M107.279 297.893L103.782 301.39C103.536 301.636 103.154 301.718 102.826 301.581C102.498 301.445 102.28 301.117 102.28 300.762L102.28 293.768C102.28 293.413 102.498 293.112 102.826 292.976C103.154 292.839 103.536 292.921 103.782 293.167L107.279 296.664C107.634 296.992 107.634 297.565 107.279 297.893Z" fill="#222222"/>
<path d="M123.818 303.447C122.999 303.447 122.295 303.254 121.704 302.867C121.113 302.481 120.659 301.949 120.34 301.271C120.022 300.593 119.863 299.818 119.863 298.947C119.863 298.06 120.026 297.278 120.352 296.6C120.681 295.918 121.14 295.386 121.727 295.004C122.318 294.617 123.007 294.424 123.795 294.424C124.409 294.424 124.962 294.538 125.454 294.765C125.946 294.992 126.35 295.31 126.664 295.719C126.979 296.129 127.174 296.606 127.249 297.151H125.909C125.806 296.754 125.579 296.401 125.227 296.094C124.878 295.784 124.409 295.629 123.818 295.629C123.295 295.629 122.837 295.765 122.443 296.038C122.052 296.307 121.748 296.687 121.528 297.18C121.312 297.668 121.204 298.242 121.204 298.901C121.204 299.576 121.31 300.163 121.522 300.663C121.738 301.163 122.041 301.551 122.431 301.827C122.825 302.104 123.287 302.242 123.818 302.242C124.166 302.242 124.482 302.182 124.767 302.06C125.051 301.939 125.291 301.765 125.488 301.538C125.685 301.31 125.825 301.038 125.909 300.719H127.249C127.174 301.235 126.986 301.699 126.687 302.112C126.392 302.521 125.999 302.846 125.511 303.089C125.026 303.327 124.462 303.447 123.818 303.447ZM132.755 303.447C131.967 303.447 131.276 303.259 130.681 302.884C130.09 302.509 129.628 301.985 129.295 301.31C128.965 300.636 128.801 299.848 128.801 298.947C128.801 298.038 128.965 297.244 129.295 296.566C129.628 295.888 130.09 295.362 130.681 294.987C131.276 294.612 131.967 294.424 132.755 294.424C133.543 294.424 134.232 294.612 134.823 294.987C135.418 295.362 135.88 295.888 136.21 296.566C136.543 297.244 136.71 298.038 136.71 298.947C136.71 299.848 136.543 300.636 136.21 301.31C135.88 301.985 135.418 302.509 134.823 302.884C134.232 303.259 133.543 303.447 132.755 303.447ZM132.755 302.242C133.354 302.242 133.846 302.089 134.232 301.782C134.619 301.475 134.905 301.072 135.09 300.572C135.276 300.072 135.369 299.53 135.369 298.947C135.369 298.363 135.276 297.82 135.09 297.316C134.905 296.812 134.619 296.405 134.232 296.094C133.846 295.784 133.354 295.629 132.755 295.629C132.157 295.629 131.664 295.784 131.278 296.094C130.892 296.405 130.606 296.812 130.42 297.316C130.234 297.82 130.142 298.363 130.142 298.947C130.142 299.53 130.234 300.072 130.42 300.572C130.606 301.072 130.892 301.475 131.278 301.782C131.664 302.089 132.157 302.242 132.755 302.242ZM140.097 298.015V303.265H138.757V294.538H140.052V295.901H140.166C140.37 295.458 140.681 295.102 141.097 294.833C141.514 294.56 142.052 294.424 142.711 294.424C143.302 294.424 143.819 294.545 144.262 294.788C144.705 295.026 145.05 295.39 145.296 295.879C145.543 296.363 145.666 296.977 145.666 297.719V303.265H144.325V297.81C144.325 297.125 144.147 296.591 143.791 296.208C143.435 295.822 142.946 295.629 142.325 295.629C141.897 295.629 141.514 295.721 141.177 295.907C140.844 296.093 140.58 296.363 140.387 296.719C140.194 297.076 140.097 297.507 140.097 298.015ZM149.457 298.015V303.265H148.116V294.538H149.411V295.901H149.525C149.73 295.458 150.04 295.102 150.457 294.833C150.874 294.56 151.411 294.424 152.07 294.424C152.661 294.424 153.178 294.545 153.622 294.788C154.065 295.026 154.41 295.39 154.656 295.879C154.902 296.363 155.025 296.977 155.025 297.719V303.265H153.684V297.81C153.684 297.125 153.506 296.591 153.15 296.208C152.794 295.822 152.305 295.629 151.684 295.629C151.256 295.629 150.874 295.721 150.536 295.907C150.203 296.093 149.94 296.363 149.747 296.719C149.553 297.076 149.457 297.507 149.457 298.015ZM161.134 303.447C160.294 303.447 159.568 303.261 158.958 302.89C158.352 302.515 157.884 301.992 157.555 301.322C157.229 300.648 157.066 299.863 157.066 298.969C157.066 298.076 157.229 297.288 157.555 296.606C157.884 295.92 158.343 295.386 158.93 295.004C159.521 294.617 160.21 294.424 160.998 294.424C161.453 294.424 161.901 294.5 162.345 294.651C162.788 294.803 163.191 295.049 163.555 295.39C163.919 295.727 164.208 296.174 164.424 296.731C164.64 297.288 164.748 297.973 164.748 298.788V299.356H158.021V298.197H163.384C163.384 297.704 163.286 297.265 163.089 296.879C162.896 296.492 162.619 296.187 162.259 295.964C161.903 295.74 161.483 295.629 160.998 295.629C160.464 295.629 160.002 295.761 159.612 296.026C159.225 296.288 158.928 296.629 158.72 297.049C158.511 297.469 158.407 297.92 158.407 298.401V299.174C158.407 299.833 158.521 300.392 158.748 300.85C158.979 301.305 159.299 301.651 159.708 301.89C160.117 302.125 160.593 302.242 161.134 302.242C161.487 302.242 161.805 302.193 162.089 302.094C162.377 301.992 162.625 301.841 162.833 301.64C163.042 301.435 163.203 301.182 163.316 300.879L164.612 301.242C164.475 301.682 164.246 302.068 163.924 302.401C163.602 302.731 163.204 302.988 162.731 303.174C162.258 303.356 161.725 303.447 161.134 303.447ZM170.333 303.447C169.515 303.447 168.811 303.254 168.22 302.867C167.629 302.481 167.174 301.949 166.856 301.271C166.538 300.593 166.379 299.818 166.379 298.947C166.379 298.06 166.542 297.278 166.867 296.6C167.197 295.918 167.655 295.386 168.242 295.004C168.833 294.617 169.523 294.424 170.311 294.424C170.924 294.424 171.477 294.538 171.97 294.765C172.462 294.992 172.865 295.31 173.18 295.719C173.494 296.129 173.689 296.606 173.765 297.151H172.424C172.322 296.754 172.095 296.401 171.742 296.094C171.394 295.784 170.924 295.629 170.333 295.629C169.811 295.629 169.352 295.765 168.958 296.038C168.568 296.307 168.263 296.687 168.044 297.18C167.828 297.668 167.72 298.242 167.72 298.901C167.72 299.576 167.826 300.163 168.038 300.663C168.254 301.163 168.557 301.551 168.947 301.827C169.341 302.104 169.803 302.242 170.333 302.242C170.682 302.242 170.998 302.182 171.282 302.06C171.566 301.939 171.807 301.765 172.004 301.538C172.201 301.31 172.341 301.038 172.424 300.719H173.765C173.689 301.235 173.502 301.699 173.203 302.112C172.907 302.521 172.515 302.846 172.026 303.089C171.542 303.327 170.977 303.447 170.333 303.447ZM179.521 294.538V295.674H174.998V294.538H179.521ZM176.316 292.447H177.657V300.765C177.657 301.144 177.712 301.428 177.822 301.617C177.936 301.803 178.079 301.928 178.254 301.992C178.432 302.053 178.619 302.083 178.816 302.083C178.964 302.083 179.085 302.076 179.18 302.06C179.275 302.041 179.35 302.026 179.407 302.015L179.68 303.219C179.589 303.254 179.462 303.288 179.299 303.322C179.136 303.36 178.93 303.379 178.68 303.379C178.301 303.379 177.93 303.297 177.566 303.134C177.206 302.971 176.907 302.723 176.669 302.39C176.434 302.057 176.316 301.636 176.316 301.129V292.447ZM184.99 303.447C184.202 303.447 183.51 303.259 182.916 302.884C182.325 302.509 181.863 301.985 181.529 301.31C181.2 300.636 181.035 299.848 181.035 298.947C181.035 298.038 181.2 297.244 181.529 296.566C181.863 295.888 182.325 295.362 182.916 294.987C183.51 294.612 184.202 294.424 184.99 294.424C185.777 294.424 186.467 294.612 187.058 294.987C187.652 295.362 188.115 295.888 188.444 296.566C188.777 297.244 188.944 298.038 188.944 298.947C188.944 299.848 188.777 300.636 188.444 301.31C188.115 301.985 187.652 302.509 187.058 302.884C186.467 303.259 185.777 303.447 184.99 303.447ZM184.99 302.242C185.588 302.242 186.08 302.089 186.467 301.782C186.853 301.475 187.139 301.072 187.325 300.572C187.51 300.072 187.603 299.53 187.603 298.947C187.603 298.363 187.51 297.82 187.325 297.316C187.139 296.812 186.853 296.405 186.467 296.094C186.08 295.784 185.588 295.629 184.99 295.629C184.391 295.629 183.899 295.784 183.512 296.094C183.126 296.405 182.84 296.812 182.654 297.316C182.469 297.82 182.376 298.363 182.376 298.947C182.376 299.53 182.469 300.072 182.654 300.572C182.84 301.072 183.126 301.475 183.512 301.782C183.899 302.089 184.391 302.242 184.99 302.242ZM190.991 303.265V294.538H192.286V295.856H192.377C192.536 295.424 192.824 295.074 193.241 294.805C193.658 294.536 194.127 294.401 194.65 294.401C194.749 294.401 194.872 294.403 195.019 294.407C195.167 294.411 195.279 294.416 195.355 294.424V295.788C195.309 295.776 195.205 295.759 195.042 295.737C194.883 295.71 194.714 295.697 194.536 295.697C194.112 295.697 193.733 295.786 193.4 295.964C193.07 296.138 192.809 296.38 192.616 296.691C192.427 296.998 192.332 297.348 192.332 297.742V303.265H190.991ZM202.967 303.265V304.515H195.694V303.265H202.967ZM207.974 294.538V295.674H203.451V294.538H207.974ZM204.769 292.447H206.11V300.765C206.11 301.144 206.165 301.428 206.275 301.617C206.389 301.803 206.533 301.928 206.707 301.992C206.885 302.053 207.072 302.083 207.269 302.083C207.417 302.083 207.538 302.076 207.633 302.06C207.728 302.041 207.803 302.026 207.86 302.015L208.133 303.219C208.042 303.254 207.915 303.288 207.752 303.322C207.589 303.36 207.383 303.379 207.133 303.379C206.754 303.379 206.383 303.297 206.019 303.134C205.66 302.971 205.36 302.723 205.122 302.39C204.887 302.057 204.769 301.636 204.769 301.129V292.447ZM210.855 306.538C210.627 306.538 210.425 306.519 210.247 306.481C210.069 306.447 209.945 306.413 209.877 306.379L210.218 305.197C210.544 305.28 210.832 305.31 211.082 305.288C211.332 305.265 211.553 305.153 211.747 304.952C211.944 304.755 212.124 304.435 212.286 303.992L212.536 303.31L209.309 294.538H210.764L213.173 301.492H213.264L215.673 294.538H217.127L213.423 304.538C213.256 304.988 213.05 305.362 212.803 305.657C212.557 305.956 212.271 306.178 211.945 306.322C211.624 306.466 211.26 306.538 210.855 306.538ZM218.897 306.538V294.538H220.193V295.924H220.352C220.45 295.773 220.587 295.579 220.761 295.344C220.939 295.106 221.193 294.894 221.522 294.708C221.856 294.519 222.306 294.424 222.874 294.424C223.609 294.424 224.257 294.608 224.818 294.975C225.378 295.343 225.816 295.863 226.13 296.538C226.445 297.212 226.602 298.007 226.602 298.924C226.602 299.848 226.445 300.649 226.13 301.327C225.816 302.002 225.38 302.524 224.823 302.896C224.267 303.263 223.624 303.447 222.897 303.447C222.337 303.447 221.888 303.354 221.551 303.168C221.213 302.979 220.954 302.765 220.772 302.526C220.59 302.284 220.45 302.083 220.352 301.924H220.238V306.538H218.897ZM220.215 298.901C220.215 299.56 220.312 300.142 220.505 300.646C220.698 301.146 220.981 301.538 221.352 301.822C221.723 302.102 222.177 302.242 222.715 302.242C223.276 302.242 223.744 302.094 224.119 301.799C224.498 301.5 224.782 301.098 224.971 300.594C225.164 300.087 225.261 299.523 225.261 298.901C225.261 298.288 225.166 297.735 224.977 297.242C224.791 296.746 224.509 296.354 224.13 296.066C223.755 295.774 223.284 295.629 222.715 295.629C222.17 295.629 221.712 295.767 221.34 296.043C220.969 296.316 220.689 296.699 220.499 297.191C220.31 297.68 220.215 298.25 220.215 298.901ZM232.306 303.447C231.465 303.447 230.74 303.261 230.13 302.89C229.524 302.515 229.056 301.992 228.727 301.322C228.401 300.648 228.238 299.863 228.238 298.969C228.238 298.076 228.401 297.288 228.727 296.606C229.056 295.92 229.515 295.386 230.102 295.004C230.693 294.617 231.382 294.424 232.17 294.424C232.624 294.424 233.073 294.5 233.517 294.651C233.96 294.803 234.363 295.049 234.727 295.39C235.09 295.727 235.38 296.174 235.596 296.731C235.812 297.288 235.92 297.973 235.92 298.788V299.356H229.193V298.197H234.556C234.556 297.704 234.458 297.265 234.261 296.879C234.068 296.492 233.791 296.187 233.431 295.964C233.075 295.74 232.655 295.629 232.17 295.629C231.636 295.629 231.174 295.761 230.784 296.026C230.397 296.288 230.1 296.629 229.892 297.049C229.683 297.469 229.579 297.92 229.579 298.401V299.174C229.579 299.833 229.693 300.392 229.92 300.85C230.151 301.305 230.471 301.651 230.88 301.89C231.289 302.125 231.765 302.242 232.306 302.242C232.659 302.242 232.977 302.193 233.261 302.094C233.549 301.992 233.797 301.841 234.005 301.64C234.213 301.435 234.374 301.182 234.488 300.879L235.784 301.242C235.647 301.682 235.418 302.068 235.096 302.401C234.774 302.731 234.376 302.988 233.903 303.174C233.429 303.356 232.897 303.447 232.306 303.447Z" fill="black"/>
</svg>
