<svg width="629" height="539" viewBox="0 0 629 539" fill="none" xmlns="http://www.w3.org/2000/svg">
<g clip-path="url(#clip0_644_3562)">
<rect x="-2.5" y="8.5" width="1281" height="560" rx="3.5" stroke="#D0D3D9"/>
<path d="M-7 -18C-7 -20.2092 -5.20914 -22 -3 -22H629V569H-3C-5.20914 569 -7 567.209 -7 565V-18Z" fill="#E8F1FF"/>
<path d="M175 -141V49.2782C175 309.873 54.7608 555.891 -150.852 715.994L-278 815" stroke="#85B4FF"/>
<path d="M276 -141V138.117C276 346.919 198.692 548.327 58.9835 703.504L-45 819" stroke="#85B4FF"/>
<g filter="url(#filter0_f_644_3562)">
<path d="M377 -141V236.476C377 384.407 338.164 529.746 264.377 657.961L174 815" stroke="#C6DDFF"/>
</g>
<path d="M377 -141V236.476C377 384.407 338.164 529.746 264.377 657.961L174 815" stroke="#85B4FF"/>
<path d="M478 -141V365.339C478 429.745 470.636 493.94 456.053 556.674L396 815" stroke="#85B4FF"/>
<path d="M590 -141V462.4V813" stroke="#C6DDFF"/>
<g filter="url(#filter1_f_644_3562)">
<circle cx="364.84" cy="374.022" r="13.0212" transform="rotate(-90 364.84 374.022)" fill="#C6DDFF"/>
</g>
<g filter="url(#filter2_f_644_3562)">
<circle cx="377.5" cy="133.5" r="8.5" transform="rotate(-90 377.5 133.5)" fill="#C6DDFF"/>
</g>
<g filter="url(#filter3_f_644_3562)">
<circle cx="377.5" cy="38.5" r="8.5" transform="rotate(-90 377.5 38.5)" fill="#C6DDFF"/>
</g>
<circle cx="364.84" cy="374.022" r="13.0212" transform="rotate(-90 364.84 374.022)" fill="#C6DDFF"/>
<circle cx="377.5" cy="133.5" r="8.5" transform="rotate(-90 377.5 133.5)" fill="#C6DDFF"/>
<g clip-path="url(#clip1_644_3562)">
<rect width="1920" height="960" transform="translate(-701 -211)" fill="#001525"/>
<path d="M1226.71 188.583L501.596 188.583L162.926 18.985" stroke="#8CB1FF" stroke-width="0.930284" stroke-linecap="round" stroke-linejoin="round"/>
<path d="M1226.71 509.001L501.596 509.001L320.891 779.552" stroke="#8CB1FF" stroke-width="0.930284" stroke-linecap="round" stroke-linejoin="round"/>
<path d="M1226.71 348.788L501.598 348.788L165.277 517.04" stroke="#8CB1FF" stroke-width="0.930284" stroke-linecap="round" stroke-linejoin="round"/>
<path d="M1227.55 108.472L501.598 108.472L165.278 -239.44" stroke="#8CB1FF" stroke-width="0.930284" stroke-linecap="round" stroke-linejoin="round"/>
<path d="M1227.55 28.3716L501.598 28.3716L321.286 -241.9" stroke="#8CB1FF" stroke-width="0.930284" stroke-linecap="round" stroke-linejoin="round"/>
<path d="M1226.71 268.684L501.598 268.684L162.928 268.684" stroke="#8CB1FF" stroke-width="0.930284" stroke-linecap="round" stroke-linejoin="round"/>
<path d="M1226.71 428.894L501.596 428.895L165.276 763.718" stroke="#8CB1FF" stroke-width="0.930284" stroke-linecap="round" stroke-linejoin="round"/>
<path d="M581.7 -241.683L581.7 779.77" stroke="#8CB1FF" stroke-width="0.930284" stroke-linecap="round" stroke-linejoin="round"/>
<path d="M501.597 -238.903L501.597 763.803" stroke="#8CB1FF" stroke-width="0.930284" stroke-linecap="round" stroke-linejoin="round"/>
<path d="M501.597 779.548L501.597 -241.9" stroke="#8CB1FF" stroke-width="0.930284" stroke-linecap="round" stroke-linejoin="round"/>
<path d="M258.676 779.548L258.676 -241.9" stroke="#8CB1FF" stroke-width="0.930284" stroke-linecap="round" stroke-linejoin="round"/>
<path d="M164.502 779.548L164.502 -241.9" stroke="#8CB1FF" stroke-width="0.930284" stroke-linecap="round" stroke-linejoin="round"/>
<path d="M488.537 779.548L488.537 -241.9" stroke="#8CB1FF" stroke-width="0.930284" stroke-linecap="round" stroke-linejoin="round"/>
<path d="M473.164 779.548L473.164 -241.9" stroke="#8CB1FF" stroke-width="0.930284" stroke-linecap="round" stroke-linejoin="round"/>
<path d="M454.798 779.548L454.798 -241.9" stroke="#8CB1FF" stroke-width="0.930284" stroke-linecap="round" stroke-linejoin="round"/>
<path d="M322.872 779.548L322.872 -241.9" stroke="#8CB1FF" stroke-width="0.930284" stroke-linecap="round" stroke-linejoin="round"/>
<path d="M432.476 779.548L432.476 -241.9" stroke="#8CB1FF" stroke-width="0.930284" stroke-linecap="round" stroke-linejoin="round"/>
<path d="M404.759 779.548L404.759 -241.9" stroke="#8CB1FF" stroke-width="0.930284" stroke-linecap="round" stroke-linejoin="round"/>
<path d="M369.436 779.548L369.436 -241.9" stroke="#8CB1FF" stroke-width="0.930284" stroke-linecap="round" stroke-linejoin="round"/>
<line x1="-1329.66" y1="19.7338" x2="164.502" y2="19.7338" stroke="#8CB1FF" stroke-width="0.930284"/>
<line x1="-1329.66" y1="268.535" x2="164.502" y2="268.535" stroke="#8CB1FF" stroke-width="0.930284"/>
<line x1="-1329.66" y1="517.221" x2="164.502" y2="517.221" stroke="#8CB1FF" stroke-width="0.930284"/>
<rect x="-717.297" y="771.18" width="1002.85" height="807.044" transform="rotate(-90 -717.297 771.18)" fill="url(#paint0_linear_644_3562)"/>
</g>
</g>
<defs>
<filter id="filter0_f_644_3562" x="163.866" y="-150.7" width="223.334" height="975.649" filterUnits="userSpaceOnUse" color-interpolation-filters="sRGB">
<feFlood flood-opacity="0" result="BackgroundImageFix"/>
<feBlend mode="normal" in="SourceGraphic" in2="BackgroundImageFix" result="shape"/>
<feGaussianBlur stdDeviation="4.85" result="effect1_foregroundBlur_644_3562"/>
</filter>
<filter id="filter1_f_644_3562" x="326.318" y="335.5" width="77.042" height="77.0425" filterUnits="userSpaceOnUse" color-interpolation-filters="sRGB">
<feFlood flood-opacity="0" result="BackgroundImageFix"/>
<feBlend mode="normal" in="SourceGraphic" in2="BackgroundImageFix" result="shape"/>
<feGaussianBlur stdDeviation="12.75" result="effect1_foregroundBlur_644_3562"/>
</filter>
<filter id="filter2_f_644_3562" x="343.5" y="99.5" width="68" height="68" filterUnits="userSpaceOnUse" color-interpolation-filters="sRGB">
<feFlood flood-opacity="0" result="BackgroundImageFix"/>
<feBlend mode="normal" in="SourceGraphic" in2="BackgroundImageFix" result="shape"/>
<feGaussianBlur stdDeviation="12.75" result="effect1_foregroundBlur_644_3562"/>
</filter>
<filter id="filter3_f_644_3562" x="343.5" y="4.5" width="68" height="68" filterUnits="userSpaceOnUse" color-interpolation-filters="sRGB">
<feFlood flood-opacity="0" result="BackgroundImageFix"/>
<feBlend mode="normal" in="SourceGraphic" in2="BackgroundImageFix" result="shape"/>
<feGaussianBlur stdDeviation="12.75" result="effect1_foregroundBlur_644_3562"/>
</filter>
<linearGradient id="paint0_linear_644_3562" x1="-215.874" y1="771.18" x2="-215.874" y2="1599.2" gradientUnits="userSpaceOnUse">
<stop offset="0.218062" stop-color="#001525"/>
<stop offset="0.770925" stop-color="#001525" stop-opacity="0.75"/>
<stop offset="1" stop-color="#001525" stop-opacity="0"/>
</linearGradient>
<clipPath id="clip0_644_3562">
<rect width="629" height="539" fill="white"/>
</clipPath>
<clipPath id="clip1_644_3562">
<rect width="1920" height="960" fill="white" transform="translate(-701 -211)"/>
</clipPath>
</defs>
</svg>
