<svg width="500" height="350" viewBox="0 0 500 350" fill="none" xmlns="http://www.w3.org/2000/svg">
<rect width="500" height="350" rx="8" fill="white"/>
<g clip-path="url(#clip0_570_3771)">
<path d="M48.983 41.6668L50.4943 43.1781C50.7965 43.4804 51.2874 43.4804 51.5897 43.1781L53.4927 41.2751C53.7974 40.9728 53.7974 40.4795 53.4927 40.1773L52.5424 39.2245C52.3756 39.0601 52.3296 38.8062 52.4408 38.6007C52.6609 38.1799 52.8422 37.7374 52.9898 37.2804C53.0599 37.0579 53.2703 36.9104 53.5048 36.9104H54.8493C55.2773 36.9104 55.6255 36.5622 55.6255 36.1342V33.4429C55.6255 33.0149 55.2773 32.6667 54.8493 32.6667H53.5048C53.2703 32.6667 53.0599 32.5216 52.9898 32.2967C52.8447 31.8397 52.6609 31.3996 52.4408 30.9788C52.332 30.7709 52.3756 30.5194 52.5424 30.3525L53.4927 29.4022C53.7974 29.0975 53.7974 28.6067 53.4927 28.3044L51.5897 26.4014C51.2874 26.0991 50.7965 26.0991 50.4943 26.4014L49.5415 27.3517C49.3771 27.5185 49.1232 27.5645 48.9153 27.4532C48.4969 27.2356 48.0544 27.0518 47.5974 26.9068C47.3725 26.8342 47.2274 26.6238 47.2274 26.3893V25.0448C47.2274 24.6168 46.8792 24.2686 46.4512 24.2686H43.7599C43.3319 24.2686 42.9837 24.6168 42.9837 25.0448V26.3893C42.9837 26.6238 42.8362 26.8342 42.6137 26.9068C42.1567 27.0494 41.7166 27.2356 41.2958 27.4532C41.0879 27.5621 40.834 27.5185 40.6695 27.3517L39.7168 26.4014C39.4146 26.0991 38.9237 26.0991 38.619 26.4014L36.716 28.3044C36.4137 28.6067 36.4137 29.0975 36.716 29.4022L38.3893 31.0731" stroke="#001525" stroke-linecap="round" stroke-linejoin="round"/>
<path d="M48.4967 37.8583C49.4712 37.0193 50.0854 35.7788 50.0854 34.3932C50.0854 31.8663 48.0373 29.8182 45.5104 29.8182C44.1151 29.8182 42.8674 30.442 42.0283 31.4262" stroke="#001525" stroke-linecap="round" stroke-linejoin="round"/>
<path d="M47.1955 38.5136H46.134C45.9792 38.5136 45.8462 38.4096 45.8003 38.2621C45.6915 37.9163 45.5536 37.5827 45.3868 37.2659C45.3142 37.128 45.336 36.9612 45.4448 36.85L46.1968 36.0979C46.4 35.8948 46.4 35.566 46.1968 35.3628L44.7436 33.9096C44.5404 33.7064 44.2116 33.7064 44.0085 33.9096L43.2564 34.6616C43.1476 34.7704 42.9784 34.7922 42.8405 34.7196C42.5238 34.5528 42.1925 34.4149 41.8443 34.3061C41.6968 34.2602 41.5928 34.1272 41.5928 33.9724V32.9109C41.5928 32.6231 41.3606 32.391 41.0729 32.391H39.0175C38.7297 32.391 38.4976 32.6231 38.4976 32.9109V33.9724C38.4976 34.1272 38.3936 34.2602 38.2461 34.3061C37.9004 34.4149 37.5667 34.5528 37.2499 34.7196C37.1121 34.7922 36.9452 34.7704 36.834 34.6616L36.0819 33.9096C35.8788 33.7064 35.55 33.7064 35.3468 33.9096L33.8936 35.3628C33.6905 35.566 33.6905 35.8948 33.8936 36.0979L34.6456 36.85C34.7544 36.9588 34.7762 37.128 34.7036 37.2659C34.5368 37.5827 34.3989 37.9139 34.2901 38.2621C34.2442 38.4096 34.1112 38.5136 33.9564 38.5136H32.8949C32.6071 38.5136 32.375 38.7458 32.375 39.0335V41.0889C32.375 41.3766 32.6071 41.6088 32.8949 41.6088H33.9564C34.1112 41.6088 34.2442 41.7128 34.2901 41.8603C34.3989 42.2061 34.5368 42.5397 34.7036 42.8565C34.7762 42.9943 34.7544 43.1612 34.6456 43.2724L33.8936 44.0245C33.6905 44.2276 33.6905 44.5564 33.8936 44.7596L35.3468 46.2128C35.55 46.416 35.8788 46.416 36.0819 46.2128L36.834 45.4608C36.9428 45.352 37.1121 45.3302 37.2499 45.4028C37.5667 45.5696 37.8979 45.7074 38.2461 45.8163C38.3936 45.8622 38.4976 45.9952 38.4976 46.15V47.2115C38.4976 47.4993 38.7297 47.7314 39.0175 47.7314H41.0729C41.3606 47.7314 41.5928 47.4993 41.5928 47.2115V46.15C41.5928 45.9952 41.6968 45.8622 41.8443 45.8163C42.1901 45.7074 42.5238 45.5696 42.8405 45.4028C42.9784 45.3302 43.1452 45.352 43.2564 45.4608L44.0085 46.2128C44.2116 46.416 44.5404 46.416 44.7436 46.2128L46.1968 44.7596C46.4 44.5564 46.4 44.2276 46.1968 44.0245L45.4448 43.2724C45.336 43.1636 45.3142 42.9943 45.3868 42.8565C45.5536 42.5397 45.6915 42.2085 45.8003 41.8603C45.8462 41.7128 45.9792 41.6088 46.134 41.6088H47.1955C47.4833 41.6088 47.7154 41.3766 47.7154 41.0889V39.0335C47.7154 38.7458 47.4833 38.5136 47.1955 38.5136ZM40.0476 43.2894C38.2703 43.2894 36.8291 41.8482 36.8291 40.0709C36.8291 38.2936 38.2703 36.8524 40.0476 36.8524C41.8249 36.8524 43.2661 38.2936 43.2661 40.0709C43.2661 41.8482 41.8249 43.2894 40.0476 43.2894Z" fill="#222222" stroke="#001525" stroke-linecap="round" stroke-linejoin="round"/>
</g>
<path d="M67.6287 45H64.8162L69.937 30.4545H73.1898L78.3176 45H75.5051L71.6202 33.4375H71.5066L67.6287 45ZM67.7211 39.2969H75.3915V41.4134H67.7211V39.2969ZM84.5463 45.2131C83.4573 45.2131 82.5222 44.974 81.7409 44.4957C80.9644 44.0175 80.3655 43.357 79.9441 42.5142C79.5274 41.6667 79.3191 40.6913 79.3191 39.5881C79.3191 38.4801 79.5321 37.5024 79.9583 36.6548C80.3844 35.8026 80.9857 35.1397 81.7623 34.6662C82.5435 34.188 83.4668 33.9489 84.5321 33.9489C85.4176 33.9489 86.2012 34.1122 86.883 34.4389C87.5695 34.7609 88.1164 35.2178 88.5236 35.8097C88.9308 36.3968 89.1628 37.0833 89.2196 37.8693H86.7623C86.6628 37.3437 86.4261 36.9058 86.052 36.5554C85.6827 36.2003 85.1879 36.0227 84.5676 36.0227C84.0421 36.0227 83.5804 36.1648 83.1827 36.4489C82.785 36.7282 82.4748 37.1307 82.2523 37.6562C82.0345 38.1818 81.9256 38.8116 81.9256 39.5455C81.9256 40.2888 82.0345 40.928 82.2523 41.4631C82.4701 41.9934 82.7755 42.4029 83.1685 42.6918C83.5662 42.9759 84.0326 43.1179 84.5676 43.1179C84.9464 43.1179 85.285 43.0469 85.5833 42.9048C85.8863 42.758 86.1396 42.5473 86.3432 42.2727C86.5468 41.9981 86.6865 41.6643 86.7623 41.2713H89.2196C89.1581 42.0431 88.9308 42.7273 88.5378 43.3239C88.1448 43.9157 87.6098 44.3797 86.9327 44.7159C86.2556 45.0473 85.4602 45.2131 84.5463 45.2131ZM96.0893 45.2131C95.0003 45.2131 94.0652 44.974 93.2839 44.4957C92.5074 44.0175 91.9084 43.357 91.487 42.5142C91.0704 41.6667 90.862 40.6913 90.862 39.5881C90.862 38.4801 91.0751 37.5024 91.5012 36.6548C91.9274 35.8026 92.5287 35.1397 93.3052 34.6662C94.0865 34.188 95.0098 33.9489 96.0751 33.9489C96.9605 33.9489 97.7441 34.1122 98.426 34.4389C99.1125 34.7609 99.6594 35.2178 100.067 35.8097C100.474 36.3968 100.706 37.0833 100.763 37.8693H98.3052C98.2058 37.3437 97.969 36.9058 97.595 36.5554C97.2257 36.2003 96.7309 36.0227 96.1106 36.0227C95.585 36.0227 95.1234 36.1648 94.7257 36.4489C94.3279 36.7282 94.0178 37.1307 93.7953 37.6562C93.5775 38.1818 93.4686 38.8116 93.4686 39.5455C93.4686 40.2888 93.5775 40.928 93.7953 41.4631C94.0131 41.9934 94.3185 42.4029 94.7115 42.6918C95.1092 42.9759 95.5756 43.1179 96.1106 43.1179C96.4894 43.1179 96.8279 43.0469 97.1262 42.9048C97.4293 42.758 97.6826 42.5473 97.8862 42.2727C98.0898 41.9981 98.2295 41.6643 98.3052 41.2713H100.763C100.701 42.0431 100.474 42.7273 100.081 43.3239C99.6878 43.9157 99.1528 44.3797 98.4757 44.7159C97.7986 45.0473 97.0031 45.2131 96.0893 45.2131ZM107.632 45.2131C106.567 45.2131 105.644 44.9787 104.862 44.5099C104.081 44.0412 103.475 43.3854 103.044 42.5426C102.618 41.6998 102.405 40.715 102.405 39.5881C102.405 38.4612 102.618 37.474 103.044 36.6264C103.475 35.7789 104.081 35.1207 104.862 34.652C105.644 34.1832 106.567 33.9489 107.632 33.9489C108.698 33.9489 109.621 34.1832 110.402 34.652C111.183 35.1207 111.787 35.7789 112.213 36.6264C112.644 37.474 112.86 38.4612 112.86 39.5881C112.86 40.715 112.644 41.6998 112.213 42.5426C111.787 43.3854 111.183 44.0412 110.402 44.5099C109.621 44.9787 108.698 45.2131 107.632 45.2131ZM107.646 43.1534C108.224 43.1534 108.707 42.9948 109.095 42.6776C109.484 42.3556 109.772 41.9247 109.962 41.3849C110.156 40.8452 110.253 40.2438 110.253 39.581C110.253 38.9134 110.156 38.3097 109.962 37.7699C109.772 37.2254 109.484 36.7921 109.095 36.4702C108.707 36.1482 108.224 35.9872 107.646 35.9872C107.055 35.9872 106.562 36.1482 106.169 36.4702C105.781 36.7921 105.49 37.2254 105.296 37.7699C105.106 38.3097 105.012 38.9134 105.012 39.581C105.012 40.2438 105.106 40.8452 105.296 41.3849C105.49 41.9247 105.781 42.3556 106.169 42.6776C106.562 42.9948 107.055 43.1534 107.646 43.1534ZM121.995 40.4119V34.0909H124.566V45H122.073V43.0611H121.959C121.713 43.6719 121.308 44.1714 120.745 44.5597C120.186 44.9479 119.497 45.142 118.678 45.142C117.963 45.142 117.331 44.9834 116.782 44.6662C116.237 44.3442 115.811 43.8778 115.503 43.267C115.196 42.6515 115.042 41.9081 115.042 41.0369V34.0909H117.613V40.6392C117.613 41.3305 117.802 41.8797 118.181 42.2869C118.56 42.6941 119.057 42.8977 119.672 42.8977C120.051 42.8977 120.418 42.8054 120.773 42.6207C121.128 42.4361 121.42 42.1615 121.647 41.7969C121.879 41.4276 121.995 40.9659 121.995 40.4119ZM129.781 38.608V45H127.21V34.0909H129.667V35.9446H129.795C130.046 35.3338 130.446 34.8485 130.995 34.4886C131.549 34.1288 132.233 33.9489 133.048 33.9489C133.801 33.9489 134.456 34.1098 135.015 34.4318C135.579 34.7538 136.014 35.2202 136.322 35.831C136.634 36.4418 136.788 37.1828 136.784 38.054V45H134.213V38.4517C134.213 37.7225 134.023 37.152 133.644 36.7401C133.27 36.3281 132.752 36.1222 132.089 36.1222C131.639 36.1222 131.239 36.2216 130.889 36.4205C130.543 36.6146 130.271 36.8963 130.072 37.2656C129.878 37.6349 129.781 38.0824 129.781 38.608ZM144.845 34.0909V36.0795H138.573V34.0909H144.845ZM140.122 31.4773H142.693V41.7188C142.693 42.0644 142.745 42.3295 142.849 42.5142C142.958 42.6941 143.1 42.8172 143.275 42.8835C143.45 42.9498 143.644 42.983 143.857 42.983C144.018 42.983 144.165 42.9711 144.298 42.9474C144.435 42.9238 144.539 42.9025 144.61 42.8835L145.044 44.8935C144.906 44.9408 144.71 44.9929 144.454 45.0497C144.203 45.1065 143.895 45.1397 143.531 45.1491C142.887 45.1681 142.307 45.071 141.791 44.858C141.275 44.6402 140.865 44.304 140.562 43.8494C140.264 43.3949 140.117 42.8267 140.122 42.1449V31.4773Z" fill="black"/>
<rect width="500" height="68.5" transform="translate(0 52)" fill="white"/>
<path d="M42.6364 80.6136V92.25H41.2727L34.9318 83.1136H34.8182V92.25H33.4091V80.6136H34.7727L41.1364 89.7727H41.25V80.6136H42.6364ZM48.9332 92.4318C48.0923 92.4318 47.367 92.2462 46.7571 91.875C46.151 91.5 45.6832 90.9773 45.3537 90.3068C45.0279 89.6326 44.8651 88.8485 44.8651 87.9545C44.8651 87.0606 45.0279 86.2727 45.3537 85.5909C45.6832 84.9053 46.1416 84.3712 46.7287 83.9886C47.3196 83.6023 48.009 83.4091 48.7969 83.4091C49.2514 83.4091 49.7003 83.4848 50.1435 83.6364C50.5866 83.7879 50.9901 84.0341 51.3537 84.375C51.7173 84.7121 52.0071 85.1591 52.223 85.7159C52.4389 86.2727 52.5469 86.9583 52.5469 87.7727V88.3409H45.8196V87.1818H51.1832C51.1832 86.6894 51.0848 86.25 50.8878 85.8636C50.6946 85.4773 50.4181 85.1723 50.0582 84.9489C49.7022 84.7254 49.2817 84.6136 48.7969 84.6136C48.2628 84.6136 47.8007 84.7462 47.4105 85.0114C47.0241 85.2727 46.7268 85.6136 46.5185 86.0341C46.3101 86.4545 46.206 86.9053 46.206 87.3864V88.1591C46.206 88.8182 46.3196 89.3769 46.5469 89.8352C46.7779 90.2898 47.098 90.6364 47.5071 90.875C47.9162 91.1098 48.3916 91.2273 48.9332 91.2273C49.2855 91.2273 49.6037 91.178 49.8878 91.0795C50.1757 90.9773 50.4238 90.8258 50.6321 90.625C50.8404 90.4205 51.0014 90.1667 51.1151 89.8636L52.4105 90.2273C52.2741 90.6667 52.045 91.053 51.723 91.3864C51.401 91.7159 51.0033 91.9735 50.5298 92.1591C50.0563 92.3409 49.5241 92.4318 48.9332 92.4318ZM56.5639 92.25L53.9048 83.5227H55.3139L57.2003 90.2045H57.2912L59.1548 83.5227H60.5866L62.4276 90.1818H62.5185L64.4048 83.5227H65.8139L63.1548 92.25H61.8366L59.9276 85.5455H59.7912L57.8821 92.25H56.5639ZM77.5866 88.6818V83.5227H78.9276V92.25H77.5866V90.7727H77.4957C77.2912 91.2159 76.973 91.5928 76.5412 91.9034C76.1094 92.2102 75.5639 92.3636 74.9048 92.3636C74.3594 92.3636 73.8745 92.2443 73.4503 92.0057C73.026 91.7633 72.6927 91.3996 72.4503 90.9148C72.2079 90.4261 72.0866 89.8106 72.0866 89.0682V83.5227H73.4276V88.9773C73.4276 89.6136 73.6056 90.1212 73.9616 90.5C74.3215 90.8788 74.7798 91.0682 75.3366 91.0682C75.67 91.0682 76.009 90.983 76.3537 90.8125C76.7022 90.642 76.9938 90.3807 77.2287 90.0284C77.4673 89.6761 77.5866 89.2273 77.5866 88.6818ZM87.5653 85.4773L86.3608 85.8182C86.285 85.6174 86.1733 85.4223 86.0256 85.233C85.8816 85.0398 85.6847 84.8807 85.4347 84.7557C85.1847 84.6307 84.8646 84.5682 84.4744 84.5682C83.9403 84.5682 83.4953 84.6913 83.1392 84.9375C82.7869 85.1799 82.6108 85.4886 82.6108 85.8636C82.6108 86.197 82.732 86.4602 82.9744 86.6534C83.2169 86.8466 83.5956 87.0076 84.1108 87.1364L85.4062 87.4545C86.1866 87.6439 86.768 87.9337 87.1506 88.3239C87.5331 88.7102 87.7244 89.2083 87.7244 89.8182C87.7244 90.3182 87.5805 90.7652 87.2926 91.1591C87.0085 91.553 86.6108 91.8636 86.0994 92.0909C85.5881 92.3182 84.9934 92.4318 84.3153 92.4318C83.4252 92.4318 82.6884 92.2386 82.1051 91.8523C81.5218 91.4659 81.1525 90.9015 80.9972 90.1591L82.2699 89.8409C82.3911 90.3106 82.6203 90.6629 82.9574 90.8977C83.2983 91.1326 83.7434 91.25 84.2926 91.25C84.9176 91.25 85.4138 91.1174 85.7812 90.8523C86.1525 90.5833 86.3381 90.2614 86.3381 89.8864C86.3381 89.5833 86.232 89.3295 86.0199 89.125C85.8078 88.9167 85.482 88.7614 85.0426 88.6591L83.5881 88.3182C82.7888 88.1288 82.2017 87.8352 81.8267 87.4375C81.4555 87.036 81.2699 86.5341 81.2699 85.9318C81.2699 85.4394 81.4081 85.0038 81.6847 84.625C81.965 84.2462 82.3456 83.9489 82.8267 83.733C83.3116 83.517 83.8608 83.4091 84.4744 83.4091C85.3381 83.4091 86.0161 83.5985 86.5085 83.9773C87.0047 84.3561 87.357 84.8561 87.5653 85.4773ZM93.402 92.4318C92.5611 92.4318 91.8357 92.2462 91.2259 91.875C90.6198 91.5 90.152 90.9773 89.8224 90.3068C89.4967 89.6326 89.3338 88.8485 89.3338 87.9545C89.3338 87.0606 89.4967 86.2727 89.8224 85.5909C90.152 84.9053 90.6103 84.3712 91.1974 83.9886C91.7884 83.6023 92.4777 83.4091 93.2656 83.4091C93.7202 83.4091 94.169 83.4848 94.6122 83.6364C95.0554 83.7879 95.4588 84.0341 95.8224 84.375C96.1861 84.7121 96.4759 85.1591 96.6918 85.7159C96.9077 86.2727 97.0156 86.9583 97.0156 87.7727V88.3409H90.2884V87.1818H95.652C95.652 86.6894 95.5535 86.25 95.3565 85.8636C95.1634 85.4773 94.8868 85.1723 94.527 84.9489C94.1709 84.7254 93.7505 84.6136 93.2656 84.6136C92.7315 84.6136 92.2694 84.7462 91.8793 85.0114C91.4929 85.2727 91.1955 85.6136 90.9872 86.0341C90.7789 86.4545 90.6747 86.9053 90.6747 87.3864V88.1591C90.6747 88.8182 90.7884 89.3769 91.0156 89.8352C91.2467 90.2898 91.5668 90.6364 91.9759 90.875C92.3849 91.1098 92.8603 91.2273 93.402 91.2273C93.7543 91.2273 94.0724 91.178 94.3565 91.0795C94.6444 90.9773 94.8925 90.8258 95.1009 90.625C95.3092 90.4205 95.4702 90.1667 95.5838 89.8636L96.8793 90.2273C96.7429 90.6667 96.5137 91.053 96.1918 91.3864C95.8698 91.7159 95.4721 91.9735 94.9986 92.1591C94.5251 92.3409 93.9929 92.4318 93.402 92.4318ZM99.0554 92.25V83.5227H100.351V84.8409H100.442C100.601 84.4091 100.889 84.0587 101.305 83.7898C101.722 83.5208 102.192 83.3864 102.714 83.3864C102.813 83.3864 102.936 83.3883 103.084 83.392C103.232 83.3958 103.343 83.4015 103.419 83.4091V84.7727C103.374 84.7614 103.269 84.7443 103.107 84.7216C102.947 84.6951 102.779 84.6818 102.601 84.6818C102.177 84.6818 101.798 84.7708 101.464 84.9489C101.135 85.1231 100.874 85.3655 100.68 85.6761C100.491 85.983 100.396 86.3333 100.396 86.7273V92.25H99.0554Z" fill="black"/>
<rect x="426" y="74.7" width="42.0002" height="23.1001" rx="11.5501" fill="#306BEA"/>
<circle cx="437.55" cy="86.25" r="9.45004" fill="#306BEA"/>
<circle cx="456.45" cy="86.2501" r="9.45004" fill="white"/>
<line y1="120.111" x2="500" y2="120.111" stroke="#D0D3D9" stroke-width="0.77707"/>
<rect width="500" height="68.5" transform="translate(0 120.5)" fill="white"/>
<path d="M33.4091 149.114H35.0909L39.0455 158.773H39.1818L43.1364 149.114H44.8182V160.75H43.5V151.909H43.3864L39.75 160.75H38.4773L34.8409 151.909H34.7273V160.75H33.4091V149.114ZM51.0071 160.932C50.2192 160.932 49.5279 160.744 48.9332 160.369C48.3423 159.994 47.8802 159.47 47.5469 158.795C47.2173 158.121 47.0526 157.333 47.0526 156.432C47.0526 155.523 47.2173 154.729 47.5469 154.051C47.8802 153.373 48.3423 152.847 48.9332 152.472C49.5279 152.097 50.2192 151.909 51.0071 151.909C51.795 151.909 52.4844 152.097 53.0753 152.472C53.67 152.847 54.1321 153.373 54.4616 154.051C54.795 154.729 54.9616 155.523 54.9616 156.432C54.9616 157.333 54.795 158.121 54.4616 158.795C54.1321 159.47 53.67 159.994 53.0753 160.369C52.4844 160.744 51.795 160.932 51.0071 160.932ZM51.0071 159.727C51.6056 159.727 52.098 159.574 52.4844 159.267C52.8707 158.96 53.1567 158.557 53.3423 158.057C53.5279 157.557 53.6207 157.015 53.6207 156.432C53.6207 155.848 53.5279 155.305 53.3423 154.801C53.1567 154.297 52.8707 153.89 52.4844 153.58C52.098 153.269 51.6056 153.114 51.0071 153.114C50.4086 153.114 49.9162 153.269 49.5298 153.58C49.1435 153.89 48.8575 154.297 48.6719 154.801C48.4863 155.305 48.3935 155.848 48.3935 156.432C48.3935 157.015 48.4863 157.557 48.6719 158.057C48.8575 158.557 49.1435 158.96 49.5298 159.267C49.9162 159.574 50.4086 159.727 51.0071 159.727ZM58.3494 155.5V160.75H57.0085V152.023H58.304V153.386H58.4176C58.6222 152.943 58.9328 152.587 59.3494 152.318C59.7661 152.045 60.304 151.909 60.9631 151.909C61.554 151.909 62.071 152.03 62.5142 152.273C62.9574 152.511 63.3021 152.875 63.5483 153.364C63.7945 153.848 63.9176 154.462 63.9176 155.205V160.75H62.5767V155.295C62.5767 154.61 62.3987 154.076 62.0426 153.693C61.6866 153.307 61.1979 153.114 60.5767 153.114C60.1487 153.114 59.7661 153.206 59.429 153.392C59.0956 153.578 58.8324 153.848 58.6392 154.205C58.446 154.561 58.3494 154.992 58.3494 155.5ZM70.1634 152.023V153.159H65.6406V152.023H70.1634ZM66.9588 149.932H68.2997V158.25C68.2997 158.629 68.3546 158.913 68.4645 159.102C68.5781 159.288 68.7221 159.413 68.8963 159.477C69.0743 159.538 69.2618 159.568 69.4588 159.568C69.6065 159.568 69.7277 159.561 69.8224 159.545C69.9171 159.527 69.9929 159.511 70.0497 159.5L70.3224 160.705C70.2315 160.739 70.1046 160.773 69.9418 160.807C69.7789 160.845 69.5724 160.864 69.3224 160.864C68.9437 160.864 68.5724 160.782 68.2088 160.619C67.849 160.456 67.5497 160.208 67.3111 159.875C67.0762 159.542 66.9588 159.121 66.9588 158.614V149.932ZM73.7088 155.5V160.75H72.3679V149.114H73.7088V153.386H73.8224C74.027 152.936 74.3338 152.578 74.7429 152.312C75.1558 152.044 75.705 151.909 76.3906 151.909C76.9853 151.909 77.5062 152.028 77.9531 152.267C78.4001 152.502 78.7467 152.864 78.9929 153.352C79.2429 153.837 79.3679 154.455 79.3679 155.205V160.75H78.027V155.295C78.027 154.602 77.8471 154.066 77.4872 153.688C77.1312 153.305 76.6368 153.114 76.0043 153.114C75.5649 153.114 75.1709 153.206 74.8224 153.392C74.4777 153.578 74.205 153.848 74.0043 154.205C73.8073 154.561 73.7088 154.992 73.7088 155.5ZM83.1619 149.114V160.75H81.821V149.114H83.1619ZM86.4815 164.023C86.2543 164.023 86.0516 164.004 85.8736 163.966C85.6955 163.932 85.5724 163.898 85.5043 163.864L85.8452 162.682C86.1709 162.765 86.4588 162.795 86.7088 162.773C86.9588 162.75 87.1804 162.638 87.3736 162.438C87.5705 162.241 87.7505 161.92 87.9134 161.477L88.1634 160.795L84.9361 152.023H86.3906L88.7997 158.977H88.8906L91.2997 152.023H92.7543L89.0497 162.023C88.883 162.473 88.6766 162.847 88.4304 163.142C88.1842 163.441 87.8982 163.663 87.5724 163.807C87.2505 163.951 86.8868 164.023 86.4815 164.023ZM105.206 153.977L104.001 154.318C103.926 154.117 103.814 153.922 103.666 153.733C103.522 153.54 103.325 153.381 103.075 153.256C102.825 153.131 102.505 153.068 102.115 153.068C101.581 153.068 101.136 153.191 100.78 153.438C100.428 153.68 100.251 153.989 100.251 154.364C100.251 154.697 100.373 154.96 100.615 155.153C100.857 155.347 101.236 155.508 101.751 155.636L103.047 155.955C103.827 156.144 104.409 156.434 104.791 156.824C105.174 157.21 105.365 157.708 105.365 158.318C105.365 158.818 105.221 159.265 104.933 159.659C104.649 160.053 104.251 160.364 103.74 160.591C103.229 160.818 102.634 160.932 101.956 160.932C101.066 160.932 100.329 160.739 99.7457 160.352C99.1624 159.966 98.7931 159.402 98.6378 158.659L99.9105 158.341C100.032 158.811 100.261 159.163 100.598 159.398C100.939 159.633 101.384 159.75 101.933 159.75C102.558 159.75 103.054 159.617 103.422 159.352C103.793 159.083 103.979 158.761 103.979 158.386C103.979 158.083 103.873 157.83 103.661 157.625C103.448 157.417 103.123 157.261 102.683 157.159L101.229 156.818C100.429 156.629 99.8423 156.335 99.4673 155.938C99.0961 155.536 98.9105 155.034 98.9105 154.432C98.9105 153.939 99.0488 153.504 99.3253 153.125C99.6056 152.746 99.9863 152.449 100.467 152.233C100.952 152.017 101.501 151.909 102.115 151.909C102.979 151.909 103.657 152.098 104.149 152.477C104.645 152.856 104.998 153.356 105.206 153.977ZM107.384 164.023V152.023H108.679V153.409H108.838C108.937 153.258 109.073 153.064 109.247 152.83C109.425 152.591 109.679 152.379 110.009 152.193C110.342 152.004 110.793 151.909 111.361 151.909C112.096 151.909 112.743 152.093 113.304 152.46C113.865 152.828 114.302 153.348 114.616 154.023C114.931 154.697 115.088 155.492 115.088 156.409C115.088 157.333 114.931 158.134 114.616 158.812C114.302 159.487 113.866 160.009 113.31 160.381C112.753 160.748 112.111 160.932 111.384 160.932C110.823 160.932 110.374 160.839 110.037 160.653C109.7 160.464 109.44 160.25 109.259 160.011C109.077 159.769 108.937 159.568 108.838 159.409H108.724V164.023H107.384ZM108.702 156.386C108.702 157.045 108.798 157.627 108.991 158.131C109.185 158.631 109.467 159.023 109.838 159.307C110.209 159.587 110.664 159.727 111.202 159.727C111.762 159.727 112.23 159.58 112.605 159.284C112.984 158.985 113.268 158.583 113.457 158.08C113.651 157.572 113.747 157.008 113.747 156.386C113.747 155.773 113.652 155.22 113.463 154.727C113.277 154.231 112.995 153.839 112.616 153.551C112.241 153.259 111.77 153.114 111.202 153.114C110.656 153.114 110.198 153.252 109.827 153.528C109.455 153.801 109.175 154.184 108.986 154.676C108.796 155.165 108.702 155.735 108.702 156.386ZM120.793 160.932C119.952 160.932 119.226 160.746 118.616 160.375C118.01 160 117.543 159.477 117.213 158.807C116.887 158.133 116.724 157.348 116.724 156.455C116.724 155.561 116.887 154.773 117.213 154.091C117.543 153.405 118.001 152.871 118.588 152.489C119.179 152.102 119.868 151.909 120.656 151.909C121.111 151.909 121.56 151.985 122.003 152.136C122.446 152.288 122.849 152.534 123.213 152.875C123.577 153.212 123.866 153.659 124.082 154.216C124.298 154.773 124.406 155.458 124.406 156.273V156.841H117.679V155.682H123.043C123.043 155.189 122.944 154.75 122.747 154.364C122.554 153.977 122.277 153.672 121.918 153.449C121.562 153.225 121.141 153.114 120.656 153.114C120.122 153.114 119.66 153.246 119.27 153.511C118.884 153.773 118.586 154.114 118.378 154.534C118.17 154.955 118.065 155.405 118.065 155.886V156.659C118.065 157.318 118.179 157.877 118.406 158.335C118.637 158.79 118.957 159.136 119.366 159.375C119.776 159.61 120.251 159.727 120.793 159.727C121.145 159.727 121.463 159.678 121.747 159.58C122.035 159.477 122.283 159.326 122.491 159.125C122.7 158.92 122.861 158.667 122.974 158.364L124.27 158.727C124.134 159.167 123.904 159.553 123.582 159.886C123.26 160.216 122.863 160.473 122.389 160.659C121.916 160.841 121.384 160.932 120.793 160.932ZM127.787 155.5V160.75H126.446V152.023H127.741V153.386H127.855C128.06 152.943 128.37 152.587 128.787 152.318C129.204 152.045 129.741 151.909 130.401 151.909C130.991 151.909 131.509 152.03 131.952 152.273C132.395 152.511 132.74 152.875 132.986 153.364C133.232 153.848 133.355 154.462 133.355 155.205V160.75H132.014V155.295C132.014 154.61 131.836 154.076 131.48 153.693C131.124 153.307 130.635 153.114 130.014 153.114C129.586 153.114 129.204 153.206 128.866 153.392C128.533 153.578 128.27 153.848 128.077 154.205C127.884 154.561 127.787 154.992 127.787 155.5ZM139.101 160.932C138.374 160.932 137.732 160.748 137.175 160.381C136.618 160.009 136.182 159.487 135.868 158.812C135.554 158.134 135.396 157.333 135.396 156.409C135.396 155.492 135.554 154.697 135.868 154.023C136.182 153.348 136.62 152.828 137.18 152.46C137.741 152.093 138.389 151.909 139.124 151.909C139.692 151.909 140.141 152.004 140.47 152.193C140.804 152.379 141.057 152.591 141.232 152.83C141.41 153.064 141.548 153.258 141.646 153.409H141.76V149.114H143.101V160.75H141.805V159.409H141.646C141.548 159.568 141.408 159.769 141.226 160.011C141.044 160.25 140.785 160.464 140.447 160.653C140.11 160.839 139.661 160.932 139.101 160.932ZM139.283 159.727C139.821 159.727 140.275 159.587 140.646 159.307C141.018 159.023 141.3 158.631 141.493 158.131C141.686 157.627 141.783 157.045 141.783 156.386C141.783 155.735 141.688 155.165 141.499 154.676C141.309 154.184 141.029 153.801 140.658 153.528C140.286 153.252 139.828 153.114 139.283 153.114C138.714 153.114 138.241 153.259 137.862 153.551C137.487 153.839 137.205 154.231 137.016 154.727C136.83 155.22 136.737 155.773 136.737 156.386C136.737 157.008 136.832 157.572 137.021 158.08C137.214 158.583 137.499 158.985 137.874 159.284C138.252 159.58 138.722 159.727 139.283 159.727ZM152.22 160.75L149.561 152.023H150.97L152.857 158.705H152.947L154.811 152.023H156.243L158.084 158.682H158.175L160.061 152.023H161.47L158.811 160.75H157.493L155.584 154.045H155.447L153.538 160.75H152.22ZM165.811 160.955C165.258 160.955 164.756 160.85 164.305 160.642C163.855 160.43 163.497 160.125 163.232 159.727C162.966 159.326 162.834 158.841 162.834 158.273C162.834 157.773 162.932 157.367 163.129 157.057C163.326 156.742 163.589 156.496 163.919 156.318C164.249 156.14 164.612 156.008 165.01 155.92C165.411 155.83 165.815 155.758 166.22 155.705C166.75 155.636 167.18 155.585 167.51 155.551C167.843 155.513 168.086 155.451 168.237 155.364C168.393 155.277 168.47 155.125 168.47 154.909V154.864C168.47 154.303 168.317 153.867 168.01 153.557C167.707 153.246 167.247 153.091 166.629 153.091C165.989 153.091 165.487 153.231 165.124 153.511C164.76 153.792 164.504 154.091 164.357 154.409L163.084 153.955C163.311 153.424 163.614 153.011 163.993 152.716C164.375 152.417 164.792 152.208 165.243 152.091C165.697 151.97 166.144 151.909 166.584 151.909C166.864 151.909 167.186 151.943 167.55 152.011C167.917 152.076 168.271 152.21 168.612 152.415C168.957 152.619 169.243 152.928 169.47 153.341C169.697 153.754 169.811 154.307 169.811 155V160.75H168.47V159.568H168.402C168.311 159.758 168.16 159.96 167.947 160.176C167.735 160.392 167.453 160.576 167.101 160.727C166.749 160.879 166.319 160.955 165.811 160.955ZM166.016 159.75C166.546 159.75 166.993 159.646 167.357 159.438C167.724 159.229 168 158.96 168.186 158.631C168.375 158.301 168.47 157.955 168.47 157.591V156.364C168.413 156.432 168.288 156.494 168.095 156.551C167.906 156.604 167.686 156.652 167.436 156.693C167.19 156.731 166.949 156.765 166.714 156.795C166.483 156.822 166.296 156.845 166.152 156.864C165.804 156.909 165.478 156.983 165.175 157.085C164.875 157.184 164.633 157.333 164.447 157.534C164.266 157.731 164.175 158 164.175 158.341C164.175 158.807 164.347 159.159 164.692 159.398C165.04 159.633 165.482 159.75 166.016 159.75ZM172.259 160.75V152.023H173.554V153.341H173.645C173.804 152.909 174.092 152.559 174.509 152.29C174.925 152.021 175.395 151.886 175.918 151.886C176.016 151.886 176.139 151.888 176.287 151.892C176.435 151.896 176.546 151.902 176.622 151.909V153.273C176.577 153.261 176.473 153.244 176.31 153.222C176.151 153.195 175.982 153.182 175.804 153.182C175.38 153.182 175.001 153.271 174.668 153.449C174.338 153.623 174.077 153.866 173.884 154.176C173.694 154.483 173.599 154.833 173.599 155.227V160.75H172.259ZM179.553 155.5V160.75H178.212V152.023H179.507V153.386H179.621C179.825 152.943 180.136 152.587 180.553 152.318C180.969 152.045 181.507 151.909 182.166 151.909C182.757 151.909 183.274 152.03 183.717 152.273C184.161 152.511 184.505 152.875 184.751 153.364C184.998 153.848 185.121 154.462 185.121 155.205V160.75H183.78V155.295C183.78 154.61 183.602 154.076 183.246 153.693C182.89 153.307 182.401 153.114 181.78 153.114C181.352 153.114 180.969 153.206 180.632 153.392C180.299 153.578 180.036 153.848 179.842 154.205C179.649 154.561 179.553 154.992 179.553 155.5ZM187.571 160.75V152.023H188.912V160.75H187.571ZM188.253 150.568C187.991 150.568 187.766 150.479 187.577 150.301C187.391 150.123 187.298 149.909 187.298 149.659C187.298 149.409 187.391 149.195 187.577 149.017C187.766 148.839 187.991 148.75 188.253 148.75C188.514 148.75 188.738 148.839 188.923 149.017C189.113 149.195 189.207 149.409 189.207 149.659C189.207 149.909 189.113 150.123 188.923 150.301C188.738 150.479 188.514 150.568 188.253 150.568ZM192.709 155.5V160.75H191.368V152.023H192.663V153.386H192.777C192.982 152.943 193.292 152.587 193.709 152.318C194.125 152.045 194.663 151.909 195.322 151.909C195.913 151.909 196.43 152.03 196.874 152.273C197.317 152.511 197.661 152.875 197.908 153.364C198.154 153.848 198.277 154.462 198.277 155.205V160.75H196.936V155.295C196.936 154.61 196.758 154.076 196.402 153.693C196.046 153.307 195.557 153.114 194.936 153.114C194.508 153.114 194.125 153.206 193.788 153.392C193.455 153.578 193.192 153.848 192.999 154.205C192.805 154.561 192.709 154.992 192.709 155.5ZM204.25 164.205C203.602 164.205 203.045 164.121 202.58 163.955C202.114 163.792 201.725 163.576 201.415 163.307C201.108 163.042 200.864 162.758 200.682 162.455L201.75 161.705C201.871 161.864 202.025 162.045 202.21 162.25C202.396 162.458 202.65 162.638 202.972 162.79C203.297 162.945 203.723 163.023 204.25 163.023C204.955 163.023 205.536 162.852 205.994 162.511C206.453 162.17 206.682 161.636 206.682 160.909V159.136H206.568C206.47 159.295 206.33 159.492 206.148 159.727C205.97 159.958 205.712 160.165 205.375 160.347C205.042 160.525 204.591 160.614 204.023 160.614C203.318 160.614 202.686 160.447 202.125 160.114C201.568 159.78 201.127 159.295 200.801 158.659C200.479 158.023 200.318 157.25 200.318 156.341C200.318 155.447 200.475 154.669 200.79 154.006C201.104 153.339 201.542 152.824 202.102 152.46C202.663 152.093 203.311 151.909 204.045 151.909C204.614 151.909 205.064 152.004 205.398 152.193C205.735 152.379 205.992 152.591 206.17 152.83C206.352 153.064 206.492 153.258 206.591 153.409H206.727V152.023H208.023V161C208.023 161.75 207.852 162.36 207.511 162.83C207.174 163.303 206.72 163.65 206.148 163.869C205.58 164.093 204.947 164.205 204.25 164.205ZM204.205 159.409C204.742 159.409 205.197 159.286 205.568 159.04C205.939 158.794 206.222 158.439 206.415 157.977C206.608 157.515 206.705 156.962 206.705 156.318C206.705 155.689 206.61 155.134 206.42 154.653C206.231 154.172 205.951 153.795 205.58 153.523C205.208 153.25 204.75 153.114 204.205 153.114C203.636 153.114 203.163 153.258 202.784 153.545C202.409 153.833 202.127 154.22 201.938 154.705C201.752 155.189 201.659 155.727 201.659 156.318C201.659 156.924 201.754 157.46 201.943 157.926C202.136 158.388 202.42 158.752 202.795 159.017C203.174 159.278 203.644 159.409 204.205 159.409Z" fill="black"/>
<rect x="426" y="143.2" width="42.0002" height="23.1001" rx="11.5501" fill="#8A8C8F"/>
<circle cx="437.55" cy="154.75" r="9.45004" fill="white"/>
<line y1="188.611" x2="500" y2="188.611" stroke="#D0D3D9" stroke-width="0.77707"/>
<rect width="500" height="68.5" transform="translate(0 189)" fill="white"/>
<path d="M33.4091 229.25V217.614H34.8182V228H40.2273V229.25H33.4091ZM45.7727 229.432C44.9848 229.432 44.2936 229.244 43.6989 228.869C43.108 228.494 42.6458 227.97 42.3125 227.295C41.983 226.621 41.8182 225.833 41.8182 224.932C41.8182 224.023 41.983 223.229 42.3125 222.551C42.6458 221.873 43.108 221.347 43.6989 220.972C44.2936 220.597 44.9848 220.409 45.7727 220.409C46.5606 220.409 47.25 220.597 47.8409 220.972C48.4356 221.347 48.8977 221.873 49.2273 222.551C49.5606 223.229 49.7273 224.023 49.7273 224.932C49.7273 225.833 49.5606 226.621 49.2273 227.295C48.8977 227.97 48.4356 228.494 47.8409 228.869C47.25 229.244 46.5606 229.432 45.7727 229.432ZM45.7727 228.227C46.3712 228.227 46.8636 228.074 47.25 227.767C47.6364 227.46 47.9223 227.057 48.108 226.557C48.2936 226.057 48.3864 225.515 48.3864 224.932C48.3864 224.348 48.2936 223.805 48.108 223.301C47.9223 222.797 47.6364 222.39 47.25 222.08C46.8636 221.769 46.3712 221.614 45.7727 221.614C45.1742 221.614 44.6818 221.769 44.2955 222.08C43.9091 222.39 43.6231 222.797 43.4375 223.301C43.2519 223.805 43.1591 224.348 43.1591 224.932C43.1591 225.515 43.2519 226.057 43.4375 226.557C43.6231 227.057 43.9091 227.46 44.2955 227.767C44.6818 228.074 45.1742 228.227 45.7727 228.227ZM53.4545 229.25L50.7955 220.523H52.2045L54.0909 227.205H54.1818L56.0455 220.523H57.4773L59.3182 227.182H59.4091L61.2955 220.523H62.7045L60.0455 229.25H58.7273L56.8182 222.545H56.6818L54.7727 229.25H53.4545ZM75.1591 222.477L73.9545 222.818C73.8788 222.617 73.767 222.422 73.6193 222.233C73.4754 222.04 73.2784 221.881 73.0284 221.756C72.7784 221.631 72.4583 221.568 72.0682 221.568C71.5341 221.568 71.089 221.691 70.733 221.938C70.3807 222.18 70.2045 222.489 70.2045 222.864C70.2045 223.197 70.3258 223.46 70.5682 223.653C70.8106 223.847 71.1894 224.008 71.7045 224.136L73 224.455C73.7803 224.644 74.3617 224.934 74.7443 225.324C75.1269 225.71 75.3182 226.208 75.3182 226.818C75.3182 227.318 75.1742 227.765 74.8864 228.159C74.6023 228.553 74.2045 228.864 73.6932 229.091C73.1818 229.318 72.5871 229.432 71.9091 229.432C71.0189 229.432 70.2822 229.239 69.6989 228.852C69.1155 228.466 68.7462 227.902 68.5909 227.159L69.8636 226.841C69.9848 227.311 70.214 227.663 70.5511 227.898C70.892 228.133 71.3371 228.25 71.8864 228.25C72.5114 228.25 73.0076 228.117 73.375 227.852C73.7462 227.583 73.9318 227.261 73.9318 226.886C73.9318 226.583 73.8258 226.33 73.6136 226.125C73.4015 225.917 73.0758 225.761 72.6364 225.659L71.1818 225.318C70.3826 225.129 69.7955 224.835 69.4205 224.438C69.0492 224.036 68.8636 223.534 68.8636 222.932C68.8636 222.439 69.0019 222.004 69.2784 221.625C69.5587 221.246 69.9394 220.949 70.4205 220.733C70.9053 220.517 71.4545 220.409 72.0682 220.409C72.9318 220.409 73.6098 220.598 74.1023 220.977C74.5985 221.356 74.9508 221.856 75.1591 222.477ZM77.3366 232.523V220.523H78.6321V221.909H78.7912C78.8897 221.758 79.026 221.564 79.2003 221.33C79.3783 221.091 79.6321 220.879 79.9616 220.693C80.295 220.504 80.7457 220.409 81.3139 220.409C82.0488 220.409 82.6965 220.593 83.2571 220.96C83.8177 221.328 84.2552 221.848 84.5696 222.523C84.884 223.197 85.0412 223.992 85.0412 224.909C85.0412 225.833 84.884 226.634 84.5696 227.312C84.2552 227.987 83.8196 228.509 83.2628 228.881C82.706 229.248 82.0639 229.432 81.3366 229.432C80.776 229.432 80.3272 229.339 79.9901 229.153C79.6529 228.964 79.3935 228.75 79.2116 228.511C79.0298 228.269 78.8897 228.068 78.7912 227.909H78.6776V232.523H77.3366ZM78.6548 224.886C78.6548 225.545 78.7514 226.127 78.9446 226.631C79.1378 227.131 79.42 227.523 79.7912 227.807C80.1624 228.087 80.617 228.227 81.1548 228.227C81.7154 228.227 82.1832 228.08 82.5582 227.784C82.937 227.485 83.2211 227.083 83.4105 226.58C83.6037 226.072 83.7003 225.508 83.7003 224.886C83.7003 224.273 83.6056 223.72 83.4162 223.227C83.2306 222.731 82.9484 222.339 82.5696 222.051C82.1946 221.759 81.723 221.614 81.1548 221.614C80.6094 221.614 80.151 221.752 79.7798 222.028C79.4086 222.301 79.1283 222.684 78.9389 223.176C78.7495 223.665 78.6548 224.235 78.6548 224.886ZM90.7457 229.432C89.9048 229.432 89.1795 229.246 88.5696 228.875C87.9635 228.5 87.4957 227.977 87.1662 227.307C86.8404 226.633 86.6776 225.848 86.6776 224.955C86.6776 224.061 86.8404 223.273 87.1662 222.591C87.4957 221.905 87.9541 221.371 88.5412 220.989C89.1321 220.602 89.8215 220.409 90.6094 220.409C91.0639 220.409 91.5128 220.485 91.956 220.636C92.3991 220.788 92.8026 221.034 93.1662 221.375C93.5298 221.712 93.8196 222.159 94.0355 222.716C94.2514 223.273 94.3594 223.958 94.3594 224.773V225.341H87.6321V224.182H92.9957C92.9957 223.689 92.8973 223.25 92.7003 222.864C92.5071 222.477 92.2306 222.172 91.8707 221.949C91.5147 221.725 91.0942 221.614 90.6094 221.614C90.0753 221.614 89.6132 221.746 89.223 222.011C88.8366 222.273 88.5393 222.614 88.331 223.034C88.1226 223.455 88.0185 223.905 88.0185 224.386V225.159C88.0185 225.818 88.1321 226.377 88.3594 226.835C88.5904 227.29 88.9105 227.636 89.3196 227.875C89.7287 228.11 90.2041 228.227 90.7457 228.227C91.098 228.227 91.4162 228.178 91.7003 228.08C91.9882 227.977 92.2363 227.826 92.4446 227.625C92.6529 227.42 92.8139 227.167 92.9276 226.864L94.223 227.227C94.0866 227.667 93.8575 228.053 93.5355 228.386C93.2135 228.716 92.8158 228.973 92.3423 229.159C91.8688 229.341 91.3366 229.432 90.7457 229.432ZM97.7401 224V229.25H96.3991V220.523H97.6946V221.886H97.8082C98.0128 221.443 98.3234 221.087 98.7401 220.818C99.1567 220.545 99.6946 220.409 100.354 220.409C100.945 220.409 101.462 220.53 101.905 220.773C102.348 221.011 102.693 221.375 102.939 221.864C103.185 222.348 103.308 222.962 103.308 223.705V229.25H101.967V223.795C101.967 223.11 101.789 222.576 101.433 222.193C101.077 221.807 100.589 221.614 99.9673 221.614C99.5393 221.614 99.1567 221.706 98.8196 221.892C98.4863 222.078 98.223 222.348 98.0298 222.705C97.8366 223.061 97.7401 223.492 97.7401 224ZM109.054 229.432C108.327 229.432 107.685 229.248 107.128 228.881C106.571 228.509 106.135 227.987 105.821 227.312C105.507 226.634 105.349 225.833 105.349 224.909C105.349 223.992 105.507 223.197 105.821 222.523C106.135 221.848 106.573 221.328 107.134 220.96C107.694 220.593 108.342 220.409 109.077 220.409C109.645 220.409 110.094 220.504 110.423 220.693C110.757 220.879 111.01 221.091 111.185 221.33C111.363 221.564 111.501 221.758 111.599 221.909H111.713V217.614H113.054V229.25H111.759V227.909H111.599C111.501 228.068 111.361 228.269 111.179 228.511C110.997 228.75 110.738 228.964 110.401 229.153C110.063 229.339 109.615 229.432 109.054 229.432ZM109.236 228.227C109.774 228.227 110.228 228.087 110.599 227.807C110.971 227.523 111.253 227.131 111.446 226.631C111.639 226.127 111.736 225.545 111.736 224.886C111.736 224.235 111.641 223.665 111.452 223.176C111.262 222.684 110.982 222.301 110.611 222.028C110.24 221.752 109.781 221.614 109.236 221.614C108.668 221.614 108.194 221.759 107.815 222.051C107.44 222.339 107.158 222.731 106.969 223.227C106.783 223.72 106.69 224.273 106.69 224.886C106.69 225.508 106.785 226.072 106.974 226.58C107.168 227.083 107.452 227.485 107.827 227.784C108.205 228.08 108.675 228.227 109.236 228.227ZM122.173 229.25L119.514 220.523H120.923L122.81 227.205H122.901L124.764 220.523H126.196L128.037 227.182H128.128L130.014 220.523H131.423L128.764 229.25H127.446L125.537 222.545H125.401L123.491 229.25H122.173ZM135.764 229.455C135.211 229.455 134.709 229.35 134.259 229.142C133.808 228.93 133.45 228.625 133.185 228.227C132.92 227.826 132.787 227.341 132.787 226.773C132.787 226.273 132.885 225.867 133.082 225.557C133.279 225.242 133.543 224.996 133.872 224.818C134.202 224.64 134.565 224.508 134.963 224.42C135.365 224.33 135.768 224.258 136.173 224.205C136.704 224.136 137.134 224.085 137.463 224.051C137.796 224.013 138.039 223.951 138.19 223.864C138.346 223.777 138.423 223.625 138.423 223.409V223.364C138.423 222.803 138.27 222.367 137.963 222.057C137.66 221.746 137.2 221.591 136.582 221.591C135.942 221.591 135.44 221.731 135.077 222.011C134.713 222.292 134.457 222.591 134.31 222.909L133.037 222.455C133.264 221.924 133.567 221.511 133.946 221.216C134.329 220.917 134.745 220.708 135.196 220.591C135.651 220.47 136.098 220.409 136.537 220.409C136.817 220.409 137.139 220.443 137.503 220.511C137.87 220.576 138.224 220.71 138.565 220.915C138.91 221.119 139.196 221.428 139.423 221.841C139.651 222.254 139.764 222.807 139.764 223.5V229.25H138.423V228.068H138.355C138.264 228.258 138.113 228.46 137.901 228.676C137.688 228.892 137.406 229.076 137.054 229.227C136.702 229.379 136.272 229.455 135.764 229.455ZM135.969 228.25C136.499 228.25 136.946 228.146 137.31 227.938C137.677 227.729 137.954 227.46 138.139 227.131C138.329 226.801 138.423 226.455 138.423 226.091V224.864C138.366 224.932 138.241 224.994 138.048 225.051C137.859 225.104 137.639 225.152 137.389 225.193C137.143 225.231 136.902 225.265 136.668 225.295C136.437 225.322 136.249 225.345 136.105 225.364C135.757 225.409 135.431 225.483 135.128 225.585C134.829 225.684 134.586 225.833 134.401 226.034C134.219 226.231 134.128 226.5 134.128 226.841C134.128 227.307 134.3 227.659 134.645 227.898C134.993 228.133 135.435 228.25 135.969 228.25ZM142.212 229.25V220.523H143.507V221.841H143.598C143.757 221.409 144.045 221.059 144.462 220.79C144.878 220.521 145.348 220.386 145.871 220.386C145.969 220.386 146.092 220.388 146.24 220.392C146.388 220.396 146.5 220.402 146.575 220.409V221.773C146.53 221.761 146.426 221.744 146.263 221.722C146.104 221.695 145.935 221.682 145.757 221.682C145.333 221.682 144.954 221.771 144.621 221.949C144.291 222.123 144.03 222.366 143.837 222.676C143.647 222.983 143.553 223.333 143.553 223.727V229.25H142.212ZM149.506 224V229.25H148.165V220.523H149.46V221.886H149.574C149.778 221.443 150.089 221.087 150.506 220.818C150.922 220.545 151.46 220.409 152.119 220.409C152.71 220.409 153.227 220.53 153.67 220.773C154.114 221.011 154.458 221.375 154.705 221.864C154.951 222.348 155.074 222.962 155.074 223.705V229.25H153.733V223.795C153.733 223.11 153.555 222.576 153.199 222.193C152.843 221.807 152.354 221.614 151.733 221.614C151.305 221.614 150.922 221.706 150.585 221.892C150.252 222.078 149.989 222.348 149.795 222.705C149.602 223.061 149.506 223.492 149.506 224ZM157.524 229.25V220.523H158.865V229.25H157.524ZM158.206 219.068C157.945 219.068 157.719 218.979 157.53 218.801C157.344 218.623 157.251 218.409 157.251 218.159C157.251 217.909 157.344 217.695 157.53 217.517C157.719 217.339 157.945 217.25 158.206 217.25C158.467 217.25 158.691 217.339 158.876 217.517C159.066 217.695 159.161 217.909 159.161 218.159C159.161 218.409 159.066 218.623 158.876 218.801C158.691 218.979 158.467 219.068 158.206 219.068ZM162.662 224V229.25H161.321V220.523H162.616V221.886H162.73C162.935 221.443 163.245 221.087 163.662 220.818C164.079 220.545 164.616 220.409 165.276 220.409C165.866 220.409 166.384 220.53 166.827 220.773C167.27 221.011 167.615 221.375 167.861 221.864C168.107 222.348 168.23 222.962 168.23 223.705V229.25H166.889V223.795C166.889 223.11 166.711 222.576 166.355 222.193C165.999 221.807 165.51 221.614 164.889 221.614C164.461 221.614 164.079 221.706 163.741 221.892C163.408 222.078 163.145 222.348 162.952 222.705C162.759 223.061 162.662 223.492 162.662 224ZM174.203 232.705C173.555 232.705 172.999 232.621 172.533 232.455C172.067 232.292 171.679 232.076 171.368 231.807C171.061 231.542 170.817 231.258 170.635 230.955L171.703 230.205C171.824 230.364 171.978 230.545 172.163 230.75C172.349 230.958 172.603 231.138 172.925 231.29C173.25 231.445 173.677 231.523 174.203 231.523C174.908 231.523 175.489 231.352 175.947 231.011C176.406 230.67 176.635 230.136 176.635 229.409V227.636H176.521C176.423 227.795 176.283 227.992 176.101 228.227C175.923 228.458 175.665 228.665 175.328 228.847C174.995 229.025 174.544 229.114 173.976 229.114C173.271 229.114 172.639 228.947 172.078 228.614C171.521 228.28 171.08 227.795 170.754 227.159C170.432 226.523 170.271 225.75 170.271 224.841C170.271 223.947 170.429 223.169 170.743 222.506C171.057 221.839 171.495 221.324 172.055 220.96C172.616 220.593 173.264 220.409 173.999 220.409C174.567 220.409 175.018 220.504 175.351 220.693C175.688 220.879 175.946 221.091 176.124 221.33C176.305 221.564 176.446 221.758 176.544 221.909H176.68V220.523H177.976V229.5C177.976 230.25 177.805 230.86 177.464 231.33C177.127 231.803 176.673 232.15 176.101 232.369C175.533 232.593 174.9 232.705 174.203 232.705ZM174.158 227.909C174.696 227.909 175.15 227.786 175.521 227.54C175.893 227.294 176.175 226.939 176.368 226.477C176.561 226.015 176.658 225.462 176.658 224.818C176.658 224.189 176.563 223.634 176.374 223.153C176.184 222.672 175.904 222.295 175.533 222.023C175.161 221.75 174.703 221.614 174.158 221.614C173.589 221.614 173.116 221.758 172.737 222.045C172.362 222.333 172.08 222.72 171.891 223.205C171.705 223.689 171.612 224.227 171.612 224.818C171.612 225.424 171.707 225.96 171.896 226.426C172.089 226.888 172.374 227.252 172.749 227.517C173.127 227.778 173.597 227.909 174.158 227.909Z" fill="black"/>
<rect x="426" y="211.7" width="42.0002" height="23.1001" rx="11.5501" fill="#306BEA"/>
<circle cx="437.55" cy="223.25" r="9.45004" fill="#306BEA"/>
<circle cx="456.45" cy="223.25" r="9.45004" fill="white"/>
<line y1="257.111" x2="500" y2="257.111" stroke="#D0D3D9" stroke-width="0.77707"/>
<rect width="500" height="68.5" transform="translate(0 257.5)" fill="white"/>
<path d="M39.7727 289.023C39.7045 288.447 39.428 288 38.9432 287.682C38.4583 287.364 37.8636 287.205 37.1591 287.205C36.6439 287.205 36.1932 287.288 35.8068 287.455C35.4242 287.621 35.125 287.85 34.9091 288.142C34.697 288.434 34.5909 288.765 34.5909 289.136C34.5909 289.447 34.6648 289.714 34.8125 289.938C34.964 290.157 35.1572 290.341 35.392 290.489C35.6269 290.633 35.8731 290.752 36.1307 290.847C36.3883 290.937 36.625 291.011 36.8409 291.068L38.0227 291.386C38.3258 291.466 38.6629 291.576 39.0341 291.716C39.4091 291.856 39.767 292.047 40.108 292.29C40.4527 292.528 40.7367 292.835 40.9602 293.21C41.1837 293.585 41.2955 294.045 41.2955 294.591C41.2955 295.22 41.1307 295.788 40.8011 296.295C40.4754 296.803 39.9981 297.206 39.3693 297.506C38.7443 297.805 37.9848 297.955 37.0909 297.955C36.2576 297.955 35.536 297.82 34.9261 297.551C34.3201 297.282 33.8428 296.907 33.4943 296.426C33.1496 295.945 32.9545 295.386 32.9091 294.75H34.3636C34.4015 295.189 34.5492 295.553 34.8068 295.841C35.0682 296.125 35.3977 296.337 35.7955 296.477C36.197 296.614 36.6288 296.682 37.0909 296.682C37.6288 296.682 38.1117 296.595 38.5398 296.42C38.9678 296.242 39.3068 295.996 39.5568 295.682C39.8068 295.364 39.9318 294.992 39.9318 294.568C39.9318 294.182 39.8239 293.867 39.608 293.625C39.392 293.383 39.108 293.186 38.7557 293.034C38.4034 292.883 38.0227 292.75 37.6136 292.636L36.1818 292.227C35.2727 291.966 34.553 291.593 34.0227 291.108C33.4924 290.623 33.2273 289.989 33.2273 289.205C33.2273 288.553 33.4034 287.985 33.7557 287.5C34.1117 287.011 34.589 286.633 35.1875 286.364C35.7898 286.091 36.4621 285.955 37.2045 285.955C37.9545 285.955 38.6212 286.089 39.2045 286.358C39.7879 286.623 40.25 286.987 40.5909 287.449C40.9356 287.911 41.1174 288.436 41.1364 289.023H39.7727ZM44.294 301.023C44.0668 301.023 43.8641 301.004 43.6861 300.966C43.508 300.932 43.3849 300.898 43.3168 300.864L43.6577 299.682C43.9834 299.765 44.2713 299.795 44.5213 299.773C44.7713 299.75 44.9929 299.638 45.1861 299.438C45.383 299.241 45.563 298.92 45.7259 298.477L45.9759 297.795L42.7486 289.023H44.2031L46.6122 295.977H46.7031L49.1122 289.023H50.5668L46.8622 299.023C46.6955 299.473 46.4891 299.847 46.2429 300.142C45.9967 300.441 45.7107 300.663 45.3849 300.807C45.063 300.951 44.6993 301.023 44.294 301.023ZM58.5185 290.977L57.3139 291.318C57.2382 291.117 57.1264 290.922 56.9787 290.733C56.8348 290.54 56.6378 290.381 56.3878 290.256C56.1378 290.131 55.8177 290.068 55.4276 290.068C54.8935 290.068 54.4484 290.191 54.0923 290.438C53.7401 290.68 53.5639 290.989 53.5639 291.364C53.5639 291.697 53.6851 291.96 53.9276 292.153C54.17 292.347 54.5488 292.508 55.0639 292.636L56.3594 292.955C57.1397 293.144 57.7211 293.434 58.1037 293.824C58.4863 294.21 58.6776 294.708 58.6776 295.318C58.6776 295.818 58.5336 296.265 58.2457 296.659C57.9616 297.053 57.5639 297.364 57.0526 297.591C56.5412 297.818 55.9465 297.932 55.2685 297.932C54.3783 297.932 53.6416 297.739 53.0582 297.352C52.4749 296.966 52.1056 296.402 51.9503 295.659L53.223 295.341C53.3442 295.811 53.5734 296.163 53.9105 296.398C54.2514 296.633 54.6965 296.75 55.2457 296.75C55.8707 296.75 56.367 296.617 56.7344 296.352C57.1056 296.083 57.2912 295.761 57.2912 295.386C57.2912 295.083 57.1851 294.83 56.973 294.625C56.7609 294.417 56.4351 294.261 55.9957 294.159L54.5412 293.818C53.742 293.629 53.1548 293.335 52.7798 292.938C52.4086 292.536 52.223 292.034 52.223 291.432C52.223 290.939 52.3613 290.504 52.6378 290.125C52.9181 289.746 53.2988 289.449 53.7798 289.233C54.2647 289.017 54.8139 288.909 55.4276 288.909C56.2912 288.909 56.9692 289.098 57.4616 289.477C57.9579 289.856 58.3101 290.356 58.5185 290.977ZM64.4915 289.023V290.159H59.9688V289.023H64.4915ZM61.2869 286.932H62.6278V295.25C62.6278 295.629 62.6828 295.913 62.7926 296.102C62.9063 296.288 63.0502 296.413 63.2244 296.477C63.4025 296.538 63.59 296.568 63.7869 296.568C63.9347 296.568 64.0559 296.561 64.1506 296.545C64.2453 296.527 64.321 296.511 64.3778 296.5L64.6506 297.705C64.5597 297.739 64.4328 297.773 64.2699 297.807C64.107 297.845 63.9006 297.864 63.6506 297.864C63.2718 297.864 62.9006 297.782 62.5369 297.619C62.1771 297.456 61.8778 297.208 61.6392 296.875C61.4044 296.542 61.2869 296.121 61.2869 295.614V286.932ZM70.0739 297.932C69.233 297.932 68.5076 297.746 67.8977 297.375C67.2917 297 66.8239 296.477 66.4943 295.807C66.1686 295.133 66.0057 294.348 66.0057 293.455C66.0057 292.561 66.1686 291.773 66.4943 291.091C66.8239 290.405 67.2822 289.871 67.8693 289.489C68.4602 289.102 69.1496 288.909 69.9375 288.909C70.392 288.909 70.8409 288.985 71.2841 289.136C71.7273 289.288 72.1307 289.534 72.4943 289.875C72.858 290.212 73.1477 290.659 73.3636 291.216C73.5795 291.773 73.6875 292.458 73.6875 293.273V293.841H66.9602V292.682H72.3239C72.3239 292.189 72.2254 291.75 72.0284 291.364C71.8352 290.977 71.5587 290.672 71.1989 290.449C70.8428 290.225 70.4223 290.114 69.9375 290.114C69.4034 290.114 68.9413 290.246 68.5511 290.511C68.1648 290.773 67.8674 291.114 67.6591 291.534C67.4508 291.955 67.3466 292.405 67.3466 292.886V293.659C67.3466 294.318 67.4602 294.877 67.6875 295.335C67.9186 295.79 68.2386 296.136 68.6477 296.375C69.0568 296.61 69.5322 296.727 70.0739 296.727C70.4261 296.727 70.7443 296.678 71.0284 296.58C71.3163 296.477 71.5644 296.326 71.7727 296.125C71.9811 295.92 72.142 295.667 72.2557 295.364L73.5511 295.727C73.4148 296.167 73.1856 296.553 72.8636 296.886C72.5417 297.216 72.1439 297.473 71.6705 297.659C71.197 297.841 70.6648 297.932 70.0739 297.932ZM75.7273 297.75V289.023H77.0227V290.386H77.1364C77.3182 289.92 77.6117 289.559 78.017 289.301C78.4223 289.04 78.9091 288.909 79.4773 288.909C80.053 288.909 80.5322 289.04 80.9148 289.301C81.3011 289.559 81.6023 289.92 81.8182 290.386H81.9091C82.1326 289.936 82.4678 289.578 82.9148 289.312C83.3617 289.044 83.8977 288.909 84.5227 288.909C85.303 288.909 85.9413 289.153 86.4375 289.642C86.9337 290.127 87.1818 290.883 87.1818 291.909V297.75H85.8409V291.909C85.8409 291.265 85.6648 290.805 85.3125 290.528C84.9602 290.252 84.5455 290.114 84.0682 290.114C83.4545 290.114 82.9792 290.299 82.642 290.67C82.3049 291.038 82.1364 291.504 82.1364 292.068V297.75H80.7727V291.773C80.7727 291.277 80.6117 290.877 80.2898 290.574C79.9678 290.267 79.553 290.114 79.0455 290.114C78.697 290.114 78.3712 290.206 78.0682 290.392C77.7689 290.578 77.5265 290.835 77.3409 291.165C77.1591 291.491 77.0682 291.867 77.0682 292.295V297.75H75.7273ZM97.679 297.932C96.8911 297.932 96.1998 297.744 95.6051 297.369C95.0142 296.994 94.5521 296.47 94.2188 295.795C93.8892 295.121 93.7244 294.333 93.7244 293.432C93.7244 292.523 93.8892 291.729 94.2188 291.051C94.5521 290.373 95.0142 289.847 95.6051 289.472C96.1998 289.097 96.8911 288.909 97.679 288.909C98.4669 288.909 99.1563 289.097 99.7472 289.472C100.342 289.847 100.804 290.373 101.134 291.051C101.467 291.729 101.634 292.523 101.634 293.432C101.634 294.333 101.467 295.121 101.134 295.795C100.804 296.47 100.342 296.994 99.7472 297.369C99.1563 297.744 98.4669 297.932 97.679 297.932ZM97.679 296.727C98.2775 296.727 98.7699 296.574 99.1562 296.267C99.5426 295.96 99.8286 295.557 100.014 295.057C100.2 294.557 100.293 294.015 100.293 293.432C100.293 292.848 100.2 292.305 100.014 291.801C99.8286 291.297 99.5426 290.89 99.1562 290.58C98.7699 290.269 98.2775 290.114 97.679 290.114C97.0805 290.114 96.5881 290.269 96.2017 290.58C95.8153 290.89 95.5294 291.297 95.3438 291.801C95.1581 292.305 95.0653 292.848 95.0653 293.432C95.0653 294.015 95.1581 294.557 95.3438 295.057C95.5294 295.557 95.8153 295.96 96.2017 296.267C96.5881 296.574 97.0805 296.727 97.679 296.727ZM109.18 294.182V289.023H110.521V297.75H109.18V296.273H109.089C108.885 296.716 108.567 297.093 108.135 297.403C107.703 297.71 107.158 297.864 106.499 297.864C105.953 297.864 105.468 297.744 105.044 297.506C104.62 297.263 104.286 296.9 104.044 296.415C103.802 295.926 103.68 295.311 103.68 294.568V289.023H105.021V294.477C105.021 295.114 105.199 295.621 105.555 296C105.915 296.379 106.374 296.568 106.93 296.568C107.264 296.568 107.603 296.483 107.947 296.312C108.296 296.142 108.588 295.881 108.822 295.528C109.061 295.176 109.18 294.727 109.18 294.182ZM116.773 289.023V290.159H112.25V289.023H116.773ZM113.568 286.932H114.909V295.25C114.909 295.629 114.964 295.913 115.074 296.102C115.188 296.288 115.331 296.413 115.506 296.477C115.684 296.538 115.871 296.568 116.068 296.568C116.216 296.568 116.337 296.561 116.432 296.545C116.527 296.527 116.602 296.511 116.659 296.5L116.932 297.705C116.841 297.739 116.714 297.773 116.551 297.807C116.388 297.845 116.182 297.864 115.932 297.864C115.553 297.864 115.182 297.782 114.818 297.619C114.458 297.456 114.159 297.208 113.92 296.875C113.686 296.542 113.568 296.121 113.568 295.614V286.932ZM121.358 297.955C120.805 297.955 120.303 297.85 119.852 297.642C119.402 297.43 119.044 297.125 118.778 296.727C118.513 296.326 118.381 295.841 118.381 295.273C118.381 294.773 118.479 294.367 118.676 294.057C118.873 293.742 119.136 293.496 119.466 293.318C119.795 293.14 120.159 293.008 120.557 292.92C120.958 292.83 121.362 292.758 121.767 292.705C122.297 292.636 122.727 292.585 123.057 292.551C123.39 292.513 123.633 292.451 123.784 292.364C123.939 292.277 124.017 292.125 124.017 291.909V291.864C124.017 291.303 123.864 290.867 123.557 290.557C123.254 290.246 122.794 290.091 122.176 290.091C121.536 290.091 121.034 290.231 120.67 290.511C120.307 290.792 120.051 291.091 119.903 291.409L118.631 290.955C118.858 290.424 119.161 290.011 119.54 289.716C119.922 289.417 120.339 289.208 120.79 289.091C121.244 288.97 121.691 288.909 122.131 288.909C122.411 288.909 122.733 288.943 123.097 289.011C123.464 289.076 123.818 289.21 124.159 289.415C124.504 289.619 124.79 289.928 125.017 290.341C125.244 290.754 125.358 291.307 125.358 292V297.75H124.017V296.568H123.949C123.858 296.758 123.706 296.96 123.494 297.176C123.282 297.392 123 297.576 122.648 297.727C122.295 297.879 121.866 297.955 121.358 297.955ZM121.562 296.75C122.093 296.75 122.54 296.646 122.903 296.438C123.271 296.229 123.547 295.96 123.733 295.631C123.922 295.301 124.017 294.955 124.017 294.591V293.364C123.96 293.432 123.835 293.494 123.642 293.551C123.453 293.604 123.233 293.652 122.983 293.693C122.737 293.731 122.496 293.765 122.261 293.795C122.03 293.822 121.843 293.845 121.699 293.864C121.35 293.909 121.025 293.983 120.722 294.085C120.422 294.184 120.18 294.333 119.994 294.534C119.813 294.731 119.722 295 119.722 295.341C119.722 295.807 119.894 296.159 120.239 296.398C120.587 296.633 121.028 296.75 121.562 296.75ZM131.328 301.205C130.68 301.205 130.124 301.121 129.658 300.955C129.192 300.792 128.804 300.576 128.493 300.307C128.186 300.042 127.942 299.758 127.76 299.455L128.828 298.705C128.949 298.864 129.103 299.045 129.288 299.25C129.474 299.458 129.728 299.638 130.05 299.79C130.375 299.945 130.802 300.023 131.328 300.023C132.033 300.023 132.614 299.852 133.072 299.511C133.531 299.17 133.76 298.636 133.76 297.909V296.136H133.646C133.548 296.295 133.408 296.492 133.226 296.727C133.048 296.958 132.79 297.165 132.453 297.347C132.12 297.525 131.669 297.614 131.101 297.614C130.396 297.614 129.764 297.447 129.203 297.114C128.646 296.78 128.205 296.295 127.879 295.659C127.557 295.023 127.396 294.25 127.396 293.341C127.396 292.447 127.554 291.669 127.868 291.006C128.182 290.339 128.62 289.824 129.18 289.46C129.741 289.093 130.389 288.909 131.124 288.909C131.692 288.909 132.143 289.004 132.476 289.193C132.813 289.379 133.071 289.591 133.249 289.83C133.43 290.064 133.571 290.258 133.669 290.409H133.805V289.023H135.101V298C135.101 298.75 134.93 299.36 134.589 299.83C134.252 300.303 133.798 300.65 133.226 300.869C132.658 301.093 132.025 301.205 131.328 301.205ZM131.283 296.409C131.821 296.409 132.275 296.286 132.646 296.04C133.018 295.794 133.3 295.439 133.493 294.977C133.686 294.515 133.783 293.962 133.783 293.318C133.783 292.689 133.688 292.134 133.499 291.653C133.309 291.172 133.029 290.795 132.658 290.523C132.286 290.25 131.828 290.114 131.283 290.114C130.714 290.114 130.241 290.258 129.862 290.545C129.487 290.833 129.205 291.22 129.016 291.705C128.83 292.189 128.737 292.727 128.737 293.318C128.737 293.924 128.832 294.46 129.021 294.926C129.214 295.388 129.499 295.752 129.874 296.017C130.252 296.278 130.722 296.409 131.283 296.409ZM141.214 297.932C140.374 297.932 139.648 297.746 139.038 297.375C138.432 297 137.964 296.477 137.635 295.807C137.309 295.133 137.146 294.348 137.146 293.455C137.146 292.561 137.309 291.773 137.635 291.091C137.964 290.405 138.423 289.871 139.01 289.489C139.601 289.102 140.29 288.909 141.078 288.909C141.533 288.909 141.982 288.985 142.425 289.136C142.868 289.288 143.271 289.534 143.635 289.875C143.999 290.212 144.288 290.659 144.504 291.216C144.72 291.773 144.828 292.458 144.828 293.273V293.841H138.101V292.682H143.464C143.464 292.189 143.366 291.75 143.169 291.364C142.976 290.977 142.699 290.672 142.339 290.449C141.983 290.225 141.563 290.114 141.078 290.114C140.544 290.114 140.082 290.246 139.692 290.511C139.305 290.773 139.008 291.114 138.8 291.534C138.591 291.955 138.487 292.405 138.487 292.886V293.659C138.487 294.318 138.601 294.877 138.828 295.335C139.059 295.79 139.379 296.136 139.788 296.375C140.197 296.61 140.673 296.727 141.214 296.727C141.567 296.727 141.885 296.678 142.169 296.58C142.457 296.477 142.705 296.326 142.913 296.125C143.122 295.92 143.283 295.667 143.396 295.364L144.692 295.727C144.555 296.167 144.326 296.553 144.004 296.886C143.682 297.216 143.285 297.473 142.811 297.659C142.338 297.841 141.805 297.932 141.214 297.932ZM153.05 290.977L151.845 291.318C151.769 291.117 151.658 290.922 151.51 290.733C151.366 290.54 151.169 290.381 150.919 290.256C150.669 290.131 150.349 290.068 149.959 290.068C149.425 290.068 148.98 290.191 148.624 290.438C148.271 290.68 148.095 290.989 148.095 291.364C148.095 291.697 148.216 291.96 148.459 292.153C148.701 292.347 149.08 292.508 149.595 292.636L150.891 292.955C151.671 293.144 152.252 293.434 152.635 293.824C153.018 294.21 153.209 294.708 153.209 295.318C153.209 295.818 153.065 296.265 152.777 296.659C152.493 297.053 152.095 297.364 151.584 297.591C151.072 297.818 150.478 297.932 149.8 297.932C148.91 297.932 148.173 297.739 147.589 297.352C147.006 296.966 146.637 296.402 146.482 295.659L147.754 295.341C147.875 295.811 148.105 296.163 148.442 296.398C148.783 296.633 149.228 296.75 149.777 296.75C150.402 296.75 150.898 296.617 151.266 296.352C151.637 296.083 151.822 295.761 151.822 295.386C151.822 295.083 151.716 294.83 151.504 294.625C151.292 294.417 150.966 294.261 150.527 294.159L149.072 293.818C148.273 293.629 147.686 293.335 147.311 292.938C146.94 292.536 146.754 292.034 146.754 291.432C146.754 290.939 146.893 290.504 147.169 290.125C147.449 289.746 147.83 289.449 148.311 289.233C148.796 289.017 149.345 288.909 149.959 288.909C150.822 288.909 151.5 289.098 151.993 289.477C152.489 289.856 152.841 290.356 153.05 290.977Z" fill="black"/>
<rect x="426" y="280.2" width="42.0002" height="23.1001" rx="11.5501" fill="#8A8C8F"/>
<circle cx="437.55" cy="291.75" r="9.45004" fill="white"/>
<defs>
<clipPath id="clip0_570_3771">
<rect width="24" height="24" fill="white" transform="translate(32 24)"/>
</clipPath>
</defs>
</svg>
