<svg width="40" height="40" viewBox="0 0 40 40" fill="none" xmlns="http://www.w3.org/2000/svg">
<g clip-path="url(#clip0_614_3058)">
<path d="M38.3111 1.64444C39.2444 2.53333 39.8667 3.73333 40 5.02222C40 5.55555 39.8667 5.91111 39.5111 6.62222C39.2 7.28888 35.1556 14.2667 33.9556 16.1778C33.2889 17.2889 32.8889 18.6222 32.8889 19.9555C32.8889 21.2889 33.2444 22.5778 33.9556 23.7333C35.1556 25.6444 39.1556 32.6222 39.5111 33.3333C39.8222 34 40 34.3555 40 34.8889C39.8667 36.1778 39.2889 37.3778 38.3556 38.2666C37.4667 39.2 36.2667 39.8222 34.9778 39.9111C34.4444 39.9111 34.0889 39.7778 33.4222 39.4222C32.7556 39.1111 25.6889 35.2 23.7778 34C23.6444 33.9111 23.4667 33.8222 23.2889 33.7333L13.8222 28.1333C14.0444 29.9555 14.8444 31.6889 16.1333 32.9333C16.4 33.2 16.6222 33.4222 16.9333 33.6C16.7111 33.6889 16.4444 33.8222 16.2667 33.9555C14.3556 35.1555 7.37778 39.1555 6.66667 39.5111C6 39.8222 5.64444 40 5.06667 40C3.77778 39.8666 2.57778 39.2889 1.68889 38.3555C0.755556 37.4666 0.133333 36.2666 0 34.9778C0.0444444 34.4444 0.177778 33.9111 0.488889 33.4222C0.8 32.7555 4.84444 25.7333 6.04444 23.8222C6.71111 22.7111 7.11111 21.3778 7.11111 20.0444C7.11111 18.7111 6.75556 17.4222 6.04444 16.2667C4.8 14.2667 0.755556 7.28888 0.488889 6.62222C0.177778 6.13333 0.0444444 5.6 0 5.06666C0.133333 3.77778 0.711111 2.57778 1.64444 1.68889C2.53333 0.755555 3.73333 0.177778 5.02222 0.0444444C5.55556 0.0888888 6.08889 0.222222 6.62222 0.533333C7.2 0.8 12.3111 3.73333 15.0222 5.33333L15.6444 5.68889C15.8667 5.82222 16.0444 5.95555 16.1778 6L16.4889 6.17777L26.1333 11.9111C25.9111 9.73333 24.8 7.73333 23.0667 6.4C23.2889 6.31111 23.5556 6.17777 23.7333 6.04444C25.6444 4.84444 32.6222 0.8 33.3333 0.488889C33.8222 0.177778 34.3556 0.0444444 34.9333 0C36.2222 0.133333 37.3778 0.711111 38.3111 1.64444ZM20.4889 22.5778L22.5333 20.5333C22.8444 20.2222 22.8444 19.8222 22.5333 19.5111L20.4889 17.4667C20.1778 17.1555 19.7778 17.1555 19.4667 17.4667L17.4222 19.5111C17.1111 19.8222 17.1111 20.2222 17.4222 20.5333L19.4667 22.5778C19.7333 22.8 20.2222 22.8 20.4889 22.5778Z" fill="#FF694A"/>
</g>
<defs>
<clipPath id="clip0_614_3058">
<rect width="40" height="40" fill="white"/>
</clipPath>
</defs>
</svg>
